<?xml version="1.0" encoding="UTF-8" standalone="no"?><svg xmlns="http://www.w3.org/2000/svg" xmlns:xlink="http://www.w3.org/1999/xlink" contentScriptType="application/ecmascript" contentStyleType="text/css" height="1344px" preserveAspectRatio="none" style="width:1616px;height:1344px;background:#FFFFFF;" version="1.1" viewBox="0 0 1616 1344" width="1616px" zoomAndPan="magnify"><defs><filter height="300%" id="fk8vdc7z3ghny" width="300%" x="-1" y="-1"><feGaussianBlur result="blurOut" stdDeviation="2.0"/><feColorMatrix in="blurOut" result="blurOut2" type="matrix" values="0 0 0 0 0 0 0 0 0 0 0 0 0 0 0 0 0 0 .4 0"/><feOffset dx="4.0" dy="4.0" in="blurOut2" result="blurOut3"/><feBlend in="SourceGraphic" in2="blurOut3" mode="normal"/></filter></defs><g><!--MD5=[55cb992be19579b505cea3c5691093cb]
class ClientStore--><rect codeLine="3" fill="#FEFECE" filter="url(#fk8vdc7z3ghny)" height="89.5078" id="ClientStore" style="stroke:#A80036;stroke-width:1.5;" width="122" x="290.5" y="607.5"/><ellipse cx="318.55" cy="623.5" fill="#ADD1B2" rx="11" ry="11" style="stroke:#A80036;stroke-width:1.0;"/><path d="M320.55,620 Q320.7531,619.5 320.9875,619.25 Q321.2219,619 321.4875,619 Q321.9563,619 322.2531,619.2813 Q322.55,619.5625 322.55,620.2188 L322.55,621.7813 Q322.55,622.4375 322.2688,622.7188 Q321.9875,623 321.55,623 Q321.1594,623 320.9094,622.8281 Q320.6594,622.6563 320.55,622.2031 Q320.5031,621.8906 320.3313,621.7188 Q320.0188,621.3906 319.4563,621.2031 Q318.8938,621 318.3313,621 Q317.6281,621 317.0344,621.2813 Q316.4563,621.5625 316.0031,622.1875 Q315.55,622.8125 315.55,623.6719 L315.55,624.5938 Q315.55,625.625 316.3938,626.3125 Q317.2375,627 318.7375,627 Q319.6281,627 320.2531,626.7969 Q320.6125,626.6875 321.0188,626.3281 Q321.2844,626.125 321.425,626.0625 Q321.5656,626 321.7375,626 Q322.0656,626 322.3,626.2656 Q322.55,626.5156 322.55,626.875 Q322.55,627.2188 322.2063,627.625 Q321.7063,628.2188 320.9094,628.5469 Q319.8625,629 318.5813,629 Q317.0813,629 315.8781,628.4063 Q314.9094,627.9375 314.2219,626.9219 Q313.55,625.9063 313.55,624.7031 L313.55,623.6094 Q313.55,622.3594 314.1438,621.2656 Q314.7531,620.1719 315.8,619.5938 Q316.8625,619 318.05,619 Q318.7688,619 319.3938,619.25 Q320.0188,619.5 320.55,620 Z " fill="#000000"/><text fill="#000000" font-family="sans-serif" font-size="12" lengthAdjust="spacing" textLength="61" x="335.45" y="628.4102">ClientStore</text><line style="stroke:#A80036;stroke-width:1.5;" x1="291.5" x2="411.5" y1="639.5" y2="639.5"/><rect fill="none" height="6" style="stroke:#C82930;stroke-width:1.0;" width="6" x="298.5" y="647.5"/><text fill="#000000" font-family="sans-serif" font-size="11" lengthAdjust="spacing" textLength="26" x="310.5" y="654.9189">array</text><rect fill="none" height="6" style="stroke:#C82930;stroke-width:1.0;" width="6" x="298.5" y="661.3359"/><text fill="#000000" font-family="sans-serif" font-size="11" lengthAdjust="spacing" textLength="25" x="310.5" y="668.7549">client</text><line style="stroke:#A80036;stroke-width:1.5;" x1="291.5" x2="411.5" y1="675.1719" y2="675.1719"/><ellipse cx="301.5" cy="686.1719" fill="#84BE84" rx="3" ry="3" style="stroke:#038048;stroke-width:1.0;"/><text fill="#000000" font-family="sans-serif" font-size="11" lengthAdjust="spacing" textLength="96" x="310.5" y="690.5908">existClient(clientTin)</text><!--MD5=[0f6f7964b844a64b0496af0dda7914bd]
class TestStore--><rect codeLine="8" fill="#FEFECE" filter="url(#fk8vdc7z3ghny)" height="131.0156" id="TestStore" style="stroke:#A80036;stroke-width:1.5;" width="320" x="851.5" y="587"/><ellipse cx="980.75" cy="603" fill="#ADD1B2" rx="11" ry="11" style="stroke:#A80036;stroke-width:1.0;"/><path d="M982.75,599.5 Q982.9531,599 983.1875,598.75 Q983.4219,598.5 983.6875,598.5 Q984.1563,598.5 984.4531,598.7813 Q984.75,599.0625 984.75,599.7188 L984.75,601.2813 Q984.75,601.9375 984.4688,602.2188 Q984.1875,602.5 983.75,602.5 Q983.3594,602.5 983.1094,602.3281 Q982.8594,602.1563 982.75,601.7031 Q982.7031,601.3906 982.5313,601.2188 Q982.2188,600.8906 981.6563,600.7031 Q981.0938,600.5 980.5313,600.5 Q979.8281,600.5 979.2344,600.7813 Q978.6563,601.0625 978.2031,601.6875 Q977.75,602.3125 977.75,603.1719 L977.75,604.0938 Q977.75,605.125 978.5938,605.8125 Q979.4375,606.5 980.9375,606.5 Q981.8281,606.5 982.4531,606.2969 Q982.8125,606.1875 983.2188,605.8281 Q983.4844,605.625 983.625,605.5625 Q983.7656,605.5 983.9375,605.5 Q984.2656,605.5 984.5,605.7656 Q984.75,606.0156 984.75,606.375 Q984.75,606.7188 984.4063,607.125 Q983.9063,607.7188 983.1094,608.0469 Q982.0625,608.5 980.7813,608.5 Q979.2813,608.5 978.0781,607.9063 Q977.1094,607.4375 976.4219,606.4219 Q975.75,605.4063 975.75,604.2031 L975.75,603.1094 Q975.75,601.8594 976.3438,600.7656 Q976.9531,599.6719 978,599.0938 Q979.0625,598.5 980.25,598.5 Q980.9688,598.5 981.5938,598.75 Q982.2188,599 982.75,599.5 Z " fill="#000000"/><text fill="#000000" font-family="sans-serif" font-size="12" lengthAdjust="spacing" textLength="53" x="1001.25" y="607.9102">TestStore</text><line style="stroke:#A80036;stroke-width:1.5;" x1="852.5" x2="1170.5" y1="619" y2="619"/><rect fill="none" height="6" style="stroke:#C82930;stroke-width:1.0;" width="6" x="859.5" y="627"/><text fill="#000000" font-family="sans-serif" font-size="11" lengthAdjust="spacing" textLength="26" x="871.5" y="634.4189">array</text><rect fill="none" height="6" style="stroke:#C82930;stroke-width:1.0;" width="6" x="859.5" y="640.8359"/><text fill="#000000" font-family="sans-serif" font-size="11" lengthAdjust="spacing" textLength="18" x="871.5" y="648.2549">test</text><line style="stroke:#A80036;stroke-width:1.5;" x1="852.5" x2="1170.5" y1="654.6719" y2="654.6719"/><ellipse cx="862.5" cy="665.6719" fill="#84BE84" rx="3" ry="3" style="stroke:#038048;stroke-width:1.0;"/><text fill="#000000" font-family="sans-serif" font-size="11" lengthAdjust="spacing" textLength="294" x="871.5" y="670.0908">createTest(testNhsNumber,clientTin,testType, catList, paList)</text><ellipse cx="862.5" cy="679.5078" fill="#84BE84" rx="3" ry="3" style="stroke:#038048;stroke-width:1.0;"/><text fill="#000000" font-family="sans-serif" font-size="11" lengthAdjust="spacing" textLength="53" x="871.5" y="683.9268">saveTest()</text><rect fill="#F24D5C" height="6" style="stroke:#C82930;stroke-width:1.0;" width="6" x="859.5" y="690.3438"/><text fill="#000000" font-family="sans-serif" font-size="11" lengthAdjust="spacing" textLength="69" x="871.5" y="697.7627">validateTest(t)</text><rect fill="#F24D5C" height="6" style="stroke:#C82930;stroke-width:1.0;" width="6" x="859.5" y="704.1797"/><text fill="#000000" font-family="sans-serif" font-size="11" lengthAdjust="spacing" textLength="50" x="871.5" y="711.5986">addTest(t)</text><!--MD5=[6ba72ddf03822b91e8d41ca71de58ed3]
class TestTypeStore--><rect codeLine="16" fill="#FEFECE" filter="url(#fk8vdc7z3ghny)" height="89.5078" id="TestTypeStore" style="stroke:#A80036;stroke-width:1.5;" width="154" x="1206.5" y="607.5"/><ellipse cx="1240.85" cy="623.5" fill="#ADD1B2" rx="11" ry="11" style="stroke:#A80036;stroke-width:1.0;"/><path d="M1242.85,620 Q1243.0531,619.5 1243.2875,619.25 Q1243.5219,619 1243.7875,619 Q1244.2563,619 1244.5531,619.2813 Q1244.85,619.5625 1244.85,620.2188 L1244.85,621.7813 Q1244.85,622.4375 1244.5688,622.7188 Q1244.2875,623 1243.85,623 Q1243.4594,623 1243.2094,622.8281 Q1242.9594,622.6563 1242.85,622.2031 Q1242.8031,621.8906 1242.6313,621.7188 Q1242.3188,621.3906 1241.7563,621.2031 Q1241.1938,621 1240.6313,621 Q1239.9281,621 1239.3344,621.2813 Q1238.7563,621.5625 1238.3031,622.1875 Q1237.85,622.8125 1237.85,623.6719 L1237.85,624.5938 Q1237.85,625.625 1238.6938,626.3125 Q1239.5375,627 1241.0375,627 Q1241.9281,627 1242.5531,626.7969 Q1242.9125,626.6875 1243.3188,626.3281 Q1243.5844,626.125 1243.725,626.0625 Q1243.8656,626 1244.0375,626 Q1244.3656,626 1244.6,626.2656 Q1244.85,626.5156 1244.85,626.875 Q1244.85,627.2188 1244.5063,627.625 Q1244.0063,628.2188 1243.2094,628.5469 Q1242.1625,629 1240.8813,629 Q1239.3813,629 1238.1781,628.4063 Q1237.2094,627.9375 1236.5219,626.9219 Q1235.85,625.9063 1235.85,624.7031 L1235.85,623.6094 Q1235.85,622.3594 1236.4438,621.2656 Q1237.0531,620.1719 1238.1,619.5938 Q1239.1625,619 1240.35,619 Q1241.0688,619 1241.6938,619.25 Q1242.3188,619.5 1242.85,620 Z " fill="#000000"/><text fill="#000000" font-family="sans-serif" font-size="12" lengthAdjust="spacing" textLength="79" x="1259.15" y="628.4102">TestTypeStore</text><line style="stroke:#A80036;stroke-width:1.5;" x1="1207.5" x2="1359.5" y1="639.5" y2="639.5"/><rect fill="none" height="6" style="stroke:#C82930;stroke-width:1.0;" width="6" x="1214.5" y="647.5"/><text fill="#000000" font-family="sans-serif" font-size="11" lengthAdjust="spacing" textLength="26" x="1226.5" y="654.9189">array</text><rect fill="none" height="6" style="stroke:#C82930;stroke-width:1.0;" width="6" x="1214.5" y="661.3359"/><text fill="#000000" font-family="sans-serif" font-size="11" lengthAdjust="spacing" textLength="42" x="1226.5" y="668.7549">testType</text><line style="stroke:#A80036;stroke-width:1.5;" x1="1207.5" x2="1359.5" y1="675.1719" y2="675.1719"/><ellipse cx="1217.5" cy="686.1719" fill="#84BE84" rx="3" ry="3" style="stroke:#038048;stroke-width:1.0;"/><text fill="#000000" font-family="sans-serif" font-size="11" lengthAdjust="spacing" textLength="128" x="1226.5" y="690.5908">getByCode(testTypeCode)</text><!--MD5=[be7802b157a16874d39c59ca0e2b25be]
class ParameterStore--><rect codeLine="21" fill="#FEFECE" filter="url(#fk8vdc7z3ghny)" height="117.1797" id="ParameterStore" style="stroke:#A80036;stroke-width:1.5;" width="172" x="447.5" y="594"/><ellipse cx="486.35" cy="610" fill="#ADD1B2" rx="11" ry="11" style="stroke:#A80036;stroke-width:1.0;"/><path d="M488.35,606.5 Q488.5531,606 488.7875,605.75 Q489.0219,605.5 489.2875,605.5 Q489.7563,605.5 490.0531,605.7813 Q490.35,606.0625 490.35,606.7188 L490.35,608.2813 Q490.35,608.9375 490.0688,609.2188 Q489.7875,609.5 489.35,609.5 Q488.9594,609.5 488.7094,609.3281 Q488.4594,609.1563 488.35,608.7031 Q488.3031,608.3906 488.1313,608.2188 Q487.8188,607.8906 487.2563,607.7031 Q486.6938,607.5 486.1313,607.5 Q485.4281,607.5 484.8344,607.7813 Q484.2563,608.0625 483.8031,608.6875 Q483.35,609.3125 483.35,610.1719 L483.35,611.0938 Q483.35,612.125 484.1938,612.8125 Q485.0375,613.5 486.5375,613.5 Q487.4281,613.5 488.0531,613.2969 Q488.4125,613.1875 488.8188,612.8281 Q489.0844,612.625 489.225,612.5625 Q489.3656,612.5 489.5375,612.5 Q489.8656,612.5 490.1,612.7656 Q490.35,613.0156 490.35,613.375 Q490.35,613.7188 490.0063,614.125 Q489.5063,614.7188 488.7094,615.0469 Q487.6625,615.5 486.3813,615.5 Q484.8813,615.5 483.6781,614.9063 Q482.7094,614.4375 482.0219,613.4219 Q481.35,612.4063 481.35,611.2031 L481.35,610.1094 Q481.35,608.8594 481.9438,607.7656 Q482.5531,606.6719 483.6,606.0938 Q484.6625,605.5 485.85,605.5 Q486.5688,605.5 487.1938,605.75 Q487.8188,606 488.35,606.5 Z " fill="#000000"/><text fill="#000000" font-family="sans-serif" font-size="12" lengthAdjust="spacing" textLength="87" x="505.65" y="614.9102">ParameterStore</text><line style="stroke:#A80036;stroke-width:1.5;" x1="448.5" x2="618.5" y1="626" y2="626"/><rect fill="none" height="6" style="stroke:#C82930;stroke-width:1.0;" width="6" x="455.5" y="634"/><text fill="#000000" font-family="sans-serif" font-size="11" lengthAdjust="spacing" textLength="26" x="467.5" y="641.4189">array</text><rect fill="none" height="6" style="stroke:#C82930;stroke-width:1.0;" width="6" x="455.5" y="647.8359"/><text fill="#000000" font-family="sans-serif" font-size="11" lengthAdjust="spacing" textLength="12" x="467.5" y="655.2549">pc</text><line style="stroke:#A80036;stroke-width:1.5;" x1="448.5" x2="618.5" y1="661.6719" y2="661.6719"/><ellipse cx="458.5" cy="672.6719" fill="#84BE84" rx="3" ry="3" style="stroke:#038048;stroke-width:1.0;"/><text fill="#000000" font-family="sans-serif" font-size="11" lengthAdjust="spacing" textLength="83" x="467.5" y="677.0908">ParameterStore()</text><ellipse cx="458.5" cy="686.5078" fill="#84BE84" rx="3" ry="3" style="stroke:#038048;stroke-width:1.0;"/><text fill="#000000" font-family="sans-serif" font-size="11" lengthAdjust="spacing" textLength="146" x="467.5" y="690.9268">getParameter(parameterCode)</text><ellipse cx="458.5" cy="700.3438" fill="#84BE84" rx="3" ry="3" style="stroke:#038048;stroke-width:1.0;"/><text fill="#000000" font-family="sans-serif" font-size="11" lengthAdjust="spacing" textLength="124" x="467.5" y="704.7627">addParameter(parameter)</text><!--MD5=[24ddc89c74ec755c8e7b202f1c1a4f0c]
class CategoryStore--><rect codeLine="28" fill="#FEFECE" filter="url(#fk8vdc7z3ghny)" height="89.5078" id="CategoryStore" style="stroke:#A80036;stroke-width:1.5;" width="161" x="655" y="607.5"/><ellipse cx="692.95" cy="623.5" fill="#ADD1B2" rx="11" ry="11" style="stroke:#A80036;stroke-width:1.0;"/><path d="M694.95,620 Q695.1531,619.5 695.3875,619.25 Q695.6219,619 695.8875,619 Q696.3563,619 696.6531,619.2813 Q696.95,619.5625 696.95,620.2188 L696.95,621.7813 Q696.95,622.4375 696.6688,622.7188 Q696.3875,623 695.95,623 Q695.5594,623 695.3094,622.8281 Q695.0594,622.6563 694.95,622.2031 Q694.9031,621.8906 694.7313,621.7188 Q694.4188,621.3906 693.8563,621.2031 Q693.2938,621 692.7313,621 Q692.0281,621 691.4344,621.2813 Q690.8563,621.5625 690.4031,622.1875 Q689.95,622.8125 689.95,623.6719 L689.95,624.5938 Q689.95,625.625 690.7938,626.3125 Q691.6375,627 693.1375,627 Q694.0281,627 694.6531,626.7969 Q695.0125,626.6875 695.4188,626.3281 Q695.6844,626.125 695.825,626.0625 Q695.9656,626 696.1375,626 Q696.4656,626 696.7,626.2656 Q696.95,626.5156 696.95,626.875 Q696.95,627.2188 696.6063,627.625 Q696.1063,628.2188 695.3094,628.5469 Q694.2625,629 692.9813,629 Q691.4813,629 690.2781,628.4063 Q689.3094,627.9375 688.6219,626.9219 Q687.95,625.9063 687.95,624.7031 L687.95,623.6094 Q687.95,622.3594 688.5438,621.2656 Q689.1531,620.1719 690.2,619.5938 Q691.2625,619 692.45,619 Q693.1688,619 693.7938,619.25 Q694.4188,619.5 694.95,620 Z " fill="#000000"/><text fill="#000000" font-family="sans-serif" font-size="12" lengthAdjust="spacing" textLength="78" x="712.05" y="628.4102">CategoryStore</text><line style="stroke:#A80036;stroke-width:1.5;" x1="656" x2="815" y1="639.5" y2="639.5"/><rect fill="none" height="6" style="stroke:#C82930;stroke-width:1.0;" width="6" x="663" y="647.5"/><text fill="#000000" font-family="sans-serif" font-size="11" lengthAdjust="spacing" textLength="26" x="675" y="654.9189">array</text><line style="stroke:#A80036;stroke-width:1.5;" x1="656" x2="815" y1="661.3359" y2="661.3359"/><ellipse cx="666" cy="672.3359" fill="#84BE84" rx="3" ry="3" style="stroke:#038048;stroke-width:1.0;"/><text fill="#000000" font-family="sans-serif" font-size="11" lengthAdjust="spacing" textLength="135" x="675" y="676.7549">getCategory(categoryCode)</text><ellipse cx="666" cy="686.1719" fill="#84BE84" rx="3" ry="3" style="stroke:#038048;stroke-width:1.0;"/><text fill="#000000" font-family="sans-serif" font-size="11" lengthAdjust="spacing" textLength="113" x="675" y="690.5908">addCategory(category)</text><!--MD5=[724ead17d3ca940995455a91cefd1e12]
class TestTypeMapper--><rect codeLine="33" fill="#FEFECE" filter="url(#fk8vdc7z3ghny)" height="75.6719" id="TestTypeMapper" style="stroke:#A80036;stroke-width:1.5;" width="123" x="16" y="384.5"/><ellipse cx="31" cy="400.5" fill="#ADD1B2" rx="11" ry="11" style="stroke:#A80036;stroke-width:1.0;"/><path d="M33,397 Q33.2031,396.5 33.4375,396.25 Q33.6719,396 33.9375,396 Q34.4063,396 34.7031,396.2813 Q35,396.5625 35,397.2188 L35,398.7813 Q35,399.4375 34.7188,399.7188 Q34.4375,400 34,400 Q33.6094,400 33.3594,399.8281 Q33.1094,399.6563 33,399.2031 Q32.9531,398.8906 32.7813,398.7188 Q32.4688,398.3906 31.9063,398.2031 Q31.3438,398 30.7813,398 Q30.0781,398 29.4844,398.2813 Q28.9063,398.5625 28.4531,399.1875 Q28,399.8125 28,400.6719 L28,401.5938 Q28,402.625 28.8438,403.3125 Q29.6875,404 31.1875,404 Q32.0781,404 32.7031,403.7969 Q33.0625,403.6875 33.4688,403.3281 Q33.7344,403.125 33.875,403.0625 Q34.0156,403 34.1875,403 Q34.5156,403 34.75,403.2656 Q35,403.5156 35,403.875 Q35,404.2188 34.6563,404.625 Q34.1563,405.2188 33.3594,405.5469 Q32.3125,406 31.0313,406 Q29.5313,406 28.3281,405.4063 Q27.3594,404.9375 26.6719,403.9219 Q26,402.9063 26,401.7031 L26,400.6094 Q26,399.3594 26.5938,398.2656 Q27.2031,397.1719 28.25,396.5938 Q29.3125,396 30.5,396 Q31.2188,396 31.8438,396.25 Q32.4688,396.5 33,397 Z " fill="#000000"/><text fill="#000000" font-family="sans-serif" font-size="12" lengthAdjust="spacing" textLength="91" x="45" y="405.4102">TestTypeMapper</text><line style="stroke:#A80036;stroke-width:1.5;" x1="17" x2="138" y1="416.5" y2="416.5"/><line style="stroke:#A80036;stroke-width:1.5;" x1="17" x2="138" y1="424.5" y2="424.5"/><ellipse cx="27" cy="435.5" fill="#84BE84" rx="3" ry="3" style="stroke:#038048;stroke-width:1.0;"/><text fill="#000000" font-family="sans-serif" font-size="11" lengthAdjust="spacing" textLength="56" x="36" y="439.9189">toDto(ttList)</text><rect fill="#F24D5C" height="6" style="stroke:#C82930;stroke-width:1.0;" width="6" x="24" y="446.3359"/><text fill="#000000" font-family="sans-serif" font-size="11" lengthAdjust="spacing" textLength="75" x="36" y="453.7549">toDto(testType)</text><!--MD5=[d0024740988d3925690046e9afae9c9c]
class TestTypeDTO--><rect codeLine="37" fill="#FEFECE" filter="url(#fk8vdc7z3ghny)" height="103.3438" id="TestTypeDTO" style="stroke:#A80036;stroke-width:1.5;" width="107" x="7" y="601"/><ellipse cx="22" cy="617" fill="#ADD1B2" rx="11" ry="11" style="stroke:#A80036;stroke-width:1.0;"/><path d="M24,613.5 Q24.2031,613 24.4375,612.75 Q24.6719,612.5 24.9375,612.5 Q25.4063,612.5 25.7031,612.7813 Q26,613.0625 26,613.7188 L26,615.2813 Q26,615.9375 25.7188,616.2188 Q25.4375,616.5 25,616.5 Q24.6094,616.5 24.3594,616.3281 Q24.1094,616.1563 24,615.7031 Q23.9531,615.3906 23.7813,615.2188 Q23.4688,614.8906 22.9063,614.7031 Q22.3438,614.5 21.7813,614.5 Q21.0781,614.5 20.4844,614.7813 Q19.9063,615.0625 19.4531,615.6875 Q19,616.3125 19,617.1719 L19,618.0938 Q19,619.125 19.8438,619.8125 Q20.6875,620.5 22.1875,620.5 Q23.0781,620.5 23.7031,620.2969 Q24.0625,620.1875 24.4688,619.8281 Q24.7344,619.625 24.875,619.5625 Q25.0156,619.5 25.1875,619.5 Q25.5156,619.5 25.75,619.7656 Q26,620.0156 26,620.375 Q26,620.7188 25.6563,621.125 Q25.1563,621.7188 24.3594,622.0469 Q23.3125,622.5 22.0313,622.5 Q20.5313,622.5 19.3281,621.9063 Q18.3594,621.4375 17.6719,620.4219 Q17,619.4063 17,618.2031 L17,617.1094 Q17,615.8594 17.5938,614.7656 Q18.2031,613.6719 19.25,613.0938 Q20.3125,612.5 21.5,612.5 Q22.2188,612.5 22.8438,612.75 Q23.4688,613 24,613.5 Z " fill="#000000"/><text fill="#000000" font-family="sans-serif" font-size="12" lengthAdjust="spacing" textLength="75" x="36" y="621.9102">TestTypeDTO</text><line style="stroke:#A80036;stroke-width:1.5;" x1="8" x2="113" y1="633" y2="633"/><rect fill="none" height="6" style="stroke:#C82930;stroke-width:1.0;" width="6" x="15" y="641"/><text fill="#000000" font-family="sans-serif" font-size="11" lengthAdjust="spacing" textLength="54" x="27" y="648.4189">TestTypeID</text><rect fill="none" height="6" style="stroke:#C82930;stroke-width:1.0;" width="6" x="15" y="654.8359"/><text fill="#000000" font-family="sans-serif" font-size="11" lengthAdjust="spacing" textLength="53" x="27" y="662.2549">description</text><line style="stroke:#A80036;stroke-width:1.5;" x1="8" x2="113" y1="668.6719" y2="668.6719"/><ellipse cx="18" cy="679.6719" fill="#84BE84" rx="3" ry="3" style="stroke:#038048;stroke-width:1.0;"/><text fill="#000000" font-family="sans-serif" font-size="11" lengthAdjust="spacing" textLength="77" x="27" y="684.0908">getTestTypeID()</text><ellipse cx="18" cy="693.5078" fill="#84BE84" rx="3" ry="3" style="stroke:#038048;stroke-width:1.0;"/><text fill="#000000" font-family="sans-serif" font-size="11" lengthAdjust="spacing" textLength="77" x="27" y="697.9268">getDescription()</text><!--MD5=[42b112c0ea95da03e7069bd6f86217f1]
class CategoryListMapper--><rect codeLine="44" fill="#FEFECE" filter="url(#fk8vdc7z3ghny)" height="75.6719" id="CategoryListMapper" style="stroke:#A80036;stroke-width:1.5;" width="142" x="224.5" y="384.5"/><ellipse cx="239.5" cy="400.5" fill="#ADD1B2" rx="11" ry="11" style="stroke:#A80036;stroke-width:1.0;"/><path d="M241.5,397 Q241.7031,396.5 241.9375,396.25 Q242.1719,396 242.4375,396 Q242.9063,396 243.2031,396.2813 Q243.5,396.5625 243.5,397.2188 L243.5,398.7813 Q243.5,399.4375 243.2188,399.7188 Q242.9375,400 242.5,400 Q242.1094,400 241.8594,399.8281 Q241.6094,399.6563 241.5,399.2031 Q241.4531,398.8906 241.2813,398.7188 Q240.9688,398.3906 240.4063,398.2031 Q239.8438,398 239.2813,398 Q238.5781,398 237.9844,398.2813 Q237.4063,398.5625 236.9531,399.1875 Q236.5,399.8125 236.5,400.6719 L236.5,401.5938 Q236.5,402.625 237.3438,403.3125 Q238.1875,404 239.6875,404 Q240.5781,404 241.2031,403.7969 Q241.5625,403.6875 241.9688,403.3281 Q242.2344,403.125 242.375,403.0625 Q242.5156,403 242.6875,403 Q243.0156,403 243.25,403.2656 Q243.5,403.5156 243.5,403.875 Q243.5,404.2188 243.1563,404.625 Q242.6563,405.2188 241.8594,405.5469 Q240.8125,406 239.5313,406 Q238.0313,406 236.8281,405.4063 Q235.8594,404.9375 235.1719,403.9219 Q234.5,402.9063 234.5,401.7031 L234.5,400.6094 Q234.5,399.3594 235.0938,398.2656 Q235.7031,397.1719 236.75,396.5938 Q237.8125,396 239,396 Q239.7188,396 240.3438,396.25 Q240.9688,396.5 241.5,397 Z " fill="#000000"/><text fill="#000000" font-family="sans-serif" font-size="12" lengthAdjust="spacing" textLength="110" x="253.5" y="405.4102">CategoryListMapper</text><line style="stroke:#A80036;stroke-width:1.5;" x1="225.5" x2="365.5" y1="416.5" y2="416.5"/><line style="stroke:#A80036;stroke-width:1.5;" x1="225.5" x2="365.5" y1="424.5" y2="424.5"/><ellipse cx="235.5" cy="435.5" fill="#84BE84" rx="3" ry="3" style="stroke:#038048;stroke-width:1.0;"/><text fill="#000000" font-family="sans-serif" font-size="11" lengthAdjust="spacing" textLength="106" x="244.5" y="439.9189">toDTO(categoriesList)</text><rect fill="#F24D5C" height="6" style="stroke:#C82930;stroke-width:1.0;" width="6" x="232.5" y="446.3359"/><text fill="#000000" font-family="sans-serif" font-size="11" lengthAdjust="spacing" textLength="81" x="244.5" y="453.7549">toDTO(category)</text><!--MD5=[b18ac2661f7e59cb6e5cd7b7c83cf5d2]
class CategoryDTO--><rect codeLine="48" fill="#FEFECE" filter="url(#fk8vdc7z3ghny)" height="103.3438" id="CategoryDTO" style="stroke:#A80036;stroke-width:1.5;" width="106" x="149.5" y="601"/><ellipse cx="164.5" cy="617" fill="#ADD1B2" rx="11" ry="11" style="stroke:#A80036;stroke-width:1.0;"/><path d="M166.5,613.5 Q166.7031,613 166.9375,612.75 Q167.1719,612.5 167.4375,612.5 Q167.9063,612.5 168.2031,612.7813 Q168.5,613.0625 168.5,613.7188 L168.5,615.2813 Q168.5,615.9375 168.2188,616.2188 Q167.9375,616.5 167.5,616.5 Q167.1094,616.5 166.8594,616.3281 Q166.6094,616.1563 166.5,615.7031 Q166.4531,615.3906 166.2813,615.2188 Q165.9688,614.8906 165.4063,614.7031 Q164.8438,614.5 164.2813,614.5 Q163.5781,614.5 162.9844,614.7813 Q162.4063,615.0625 161.9531,615.6875 Q161.5,616.3125 161.5,617.1719 L161.5,618.0938 Q161.5,619.125 162.3438,619.8125 Q163.1875,620.5 164.6875,620.5 Q165.5781,620.5 166.2031,620.2969 Q166.5625,620.1875 166.9688,619.8281 Q167.2344,619.625 167.375,619.5625 Q167.5156,619.5 167.6875,619.5 Q168.0156,619.5 168.25,619.7656 Q168.5,620.0156 168.5,620.375 Q168.5,620.7188 168.1563,621.125 Q167.6563,621.7188 166.8594,622.0469 Q165.8125,622.5 164.5313,622.5 Q163.0313,622.5 161.8281,621.9063 Q160.8594,621.4375 160.1719,620.4219 Q159.5,619.4063 159.5,618.2031 L159.5,617.1094 Q159.5,615.8594 160.0938,614.7656 Q160.7031,613.6719 161.75,613.0938 Q162.8125,612.5 164,612.5 Q164.7188,612.5 165.3438,612.75 Q165.9688,613 166.5,613.5 Z " fill="#000000"/><text fill="#000000" font-family="sans-serif" font-size="12" lengthAdjust="spacing" textLength="74" x="178.5" y="621.9102">CategoryDTO</text><line style="stroke:#A80036;stroke-width:1.5;" x1="150.5" x2="254.5" y1="633" y2="633"/><rect fill="none" height="6" style="stroke:#C82930;stroke-width:1.0;" width="6" x="157.5" y="641"/><text fill="#000000" font-family="sans-serif" font-size="11" lengthAdjust="spacing" textLength="24" x="169.5" y="648.4189">code</text><rect fill="none" height="6" style="stroke:#C82930;stroke-width:1.0;" width="6" x="157.5" y="654.8359"/><text fill="#000000" font-family="sans-serif" font-size="11" lengthAdjust="spacing" textLength="26" x="169.5" y="662.2549">name</text><line style="stroke:#A80036;stroke-width:1.5;" x1="150.5" x2="254.5" y1="668.6719" y2="668.6719"/><ellipse cx="160.5" cy="679.6719" fill="#84BE84" rx="3" ry="3" style="stroke:#038048;stroke-width:1.0;"/><text fill="#000000" font-family="sans-serif" font-size="11" lengthAdjust="spacing" textLength="48" x="169.5" y="684.0908">getCode()</text><ellipse cx="160.5" cy="693.5078" fill="#84BE84" rx="3" ry="3" style="stroke:#038048;stroke-width:1.0;"/><text fill="#000000" font-family="sans-serif" font-size="11" lengthAdjust="spacing" textLength="50" x="169.5" y="697.9268">getName()</text><!--MD5=[e0569d1bc34b9d21face98cd33d75fba]
class ParameterMapper--><rect codeLine="55" fill="#FEFECE" filter="url(#fk8vdc7z3ghny)" height="75.6719" id="ParameterMapper" style="stroke:#A80036;stroke-width:1.5;" width="136" x="1466.5" y="384.5"/><ellipse cx="1483.75" cy="400.5" fill="#ADD1B2" rx="11" ry="11" style="stroke:#A80036;stroke-width:1.0;"/><path d="M1485.75,397 Q1485.9531,396.5 1486.1875,396.25 Q1486.4219,396 1486.6875,396 Q1487.1563,396 1487.4531,396.2813 Q1487.75,396.5625 1487.75,397.2188 L1487.75,398.7813 Q1487.75,399.4375 1487.4688,399.7188 Q1487.1875,400 1486.75,400 Q1486.3594,400 1486.1094,399.8281 Q1485.8594,399.6563 1485.75,399.2031 Q1485.7031,398.8906 1485.5313,398.7188 Q1485.2188,398.3906 1484.6563,398.2031 Q1484.0938,398 1483.5313,398 Q1482.8281,398 1482.2344,398.2813 Q1481.6563,398.5625 1481.2031,399.1875 Q1480.75,399.8125 1480.75,400.6719 L1480.75,401.5938 Q1480.75,402.625 1481.5938,403.3125 Q1482.4375,404 1483.9375,404 Q1484.8281,404 1485.4531,403.7969 Q1485.8125,403.6875 1486.2188,403.3281 Q1486.4844,403.125 1486.625,403.0625 Q1486.7656,403 1486.9375,403 Q1487.2656,403 1487.5,403.2656 Q1487.75,403.5156 1487.75,403.875 Q1487.75,404.2188 1487.4063,404.625 Q1486.9063,405.2188 1486.1094,405.5469 Q1485.0625,406 1483.7813,406 Q1482.2813,406 1481.0781,405.4063 Q1480.1094,404.9375 1479.4219,403.9219 Q1478.75,402.9063 1478.75,401.7031 L1478.75,400.6094 Q1478.75,399.3594 1479.3438,398.2656 Q1479.9531,397.1719 1481,396.5938 Q1482.0625,396 1483.25,396 Q1483.9688,396 1484.5938,396.25 Q1485.2188,396.5 1485.75,397 Z " fill="#000000"/><text fill="#000000" font-family="sans-serif" font-size="12" lengthAdjust="spacing" textLength="99" x="1498.25" y="405.4102">ParameterMapper</text><line style="stroke:#A80036;stroke-width:1.5;" x1="1467.5" x2="1601.5" y1="416.5" y2="416.5"/><line style="stroke:#A80036;stroke-width:1.5;" x1="1467.5" x2="1601.5" y1="424.5" y2="424.5"/><ellipse cx="1477.5" cy="435.5" fill="#84BE84" rx="3" ry="3" style="stroke:#038048;stroke-width:1.0;"/><text fill="#000000" font-family="sans-serif" font-size="11" lengthAdjust="spacing" textLength="110" x="1486.5" y="439.9189">toDTO(parametersList)</text><rect fill="#F24D5C" height="6" style="stroke:#C82930;stroke-width:1.0;" width="6" x="1474.5" y="446.3359"/><text fill="#000000" font-family="sans-serif" font-size="11" lengthAdjust="spacing" textLength="87" x="1486.5" y="453.7549">toDTO(parameter)</text><!--MD5=[e82331375a7233007428e4f15d504621]
class ParameterDTO--><rect codeLine="59" fill="#FEFECE" filter="url(#fk8vdc7z3ghny)" height="103.3438" id="ParameterDTO" style="stroke:#A80036;stroke-width:1.5;" width="115" x="1477" y="601"/><ellipse cx="1492" cy="617" fill="#ADD1B2" rx="11" ry="11" style="stroke:#A80036;stroke-width:1.0;"/><path d="M1494,613.5 Q1494.2031,613 1494.4375,612.75 Q1494.6719,612.5 1494.9375,612.5 Q1495.4063,612.5 1495.7031,612.7813 Q1496,613.0625 1496,613.7188 L1496,615.2813 Q1496,615.9375 1495.7188,616.2188 Q1495.4375,616.5 1495,616.5 Q1494.6094,616.5 1494.3594,616.3281 Q1494.1094,616.1563 1494,615.7031 Q1493.9531,615.3906 1493.7813,615.2188 Q1493.4688,614.8906 1492.9063,614.7031 Q1492.3438,614.5 1491.7813,614.5 Q1491.0781,614.5 1490.4844,614.7813 Q1489.9063,615.0625 1489.4531,615.6875 Q1489,616.3125 1489,617.1719 L1489,618.0938 Q1489,619.125 1489.8438,619.8125 Q1490.6875,620.5 1492.1875,620.5 Q1493.0781,620.5 1493.7031,620.2969 Q1494.0625,620.1875 1494.4688,619.8281 Q1494.7344,619.625 1494.875,619.5625 Q1495.0156,619.5 1495.1875,619.5 Q1495.5156,619.5 1495.75,619.7656 Q1496,620.0156 1496,620.375 Q1496,620.7188 1495.6563,621.125 Q1495.1563,621.7188 1494.3594,622.0469 Q1493.3125,622.5 1492.0313,622.5 Q1490.5313,622.5 1489.3281,621.9063 Q1488.3594,621.4375 1487.6719,620.4219 Q1487,619.4063 1487,618.2031 L1487,617.1094 Q1487,615.8594 1487.5938,614.7656 Q1488.2031,613.6719 1489.25,613.0938 Q1490.3125,612.5 1491.5,612.5 Q1492.2188,612.5 1492.8438,612.75 Q1493.4688,613 1494,613.5 Z " fill="#000000"/><text fill="#000000" font-family="sans-serif" font-size="12" lengthAdjust="spacing" textLength="83" x="1506" y="621.9102">ParameterDTO</text><line style="stroke:#A80036;stroke-width:1.5;" x1="1478" x2="1591" y1="633" y2="633"/><rect fill="none" height="6" style="stroke:#C82930;stroke-width:1.0;" width="6" x="1485" y="641"/><text fill="#000000" font-family="sans-serif" font-size="11" lengthAdjust="spacing" textLength="24" x="1497" y="648.4189">code</text><rect fill="none" height="6" style="stroke:#C82930;stroke-width:1.0;" width="6" x="1485" y="654.8359"/><text fill="#000000" font-family="sans-serif" font-size="11" lengthAdjust="spacing" textLength="26" x="1497" y="662.2549">name</text><line style="stroke:#A80036;stroke-width:1.5;" x1="1478" x2="1591" y1="668.6719" y2="668.6719"/><ellipse cx="1488" cy="679.6719" fill="#84BE84" rx="3" ry="3" style="stroke:#038048;stroke-width:1.0;"/><text fill="#000000" font-family="sans-serif" font-size="11" lengthAdjust="spacing" textLength="48" x="1497" y="684.0908">getCode()</text><ellipse cx="1488" cy="693.5078" fill="#84BE84" rx="3" ry="3" style="stroke:#038048;stroke-width:1.0;"/><text fill="#000000" font-family="sans-serif" font-size="11" lengthAdjust="spacing" textLength="50" x="1497" y="697.9268">getName()</text><!--MD5=[02e4b9b7573f1156f41e60aa5b4e25a4]
class Company--><rect codeLine="66" fill="#FEFECE" filter="url(#fk8vdc7z3ghny)" height="172.5234" id="Company" style="stroke:#A80036;stroke-width:1.5;" width="136" x="712.5" y="336"/><ellipse cx="750.45" cy="352" fill="#ADD1B2" rx="11" ry="11" style="stroke:#A80036;stroke-width:1.0;"/><path d="M752.45,348.5 Q752.6531,348 752.8875,347.75 Q753.1219,347.5 753.3875,347.5 Q753.8563,347.5 754.1531,347.7813 Q754.45,348.0625 754.45,348.7188 L754.45,350.2813 Q754.45,350.9375 754.1688,351.2188 Q753.8875,351.5 753.45,351.5 Q753.0594,351.5 752.8094,351.3281 Q752.5594,351.1563 752.45,350.7031 Q752.4031,350.3906 752.2313,350.2188 Q751.9188,349.8906 751.3563,349.7031 Q750.7938,349.5 750.2313,349.5 Q749.5281,349.5 748.9344,349.7813 Q748.3563,350.0625 747.9031,350.6875 Q747.45,351.3125 747.45,352.1719 L747.45,353.0938 Q747.45,354.125 748.2938,354.8125 Q749.1375,355.5 750.6375,355.5 Q751.5281,355.5 752.1531,355.2969 Q752.5125,355.1875 752.9188,354.8281 Q753.1844,354.625 753.325,354.5625 Q753.4656,354.5 753.6375,354.5 Q753.9656,354.5 754.2,354.7656 Q754.45,355.0156 754.45,355.375 Q754.45,355.7188 754.1063,356.125 Q753.6063,356.7188 752.8094,357.0469 Q751.7625,357.5 750.4813,357.5 Q748.9813,357.5 747.7781,356.9063 Q746.8094,356.4375 746.1219,355.4219 Q745.45,354.4063 745.45,353.2031 L745.45,352.1094 Q745.45,350.8594 746.0438,349.7656 Q746.6531,348.6719 747.7,348.0938 Q748.7625,347.5 749.95,347.5 Q750.6688,347.5 751.2938,347.75 Q751.9188,348 752.45,348.5 Z " fill="#000000"/><text fill="#000000" font-family="sans-serif" font-size="12" lengthAdjust="spacing" textLength="53" x="769.55" y="356.9102">Company</text><line style="stroke:#A80036;stroke-width:1.5;" x1="713.5" x2="847.5" y1="368" y2="368"/><rect fill="none" height="6" style="stroke:#C82930;stroke-width:1.0;" width="6" x="720.5" y="376"/><text fill="#000000" font-family="sans-serif" font-size="11" lengthAdjust="spacing" textLength="55" x="732.5" y="383.4189">designation</text><rect fill="none" height="6" style="stroke:#C82930;stroke-width:1.0;" width="6" x="720.5" y="389.8359"/><text fill="#000000" font-family="sans-serif" font-size="11" lengthAdjust="spacing" textLength="110" x="732.5" y="397.2549">parameterCategoryList</text><rect fill="none" height="6" style="stroke:#C82930;stroke-width:1.0;" width="6" x="720.5" y="403.6719"/><text fill="#000000" font-family="sans-serif" font-size="11" lengthAdjust="spacing" textLength="42" x="732.5" y="411.0908">clientList</text><rect fill="none" height="6" style="stroke:#C82930;stroke-width:1.0;" width="6" x="720.5" y="417.5078"/><text fill="#000000" font-family="sans-serif" font-size="11" lengthAdjust="spacing" textLength="35" x="732.5" y="424.9268">testList</text><rect fill="none" height="6" style="stroke:#C82930;stroke-width:1.0;" width="6" x="720.5" y="431.3438"/><text fill="#000000" font-family="sans-serif" font-size="11" lengthAdjust="spacing" textLength="66" x="732.5" y="438.7627">parameterList</text><rect fill="none" height="6" style="stroke:#C82930;stroke-width:1.0;" width="6" x="720.5" y="445.1797"/><text fill="#000000" font-family="sans-serif" font-size="11" lengthAdjust="spacing" textLength="59" x="732.5" y="452.5986">testTypeList</text><line style="stroke:#A80036;stroke-width:1.5;" x1="713.5" x2="847.5" y1="459.0156" y2="459.0156"/><ellipse cx="723.5" cy="470.0156" fill="#84BE84" rx="3" ry="3" style="stroke:#038048;stroke-width:1.0;"/><text fill="#000000" font-family="sans-serif" font-size="11" lengthAdjust="spacing" textLength="85" x="732.5" y="474.4346">getTestTypeList()</text><ellipse cx="723.5" cy="483.8516" fill="#84BE84" rx="3" ry="3" style="stroke:#038048;stroke-width:1.0;"/><text fill="#000000" font-family="sans-serif" font-size="11" lengthAdjust="spacing" textLength="77" x="732.5" y="488.2705">categoryStore()</text><ellipse cx="723.5" cy="497.6875" fill="#84BE84" rx="3" ry="3" style="stroke:#038048;stroke-width:1.0;"/><text fill="#000000" font-family="sans-serif" font-size="11" lengthAdjust="spacing" textLength="83" x="732.5" y="502.1064">parameterStore()</text><!--MD5=[73677359b52d98a525977144c337a659]
class RegisterTestController--><rect codeLine="77" fill="#FEFECE" filter="url(#fk8vdc7z3ghny)" height="158.6875" id="RegisterTestController" style="stroke:#A80036;stroke-width:1.5;" width="175" x="632" y="116"/><ellipse cx="655.1" cy="132" fill="#ADD1B2" rx="11" ry="11" style="stroke:#A80036;stroke-width:1.0;"/><path d="M657.1,128.5 Q657.3031,128 657.5375,127.75 Q657.7719,127.5 658.0375,127.5 Q658.5063,127.5 658.8031,127.7813 Q659.1,128.0625 659.1,128.7188 L659.1,130.2813 Q659.1,130.9375 658.8188,131.2188 Q658.5375,131.5 658.1,131.5 Q657.7094,131.5 657.4594,131.3281 Q657.2094,131.1563 657.1,130.7031 Q657.0531,130.3906 656.8813,130.2188 Q656.5688,129.8906 656.0063,129.7031 Q655.4438,129.5 654.8813,129.5 Q654.1781,129.5 653.5844,129.7813 Q653.0063,130.0625 652.5531,130.6875 Q652.1,131.3125 652.1,132.1719 L652.1,133.0938 Q652.1,134.125 652.9438,134.8125 Q653.7875,135.5 655.2875,135.5 Q656.1781,135.5 656.8031,135.2969 Q657.1625,135.1875 657.5688,134.8281 Q657.8344,134.625 657.975,134.5625 Q658.1156,134.5 658.2875,134.5 Q658.6156,134.5 658.85,134.7656 Q659.1,135.0156 659.1,135.375 Q659.1,135.7188 658.7563,136.125 Q658.2563,136.7188 657.4594,137.0469 Q656.4125,137.5 655.1313,137.5 Q653.6313,137.5 652.4281,136.9063 Q651.4594,136.4375 650.7719,135.4219 Q650.1,134.4063 650.1,133.2031 L650.1,132.1094 Q650.1,130.8594 650.6938,129.7656 Q651.3031,128.6719 652.35,128.0938 Q653.4125,127.5 654.6,127.5 Q655.3188,127.5 655.9438,127.75 Q656.5688,128 657.1,128.5 Z " fill="#000000"/><text fill="#000000" font-family="sans-serif" font-size="12" lengthAdjust="spacing" textLength="125" x="670.9" y="136.9102">RegisterTestController</text><line style="stroke:#A80036;stroke-width:1.5;" x1="633" x2="806" y1="148" y2="148"/><line style="stroke:#A80036;stroke-width:1.5;" x1="633" x2="806" y1="156" y2="156"/><ellipse cx="643" cy="167" fill="#84BE84" rx="3" ry="3" style="stroke:#038048;stroke-width:1.0;"/><text fill="#000000" font-family="sans-serif" font-size="11" lengthAdjust="spacing" textLength="46" x="652" y="171.4189">getLists()</text><ellipse cx="643" cy="180.8359" fill="#84BE84" rx="3" ry="3" style="stroke:#038048;stroke-width:1.0;"/><text fill="#000000" font-family="sans-serif" font-size="11" lengthAdjust="spacing" textLength="108" x="652" y="185.2549">existsClients(clientCC)</text><ellipse cx="643" cy="194.6719" fill="#84BE84" rx="3" ry="3" style="stroke:#038048;stroke-width:1.0;"/><text fill="#000000" font-family="sans-serif" font-size="11" lengthAdjust="spacing" textLength="85" x="652" y="199.0908">getTestTypeList()</text><ellipse cx="643" cy="208.5078" fill="#84BE84" rx="3" ry="3" style="stroke:#038048;stroke-width:1.0;"/><text fill="#000000" font-family="sans-serif" font-size="11" lengthAdjust="spacing" textLength="142" x="652" y="212.9268">getCategories(testTypeCode)</text><ellipse cx="643" cy="222.3438" fill="#84BE84" rx="3" ry="3" style="stroke:#038048;stroke-width:1.0;"/><text fill="#000000" font-family="sans-serif" font-size="11" lengthAdjust="spacing" textLength="146" x="652" y="226.7627">getParameters(categoryCode)</text><ellipse cx="643" cy="236.1797" fill="#84BE84" rx="3" ry="3" style="stroke:#038048;stroke-width:1.0;"/><text fill="#000000" font-family="sans-serif" font-size="11" lengthAdjust="spacing" textLength="149" x="652" y="240.5986">addParameter(parameterCode)</text><ellipse cx="643" cy="250.0156" fill="#84BE84" rx="3" ry="3" style="stroke:#038048;stroke-width:1.0;"/><text fill="#000000" font-family="sans-serif" font-size="11" lengthAdjust="spacing" textLength="60" x="652" y="254.4346">createTest()</text><ellipse cx="643" cy="263.8516" fill="#84BE84" rx="3" ry="3" style="stroke:#038048;stroke-width:1.0;"/><text fill="#000000" font-family="sans-serif" font-size="11" lengthAdjust="spacing" textLength="53" x="652" y="268.2705">saveTest()</text><!--MD5=[d77386df0ab152061918b4652af9ba57]
class RegisterTestUI--><rect codeLine="87" fill="#FEFECE" filter="url(#fk8vdc7z3ghny)" height="48" id="RegisterTestUI" style="stroke:#A80036;stroke-width:1.5;" width="115" x="662" y="7"/><ellipse cx="677" cy="23" fill="#ADD1B2" rx="11" ry="11" style="stroke:#A80036;stroke-width:1.0;"/><path d="M679,19.5 Q679.2031,19 679.4375,18.75 Q679.6719,18.5 679.9375,18.5 Q680.4063,18.5 680.7031,18.7813 Q681,19.0625 681,19.7188 L681,21.2813 Q681,21.9375 680.7188,22.2188 Q680.4375,22.5 680,22.5 Q679.6094,22.5 679.3594,22.3281 Q679.1094,22.1563 679,21.7031 Q678.9531,21.3906 678.7813,21.2188 Q678.4688,20.8906 677.9063,20.7031 Q677.3438,20.5 676.7813,20.5 Q676.0781,20.5 675.4844,20.7813 Q674.9063,21.0625 674.4531,21.6875 Q674,22.3125 674,23.1719 L674,24.0938 Q674,25.125 674.8438,25.8125 Q675.6875,26.5 677.1875,26.5 Q678.0781,26.5 678.7031,26.2969 Q679.0625,26.1875 679.4688,25.8281 Q679.7344,25.625 679.875,25.5625 Q680.0156,25.5 680.1875,25.5 Q680.5156,25.5 680.75,25.7656 Q681,26.0156 681,26.375 Q681,26.7188 680.6563,27.125 Q680.1563,27.7188 679.3594,28.0469 Q678.3125,28.5 677.0313,28.5 Q675.5313,28.5 674.3281,27.9063 Q673.3594,27.4375 672.6719,26.4219 Q672,25.4063 672,24.2031 L672,23.1094 Q672,21.8594 672.5938,20.7656 Q673.2031,19.6719 674.25,19.0938 Q675.3125,18.5 676.5,18.5 Q677.2188,18.5 677.8438,18.75 Q678.4688,19 679,19.5 Z " fill="#000000"/><text fill="#000000" font-family="sans-serif" font-size="12" lengthAdjust="spacing" textLength="83" x="691" y="27.9102">RegisterTestUI</text><line style="stroke:#A80036;stroke-width:1.5;" x1="663" x2="776" y1="39" y2="39"/><line style="stroke:#A80036;stroke-width:1.5;" x1="663" x2="776" y1="47" y2="47"/><!--MD5=[aeb3272166074d8737a70b61b1e71682]
class TestType--><rect codeLine="90" fill="#FEFECE" filter="url(#fk8vdc7z3ghny)" height="131.0156" id="TestType" style="stroke:#A80036;stroke-width:1.5;" width="106" x="1312.5" y="823.5"/><ellipse cx="1338.3" cy="839.5" fill="#ADD1B2" rx="11" ry="11" style="stroke:#A80036;stroke-width:1.0;"/><path d="M1340.3,836 Q1340.5031,835.5 1340.7375,835.25 Q1340.9719,835 1341.2375,835 Q1341.7063,835 1342.0031,835.2813 Q1342.3,835.5625 1342.3,836.2188 L1342.3,837.7813 Q1342.3,838.4375 1342.0188,838.7188 Q1341.7375,839 1341.3,839 Q1340.9094,839 1340.6594,838.8281 Q1340.4094,838.6563 1340.3,838.2031 Q1340.2531,837.8906 1340.0813,837.7188 Q1339.7688,837.3906 1339.2063,837.2031 Q1338.6438,837 1338.0813,837 Q1337.3781,837 1336.7844,837.2813 Q1336.2063,837.5625 1335.7531,838.1875 Q1335.3,838.8125 1335.3,839.6719 L1335.3,840.5938 Q1335.3,841.625 1336.1438,842.3125 Q1336.9875,843 1338.4875,843 Q1339.3781,843 1340.0031,842.7969 Q1340.3625,842.6875 1340.7688,842.3281 Q1341.0344,842.125 1341.175,842.0625 Q1341.3156,842 1341.4875,842 Q1341.8156,842 1342.05,842.2656 Q1342.3,842.5156 1342.3,842.875 Q1342.3,843.2188 1341.9563,843.625 Q1341.4563,844.2188 1340.6594,844.5469 Q1339.6125,845 1338.3313,845 Q1336.8313,845 1335.6281,844.4063 Q1334.6594,843.9375 1333.9719,842.9219 Q1333.3,841.9063 1333.3,840.7031 L1333.3,839.6094 Q1333.3,838.3594 1333.8938,837.2656 Q1334.5031,836.1719 1335.55,835.5938 Q1336.6125,835 1337.8,835 Q1338.5188,835 1339.1438,835.25 Q1339.7688,835.5 1340.3,836 Z " fill="#000000"/><text fill="#000000" font-family="sans-serif" font-size="12" lengthAdjust="spacing" textLength="50" x="1354.7" y="844.4102">TestType</text><line style="stroke:#A80036;stroke-width:1.5;" x1="1313.5" x2="1417.5" y1="855.5" y2="855.5"/><rect fill="none" height="6" style="stroke:#C82930;stroke-width:1.0;" width="6" x="1320.5" y="863.5"/><text fill="#000000" font-family="sans-serif" font-size="11" lengthAdjust="spacing" textLength="27" x="1332.5" y="870.9189">testID</text><rect fill="none" height="6" style="stroke:#C82930;stroke-width:1.0;" width="6" x="1320.5" y="877.3359"/><text fill="#000000" font-family="sans-serif" font-size="11" lengthAdjust="spacing" textLength="53" x="1332.5" y="884.7549">description</text><rect fill="none" height="6" style="stroke:#C82930;stroke-width:1.0;" width="6" x="1320.5" y="891.1719"/><text fill="#000000" font-family="sans-serif" font-size="11" lengthAdjust="spacing" textLength="80" x="1332.5" y="898.5908">collectingMethod</text><rect fill="none" height="6" style="stroke:#C82930;stroke-width:1.0;" width="6" x="1320.5" y="905.0078"/><text fill="#000000" font-family="sans-serif" font-size="11" lengthAdjust="spacing" textLength="41" x="1332.5" y="912.4268">catStore</text><rect fill="none" height="6" style="stroke:#C82930;stroke-width:1.0;" width="6" x="1320.5" y="918.8438"/><text fill="#000000" font-family="sans-serif" font-size="11" lengthAdjust="spacing" textLength="73" x="1332.5" y="926.2627">externalModule</text><line style="stroke:#A80036;stroke-width:1.5;" x1="1313.5" x2="1417.5" y1="932.6797" y2="932.6797"/><ellipse cx="1323.5" cy="943.6797" fill="#84BE84" rx="3" ry="3" style="stroke:#038048;stroke-width:1.0;"/><text fill="#000000" font-family="sans-serif" font-size="11" lengthAdjust="spacing" textLength="75" x="1332.5" y="948.0986">getCategories()</text><!--MD5=[df38be88ccee13e832d6fafd6288a4ca]
class Test--><rect codeLine="99" fill="#FEFECE" filter="url(#fk8vdc7z3ghny)" height="186.3594" id="Test" style="stroke:#A80036;stroke-width:1.5;" width="329" x="697" y="796"/><ellipse cx="845.25" cy="812" fill="#ADD1B2" rx="11" ry="11" style="stroke:#A80036;stroke-width:1.0;"/><path d="M847.25,808.5 Q847.4531,808 847.6875,807.75 Q847.9219,807.5 848.1875,807.5 Q848.6563,807.5 848.9531,807.7813 Q849.25,808.0625 849.25,808.7188 L849.25,810.2813 Q849.25,810.9375 848.9688,811.2188 Q848.6875,811.5 848.25,811.5 Q847.8594,811.5 847.6094,811.3281 Q847.3594,811.1563 847.25,810.7031 Q847.2031,810.3906 847.0313,810.2188 Q846.7188,809.8906 846.1563,809.7031 Q845.5938,809.5 845.0313,809.5 Q844.3281,809.5 843.7344,809.7813 Q843.1563,810.0625 842.7031,810.6875 Q842.25,811.3125 842.25,812.1719 L842.25,813.0938 Q842.25,814.125 843.0938,814.8125 Q843.9375,815.5 845.4375,815.5 Q846.3281,815.5 846.9531,815.2969 Q847.3125,815.1875 847.7188,814.8281 Q847.9844,814.625 848.125,814.5625 Q848.2656,814.5 848.4375,814.5 Q848.7656,814.5 849,814.7656 Q849.25,815.0156 849.25,815.375 Q849.25,815.7188 848.9063,816.125 Q848.4063,816.7188 847.6094,817.0469 Q846.5625,817.5 845.2813,817.5 Q843.7813,817.5 842.5781,816.9063 Q841.6094,816.4375 840.9219,815.4219 Q840.25,814.4063 840.25,813.2031 L840.25,812.1094 Q840.25,810.8594 840.8438,809.7656 Q841.4531,808.6719 842.5,808.0938 Q843.5625,807.5 844.75,807.5 Q845.4688,807.5 846.0938,807.75 Q846.7188,808 847.25,808.5 Z " fill="#000000"/><text fill="#000000" font-family="sans-serif" font-size="12" lengthAdjust="spacing" textLength="24" x="865.75" y="816.9102">Test</text><line style="stroke:#A80036;stroke-width:1.5;" x1="698" x2="1025" y1="828" y2="828"/><rect fill="none" height="6" style="stroke:#C82930;stroke-width:1.0;" width="6" x="705" y="836"/><text fill="#000000" font-family="sans-serif" font-size="11" lengthAdjust="spacing" textLength="43" x="717" y="843.4189">testCode</text><rect fill="none" height="6" style="stroke:#C82930;stroke-width:1.0;" width="6" x="705" y="849.8359"/><text fill="#000000" font-family="sans-serif" font-size="11" lengthAdjust="spacing" textLength="74" x="717" y="857.2549">testNhsNumber</text><rect fill="none" height="6" style="stroke:#C82930;stroke-width:1.0;" width="6" x="705" y="863.6719"/><text fill="#000000" font-family="sans-serif" font-size="11" lengthAdjust="spacing" textLength="39" x="717" y="871.0908">clientTin</text><rect fill="none" height="6" style="stroke:#C82930;stroke-width:1.0;" width="6" x="705" y="877.5078"/><text fill="#000000" font-family="sans-serif" font-size="11" lengthAdjust="spacing" textLength="42" x="717" y="884.9268">testType</text><rect fill="none" height="6" style="stroke:#C82930;stroke-width:1.0;" width="6" x="705" y="891.3438"/><text fill="#000000" font-family="sans-serif" font-size="11" lengthAdjust="spacing" textLength="32" x="717" y="898.7627">catList</text><rect fill="none" height="6" style="stroke:#C82930;stroke-width:1.0;" width="6" x="705" y="905.1797"/><text fill="#000000" font-family="sans-serif" font-size="11" lengthAdjust="spacing" textLength="29" x="717" y="912.5986">paList</text><rect fill="none" height="6" style="stroke:#C82930;stroke-width:1.0;" width="6" x="705" y="919.0156"/><text fill="#000000" font-family="sans-serif" font-size="11" lengthAdjust="spacing" textLength="59" x="717" y="926.4346">createdDate</text><line style="stroke:#A80036;stroke-width:1.5;" x1="698" x2="1025" y1="932.8516" y2="932.8516"/><ellipse cx="708" cy="943.8516" fill="#84BE84" rx="3" ry="3" style="stroke:#038048;stroke-width:1.0;"/><text fill="#000000" font-family="sans-serif" font-size="11" lengthAdjust="spacing" textLength="303" x="717" y="948.2705">Test(testNhsNumber,testCode,testType,catList,paList,ClientCc)</text><ellipse cx="708" cy="957.6875" fill="#84BE84" rx="3" ry="3" style="stroke:#038048;stroke-width:1.0;"/><text fill="#000000" font-family="sans-serif" font-size="11" lengthAdjust="spacing" textLength="102" x="717" y="962.1064">addTestParameters()</text><rect fill="#F24D5C" height="6" style="stroke:#C82930;stroke-width:1.0;" width="6" x="705" y="968.5234"/><text fill="#000000" font-family="sans-serif" font-size="11" lengthAdjust="spacing" textLength="93" x="717" y="975.9424">changeState(state)</text><!--MD5=[8430d756d8fe5ab583eb0b9ee14f4491]
class TestParameterStore--><rect codeLine="111" fill="#FEFECE" filter="url(#fk8vdc7z3ghny)" height="103.3438" id="TestParameterStore" style="stroke:#A80036;stroke-width:1.5;" width="166" x="778.5" y="1067"/><ellipse cx="803.85" cy="1083" fill="#ADD1B2" rx="11" ry="11" style="stroke:#A80036;stroke-width:1.0;"/><path d="M805.85,1079.5 Q806.0531,1079 806.2875,1078.75 Q806.5219,1078.5 806.7875,1078.5 Q807.2563,1078.5 807.5531,1078.7813 Q807.85,1079.0625 807.85,1079.7188 L807.85,1081.2813 Q807.85,1081.9375 807.5688,1082.2188 Q807.2875,1082.5 806.85,1082.5 Q806.4594,1082.5 806.2094,1082.3281 Q805.9594,1082.1563 805.85,1081.7031 Q805.8031,1081.3906 805.6313,1081.2188 Q805.3188,1080.8906 804.7563,1080.7031 Q804.1938,1080.5 803.6313,1080.5 Q802.9281,1080.5 802.3344,1080.7813 Q801.7563,1081.0625 801.3031,1081.6875 Q800.85,1082.3125 800.85,1083.1719 L800.85,1084.0938 Q800.85,1085.125 801.6938,1085.8125 Q802.5375,1086.5 804.0375,1086.5 Q804.9281,1086.5 805.5531,1086.2969 Q805.9125,1086.1875 806.3188,1085.8281 Q806.5844,1085.625 806.725,1085.5625 Q806.8656,1085.5 807.0375,1085.5 Q807.3656,1085.5 807.6,1085.7656 Q807.85,1086.0156 807.85,1086.375 Q807.85,1086.7188 807.5063,1087.125 Q807.0063,1087.7188 806.2094,1088.0469 Q805.1625,1088.5 803.8813,1088.5 Q802.3813,1088.5 801.1781,1087.9063 Q800.2094,1087.4375 799.5219,1086.4219 Q798.85,1085.4063 798.85,1084.2031 L798.85,1083.1094 Q798.85,1081.8594 799.4438,1080.7656 Q800.0531,1079.6719 801.1,1079.0938 Q802.1625,1078.5 803.35,1078.5 Q804.0688,1078.5 804.6938,1078.75 Q805.3188,1079 805.85,1079.5 Z " fill="#000000"/><text fill="#000000" font-family="sans-serif" font-size="12" lengthAdjust="spacing" textLength="111" x="820.15" y="1087.9102">TestParameterStore</text><line style="stroke:#A80036;stroke-width:1.5;" x1="779.5" x2="943.5" y1="1099" y2="1099"/><rect fill="none" height="6" style="stroke:#C82930;stroke-width:1.0;" width="6" x="786.5" y="1107"/><text fill="#000000" font-family="sans-serif" font-size="11" lengthAdjust="spacing" textLength="31" x="798.5" y="1114.4189">pCode</text><line style="stroke:#A80036;stroke-width:1.5;" x1="779.5" x2="943.5" y1="1120.8359" y2="1120.8359"/><ellipse cx="789.5" cy="1131.8359" fill="#84BE84" rx="3" ry="3" style="stroke:#038048;stroke-width:1.0;"/><text fill="#000000" font-family="sans-serif" font-size="11" lengthAdjust="spacing" textLength="104" x="798.5" y="1136.2549">TestParameterStore()</text><ellipse cx="789.5" cy="1145.6719" fill="#84BE84" rx="3" ry="3" style="stroke:#038048;stroke-width:1.0;"/><text fill="#000000" font-family="sans-serif" font-size="11" lengthAdjust="spacing" textLength="140" x="798.5" y="1150.0908">createParameterTest(pCode)</text><ellipse cx="789.5" cy="1159.5078" fill="#84BE84" rx="3" ry="3" style="stroke:#038048;stroke-width:1.0;"/><text fill="#000000" font-family="sans-serif" font-size="11" lengthAdjust="spacing" textLength="26" x="798.5" y="1163.9268">add()</text><!--MD5=[0f07739f46effee96e095e9c408da841]
class TestParameter--><rect codeLine="117" fill="#FEFECE" filter="url(#fk8vdc7z3ghny)" height="75.6719" id="TestParameter" style="stroke:#A80036;stroke-width:1.5;" width="178" x="772.5" y="1255"/><ellipse cx="816.3" cy="1271" fill="#ADD1B2" rx="11" ry="11" style="stroke:#A80036;stroke-width:1.0;"/><path d="M818.3,1267.5 Q818.5031,1267 818.7375,1266.75 Q818.9719,1266.5 819.2375,1266.5 Q819.7063,1266.5 820.0031,1266.7813 Q820.3,1267.0625 820.3,1267.7188 L820.3,1269.2813 Q820.3,1269.9375 820.0188,1270.2188 Q819.7375,1270.5 819.3,1270.5 Q818.9094,1270.5 818.6594,1270.3281 Q818.4094,1270.1563 818.3,1269.7031 Q818.2531,1269.3906 818.0813,1269.2188 Q817.7688,1268.8906 817.2063,1268.7031 Q816.6438,1268.5 816.0813,1268.5 Q815.3781,1268.5 814.7844,1268.7813 Q814.2063,1269.0625 813.7531,1269.6875 Q813.3,1270.3125 813.3,1271.1719 L813.3,1272.0938 Q813.3,1273.125 814.1438,1273.8125 Q814.9875,1274.5 816.4875,1274.5 Q817.3781,1274.5 818.0031,1274.2969 Q818.3625,1274.1875 818.7688,1273.8281 Q819.0344,1273.625 819.175,1273.5625 Q819.3156,1273.5 819.4875,1273.5 Q819.8156,1273.5 820.05,1273.7656 Q820.3,1274.0156 820.3,1274.375 Q820.3,1274.7188 819.9563,1275.125 Q819.4563,1275.7188 818.6594,1276.0469 Q817.6125,1276.5 816.3313,1276.5 Q814.8313,1276.5 813.6281,1275.9063 Q812.6594,1275.4375 811.9719,1274.4219 Q811.3,1273.4063 811.3,1272.2031 L811.3,1271.1094 Q811.3,1269.8594 811.8938,1268.7656 Q812.5031,1267.6719 813.55,1267.0938 Q814.6125,1266.5 815.8,1266.5 Q816.5188,1266.5 817.1438,1266.75 Q817.7688,1267 818.3,1267.5 Z " fill="#000000"/><text fill="#000000" font-family="sans-serif" font-size="12" lengthAdjust="spacing" textLength="82" x="836.7" y="1275.9102">TestParameter</text><line style="stroke:#A80036;stroke-width:1.5;" x1="773.5" x2="949.5" y1="1287" y2="1287"/><rect fill="none" height="6" style="stroke:#C82930;stroke-width:1.0;" width="6" x="780.5" y="1295"/><text fill="#000000" font-family="sans-serif" font-size="11" lengthAdjust="spacing" textLength="74" x="792.5" y="1302.4189">parameterCode</text><line style="stroke:#A80036;stroke-width:1.5;" x1="773.5" x2="949.5" y1="1308.8359" y2="1308.8359"/><ellipse cx="783.5" cy="1319.8359" fill="#84BE84" rx="3" ry="3" style="stroke:#038048;stroke-width:1.0;"/><text fill="#000000" font-family="sans-serif" font-size="11" lengthAdjust="spacing" textLength="152" x="792.5" y="1324.2549">TestParameter(parameterCode)</text><!--MD5=[1f6362a5c8f21d8d6a0fce68f3a92a4e]
class Parameter--><rect codeLine="122" fill="#FEFECE" filter="url(#fk8vdc7z3ghny)" height="117.1797" id="Parameter" style="stroke:#A80036;stroke-width:1.5;" width="123" x="591" y="1060"/><ellipse cx="620.85" cy="1076" fill="#ADD1B2" rx="11" ry="11" style="stroke:#A80036;stroke-width:1.0;"/><path d="M622.85,1072.5 Q623.0531,1072 623.2875,1071.75 Q623.5219,1071.5 623.7875,1071.5 Q624.2563,1071.5 624.5531,1071.7813 Q624.85,1072.0625 624.85,1072.7188 L624.85,1074.2813 Q624.85,1074.9375 624.5688,1075.2188 Q624.2875,1075.5 623.85,1075.5 Q623.4594,1075.5 623.2094,1075.3281 Q622.9594,1075.1563 622.85,1074.7031 Q622.8031,1074.3906 622.6313,1074.2188 Q622.3188,1073.8906 621.7563,1073.7031 Q621.1938,1073.5 620.6313,1073.5 Q619.9281,1073.5 619.3344,1073.7813 Q618.7563,1074.0625 618.3031,1074.6875 Q617.85,1075.3125 617.85,1076.1719 L617.85,1077.0938 Q617.85,1078.125 618.6938,1078.8125 Q619.5375,1079.5 621.0375,1079.5 Q621.9281,1079.5 622.5531,1079.2969 Q622.9125,1079.1875 623.3188,1078.8281 Q623.5844,1078.625 623.725,1078.5625 Q623.8656,1078.5 624.0375,1078.5 Q624.3656,1078.5 624.6,1078.7656 Q624.85,1079.0156 624.85,1079.375 Q624.85,1079.7188 624.5063,1080.125 Q624.0063,1080.7188 623.2094,1081.0469 Q622.1625,1081.5 620.8813,1081.5 Q619.3813,1081.5 618.1781,1080.9063 Q617.2094,1080.4375 616.5219,1079.4219 Q615.85,1078.4063 615.85,1077.2031 L615.85,1076.1094 Q615.85,1074.8594 616.4438,1073.7656 Q617.0531,1072.6719 618.1,1072.0938 Q619.1625,1071.5 620.35,1071.5 Q621.0688,1071.5 621.6938,1071.75 Q622.3188,1072 622.85,1072.5 Z " fill="#000000"/><text fill="#000000" font-family="sans-serif" font-size="12" lengthAdjust="spacing" textLength="58" x="638.15" y="1080.9102">Parameter</text><line style="stroke:#A80036;stroke-width:1.5;" x1="592" x2="713" y1="1092" y2="1092"/><rect fill="none" height="6" style="stroke:#C82930;stroke-width:1.0;" width="6" x="599" y="1100"/><text fill="#000000" font-family="sans-serif" font-size="11" lengthAdjust="spacing" textLength="26" x="611" y="1107.4189">name</text><rect fill="none" height="6" style="stroke:#C82930;stroke-width:1.0;" width="6" x="599" y="1113.8359"/><text fill="#000000" font-family="sans-serif" font-size="11" lengthAdjust="spacing" textLength="24" x="611" y="1121.2549">code</text><rect fill="none" height="6" style="stroke:#C82930;stroke-width:1.0;" width="6" x="599" y="1127.6719"/><text fill="#000000" font-family="sans-serif" font-size="11" lengthAdjust="spacing" textLength="53" x="611" y="1135.0908">description</text><rect fill="none" height="6" style="stroke:#C82930;stroke-width:1.0;" width="6" x="599" y="1141.5078"/><text fill="#000000" font-family="sans-serif" font-size="11" lengthAdjust="spacing" textLength="15" x="611" y="1148.9268">cat</text><line style="stroke:#A80036;stroke-width:1.5;" x1="592" x2="713" y1="1155.3438" y2="1155.3438"/><ellipse cx="602" cy="1166.3438" fill="#84BE84" rx="3" ry="3" style="stroke:#038048;stroke-width:1.0;"/><text fill="#000000" font-family="sans-serif" font-size="11" lengthAdjust="spacing" textLength="97" x="611" y="1170.7627">getParameterCode()</text><!--MD5=[14857a0f682f89c0bb9098ba51bf3333]
link RegisterTestUI to RegisterTestController--><path codeLine="131" d="M719.5,55.28 C719.5,70.09 719.5,90.25 719.5,110.63 " fill="none" id="RegisterTestUI-to-RegisterTestController" style="stroke:#A80036;stroke-width:1.0;stroke-dasharray:7.0,7.0;"/><polygon fill="#A80036" points="719.5,115.82,723.5,106.82,719.5,110.82,715.5,106.82,719.5,115.82" style="stroke:#A80036;stroke-width:1.0;"/><!--MD5=[2e35e556d455ceb2d53d7e9d30d65a07]
link RegisterTestController to CategoryListMapper--><path codeLine="132" d="M631.89,217.74 C569.42,235.28 485.07,263.99 418.5,305 C385.34,325.43 353.58,355.89 330.64,380.54 " fill="none" id="RegisterTestController-to-CategoryListMapper" style="stroke:#A80036;stroke-width:1.0;stroke-dasharray:7.0,7.0;"/><polygon fill="#A80036" points="327.03,384.45,336.0718,380.5455,330.4196,380.7743,330.1908,375.1221,327.03,384.45" style="stroke:#A80036;stroke-width:1.0;"/><!--MD5=[bd529eadf1a960899656fd512532efaa]
link RegisterTestController to TestTypeMapper--><path codeLine="133" d="M631.72,211.49 C527.16,231.33 348.79,271.53 206.5,336 C179.77,348.11 152.38,365.45 129.74,381.35 " fill="none" id="RegisterTestController-to-TestTypeMapper" style="stroke:#A80036;stroke-width:1.0;stroke-dasharray:7.0,7.0;"/><polygon fill="#A80036" points="125.57,384.3,135.2289,382.3751,129.654,381.4155,130.6137,375.8406,125.57,384.3" style="stroke:#A80036;stroke-width:1.0;"/><!--MD5=[ec47b9290aa4dd5508a85ec01f0b1ba8]
link RegisterTestController to TestType--><path codeLine="134" d="M807.04,215.53 C960.09,254.31 1270.33,358.83 1378.5,587 C1413.22,660.24 1401.15,755.1 1386.2,818.58 " fill="none" id="RegisterTestController-to-TestType" style="stroke:#A80036;stroke-width:1.0;stroke-dasharray:7.0,7.0;"/><polygon fill="#A80036" points="1385.03,823.47,1391.0234,815.6547,1386.199,818.6086,1383.2451,813.7842,1385.03,823.47" style="stroke:#A80036;stroke-width:1.0;"/><!--MD5=[fd1bc663e883ec1d717e7d33cb6b726b]
link RegisterTestController to Company--><path codeLine="135" d="M740.83,275.19 C745.7,293.15 750.91,312.37 755.91,330.78 " fill="none" id="RegisterTestController-to-Company" style="stroke:#A80036;stroke-width:1.0;stroke-dasharray:7.0,7.0;"/><polygon fill="#A80036" points="757.31,335.95,758.8327,326.2196,756.0101,331.1219,751.1078,328.2994,757.31,335.95" style="stroke:#A80036;stroke-width:1.0;"/><!--MD5=[ba1988eed452b1c4a6c21cb9af5f7655]
link RegisterTestController to ParameterStore--><path codeLine="136" d="M671.89,275.23 C633.19,342.83 580.29,444.11 550.5,539 C545.54,554.8 542.01,572.31 539.5,588.73 " fill="none" id="RegisterTestController-to-ParameterStore" style="stroke:#A80036;stroke-width:1.0;stroke-dasharray:7.0,7.0;"/><polygon fill="#A80036" points="538.75,593.78,544.0197,585.4595,539.4791,588.8334,536.1052,584.2929,538.75,593.78" style="stroke:#A80036;stroke-width:1.0;"/><!--MD5=[ab922b8023446f7e094c4c89426f3446]
link RegisterTestController to TestStore--><path codeLine="137" d="M807.23,273.6 C827.36,293.07 847.97,314.56 865.5,336 C933.01,418.57 955.86,439.2 993.5,539 C998.57,552.43 1002.21,567.29 1004.82,581.69 " fill="none" id="RegisterTestController-to-TestStore" style="stroke:#A80036;stroke-width:1.0;stroke-dasharray:7.0,7.0;"/><polygon fill="#A80036" points="1005.74,586.97,1008.1388,577.4177,1004.8833,582.0439,1000.2571,578.7885,1005.74,586.97" style="stroke:#A80036;stroke-width:1.0;"/><!--MD5=[33733bbf4ca6b12942cc10ccd9f89177]
link RegisterTestController to CategoryStore--><path codeLine="138" d="M690.64,275.05 C667.74,349.15 643.92,462.61 672.5,557 C677.37,573.08 685.97,588.92 695.29,602.9 " fill="none" id="RegisterTestController-to-CategoryStore" style="stroke:#A80036;stroke-width:1.0;stroke-dasharray:7.0,7.0;"/><polygon fill="#A80036" points="698.2,607.18,696.4359,597.4904,695.3838,603.0486,689.8256,601.9964,698.2,607.18" style="stroke:#A80036;stroke-width:1.0;"/><!--MD5=[c01e41ad8fe9db5f83b6b7314d2ac040]
link RegisterTestController to ParameterMapper--><path codeLine="139" d="M807.32,201.85 C974.88,213.32 1333.04,244.31 1439.5,305 C1470.15,322.47 1494.92,353.98 1511.47,379.82 " fill="none" id="RegisterTestController-to-ParameterMapper" style="stroke:#A80036;stroke-width:1.0;stroke-dasharray:7.0,7.0;"/><polygon fill="#A80036" points="1514.26,384.25,1512.8348,374.5048,1511.5895,380.0229,1506.0714,378.7776,1514.26,384.25" style="stroke:#A80036;stroke-width:1.0;"/><!--MD5=[9bbdbd540c83e8eb6a96b73517cd98eb]
link RegisterTestController to TestTypeStore--><path codeLine="140" d="M807.25,243.87 C851.38,269.13 904.83,301.97 949.5,336 C1061.32,421.2 1177.48,538.62 1239,603.52 " fill="none" id="RegisterTestController-to-TestTypeStore" style="stroke:#A80036;stroke-width:1.0;stroke-dasharray:7.0,7.0;"/><polygon fill="#A80036" points="1242.61,607.33,1239.3545,598.0347,1239.1832,603.689,1233.5289,603.5177,1242.61,607.33" style="stroke:#A80036;stroke-width:1.0;"/><!--MD5=[9982b9c45ac6bc54b3873a806e95b615]
link RegisterTestController to ClientStore--><path codeLine="141" d="M631.83,261.8 C605.13,283.82 576.73,309.55 553.5,336 C478.26,421.66 411.35,537.94 376.64,602.74 " fill="none" id="RegisterTestController-to-ClientStore" style="stroke:#A80036;stroke-width:1.0;stroke-dasharray:7.0,7.0;"/><polygon fill="#A80036" points="374.19,607.32,381.9659,601.2756,376.5511,602.9126,374.9141,597.4978,374.19,607.32" style="stroke:#A80036;stroke-width:1.0;"/><!--MD5=[bcaa6a39389c8cb768501da2b7549a8d]
link ParameterMapper to ParameterDTO--><path codeLine="143" d="M1534.5,460.64 C1534.5,497.26 1534.5,553.68 1534.5,595.7 " fill="none" id="ParameterMapper-to-ParameterDTO" style="stroke:#A80036;stroke-width:1.0;stroke-dasharray:7.0,7.0;"/><polygon fill="#A80036" points="1534.5,600.75,1538.5,591.75,1534.5,595.75,1530.5,591.75,1534.5,600.75" style="stroke:#A80036;stroke-width:1.0;"/><!--MD5=[d553947510ef9112f22746ef64719f86]
link CategoryListMapper to CategoryDTO--><path codeLine="144" d="M280.35,460.64 C265.38,497.33 242.31,553.91 225.16,595.95 " fill="none" id="CategoryListMapper-to-CategoryDTO" style="stroke:#A80036;stroke-width:1.0;stroke-dasharray:7.0,7.0;"/><polygon fill="#A80036" points="223.2,600.75,230.3,593.9244,225.0865,596.1195,222.8913,590.906,223.2,600.75" style="stroke:#A80036;stroke-width:1.0;"/><!--MD5=[a866f4e758874d18eed8ecae1602bb43]
link TestTypeMapper to TestTypeDTO--><path codeLine="145" d="M74.73,460.64 C72,497.26 67.79,553.68 64.66,595.7 " fill="none" id="TestTypeMapper-to-TestTypeDTO" style="stroke:#A80036;stroke-width:1.0;stroke-dasharray:7.0,7.0;"/><polygon fill="#A80036" points="64.28,600.75,68.9376,592.072,64.6515,595.7638,60.9597,591.4777,64.28,600.75" style="stroke:#A80036;stroke-width:1.0;"/><!--MD5=[141c3afa12b2b3c0a39ffce56dbd5f19]
link Company to TestTypeStore--><path codeLine="147" d="M848.7,450.54 C962.98,495.88 1181.54,582.75 1189.5,587 C1199.34,592.26 1209.4,598.33 1219.11,604.6 " fill="none" id="Company-to-TestTypeStore" style="stroke:#A80036;stroke-width:1.0;"/><polygon fill="#A80036" points="1223.55,607.49,1218.1949,599.2243,1219.3614,604.7595,1213.8261,605.9261,1223.55,607.49" style="stroke:#A80036;stroke-width:1.0;"/><text fill="#000000" font-family="sans-serif" font-size="13" lengthAdjust="spacing" textLength="39" x="1107.5" y="553.4951">adopts</text><text fill="#000000" font-family="sans-serif" font-size="13" lengthAdjust="spacing" textLength="7" x="856.5422" y="450.2723">1</text><text fill="#000000" font-family="sans-serif" font-size="13" lengthAdjust="spacing" textLength="7" x="1206.4377" y="596.6039">1</text><!--MD5=[a11230341c8e65219708844feaa40162]
link Company to ClientStore--><path codeLine="148" d="M712.2,449.25 C639.47,478.04 522.28,528.39 429.5,587 C421.48,592.07 413.37,597.87 405.57,603.87 " fill="none" id="Company-to-ClientStore" style="stroke:#A80036;stroke-width:1.0;"/><polygon fill="#A80036" points="401.27,607.21,410.8281,604.8348,405.2145,604.1373,405.9119,598.5236,401.27,607.21" style="stroke:#A80036;stroke-width:1.0;"/><text fill="#000000" font-family="sans-serif" font-size="13" lengthAdjust="spacing" textLength="39" x="513.5" y="553.4951">adopts</text><text fill="#000000" font-family="sans-serif" font-size="13" lengthAdjust="spacing" textLength="7" x="697.3469" y="448.8412">1</text><text fill="#000000" font-family="sans-serif" font-size="13" lengthAdjust="spacing" textLength="7" x="401.3551" y="596.6097">1</text><!--MD5=[daf3d7412afa2c7651483be0b6e971d1]
link Company to ParameterStore--><path codeLine="149" d="M712.35,486.41 C677.22,518.84 634.55,558.22 599.7,590.39 " fill="none" id="Company-to-ParameterStore" style="stroke:#A80036;stroke-width:1.0;"/><polygon fill="#A80036" points="595.93,593.88,605.2512,590.6996,599.5985,590.4827,599.8155,584.83,595.93,593.88" style="stroke:#A80036;stroke-width:1.0;"/><text fill="#000000" font-family="sans-serif" font-size="13" lengthAdjust="spacing" textLength="39" x="651.5" y="553.4951">adopts</text><text fill="#000000" font-family="sans-serif" font-size="13" lengthAdjust="spacing" textLength="7" x="697.5133" y="490.0656">1</text><text fill="#000000" font-family="sans-serif" font-size="13" lengthAdjust="spacing" textLength="7" x="596.1121" y="583.2663">1</text><!--MD5=[7f6cf7f175eae0af66201860de5de971]
link Company to TestStore--><path codeLine="150" d="M828.69,509.05 C840.22,525.93 853.34,542.8 867.5,557 C876.9,566.43 887.39,575.44 898.3,583.89 " fill="none" id="Company-to-TestStore" style="stroke:#A80036;stroke-width:1.0;"/><polygon fill="#A80036" points="902.34,586.98,897.6287,578.3311,898.371,583.939,892.7631,584.6814,902.34,586.98" style="stroke:#A80036;stroke-width:1.0;"/><text fill="#000000" font-family="sans-serif" font-size="13" lengthAdjust="spacing" textLength="39" x="868.5" y="553.4951">adopts</text><text fill="#000000" font-family="sans-serif" font-size="13" lengthAdjust="spacing" textLength="7" x="825.2512" y="530.1126">1</text><text fill="#000000" font-family="sans-serif" font-size="13" lengthAdjust="spacing" textLength="7" x="882.3137" y="575.9938">1</text><!--MD5=[5d6ccf6a0ba84b7a1943e015729219a9]
link Company to CategoryStore--><path codeLine="151" d="M763.62,509.05 C757.39,540.57 750.56,575.19 745.19,602.41 " fill="none" id="Company-to-CategoryStore" style="stroke:#A80036;stroke-width:1.0;"/><polygon fill="#A80036" points="744.2,607.41,749.8694,599.3565,745.1696,602.5049,742.0212,597.8052,744.2,607.41" style="stroke:#A80036;stroke-width:1.0;"/><text fill="#000000" font-family="sans-serif" font-size="13" lengthAdjust="spacing" textLength="39" x="758.5" y="553.4951">adopts</text><text fill="#000000" font-family="sans-serif" font-size="13" lengthAdjust="spacing" textLength="7" x="754.996" y="530.1126">1</text><text fill="#000000" font-family="sans-serif" font-size="13" lengthAdjust="spacing" textLength="7" x="738.0288" y="596.5111">1</text><!--MD5=[3eebf0e5f359806b77b30e9524c37676]
link TestTypeStore to TestType--><path codeLine="153" d="M1298.92,697.61 C1310.83,731.65 1327.52,779.38 1341.21,818.54 " fill="none" id="TestTypeStore-to-TestType" style="stroke:#A80036;stroke-width:1.0;"/><polygon fill="#A80036" points="1342.87,823.27,1343.6683,813.4536,1341.2163,818.5514,1336.1185,816.0994,1342.87,823.27" style="stroke:#A80036;stroke-width:1.0;"/><text fill="#000000" font-family="sans-serif" font-size="13" lengthAdjust="spacing" textLength="36" x="1322.5" y="762.4951">stores</text><text fill="#000000" font-family="sans-serif" font-size="13" lengthAdjust="spacing" textLength="7" x="1293.5963" y="718.633">1</text><text fill="#000000" font-family="sans-serif" font-size="13" lengthAdjust="spacing" textLength="5" x="1335.1214" y="812.7193">*</text><!--MD5=[b0f4f6db8206580012ef9cd998ed01c5]
link TestStore to Test--><path codeLine="154" d="M970.11,718.2 C955.61,740.88 938.98,766.87 923.17,791.59 " fill="none" id="TestStore-to-Test" style="stroke:#A80036;stroke-width:1.0;"/><polygon fill="#A80036" points="920.43,795.86,928.6615,790.4524,923.1338,791.6541,921.9321,786.1264,920.43,795.86" style="stroke:#A80036;stroke-width:1.0;"/><text fill="#000000" font-family="sans-serif" font-size="13" lengthAdjust="spacing" textLength="36" x="950.5" y="762.4951">stores</text><text fill="#000000" font-family="sans-serif" font-size="13" lengthAdjust="spacing" textLength="7" x="958.4807" y="739.3128">1</text><text fill="#000000" font-family="sans-serif" font-size="13" lengthAdjust="spacing" textLength="5" x="919.9268" y="785.2952">*</text><!--MD5=[fc8231e7dcf58fc59fc3d98bba744cb2]
link Test to TestParameterStore--><path codeLine="155" d="M861.5,982.2 C861.5,1009.23 861.5,1037.93 861.5,1061.92 " fill="none" id="Test-to-TestParameterStore" style="stroke:#A80036;stroke-width:1.0;"/><polygon fill="#A80036" points="861.5,1066.96,865.5,1057.96,861.5,1061.96,857.5,1057.96,861.5,1066.96" style="stroke:#A80036;stroke-width:1.0;"/><text fill="#000000" font-family="sans-serif" font-size="13" lengthAdjust="spacing" textLength="7" x="854.2211" y="1003.7592">1</text><text fill="#000000" font-family="sans-serif" font-size="13" lengthAdjust="spacing" textLength="7" x="854.0078" y="1056.0829">1</text><!--MD5=[a254b1f09f43a82939a9db3fb08158fc]
link TestParameterStore to TestParameter--><path codeLine="156" d="M861.5,1170.32 C861.5,1195.65 861.5,1225.92 861.5,1249.92 " fill="none" id="TestParameterStore-to-TestParameter" style="stroke:#A80036;stroke-width:1.0;"/><polygon fill="#A80036" points="861.5,1254.95,865.5,1245.95,861.5,1249.95,857.5,1245.95,861.5,1254.95" style="stroke:#A80036;stroke-width:1.0;"/><text fill="#000000" font-family="sans-serif" font-size="13" lengthAdjust="spacing" textLength="36" x="862.5" y="1221.4951">stores</text><text fill="#000000" font-family="sans-serif" font-size="13" lengthAdjust="spacing" textLength="7" x="854.0297" y="1191.854">1</text><text fill="#000000" font-family="sans-serif" font-size="13" lengthAdjust="spacing" textLength="5" x="856.0391" y="1244.0173">*</text><!--MD5=[a0992dda039fed1bb57aff5aacace800]
link ParameterStore to Parameter--><path codeLine="157" d="M548.33,711.33 C570.77,798.83 613.19,964.24 636.38,1054.63 " fill="none" id="ParameterStore-to-Parameter" style="stroke:#A80036;stroke-width:1.0;"/><polygon fill="#A80036" points="637.67,1059.67,639.3072,1049.9582,636.4271,1054.8269,631.5583,1051.9468,637.67,1059.67" style="stroke:#A80036;stroke-width:1.0;"/><text fill="#000000" font-family="sans-serif" font-size="13" lengthAdjust="spacing" textLength="36" x="617.5" y="894.4951">stores</text><text fill="#000000" font-family="sans-serif" font-size="13" lengthAdjust="spacing" textLength="7" x="542.64" y="732.5623">1</text><text fill="#000000" font-family="sans-serif" font-size="13" lengthAdjust="spacing" textLength="5" x="630.5579" y="1049.0307">*</text><!--MD5=[c23963f6e403fc3ebec8dae22c30ade6]
link Test to Parameter--><path codeLine="158" d="M776.79,982.2 C754.01,1007.01 729.92,1033.22 709.08,1055.91 " fill="none" id="Test-to-Parameter" style="stroke:#A80036;stroke-width:1.0;"/><polygon fill="#A80036" points="705.5,1059.81,714.5343,1055.888,708.8825,1056.1278,708.6427,1050.476,705.5,1059.81" style="stroke:#A80036;stroke-width:1.0;"/><text fill="#000000" font-family="sans-serif" font-size="13" lengthAdjust="spacing" textLength="21" x="745.5" y="1026.4951">has</text><text fill="#000000" font-family="sans-serif" font-size="13" lengthAdjust="spacing" textLength="7" x="762.7608" y="1003.7592">1</text><text fill="#000000" font-family="sans-serif" font-size="13" lengthAdjust="spacing" textLength="5" x="706.6547" y="1049.1877">*</text><!--MD5=[007ab0bdd18bac1abd800d064d53d783]
@startuml
'https://plantuml.com/class-diagram

class ClientStore{
-array
-client
+existClient(clientTin)
}
class TestStore{
- array
- test
+createTest(testNhsNumber,clientTin,testType, catList, paList)
+saveTest()
-validateTest(t)
-addTest(t)
}
class TestTypeStore{
-array
-testType
+getByCode(testTypeCode)
}
class ParameterStore{
-array
-pc
+ParameterStore()
+getParameter(parameterCode)
+addParameter(parameter)
}
class CategoryStore{
-array
+getCategory(categoryCode)
+addCategory(category)
}
class TestTypeMapper{
+toDto(ttList)
-toDto(testType)
}
class TestTypeDTO{
-TestTypeID
-description
+getTestTypeID()
+getDescription()
}

class CategoryListMapper{
+toDTO(categoriesList)
-toDTO(category)
}
class CategoryDTO{
-code
-name
+getCode()
+getName()
}

class ParameterMapper{
+toDTO(parametersList)
-toDTO(parameter)
}
class ParameterDTO{
-code
-name
+getCode()
+getName()
}

class Company{
-designation
-parameterCategoryList
-clientList
-testList
-parameterList
-testTypeList
+getTestTypeList()
+categoryStore()
+parameterStore()
}
class RegisterTestController{
+getLists()
+existsClients(clientCC)
+getTestTypeList()
+getCategories(testTypeCode)
+getParameters(categoryCode)
+addParameter(parameterCode)
+createTest()
+saveTest()
}
class RegisterTestUI{
}

class TestType{
-testID
-description
-collectingMethod
-catStore
-externalModule
+getCategories()
}

class Test{
-testCode
-testNhsNumber
-clientTin
-testType
-catList
-paList
-createdDate
+Test(testNhsNumber,testCode,testType,catList,paList,ClientCc)
+addTestParameters()
-changeState(state)
}
class TestParameterStore{
-pCode
+TestParameterStore()
+createParameterTest(pCode)
+add()
}
class TestParameter{
-parameterCode
+TestParameter(parameterCode)
}

class Parameter{
-name
-code
-description
-cat
+getParameterCode()
}


RegisterTestUI ..> RegisterTestController
RegisterTestController ..>CategoryListMapper
RegisterTestController ..>TestTypeMapper
RegisterTestController ..>TestType
RegisterTestController ..>Company
RegisterTestController ..>ParameterStore
RegisterTestController ..>TestStore
RegisterTestController ..>CategoryStore
RegisterTestController ..>ParameterMapper
RegisterTestController ..>TestTypeStore
RegisterTestController ..>ClientStore

ParameterMapper ..> ParameterDTO
CategoryListMapper ..> CategoryDTO
TestTypeMapper ..> TestTypeDTO

Company "1" - -> "1" TestTypeStore: adopts
Company "1" - -> "1" ClientStore: adopts
Company "1" - -> "1" ParameterStore: adopts
Company "1" - -> "1" TestStore: adopts
Company "1" - -> "1" CategoryStore: adopts

TestTypeStore "1" - -> "*" TestType:stores
TestStore "1" - -> "*" Test: stores
Test "1" - -> "1" TestParameterStore
TestParameterStore "1" - -> "*" TestParameter: stores
ParameterStore "1" - -> "*" Parameter: stores
Test "1" - -> "*" Parameter: has
@enduml

@startuml

class ClientStore{
-array
-client
+existClient(clientTin)
}
class TestStore{
- array
- test
+createTest(testNhsNumber,clientTin,testType, catList, paList)
+saveTest()
-validateTest(t)
-addTest(t)
}
class TestTypeStore{
-array
-testType
+getByCode(testTypeCode)
}
class ParameterStore{
-array
-pc
+ParameterStore()
+getParameter(parameterCode)
+addParameter(parameter)
}
class CategoryStore{
-array
+getCategory(categoryCode)
+addCategory(category)
}
class TestTypeMapper{
+toDto(ttList)
-toDto(testType)
}
class TestTypeDTO{
-TestTypeID
-description
+getTestTypeID()
+getDescription()
}

class CategoryListMapper{
+toDTO(categoriesList)
-toDTO(category)
}
class CategoryDTO{
-code
-name
+getCode()
+getName()
}

class ParameterMapper{
+toDTO(parametersList)
-toDTO(parameter)
}
class ParameterDTO{
-code
-name
+getCode()
+getName()
}

class Company{
-designation
-parameterCategoryList
-clientList
-testList
-parameterList
-testTypeList
+getTestTypeList()
+categoryStore()
+parameterStore()
}
class RegisterTestController{
+getLists()
+existsClients(clientCC)
+getTestTypeList()
+getCategories(testTypeCode)
+getParameters(categoryCode)
+addParameter(parameterCode)
+createTest()
+saveTest()
}
class RegisterTestUI{
}

class TestType{
-testID
-description
-collectingMethod
-catStore
-externalModule
+getCategories()
}

class Test{
-testCode
-testNhsNumber
-clientTin
-testType
-catList
-paList
-createdDate
+Test(testNhsNumber,testCode,testType,catList,paList,ClientCc)
+addTestParameters()
-changeState(state)
}
class TestParameterStore{
-pCode
+TestParameterStore()
+createParameterTest(pCode)
+add()
}
class TestParameter{
-parameterCode
+TestParameter(parameterCode)
}

class Parameter{
-name
-code
-description
-cat
+getParameterCode()
}


RegisterTestUI ..> RegisterTestController
RegisterTestController ..>CategoryListMapper
RegisterTestController ..>TestTypeMapper
RegisterTestController ..>TestType
RegisterTestController ..>Company
RegisterTestController ..>ParameterStore
RegisterTestController ..>TestStore
RegisterTestController ..>CategoryStore
RegisterTestController ..>ParameterMapper
RegisterTestController ..>TestTypeStore
RegisterTestController ..>ClientStore

ParameterMapper ..> ParameterDTO
CategoryListMapper ..> CategoryDTO
TestTypeMapper ..> TestTypeDTO

Company "1" - -> "1" TestTypeStore: adopts
Company "1" - -> "1" ClientStore: adopts
Company "1" - -> "1" ParameterStore: adopts
Company "1" - -> "1" TestStore: adopts
Company "1" - -> "1" CategoryStore: adopts

TestTypeStore "1" - -> "*" TestType:stores
TestStore "1" - -> "*" Test: stores
Test "1" - -> "1" TestParameterStore
TestParameterStore "1" - -> "*" TestParameter: stores
ParameterStore "1" - -> "*" Parameter: stores
Test "1" - -> "*" Parameter: has
@enduml

PlantUML version 1.2021.7(Sun May 23 13:40:07 BST 2021)
(GPL source distribution)
Java Runtime: OpenJDK Runtime Environment
JVM: Dynamic Code Evolution 64-Bit Server VM
Default Encoding: Cp1252
Language: pt
Country: PT
--></g></svg>