<?xml version="1.0" encoding="UTF-8" standalone="no"?><svg xmlns="http://www.w3.org/2000/svg" xmlns:xlink="http://www.w3.org/1999/xlink" contentScriptType="application/ecmascript" contentStyleType="text/css" height="1788px" preserveAspectRatio="none" style="width:1610px;height:1788px;background:#FFFFFF;" version="1.1" viewBox="0 0 1610 1788" width="1610px" zoomAndPan="magnify"><defs><filter height="300%" id="f1m48j811iikh2" width="300%" x="-1" y="-1"><feGaussianBlur result="blurOut" stdDeviation="2.0"/><feColorMatrix in="blurOut" result="blurOut2" type="matrix" values="0 0 0 0 0 0 0 0 0 0 0 0 0 0 0 0 0 0 .4 0"/><feOffset dx="4.0" dy="4.0" in="blurOut2" result="blurOut3"/><feBlend in="SourceGraphic" in2="blurOut3" mode="normal"/></filter></defs><g><rect fill="#FFFFFF" filter="url(#f1m48j811iikh2)" height="1585.1719" style="stroke:#A80036;stroke-width:1.0;" width="10" x="67" y="99.6094"/><rect fill="#FFFFFF" filter="url(#f1m48j811iikh2)" height="30.3516" style="stroke:#A80036;stroke-width:1.0;" width="10" x="393" y="121.9609"/><rect fill="#FFFFFF" filter="url(#f1m48j811iikh2)" height="480.5703" style="stroke:#A80036;stroke-width:1.0;" width="10" x="393" y="182.6641"/><rect fill="#FFFFFF" filter="url(#f1m48j811iikh2)" height="164.1094" style="stroke:#A80036;stroke-width:1.0;" width="10" x="393" y="693.5859"/><rect fill="#FFFFFF" filter="url(#f1m48j811iikh2)" height="164.1094" style="stroke:#A80036;stroke-width:1.0;" width="10" x="393" y="888.0469"/><rect fill="#FFFFFF" filter="url(#f1m48j811iikh2)" height="303.8125" style="stroke:#A80036;stroke-width:1.0;" width="10" x="393" y="1082.5078"/><rect fill="#FFFFFF" filter="url(#f1m48j811iikh2)" height="268.1094" style="stroke:#A80036;stroke-width:1.0;" width="10" x="393" y="1416.6719"/><rect fill="#FFFFFF" filter="url(#f1m48j811iikh2)" height="238.1094" style="stroke:#A80036;stroke-width:1.0;" width="10" x="617" y="213.0156"/><rect fill="#FFFFFF" filter="url(#f1m48j811iikh2)" height="151.4063" style="stroke:#A80036;stroke-width:1.0;" width="10" x="617" y="481.4766"/><rect fill="#FFFFFF" filter="url(#f1m48j811iikh2)" height="78.0547" style="stroke:#A80036;stroke-width:1.0;" width="10" x="617" y="723.9375"/><rect fill="#FFFFFF" filter="url(#f1m48j811iikh2)" height="78.0547" style="stroke:#A80036;stroke-width:1.0;" width="10" x="617" y="918.3984"/><rect fill="#FFFFFF" filter="url(#f1m48j811iikh2)" height="120.7031" style="stroke:#A80036;stroke-width:1.0;" width="10" x="617" y="1112.8594"/><rect fill="#FFFFFF" filter="url(#f1m48j811iikh2)" height="78.0547" style="stroke:#A80036;stroke-width:1.0;" width="10" x="617" y="1277.9141"/><rect fill="#FFFFFF" filter="url(#f1m48j811iikh2)" height="207.4063" style="stroke:#A80036;stroke-width:1.0;" width="10" x="617" y="1447.0234"/><rect fill="#FFFFFF" filter="url(#f1m48j811iikh2)" height="30" style="stroke:#A80036;stroke-width:1.0;" width="10" x="809" y="243.3672"/><rect fill="#FFFFFF" filter="url(#f1m48j811iikh2)" height="30" style="stroke:#A80036;stroke-width:1.0;" width="10" x="809" y="511.8281"/><rect fill="#FFFFFF" filter="url(#f1m48j811iikh2)" height="117.0547" style="stroke:#A80036;stroke-width:1.0;" width="10" x="906" y="303.7188"/><rect fill="#FFFFFF" filter="url(#f1m48j811iikh2)" height="41.3516" style="stroke:#A80036;stroke-width:1.0;" width="10" x="911" y="342.0703"/><rect fill="#FFFFFF" filter="url(#f1m48j811iikh2)" height="30.3516" style="stroke:#A80036;stroke-width:1.0;" width="10" x="1065" y="572.1797"/><rect fill="#FFFFFF" filter="url(#f1m48j811iikh2)" height="30" style="stroke:#A80036;stroke-width:1.0;" width="10" x="1225" y="1203.5625"/><rect fill="#FFFFFF" filter="url(#f1m48j811iikh2)" height="30" style="stroke:#A80036;stroke-width:1.0;" width="10" x="1370" y="1143.2109"/><rect fill="#FFFFFF" filter="url(#f1m48j811iikh2)" height="139.7031" style="stroke:#A80036;stroke-width:1.0;" width="10" x="1483" y="1477.375"/><rect fill="#FFFFFF" filter="url(#f1m48j811iikh2)" height="28" style="stroke:#A80036;stroke-width:1.0;" width="10" x="1488" y="1515.7266"/><rect fill="#FFFFFF" filter="url(#f1m48j811iikh2)" height="28" style="stroke:#A80036;stroke-width:1.0;" width="10" x="1488" y="1589.0781"/><rect fill="#FFFFFF" filter="url(#f1m48j811iikh2)" height="431.5703" style="stroke:#000000;stroke-width:2.0;" width="1446" x="10" y="816.9922"/><rect fill="#FFFFFF" filter="url(#f1m48j811iikh2)" height="230.1094" style="stroke:#000000;stroke-width:2.0;" width="1426" x="20" y="1011.4531"/><line style="stroke:#A80036;stroke-width:1.0;stroke-dasharray:5.0,5.0;" x1="72" x2="72" y1="89.6094" y2="1702.7813"/><line style="stroke:#A80036;stroke-width:1.0;stroke-dasharray:5.0,5.0;" x1="397.5" x2="397.5" y1="89.6094" y2="1702.7813"/><line style="stroke:#A80036;stroke-width:1.0;stroke-dasharray:5.0,5.0;" x1="621.5" x2="621.5" y1="89.6094" y2="1702.7813"/><line style="stroke:#A80036;stroke-width:1.0;stroke-dasharray:5.0,5.0;" x1="814" x2="814" y1="89.6094" y2="1702.7813"/><line style="stroke:#A80036;stroke-width:1.0;stroke-dasharray:5.0,5.0;" x1="911" x2="911" y1="89.6094" y2="1702.7813"/><line style="stroke:#A80036;stroke-width:1.0;stroke-dasharray:5.0,5.0;" x1="1070" x2="1070" y1="89.6094" y2="1702.7813"/><line style="stroke:#A80036;stroke-width:1.0;stroke-dasharray:5.0,5.0;" x1="1230" x2="1230" y1="89.6094" y2="1702.7813"/><line style="stroke:#A80036;stroke-width:1.0;stroke-dasharray:5.0,5.0;" x1="1375" x2="1375" y1="89.6094" y2="1702.7813"/><line style="stroke:#A80036;stroke-width:1.0;stroke-dasharray:5.0,5.0;" x1="1488" x2="1488" y1="89.6094" y2="1702.7813"/><text fill="#000000" font-family="sans-serif" font-size="14" lengthAdjust="spacing" textLength="78" x="30" y="86.5332">Receptionist</text><ellipse cx="72" cy="15" fill="#FEFECE" filter="url(#f1m48j811iikh2)" rx="8" ry="8" style="stroke:#A80036;stroke-width:2.0;"/><path d="M72,23 L72,50 M59,31 L85,31 M72,50 L59,65 M72,50 L85,65 " fill="none" filter="url(#f1m48j811iikh2)" style="stroke:#A80036;stroke-width:2.0;"/><text fill="#000000" font-family="sans-serif" font-size="14" lengthAdjust="spacing" textLength="78" x="30" y="1716.3145">Receptionist</text><ellipse cx="72" cy="1729.3906" fill="#FEFECE" filter="url(#f1m48j811iikh2)" rx="8" ry="8" style="stroke:#A80036;stroke-width:2.0;"/><path d="M72,1737.3906 L72,1764.3906 M59,1745.3906 L85,1745.3906 M72,1764.3906 L59,1779.3906 M72,1764.3906 L85,1779.3906 " fill="none" filter="url(#f1m48j811iikh2)" style="stroke:#A80036;stroke-width:2.0;"/><rect fill="#FEFECE" filter="url(#f1m48j811iikh2)" height="31.6094" style="stroke:#A80036;stroke-width:1.5;" width="111" x="340.5" y="53"/><text fill="#000000" font-family="sans-serif" font-size="14" lengthAdjust="spacing" textLength="97" x="347.5" y="74.5332">:RegisterTestUI</text><rect fill="#FEFECE" filter="url(#f1m48j811iikh2)" height="31.6094" style="stroke:#A80036;stroke-width:1.5;" width="111" x="340.5" y="1701.7813"/><text fill="#000000" font-family="sans-serif" font-size="14" lengthAdjust="spacing" textLength="97" x="347.5" y="1723.3145">:RegisterTestUI</text><rect fill="#FEFECE" filter="url(#f1m48j811iikh2)" height="31.6094" style="stroke:#A80036;stroke-width:1.5;" width="161" x="539.5" y="53"/><text fill="#000000" font-family="sans-serif" font-size="14" lengthAdjust="spacing" textLength="147" x="546.5" y="74.5332">:RegisterTestController</text><rect fill="#FEFECE" filter="url(#f1m48j811iikh2)" height="31.6094" style="stroke:#A80036;stroke-width:1.5;" width="161" x="539.5" y="1701.7813"/><text fill="#000000" font-family="sans-serif" font-size="14" lengthAdjust="spacing" textLength="147" x="546.5" y="1723.3145">:RegisterTestController</text><rect fill="#FEFECE" filter="url(#f1m48j811iikh2)" height="31.6094" style="stroke:#A80036;stroke-width:1.5;" width="78" x="773" y="53"/><text fill="#000000" font-family="sans-serif" font-size="14" lengthAdjust="spacing" textLength="64" x="780" y="74.5332">:Company</text><rect fill="#FEFECE" filter="url(#f1m48j811iikh2)" height="31.6094" style="stroke:#A80036;stroke-width:1.5;" width="78" x="773" y="1701.7813"/><text fill="#000000" font-family="sans-serif" font-size="14" lengthAdjust="spacing" textLength="64" x="780" y="1723.3145">:Company</text><rect fill="#FEFECE" filter="url(#f1m48j811iikh2)" height="31.6094" style="stroke:#A80036;stroke-width:1.5;" width="88" x="865" y="53"/><text fill="#000000" font-family="sans-serif" font-size="14" lengthAdjust="spacing" textLength="74" x="872" y="74.5332">:ClientStore</text><rect fill="#FEFECE" filter="url(#f1m48j811iikh2)" height="31.6094" style="stroke:#A80036;stroke-width:1.5;" width="88" x="865" y="1701.7813"/><text fill="#000000" font-family="sans-serif" font-size="14" lengthAdjust="spacing" textLength="74" x="872" y="1723.3145">:ClientStore</text><rect fill="#FEFECE" filter="url(#f1m48j811iikh2)" height="31.6094" style="stroke:#A80036;stroke-width:1.5;" width="148" x="994" y="53"/><text fill="#000000" font-family="sans-serif" font-size="14" lengthAdjust="spacing" textLength="134" x="1001" y="74.5332">:TestTypeListMapper</text><rect fill="#FEFECE" filter="url(#f1m48j811iikh2)" height="31.6094" style="stroke:#A80036;stroke-width:1.5;" width="148" x="994" y="1701.7813"/><text fill="#000000" font-family="sans-serif" font-size="14" lengthAdjust="spacing" textLength="134" x="1001" y="1723.3145">:TestTypeListMapper</text><rect fill="#FEFECE" filter="url(#f1m48j811iikh2)" height="31.6094" style="stroke:#A80036;stroke-width:1.5;" width="144" x="1156" y="53"/><text fill="#000000" font-family="sans-serif" font-size="14" lengthAdjust="spacing" textLength="130" x="1163" y="74.5332">paList:ParameterList</text><rect fill="#FEFECE" filter="url(#f1m48j811iikh2)" height="31.6094" style="stroke:#A80036;stroke-width:1.5;" width="144" x="1156" y="1701.7813"/><text fill="#000000" font-family="sans-serif" font-size="14" lengthAdjust="spacing" textLength="130" x="1163" y="1723.3145">paList:ParameterList</text><rect fill="#FEFECE" filter="url(#f1m48j811iikh2)" height="31.6094" style="stroke:#A80036;stroke-width:1.5;" width="118" x="1314" y="53"/><text fill="#000000" font-family="sans-serif" font-size="14" lengthAdjust="spacing" textLength="104" x="1321" y="74.5332">:ParameterStore</text><rect fill="#FEFECE" filter="url(#f1m48j811iikh2)" height="31.6094" style="stroke:#A80036;stroke-width:1.5;" width="118" x="1314" y="1701.7813"/><text fill="#000000" font-family="sans-serif" font-size="14" lengthAdjust="spacing" textLength="104" x="1321" y="1723.3145">:ParameterStore</text><rect fill="#FEFECE" filter="url(#f1m48j811iikh2)" height="31.6094" style="stroke:#A80036;stroke-width:1.5;" width="80" x="1446" y="53"/><text fill="#000000" font-family="sans-serif" font-size="14" lengthAdjust="spacing" textLength="66" x="1453" y="74.5332">:TestStore</text><rect fill="#FEFECE" filter="url(#f1m48j811iikh2)" height="31.6094" style="stroke:#A80036;stroke-width:1.5;" width="80" x="1446" y="1701.7813"/><text fill="#000000" font-family="sans-serif" font-size="14" lengthAdjust="spacing" textLength="66" x="1453" y="1723.3145">:TestStore</text><rect fill="#FFFFFF" filter="url(#f1m48j811iikh2)" height="1585.1719" style="stroke:#A80036;stroke-width:1.0;" width="10" x="67" y="99.6094"/><rect fill="#FFFFFF" filter="url(#f1m48j811iikh2)" height="30.3516" style="stroke:#A80036;stroke-width:1.0;" width="10" x="393" y="121.9609"/><rect fill="#FFFFFF" filter="url(#f1m48j811iikh2)" height="480.5703" style="stroke:#A80036;stroke-width:1.0;" width="10" x="393" y="182.6641"/><rect fill="#FFFFFF" filter="url(#f1m48j811iikh2)" height="164.1094" style="stroke:#A80036;stroke-width:1.0;" width="10" x="393" y="693.5859"/><rect fill="#FFFFFF" filter="url(#f1m48j811iikh2)" height="164.1094" style="stroke:#A80036;stroke-width:1.0;" width="10" x="393" y="888.0469"/><rect fill="#FFFFFF" filter="url(#f1m48j811iikh2)" height="303.8125" style="stroke:#A80036;stroke-width:1.0;" width="10" x="393" y="1082.5078"/><rect fill="#FFFFFF" filter="url(#f1m48j811iikh2)" height="268.1094" style="stroke:#A80036;stroke-width:1.0;" width="10" x="393" y="1416.6719"/><rect fill="#FFFFFF" filter="url(#f1m48j811iikh2)" height="238.1094" style="stroke:#A80036;stroke-width:1.0;" width="10" x="617" y="213.0156"/><rect fill="#FFFFFF" filter="url(#f1m48j811iikh2)" height="151.4063" style="stroke:#A80036;stroke-width:1.0;" width="10" x="617" y="481.4766"/><rect fill="#FFFFFF" filter="url(#f1m48j811iikh2)" height="78.0547" style="stroke:#A80036;stroke-width:1.0;" width="10" x="617" y="723.9375"/><rect fill="#FFFFFF" filter="url(#f1m48j811iikh2)" height="78.0547" style="stroke:#A80036;stroke-width:1.0;" width="10" x="617" y="918.3984"/><rect fill="#FFFFFF" filter="url(#f1m48j811iikh2)" height="120.7031" style="stroke:#A80036;stroke-width:1.0;" width="10" x="617" y="1112.8594"/><rect fill="#FFFFFF" filter="url(#f1m48j811iikh2)" height="78.0547" style="stroke:#A80036;stroke-width:1.0;" width="10" x="617" y="1277.9141"/><rect fill="#FFFFFF" filter="url(#f1m48j811iikh2)" height="207.4063" style="stroke:#A80036;stroke-width:1.0;" width="10" x="617" y="1447.0234"/><rect fill="#FFFFFF" filter="url(#f1m48j811iikh2)" height="30" style="stroke:#A80036;stroke-width:1.0;" width="10" x="809" y="243.3672"/><rect fill="#FFFFFF" filter="url(#f1m48j811iikh2)" height="30" style="stroke:#A80036;stroke-width:1.0;" width="10" x="809" y="511.8281"/><rect fill="#FFFFFF" filter="url(#f1m48j811iikh2)" height="117.0547" style="stroke:#A80036;stroke-width:1.0;" width="10" x="906" y="303.7188"/><rect fill="#FFFFFF" filter="url(#f1m48j811iikh2)" height="41.3516" style="stroke:#A80036;stroke-width:1.0;" width="10" x="911" y="342.0703"/><rect fill="#FFFFFF" filter="url(#f1m48j811iikh2)" height="30.3516" style="stroke:#A80036;stroke-width:1.0;" width="10" x="1065" y="572.1797"/><rect fill="#FFFFFF" filter="url(#f1m48j811iikh2)" height="30" style="stroke:#A80036;stroke-width:1.0;" width="10" x="1225" y="1203.5625"/><rect fill="#FFFFFF" filter="url(#f1m48j811iikh2)" height="30" style="stroke:#A80036;stroke-width:1.0;" width="10" x="1370" y="1143.2109"/><rect fill="#FFFFFF" filter="url(#f1m48j811iikh2)" height="139.7031" style="stroke:#A80036;stroke-width:1.0;" width="10" x="1483" y="1477.375"/><rect fill="#FFFFFF" filter="url(#f1m48j811iikh2)" height="28" style="stroke:#A80036;stroke-width:1.0;" width="10" x="1488" y="1515.7266"/><rect fill="#FFFFFF" filter="url(#f1m48j811iikh2)" height="28" style="stroke:#A80036;stroke-width:1.0;" width="10" x="1488" y="1589.0781"/><polygon fill="#A80036" points="381,117.9609,391,121.9609,381,125.9609,385,121.9609" style="stroke:#A80036;stroke-width:1.0;"/><line style="stroke:#A80036;stroke-width:1.0;" x1="77" x2="387" y1="121.9609" y2="121.9609"/><text fill="#000000" font-family="sans-serif" font-size="13" font-weight="bold" lengthAdjust="spacing" textLength="7" x="84" y="117.1045">1</text><text fill="#000000" font-family="sans-serif" font-size="13" lengthAdjust="spacing" textLength="133" x="95" y="117.1045">wants to register a test</text><polygon fill="#A80036" points="88,148.3125,78,152.3125,88,156.3125,84,152.3125" style="stroke:#A80036;stroke-width:1.0;"/><line style="stroke:#A80036;stroke-width:1.0;stroke-dasharray:2.0,2.0;" x1="82" x2="397" y1="152.3125" y2="152.3125"/><text fill="#000000" font-family="sans-serif" font-size="13" font-weight="bold" lengthAdjust="spacing" textLength="7" x="94" y="147.4561">2</text><text fill="#000000" font-family="sans-serif" font-size="13" lengthAdjust="spacing" textLength="236" x="105" y="147.4561">requests data (clientCc, testNhsNumber)</text><polygon fill="#A80036" points="381,178.6641,391,182.6641,381,186.6641,385,182.6641" style="stroke:#A80036;stroke-width:1.0;"/><line style="stroke:#A80036;stroke-width:1.0;" x1="77" x2="387" y1="182.6641" y2="182.6641"/><text fill="#000000" font-family="sans-serif" font-size="13" font-weight="bold" lengthAdjust="spacing" textLength="7" x="84" y="177.8076">3</text><text fill="#000000" font-family="sans-serif" font-size="13" lengthAdjust="spacing" textLength="144" x="95" y="177.8076">types the requested data</text><polygon fill="#A80036" points="605,209.0156,615,213.0156,605,217.0156,609,213.0156" style="stroke:#A80036;stroke-width:1.0;"/><line style="stroke:#A80036;stroke-width:1.0;" x1="403" x2="611" y1="213.0156" y2="213.0156"/><text fill="#000000" font-family="sans-serif" font-size="13" font-weight="bold" lengthAdjust="spacing" textLength="7" x="410" y="208.1592">4</text><text fill="#000000" font-family="sans-serif" font-size="13" lengthAdjust="spacing" textLength="117" x="421" y="208.1592">existClient(clientTin)</text><polygon fill="#A80036" points="797,239.3672,807,243.3672,797,247.3672,801,243.3672" style="stroke:#A80036;stroke-width:1.0;"/><line style="stroke:#A80036;stroke-width:1.0;" x1="627" x2="803" y1="243.3672" y2="243.3672"/><text fill="#000000" font-family="sans-serif" font-size="13" font-weight="bold" lengthAdjust="spacing" textLength="7" x="634" y="238.5107">5</text><text fill="#000000" font-family="sans-serif" font-size="13" lengthAdjust="spacing" textLength="90" x="645" y="238.5107">getClientStore()</text><polygon fill="#A80036" points="894,299.7188,904,303.7188,894,307.7188,898,303.7188" style="stroke:#A80036;stroke-width:1.0;"/><line style="stroke:#A80036;stroke-width:1.0;" x1="627" x2="900" y1="303.7188" y2="303.7188"/><text fill="#000000" font-family="sans-serif" font-size="13" font-weight="bold" lengthAdjust="spacing" textLength="7" x="634" y="298.8623">6</text><text fill="#000000" font-family="sans-serif" font-size="13" lengthAdjust="spacing" textLength="117" x="645" y="298.8623">existClient(clientTin)</text><line style="stroke:#A80036;stroke-width:1.0;" x1="916" x2="963" y1="329.0703" y2="329.0703"/><line style="stroke:#A80036;stroke-width:1.0;" x1="963" x2="963" y1="329.0703" y2="342.0703"/><line style="stroke:#A80036;stroke-width:1.0;" x1="922" x2="963" y1="342.0703" y2="342.0703"/><polygon fill="#A80036" points="932,338.0703,922,342.0703,932,346.0703,928,342.0703" style="stroke:#A80036;stroke-width:1.0;"/><text fill="#000000" font-family="sans-serif" font-size="13" font-weight="bold" lengthAdjust="spacing" textLength="7" x="928" y="324.2139">7</text><text fill="#000000" font-family="sans-serif" font-size="13" lengthAdjust="spacing" textLength="124" x="939" y="324.2139">existsClient(clientTin)</text><line style="stroke:#A80036;stroke-width:1.0;stroke-dasharray:2.0,2.0;" x1="921" x2="963" y1="382.4219" y2="382.4219"/><line style="stroke:#A80036;stroke-width:1.0;stroke-dasharray:2.0,2.0;" x1="963" x2="963" y1="382.4219" y2="395.4219"/><line style="stroke:#A80036;stroke-width:1.0;stroke-dasharray:2.0,2.0;" x1="916" x2="963" y1="395.4219" y2="395.4219"/><polygon fill="#A80036" points="926,391.4219,916,395.4219,926,399.4219,922,395.4219" style="stroke:#A80036;stroke-width:1.0;"/><text fill="#000000" font-family="sans-serif" font-size="13" font-weight="bold" lengthAdjust="spacing" textLength="7" x="928" y="377.5654">8</text><text fill="#000000" font-family="sans-serif" font-size="13" lengthAdjust="spacing" textLength="35" x="939" y="377.5654">exists</text><polygon fill="#A80036" points="638,416.7734,628,420.7734,638,424.7734,634,420.7734" style="stroke:#A80036;stroke-width:1.0;"/><line style="stroke:#A80036;stroke-width:1.0;stroke-dasharray:2.0,2.0;" x1="632" x2="910" y1="420.7734" y2="420.7734"/><text fill="#000000" font-family="sans-serif" font-size="13" font-weight="bold" lengthAdjust="spacing" textLength="7" x="644" y="415.917">9</text><text fill="#000000" font-family="sans-serif" font-size="13" lengthAdjust="spacing" textLength="35" x="655" y="415.917">exists</text><polygon fill="#A80036" points="414,447.125,404,451.125,414,455.125,410,451.125" style="stroke:#A80036;stroke-width:1.0;"/><line style="stroke:#A80036;stroke-width:1.0;stroke-dasharray:2.0,2.0;" x1="408" x2="621" y1="451.125" y2="451.125"/><text fill="#000000" font-family="sans-serif" font-size="13" font-weight="bold" lengthAdjust="spacing" textLength="14" x="420" y="446.2686">10</text><text fill="#000000" font-family="sans-serif" font-size="13" lengthAdjust="spacing" textLength="35" x="438" y="446.2686">exists</text><polygon fill="#A80036" points="605,477.4766,615,481.4766,605,485.4766,609,481.4766" style="stroke:#A80036;stroke-width:1.0;"/><line style="stroke:#A80036;stroke-width:1.0;" x1="403" x2="611" y1="481.4766" y2="481.4766"/><text fill="#000000" font-family="sans-serif" font-size="13" font-weight="bold" lengthAdjust="spacing" textLength="14" x="410" y="476.6201">11</text><text fill="#000000" font-family="sans-serif" font-size="13" lengthAdjust="spacing" textLength="100" x="428" y="476.6201">getTestTypeList()</text><polygon fill="#A80036" points="797,507.8281,807,511.8281,797,515.8281,801,511.8281" style="stroke:#A80036;stroke-width:1.0;"/><line style="stroke:#A80036;stroke-width:1.0;" x1="627" x2="803" y1="511.8281" y2="511.8281"/><text fill="#000000" font-family="sans-serif" font-size="13" font-weight="bold" lengthAdjust="spacing" textLength="14" x="634" y="506.9717">12</text><text fill="#000000" font-family="sans-serif" font-size="13" lengthAdjust="spacing" textLength="145" x="652" y="506.9717">ttList = getTestTypeList()</text><polygon fill="#A80036" points="1053,568.1797,1063,572.1797,1053,576.1797,1057,572.1797" style="stroke:#A80036;stroke-width:1.0;"/><line style="stroke:#A80036;stroke-width:1.0;" x1="627" x2="1059" y1="572.1797" y2="572.1797"/><text fill="#000000" font-family="sans-serif" font-size="13" font-weight="bold" lengthAdjust="spacing" textLength="14" x="634" y="567.3232">13</text><text fill="#000000" font-family="sans-serif" font-size="13" lengthAdjust="spacing" textLength="68" x="652" y="567.3232">toDto(ttList)</text><polygon fill="#A80036" points="638,598.5313,628,602.5313,638,606.5313,634,602.5313" style="stroke:#A80036;stroke-width:1.0;"/><line style="stroke:#A80036;stroke-width:1.0;stroke-dasharray:2.0,2.0;" x1="632" x2="1069" y1="602.5313" y2="602.5313"/><text fill="#000000" font-family="sans-serif" font-size="13" font-weight="bold" lengthAdjust="spacing" textLength="14" x="644" y="597.6748">14</text><text fill="#000000" font-family="sans-serif" font-size="13" lengthAdjust="spacing" textLength="55" x="662" y="597.6748">ttListDTO</text><polygon fill="#A80036" points="414,628.8828,404,632.8828,414,636.8828,410,632.8828" style="stroke:#A80036;stroke-width:1.0;"/><line style="stroke:#A80036;stroke-width:1.0;stroke-dasharray:2.0,2.0;" x1="408" x2="621" y1="632.8828" y2="632.8828"/><text fill="#000000" font-family="sans-serif" font-size="13" font-weight="bold" lengthAdjust="spacing" textLength="14" x="420" y="628.0264">15</text><text fill="#000000" font-family="sans-serif" font-size="13" lengthAdjust="spacing" textLength="55" x="438" y="628.0264">ttListDTO</text><polygon fill="#A80036" points="88,659.2344,78,663.2344,88,667.2344,84,663.2344" style="stroke:#A80036;stroke-width:1.0;"/><line style="stroke:#A80036;stroke-width:1.0;stroke-dasharray:2.0,2.0;" x1="82" x2="397" y1="663.2344" y2="663.2344"/><text fill="#000000" font-family="sans-serif" font-size="13" font-weight="bold" lengthAdjust="spacing" textLength="14" x="94" y="658.3779">16</text><text fill="#000000" font-family="sans-serif" font-size="13" lengthAdjust="spacing" textLength="253" x="112" y="658.3779">Show TestType list and asks to choose one</text><polygon fill="#A80036" points="381,689.5859,391,693.5859,381,697.5859,385,693.5859" style="stroke:#A80036;stroke-width:1.0;"/><line style="stroke:#A80036;stroke-width:1.0;" x1="77" x2="387" y1="693.5859" y2="693.5859"/><text fill="#000000" font-family="sans-serif" font-size="13" font-weight="bold" lengthAdjust="spacing" textLength="14" x="84" y="688.7295">17</text><text fill="#000000" font-family="sans-serif" font-size="13" lengthAdjust="spacing" textLength="126" x="102" y="688.7295">Choose one TestType</text><polygon fill="#A80036" points="605,719.9375,615,723.9375,605,727.9375,609,723.9375" style="stroke:#A80036;stroke-width:1.0;"/><line style="stroke:#A80036;stroke-width:1.0;" x1="403" x2="611" y1="723.9375" y2="723.9375"/><text fill="#000000" font-family="sans-serif" font-size="13" font-weight="bold" lengthAdjust="spacing" textLength="14" x="410" y="719.0811">18</text><text fill="#000000" font-family="sans-serif" font-size="13" lengthAdjust="spacing" textLength="171" x="428" y="719.0811">getCategories(TestTypeCode)</text><rect fill="#FFFFFF" filter="url(#f1m48j811iikh2)" height="42.7031" style="stroke:#000000;stroke-width:2.0;" width="204" x="536.5" y="731.9375"/><polygon fill="#EEEEEE" points="536.5,731.9375,598.5,731.9375,598.5,739.9375,588.5,749.9375,536.5,749.9375,536.5,731.9375" style="stroke:#000000;stroke-width:2.0;"/><text fill="#000000" font-family="sans-serif" font-size="13" font-weight="bold" lengthAdjust="spacing" textLength="17" x="549.5" y="747.4326">ref</text><text fill="#000000" font-family="sans-serif" font-size="13" lengthAdjust="spacing" textLength="196" x="542.5" y="767.4326">SD_getCategories(TestTypeCode)</text><polygon fill="#A80036" points="414,797.9922,404,801.9922,414,805.9922,410,801.9922" style="stroke:#A80036;stroke-width:1.0;"/><line style="stroke:#A80036;stroke-width:1.0;stroke-dasharray:2.0,2.0;" x1="408" x2="621" y1="801.9922" y2="801.9922"/><text fill="#000000" font-family="sans-serif" font-size="13" font-weight="bold" lengthAdjust="spacing" textLength="14" x="420" y="797.1357">19</text><text fill="#000000" font-family="sans-serif" font-size="13" lengthAdjust="spacing" textLength="107" x="438" y="797.1357">categoriesListDTO</text><path d="M10,816.9922 L83,816.9922 L83,824.9922 L73,834.9922 L10,834.9922 L10,816.9922 " fill="#EEEEEE" style="stroke:#000000;stroke-width:1.0;"/><rect fill="none" height="431.5703" style="stroke:#000000;stroke-width:2.0;" width="1446" x="10" y="816.9922"/><text fill="#000000" font-family="sans-serif" font-size="13" font-weight="bold" lengthAdjust="spacing" textLength="28" x="25" y="831.4873">loop</text><text fill="#000000" font-family="sans-serif" font-size="11" font-weight="bold" lengthAdjust="spacing" textLength="109" x="98" y="830.4111">["More categories"]</text><polygon fill="#A80036" points="88,853.6953,78,857.6953,88,861.6953,84,857.6953" style="stroke:#A80036;stroke-width:1.0;"/><line style="stroke:#A80036;stroke-width:1.0;stroke-dasharray:2.0,2.0;" x1="82" x2="397" y1="857.6953" y2="857.6953"/><text fill="#000000" font-family="sans-serif" font-size="13" font-weight="bold" lengthAdjust="spacing" textLength="14" x="94" y="852.8389">20</text><text fill="#000000" font-family="sans-serif" font-size="13" lengthAdjust="spacing" textLength="269" x="112" y="852.8389">shows the list of categories and asks to select</text><polygon fill="#A80036" points="381,884.0469,391,888.0469,381,892.0469,385,888.0469" style="stroke:#A80036;stroke-width:1.0;"/><line style="stroke:#A80036;stroke-width:1.0;" x1="77" x2="387" y1="888.0469" y2="888.0469"/><text fill="#000000" font-family="sans-serif" font-size="13" font-weight="bold" lengthAdjust="spacing" textLength="14" x="84" y="883.1904">21</text><text fill="#000000" font-family="sans-serif" font-size="13" lengthAdjust="spacing" textLength="96" x="102" y="883.1904">selects category</text><polygon fill="#A80036" points="605,914.3984,615,918.3984,605,922.3984,609,918.3984" style="stroke:#A80036;stroke-width:1.0;"/><line style="stroke:#A80036;stroke-width:1.0;" x1="403" x2="611" y1="918.3984" y2="918.3984"/><text fill="#000000" font-family="sans-serif" font-size="13" font-weight="bold" lengthAdjust="spacing" textLength="14" x="410" y="913.542">22</text><text fill="#000000" font-family="sans-serif" font-size="13" lengthAdjust="spacing" textLength="173" x="428" y="913.542">getParameters(categoryCode)</text><rect fill="#FFFFFF" filter="url(#f1m48j811iikh2)" height="42.7031" style="stroke:#000000;stroke-width:2.0;" width="206" x="536.5" y="926.3984"/><polygon fill="#EEEEEE" points="536.5,926.3984,598.5,926.3984,598.5,934.3984,588.5,944.3984,536.5,944.3984,536.5,926.3984" style="stroke:#000000;stroke-width:2.0;"/><text fill="#000000" font-family="sans-serif" font-size="13" font-weight="bold" lengthAdjust="spacing" textLength="17" x="549.5" y="941.8936">ref</text><text fill="#000000" font-family="sans-serif" font-size="13" lengthAdjust="spacing" textLength="198" x="542.5" y="961.8936">SD_getParameters(categoryCode)</text><polygon fill="#A80036" points="414,992.4531,404,996.4531,414,1000.4531,410,996.4531" style="stroke:#A80036;stroke-width:1.0;"/><line style="stroke:#A80036;stroke-width:1.0;stroke-dasharray:2.0,2.0;" x1="408" x2="621" y1="996.4531" y2="996.4531"/><text fill="#000000" font-family="sans-serif" font-size="13" font-weight="bold" lengthAdjust="spacing" textLength="14" x="420" y="991.5967">23</text><text fill="#000000" font-family="sans-serif" font-size="13" lengthAdjust="spacing" textLength="61" x="438" y="991.5967">paListDTO</text><path d="M20,1011.4531 L93,1011.4531 L93,1019.4531 L83,1029.4531 L20,1029.4531 L20,1011.4531 " fill="#EEEEEE" style="stroke:#000000;stroke-width:1.0;"/><rect fill="none" height="230.1094" style="stroke:#000000;stroke-width:2.0;" width="1426" x="20" y="1011.4531"/><text fill="#000000" font-family="sans-serif" font-size="13" font-weight="bold" lengthAdjust="spacing" textLength="28" x="35" y="1025.9482">loop</text><text fill="#000000" font-family="sans-serif" font-size="11" font-weight="bold" lengthAdjust="spacing" textLength="115" x="108" y="1024.8721">["More parameters"]</text><polygon fill="#A80036" points="88,1048.1563,78,1052.1563,88,1056.1563,84,1052.1563" style="stroke:#A80036;stroke-width:1.0;"/><line style="stroke:#A80036;stroke-width:1.0;stroke-dasharray:2.0,2.0;" x1="82" x2="397" y1="1052.1563" y2="1052.1563"/><text fill="#000000" font-family="sans-serif" font-size="13" font-weight="bold" lengthAdjust="spacing" textLength="14" x="94" y="1047.2998">24</text><text fill="#000000" font-family="sans-serif" font-size="13" lengthAdjust="spacing" textLength="274" x="112" y="1047.2998">shows the list of parameters and asks to select</text><polygon fill="#A80036" points="381,1078.5078,391,1082.5078,381,1086.5078,385,1082.5078" style="stroke:#A80036;stroke-width:1.0;"/><line style="stroke:#A80036;stroke-width:1.0;" x1="77" x2="387" y1="1082.5078" y2="1082.5078"/><text fill="#000000" font-family="sans-serif" font-size="13" font-weight="bold" lengthAdjust="spacing" textLength="14" x="84" y="1077.6514">25</text><text fill="#000000" font-family="sans-serif" font-size="13" lengthAdjust="spacing" textLength="104" x="102" y="1077.6514">selects parameter</text><polygon fill="#A80036" points="605,1108.8594,615,1112.8594,605,1116.8594,609,1112.8594" style="stroke:#A80036;stroke-width:1.0;"/><line style="stroke:#A80036;stroke-width:1.0;" x1="403" x2="611" y1="1112.8594" y2="1112.8594"/><text fill="#000000" font-family="sans-serif" font-size="13" font-weight="bold" lengthAdjust="spacing" textLength="14" x="410" y="1108.0029">26</text><text fill="#000000" font-family="sans-serif" font-size="13" lengthAdjust="spacing" textLength="177" x="428" y="1108.0029">addParameter(parameterCode)</text><polygon fill="#A80036" points="1358,1139.2109,1368,1143.2109,1358,1147.2109,1362,1143.2109" style="stroke:#A80036;stroke-width:1.0;"/><line style="stroke:#A80036;stroke-width:1.0;" x1="627" x2="1364" y1="1143.2109" y2="1143.2109"/><text fill="#000000" font-family="sans-serif" font-size="13" font-weight="bold" lengthAdjust="spacing" textLength="14" x="634" y="1138.3545">27</text><text fill="#000000" font-family="sans-serif" font-size="13" lengthAdjust="spacing" textLength="248" x="652" y="1138.3545">parameter = getParameter(parameterCode)</text><polygon fill="#A80036" points="1213,1199.5625,1223,1203.5625,1213,1207.5625,1217,1203.5625" style="stroke:#A80036;stroke-width:1.0;"/><line style="stroke:#A80036;stroke-width:1.0;" x1="627" x2="1219" y1="1203.5625" y2="1203.5625"/><text fill="#000000" font-family="sans-serif" font-size="13" font-weight="bold" lengthAdjust="spacing" textLength="14" x="634" y="1198.7061">28</text><text fill="#000000" font-family="sans-serif" font-size="13" lengthAdjust="spacing" textLength="147" x="652" y="1198.7061">addParameter(parameter)</text><polygon fill="#A80036" points="605,1273.9141,615,1277.9141,605,1281.9141,609,1277.9141" style="stroke:#A80036;stroke-width:1.0;"/><line style="stroke:#A80036;stroke-width:1.0;" x1="403" x2="611" y1="1277.9141" y2="1277.9141"/><text fill="#000000" font-family="sans-serif" font-size="13" font-weight="bold" lengthAdjust="spacing" textLength="14" x="410" y="1273.0576">29</text><text fill="#000000" font-family="sans-serif" font-size="13" lengthAdjust="spacing" textLength="69" x="428" y="1273.0576">createTest()</text><rect fill="#FFFFFF" filter="url(#f1m48j811iikh2)" height="42.7031" style="stroke:#000000;stroke-width:2.0;" width="167" x="536.5" y="1285.9141"/><polygon fill="#EEEEEE" points="536.5,1285.9141,598.5,1285.9141,598.5,1293.9141,588.5,1303.9141,536.5,1303.9141,536.5,1285.9141" style="stroke:#000000;stroke-width:2.0;"/><text fill="#000000" font-family="sans-serif" font-size="13" font-weight="bold" lengthAdjust="spacing" textLength="17" x="549.5" y="1301.4092">ref</text><text fill="#000000" font-family="sans-serif" font-size="13" lengthAdjust="spacing" textLength="94" x="575" y="1321.4092">SD_createTest()</text><polygon fill="#A80036" points="414,1351.9688,404,1355.9688,414,1359.9688,410,1355.9688" style="stroke:#A80036;stroke-width:1.0;"/><line style="stroke:#A80036;stroke-width:1.0;stroke-dasharray:2.0,2.0;" x1="408" x2="621" y1="1355.9688" y2="1355.9688"/><text fill="#000000" font-family="sans-serif" font-size="13" font-weight="bold" lengthAdjust="spacing" textLength="14" x="420" y="1351.1123">30</text><text fill="#000000" font-family="sans-serif" font-size="13" lengthAdjust="spacing" textLength="49" x="438" y="1351.1123">success</text><polygon fill="#A80036" points="88,1382.3203,78,1386.3203,88,1390.3203,84,1386.3203" style="stroke:#A80036;stroke-width:1.0;"/><line style="stroke:#A80036;stroke-width:1.0;stroke-dasharray:2.0,2.0;" x1="82" x2="397" y1="1386.3203" y2="1386.3203"/><text fill="#000000" font-family="sans-serif" font-size="13" font-weight="bold" lengthAdjust="spacing" textLength="14" x="94" y="1381.4639">31</text><text fill="#000000" font-family="sans-serif" font-size="13" lengthAdjust="spacing" textLength="213" x="112" y="1381.4639">confirms all data and asks to confirm</text><polygon fill="#A80036" points="381,1412.6719,391,1416.6719,381,1420.6719,385,1416.6719" style="stroke:#A80036;stroke-width:1.0;"/><line style="stroke:#A80036;stroke-width:1.0;" x1="77" x2="387" y1="1416.6719" y2="1416.6719"/><text fill="#000000" font-family="sans-serif" font-size="13" font-weight="bold" lengthAdjust="spacing" textLength="14" x="84" y="1411.8154">32</text><text fill="#000000" font-family="sans-serif" font-size="13" lengthAdjust="spacing" textLength="78" x="102" y="1411.8154">confirms data</text><polygon fill="#A80036" points="605,1443.0234,615,1447.0234,605,1451.0234,609,1447.0234" style="stroke:#A80036;stroke-width:1.0;"/><line style="stroke:#A80036;stroke-width:1.0;" x1="403" x2="611" y1="1447.0234" y2="1447.0234"/><text fill="#000000" font-family="sans-serif" font-size="13" font-weight="bold" lengthAdjust="spacing" textLength="14" x="410" y="1442.167">33</text><text fill="#000000" font-family="sans-serif" font-size="13" lengthAdjust="spacing" textLength="59" x="428" y="1442.167">saveTest()</text><polygon fill="#A80036" points="1471,1473.375,1481,1477.375,1471,1481.375,1475,1477.375" style="stroke:#A80036;stroke-width:1.0;"/><line style="stroke:#A80036;stroke-width:1.0;" x1="627" x2="1477" y1="1477.375" y2="1477.375"/><text fill="#000000" font-family="sans-serif" font-size="13" font-weight="bold" lengthAdjust="spacing" textLength="14" x="634" y="1472.5186">34</text><text fill="#000000" font-family="sans-serif" font-size="13" lengthAdjust="spacing" textLength="59" x="652" y="1472.5186">saveTest()</text><line style="stroke:#A80036;stroke-width:1.0;" x1="1498" x2="1540" y1="1507.7266" y2="1507.7266"/><line style="stroke:#A80036;stroke-width:1.0;" x1="1540" x2="1540" y1="1507.7266" y2="1520.7266"/><line style="stroke:#A80036;stroke-width:1.0;" x1="1499" x2="1540" y1="1520.7266" y2="1520.7266"/><polygon fill="#A80036" points="1509,1516.7266,1499,1520.7266,1509,1524.7266,1505,1520.7266" style="stroke:#A80036;stroke-width:1.0;"/><text fill="#000000" font-family="sans-serif" font-size="13" font-weight="bold" lengthAdjust="spacing" textLength="14" x="1505" y="1502.8701">35</text><text fill="#000000" font-family="sans-serif" font-size="13" lengthAdjust="spacing" textLength="80" x="1523" y="1502.8701">validateTest(t)</text><line style="stroke:#A80036;stroke-width:1.0;" x1="1498" x2="1540" y1="1581.0781" y2="1581.0781"/><line style="stroke:#A80036;stroke-width:1.0;" x1="1540" x2="1540" y1="1581.0781" y2="1594.0781"/><line style="stroke:#A80036;stroke-width:1.0;" x1="1499" x2="1540" y1="1594.0781" y2="1594.0781"/><polygon fill="#A80036" points="1509,1590.0781,1499,1594.0781,1509,1598.0781,1505,1594.0781" style="stroke:#A80036;stroke-width:1.0;"/><text fill="#000000" font-family="sans-serif" font-size="13" font-weight="bold" lengthAdjust="spacing" textLength="14" x="1505" y="1576.2217">36</text><text fill="#000000" font-family="sans-serif" font-size="13" lengthAdjust="spacing" textLength="58" x="1523" y="1576.2217">addTest(t)</text><polygon fill="#A80036" points="414,1650.4297,404,1654.4297,414,1658.4297,410,1654.4297" style="stroke:#A80036;stroke-width:1.0;"/><line style="stroke:#A80036;stroke-width:1.0;stroke-dasharray:2.0,2.0;" x1="408" x2="621" y1="1654.4297" y2="1654.4297"/><text fill="#000000" font-family="sans-serif" font-size="13" font-weight="bold" lengthAdjust="spacing" textLength="14" x="420" y="1649.5732">37</text><text fill="#000000" font-family="sans-serif" font-size="13" lengthAdjust="spacing" textLength="49" x="438" y="1649.5732">success</text><polygon fill="#A80036" points="83,1680.7813,73,1684.7813,83,1688.7813,79,1684.7813" style="stroke:#A80036;stroke-width:1.0;"/><line style="stroke:#A80036;stroke-width:1.0;stroke-dasharray:2.0,2.0;" x1="77" x2="397" y1="1684.7813" y2="1684.7813"/><text fill="#000000" font-family="sans-serif" font-size="13" font-weight="bold" lengthAdjust="spacing" textLength="14" x="89" y="1679.9248">38</text><text fill="#000000" font-family="sans-serif" font-size="13" lengthAdjust="spacing" textLength="152" x="107" y="1679.9248">informs operation success</text><!--MD5=[fee19eff4028c55f343c8cce89ba8672]
@startuml

autonumber

actor Receptionist as R
participant ":RegisterTestUI" as UI
participant ":RegisterTestController" as ctrl
participant ":Company" as comp
participant ":ClientStore" as cStore
participant ":TestTypeListMapper" as mapper
participant "paList:ParameterList" as paList
participant ":ParameterStore" as paStore
participant ":TestStore" as tStore



activate R
R -> UI: wants to register a test
activate UI
UI - -> R: requests data (clientCc, testNhsNumber)

deactivate UI
R -> UI: types the requested data
activate UI
UI -> ctrl: existClient(clientTin)
activate ctrl
ctrl -> comp: getClientStore()
activate comp
deactivate
ctrl -> cStore: existClient(clientTin)
activate cStore
cStore -> cStore: existsClient(clientTin)
activate cStore
return exists
return exists
return exists
deactivate cStore
deactivate cStore

UI -> ctrl: getTestTypeList()
activate ctrl
ctrl -> comp: ttList = getTestTypeList()
activate comp
deactivate
ctrl -> mapper: toDto(ttList)
activate mapper
return ttListDTO
return ttListDTO
deactivate mapper
deactivate ctrl

deactivate ctrl
UI - -> R: Show TestType list and asks to choose one
deactivate UI
R -> UI: Choose one TestType
activate UI
UI -> ctrl: getCategories(TestTypeCode)
activate ctrl
ref over ctrl: SD_getCategories(TestTypeCode)
return categoriesListDTO
deactivate ctrl

loop "More categories"
UI - -> R: shows the list of categories and asks to select
deactivate UI
R -> UI: selects category
activate UI
UI -> ctrl: getParameters(categoryCode)
activate ctrl
ref over ctrl: SD_getParameters(categoryCode)
return paListDTO

deactivate ctrl
loop "More parameters"
UI - -> R: shows the list of parameters and asks to select
deactivate UI
R -> UI: selects parameter
activate UI
UI -> ctrl: addParameter(parameterCode)
activate ctrl
ctrl -> paStore: parameter = getParameter(parameterCode)
activate paStore
deactivate
ctrl -> paList: addParameter(parameter)
activate paList
deactivate
deactivate
end
end
UI -> ctrl: createTest()
activate ctrl
ref over ctrl: SD_createTest()
ctrl - -> UI: success
deactivate ctrl

UI - -> R: confirms all data and asks to confirm
deactivate UI
R -> UI: confirms data
activate UI
UI -> ctrl: saveTest()
activate ctrl
ctrl -> tStore: saveTest()
activate tStore
tStore -> tStore: validateTest(t)
activate tStore
deactivate
tStore -> tStore: addTest(t)
activate tStore
deactivate
deactivate
return success

deactivate ctrl
UI - -> R: informs operation success
deactivate UI
deactivate R
@enduml

PlantUML version 1.2021.7(Sun May 23 13:40:07 BST 2021)
(GPL source distribution)
Java Runtime: OpenJDK Runtime Environment
JVM: Dynamic Code Evolution 64-Bit Server VM
Default Encoding: Cp1252
Language: pt
Country: PT
--></g></svg>