<?xml version="1.0" encoding="UTF-8" standalone="no"?><svg xmlns="http://www.w3.org/2000/svg" xmlns:xlink="http://www.w3.org/1999/xlink" contentScriptType="application/ecmascript" contentStyleType="text/css" height="316px" preserveAspectRatio="none" style="width:372px;height:316px;background:#FFFFFF;" version="1.1" viewBox="0 0 372 316" width="372px" zoomAndPan="magnify"><defs><filter height="300%" id="fqhdzeno1x21n" width="300%" x="-1" y="-1"><feGaussianBlur result="blurOut" stdDeviation="2.0"/><feColorMatrix in="blurOut" result="blurOut2" type="matrix" values="0 0 0 0 0 0 0 0 0 0 0 0 0 0 0 0 0 0 .4 0"/><feOffset dx="4.0" dy="4.0" in="blurOut2" result="blurOut3"/><feBlend in="SourceGraphic" in2="blurOut3" mode="normal"/></filter></defs><g><rect fill="#FFFFFF" filter="url(#fqhdzeno1x21n)" height="113.4063" style="stroke:#A80036;stroke-width:1.0;" width="10" x="75" y="99.6094"/><rect fill="#FFFFFF" filter="url(#fqhdzeno1x21n)" height="30.3516" style="stroke:#A80036;stroke-width:1.0;" width="10" x="323" y="121.9609"/><rect fill="#FFFFFF" filter="url(#fqhdzeno1x21n)" height="30.3516" style="stroke:#A80036;stroke-width:1.0;" width="10" x="323" y="182.6641"/><line style="stroke:#A80036;stroke-width:1.0;stroke-dasharray:5.0,5.0;" x1="80" x2="80" y1="89.6094" y2="231.0156"/><line style="stroke:#A80036;stroke-width:1.0;stroke-dasharray:5.0,5.0;" x1="328" x2="328" y1="89.6094" y2="231.0156"/><text fill="#000000" font-family="sans-serif" font-size="14" lengthAdjust="spacing" textLength="144" x="5" y="86.5332">LaboratoryCoordinator</text><ellipse cx="80" cy="15" fill="#FEFECE" filter="url(#fqhdzeno1x21n)" rx="8" ry="8" style="stroke:#A80036;stroke-width:2.0;"/><path d="M80,23 L80,50 M67,31 L93,31 M80,50 L67,65 M80,50 L93,65 " fill="none" filter="url(#fqhdzeno1x21n)" style="stroke:#A80036;stroke-width:2.0;"/><text fill="#000000" font-family="sans-serif" font-size="14" lengthAdjust="spacing" textLength="144" x="5" y="244.5488">LaboratoryCoordinator</text><ellipse cx="80" cy="257.625" fill="#FEFECE" filter="url(#fqhdzeno1x21n)" rx="8" ry="8" style="stroke:#A80036;stroke-width:2.0;"/><path d="M80,265.625 L80,292.625 M67,273.625 L93,273.625 M80,292.625 L67,307.625 M80,292.625 L93,307.625 " fill="none" filter="url(#fqhdzeno1x21n)" style="stroke:#A80036;stroke-width:2.0;"/><rect fill="#FEFECE" filter="url(#fqhdzeno1x21n)" height="31.6094" style="stroke:#A80036;stroke-width:1.5;" width="64" x="294" y="53"/><text fill="#000000" font-family="sans-serif" font-size="14" lengthAdjust="spacing" textLength="50" x="301" y="74.5332">:System</text><rect fill="#FEFECE" filter="url(#fqhdzeno1x21n)" height="31.6094" style="stroke:#A80036;stroke-width:1.5;" width="64" x="294" y="230.0156"/><text fill="#000000" font-family="sans-serif" font-size="14" lengthAdjust="spacing" textLength="50" x="301" y="251.5488">:System</text><rect fill="#FFFFFF" filter="url(#fqhdzeno1x21n)" height="113.4063" style="stroke:#A80036;stroke-width:1.0;" width="10" x="75" y="99.6094"/><rect fill="#FFFFFF" filter="url(#fqhdzeno1x21n)" height="30.3516" style="stroke:#A80036;stroke-width:1.0;" width="10" x="323" y="121.9609"/><rect fill="#FFFFFF" filter="url(#fqhdzeno1x21n)" height="30.3516" style="stroke:#A80036;stroke-width:1.0;" width="10" x="323" y="182.6641"/><polygon fill="#A80036" points="311,117.9609,321,121.9609,311,125.9609,315,121.9609" style="stroke:#A80036;stroke-width:1.0;"/><line style="stroke:#A80036;stroke-width:1.0;" x1="85" x2="317" y1="121.9609" y2="121.9609"/><text fill="#000000" font-family="sans-serif" font-size="13" font-weight="bold" lengthAdjust="spacing" textLength="7" x="92" y="117.1045">1</text><text fill="#000000" font-family="sans-serif" font-size="13" lengthAdjust="spacing" textLength="169" x="103" y="117.1045">wants to import file with tests</text><polygon fill="#A80036" points="96,148.3125,86,152.3125,96,156.3125,92,152.3125" style="stroke:#A80036;stroke-width:1.0;"/><line style="stroke:#A80036;stroke-width:1.0;stroke-dasharray:2.0,2.0;" x1="90" x2="327" y1="152.3125" y2="152.3125"/><text fill="#000000" font-family="sans-serif" font-size="13" font-weight="bold" lengthAdjust="spacing" textLength="7" x="102" y="147.4561">2</text><text fill="#000000" font-family="sans-serif" font-size="13" lengthAdjust="spacing" textLength="129" x="113" y="147.4561">shows the file chooser</text><polygon fill="#A80036" points="311,178.6641,321,182.6641,311,186.6641,315,182.6641" style="stroke:#A80036;stroke-width:1.0;"/><line style="stroke:#A80036;stroke-width:1.0;" x1="85" x2="317" y1="182.6641" y2="182.6641"/><text fill="#000000" font-family="sans-serif" font-size="13" font-weight="bold" lengthAdjust="spacing" textLength="7" x="92" y="177.8076">3</text><text fill="#000000" font-family="sans-serif" font-size="13" lengthAdjust="spacing" textLength="91" x="103" y="177.8076">chooses the file</text><polygon fill="#A80036" points="91,209.0156,81,213.0156,91,217.0156,87,213.0156" style="stroke:#A80036;stroke-width:1.0;"/><line style="stroke:#A80036;stroke-width:1.0;stroke-dasharray:2.0,2.0;" x1="85" x2="327" y1="213.0156" y2="213.0156"/><text fill="#000000" font-family="sans-serif" font-size="13" font-weight="bold" lengthAdjust="spacing" textLength="7" x="97" y="208.1592">4</text><text fill="#000000" font-family="sans-serif" font-size="13" lengthAdjust="spacing" textLength="203" x="108" y="208.1592">shows the tests that were imported</text><!--MD5=[76f4b1b33268b6565c6b09973bcb05d3]
@startuml

autonumber
actor LaboratoryCoordinator as C
participant ":System" as S
activate C
C -> S: wants to import file with tests
activate S
S - -> C: shows the file chooser
deactivate S
C -> S: chooses the file
activate S
S - -> C: shows the tests that were imported
deactivate S

deactivate C
@enduml

PlantUML version 1.2021.7(Sun May 23 13:40:07 BST 2021)
(GPL source distribution)
Java Runtime: OpenJDK Runtime Environment
JVM: OpenJDK 64-Bit Server VM
Default Encoding: Cp1252
Language: en
Country: US
--></g></svg>