<?xml version="1.0" encoding="UTF-8" standalone="no"?><svg xmlns="http://www.w3.org/2000/svg" xmlns:xlink="http://www.w3.org/1999/xlink" contentScriptType="application/ecmascript" contentStyleType="text/css" height="891px" preserveAspectRatio="none" style="width:733px;height:891px;background:#FFFFFF;" version="1.1" viewBox="0 0 733 891" width="733px" zoomAndPan="magnify"><defs><filter height="300%" id="fx8lhpfapqerd" width="300%" x="-1" y="-1"><feGaussianBlur result="blurOut" stdDeviation="2.0"/><feColorMatrix in="blurOut" result="blurOut2" type="matrix" values="0 0 0 0 0 0 0 0 0 0 0 0 0 0 0 0 0 0 .4 0"/><feOffset dx="4.0" dy="4.0" in="blurOut2" result="blurOut3"/><feBlend in="SourceGraphic" in2="blurOut3" mode="normal"/></filter></defs><g><!--MD5=[02e4b9b7573f1156f41e60aa5b4e25a4]
class Company--><rect codeLine="2" fill="#FEFECE" filter="url(#fx8lhpfapqerd)" height="48" id="Company" style="stroke:#A80036;stroke-width:1.5;" width="85" x="220" y="7"/><ellipse cx="235" cy="23" fill="#ADD1B2" rx="11" ry="11" style="stroke:#A80036;stroke-width:1.0;"/><path d="M237,19.5 Q237.2031,19 237.4375,18.75 Q237.6719,18.5 237.9375,18.5 Q238.4063,18.5 238.7031,18.7813 Q239,19.0625 239,19.7188 L239,21.2813 Q239,21.9375 238.7188,22.2188 Q238.4375,22.5 238,22.5 Q237.6094,22.5 237.3594,22.3281 Q237.1094,22.1563 237,21.7031 Q236.9531,21.3906 236.7813,21.2188 Q236.4688,20.8906 235.9063,20.7031 Q235.3438,20.5 234.7813,20.5 Q234.0781,20.5 233.4844,20.7813 Q232.9063,21.0625 232.4531,21.6875 Q232,22.3125 232,23.1719 L232,24.0938 Q232,25.125 232.8438,25.8125 Q233.6875,26.5 235.1875,26.5 Q236.0781,26.5 236.7031,26.2969 Q237.0625,26.1875 237.4688,25.8281 Q237.7344,25.625 237.875,25.5625 Q238.0156,25.5 238.1875,25.5 Q238.5156,25.5 238.75,25.7656 Q239,26.0156 239,26.375 Q239,26.7188 238.6563,27.125 Q238.1563,27.7188 237.3594,28.0469 Q236.3125,28.5 235.0313,28.5 Q233.5313,28.5 232.3281,27.9063 Q231.3594,27.4375 230.6719,26.4219 Q230,25.4063 230,24.2031 L230,23.1094 Q230,21.8594 230.5938,20.7656 Q231.2031,19.6719 232.25,19.0938 Q233.3125,18.5 234.5,18.5 Q235.2188,18.5 235.8438,18.75 Q236.4688,19 237,19.5 Z " fill="#000000"/><text fill="#000000" font-family="sans-serif" font-size="12" lengthAdjust="spacing" textLength="53" x="249" y="27.9102">Company</text><line style="stroke:#A80036;stroke-width:1.5;" x1="221" x2="304" y1="39" y2="39"/><line style="stroke:#A80036;stroke-width:1.5;" x1="221" x2="304" y1="47" y2="47"/><!--MD5=[ed6624c6556d5e7b1bd23032162d20b7]
class Client--><rect codeLine="5" fill="#FEFECE" filter="url(#fx8lhpfapqerd)" height="158.6875" id="Client" style="stroke:#A80036;stroke-width:1.5;" width="185" x="7" y="140"/><ellipse cx="79.25" cy="156" fill="#ADD1B2" rx="11" ry="11" style="stroke:#A80036;stroke-width:1.0;"/><path d="M81.25,152.5 Q81.4531,152 81.6875,151.75 Q81.9219,151.5 82.1875,151.5 Q82.6563,151.5 82.9531,151.7813 Q83.25,152.0625 83.25,152.7188 L83.25,154.2813 Q83.25,154.9375 82.9688,155.2188 Q82.6875,155.5 82.25,155.5 Q81.8594,155.5 81.6094,155.3281 Q81.3594,155.1563 81.25,154.7031 Q81.2031,154.3906 81.0313,154.2188 Q80.7188,153.8906 80.1563,153.7031 Q79.5938,153.5 79.0313,153.5 Q78.3281,153.5 77.7344,153.7813 Q77.1563,154.0625 76.7031,154.6875 Q76.25,155.3125 76.25,156.1719 L76.25,157.0938 Q76.25,158.125 77.0938,158.8125 Q77.9375,159.5 79.4375,159.5 Q80.3281,159.5 80.9531,159.2969 Q81.3125,159.1875 81.7188,158.8281 Q81.9844,158.625 82.125,158.5625 Q82.2656,158.5 82.4375,158.5 Q82.7656,158.5 83,158.7656 Q83.25,159.0156 83.25,159.375 Q83.25,159.7188 82.9063,160.125 Q82.4063,160.7188 81.6094,161.0469 Q80.5625,161.5 79.2813,161.5 Q77.7813,161.5 76.5781,160.9063 Q75.6094,160.4375 74.9219,159.4219 Q74.25,158.4063 74.25,157.2031 L74.25,156.1094 Q74.25,154.8594 74.8438,153.7656 Q75.4531,152.6719 76.5,152.0938 Q77.5625,151.5 78.75,151.5 Q79.4688,151.5 80.0938,151.75 Q80.7188,152 81.25,152.5 Z " fill="#000000"/><text fill="#000000" font-family="sans-serif" font-size="12" lengthAdjust="spacing" textLength="32" x="99.75" y="160.9102">Client</text><line style="stroke:#A80036;stroke-width:1.5;" x1="8" x2="191" y1="172" y2="172"/><text fill="#000000" font-family="sans-serif" font-size="11" lengthAdjust="spacing" textLength="27" x="13" y="187.4189">Name</text><text fill="#000000" font-family="sans-serif" font-size="11" lengthAdjust="spacing" textLength="98" x="13" y="201.2549">Citizen Card Number</text><text fill="#000000" font-family="sans-serif" font-size="11" lengthAdjust="spacing" textLength="173" x="13" y="215.0908">National Healthcare Service Number</text><text fill="#000000" font-family="sans-serif" font-size="11" lengthAdjust="spacing" textLength="46" x="13" y="228.9268">Birth date</text><text fill="#000000" font-family="sans-serif" font-size="11" lengthAdjust="spacing" textLength="19" x="13" y="242.7627">Sex</text><text fill="#000000" font-family="sans-serif" font-size="11" lengthAdjust="spacing" textLength="121" x="13" y="256.5986">Tax Identification Number</text><text fill="#000000" font-family="sans-serif" font-size="11" lengthAdjust="spacing" textLength="30" x="13" y="270.4346">Phone</text><text fill="#000000" font-family="sans-serif" font-size="11" lengthAdjust="spacing" textLength="28" x="13" y="284.2705">E-mail</text><line style="stroke:#A80036;stroke-width:1.5;" x1="8" x2="191" y1="290.6875" y2="290.6875"/><!--MD5=[28d9d7ef96b34fdc6ab3814c5cef79ce]
class ClinicalAnalysisLab--><rect codeLine="16" fill="#FEFECE" filter="url(#fx8lhpfapqerd)" height="131.0156" id="ClinicalAnalysisLab" style="stroke:#A80036;stroke-width:1.5;" width="140" x="192.5" y="367"/><ellipse cx="207.5" cy="383" fill="#ADD1B2" rx="11" ry="11" style="stroke:#A80036;stroke-width:1.0;"/><path d="M209.5,379.5 Q209.7031,379 209.9375,378.75 Q210.1719,378.5 210.4375,378.5 Q210.9063,378.5 211.2031,378.7813 Q211.5,379.0625 211.5,379.7188 L211.5,381.2813 Q211.5,381.9375 211.2188,382.2188 Q210.9375,382.5 210.5,382.5 Q210.1094,382.5 209.8594,382.3281 Q209.6094,382.1563 209.5,381.7031 Q209.4531,381.3906 209.2813,381.2188 Q208.9688,380.8906 208.4063,380.7031 Q207.8438,380.5 207.2813,380.5 Q206.5781,380.5 205.9844,380.7813 Q205.4063,381.0625 204.9531,381.6875 Q204.5,382.3125 204.5,383.1719 L204.5,384.0938 Q204.5,385.125 205.3438,385.8125 Q206.1875,386.5 207.6875,386.5 Q208.5781,386.5 209.2031,386.2969 Q209.5625,386.1875 209.9688,385.8281 Q210.2344,385.625 210.375,385.5625 Q210.5156,385.5 210.6875,385.5 Q211.0156,385.5 211.25,385.7656 Q211.5,386.0156 211.5,386.375 Q211.5,386.7188 211.1563,387.125 Q210.6563,387.7188 209.8594,388.0469 Q208.8125,388.5 207.5313,388.5 Q206.0313,388.5 204.8281,387.9063 Q203.8594,387.4375 203.1719,386.4219 Q202.5,385.4063 202.5,384.2031 L202.5,383.1094 Q202.5,381.8594 203.0938,380.7656 Q203.7031,379.6719 204.75,379.0938 Q205.8125,378.5 207,378.5 Q207.7188,378.5 208.3438,378.75 Q208.9688,379 209.5,379.5 Z " fill="#000000"/><text fill="#000000" font-family="sans-serif" font-size="12" lengthAdjust="spacing" textLength="108" x="221.5" y="387.9102">ClinicalAnalysisLab</text><line style="stroke:#A80036;stroke-width:1.5;" x1="193.5" x2="331.5" y1="399" y2="399"/><text fill="#000000" font-family="sans-serif" font-size="11" lengthAdjust="spacing" textLength="27" x="198.5" y="414.4189">Name</text><text fill="#000000" font-family="sans-serif" font-size="11" lengthAdjust="spacing" textLength="42" x="198.5" y="428.2549">Address</text><text fill="#000000" font-family="sans-serif" font-size="11" lengthAdjust="spacing" textLength="9" x="198.5" y="442.0908">ID</text><text fill="#000000" font-family="sans-serif" font-size="11" lengthAdjust="spacing" textLength="14" x="198.5" y="455.9268">Tin</text><text fill="#000000" font-family="sans-serif" font-size="11" lengthAdjust="spacing" textLength="70" x="198.5" y="469.7627">Phone Number</text><text fill="#000000" font-family="sans-serif" font-size="11" lengthAdjust="spacing" textLength="54" x="198.5" y="483.5986">Test Types</text><line style="stroke:#A80036;stroke-width:1.5;" x1="193.5" x2="331.5" y1="490.0156" y2="490.0156"/><!--MD5=[df38be88ccee13e832d6fafd6288a4ca]
class Test--><rect codeLine="25" fill="#FEFECE" filter="url(#fx8lhpfapqerd)" height="172.5234" id="Test" style="stroke:#A80036;stroke-width:1.5;" width="71" x="426" y="133"/><ellipse cx="447.75" cy="149" fill="#ADD1B2" rx="11" ry="11" style="stroke:#A80036;stroke-width:1.0;"/><path d="M449.75,145.5 Q449.9531,145 450.1875,144.75 Q450.4219,144.5 450.6875,144.5 Q451.1563,144.5 451.4531,144.7813 Q451.75,145.0625 451.75,145.7188 L451.75,147.2813 Q451.75,147.9375 451.4688,148.2188 Q451.1875,148.5 450.75,148.5 Q450.3594,148.5 450.1094,148.3281 Q449.8594,148.1563 449.75,147.7031 Q449.7031,147.3906 449.5313,147.2188 Q449.2188,146.8906 448.6563,146.7031 Q448.0938,146.5 447.5313,146.5 Q446.8281,146.5 446.2344,146.7813 Q445.6563,147.0625 445.2031,147.6875 Q444.75,148.3125 444.75,149.1719 L444.75,150.0938 Q444.75,151.125 445.5938,151.8125 Q446.4375,152.5 447.9375,152.5 Q448.8281,152.5 449.4531,152.2969 Q449.8125,152.1875 450.2188,151.8281 Q450.4844,151.625 450.625,151.5625 Q450.7656,151.5 450.9375,151.5 Q451.2656,151.5 451.5,151.7656 Q451.75,152.0156 451.75,152.375 Q451.75,152.7188 451.4063,153.125 Q450.9063,153.7188 450.1094,154.0469 Q449.0625,154.5 447.7813,154.5 Q446.2813,154.5 445.0781,153.9063 Q444.1094,153.4375 443.4219,152.4219 Q442.75,151.4063 442.75,150.2031 L442.75,149.1094 Q442.75,147.8594 443.3438,146.7656 Q443.9531,145.6719 445,145.0938 Q446.0625,144.5 447.25,144.5 Q447.9688,144.5 448.5938,144.75 Q449.2188,145 449.75,145.5 Z " fill="#000000"/><text fill="#000000" font-family="sans-serif" font-size="12" lengthAdjust="spacing" textLength="24" x="463.25" y="153.9102">Test</text><line style="stroke:#A80036;stroke-width:1.5;" x1="427" x2="496" y1="165" y2="165"/><text fill="#000000" font-family="sans-serif" font-size="11" lengthAdjust="spacing" textLength="48" x="432" y="180.4189">Test code</text><text fill="#000000" font-family="sans-serif" font-size="11" lengthAdjust="spacing" textLength="59" x="432" y="194.2549">Nhs Number</text><text fill="#000000" font-family="sans-serif" font-size="11" lengthAdjust="spacing" textLength="43" x="432" y="208.0908">Client Tin</text><text fill="#000000" font-family="sans-serif" font-size="11" lengthAdjust="spacing" textLength="48" x="432" y="221.9268">Test Type</text><text fill="#000000" font-family="sans-serif" font-size="11" lengthAdjust="spacing" textLength="52" x="432" y="235.7627">Categories</text><text fill="#000000" font-family="sans-serif" font-size="11" lengthAdjust="spacing" textLength="55" x="432" y="249.5986">Parameters</text><text fill="#000000" font-family="sans-serif" font-size="11" lengthAdjust="spacing" textLength="25" x="432" y="263.4346">State</text><text fill="#000000" font-family="sans-serif" font-size="11" lengthAdjust="spacing" textLength="22" x="432" y="277.2705">Date</text><text fill="#000000" font-family="sans-serif" font-size="11" lengthAdjust="spacing" textLength="30" x="432" y="291.1064">Result</text><line style="stroke:#A80036;stroke-width:1.5;" x1="427" x2="496" y1="297.5234" y2="297.5234"/><!--MD5=[aeb3272166074d8737a70b61b1e71682]
class TestType--><rect codeLine="36" fill="#FEFECE" filter="url(#fx8lhpfapqerd)" height="103.3438" id="TestType" style="stroke:#A80036;stroke-width:1.5;" width="116" x="330.5" y="559"/><ellipse cx="360.8" cy="575" fill="#ADD1B2" rx="11" ry="11" style="stroke:#A80036;stroke-width:1.0;"/><path d="M362.8,571.5 Q363.0031,571 363.2375,570.75 Q363.4719,570.5 363.7375,570.5 Q364.2063,570.5 364.5031,570.7813 Q364.8,571.0625 364.8,571.7188 L364.8,573.2813 Q364.8,573.9375 364.5188,574.2188 Q364.2375,574.5 363.8,574.5 Q363.4094,574.5 363.1594,574.3281 Q362.9094,574.1563 362.8,573.7031 Q362.7531,573.3906 362.5813,573.2188 Q362.2688,572.8906 361.7063,572.7031 Q361.1438,572.5 360.5813,572.5 Q359.8781,572.5 359.2844,572.7813 Q358.7063,573.0625 358.2531,573.6875 Q357.8,574.3125 357.8,575.1719 L357.8,576.0938 Q357.8,577.125 358.6438,577.8125 Q359.4875,578.5 360.9875,578.5 Q361.8781,578.5 362.5031,578.2969 Q362.8625,578.1875 363.2688,577.8281 Q363.5344,577.625 363.675,577.5625 Q363.8156,577.5 363.9875,577.5 Q364.3156,577.5 364.55,577.7656 Q364.8,578.0156 364.8,578.375 Q364.8,578.7188 364.4563,579.125 Q363.9563,579.7188 363.1594,580.0469 Q362.1125,580.5 360.8313,580.5 Q359.3313,580.5 358.1281,579.9063 Q357.1594,579.4375 356.4719,578.4219 Q355.8,577.4063 355.8,576.2031 L355.8,575.1094 Q355.8,573.8594 356.3938,572.7656 Q357.0031,571.6719 358.05,571.0938 Q359.1125,570.5 360.3,570.5 Q361.0188,570.5 361.6438,570.75 Q362.2688,571 362.8,571.5 Z " fill="#000000"/><text fill="#000000" font-family="sans-serif" font-size="12" lengthAdjust="spacing" textLength="50" x="378.2" y="579.9102">TestType</text><line style="stroke:#A80036;stroke-width:1.5;" x1="331.5" x2="445.5" y1="591" y2="591"/><text fill="#000000" font-family="sans-serif" font-size="11" lengthAdjust="spacing" textLength="27" x="336.5" y="606.4189">testID</text><text fill="#000000" font-family="sans-serif" font-size="11" lengthAdjust="spacing" textLength="53" x="336.5" y="620.2549">description</text><text fill="#000000" font-family="sans-serif" font-size="11" lengthAdjust="spacing" textLength="80" x="336.5" y="634.0908">collectingMethod</text><text fill="#000000" font-family="sans-serif" font-size="11" lengthAdjust="spacing" textLength="104" x="336.5" y="647.9268">Parameter Categories</text><line style="stroke:#A80036;stroke-width:1.5;" x1="331.5" x2="445.5" y1="654.3438" y2="654.3438"/><!--MD5=[1f6362a5c8f21d8d6a0fce68f3a92a4e]
class Parameter--><rect codeLine="42" fill="#FEFECE" filter="url(#fx8lhpfapqerd)" height="103.3438" id="Parameter" style="stroke:#A80036;stroke-width:1.5;" width="105" x="482" y="559"/><ellipse cx="503.75" cy="575" fill="#ADD1B2" rx="11" ry="11" style="stroke:#A80036;stroke-width:1.0;"/><path d="M505.75,571.5 Q505.9531,571 506.1875,570.75 Q506.4219,570.5 506.6875,570.5 Q507.1563,570.5 507.4531,570.7813 Q507.75,571.0625 507.75,571.7188 L507.75,573.2813 Q507.75,573.9375 507.4688,574.2188 Q507.1875,574.5 506.75,574.5 Q506.3594,574.5 506.1094,574.3281 Q505.8594,574.1563 505.75,573.7031 Q505.7031,573.3906 505.5313,573.2188 Q505.2188,572.8906 504.6563,572.7031 Q504.0938,572.5 503.5313,572.5 Q502.8281,572.5 502.2344,572.7813 Q501.6563,573.0625 501.2031,573.6875 Q500.75,574.3125 500.75,575.1719 L500.75,576.0938 Q500.75,577.125 501.5938,577.8125 Q502.4375,578.5 503.9375,578.5 Q504.8281,578.5 505.4531,578.2969 Q505.8125,578.1875 506.2188,577.8281 Q506.4844,577.625 506.625,577.5625 Q506.7656,577.5 506.9375,577.5 Q507.2656,577.5 507.5,577.7656 Q507.75,578.0156 507.75,578.375 Q507.75,578.7188 507.4063,579.125 Q506.9063,579.7188 506.1094,580.0469 Q505.0625,580.5 503.7813,580.5 Q502.2813,580.5 501.0781,579.9063 Q500.1094,579.4375 499.4219,578.4219 Q498.75,577.4063 498.75,576.2031 L498.75,575.1094 Q498.75,573.8594 499.3438,572.7656 Q499.9531,571.6719 501,571.0938 Q502.0625,570.5 503.25,570.5 Q503.9688,570.5 504.5938,570.75 Q505.2188,571 505.75,571.5 Z " fill="#000000"/><text fill="#000000" font-family="sans-serif" font-size="12" lengthAdjust="spacing" textLength="58" x="519.25" y="579.9102">Parameter</text><line style="stroke:#A80036;stroke-width:1.5;" x1="483" x2="586" y1="591" y2="591"/><text fill="#000000" font-family="sans-serif" font-size="11" lengthAdjust="spacing" textLength="26" x="488" y="606.4189">name</text><text fill="#000000" font-family="sans-serif" font-size="11" lengthAdjust="spacing" textLength="24" x="488" y="620.2549">code</text><text fill="#000000" font-family="sans-serif" font-size="11" lengthAdjust="spacing" textLength="53" x="488" y="634.0908">description</text><text fill="#000000" font-family="sans-serif" font-size="11" lengthAdjust="spacing" textLength="93" x="488" y="647.9268">ParameterCategory</text><line style="stroke:#A80036;stroke-width:1.5;" x1="483" x2="586" y1="654.3438" y2="654.3438"/><!--MD5=[36afb6bbd95a8ac778c4537c55a683d5]
class ParameterCategory--><rect codeLine="49" fill="#FEFECE" filter="url(#fx8lhpfapqerd)" height="75.6719" id="ParameterCategory" style="stroke:#A80036;stroke-width:1.5;" width="139" x="527" y="802"/><ellipse cx="542" cy="818" fill="#ADD1B2" rx="11" ry="11" style="stroke:#A80036;stroke-width:1.0;"/><path d="M544,814.5 Q544.2031,814 544.4375,813.75 Q544.6719,813.5 544.9375,813.5 Q545.4063,813.5 545.7031,813.7813 Q546,814.0625 546,814.7188 L546,816.2813 Q546,816.9375 545.7188,817.2188 Q545.4375,817.5 545,817.5 Q544.6094,817.5 544.3594,817.3281 Q544.1094,817.1563 544,816.7031 Q543.9531,816.3906 543.7813,816.2188 Q543.4688,815.8906 542.9063,815.7031 Q542.3438,815.5 541.7813,815.5 Q541.0781,815.5 540.4844,815.7813 Q539.9063,816.0625 539.4531,816.6875 Q539,817.3125 539,818.1719 L539,819.0938 Q539,820.125 539.8438,820.8125 Q540.6875,821.5 542.1875,821.5 Q543.0781,821.5 543.7031,821.2969 Q544.0625,821.1875 544.4688,820.8281 Q544.7344,820.625 544.875,820.5625 Q545.0156,820.5 545.1875,820.5 Q545.5156,820.5 545.75,820.7656 Q546,821.0156 546,821.375 Q546,821.7188 545.6563,822.125 Q545.1563,822.7188 544.3594,823.0469 Q543.3125,823.5 542.0313,823.5 Q540.5313,823.5 539.3281,822.9063 Q538.3594,822.4375 537.6719,821.4219 Q537,820.4063 537,819.2031 L537,818.1094 Q537,816.8594 537.5938,815.7656 Q538.2031,814.6719 539.25,814.0938 Q540.3125,813.5 541.5,813.5 Q542.2188,813.5 542.8438,813.75 Q543.4688,814 544,814.5 Z " fill="#000000"/><text fill="#000000" font-family="sans-serif" font-size="12" lengthAdjust="spacing" textLength="107" x="556" y="822.9102">ParameterCategory</text><line style="stroke:#A80036;stroke-width:1.5;" x1="528" x2="665" y1="834" y2="834"/><text fill="#000000" font-family="sans-serif" font-size="11" lengthAdjust="spacing" textLength="24" x="533" y="849.4189">code</text><text fill="#000000" font-family="sans-serif" font-size="11" lengthAdjust="spacing" textLength="26" x="533" y="863.2549">name</text><line style="stroke:#A80036;stroke-width:1.5;" x1="528" x2="665" y1="869.6719" y2="869.6719"/><!--MD5=[7e4bc624457760b649895ff2ead938fa]
link Company to Test--><path codeLine="57" d="M287.3,55.24 C322.2,87.95 386.01,147.75 425.95,185.19 " fill="none" id="Company-Test" style="stroke:#A80036;stroke-width:1.0;"/><text fill="#000000" font-family="sans-serif" font-size="13" lengthAdjust="spacing" textLength="21" x="334.5" y="99.4951">has</text><text fill="#000000" font-family="sans-serif" font-size="13" lengthAdjust="spacing" textLength="7" x="285.4919" y="76.6365">1</text><text fill="#000000" font-family="sans-serif" font-size="13" lengthAdjust="spacing" textLength="5" x="413.1022" y="174.0441">*</text><!--MD5=[6eee883fdf517d3604e8bd0f2058e9aa]
link Company to Client--><path codeLine="58" d="M240.83,55.04 C232.24,64.28 222.32,75.07 213.5,85 C197.91,102.54 181.39,121.61 165.9,139.7 " fill="none" id="Company-Client" style="stroke:#A80036;stroke-width:1.0;"/><text fill="#000000" font-family="sans-serif" font-size="13" lengthAdjust="spacing" textLength="21" x="214.5" y="99.4951">has</text><text fill="#000000" font-family="sans-serif" font-size="13" lengthAdjust="spacing" textLength="7" x="227.6948" y="76.3877">1</text><text fill="#000000" font-family="sans-serif" font-size="13" lengthAdjust="spacing" textLength="5" x="166.7908" y="129.1317">*</text><!--MD5=[14425c86e1e95c36a97a680926c42ff4]
link Company to ClinicalAnalysisLab--><path codeLine="59" d="M262.5,55.21 C262.5,114.99 262.5,275.94 262.5,366.79 " fill="none" id="Company-ClinicalAnalysisLab" style="stroke:#A80036;stroke-width:1.0;"/><text fill="#000000" font-family="sans-serif" font-size="13" lengthAdjust="spacing" textLength="21" x="263.5" y="224.9951">has</text><text fill="#000000" font-family="sans-serif" font-size="13" lengthAdjust="spacing" textLength="7" x="254.6469" y="76.5992">1</text><text fill="#000000" font-family="sans-serif" font-size="13" lengthAdjust="spacing" textLength="5" x="257.2266" y="356.2415">*</text><!--MD5=[e981d4f96c4342412d1e68160b30cf70]
link Test to TestType--><path codeLine="60" d="M445.39,306.35 C430.86,383.76 409.99,494.99 397.98,558.98 " fill="none" id="Test-TestType" style="stroke:#A80036;stroke-width:1.0;"/><text fill="#000000" font-family="sans-serif" font-size="13" lengthAdjust="spacing" textLength="21" x="434.5" y="437.9951">has</text><text fill="#000000" font-family="sans-serif" font-size="13" lengthAdjust="spacing" textLength="7" x="436.8886" y="327.1388">1</text><text fill="#000000" font-family="sans-serif" font-size="13" lengthAdjust="spacing" textLength="5" x="393.9616" y="548.1057">*</text><!--MD5=[c23963f6e403fc3ebec8dae22c30ade6]
link Test to Parameter--><path codeLine="61" d="M477.61,306.35 C492.14,383.76 513.01,494.99 525.02,558.98 " fill="none" id="Test-Parameter" style="stroke:#A80036;stroke-width:1.0;"/><text fill="#000000" font-family="sans-serif" font-size="13" lengthAdjust="spacing" textLength="67" x="514.5" y="437.9951">has a list of</text><text fill="#000000" font-family="sans-serif" font-size="13" lengthAdjust="spacing" textLength="7" x="471.5755" y="327.1388">1</text><text fill="#000000" font-family="sans-serif" font-size="13" lengthAdjust="spacing" textLength="5" x="518.3353" y="548.1057">*</text><!--MD5=[8742b9b07f4ff1e96b776c10733812b1]
link Test to ParameterCategory--><path codeLine="62" d="M497.45,238.34 C554.03,269.26 657.5,338.5 657.5,431.5 C657.5,431.5 657.5,431.5 657.5,733 C657.5,758.05 644.54,782.53 630.57,801.64 " fill="none" id="Test-ParameterCategory" style="stroke:#A80036;stroke-width:1.0;"/><text fill="#000000" font-family="sans-serif" font-size="13" lengthAdjust="spacing" textLength="67" x="658.5" y="615.9951">has a list of</text><text fill="#000000" font-family="sans-serif" font-size="13" lengthAdjust="spacing" textLength="7" x="504.9702" y="237.9804">1</text><text fill="#000000" font-family="sans-serif" font-size="13" lengthAdjust="spacing" textLength="5" x="630.9961" y="791.2254">*</text><!--MD5=[6df8849671cb880f6936e94aa30db6f9]
link Parameter to ParameterCategory--><path codeLine="63" d="M548.34,662.27 C559.86,704.57 576.02,763.84 586.37,801.83 " fill="none" id="Parameter-ParameterCategory" style="stroke:#A80036;stroke-width:1.0;"/><text fill="#000000" font-family="sans-serif" font-size="13" lengthAdjust="spacing" textLength="21" x="571.5" y="737.4951">has</text><text fill="#000000" font-family="sans-serif" font-size="13" lengthAdjust="spacing" textLength="7" x="542.7294" y="683.7972">1</text><text fill="#000000" font-family="sans-serif" font-size="13" lengthAdjust="spacing" textLength="5" x="579.1203" y="791.1616">*</text><!--MD5=[b2bf8204d211b8840d2107dcc47c8f36]
@startuml

class Company{
}

class Client{
Name
Citizen Card Number
National Healthcare Service Number
Birth date
Sex
Tax Identification Number
Phone
E-mail
}

class ClinicalAnalysisLab{
Name
Address
ID
Tin
Phone Number
Test Types
}

class Test{
Test code
Nhs Number
Client Tin
Test Type
Categories
Parameters
State
Date
Result
}
class TestType{
testID
description
collectingMethod
Parameter Categories
}
class Parameter{
name
code
description
ParameterCategory
}

class ParameterCategory{
code
name
}




Company "1" - - "*" Test : has
Company "1"- -"*" Client : has
Company "1"- - -"*" ClinicalAnalysisLab : has
Test "1"- - -"*" TestType: has
Test "1"- - -"*" Parameter: has a list of
Test "1"- - -"*" ParameterCategory: has a list of
Parameter "1"- - -"*" ParameterCategory: has



@enduml

PlantUML version 1.2021.7(Sun May 23 13:40:07 BST 2021)
(GPL source distribution)
Java Runtime: OpenJDK Runtime Environment
JVM: OpenJDK 64-Bit Server VM
Default Encoding: Cp1252
Language: en
Country: US
--></g></svg>