<?xml version="1.0" encoding="UTF-8" standalone="no"?><svg xmlns="http://www.w3.org/2000/svg" xmlns:xlink="http://www.w3.org/1999/xlink" contentScriptType="application/ecmascript" contentStyleType="text/css" height="1558px" preserveAspectRatio="none" style="width:3222px;height:1558px;background:#FFFFFF;" version="1.1" viewBox="0 0 3222 1558" width="3222px" zoomAndPan="magnify"><defs><filter height="300%" id="fl40d3kjccjzk" width="300%" x="-1" y="-1"><feGaussianBlur result="blurOut" stdDeviation="2.0"/><feColorMatrix in="blurOut" result="blurOut2" type="matrix" values="0 0 0 0 0 0 0 0 0 0 0 0 0 0 0 0 0 0 .4 0"/><feOffset dx="4.0" dy="4.0" in="blurOut2" result="blurOut3"/><feBlend in="SourceGraphic" in2="blurOut3" mode="normal"/></filter></defs><g><rect fill="#FFFFFF" filter="url(#fl40d3kjccjzk)" height="1355.7266" style="stroke:#A80036;stroke-width:1.0;" width="10" x="21" y="99.6094"/><rect fill="#FFFFFF" filter="url(#fl40d3kjccjzk)" height="60.3516" style="stroke:#A80036;stroke-width:1.0;" width="10" x="276" y="121.9609"/><rect fill="#FFFFFF" filter="url(#fl40d3kjccjzk)" height="1242.6719" style="stroke:#A80036;stroke-width:1.0;" width="10" x="276" y="212.6641"/><rect fill="#FFFFFF" filter="url(#fl40d3kjccjzk)" height="1212.3203" style="stroke:#A80036;stroke-width:1.0;" width="10" x="429" y="212.6641"/><rect fill="#FFFFFF" filter="url(#fl40d3kjccjzk)" height="1221.3203" style="stroke:#A80036;stroke-width:1.0;" width="10" x="651" y="243.0156"/><rect fill="#FFFFFF" filter="url(#fl40d3kjccjzk)" height="30" style="stroke:#A80036;stroke-width:1.0;" width="10" x="858" y="303.7188"/><rect fill="#FFFFFF" filter="url(#fl40d3kjccjzk)" height="30" style="stroke:#A80036;stroke-width:1.0;" width="10" x="858" y="484.3828"/><rect fill="#FFFFFF" filter="url(#fl40d3kjccjzk)" height="30" style="stroke:#A80036;stroke-width:1.0;" width="10" x="858" y="712.3984"/><rect fill="#FFFFFF" filter="url(#fl40d3kjccjzk)" height="30" style="stroke:#A80036;stroke-width:1.0;" width="10" x="858" y="833.4531"/><rect fill="#FFFFFF" filter="url(#fl40d3kjccjzk)" height="30" style="stroke:#A80036;stroke-width:1.0;" width="10" x="858" y="954.5078"/><rect fill="#FFFFFF" filter="url(#fl40d3kjccjzk)" height="30" style="stroke:#A80036;stroke-width:1.0;" width="10" x="858" y="1045.2109"/><rect fill="#FFFFFF" filter="url(#fl40d3kjccjzk)" height="30" style="stroke:#A80036;stroke-width:1.0;" width="10" x="858" y="1135.9141"/><rect fill="#FFFFFF" filter="url(#fl40d3kjccjzk)" height="30.3516" style="stroke:#A80036;stroke-width:1.0;" width="10" x="1022.5" y="772.75"/><rect fill="#FFFFFF" filter="url(#fl40d3kjccjzk)" height="180.6641" style="stroke:#A80036;stroke-width:1.0;" width="10" x="1211.5" y="364.0703"/><rect fill="#FFFFFF" filter="url(#fl40d3kjccjzk)" height="168.0156" style="stroke:#A80036;stroke-width:1.0;" width="10" x="1347" y="1196.2656"/><rect fill="#FFFFFF" filter="url(#fl40d3kjccjzk)" height="60.3516" style="stroke:#A80036;stroke-width:1.0;" width="10" x="1530.5" y="954.5078"/><rect fill="#FFFFFF" filter="url(#fl40d3kjccjzk)" height="60.3516" style="stroke:#A80036;stroke-width:1.0;" width="10" x="1735" y="1045.2109"/><rect fill="#FFFFFF" filter="url(#fl40d3kjccjzk)" height="30.3516" style="stroke:#A80036;stroke-width:1.0;" width="10" x="1906.5" y="772.75"/><rect fill="#FFFFFF" filter="url(#fl40d3kjccjzk)" height="30.3516" style="stroke:#A80036;stroke-width:1.0;" width="10" x="2075" y="893.8047"/><rect fill="#FFFFFF" filter="url(#fl40d3kjccjzk)" height="60.3516" style="stroke:#A80036;stroke-width:1.0;" width="10" x="2213" y="924.1563"/><rect fill="#FFFFFF" filter="url(#fl40d3kjccjzk)" height="30.3516" style="stroke:#A80036;stroke-width:1.0;" width="10" x="2370" y="1364.2813"/><rect fill="#FFFFFF" filter="url(#fl40d3kjccjzk)" height="30.3516" style="stroke:#A80036;stroke-width:1.0;" width="10" x="2733.5" y="544.7344"/><rect fill="#FFFFFF" filter="url(#fl40d3kjccjzk)" height="30" style="stroke:#A80036;stroke-width:1.0;" width="10" x="2821" y="652.0469"/><rect fill="#FFFFFF" filter="url(#fl40d3kjccjzk)" height="30.3516" style="stroke:#A80036;stroke-width:1.0;" width="10" x="2901.5" y="575.0859"/><line style="stroke:#A80036;stroke-width:1.0;stroke-dasharray:5.0,5.0;" x1="26" x2="26" y1="89.6094" y2="1473.3359"/><line style="stroke:#A80036;stroke-width:1.0;stroke-dasharray:5.0,5.0;" x1="280.5" x2="280.5" y1="89.6094" y2="1473.3359"/><line style="stroke:#A80036;stroke-width:1.0;stroke-dasharray:5.0,5.0;" x1="433.5" x2="433.5" y1="89.6094" y2="1473.3359"/><line style="stroke:#A80036;stroke-width:1.0;stroke-dasharray:5.0,5.0;" x1="656" x2="656" y1="89.6094" y2="1473.3359"/><line style="stroke:#A80036;stroke-width:1.0;stroke-dasharray:5.0,5.0;" x1="863" x2="863" y1="89.6094" y2="1473.3359"/><line style="stroke:#A80036;stroke-width:1.0;stroke-dasharray:5.0,5.0;" x1="1027" x2="1027" y1="89.6094" y2="1473.3359"/><line style="stroke:#A80036;stroke-width:1.0;stroke-dasharray:5.0,5.0;" x1="1216" x2="1216" y1="89.6094" y2="1473.3359"/><line style="stroke:#A80036;stroke-width:1.0;stroke-dasharray:5.0,5.0;" x1="1352" x2="1352" y1="89.6094" y2="1473.3359"/><line style="stroke:#A80036;stroke-width:1.0;stroke-dasharray:5.0,5.0;" x1="1535" x2="1535" y1="89.6094" y2="1473.3359"/><line style="stroke:#A80036;stroke-width:1.0;stroke-dasharray:5.0,5.0;" x1="1740" x2="1740" y1="89.6094" y2="1473.3359"/><line style="stroke:#A80036;stroke-width:1.0;stroke-dasharray:5.0,5.0;" x1="1911" x2="1911" y1="89.6094" y2="1473.3359"/><line style="stroke:#A80036;stroke-width:1.0;stroke-dasharray:5.0,5.0;" x1="2080" x2="2080" y1="89.6094" y2="1473.3359"/><line style="stroke:#A80036;stroke-width:1.0;stroke-dasharray:5.0,5.0;" x1="2218" x2="2218" y1="89.6094" y2="1473.3359"/><line style="stroke:#A80036;stroke-width:1.0;stroke-dasharray:5.0,5.0;" x1="2305" x2="2305" y1="405.375" y2="1473.3359"/><line style="stroke:#A80036;stroke-width:1.0;stroke-dasharray:5.0,5.0;" x1="2375" x2="2375" y1="1237.5703" y2="1473.3359"/><line style="stroke:#A80036;stroke-width:1.0;stroke-dasharray:5.0,5.0;" x1="2460" x2="2460" y1="89.6094" y2="1473.3359"/><line style="stroke:#A80036;stroke-width:1.0;stroke-dasharray:5.0,5.0;" x1="2598" x2="2598" y1="89.6094" y2="1473.3359"/><line style="stroke:#A80036;stroke-width:1.0;stroke-dasharray:5.0,5.0;" x1="2738" x2="2738" y1="89.6094" y2="1473.3359"/><line style="stroke:#A80036;stroke-width:1.0;stroke-dasharray:5.0,5.0;" x1="2826" x2="2826" y1="89.6094" y2="1473.3359"/><line style="stroke:#A80036;stroke-width:1.0;stroke-dasharray:5.0,5.0;" x1="2906" x2="2906" y1="89.6094" y2="1473.3359"/><line style="stroke:#A80036;stroke-width:1.0;stroke-dasharray:5.0,5.0;" x1="3182.5" x2="3182.5" y1="616.3906" y2="1473.3359"/><text fill="#000000" font-family="sans-serif" font-size="14" lengthAdjust="spacing" textLength="36" x="5" y="86.5332">Client</text><ellipse cx="26" cy="15" fill="#FEFECE" filter="url(#fl40d3kjccjzk)" rx="8" ry="8" style="stroke:#A80036;stroke-width:2.0;"/><path d="M26,23 L26,50 M13,31 L39,31 M26,50 L13,65 M26,50 L39,65 " fill="none" filter="url(#fl40d3kjccjzk)" style="stroke:#A80036;stroke-width:2.0;"/><text fill="#000000" font-family="sans-serif" font-size="14" lengthAdjust="spacing" textLength="36" x="5" y="1486.8691">Client</text><ellipse cx="26" cy="1499.9453" fill="#FEFECE" filter="url(#fl40d3kjccjzk)" rx="8" ry="8" style="stroke:#A80036;stroke-width:2.0;"/><path d="M26,1507.9453 L26,1534.9453 M13,1515.9453 L39,1515.9453 M26,1534.9453 L13,1549.9453 M26,1534.9453 L39,1549.9453 " fill="none" filter="url(#fl40d3kjccjzk)" style="stroke:#A80036;stroke-width:2.0;"/><rect fill="#FEFECE" filter="url(#fl40d3kjccjzk)" height="31.6094" style="stroke:#A80036;stroke-width:1.5;" width="93" x="232.5" y="53"/><text fill="#000000" font-family="sans-serif" font-size="14" lengthAdjust="spacing" textLength="79" x="239.5" y="74.5332">ImportTestUI</text><rect fill="#FEFECE" filter="url(#fl40d3kjccjzk)" height="31.6094" style="stroke:#A80036;stroke-width:1.5;" width="93" x="232.5" y="1472.3359"/><text fill="#000000" font-family="sans-serif" font-size="14" lengthAdjust="spacing" textLength="79" x="239.5" y="1493.8691">ImportTestUI</text><rect fill="#FEFECE" filter="url(#fl40d3kjccjzk)" height="31.6094" style="stroke:#A80036;stroke-width:1.5;" width="147" x="358.5" y="53"/><text fill="#000000" font-family="sans-serif" font-size="14" lengthAdjust="spacing" textLength="133" x="365.5" y="74.5332">:ImportTestController</text><rect fill="#FEFECE" filter="url(#fl40d3kjccjzk)" height="31.6094" style="stroke:#A80036;stroke-width:1.5;" width="147" x="358.5" y="1472.3359"/><text fill="#000000" font-family="sans-serif" font-size="14" lengthAdjust="spacing" textLength="133" x="365.5" y="1493.8691">:ImportTestController</text><rect fill="#FEFECE" filter="url(#fl40d3kjccjzk)" height="31.6094" style="stroke:#A80036;stroke-width:1.5;" width="92" x="608" y="53"/><text fill="#000000" font-family="sans-serif" font-size="14" lengthAdjust="spacing" textLength="78" x="615" y="74.5332">:ImportTests</text><rect fill="#FEFECE" filter="url(#fl40d3kjccjzk)" height="31.6094" style="stroke:#A80036;stroke-width:1.5;" width="92" x="608" y="1472.3359"/><text fill="#000000" font-family="sans-serif" font-size="14" lengthAdjust="spacing" textLength="78" x="615" y="1493.8691">:ImportTests</text><rect fill="#FEFECE" filter="url(#fl40d3kjccjzk)" height="31.6094" style="stroke:#A80036;stroke-width:1.5;" width="78" x="822" y="53"/><text fill="#000000" font-family="sans-serif" font-size="14" lengthAdjust="spacing" textLength="64" x="829" y="74.5332">:Company</text><rect fill="#FEFECE" filter="url(#fl40d3kjccjzk)" height="31.6094" style="stroke:#A80036;stroke-width:1.5;" width="78" x="822" y="1472.3359"/><text fill="#000000" font-family="sans-serif" font-size="14" lengthAdjust="spacing" textLength="64" x="829" y="1493.8691">:Company</text><rect fill="#FEFECE" filter="url(#fl40d3kjccjzk)" height="31.6094" style="stroke:#A80036;stroke-width:1.5;" width="223" x="914" y="53"/><text fill="#000000" font-family="sans-serif" font-size="14" lengthAdjust="spacing" textLength="209" x="921" y="74.5332">clastore:ClinicalAnalysisLabStore</text><rect fill="#FEFECE" filter="url(#fl40d3kjccjzk)" height="31.6094" style="stroke:#A80036;stroke-width:1.5;" width="223" x="914" y="1472.3359"/><text fill="#000000" font-family="sans-serif" font-size="14" lengthAdjust="spacing" textLength="209" x="921" y="1493.8691">clastore:ClinicalAnalysisLabStore</text><rect fill="#FEFECE" filter="url(#fl40d3kjccjzk)" height="31.6094" style="stroke:#A80036;stroke-width:1.5;" width="127" x="1151" y="53"/><text fill="#000000" font-family="sans-serif" font-size="14" lengthAdjust="spacing" textLength="113" x="1158" y="74.5332">cstore:ClientStore</text><rect fill="#FEFECE" filter="url(#fl40d3kjccjzk)" height="31.6094" style="stroke:#A80036;stroke-width:1.5;" width="127" x="1151" y="1472.3359"/><text fill="#000000" font-family="sans-serif" font-size="14" lengthAdjust="spacing" textLength="113" x="1158" y="1493.8691">cstore:ClientStore</text><rect fill="#FEFECE" filter="url(#fl40d3kjccjzk)" height="31.6094" style="stroke:#A80036;stroke-width:1.5;" width="116" x="1292" y="53"/><text fill="#000000" font-family="sans-serif" font-size="14" lengthAdjust="spacing" textLength="102" x="1299" y="74.5332">tstore:TestStore</text><rect fill="#FEFECE" filter="url(#fl40d3kjccjzk)" height="31.6094" style="stroke:#A80036;stroke-width:1.5;" width="116" x="1292" y="1472.3359"/><text fill="#000000" font-family="sans-serif" font-size="14" lengthAdjust="spacing" textLength="102" x="1299" y="1493.8691">tstore:TestStore</text><rect fill="#FEFECE" filter="url(#fl40d3kjccjzk)" height="31.6094" style="stroke:#A80036;stroke-width:1.5;" width="223" x="1422" y="53"/><text fill="#000000" font-family="sans-serif" font-size="14" lengthAdjust="spacing" textLength="209" x="1429" y="74.5332">pcstore:ParameterCategoryStore</text><rect fill="#FEFECE" filter="url(#fl40d3kjccjzk)" height="31.6094" style="stroke:#A80036;stroke-width:1.5;" width="223" x="1422" y="1472.3359"/><text fill="#000000" font-family="sans-serif" font-size="14" lengthAdjust="spacing" textLength="209" x="1429" y="1493.8691">pcstore:ParameterCategoryStore</text><rect fill="#FEFECE" filter="url(#fl40d3kjccjzk)" height="31.6094" style="stroke:#A80036;stroke-width:1.5;" width="158" x="1659" y="53"/><text fill="#000000" font-family="sans-serif" font-size="14" lengthAdjust="spacing" textLength="144" x="1666" y="74.5332">pstore:ParameterStore</text><rect fill="#FEFECE" filter="url(#fl40d3kjccjzk)" height="31.6094" style="stroke:#A80036;stroke-width:1.5;" width="158" x="1659" y="1472.3359"/><text fill="#000000" font-family="sans-serif" font-size="14" lengthAdjust="spacing" textLength="144" x="1666" y="1493.8691">pstore:ParameterStore</text><rect fill="#FEFECE" filter="url(#fl40d3kjccjzk)" height="31.6094" style="stroke:#A80036;stroke-width:1.5;" width="157" x="1831" y="53"/><text fill="#000000" font-family="sans-serif" font-size="14" lengthAdjust="spacing" textLength="143" x="1838" y="74.5332">cla:ClinicalAnalysisLab</text><rect fill="#FEFECE" filter="url(#fl40d3kjccjzk)" height="31.6094" style="stroke:#A80036;stroke-width:1.5;" width="157" x="1831" y="1472.3359"/><text fill="#000000" font-family="sans-serif" font-size="14" lengthAdjust="spacing" textLength="143" x="1838" y="1493.8691">cla:ClinicalAnalysisLab</text><rect fill="#FEFECE" filter="url(#fl40d3kjccjzk)" height="31.6094" style="stroke:#A80036;stroke-width:1.5;" width="152" x="2002" y="53"/><text fill="#000000" font-family="sans-serif" font-size="14" lengthAdjust="spacing" textLength="138" x="2009" y="74.5332">ttstore:TestTypeStore</text><rect fill="#FEFECE" filter="url(#fl40d3kjccjzk)" height="31.6094" style="stroke:#A80036;stroke-width:1.5;" width="152" x="2002" y="1472.3359"/><text fill="#000000" font-family="sans-serif" font-size="14" lengthAdjust="spacing" textLength="138" x="2009" y="1493.8691">ttstore:TestTypeStore</text><rect fill="#FEFECE" filter="url(#fl40d3kjccjzk)" height="31.6094" style="stroke:#A80036;stroke-width:1.5;" width="86" x="2173" y="53"/><text fill="#000000" font-family="sans-serif" font-size="14" lengthAdjust="spacing" textLength="72" x="2180" y="74.5332">tt:TestType</text><rect fill="#FEFECE" filter="url(#fl40d3kjccjzk)" height="31.6094" style="stroke:#A80036;stroke-width:1.5;" width="86" x="2173" y="1472.3359"/><text fill="#000000" font-family="sans-serif" font-size="14" lengthAdjust="spacing" textLength="72" x="2180" y="1493.8691">tt:TestType</text><rect fill="#FEFECE" filter="url(#fl40d3kjccjzk)" height="31.6094" style="stroke:#A80036;stroke-width:1.5;" width="61" x="2273" y="1472.3359"/><text fill="#000000" font-family="sans-serif" font-size="14" lengthAdjust="spacing" textLength="47" x="2280" y="1493.8691">c:Client</text><rect fill="#FEFECE" filter="url(#fl40d3kjccjzk)" height="31.6094" style="stroke:#A80036;stroke-width:1.5;" width="50" x="2348" y="1472.3359"/><text fill="#000000" font-family="sans-serif" font-size="14" lengthAdjust="spacing" textLength="36" x="2355" y="1493.8691">t:Test</text><rect fill="#FEFECE" filter="url(#fl40d3kjccjzk)" height="31.6094" style="stroke:#A80036;stroke-width:1.5;" width="92" x="2412" y="53"/><text fill="#000000" font-family="sans-serif" font-size="14" lengthAdjust="spacing" textLength="78" x="2419" y="74.5332">p:Parameter</text><rect fill="#FEFECE" filter="url(#fl40d3kjccjzk)" height="31.6094" style="stroke:#A80036;stroke-width:1.5;" width="92" x="2412" y="1472.3359"/><text fill="#000000" font-family="sans-serif" font-size="14" lengthAdjust="spacing" textLength="78" x="2419" y="1493.8691">p:Parameter</text><rect fill="#FEFECE" filter="url(#fl40d3kjccjzk)" height="31.6094" style="stroke:#A80036;stroke-width:1.5;" width="157" x="2518" y="53"/><text fill="#000000" font-family="sans-serif" font-size="14" lengthAdjust="spacing" textLength="143" x="2525" y="74.5332">pc:ParameterCategory</text><rect fill="#FEFECE" filter="url(#fl40d3kjccjzk)" height="31.6094" style="stroke:#A80036;stroke-width:1.5;" width="157" x="2518" y="1472.3359"/><text fill="#000000" font-family="sans-serif" font-size="14" lengthAdjust="spacing" textLength="143" x="2525" y="1493.8691">pc:ParameterCategory</text><rect fill="#FEFECE" filter="url(#fl40d3kjccjzk)" height="31.6094" style="stroke:#A80036;stroke-width:1.5;" width="95" x="2689" y="53"/><text fill="#000000" font-family="sans-serif" font-size="14" lengthAdjust="spacing" textLength="81" x="2696" y="74.5332">:AuthFacade</text><rect fill="#FEFECE" filter="url(#fl40d3kjccjzk)" height="31.6094" style="stroke:#A80036;stroke-width:1.5;" width="95" x="2689" y="1472.3359"/><text fill="#000000" font-family="sans-serif" font-size="14" lengthAdjust="spacing" textLength="81" x="2696" y="1493.8691">:AuthFacade</text><rect fill="#FEFECE" filter="url(#fl40d3kjccjzk)" height="31.6094" style="stroke:#A80036;stroke-width:1.5;" width="52" x="2798" y="53"/><text fill="#000000" font-family="sans-serif" font-size="14" lengthAdjust="spacing" textLength="38" x="2805" y="74.5332">:Email</text><rect fill="#FEFECE" filter="url(#fl40d3kjccjzk)" height="31.6094" style="stroke:#A80036;stroke-width:1.5;" width="52" x="2798" y="1472.3359"/><text fill="#000000" font-family="sans-serif" font-size="14" lengthAdjust="spacing" textLength="38" x="2805" y="1493.8691">:Email</text><rect fill="#FEFECE" filter="url(#fl40d3kjccjzk)" height="31.6094" style="stroke:#A80036;stroke-width:1.5;" width="81" x="2864" y="53"/><text fill="#000000" font-family="sans-serif" font-size="14" lengthAdjust="spacing" textLength="67" x="2871" y="74.5332">:UserStore</text><rect fill="#FEFECE" filter="url(#fl40d3kjccjzk)" height="31.6094" style="stroke:#A80036;stroke-width:1.5;" width="81" x="2864" y="1472.3359"/><text fill="#000000" font-family="sans-serif" font-size="14" lengthAdjust="spacing" textLength="67" x="2871" y="1493.8691">:UserStore</text><rect fill="#FEFECE" filter="url(#fl40d3kjccjzk)" height="31.6094" style="stroke:#A80036;stroke-width:1.5;" width="55" x="3153.5" y="1472.3359"/><text fill="#000000" font-family="sans-serif" font-size="14" lengthAdjust="spacing" textLength="41" x="3160.5" y="1493.8691">u:User</text><rect fill="#FFFFFF" filter="url(#fl40d3kjccjzk)" height="1355.7266" style="stroke:#A80036;stroke-width:1.0;" width="10" x="21" y="99.6094"/><rect fill="#FFFFFF" filter="url(#fl40d3kjccjzk)" height="60.3516" style="stroke:#A80036;stroke-width:1.0;" width="10" x="276" y="121.9609"/><rect fill="#FFFFFF" filter="url(#fl40d3kjccjzk)" height="1242.6719" style="stroke:#A80036;stroke-width:1.0;" width="10" x="276" y="212.6641"/><rect fill="#FFFFFF" filter="url(#fl40d3kjccjzk)" height="1212.3203" style="stroke:#A80036;stroke-width:1.0;" width="10" x="429" y="212.6641"/><rect fill="#FFFFFF" filter="url(#fl40d3kjccjzk)" height="1221.3203" style="stroke:#A80036;stroke-width:1.0;" width="10" x="651" y="243.0156"/><rect fill="#FFFFFF" filter="url(#fl40d3kjccjzk)" height="30" style="stroke:#A80036;stroke-width:1.0;" width="10" x="858" y="303.7188"/><rect fill="#FFFFFF" filter="url(#fl40d3kjccjzk)" height="30" style="stroke:#A80036;stroke-width:1.0;" width="10" x="858" y="484.3828"/><rect fill="#FFFFFF" filter="url(#fl40d3kjccjzk)" height="30" style="stroke:#A80036;stroke-width:1.0;" width="10" x="858" y="712.3984"/><rect fill="#FFFFFF" filter="url(#fl40d3kjccjzk)" height="30" style="stroke:#A80036;stroke-width:1.0;" width="10" x="858" y="833.4531"/><rect fill="#FFFFFF" filter="url(#fl40d3kjccjzk)" height="30" style="stroke:#A80036;stroke-width:1.0;" width="10" x="858" y="954.5078"/><rect fill="#FFFFFF" filter="url(#fl40d3kjccjzk)" height="30" style="stroke:#A80036;stroke-width:1.0;" width="10" x="858" y="1045.2109"/><rect fill="#FFFFFF" filter="url(#fl40d3kjccjzk)" height="30" style="stroke:#A80036;stroke-width:1.0;" width="10" x="858" y="1135.9141"/><rect fill="#FFFFFF" filter="url(#fl40d3kjccjzk)" height="30.3516" style="stroke:#A80036;stroke-width:1.0;" width="10" x="1022.5" y="772.75"/><rect fill="#FFFFFF" filter="url(#fl40d3kjccjzk)" height="180.6641" style="stroke:#A80036;stroke-width:1.0;" width="10" x="1211.5" y="364.0703"/><rect fill="#FFFFFF" filter="url(#fl40d3kjccjzk)" height="168.0156" style="stroke:#A80036;stroke-width:1.0;" width="10" x="1347" y="1196.2656"/><rect fill="#FFFFFF" filter="url(#fl40d3kjccjzk)" height="60.3516" style="stroke:#A80036;stroke-width:1.0;" width="10" x="1530.5" y="954.5078"/><rect fill="#FFFFFF" filter="url(#fl40d3kjccjzk)" height="60.3516" style="stroke:#A80036;stroke-width:1.0;" width="10" x="1735" y="1045.2109"/><rect fill="#FFFFFF" filter="url(#fl40d3kjccjzk)" height="30.3516" style="stroke:#A80036;stroke-width:1.0;" width="10" x="1906.5" y="772.75"/><rect fill="#FFFFFF" filter="url(#fl40d3kjccjzk)" height="30.3516" style="stroke:#A80036;stroke-width:1.0;" width="10" x="2075" y="893.8047"/><rect fill="#FFFFFF" filter="url(#fl40d3kjccjzk)" height="60.3516" style="stroke:#A80036;stroke-width:1.0;" width="10" x="2213" y="924.1563"/><rect fill="#FFFFFF" filter="url(#fl40d3kjccjzk)" height="30.3516" style="stroke:#A80036;stroke-width:1.0;" width="10" x="2370" y="1364.2813"/><rect fill="#FFFFFF" filter="url(#fl40d3kjccjzk)" height="30.3516" style="stroke:#A80036;stroke-width:1.0;" width="10" x="2733.5" y="544.7344"/><rect fill="#FFFFFF" filter="url(#fl40d3kjccjzk)" height="30" style="stroke:#A80036;stroke-width:1.0;" width="10" x="2821" y="652.0469"/><rect fill="#FFFFFF" filter="url(#fl40d3kjccjzk)" height="30.3516" style="stroke:#A80036;stroke-width:1.0;" width="10" x="2901.5" y="575.0859"/><polygon fill="#A80036" points="264,117.9609,274,121.9609,264,125.9609,268,121.9609" style="stroke:#A80036;stroke-width:1.0;"/><line style="stroke:#A80036;stroke-width:1.0;" x1="31" x2="270" y1="121.9609" y2="121.9609"/><text fill="#000000" font-family="sans-serif" font-size="13" font-weight="bold" lengthAdjust="spacing" textLength="7" x="38" y="117.1045">1</text><text fill="#000000" font-family="sans-serif" font-size="13" lengthAdjust="spacing" textLength="166" x="49" y="117.1045">wants to import clinical tests</text><polygon fill="#A80036" points="42,178.3125,32,182.3125,42,186.3125,38,182.3125" style="stroke:#A80036;stroke-width:1.0;"/><line style="stroke:#A80036;stroke-width:1.0;stroke-dasharray:2.0,2.0;" x1="36" x2="280" y1="182.3125" y2="182.3125"/><text fill="#000000" font-family="sans-serif" font-size="13" font-weight="bold" lengthAdjust="spacing" textLength="7" x="48" y="177.4561">2</text><text fill="#000000" font-family="sans-serif" font-size="13" lengthAdjust="spacing" textLength="114" x="59" y="177.4561">show the list of files</text><polygon fill="#A80036" points="264,208.6641,274,212.6641,264,216.6641,268,212.6641" style="stroke:#A80036;stroke-width:1.0;"/><line style="stroke:#A80036;stroke-width:1.0;" x1="31" x2="270" y1="212.6641" y2="212.6641"/><text fill="#000000" font-family="sans-serif" font-size="13" font-weight="bold" lengthAdjust="spacing" textLength="7" x="38" y="207.8076">3</text><text fill="#000000" font-family="sans-serif" font-size="13" lengthAdjust="spacing" textLength="84" x="49" y="207.8076">choose the file</text><polygon fill="#A80036" points="417,239.0156,427,243.0156,417,247.0156,421,243.0156" style="stroke:#A80036;stroke-width:1.0;"/><line style="stroke:#A80036;stroke-width:1.0;stroke-dasharray:2.0,2.0;" x1="286" x2="423" y1="243.0156" y2="243.0156"/><text fill="#000000" font-family="sans-serif" font-size="13" font-weight="bold" lengthAdjust="spacing" textLength="7" x="293" y="238.1592">4</text><text fill="#000000" font-family="sans-serif" font-size="13" lengthAdjust="spacing" textLength="107" x="304" y="238.1592">readTestFromCSV</text><polygon fill="#A80036" points="639,269.3672,649,273.3672,639,277.3672,643,273.3672" style="stroke:#A80036;stroke-width:1.0;"/><line style="stroke:#A80036;stroke-width:1.0;stroke-dasharray:2.0,2.0;" x1="439" x2="645" y1="273.3672" y2="273.3672"/><text fill="#000000" font-family="sans-serif" font-size="13" font-weight="bold" lengthAdjust="spacing" textLength="7" x="446" y="268.5107">5</text><text fill="#000000" font-family="sans-serif" font-size="13" lengthAdjust="spacing" textLength="177" x="457" y="268.5107">createClientfromFile(metadata)</text><polygon fill="#A80036" points="846,299.7188,856,303.7188,846,307.7188,850,303.7188" style="stroke:#A80036;stroke-width:1.0;"/><line style="stroke:#A80036;stroke-width:1.0;stroke-dasharray:2.0,2.0;" x1="661" x2="852" y1="303.7188" y2="303.7188"/><text fill="#000000" font-family="sans-serif" font-size="13" font-weight="bold" lengthAdjust="spacing" textLength="7" x="668" y="298.8623">6</text><text fill="#000000" font-family="sans-serif" font-size="13" lengthAdjust="spacing" textLength="80" x="679" y="298.8623">getClientList()</text><polygon fill="#A80036" points="1199.5,360.0703,1209.5,364.0703,1199.5,368.0703,1203.5,364.0703" style="stroke:#A80036;stroke-width:1.0;"/><line style="stroke:#A80036;stroke-width:1.0;stroke-dasharray:2.0,2.0;" x1="661" x2="1205.5" y1="364.0703" y2="364.0703"/><text fill="#000000" font-family="sans-serif" font-size="13" font-weight="bold" lengthAdjust="spacing" textLength="7" x="668" y="359.2139">7</text><text fill="#000000" font-family="sans-serif" font-size="13" lengthAdjust="spacing" textLength="77" x="679" y="359.2139">createClient()</text><polygon fill="#A80036" points="2261,390.4219,2271,394.4219,2261,398.4219,2265,394.4219" style="stroke:#A80036;stroke-width:1.0;"/><line style="stroke:#A80036;stroke-width:1.0;" x1="1221.5" x2="2267" y1="394.4219" y2="394.4219"/><text fill="#000000" font-family="sans-serif" font-size="13" font-weight="bold" lengthAdjust="spacing" textLength="7" x="1228.5" y="389.5654">8</text><text fill="#000000" font-family="sans-serif" font-size="13" lengthAdjust="spacing" textLength="401" x="1239.5" y="389.5654">c = Client(phoneNumber, cc, nhs, tinNumber, birthDate, email, name)</text><rect fill="#FEFECE" filter="url(#fl40d3kjccjzk)" height="31.6094" style="stroke:#A80036;stroke-width:1.5;" width="61" x="2273" y="372.0703"/><text fill="#000000" font-family="sans-serif" font-size="14" lengthAdjust="spacing" textLength="47" x="2280" y="393.6035">c:Client</text><line style="stroke:#A80036;stroke-width:1.0;" x1="1221.5" x2="1263.5" y1="441.0313" y2="441.0313"/><line style="stroke:#A80036;stroke-width:1.0;" x1="1263.5" x2="1263.5" y1="441.0313" y2="454.0313"/><line style="stroke:#A80036;stroke-width:1.0;" x1="1222.5" x2="1263.5" y1="454.0313" y2="454.0313"/><polygon fill="#A80036" points="1232.5,450.0313,1222.5,454.0313,1232.5,458.0313,1228.5,454.0313" style="stroke:#A80036;stroke-width:1.0;"/><text fill="#000000" font-family="sans-serif" font-size="13" font-weight="bold" lengthAdjust="spacing" textLength="7" x="1228.5" y="436.1748">9</text><text fill="#000000" font-family="sans-serif" font-size="13" lengthAdjust="spacing" textLength="67" x="1239.5" y="436.1748">saveClient()</text><polygon fill="#A80036" points="846,480.3828,856,484.3828,846,488.3828,850,484.3828" style="stroke:#A80036;stroke-width:1.0;"/><line style="stroke:#A80036;stroke-width:1.0;stroke-dasharray:2.0,2.0;" x1="661" x2="852" y1="484.3828" y2="484.3828"/><text fill="#000000" font-family="sans-serif" font-size="13" font-weight="bold" lengthAdjust="spacing" textLength="14" x="668" y="479.5264">10</text><text fill="#000000" font-family="sans-serif" font-size="13" lengthAdjust="spacing" textLength="96" x="686" y="479.5264">getAuthFacade()</text><polygon fill="#A80036" points="2721.5,540.7344,2731.5,544.7344,2721.5,548.7344,2725.5,544.7344" style="stroke:#A80036;stroke-width:1.0;"/><line style="stroke:#A80036;stroke-width:1.0;stroke-dasharray:2.0,2.0;" x1="661" x2="2727.5" y1="544.7344" y2="544.7344"/><text fill="#000000" font-family="sans-serif" font-size="13" font-weight="bold" lengthAdjust="spacing" textLength="14" x="668" y="539.8779">11</text><text fill="#000000" font-family="sans-serif" font-size="13" lengthAdjust="spacing" textLength="109" x="686" y="539.8779">addUserWithRole()</text><polygon fill="#A80036" points="2889.5,571.0859,2899.5,575.0859,2889.5,579.0859,2893.5,575.0859" style="stroke:#A80036;stroke-width:1.0;"/><line style="stroke:#A80036;stroke-width:1.0;" x1="2738.5" x2="2895.5" y1="575.0859" y2="575.0859"/><text fill="#000000" font-family="sans-serif" font-size="13" font-weight="bold" lengthAdjust="spacing" textLength="14" x="2745.5" y="570.2295">12</text><text fill="#000000" font-family="sans-serif" font-size="13" lengthAdjust="spacing" textLength="44" x="2763.5" y="570.2295">create()</text><polygon fill="#A80036" points="3141.5,601.4375,3151.5,605.4375,3141.5,609.4375,3145.5,605.4375" style="stroke:#A80036;stroke-width:1.0;"/><line style="stroke:#A80036;stroke-width:1.0;" x1="2906.5" x2="3147.5" y1="605.4375" y2="605.4375"/><text fill="#000000" font-family="sans-serif" font-size="13" font-weight="bold" lengthAdjust="spacing" textLength="14" x="2913.5" y="600.5811">13</text><text fill="#000000" font-family="sans-serif" font-size="13" lengthAdjust="spacing" textLength="200" x="2931.5" y="600.5811">u = User(id, password, name, role)</text><rect fill="#FEFECE" filter="url(#fl40d3kjccjzk)" height="31.6094" style="stroke:#A80036;stroke-width:1.5;" width="55" x="3153.5" y="583.0859"/><text fill="#000000" font-family="sans-serif" font-size="14" lengthAdjust="spacing" textLength="41" x="3160.5" y="604.6191">u:User</text><polygon fill="#A80036" points="2809,648.0469,2819,652.0469,2809,656.0469,2813,652.0469" style="stroke:#A80036;stroke-width:1.0;"/><line style="stroke:#A80036;stroke-width:1.0;stroke-dasharray:2.0,2.0;" x1="661" x2="2815" y1="652.0469" y2="652.0469"/><text fill="#000000" font-family="sans-serif" font-size="13" font-weight="bold" lengthAdjust="spacing" textLength="14" x="668" y="647.1904">14</text><text fill="#000000" font-family="sans-serif" font-size="13" lengthAdjust="spacing" textLength="157" x="686" y="647.1904">sendPasswordNotification()</text><polygon fill="#A80036" points="846,708.3984,856,712.3984,846,716.3984,850,712.3984" style="stroke:#A80036;stroke-width:1.0;"/><line style="stroke:#A80036;stroke-width:1.0;stroke-dasharray:2.0,2.0;" x1="661" x2="852" y1="712.3984" y2="712.3984"/><text fill="#000000" font-family="sans-serif" font-size="13" font-weight="bold" lengthAdjust="spacing" textLength="14" x="668" y="707.542">15</text><text fill="#000000" font-family="sans-serif" font-size="13" lengthAdjust="spacing" textLength="160" x="686" y="707.542">getClinicalAnalysisLabList()</text><polygon fill="#A80036" points="1010.5,768.75,1020.5,772.75,1010.5,776.75,1014.5,772.75" style="stroke:#A80036;stroke-width:1.0;"/><line style="stroke:#A80036;stroke-width:1.0;stroke-dasharray:2.0,2.0;" x1="661" x2="1016.5" y1="772.75" y2="772.75"/><text fill="#000000" font-family="sans-serif" font-size="13" font-weight="bold" lengthAdjust="spacing" textLength="14" x="668" y="767.8936">16</text><text fill="#000000" font-family="sans-serif" font-size="13" lengthAdjust="spacing" textLength="112" x="686" y="767.8936">verifyClinicalLabID()</text><polygon fill="#A80036" points="1899.5,799.1016,1909.5,803.1016,1899.5,807.1016,1903.5,803.1016" style="stroke:#A80036;stroke-width:1.0;"/><line style="stroke:#A80036;stroke-width:1.0;" x1="1027.5" x2="1905.5" y1="803.1016" y2="803.1016"/><text fill="#000000" font-family="sans-serif" font-size="13" font-weight="bold" lengthAdjust="spacing" textLength="14" x="1034.5" y="798.2451">17</text><text fill="#000000" font-family="sans-serif" font-size="13" lengthAdjust="spacing" textLength="36" x="1052.5" y="798.2451">getId()</text><polygon fill="#A80036" points="846,829.4531,856,833.4531,846,837.4531,850,833.4531" style="stroke:#A80036;stroke-width:1.0;"/><line style="stroke:#A80036;stroke-width:1.0;stroke-dasharray:2.0,2.0;" x1="661" x2="852" y1="833.4531" y2="833.4531"/><text fill="#000000" font-family="sans-serif" font-size="13" font-weight="bold" lengthAdjust="spacing" textLength="14" x="668" y="828.5967">18</text><text fill="#000000" font-family="sans-serif" font-size="13" lengthAdjust="spacing" textLength="104" x="686" y="828.5967">getTestTypeList();</text><polygon fill="#A80036" points="2063,889.8047,2073,893.8047,2063,897.8047,2067,893.8047" style="stroke:#A80036;stroke-width:1.0;"/><line style="stroke:#A80036;stroke-width:1.0;stroke-dasharray:2.0,2.0;" x1="661" x2="2069" y1="893.8047" y2="893.8047"/><text fill="#000000" font-family="sans-serif" font-size="13" font-weight="bold" lengthAdjust="spacing" textLength="14" x="668" y="888.9482">19</text><text fill="#000000" font-family="sans-serif" font-size="13" lengthAdjust="spacing" textLength="109" x="686" y="888.9482">getTestTypeExist()</text><polygon fill="#A80036" points="2201,920.1563,2211,924.1563,2201,928.1563,2205,924.1563" style="stroke:#A80036;stroke-width:1.0;"/><line style="stroke:#A80036;stroke-width:1.0;" x1="2080" x2="2207" y1="924.1563" y2="924.1563"/><text fill="#000000" font-family="sans-serif" font-size="13" font-weight="bold" lengthAdjust="spacing" textLength="14" x="2087" y="919.2998">20</text><text fill="#000000" font-family="sans-serif" font-size="13" lengthAdjust="spacing" textLength="91" x="2105" y="919.2998">getDescription()</text><polygon fill="#A80036" points="846,950.5078,856,954.5078,846,958.5078,850,954.5078" style="stroke:#A80036;stroke-width:1.0;"/><line style="stroke:#A80036;stroke-width:1.0;stroke-dasharray:2.0,2.0;" x1="661" x2="852" y1="954.5078" y2="954.5078"/><text fill="#000000" font-family="sans-serif" font-size="13" font-weight="bold" lengthAdjust="spacing" textLength="14" x="668" y="949.6514">21</text><text fill="#000000" font-family="sans-serif" font-size="13" lengthAdjust="spacing" textLength="159" x="686" y="949.6514">getParameterCategoryList()</text><polygon fill="#A80036" points="1523.5,1010.8594,1533.5,1014.8594,1523.5,1018.8594,1527.5,1014.8594" style="stroke:#A80036;stroke-width:1.0;"/><line style="stroke:#A80036;stroke-width:1.0;stroke-dasharray:2.0,2.0;" x1="661" x2="1529.5" y1="1014.8594" y2="1014.8594"/><text fill="#000000" font-family="sans-serif" font-size="13" font-weight="bold" lengthAdjust="spacing" textLength="14" x="668" y="1010.0029">22</text><text fill="#000000" font-family="sans-serif" font-size="13" lengthAdjust="spacing" textLength="168" x="686" y="1010.0029">getParameterCategoryExist()</text><polygon fill="#A80036" points="846,1041.2109,856,1045.2109,846,1049.2109,850,1045.2109" style="stroke:#A80036;stroke-width:1.0;"/><line style="stroke:#A80036;stroke-width:1.0;stroke-dasharray:2.0,2.0;" x1="661" x2="852" y1="1045.2109" y2="1045.2109"/><text fill="#000000" font-family="sans-serif" font-size="13" font-weight="bold" lengthAdjust="spacing" textLength="14" x="668" y="1040.3545">23</text><text fill="#000000" font-family="sans-serif" font-size="13" lengthAdjust="spacing" textLength="107" x="686" y="1040.3545">getParameterList()</text><polygon fill="#A80036" points="1728,1101.5625,1738,1105.5625,1728,1109.5625,1732,1105.5625" style="stroke:#A80036;stroke-width:1.0;"/><line style="stroke:#A80036;stroke-width:1.0;stroke-dasharray:2.0,2.0;" x1="661" x2="1734" y1="1105.5625" y2="1105.5625"/><text fill="#000000" font-family="sans-serif" font-size="13" font-weight="bold" lengthAdjust="spacing" textLength="14" x="668" y="1100.7061">24</text><text fill="#000000" font-family="sans-serif" font-size="13" lengthAdjust="spacing" textLength="116" x="686" y="1100.7061">getParameterExist()</text><polygon fill="#A80036" points="846,1131.9141,856,1135.9141,846,1139.9141,850,1135.9141" style="stroke:#A80036;stroke-width:1.0;"/><line style="stroke:#A80036;stroke-width:1.0;stroke-dasharray:2.0,2.0;" x1="661" x2="852" y1="1135.9141" y2="1135.9141"/><text fill="#000000" font-family="sans-serif" font-size="13" font-weight="bold" lengthAdjust="spacing" textLength="14" x="668" y="1131.0576">25</text><text fill="#000000" font-family="sans-serif" font-size="13" lengthAdjust="spacing" textLength="72" x="686" y="1131.0576">getTestList()</text><polygon fill="#A80036" points="1335,1192.2656,1345,1196.2656,1335,1200.2656,1339,1196.2656" style="stroke:#A80036;stroke-width:1.0;"/><line style="stroke:#A80036;stroke-width:1.0;stroke-dasharray:2.0,2.0;" x1="661" x2="1341" y1="1196.2656" y2="1196.2656"/><text fill="#000000" font-family="sans-serif" font-size="13" font-weight="bold" lengthAdjust="spacing" textLength="14" x="668" y="1191.4092">26</text><text fill="#000000" font-family="sans-serif" font-size="13" lengthAdjust="spacing" textLength="69" x="686" y="1191.4092">createTest()</text><polygon fill="#A80036" points="2336,1222.6172,2346,1226.6172,2336,1230.6172,2340,1226.6172" style="stroke:#A80036;stroke-width:1.0;"/><line style="stroke:#A80036;stroke-width:1.0;" x1="1357" x2="2342" y1="1226.6172" y2="1226.6172"/><text fill="#000000" font-family="sans-serif" font-size="13" font-weight="bold" lengthAdjust="spacing" textLength="14" x="1364" y="1221.7607">27</text><text fill="#000000" font-family="sans-serif" font-size="13" lengthAdjust="spacing" textLength="347" x="1382" y="1221.7607">t = Test(testNhsNumber, clientTin, testType, catList, paList)</text><rect fill="#FEFECE" filter="url(#fl40d3kjccjzk)" height="31.6094" style="stroke:#A80036;stroke-width:1.5;" width="50" x="2348" y="1204.2656"/><text fill="#000000" font-family="sans-serif" font-size="14" lengthAdjust="spacing" textLength="36" x="2355" y="1225.7988">t:Test</text><line style="stroke:#A80036;stroke-width:1.0;" x1="1357" x2="1399" y1="1273.2266" y2="1273.2266"/><line style="stroke:#A80036;stroke-width:1.0;" x1="1399" x2="1399" y1="1273.2266" y2="1286.2266"/><line style="stroke:#A80036;stroke-width:1.0;" x1="1358" x2="1399" y1="1286.2266" y2="1286.2266"/><polygon fill="#A80036" points="1368,1282.2266,1358,1286.2266,1368,1290.2266,1364,1286.2266" style="stroke:#A80036;stroke-width:1.0;"/><text fill="#000000" font-family="sans-serif" font-size="13" font-weight="bold" lengthAdjust="spacing" textLength="14" x="1364" y="1268.3701">28</text><text fill="#000000" font-family="sans-serif" font-size="13" lengthAdjust="spacing" textLength="59" x="1382" y="1268.3701">saveTest()</text><rect fill="#FFFFFF" filter="url(#fl40d3kjccjzk)" height="42.7031" style="stroke:#000000;stroke-width:2.0;" width="223" x="605" y="1294.2266"/><polygon fill="#EEEEEE" points="605,1294.2266,667,1294.2266,667,1302.2266,657,1312.2266,605,1312.2266,605,1294.2266" style="stroke:#000000;stroke-width:2.0;"/><text fill="#000000" font-family="sans-serif" font-size="13" font-weight="bold" lengthAdjust="spacing" textLength="17" x="618" y="1309.7217">ref</text><text fill="#000000" font-family="sans-serif" font-size="13" lengthAdjust="spacing" textLength="215" x="611" y="1329.7217">addTestResult(parameterCode,result)</text><polygon fill="#A80036" points="2358,1360.2813,2368,1364.2813,2358,1368.2813,2362,1364.2813" style="stroke:#A80036;stroke-width:1.0;"/><line style="stroke:#A80036;stroke-width:1.0;stroke-dasharray:2.0,2.0;" x1="661" x2="2364" y1="1364.2813" y2="1364.2813"/><text fill="#000000" font-family="sans-serif" font-size="13" font-weight="bold" lengthAdjust="spacing" textLength="14" x="668" y="1359.4248">29</text><text fill="#000000" font-family="sans-serif" font-size="13" lengthAdjust="spacing" textLength="81" x="686" y="1359.4248">changeState()</text><polygon fill="#A80036" points="639,1390.6328,649,1394.6328,639,1398.6328,643,1394.6328" style="stroke:#A80036;stroke-width:1.0;"/><line style="stroke:#A80036;stroke-width:1.0;stroke-dasharray:2.0,2.0;" x1="439" x2="645" y1="1394.6328" y2="1394.6328"/><text fill="#000000" font-family="sans-serif" font-size="13" font-weight="bold" lengthAdjust="spacing" textLength="14" x="446" y="1389.7764">30</text><text fill="#000000" font-family="sans-serif" font-size="13" lengthAdjust="spacing" textLength="93" x="464" y="1389.7764">getTestFileList()</text><polygon fill="#A80036" points="422,1420.9844,432,1424.9844,422,1428.9844,426,1424.9844" style="stroke:#A80036;stroke-width:1.0;"/><line style="stroke:#A80036;stroke-width:1.0;stroke-dasharray:2.0,2.0;" x1="286" x2="428" y1="1424.9844" y2="1424.9844"/><text fill="#000000" font-family="sans-serif" font-size="13" font-weight="bold" lengthAdjust="spacing" textLength="14" x="293" y="1420.1279">31</text><text fill="#000000" font-family="sans-serif" font-size="13" lengthAdjust="spacing" textLength="101" x="311" y="1420.1279">saveFileTestList()</text><polygon fill="#A80036" points="37,1451.3359,27,1455.3359,37,1459.3359,33,1455.3359" style="stroke:#A80036;stroke-width:1.0;"/><line style="stroke:#A80036;stroke-width:1.0;stroke-dasharray:2.0,2.0;" x1="31" x2="280" y1="1455.3359" y2="1455.3359"/><text fill="#000000" font-family="sans-serif" font-size="13" font-weight="bold" lengthAdjust="spacing" textLength="14" x="43" y="1450.4795">32</text><text fill="#000000" font-family="sans-serif" font-size="13" lengthAdjust="spacing" textLength="203" x="61" y="1450.4795">shows the tests that were imported</text><!--MD5=[2cd9d2336705b68c45851dd448163eb5]
@startuml
autonumber
actor Client as C
participant "ImportTestUI" as UI
participant ":ImportTestController" as CTRL
participant ":ImportTests" as Imp
participant ":Company" as company
participant "clastore:ClinicalAnalysisLabStore" as clastore
participant "cstore:ClientStore" as cstore
participant "tstore:TestStore" as tstore
participant "pcstore:ParameterCategoryStore" as pcstore
participant "pstore:ParameterStore" as pstore
participant "cla:ClinicalAnalysisLab" as cla
participant "ttstore:TestTypeStore" as ttstore
participant "tt:TestType" as tt
participant "c:Client" as c
participant "t:Test" as t
participant "p:Parameter" as p
participant "pc:ParameterCategory" as pc
participant ":AuthFacade" as Auth
participant ":Email" as Email
participant ":UserStore" as ustore
participant "u:User" as u





activate C
C -> UI: wants to import clinical tests
activate UI
deactivate CTRL
UI - -> C: show the list of files
deactivate UI

C -> UI: choose the file
activate UI
activate CTRL
UI - -> CTRL :readTestFromCSV

activate Imp
CTRL - -> Imp: createClientfromFile(metadata)

Imp - -> company:getClientList()
activate company
deactivate company

Imp - -> cstore: createClient()
activate cstore
cstore -> c** : c = Client(phoneNumber, cc, nhs, tinNumber, birthDate, email, name)
cstore -> cstore: saveClient()

Imp - -> company: getAuthFacade()
activate company
deactivate company
Imp - -> Auth: addUserWithRole()
deactivate cstore
activate Auth
Auth -> ustore:create()
deactivate Auth
activate ustore
ustore -> u**: u = User(id, password, name, role)
deactivate ustore
Imp - -> Email: sendPasswordNotification()
activate Email
deactivate Email

Imp - -> company:getClinicalAnalysisLabList()
activate company
deactivate company
Imp - -> clastore: verifyClinicalLabID()
activate clastore
activate cla
clastore -> cla: getId()
deactivate clastore
deactivate cla

Imp - -> company: getTestTypeList();
activate company
deactivate company
Imp - -> ttstore: getTestTypeExist()

activate ttstore
ttstore -> tt : getDescription()
deactivate ttstore
activate tt


Imp - -> company:getParameterCategoryList()
activate company
deactivate tt

deactivate company
activate pcstore
Imp - -> pcstore: getParameterCategoryExist()
deactivate pcstore

Imp - -> company:getParameterList()
activate company
deactivate company
activate pstore
Imp - -> pstore: getParameterExist()
deactivate pstore

Imp - -> company:getTestList()
activate company
deactivate company
Imp - -> tstore: createTest()
activate tstore
tstore -> t**: t = Test(testNhsNumber, clientTin, testType, catList, paList)
tstore -> tstore: saveTest()
ref over Imp: addTestResult(parameterCode,result)


Imp - -> t:changeState()
deactivate tstore
activate t

CTRL - -> Imp: getTestFileList()
deactivate t


UI - -> CTRL :saveFileTestList()


deactivate CTRL


UI - -> C: shows the tests that were imported
deactivate UI





deactivate UI
deactivate C
@enduml

PlantUML version 1.2021.7(Sun May 23 13:40:07 BST 2021)
(GPL source distribution)
Java Runtime: OpenJDK Runtime Environment
JVM: OpenJDK 64-Bit Server VM
Default Encoding: Cp1252
Language: en
Country: US
--></g></svg>