<?xml version="1.0" encoding="UTF-8" standalone="no"?><svg xmlns="http://www.w3.org/2000/svg" xmlns:xlink="http://www.w3.org/1999/xlink" contentScriptType="application/ecmascript" contentStyleType="text/css" height="1406px" preserveAspectRatio="none" style="width:1215px;height:1406px;background:#FFFFFF;" version="1.1" viewBox="0 0 1215 1406" width="1215px" zoomAndPan="magnify"><defs><filter height="300%" id="f1u8occpfomyq0" width="300%" x="-1" y="-1"><feGaussianBlur result="blurOut" stdDeviation="2.0"/><feColorMatrix in="blurOut" result="blurOut2" type="matrix" values="0 0 0 0 0 0 0 0 0 0 0 0 0 0 0 0 0 0 .4 0"/><feOffset dx="4.0" dy="4.0" in="blurOut2" result="blurOut3"/><feBlend in="SourceGraphic" in2="blurOut3" mode="normal"/></filter></defs><g><!--MD5=[bcff1293548765b9bca2a02c7e5ada38]
class ImportTestUI--><rect codeLine="2" fill="#FEFECE" filter="url(#f1u8occpfomyq0)" height="48" id="ImportTestUI" style="stroke:#A80036;stroke-width:1.5;" width="103" x="642" y="7"/><ellipse cx="657" cy="23" fill="#ADD1B2" rx="11" ry="11" style="stroke:#A80036;stroke-width:1.0;"/><path d="M659,19.5 Q659.2031,19 659.4375,18.75 Q659.6719,18.5 659.9375,18.5 Q660.4063,18.5 660.7031,18.7813 Q661,19.0625 661,19.7188 L661,21.2813 Q661,21.9375 660.7188,22.2188 Q660.4375,22.5 660,22.5 Q659.6094,22.5 659.3594,22.3281 Q659.1094,22.1563 659,21.7031 Q658.9531,21.3906 658.7813,21.2188 Q658.4688,20.8906 657.9063,20.7031 Q657.3438,20.5 656.7813,20.5 Q656.0781,20.5 655.4844,20.7813 Q654.9063,21.0625 654.4531,21.6875 Q654,22.3125 654,23.1719 L654,24.0938 Q654,25.125 654.8438,25.8125 Q655.6875,26.5 657.1875,26.5 Q658.0781,26.5 658.7031,26.2969 Q659.0625,26.1875 659.4688,25.8281 Q659.7344,25.625 659.875,25.5625 Q660.0156,25.5 660.1875,25.5 Q660.5156,25.5 660.75,25.7656 Q661,26.0156 661,26.375 Q661,26.7188 660.6563,27.125 Q660.1563,27.7188 659.3594,28.0469 Q658.3125,28.5 657.0313,28.5 Q655.5313,28.5 654.3281,27.9063 Q653.3594,27.4375 652.6719,26.4219 Q652,25.4063 652,24.2031 L652,23.1094 Q652,21.8594 652.5938,20.7656 Q653.2031,19.6719 654.25,19.0938 Q655.3125,18.5 656.5,18.5 Q657.2188,18.5 657.8438,18.75 Q658.4688,19 659,19.5 Z " fill="#000000"/><text fill="#000000" font-family="sans-serif" font-size="12" lengthAdjust="spacing" textLength="71" x="671" y="27.9102">ImportTestUI</text><line style="stroke:#A80036;stroke-width:1.5;" x1="643" x2="744" y1="39" y2="39"/><line style="stroke:#A80036;stroke-width:1.5;" x1="643" x2="744" y1="47" y2="47"/><!--MD5=[51912c652aa2a3a1d0b745172ce59331]
class ImportTestController--><rect codeLine="5" fill="#FEFECE" filter="url(#f1u8occpfomyq0)" height="75.6719" id="ImportTestController" style="stroke:#A80036;stroke-width:1.5;" width="145" x="621" y="115"/><ellipse cx="636" cy="131" fill="#ADD1B2" rx="11" ry="11" style="stroke:#A80036;stroke-width:1.0;"/><path d="M638,127.5 Q638.2031,127 638.4375,126.75 Q638.6719,126.5 638.9375,126.5 Q639.4063,126.5 639.7031,126.7813 Q640,127.0625 640,127.7188 L640,129.2813 Q640,129.9375 639.7188,130.2188 Q639.4375,130.5 639,130.5 Q638.6094,130.5 638.3594,130.3281 Q638.1094,130.1563 638,129.7031 Q637.9531,129.3906 637.7813,129.2188 Q637.4688,128.8906 636.9063,128.7031 Q636.3438,128.5 635.7813,128.5 Q635.0781,128.5 634.4844,128.7813 Q633.9063,129.0625 633.4531,129.6875 Q633,130.3125 633,131.1719 L633,132.0938 Q633,133.125 633.8438,133.8125 Q634.6875,134.5 636.1875,134.5 Q637.0781,134.5 637.7031,134.2969 Q638.0625,134.1875 638.4688,133.8281 Q638.7344,133.625 638.875,133.5625 Q639.0156,133.5 639.1875,133.5 Q639.5156,133.5 639.75,133.7656 Q640,134.0156 640,134.375 Q640,134.7188 639.6563,135.125 Q639.1563,135.7188 638.3594,136.0469 Q637.3125,136.5 636.0313,136.5 Q634.5313,136.5 633.3281,135.9063 Q632.3594,135.4375 631.6719,134.4219 Q631,133.4063 631,132.2031 L631,131.1094 Q631,129.8594 631.5938,128.7656 Q632.2031,127.6719 633.25,127.0938 Q634.3125,126.5 635.5,126.5 Q636.2188,126.5 636.8438,126.75 Q637.4688,127 638,127.5 Z " fill="#000000"/><text fill="#000000" font-family="sans-serif" font-size="12" lengthAdjust="spacing" textLength="113" x="650" y="135.9102">ImportTestController</text><line style="stroke:#A80036;stroke-width:1.5;" x1="622" x2="765" y1="147" y2="147"/><line style="stroke:#A80036;stroke-width:1.5;" x1="622" x2="765" y1="155" y2="155"/><ellipse cx="632" cy="166" fill="#84BE84" rx="3" ry="3" style="stroke:#038048;stroke-width:1.0;"/><text fill="#000000" font-family="sans-serif" font-size="11" lengthAdjust="spacing" textLength="95" x="641" y="170.4189">readTestsfromFile()</text><ellipse cx="632" cy="179.8359" fill="#84BE84" rx="3" ry="3" style="stroke:#038048;stroke-width:1.0;"/><text fill="#000000" font-family="sans-serif" font-size="11" lengthAdjust="spacing" textLength="86" x="641" y="184.2549">saveFileTestList()</text><!--MD5=[0f6f7964b844a64b0496af0dda7914bd]
class TestStore--><rect codeLine="12" fill="#FEFECE" filter="url(#f1u8occpfomyq0)" height="89.5078" id="TestStore" style="stroke:#A80036;stroke-width:1.5;" width="105" x="931" y="633"/><ellipse cx="955" cy="649" fill="#ADD1B2" rx="11" ry="11" style="stroke:#A80036;stroke-width:1.0;"/><path d="M957,645.5 Q957.2031,645 957.4375,644.75 Q957.6719,644.5 957.9375,644.5 Q958.4063,644.5 958.7031,644.7813 Q959,645.0625 959,645.7188 L959,647.2813 Q959,647.9375 958.7188,648.2188 Q958.4375,648.5 958,648.5 Q957.6094,648.5 957.3594,648.3281 Q957.1094,648.1563 957,647.7031 Q956.9531,647.3906 956.7813,647.2188 Q956.4688,646.8906 955.9063,646.7031 Q955.3438,646.5 954.7813,646.5 Q954.0781,646.5 953.4844,646.7813 Q952.9063,647.0625 952.4531,647.6875 Q952,648.3125 952,649.1719 L952,650.0938 Q952,651.125 952.8438,651.8125 Q953.6875,652.5 955.1875,652.5 Q956.0781,652.5 956.7031,652.2969 Q957.0625,652.1875 957.4688,651.8281 Q957.7344,651.625 957.875,651.5625 Q958.0156,651.5 958.1875,651.5 Q958.5156,651.5 958.75,651.7656 Q959,652.0156 959,652.375 Q959,652.7188 958.6563,653.125 Q958.1563,653.7188 957.3594,654.0469 Q956.3125,654.5 955.0313,654.5 Q953.5313,654.5 952.3281,653.9063 Q951.3594,653.4375 950.6719,652.4219 Q950,651.4063 950,650.2031 L950,649.1094 Q950,647.8594 950.5938,646.7656 Q951.2031,645.6719 952.25,645.0938 Q953.3125,644.5 954.5,644.5 Q955.2188,644.5 955.8438,644.75 Q956.4688,645 957,645.5 Z " fill="#000000"/><text fill="#000000" font-family="sans-serif" font-size="12" lengthAdjust="spacing" textLength="53" x="971" y="653.9102">TestStore</text><line style="stroke:#A80036;stroke-width:1.5;" x1="932" x2="1035" y1="665" y2="665"/><rect fill="none" height="6" style="stroke:#C82930;stroke-width:1.0;" width="6" x="939" y="673"/><text fill="#000000" font-family="sans-serif" font-size="11" lengthAdjust="spacing" textLength="79" x="951" y="680.4189">List&lt;Test&gt; array</text><line style="stroke:#A80036;stroke-width:1.5;" x1="932" x2="1035" y1="686.8359" y2="686.8359"/><ellipse cx="942" cy="697.8359" fill="#84BE84" rx="3" ry="3" style="stroke:#038048;stroke-width:1.0;"/><text fill="#000000" font-family="sans-serif" font-size="11" lengthAdjust="spacing" textLength="60" x="951" y="702.2549">createTest()</text><ellipse cx="942" cy="711.6719" fill="#84BE84" rx="3" ry="3" style="stroke:#038048;stroke-width:1.0;"/><text fill="#000000" font-family="sans-serif" font-size="11" lengthAdjust="spacing" textLength="53" x="951" y="716.0908">saveTest()</text><!--MD5=[df38be88ccee13e832d6fafd6288a4ca]
class Test--><rect codeLine="18" fill="#FEFECE" filter="url(#f1u8occpfomyq0)" height="283.2109" id="Test" style="stroke:#A80036;stroke-width:1.5;" width="193" x="886" y="783"/><ellipse cx="966.25" cy="799" fill="#ADD1B2" rx="11" ry="11" style="stroke:#A80036;stroke-width:1.0;"/><path d="M968.25,795.5 Q968.4531,795 968.6875,794.75 Q968.9219,794.5 969.1875,794.5 Q969.6563,794.5 969.9531,794.7813 Q970.25,795.0625 970.25,795.7188 L970.25,797.2813 Q970.25,797.9375 969.9688,798.2188 Q969.6875,798.5 969.25,798.5 Q968.8594,798.5 968.6094,798.3281 Q968.3594,798.1563 968.25,797.7031 Q968.2031,797.3906 968.0313,797.2188 Q967.7188,796.8906 967.1563,796.7031 Q966.5938,796.5 966.0313,796.5 Q965.3281,796.5 964.7344,796.7813 Q964.1563,797.0625 963.7031,797.6875 Q963.25,798.3125 963.25,799.1719 L963.25,800.0938 Q963.25,801.125 964.0938,801.8125 Q964.9375,802.5 966.4375,802.5 Q967.3281,802.5 967.9531,802.2969 Q968.3125,802.1875 968.7188,801.8281 Q968.9844,801.625 969.125,801.5625 Q969.2656,801.5 969.4375,801.5 Q969.7656,801.5 970,801.7656 Q970.25,802.0156 970.25,802.375 Q970.25,802.7188 969.9063,803.125 Q969.4063,803.7188 968.6094,804.0469 Q967.5625,804.5 966.2813,804.5 Q964.7813,804.5 963.5781,803.9063 Q962.6094,803.4375 961.9219,802.4219 Q961.25,801.4063 961.25,800.2031 L961.25,799.1094 Q961.25,797.8594 961.8438,796.7656 Q962.4531,795.6719 963.5,795.0938 Q964.5625,794.5 965.75,794.5 Q966.4688,794.5 967.0938,794.75 Q967.7188,795 968.25,795.5 Z " fill="#000000"/><text fill="#000000" font-family="sans-serif" font-size="12" lengthAdjust="spacing" textLength="24" x="986.75" y="803.9102">Test</text><line style="stroke:#A80036;stroke-width:1.5;" x1="887" x2="1078" y1="815" y2="815"/><rect fill="none" height="6" style="stroke:#C82930;stroke-width:1.0;" width="6" x="894" y="823"/><text fill="#000000" font-family="sans-serif" font-size="11" lengthAdjust="spacing" textLength="74" x="906" y="830.4189">String testCode</text><rect fill="none" height="6" style="stroke:#C82930;stroke-width:1.0;" width="6" x="894" y="836.8359"/><text fill="#000000" font-family="sans-serif" font-size="11" lengthAdjust="spacing" textLength="105" x="906" y="844.2549">String testNhsNumber</text><rect fill="none" height="6" style="stroke:#C82930;stroke-width:1.0;" width="6" x="894" y="850.6719"/><text fill="#000000" font-family="sans-serif" font-size="11" lengthAdjust="spacing" textLength="70" x="906" y="858.0908">String clientTin</text><rect fill="none" height="6" style="stroke:#C82930;stroke-width:1.0;" width="6" x="894" y="864.5078"/><text fill="#000000" font-family="sans-serif" font-size="11" lengthAdjust="spacing" textLength="90" x="906" y="871.9268">TestType testType</text><rect fill="none" height="6" style="stroke:#C82930;stroke-width:1.0;" width="6" x="894" y="878.3438"/><text fill="#000000" font-family="sans-serif" font-size="11" lengthAdjust="spacing" textLength="157" x="906" y="885.7627">List&lt;ParameterCategory&gt; catList</text><rect fill="none" height="6" style="stroke:#C82930;stroke-width:1.0;" width="6" x="894" y="892.1797"/><text fill="#000000" font-family="sans-serif" font-size="11" lengthAdjust="spacing" textLength="110" x="906" y="899.5986">List&lt;Parameter&gt; paList</text><rect fill="none" height="6" style="stroke:#C82930;stroke-width:1.0;" width="6" x="894" y="906.0156"/><text fill="#000000" font-family="sans-serif" font-size="11" lengthAdjust="spacing" textLength="59" x="906" y="913.4346">createdDate</text><rect fill="none" height="6" style="stroke:#C82930;stroke-width:1.0;" width="6" x="894" y="919.8516"/><text fill="#000000" font-family="sans-serif" font-size="11" lengthAdjust="spacing" textLength="52" x="906" y="927.2705">State state</text><rect fill="none" height="6" style="stroke:#C82930;stroke-width:1.0;" width="6" x="894" y="933.6875"/><text fill="#000000" font-family="sans-serif" font-size="11" lengthAdjust="spacing" textLength="150" x="906" y="941.1064">List&lt;TestParameter&gt; testParam</text><rect fill="none" height="6" style="stroke:#C82930;stroke-width:1.0;" width="6" x="894" y="947.5234"/><text fill="#000000" font-family="sans-serif" font-size="11" lengthAdjust="spacing" textLength="167" x="906" y="954.9424">LocalDateTime sampleCreatedDate</text><rect fill="none" height="6" style="stroke:#C82930;stroke-width:1.0;" width="6" x="894" y="961.3594"/><text fill="#000000" font-family="sans-serif" font-size="11" lengthAdjust="spacing" textLength="139" x="906" y="968.7783">LocalDateTime analysedData</text><rect fill="none" height="6" style="stroke:#C82930;stroke-width:1.0;" width="6" x="894" y="975.1953"/><text fill="#000000" font-family="sans-serif" font-size="11" lengthAdjust="spacing" textLength="144" x="906" y="982.6143">LocalDateTime diagnosticDate</text><rect fill="none" height="6" style="stroke:#C82930;stroke-width:1.0;" width="6" x="894" y="989.0313"/><text fill="#000000" font-family="sans-serif" font-size="11" lengthAdjust="spacing" textLength="138" x="906" y="996.4502">LocalDateTime validatedDate</text><line style="stroke:#A80036;stroke-width:1.5;" x1="887" x2="1078" y1="1002.8672" y2="1002.8672"/><ellipse cx="897" cy="1013.8672" fill="#84BE84" rx="3" ry="3" style="stroke:#038048;stroke-width:1.0;"/><text fill="#000000" font-family="sans-serif" font-size="11" lengthAdjust="spacing" textLength="118" x="906" y="1018.2861">setSampleCreatedDate()</text><ellipse cx="897" cy="1027.7031" fill="#84BE84" rx="3" ry="3" style="stroke:#038048;stroke-width:1.0;"/><text fill="#000000" font-family="sans-serif" font-size="11" lengthAdjust="spacing" textLength="91" x="906" y="1032.1221">setAnalysedData()</text><ellipse cx="897" cy="1041.5391" fill="#84BE84" rx="3" ry="3" style="stroke:#038048;stroke-width:1.0;"/><text fill="#000000" font-family="sans-serif" font-size="11" lengthAdjust="spacing" textLength="95" x="906" y="1045.958">setDiagnosticDate()</text><ellipse cx="897" cy="1055.375" fill="#84BE84" rx="3" ry="3" style="stroke:#038048;stroke-width:1.0;"/><text fill="#000000" font-family="sans-serif" font-size="11" lengthAdjust="spacing" textLength="90" x="906" y="1059.7939">setValidatedDate()</text><!--MD5=[02e4b9b7573f1156f41e60aa5b4e25a4]
class Company--><rect codeLine="38" fill="#FEFECE" filter="url(#f1u8occpfomyq0)" height="131.0156" id="Company" style="stroke:#A80036;stroke-width:1.5;" width="159" x="548" y="442"/><ellipse cx="596.75" cy="458" fill="#ADD1B2" rx="11" ry="11" style="stroke:#A80036;stroke-width:1.0;"/><path d="M598.75,454.5 Q598.9531,454 599.1875,453.75 Q599.4219,453.5 599.6875,453.5 Q600.1563,453.5 600.4531,453.7813 Q600.75,454.0625 600.75,454.7188 L600.75,456.2813 Q600.75,456.9375 600.4688,457.2188 Q600.1875,457.5 599.75,457.5 Q599.3594,457.5 599.1094,457.3281 Q598.8594,457.1563 598.75,456.7031 Q598.7031,456.3906 598.5313,456.2188 Q598.2188,455.8906 597.6563,455.7031 Q597.0938,455.5 596.5313,455.5 Q595.8281,455.5 595.2344,455.7813 Q594.6563,456.0625 594.2031,456.6875 Q593.75,457.3125 593.75,458.1719 L593.75,459.0938 Q593.75,460.125 594.5938,460.8125 Q595.4375,461.5 596.9375,461.5 Q597.8281,461.5 598.4531,461.2969 Q598.8125,461.1875 599.2188,460.8281 Q599.4844,460.625 599.625,460.5625 Q599.7656,460.5 599.9375,460.5 Q600.2656,460.5 600.5,460.7656 Q600.75,461.0156 600.75,461.375 Q600.75,461.7188 600.4063,462.125 Q599.9063,462.7188 599.1094,463.0469 Q598.0625,463.5 596.7813,463.5 Q595.2813,463.5 594.0781,462.9063 Q593.1094,462.4375 592.4219,461.4219 Q591.75,460.4063 591.75,459.2031 L591.75,458.1094 Q591.75,456.8594 592.3438,455.7656 Q592.9531,454.6719 594,454.0938 Q595.0625,453.5 596.25,453.5 Q596.9688,453.5 597.5938,453.75 Q598.2188,454 598.75,454.5 Z " fill="#000000"/><text fill="#000000" font-family="sans-serif" font-size="12" lengthAdjust="spacing" textLength="53" x="617.25" y="462.9102">Company</text><line style="stroke:#A80036;stroke-width:1.5;" x1="549" x2="706" y1="474" y2="474"/><line style="stroke:#A80036;stroke-width:1.5;" x1="549" x2="706" y1="482" y2="482"/><ellipse cx="559" cy="493" fill="#84BE84" rx="3" ry="3" style="stroke:#038048;stroke-width:1.0;"/><text fill="#000000" font-family="sans-serif" font-size="11" lengthAdjust="spacing" textLength="66" x="568" y="497.4189">getClientList()</text><ellipse cx="559" cy="506.8359" fill="#84BE84" rx="3" ry="3" style="stroke:#038048;stroke-width:1.0;"/><text fill="#000000" font-family="sans-serif" font-size="11" lengthAdjust="spacing" textLength="133" x="568" y="511.2549">getParameterCategoryList()</text><ellipse cx="559" cy="520.6719" fill="#84BE84" rx="3" ry="3" style="stroke:#038048;stroke-width:1.0;"/><text fill="#000000" font-family="sans-serif" font-size="11" lengthAdjust="spacing" textLength="61" x="568" y="525.0908">getTestList()</text><ellipse cx="559" cy="534.5078" fill="#84BE84" rx="3" ry="3" style="stroke:#038048;stroke-width:1.0;"/><text fill="#000000" font-family="sans-serif" font-size="11" lengthAdjust="spacing" textLength="85" x="568" y="538.9268">getTestTypeList()</text><ellipse cx="559" cy="548.3438" fill="#84BE84" rx="3" ry="3" style="stroke:#038048;stroke-width:1.0;"/><text fill="#000000" font-family="sans-serif" font-size="11" lengthAdjust="spacing" textLength="89" x="568" y="552.7627">getParameterList()</text><ellipse cx="559" cy="562.1797" fill="#84BE84" rx="3" ry="3" style="stroke:#038048;stroke-width:1.0;"/><text fill="#000000" font-family="sans-serif" font-size="11" lengthAdjust="spacing" textLength="133" x="568" y="566.5986">getClinicalAnalysisLabList()</text><!--MD5=[8ba6d25d8575ff644db512407b466cac]
class ImportTests--><rect codeLine="49" fill="#FEFECE" filter="url(#f1u8occpfomyq0)" height="131.0156" id="ImportTests" style="stroke:#A80036;stroke-width:1.5;" width="137" x="689" y="251"/><ellipse cx="721.55" cy="267" fill="#ADD1B2" rx="11" ry="11" style="stroke:#A80036;stroke-width:1.0;"/><path d="M723.55,263.5 Q723.7531,263 723.9875,262.75 Q724.2219,262.5 724.4875,262.5 Q724.9563,262.5 725.2531,262.7813 Q725.55,263.0625 725.55,263.7188 L725.55,265.2813 Q725.55,265.9375 725.2688,266.2188 Q724.9875,266.5 724.55,266.5 Q724.1594,266.5 723.9094,266.3281 Q723.6594,266.1563 723.55,265.7031 Q723.5031,265.3906 723.3313,265.2188 Q723.0188,264.8906 722.4563,264.7031 Q721.8938,264.5 721.3313,264.5 Q720.6281,264.5 720.0344,264.7813 Q719.4563,265.0625 719.0031,265.6875 Q718.55,266.3125 718.55,267.1719 L718.55,268.0938 Q718.55,269.125 719.3938,269.8125 Q720.2375,270.5 721.7375,270.5 Q722.6281,270.5 723.2531,270.2969 Q723.6125,270.1875 724.0188,269.8281 Q724.2844,269.625 724.425,269.5625 Q724.5656,269.5 724.7375,269.5 Q725.0656,269.5 725.3,269.7656 Q725.55,270.0156 725.55,270.375 Q725.55,270.7188 725.2063,271.125 Q724.7063,271.7188 723.9094,272.0469 Q722.8625,272.5 721.5813,272.5 Q720.0813,272.5 718.8781,271.9063 Q717.9094,271.4375 717.2219,270.4219 Q716.55,269.4063 716.55,268.2031 L716.55,267.1094 Q716.55,265.8594 717.1438,264.7656 Q717.7531,263.6719 718.8,263.0938 Q719.8625,262.5 721.05,262.5 Q721.7688,262.5 722.3938,262.75 Q723.0188,263 723.55,263.5 Z " fill="#000000"/><text fill="#000000" font-family="sans-serif" font-size="12" lengthAdjust="spacing" textLength="66" x="739.45" y="271.9102">ImportTests</text><line style="stroke:#A80036;stroke-width:1.5;" x1="690" x2="825" y1="283" y2="283"/><rect fill="none" height="6" style="stroke:#C82930;stroke-width:1.0;" width="6" x="697" y="291"/><text fill="#000000" font-family="sans-serif" font-size="11" lengthAdjust="spacing" textLength="111" x="709" y="298.4189">List&lt;String&gt; testFileList</text><line style="stroke:#A80036;stroke-width:1.5;" x1="690" x2="825" y1="304.8359" y2="304.8359"/><ellipse cx="700" cy="315.8359" fill="#84BE84" rx="3" ry="3" style="stroke:#038048;stroke-width:1.0;"/><text fill="#000000" font-family="sans-serif" font-size="11" lengthAdjust="spacing" textLength="97" x="709" y="320.2549">readTestFromCSV()</text><ellipse cx="700" cy="329.6719" fill="#84BE84" rx="3" ry="3" style="stroke:#038048;stroke-width:1.0;"/><text fill="#000000" font-family="sans-serif" font-size="11" lengthAdjust="spacing" textLength="77" x="709" y="334.0908">getTestFileList()</text><ellipse cx="700" cy="343.5078" fill="#84BE84" rx="3" ry="3" style="stroke:#038048;stroke-width:1.0;"/><text fill="#000000" font-family="sans-serif" font-size="11" lengthAdjust="spacing" textLength="103" x="709" y="347.9268">createClientfromFile()</text><ellipse cx="700" cy="357.3438" fill="#84BE84" rx="3" ry="3" style="stroke:#038048;stroke-width:1.0;"/><text fill="#000000" font-family="sans-serif" font-size="11" lengthAdjust="spacing" textLength="61" x="709" y="361.7627">verifyClinic()</text><ellipse cx="700" cy="371.1797" fill="#84BE84" rx="3" ry="3" style="stroke:#038048;stroke-width:1.0;"/><text fill="#000000" font-family="sans-serif" font-size="11" lengthAdjust="spacing" textLength="98" x="709" y="375.5986">createTestfromFile()</text><!--MD5=[1ceede3a6a3114907aee2fab284c2e36]
class ClinicalAnalysisLabStore--><rect codeLine="58" fill="#FEFECE" filter="url(#f1u8occpfomyq0)" height="89.5078" id="ClinicalAnalysisLabStore" style="stroke:#A80036;stroke-width:1.5;" width="177" x="7" y="633"/><ellipse cx="25.6" cy="649" fill="#ADD1B2" rx="11" ry="11" style="stroke:#A80036;stroke-width:1.0;"/><path d="M27.6,645.5 Q27.8031,645 28.0375,644.75 Q28.2719,644.5 28.5375,644.5 Q29.0063,644.5 29.3031,644.7813 Q29.6,645.0625 29.6,645.7188 L29.6,647.2813 Q29.6,647.9375 29.3188,648.2188 Q29.0375,648.5 28.6,648.5 Q28.2094,648.5 27.9594,648.3281 Q27.7094,648.1563 27.6,647.7031 Q27.5531,647.3906 27.3813,647.2188 Q27.0688,646.8906 26.5063,646.7031 Q25.9438,646.5 25.3813,646.5 Q24.6781,646.5 24.0844,646.7813 Q23.5063,647.0625 23.0531,647.6875 Q22.6,648.3125 22.6,649.1719 L22.6,650.0938 Q22.6,651.125 23.4438,651.8125 Q24.2875,652.5 25.7875,652.5 Q26.6781,652.5 27.3031,652.2969 Q27.6625,652.1875 28.0688,651.8281 Q28.3344,651.625 28.475,651.5625 Q28.6156,651.5 28.7875,651.5 Q29.1156,651.5 29.35,651.7656 Q29.6,652.0156 29.6,652.375 Q29.6,652.7188 29.2563,653.125 Q28.7563,653.7188 27.9594,654.0469 Q26.9125,654.5 25.6313,654.5 Q24.1313,654.5 22.9281,653.9063 Q21.9594,653.4375 21.2719,652.4219 Q20.6,651.4063 20.6,650.2031 L20.6,649.1094 Q20.6,647.8594 21.1938,646.7656 Q21.8031,645.6719 22.85,645.0938 Q23.9125,644.5 25.1,644.5 Q25.8188,644.5 26.4438,644.75 Q27.0688,645 27.6,645.5 Z " fill="#000000"/><text fill="#000000" font-family="sans-serif" font-size="12" lengthAdjust="spacing" textLength="137" x="40.4" y="653.9102">ClinicalAnalysisLabStore</text><line style="stroke:#A80036;stroke-width:1.5;" x1="8" x2="183" y1="665" y2="665"/><rect fill="none" height="6" style="stroke:#C82930;stroke-width:1.0;" width="6" x="15" y="673"/><text fill="#000000" font-family="sans-serif" font-size="11" lengthAdjust="spacing" textLength="151" x="27" y="680.4189">List&lt;ClinicalAnalysisLab&gt; array</text><line style="stroke:#A80036;stroke-width:1.5;" x1="8" x2="183" y1="686.8359" y2="686.8359"/><ellipse cx="18" cy="697.8359" fill="#84BE84" rx="3" ry="3" style="stroke:#038048;stroke-width:1.0;"/><text fill="#000000" font-family="sans-serif" font-size="11" lengthAdjust="spacing" textLength="96" x="27" y="702.2549">verifyClinicalLabID()</text><ellipse cx="18" cy="711.6719" fill="#84BE84" rx="3" ry="3" style="stroke:#038048;stroke-width:1.0;"/><text fill="#000000" font-family="sans-serif" font-size="11" lengthAdjust="spacing" textLength="58" x="27" y="716.0908">saveClient()</text><!--MD5=[28d9d7ef96b34fdc6ab3814c5cef79ce]
class ClinicalAnalysisLab--><rect codeLine="63" fill="#FEFECE" filter="url(#f1u8occpfomyq0)" height="131.0156" id="ClinicalAnalysisLab" style="stroke:#A80036;stroke-width:1.5;" width="140" x="25.5" y="859"/><ellipse cx="40.5" cy="875" fill="#ADD1B2" rx="11" ry="11" style="stroke:#A80036;stroke-width:1.0;"/><path d="M42.5,871.5 Q42.7031,871 42.9375,870.75 Q43.1719,870.5 43.4375,870.5 Q43.9063,870.5 44.2031,870.7813 Q44.5,871.0625 44.5,871.7188 L44.5,873.2813 Q44.5,873.9375 44.2188,874.2188 Q43.9375,874.5 43.5,874.5 Q43.1094,874.5 42.8594,874.3281 Q42.6094,874.1563 42.5,873.7031 Q42.4531,873.3906 42.2813,873.2188 Q41.9688,872.8906 41.4063,872.7031 Q40.8438,872.5 40.2813,872.5 Q39.5781,872.5 38.9844,872.7813 Q38.4063,873.0625 37.9531,873.6875 Q37.5,874.3125 37.5,875.1719 L37.5,876.0938 Q37.5,877.125 38.3438,877.8125 Q39.1875,878.5 40.6875,878.5 Q41.5781,878.5 42.2031,878.2969 Q42.5625,878.1875 42.9688,877.8281 Q43.2344,877.625 43.375,877.5625 Q43.5156,877.5 43.6875,877.5 Q44.0156,877.5 44.25,877.7656 Q44.5,878.0156 44.5,878.375 Q44.5,878.7188 44.1563,879.125 Q43.6563,879.7188 42.8594,880.0469 Q41.8125,880.5 40.5313,880.5 Q39.0313,880.5 37.8281,879.9063 Q36.8594,879.4375 36.1719,878.4219 Q35.5,877.4063 35.5,876.2031 L35.5,875.1094 Q35.5,873.8594 36.0938,872.7656 Q36.7031,871.6719 37.75,871.0938 Q38.8125,870.5 40,870.5 Q40.7188,870.5 41.3438,870.75 Q41.9688,871 42.5,871.5 Z " fill="#000000"/><text fill="#000000" font-family="sans-serif" font-size="12" lengthAdjust="spacing" textLength="108" x="54.5" y="879.9102">ClinicalAnalysisLab</text><line style="stroke:#A80036;stroke-width:1.5;" x1="26.5" x2="164.5" y1="891" y2="891"/><rect fill="none" height="6" style="stroke:#C82930;stroke-width:1.0;" width="6" x="33.5" y="899"/><text fill="#000000" font-family="sans-serif" font-size="11" lengthAdjust="spacing" textLength="57" x="45.5" y="906.4189">String name</text><rect fill="none" height="6" style="stroke:#C82930;stroke-width:1.0;" width="6" x="33.5" y="912.8359"/><text fill="#000000" font-family="sans-serif" font-size="11" lengthAdjust="spacing" textLength="71" x="45.5" y="920.2549">String address</text><rect fill="none" height="6" style="stroke:#C82930;stroke-width:1.0;" width="6" x="33.5" y="926.6719"/><text fill="#000000" font-family="sans-serif" font-size="11" lengthAdjust="spacing" textLength="39" x="45.5" y="934.0908">String id</text><rect fill="none" height="6" style="stroke:#C82930;stroke-width:1.0;" width="6" x="33.5" y="940.5078"/><text fill="#000000" font-family="sans-serif" font-size="11" lengthAdjust="spacing" textLength="42" x="45.5" y="947.9268">String tin</text><rect fill="none" height="6" style="stroke:#C82930;stroke-width:1.0;" width="6" x="33.5" y="954.3438"/><text fill="#000000" font-family="sans-serif" font-size="11" lengthAdjust="spacing" textLength="98" x="45.5" y="961.7627">String phoneNumber</text><line style="stroke:#A80036;stroke-width:1.5;" x1="26.5" x2="164.5" y1="968.1797" y2="968.1797"/><ellipse cx="36.5" cy="979.1797" fill="#84BE84" rx="3" ry="3" style="stroke:#038048;stroke-width:1.0;"/><text fill="#000000" font-family="sans-serif" font-size="11" lengthAdjust="spacing" textLength="31" x="45.5" y="983.5986">getId()</text><!--MD5=[8ae808d068a8995f06b9b3ec51357f0b]
class AuthFacade--><rect codeLine="71" fill="#FEFECE" filter="url(#f1u8occpfomyq0)" height="89.5078" id="AuthFacade" style="stroke:#A80036;stroke-width:1.5;" width="152" x="434.5" y="633"/><ellipse cx="474.25" cy="649" fill="#ADD1B2" rx="11" ry="11" style="stroke:#A80036;stroke-width:1.0;"/><path d="M476.25,645.5 Q476.4531,645 476.6875,644.75 Q476.9219,644.5 477.1875,644.5 Q477.6563,644.5 477.9531,644.7813 Q478.25,645.0625 478.25,645.7188 L478.25,647.2813 Q478.25,647.9375 477.9688,648.2188 Q477.6875,648.5 477.25,648.5 Q476.8594,648.5 476.6094,648.3281 Q476.3594,648.1563 476.25,647.7031 Q476.2031,647.3906 476.0313,647.2188 Q475.7188,646.8906 475.1563,646.7031 Q474.5938,646.5 474.0313,646.5 Q473.3281,646.5 472.7344,646.7813 Q472.1563,647.0625 471.7031,647.6875 Q471.25,648.3125 471.25,649.1719 L471.25,650.0938 Q471.25,651.125 472.0938,651.8125 Q472.9375,652.5 474.4375,652.5 Q475.3281,652.5 475.9531,652.2969 Q476.3125,652.1875 476.7188,651.8281 Q476.9844,651.625 477.125,651.5625 Q477.2656,651.5 477.4375,651.5 Q477.7656,651.5 478,651.7656 Q478.25,652.0156 478.25,652.375 Q478.25,652.7188 477.9063,653.125 Q477.4063,653.7188 476.6094,654.0469 Q475.5625,654.5 474.2813,654.5 Q472.7813,654.5 471.5781,653.9063 Q470.6094,653.4375 469.9219,652.4219 Q469.25,651.4063 469.25,650.2031 L469.25,649.1094 Q469.25,647.8594 469.8438,646.7656 Q470.4531,645.6719 471.5,645.0938 Q472.5625,644.5 473.75,644.5 Q474.4688,644.5 475.0938,644.75 Q475.7188,645 476.25,645.5 Z " fill="#000000"/><text fill="#000000" font-family="sans-serif" font-size="12" lengthAdjust="spacing" textLength="65" x="493.75" y="653.9102">AuthFacade</text><line style="stroke:#A80036;stroke-width:1.5;" x1="435.5" x2="585.5" y1="665" y2="665"/><rect fill="none" height="6" style="stroke:#C82930;stroke-width:1.0;" width="6" x="442.5" y="673"/><text fill="#000000" font-family="sans-serif" font-size="11" lengthAdjust="spacing" textLength="126" x="454.5" y="680.4189">UserSession userSession</text><rect fill="none" height="6" style="stroke:#C82930;stroke-width:1.0;" width="6" x="442.5" y="686.8359"/><text fill="#000000" font-family="sans-serif" font-size="11" lengthAdjust="spacing" textLength="80" x="454.5" y="694.2549">UserStore users</text><line style="stroke:#A80036;stroke-width:1.5;" x1="435.5" x2="585.5" y1="700.6719" y2="700.6719"/><ellipse cx="445.5" cy="711.6719" fill="#84BE84" rx="3" ry="3" style="stroke:#038048;stroke-width:1.0;"/><text fill="#000000" font-family="sans-serif" font-size="11" lengthAdjust="spacing" textLength="91" x="454.5" y="716.0908">addUserWithRole()</text><!--MD5=[93af8b4494db78ec46e98fad8955a5aa]
class UserStore--><rect codeLine="76" fill="#FEFECE" filter="url(#f1u8occpfomyq0)" height="75.6719" id="UserStore" style="stroke:#A80036;stroke-width:1.5;" width="108" x="456.5" y="886.5"/><ellipse cx="480.5" cy="902.5" fill="#ADD1B2" rx="11" ry="11" style="stroke:#A80036;stroke-width:1.0;"/><path d="M482.5,899 Q482.7031,898.5 482.9375,898.25 Q483.1719,898 483.4375,898 Q483.9063,898 484.2031,898.2813 Q484.5,898.5625 484.5,899.2188 L484.5,900.7813 Q484.5,901.4375 484.2188,901.7188 Q483.9375,902 483.5,902 Q483.1094,902 482.8594,901.8281 Q482.6094,901.6563 482.5,901.2031 Q482.4531,900.8906 482.2813,900.7188 Q481.9688,900.3906 481.4063,900.2031 Q480.8438,900 480.2813,900 Q479.5781,900 478.9844,900.2813 Q478.4063,900.5625 477.9531,901.1875 Q477.5,901.8125 477.5,902.6719 L477.5,903.5938 Q477.5,904.625 478.3438,905.3125 Q479.1875,906 480.6875,906 Q481.5781,906 482.2031,905.7969 Q482.5625,905.6875 482.9688,905.3281 Q483.2344,905.125 483.375,905.0625 Q483.5156,905 483.6875,905 Q484.0156,905 484.25,905.2656 Q484.5,905.5156 484.5,905.875 Q484.5,906.2188 484.1563,906.625 Q483.6563,907.2188 482.8594,907.5469 Q481.8125,908 480.5313,908 Q479.0313,908 477.8281,907.4063 Q476.8594,906.9375 476.1719,905.9219 Q475.5,904.9063 475.5,903.7031 L475.5,902.6094 Q475.5,901.3594 476.0938,900.2656 Q476.7031,899.1719 477.75,898.5938 Q478.8125,898 480,898 Q480.7188,898 481.3438,898.25 Q481.9688,898.5 482.5,899 Z " fill="#000000"/><text fill="#000000" font-family="sans-serif" font-size="12" lengthAdjust="spacing" textLength="56" x="496.5" y="907.4102">UserStore</text><line style="stroke:#A80036;stroke-width:1.5;" x1="457.5" x2="563.5" y1="918.5" y2="918.5"/><rect fill="none" height="6" style="stroke:#C82930;stroke-width:1.0;" width="6" x="464.5" y="926.5"/><text fill="#000000" font-family="sans-serif" font-size="11" lengthAdjust="spacing" textLength="82" x="476.5" y="933.9189">Set&lt;User&gt; users</text><line style="stroke:#A80036;stroke-width:1.5;" x1="457.5" x2="563.5" y1="940.3359" y2="940.3359"/><ellipse cx="467.5" cy="951.3359" fill="#84BE84" rx="3" ry="3" style="stroke:#038048;stroke-width:1.0;"/><text fill="#000000" font-family="sans-serif" font-size="11" lengthAdjust="spacing" textLength="39" x="476.5" y="955.7549">create()</text><!--MD5=[3fd616f346a44cd59a91eb10b19e157c]
class User--><rect codeLine="80" fill="#FEFECE" filter="url(#f1u8occpfomyq0)" height="103.3438" id="User" style="stroke:#A80036;stroke-width:1.5;" width="129" x="446" y="1133"/><ellipse cx="492.75" cy="1149" fill="#ADD1B2" rx="11" ry="11" style="stroke:#A80036;stroke-width:1.0;"/><path d="M494.75,1145.5 Q494.9531,1145 495.1875,1144.75 Q495.4219,1144.5 495.6875,1144.5 Q496.1563,1144.5 496.4531,1144.7813 Q496.75,1145.0625 496.75,1145.7188 L496.75,1147.2813 Q496.75,1147.9375 496.4688,1148.2188 Q496.1875,1148.5 495.75,1148.5 Q495.3594,1148.5 495.1094,1148.3281 Q494.8594,1148.1563 494.75,1147.7031 Q494.7031,1147.3906 494.5313,1147.2188 Q494.2188,1146.8906 493.6563,1146.7031 Q493.0938,1146.5 492.5313,1146.5 Q491.8281,1146.5 491.2344,1146.7813 Q490.6563,1147.0625 490.2031,1147.6875 Q489.75,1148.3125 489.75,1149.1719 L489.75,1150.0938 Q489.75,1151.125 490.5938,1151.8125 Q491.4375,1152.5 492.9375,1152.5 Q493.8281,1152.5 494.4531,1152.2969 Q494.8125,1152.1875 495.2188,1151.8281 Q495.4844,1151.625 495.625,1151.5625 Q495.7656,1151.5 495.9375,1151.5 Q496.2656,1151.5 496.5,1151.7656 Q496.75,1152.0156 496.75,1152.375 Q496.75,1152.7188 496.4063,1153.125 Q495.9063,1153.7188 495.1094,1154.0469 Q494.0625,1154.5 492.7813,1154.5 Q491.2813,1154.5 490.0781,1153.9063 Q489.1094,1153.4375 488.4219,1152.4219 Q487.75,1151.4063 487.75,1150.2031 L487.75,1149.1094 Q487.75,1147.8594 488.3438,1146.7656 Q488.9531,1145.6719 490,1145.0938 Q491.0625,1144.5 492.25,1144.5 Q492.9688,1144.5 493.5938,1144.75 Q494.2188,1145 494.75,1145.5 Z " fill="#000000"/><text fill="#000000" font-family="sans-serif" font-size="12" lengthAdjust="spacing" textLength="27" x="513.25" y="1153.9102">User</text><line style="stroke:#A80036;stroke-width:1.5;" x1="447" x2="574" y1="1165" y2="1165"/><rect fill="none" height="6" style="stroke:#C82930;stroke-width:1.0;" width="6" x="454" y="1173"/><text fill="#000000" font-family="sans-serif" font-size="11" lengthAdjust="spacing" textLength="35" x="466" y="1180.4189">Email id</text><rect fill="none" height="6" style="stroke:#C82930;stroke-width:1.0;" width="6" x="454" y="1186.8359"/><text fill="#000000" font-family="sans-serif" font-size="11" lengthAdjust="spacing" textLength="103" x="466" y="1194.2549">Password password</text><rect fill="none" height="6" style="stroke:#C82930;stroke-width:1.0;" width="6" x="454" y="1200.6719"/><text fill="#000000" font-family="sans-serif" font-size="11" lengthAdjust="spacing" textLength="57" x="466" y="1208.0908">String name</text><rect fill="none" height="6" style="stroke:#C82930;stroke-width:1.0;" width="6" x="454" y="1214.5078"/><text fill="#000000" font-family="sans-serif" font-size="11" lengthAdjust="spacing" textLength="93" x="466" y="1221.9268">Set&lt;UserRole&gt; role</text><line style="stroke:#A80036;stroke-width:1.5;" x1="447" x2="574" y1="1228.3438" y2="1228.3438"/><!--MD5=[55cb992be19579b505cea3c5691093cb]
class ClientStore--><rect codeLine="87" fill="#FEFECE" filter="url(#f1u8occpfomyq0)" height="75.6719" id="ClientStore" style="stroke:#A80036;stroke-width:1.5;" width="110" x="621.5" y="640"/><ellipse cx="644.15" cy="656" fill="#ADD1B2" rx="11" ry="11" style="stroke:#A80036;stroke-width:1.0;"/><path d="M646.15,652.5 Q646.3531,652 646.5875,651.75 Q646.8219,651.5 647.0875,651.5 Q647.5563,651.5 647.8531,651.7813 Q648.15,652.0625 648.15,652.7188 L648.15,654.2813 Q648.15,654.9375 647.8688,655.2188 Q647.5875,655.5 647.15,655.5 Q646.7594,655.5 646.5094,655.3281 Q646.2594,655.1563 646.15,654.7031 Q646.1031,654.3906 645.9313,654.2188 Q645.6188,653.8906 645.0563,653.7031 Q644.4938,653.5 643.9313,653.5 Q643.2281,653.5 642.6344,653.7813 Q642.0563,654.0625 641.6031,654.6875 Q641.15,655.3125 641.15,656.1719 L641.15,657.0938 Q641.15,658.125 641.9938,658.8125 Q642.8375,659.5 644.3375,659.5 Q645.2281,659.5 645.8531,659.2969 Q646.2125,659.1875 646.6188,658.8281 Q646.8844,658.625 647.025,658.5625 Q647.1656,658.5 647.3375,658.5 Q647.6656,658.5 647.9,658.7656 Q648.15,659.0156 648.15,659.375 Q648.15,659.7188 647.8063,660.125 Q647.3063,660.7188 646.5094,661.0469 Q645.4625,661.5 644.1813,661.5 Q642.6813,661.5 641.4781,660.9063 Q640.5094,660.4375 639.8219,659.4219 Q639.15,658.4063 639.15,657.2031 L639.15,656.1094 Q639.15,654.8594 639.7438,653.7656 Q640.3531,652.6719 641.4,652.0938 Q642.4625,651.5 643.65,651.5 Q644.3688,651.5 644.9938,651.75 Q645.6188,652 646.15,652.5 Z " fill="#000000"/><text fill="#000000" font-family="sans-serif" font-size="12" lengthAdjust="spacing" textLength="61" x="659.85" y="660.9102">ClientStore</text><line style="stroke:#A80036;stroke-width:1.5;" x1="622.5" x2="730.5" y1="672" y2="672"/><rect fill="none" height="6" style="stroke:#C82930;stroke-width:1.0;" width="6" x="629.5" y="680"/><text fill="#000000" font-family="sans-serif" font-size="11" lengthAdjust="spacing" textLength="84" x="641.5" y="687.4189">List&lt;Client&gt; array</text><line style="stroke:#A80036;stroke-width:1.5;" x1="622.5" x2="730.5" y1="693.8359" y2="693.8359"/><ellipse cx="632.5" cy="704.8359" fill="#84BE84" rx="3" ry="3" style="stroke:#038048;stroke-width:1.0;"/><text fill="#000000" font-family="sans-serif" font-size="11" lengthAdjust="spacing" textLength="65" x="641.5" y="709.2549">createClient()</text><!--MD5=[ed6624c6556d5e7b1bd23032162d20b7]
class Client--><rect codeLine="92" fill="#FEFECE" filter="url(#f1u8occpfomyq0)" height="158.6875" id="Client" style="stroke:#A80036;stroke-width:1.5;" width="124" x="614.5" y="845"/><ellipse cx="656.5" cy="861" fill="#ADD1B2" rx="11" ry="11" style="stroke:#A80036;stroke-width:1.0;"/><path d="M658.5,857.5 Q658.7031,857 658.9375,856.75 Q659.1719,856.5 659.4375,856.5 Q659.9063,856.5 660.2031,856.7813 Q660.5,857.0625 660.5,857.7188 L660.5,859.2813 Q660.5,859.9375 660.2188,860.2188 Q659.9375,860.5 659.5,860.5 Q659.1094,860.5 658.8594,860.3281 Q658.6094,860.1563 658.5,859.7031 Q658.4531,859.3906 658.2813,859.2188 Q657.9688,858.8906 657.4063,858.7031 Q656.8438,858.5 656.2813,858.5 Q655.5781,858.5 654.9844,858.7813 Q654.4063,859.0625 653.9531,859.6875 Q653.5,860.3125 653.5,861.1719 L653.5,862.0938 Q653.5,863.125 654.3438,863.8125 Q655.1875,864.5 656.6875,864.5 Q657.5781,864.5 658.2031,864.2969 Q658.5625,864.1875 658.9688,863.8281 Q659.2344,863.625 659.375,863.5625 Q659.5156,863.5 659.6875,863.5 Q660.0156,863.5 660.25,863.7656 Q660.5,864.0156 660.5,864.375 Q660.5,864.7188 660.1563,865.125 Q659.6563,865.7188 658.8594,866.0469 Q657.8125,866.5 656.5313,866.5 Q655.0313,866.5 653.8281,865.9063 Q652.8594,865.4375 652.1719,864.4219 Q651.5,863.4063 651.5,862.2031 L651.5,861.1094 Q651.5,859.8594 652.0938,858.7656 Q652.7031,857.6719 653.75,857.0938 Q654.8125,856.5 656,856.5 Q656.7188,856.5 657.3438,856.75 Q657.9688,857 658.5,857.5 Z " fill="#000000"/><text fill="#000000" font-family="sans-serif" font-size="12" lengthAdjust="spacing" textLength="32" x="676.5" y="865.9102">Client</text><line style="stroke:#A80036;stroke-width:1.5;" x1="615.5" x2="737.5" y1="877" y2="877"/><rect fill="none" height="6" style="stroke:#C82930;stroke-width:1.0;" width="6" x="622.5" y="885"/><text fill="#000000" font-family="sans-serif" font-size="11" lengthAdjust="spacing" textLength="98" x="634.5" y="892.4189">String phoneNumber</text><rect fill="none" height="6" style="stroke:#C82930;stroke-width:1.0;" width="6" x="622.5" y="898.8359"/><text fill="#000000" font-family="sans-serif" font-size="11" lengthAdjust="spacing" textLength="43" x="634.5" y="906.2549">String cc</text><rect fill="none" height="6" style="stroke:#C82930;stroke-width:1.0;" width="6" x="622.5" y="912.6719"/><text fill="#000000" font-family="sans-serif" font-size="11" lengthAdjust="spacing" textLength="49" x="634.5" y="920.0908">String nhs</text><rect fill="none" height="6" style="stroke:#C82930;stroke-width:1.0;" width="6" x="622.5" y="926.5078"/><text fill="#000000" font-family="sans-serif" font-size="11" lengthAdjust="spacing" textLength="79" x="634.5" y="933.9268">String tinNumber</text><rect fill="none" height="6" style="stroke:#C82930;stroke-width:1.0;" width="6" x="622.5" y="940.3438"/><text fill="#000000" font-family="sans-serif" font-size="11" lengthAdjust="spacing" textLength="68" x="634.5" y="947.7627">Date birthDate</text><rect fill="none" height="6" style="stroke:#C82930;stroke-width:1.0;" width="6" x="622.5" y="954.1797"/><text fill="#000000" font-family="sans-serif" font-size="11" lengthAdjust="spacing" textLength="55" x="634.5" y="961.5986">String email</text><rect fill="none" height="6" style="stroke:#C82930;stroke-width:1.0;" width="6" x="622.5" y="968.0156"/><text fill="#000000" font-family="sans-serif" font-size="11" lengthAdjust="spacing" textLength="57" x="634.5" y="975.4346">String name</text><rect fill="none" height="6" style="stroke:#C82930;stroke-width:1.0;" width="6" x="622.5" y="981.8516"/><text fill="#000000" font-family="sans-serif" font-size="11" lengthAdjust="spacing" textLength="49" x="634.5" y="989.2705">String sex</text><line style="stroke:#A80036;stroke-width:1.5;" x1="615.5" x2="737.5" y1="995.6875" y2="995.6875"/><!--MD5=[be7802b157a16874d39c59ca0e2b25be]
class ParameterStore--><rect codeLine="103" fill="#FEFECE" filter="url(#f1u8occpfomyq0)" height="75.6719" id="ParameterStore" style="stroke:#A80036;stroke-width:1.5;" width="130" x="1071.5" y="640"/><ellipse cx="1091.45" cy="656" fill="#ADD1B2" rx="11" ry="11" style="stroke:#A80036;stroke-width:1.0;"/><path d="M1093.45,652.5 Q1093.6531,652 1093.8875,651.75 Q1094.1219,651.5 1094.3875,651.5 Q1094.8563,651.5 1095.1531,651.7813 Q1095.45,652.0625 1095.45,652.7188 L1095.45,654.2813 Q1095.45,654.9375 1095.1688,655.2188 Q1094.8875,655.5 1094.45,655.5 Q1094.0594,655.5 1093.8094,655.3281 Q1093.5594,655.1563 1093.45,654.7031 Q1093.4031,654.3906 1093.2313,654.2188 Q1092.9188,653.8906 1092.3563,653.7031 Q1091.7938,653.5 1091.2313,653.5 Q1090.5281,653.5 1089.9344,653.7813 Q1089.3563,654.0625 1088.9031,654.6875 Q1088.45,655.3125 1088.45,656.1719 L1088.45,657.0938 Q1088.45,658.125 1089.2938,658.8125 Q1090.1375,659.5 1091.6375,659.5 Q1092.5281,659.5 1093.1531,659.2969 Q1093.5125,659.1875 1093.9188,658.8281 Q1094.1844,658.625 1094.325,658.5625 Q1094.4656,658.5 1094.6375,658.5 Q1094.9656,658.5 1095.2,658.7656 Q1095.45,659.0156 1095.45,659.375 Q1095.45,659.7188 1095.1063,660.125 Q1094.6063,660.7188 1093.8094,661.0469 Q1092.7625,661.5 1091.4813,661.5 Q1089.9813,661.5 1088.7781,660.9063 Q1087.8094,660.4375 1087.1219,659.4219 Q1086.45,658.4063 1086.45,657.2031 L1086.45,656.1094 Q1086.45,654.8594 1087.0438,653.7656 Q1087.6531,652.6719 1088.7,652.0938 Q1089.7625,651.5 1090.95,651.5 Q1091.6688,651.5 1092.2938,651.75 Q1092.9188,652 1093.45,652.5 Z " fill="#000000"/><text fill="#000000" font-family="sans-serif" font-size="12" lengthAdjust="spacing" textLength="87" x="1106.55" y="660.9102">ParameterStore</text><line style="stroke:#A80036;stroke-width:1.5;" x1="1072.5" x2="1200.5" y1="672" y2="672"/><rect fill="none" height="6" style="stroke:#C82930;stroke-width:1.0;" width="6" x="1079.5" y="680"/><text fill="#000000" font-family="sans-serif" font-size="11" lengthAdjust="spacing" textLength="104" x="1091.5" y="687.4189">List&lt;Parameter&gt; pList</text><line style="stroke:#A80036;stroke-width:1.5;" x1="1072.5" x2="1200.5" y1="693.8359" y2="693.8359"/><ellipse cx="1082.5" cy="704.8359" fill="#84BE84" rx="3" ry="3" style="stroke:#038048;stroke-width:1.0;"/><text fill="#000000" font-family="sans-serif" font-size="11" lengthAdjust="spacing" textLength="95" x="1091.5" y="709.2549">getParameterExist()</text><!--MD5=[1f6362a5c8f21d8d6a0fce68f3a92a4e]
class Parameter--><rect codeLine="107" fill="#FEFECE" filter="url(#f1u8occpfomyq0)" height="117.1797" id="Parameter" style="stroke:#A80036;stroke-width:1.5;" width="137" x="1033" y="1126"/><ellipse cx="1069.15" cy="1142" fill="#ADD1B2" rx="11" ry="11" style="stroke:#A80036;stroke-width:1.0;"/><path d="M1071.15,1138.5 Q1071.3531,1138 1071.5875,1137.75 Q1071.8219,1137.5 1072.0875,1137.5 Q1072.5563,1137.5 1072.8531,1137.7813 Q1073.15,1138.0625 1073.15,1138.7188 L1073.15,1140.2813 Q1073.15,1140.9375 1072.8688,1141.2188 Q1072.5875,1141.5 1072.15,1141.5 Q1071.7594,1141.5 1071.5094,1141.3281 Q1071.2594,1141.1563 1071.15,1140.7031 Q1071.1031,1140.3906 1070.9313,1140.2188 Q1070.6188,1139.8906 1070.0563,1139.7031 Q1069.4938,1139.5 1068.9313,1139.5 Q1068.2281,1139.5 1067.6344,1139.7813 Q1067.0563,1140.0625 1066.6031,1140.6875 Q1066.15,1141.3125 1066.15,1142.1719 L1066.15,1143.0938 Q1066.15,1144.125 1066.9938,1144.8125 Q1067.8375,1145.5 1069.3375,1145.5 Q1070.2281,1145.5 1070.8531,1145.2969 Q1071.2125,1145.1875 1071.6188,1144.8281 Q1071.8844,1144.625 1072.025,1144.5625 Q1072.1656,1144.5 1072.3375,1144.5 Q1072.6656,1144.5 1072.9,1144.7656 Q1073.15,1145.0156 1073.15,1145.375 Q1073.15,1145.7188 1072.8063,1146.125 Q1072.3063,1146.7188 1071.5094,1147.0469 Q1070.4625,1147.5 1069.1813,1147.5 Q1067.6813,1147.5 1066.4781,1146.9063 Q1065.5094,1146.4375 1064.8219,1145.4219 Q1064.15,1144.4063 1064.15,1143.2031 L1064.15,1142.1094 Q1064.15,1140.8594 1064.7438,1139.7656 Q1065.3531,1138.6719 1066.4,1138.0938 Q1067.4625,1137.5 1068.65,1137.5 Q1069.3688,1137.5 1069.9938,1137.75 Q1070.6188,1138 1071.15,1138.5 Z " fill="#000000"/><text fill="#000000" font-family="sans-serif" font-size="12" lengthAdjust="spacing" textLength="58" x="1087.85" y="1146.9102">Parameter</text><line style="stroke:#A80036;stroke-width:1.5;" x1="1034" x2="1169" y1="1158" y2="1158"/><rect fill="none" height="6" style="stroke:#C82930;stroke-width:1.0;" width="6" x="1041" y="1166"/><text fill="#000000" font-family="sans-serif" font-size="11" lengthAdjust="spacing" textLength="57" x="1053" y="1173.4189">String name</text><rect fill="none" height="6" style="stroke:#C82930;stroke-width:1.0;" width="6" x="1041" y="1179.8359"/><text fill="#000000" font-family="sans-serif" font-size="11" lengthAdjust="spacing" textLength="55" x="1053" y="1187.2549">String code</text><rect fill="none" height="6" style="stroke:#C82930;stroke-width:1.0;" width="6" x="1041" y="1193.6719"/><text fill="#000000" font-family="sans-serif" font-size="11" lengthAdjust="spacing" textLength="84" x="1053" y="1201.0908">String description</text><rect fill="none" height="6" style="stroke:#C82930;stroke-width:1.0;" width="6" x="1041" y="1207.5078"/><text fill="#000000" font-family="sans-serif" font-size="11" lengthAdjust="spacing" textLength="111" x="1053" y="1214.9268">ParameterCategory cat</text><line style="stroke:#A80036;stroke-width:1.5;" x1="1034" x2="1169" y1="1221.3438" y2="1221.3438"/><ellipse cx="1044" cy="1232.3438" fill="#84BE84" rx="3" ry="3" style="stroke:#038048;stroke-width:1.0;"/><text fill="#000000" font-family="sans-serif" font-size="11" lengthAdjust="spacing" textLength="50" x="1053" y="1236.7627">getName()</text><!--MD5=[6ba72ddf03822b91e8d41ca71de58ed3]
class TestTypeStore--><rect codeLine="114" fill="#FEFECE" filter="url(#f1u8occpfomyq0)" height="75.6719" id="TestTypeStore" style="stroke:#A80036;stroke-width:1.5;" width="129" x="767" y="640"/><ellipse cx="790.1" cy="656" fill="#ADD1B2" rx="11" ry="11" style="stroke:#A80036;stroke-width:1.0;"/><path d="M792.1,652.5 Q792.3031,652 792.5375,651.75 Q792.7719,651.5 793.0375,651.5 Q793.5063,651.5 793.8031,651.7813 Q794.1,652.0625 794.1,652.7188 L794.1,654.2813 Q794.1,654.9375 793.8188,655.2188 Q793.5375,655.5 793.1,655.5 Q792.7094,655.5 792.4594,655.3281 Q792.2094,655.1563 792.1,654.7031 Q792.0531,654.3906 791.8813,654.2188 Q791.5688,653.8906 791.0063,653.7031 Q790.4438,653.5 789.8813,653.5 Q789.1781,653.5 788.5844,653.7813 Q788.0063,654.0625 787.5531,654.6875 Q787.1,655.3125 787.1,656.1719 L787.1,657.0938 Q787.1,658.125 787.9438,658.8125 Q788.7875,659.5 790.2875,659.5 Q791.1781,659.5 791.8031,659.2969 Q792.1625,659.1875 792.5688,658.8281 Q792.8344,658.625 792.975,658.5625 Q793.1156,658.5 793.2875,658.5 Q793.6156,658.5 793.85,658.7656 Q794.1,659.0156 794.1,659.375 Q794.1,659.7188 793.7563,660.125 Q793.2563,660.7188 792.4594,661.0469 Q791.4125,661.5 790.1313,661.5 Q788.6313,661.5 787.4281,660.9063 Q786.4594,660.4375 785.7719,659.4219 Q785.1,658.4063 785.1,657.2031 L785.1,656.1094 Q785.1,654.8594 785.6938,653.7656 Q786.3031,652.6719 787.35,652.0938 Q788.4125,651.5 789.6,651.5 Q790.3188,651.5 790.9438,651.75 Q791.5688,652 792.1,652.5 Z " fill="#000000"/><text fill="#000000" font-family="sans-serif" font-size="12" lengthAdjust="spacing" textLength="79" x="805.9" y="660.9102">TestTypeStore</text><line style="stroke:#A80036;stroke-width:1.5;" x1="768" x2="895" y1="672" y2="672"/><rect fill="none" height="6" style="stroke:#C82930;stroke-width:1.0;" width="6" x="775" y="680"/><text fill="#000000" font-family="sans-serif" font-size="11" lengthAdjust="spacing" textLength="103" x="787" y="687.4189">List&lt;TestType&gt; array</text><line style="stroke:#A80036;stroke-width:1.5;" x1="768" x2="895" y1="693.8359" y2="693.8359"/><ellipse cx="778" cy="704.8359" fill="#84BE84" rx="3" ry="3" style="stroke:#038048;stroke-width:1.0;"/><text fill="#000000" font-family="sans-serif" font-size="11" lengthAdjust="spacing" textLength="91" x="787" y="709.2549">getTestTypeExist()</text><!--MD5=[aeb3272166074d8737a70b61b1e71682]
class TestType--><rect codeLine="118" fill="#FEFECE" filter="url(#f1u8occpfomyq0)" height="103.3438" id="TestType" style="stroke:#A80036;stroke-width:1.5;" width="177" x="745" y="1133"/><ellipse cx="804.25" cy="1149" fill="#ADD1B2" rx="11" ry="11" style="stroke:#A80036;stroke-width:1.0;"/><path d="M806.25,1145.5 Q806.4531,1145 806.6875,1144.75 Q806.9219,1144.5 807.1875,1144.5 Q807.6563,1144.5 807.9531,1144.7813 Q808.25,1145.0625 808.25,1145.7188 L808.25,1147.2813 Q808.25,1147.9375 807.9688,1148.2188 Q807.6875,1148.5 807.25,1148.5 Q806.8594,1148.5 806.6094,1148.3281 Q806.3594,1148.1563 806.25,1147.7031 Q806.2031,1147.3906 806.0313,1147.2188 Q805.7188,1146.8906 805.1563,1146.7031 Q804.5938,1146.5 804.0313,1146.5 Q803.3281,1146.5 802.7344,1146.7813 Q802.1563,1147.0625 801.7031,1147.6875 Q801.25,1148.3125 801.25,1149.1719 L801.25,1150.0938 Q801.25,1151.125 802.0938,1151.8125 Q802.9375,1152.5 804.4375,1152.5 Q805.3281,1152.5 805.9531,1152.2969 Q806.3125,1152.1875 806.7188,1151.8281 Q806.9844,1151.625 807.125,1151.5625 Q807.2656,1151.5 807.4375,1151.5 Q807.7656,1151.5 808,1151.7656 Q808.25,1152.0156 808.25,1152.375 Q808.25,1152.7188 807.9063,1153.125 Q807.4063,1153.7188 806.6094,1154.0469 Q805.5625,1154.5 804.2813,1154.5 Q802.7813,1154.5 801.5781,1153.9063 Q800.6094,1153.4375 799.9219,1152.4219 Q799.25,1151.4063 799.25,1150.2031 L799.25,1149.1094 Q799.25,1147.8594 799.8438,1146.7656 Q800.4531,1145.6719 801.5,1145.0938 Q802.5625,1144.5 803.75,1144.5 Q804.4688,1144.5 805.0938,1144.75 Q805.7188,1145 806.25,1145.5 Z " fill="#000000"/><text fill="#000000" font-family="sans-serif" font-size="12" lengthAdjust="spacing" textLength="50" x="824.75" y="1153.9102">TestType</text><line style="stroke:#A80036;stroke-width:1.5;" x1="746" x2="921" y1="1165" y2="1165"/><rect fill="none" height="6" style="stroke:#C82930;stroke-width:1.0;" width="6" x="753" y="1173"/><text fill="#000000" font-family="sans-serif" font-size="11" lengthAdjust="spacing" textLength="58" x="765" y="1180.4189">String testID</text><rect fill="none" height="6" style="stroke:#C82930;stroke-width:1.0;" width="6" x="753" y="1186.8359"/><text fill="#000000" font-family="sans-serif" font-size="11" lengthAdjust="spacing" textLength="84" x="765" y="1194.2549">String description</text><rect fill="none" height="6" style="stroke:#C82930;stroke-width:1.0;" width="6" x="753" y="1200.6719"/><text fill="#000000" font-family="sans-serif" font-size="11" lengthAdjust="spacing" textLength="111" x="765" y="1208.0908">String collectingMethod</text><rect fill="none" height="6" style="stroke:#C82930;stroke-width:1.0;" width="6" x="753" y="1214.5078"/><text fill="#000000" font-family="sans-serif" font-size="11" lengthAdjust="spacing" textLength="151" x="765" y="1221.9268">List&lt;ParameterCategory&gt; array</text><line style="stroke:#A80036;stroke-width:1.5;" x1="746" x2="921" y1="1228.3438" y2="1228.3438"/><!--MD5=[d802db621b5b215a6f0466f93cefcb42]
class ParameterCategoryStore--><rect codeLine="125" fill="#FEFECE" filter="url(#f1u8occpfomyq0)" height="89.5078" id="ParameterCategoryStore" style="stroke:#A80036;stroke-width:1.5;" width="180" x="219.5" y="633"/><ellipse cx="239.9" cy="649" fill="#ADD1B2" rx="11" ry="11" style="stroke:#A80036;stroke-width:1.0;"/><path d="M241.9,645.5 Q242.1031,645 242.3375,644.75 Q242.5719,644.5 242.8375,644.5 Q243.3063,644.5 243.6031,644.7813 Q243.9,645.0625 243.9,645.7188 L243.9,647.2813 Q243.9,647.9375 243.6188,648.2188 Q243.3375,648.5 242.9,648.5 Q242.5094,648.5 242.2594,648.3281 Q242.0094,648.1563 241.9,647.7031 Q241.8531,647.3906 241.6813,647.2188 Q241.3688,646.8906 240.8063,646.7031 Q240.2438,646.5 239.6813,646.5 Q238.9781,646.5 238.3844,646.7813 Q237.8063,647.0625 237.3531,647.6875 Q236.9,648.3125 236.9,649.1719 L236.9,650.0938 Q236.9,651.125 237.7438,651.8125 Q238.5875,652.5 240.0875,652.5 Q240.9781,652.5 241.6031,652.2969 Q241.9625,652.1875 242.3688,651.8281 Q242.6344,651.625 242.775,651.5625 Q242.9156,651.5 243.0875,651.5 Q243.4156,651.5 243.65,651.7656 Q243.9,652.0156 243.9,652.375 Q243.9,652.7188 243.5563,653.125 Q243.0563,653.7188 242.2594,654.0469 Q241.2125,654.5 239.9313,654.5 Q238.4313,654.5 237.2281,653.9063 Q236.2594,653.4375 235.5719,652.4219 Q234.9,651.4063 234.9,650.2031 L234.9,649.1094 Q234.9,647.8594 235.4938,646.7656 Q236.1031,645.6719 237.15,645.0938 Q238.2125,644.5 239.4,644.5 Q240.1188,644.5 240.7438,644.75 Q241.3688,645 241.9,645.5 Z " fill="#000000"/><text fill="#000000" font-family="sans-serif" font-size="12" lengthAdjust="spacing" textLength="136" x="255.1" y="653.9102">ParameterCategoryStore</text><line style="stroke:#A80036;stroke-width:1.5;" x1="220.5" x2="398.5" y1="665" y2="665"/><rect fill="none" height="6" style="stroke:#C82930;stroke-width:1.0;" width="6" x="227.5" y="673"/><text fill="#000000" font-family="sans-serif" font-size="11" lengthAdjust="spacing" textLength="154" x="239.5" y="680.4189">List&lt;ParameterCategory&gt; pcList</text><line style="stroke:#A80036;stroke-width:1.5;" x1="220.5" x2="398.5" y1="686.8359" y2="686.8359"/><ellipse cx="230.5" cy="697.8359" fill="#84BE84" rx="3" ry="3" style="stroke:#038048;stroke-width:1.0;"/><text fill="#000000" font-family="sans-serif" font-size="11" lengthAdjust="spacing" textLength="139" x="239.5" y="702.2549">getParameterCategoryExist()</text><ellipse cx="230.5" cy="711.6719" fill="#84BE84" rx="3" ry="3" style="stroke:#038048;stroke-width:1.0;"/><text fill="#000000" font-family="sans-serif" font-size="11" lengthAdjust="spacing" textLength="132" x="239.5" y="716.0908">createParameterCategory()</text><!--MD5=[36afb6bbd95a8ac778c4537c55a683d5]
class ParameterCategory--><rect codeLine="130" fill="#FEFECE" filter="url(#f1u8occpfomyq0)" height="89.5078" id="ParameterCategory" style="stroke:#A80036;stroke-width:1.5;" width="139" x="910" y="1303"/><ellipse cx="925" cy="1319" fill="#ADD1B2" rx="11" ry="11" style="stroke:#A80036;stroke-width:1.0;"/><path d="M927,1315.5 Q927.2031,1315 927.4375,1314.75 Q927.6719,1314.5 927.9375,1314.5 Q928.4063,1314.5 928.7031,1314.7813 Q929,1315.0625 929,1315.7188 L929,1317.2813 Q929,1317.9375 928.7188,1318.2188 Q928.4375,1318.5 928,1318.5 Q927.6094,1318.5 927.3594,1318.3281 Q927.1094,1318.1563 927,1317.7031 Q926.9531,1317.3906 926.7813,1317.2188 Q926.4688,1316.8906 925.9063,1316.7031 Q925.3438,1316.5 924.7813,1316.5 Q924.0781,1316.5 923.4844,1316.7813 Q922.9063,1317.0625 922.4531,1317.6875 Q922,1318.3125 922,1319.1719 L922,1320.0938 Q922,1321.125 922.8438,1321.8125 Q923.6875,1322.5 925.1875,1322.5 Q926.0781,1322.5 926.7031,1322.2969 Q927.0625,1322.1875 927.4688,1321.8281 Q927.7344,1321.625 927.875,1321.5625 Q928.0156,1321.5 928.1875,1321.5 Q928.5156,1321.5 928.75,1321.7656 Q929,1322.0156 929,1322.375 Q929,1322.7188 928.6563,1323.125 Q928.1563,1323.7188 927.3594,1324.0469 Q926.3125,1324.5 925.0313,1324.5 Q923.5313,1324.5 922.3281,1323.9063 Q921.3594,1323.4375 920.6719,1322.4219 Q920,1321.4063 920,1320.2031 L920,1319.1094 Q920,1317.8594 920.5938,1316.7656 Q921.2031,1315.6719 922.25,1315.0938 Q923.3125,1314.5 924.5,1314.5 Q925.2188,1314.5 925.8438,1314.75 Q926.4688,1315 927,1315.5 Z " fill="#000000"/><text fill="#000000" font-family="sans-serif" font-size="12" lengthAdjust="spacing" textLength="107" x="939" y="1323.9102">ParameterCategory</text><line style="stroke:#A80036;stroke-width:1.5;" x1="911" x2="1048" y1="1335" y2="1335"/><rect fill="none" height="6" style="stroke:#C82930;stroke-width:1.0;" width="6" x="918" y="1343"/><text fill="#000000" font-family="sans-serif" font-size="11" lengthAdjust="spacing" textLength="55" x="930" y="1350.4189">String code</text><rect fill="none" height="6" style="stroke:#C82930;stroke-width:1.0;" width="6" x="918" y="1356.8359"/><text fill="#000000" font-family="sans-serif" font-size="11" lengthAdjust="spacing" textLength="57" x="930" y="1364.2549">String name</text><line style="stroke:#A80036;stroke-width:1.5;" x1="911" x2="1048" y1="1370.6719" y2="1370.6719"/><ellipse cx="921" cy="1381.6719" fill="#84BE84" rx="3" ry="3" style="stroke:#038048;stroke-width:1.0;"/><text fill="#000000" font-family="sans-serif" font-size="11" lengthAdjust="spacing" textLength="50" x="930" y="1386.0908">getName()</text><!--MD5=[57290b2a5c651bbad46b720eb74ca40f]
link ImportTestUI to ImportTestController--><path codeLine="136" d="M693.5,55.14 C693.5,70.58 693.5,91.33 693.5,109.67 " fill="none" id="ImportTestUI-to-ImportTestController" style="stroke:#A80036;stroke-width:1.0;stroke-dasharray:7.0,7.0;"/><polygon fill="#A80036" points="693.5,114.77,697.5,105.77,693.5,109.77,689.5,105.77,693.5,114.77" style="stroke:#A80036;stroke-width:1.0;"/><!--MD5=[59cd10628fb69ba18a783d200aaac437]
link ImportTestController to ImportTests--><path codeLine="137" d="M708.18,191.05 C714.65,207.36 722.46,227.08 729.94,245.96 " fill="none" id="ImportTestController-to-ImportTests" style="stroke:#A80036;stroke-width:1.0;stroke-dasharray:7.0,7.0;"/><polygon fill="#A80036" points="731.84,250.74,732.2375,240.8992,729.9954,246.0927,724.8018,243.8506,731.84,250.74" style="stroke:#A80036;stroke-width:1.0;"/><!--MD5=[4a0018ce1aceec1b895c9fec3017e483]
link ImportTestController to Company--><path codeLine="138" d="M684.58,191.21 C680.38,209.22 675.45,231.19 671.5,251 C659.04,313.52 646.89,385.07 638.54,436.52 " fill="none" id="ImportTestController-to-Company" style="stroke:#A80036;stroke-width:1.0;stroke-dasharray:7.0,7.0;"/><polygon fill="#A80036" points="637.69,441.75,643.0766,433.5047,638.4889,436.8142,635.1793,432.2265,637.69,441.75" style="stroke:#A80036;stroke-width:1.0;"/><!--MD5=[f1abd8b934658ea969b9117d46123387]
link ImportTests to Company--><path codeLine="139" d="M713.12,382.01 C700.85,399.86 687.48,419.29 675.04,437.39 " fill="none" id="ImportTests-to-Company" style="stroke:#A80036;stroke-width:1.0;stroke-dasharray:7.0,7.0;"/><polygon fill="#A80036" points="671.9,441.96,680.307,436.8295,674.7423,437.8465,673.7254,432.2818,671.9,441.96" style="stroke:#A80036;stroke-width:1.0;"/><!--MD5=[06b681ba1669a335aa28234cf7a30234]
link Company to ClinicalAnalysisLabStore--><path codeLine="140" d="M547.77,529.01 C461.56,551.83 320.5,591.05 201.5,633 C197.29,634.48 193.01,636.04 188.69,637.66 " fill="none" id="Company-to-ClinicalAnalysisLabStore" style="stroke:#A80036;stroke-width:1.0;"/><polygon fill="#A80036" points="184,639.43,193.833,639.989,188.6769,637.6619,191.004,632.5058,184,639.43" style="stroke:#A80036;stroke-width:1.0;"/><text fill="#000000" font-family="sans-serif" font-size="13" lengthAdjust="spacing" textLength="7" x="533.0972" y="527.7661">1</text><text fill="#000000" font-family="sans-serif" font-size="13" lengthAdjust="spacing" textLength="5" x="192.1047" y="632.815">*</text><!--MD5=[a11230341c8e65219708844feaa40162]
link Company to ClientStore--><path codeLine="141" d="M646.3,573.16 C652.27,593.69 658.72,615.87 664.12,634.43 " fill="none" id="Company-to-ClientStore" style="stroke:#A80036;stroke-width:1.0;"/><polygon fill="#A80036" points="665.61,639.57,666.9568,629.8137,664.2232,634.7662,659.2707,632.0326,665.61,639.57" style="stroke:#A80036;stroke-width:1.0;"/><text fill="#000000" font-family="sans-serif" font-size="13" lengthAdjust="spacing" textLength="7" x="640.9734" y="594.7301">1</text><text fill="#000000" font-family="sans-serif" font-size="13" lengthAdjust="spacing" textLength="5" x="658.3086" y="629.1434">*</text><!--MD5=[7f6cf7f175eae0af66201860de5de971]
link Company to TestStore--><path codeLine="142" d="M707.3,539.46 C765.51,562.95 845.74,597.22 913.5,633 C917.78,635.26 922.15,637.69 926.52,640.21 " fill="none" id="Company-to-TestStore" style="stroke:#A80036;stroke-width:1.0;"/><polygon fill="#A80036" points="930.87,642.75,925.1082,634.7624,926.5501,640.2324,921.0801,641.6743,930.87,642.75" style="stroke:#A80036;stroke-width:1.0;"/><text fill="#000000" font-family="sans-serif" font-size="13" lengthAdjust="spacing" textLength="7" x="714.9792" y="539.1794">1</text><text fill="#000000" font-family="sans-serif" font-size="13" lengthAdjust="spacing" textLength="5" x="918.1173" y="634.2224">*</text><!--MD5=[daf3d7412afa2c7651483be0b6e971d1]
link Company to ParameterStore--><path codeLine="143" d="M707.25,526.66 C794.09,547.6 936.25,585.37 1053.5,633 C1057.83,634.76 1062.23,636.67 1066.62,638.69 " fill="none" id="Company-to-ParameterStore" style="stroke:#A80036;stroke-width:1.0;"/><polygon fill="#A80036" points="1071.39,640.91,1064.9182,633.486,1066.8569,638.8003,1061.5426,640.7389,1071.39,640.91" style="stroke:#A80036;stroke-width:1.0;"/><text fill="#000000" font-family="sans-serif" font-size="13" lengthAdjust="spacing" textLength="7" x="714.9246" y="525.1994">1</text><text fill="#000000" font-family="sans-serif" font-size="13" lengthAdjust="spacing" textLength="5" x="1058.5726" y="633.2309">*</text><!--MD5=[d53d7490e5836ca5709858d7326f212b]
link Company to ParameterCategoryStore--><path codeLine="144" d="M547.67,550.8 C501.86,575.07 444.29,605.58 397.22,630.52 " fill="none" id="Company-to-ParameterCategoryStore" style="stroke:#A80036;stroke-width:1.0;"/><polygon fill="#A80036" points="392.7,632.91,402.5249,632.2239,397.1165,630.566,398.7745,625.1575,392.7,632.91" style="stroke:#A80036;stroke-width:1.0;"/><text fill="#000000" font-family="sans-serif" font-size="13" lengthAdjust="spacing" textLength="7" x="532.988" y="551.5648">1</text><text fill="#000000" font-family="sans-serif" font-size="13" lengthAdjust="spacing" textLength="5" x="400.5616" y="622.0111">*</text><!--MD5=[141c3afa12b2b3c0a39ffce56dbd5f19]
link Company to TestTypeStore--><path codeLine="145" d="M705.79,573.16 C731.6,594.48 759.55,617.57 782.53,636.56 " fill="none" id="Company-to-TestTypeStore" style="stroke:#A80036;stroke-width:1.0;"/><polygon fill="#A80036" points="786.47,639.81,782.078,630.9946,782.6149,636.626,776.9836,637.1628,786.47,639.81" style="stroke:#A80036;stroke-width:1.0;"/><text fill="#000000" font-family="sans-serif" font-size="13" lengthAdjust="spacing" textLength="7" x="706.9702" y="594.7301">1</text><text fill="#000000" font-family="sans-serif" font-size="13" lengthAdjust="spacing" textLength="5" x="773.0037" y="629.1381">*</text><!--MD5=[3eebf0e5f359806b77b30e9524c37676]
link TestTypeStore to TestType--><path codeLine="146" d="M831.65,716.1 C831.99,803.71 832.87,1023.84 833.28,1127.66 " fill="none" id="TestTypeStore-to-TestType" style="stroke:#A80036;stroke-width:1.0;"/><polygon fill="#A80036" points="833.3,1132.82,837.2485,1123.7973,833.2714,1127.8201,829.2486,1123.843,833.3,1132.82" style="stroke:#A80036;stroke-width:1.0;"/><text fill="#000000" font-family="sans-serif" font-size="13" lengthAdjust="spacing" textLength="7" x="824.0952" y="737.2867">1</text><text fill="#000000" font-family="sans-serif" font-size="13" lengthAdjust="spacing" textLength="5" x="827.9372" y="1122.2961">*</text><!--MD5=[e981d4f96c4342412d1e68160b30cf70]
link Test to TestType--><path codeLine="147" d="M901.24,1066.2 C888.56,1088.16 876.14,1109.66 865.47,1128.13 " fill="none" id="Test-to-TestType" style="stroke:#A80036;stroke-width:1.0;"/><polygon fill="#A80036" points="862.8,1132.76,870.765,1126.967,865.3007,1128.4303,863.8374,1122.9659,862.8,1132.76" style="stroke:#A80036;stroke-width:1.0;"/><text fill="#000000" font-family="sans-serif" font-size="13" lengthAdjust="spacing" textLength="7" x="889.6047" y="1087.8857">1</text><text fill="#000000" font-family="sans-serif" font-size="13" lengthAdjust="spacing" textLength="5" x="861.4013" y="1122.2281">*</text><!--MD5=[a0992dda039fed1bb57aff5aacace800]
link ParameterStore to Parameter--><path codeLine="148" d="M1133.93,716.1 C1127.99,801.69 1113.27,1013.79 1105.88,1120.32 " fill="none" id="ParameterStore-to-Parameter" style="stroke:#A80036;stroke-width:1.0;"/><polygon fill="#A80036" points="1105.52,1125.63,1110.128,1116.9256,1105.863,1120.6418,1102.1469,1116.3768,1105.52,1125.63" style="stroke:#A80036;stroke-width:1.0;"/><text fill="#000000" font-family="sans-serif" font-size="13" lengthAdjust="spacing" textLength="7" x="1125.9247" y="737.2867">1</text><text fill="#000000" font-family="sans-serif" font-size="13" lengthAdjust="spacing" textLength="5" x="1100.7053" y="1114.9858">*</text><!--MD5=[d6274e3b73b5bc8f467c6cfbf5bf003e]
link ParameterCategoryStore to ParameterCategory--><path codeLine="149" d="M304.02,723.24 C293.56,829.52 283.33,1100.9 428.5,1243 C495.08,1308.17 770.14,1334.03 904.7,1342.93 " fill="none" id="ParameterCategoryStore-to-ParameterCategory" style="stroke:#A80036;stroke-width:1.0;"/><polygon fill="#A80036" points="909.82,1343.26,901.1025,1338.6768,904.8308,1342.9312,900.5764,1346.6595,909.82,1343.26" style="stroke:#A80036;stroke-width:1.0;"/><text fill="#000000" font-family="sans-serif" font-size="13" lengthAdjust="spacing" textLength="7" x="295.8133" y="743.9459">1</text><text fill="#000000" font-family="sans-serif" font-size="13" lengthAdjust="spacing" textLength="5" x="896.9253" y="1339.4078">*</text><!--MD5=[1d934105a045dbf126514c6917bd5072]
link ClientStore to Client--><path codeLine="150" d="M676.5,716.13 C676.5,748.87 676.5,797.77 676.5,839.86 " fill="none" id="ClientStore-to-Client" style="stroke:#A80036;stroke-width:1.0;"/><polygon fill="#A80036" points="676.5,844.96,680.5,835.96,676.5,839.96,672.5,835.96,676.5,844.96" style="stroke:#A80036;stroke-width:1.0;"/><text fill="#000000" font-family="sans-serif" font-size="13" lengthAdjust="spacing" textLength="7" x="668.9422" y="737.0312">1</text><text fill="#000000" font-family="sans-serif" font-size="13" lengthAdjust="spacing" textLength="5" x="671.2617" y="834.1431">*</text><!--MD5=[b0f4f6db8206580012ef9cd998ed01c5]
link TestStore to Test--><path codeLine="151" d="M983.32,723.28 C983.25,739.2 983.18,758.15 983.1,777.94 " fill="none" id="TestStore-to-Test" style="stroke:#A80036;stroke-width:1.0;"/><polygon fill="#A80036" points="983.07,782.99,987.0957,774.0015,983.0843,777.99,979.0957,773.9786,983.07,782.99" style="stroke:#A80036;stroke-width:1.0;"/><text fill="#000000" font-family="sans-serif" font-size="13" lengthAdjust="spacing" textLength="7" x="975.8255" y="743.9913">1</text><text fill="#000000" font-family="sans-serif" font-size="13" lengthAdjust="spacing" textLength="5" x="977.9645" y="772.3126">*</text><!--MD5=[c23963f6e403fc3ebec8dae22c30ade6]
link Test to Parameter--><path codeLine="152" d="M1047.4,1066.2 C1056.3,1085.49 1065.03,1104.44 1072.8,1121.28 " fill="none" id="Test-to-Parameter" style="stroke:#A80036;stroke-width:1.0;"/><polygon fill="#A80036" points="1074.97,1125.97,1074.8244,1116.1222,1072.872,1121.4315,1067.5628,1119.479,1074.97,1125.97" style="stroke:#A80036;stroke-width:1.0;"/><text fill="#000000" font-family="sans-serif" font-size="13" lengthAdjust="spacing" textLength="7" x="1043.7578" y="1087.8857">1</text><text fill="#000000" font-family="sans-serif" font-size="13" lengthAdjust="spacing" textLength="5" x="1066.2505" y="1114.952">*</text><!--MD5=[8742b9b07f4ff1e96b776c10733812b1]
link Test to ParameterCategory--><path codeLine="153" d="M981.5,1066.15 C980.93,1146.09 980.25,1241.22 979.85,1297.72 " fill="none" id="Test-to-ParameterCategory" style="stroke:#A80036;stroke-width:1.0;"/><polygon fill="#A80036" points="979.82,1302.73,983.8714,1293.753,979.8486,1297.7301,975.8715,1293.7073,979.82,1302.73" style="stroke:#A80036;stroke-width:1.0;"/><text fill="#000000" font-family="sans-serif" font-size="13" lengthAdjust="spacing" textLength="7" x="974.2539" y="1087.8329">1</text><text fill="#000000" font-family="sans-serif" font-size="13" lengthAdjust="spacing" textLength="5" x="974.4862" y="1292.1327">*</text><!--MD5=[8736b4a2c9c998673735e132d7eb28f0]
link ClinicalAnalysisLabStore to ClinicalAnalysisLab--><path codeLine="154" d="M95.5,723.28 C95.5,759.64 95.5,811.81 95.5,853.77 " fill="none" id="ClinicalAnalysisLabStore-to-ClinicalAnalysisLab" style="stroke:#A80036;stroke-width:1.0;"/><polygon fill="#A80036" points="95.5,858.84,99.5,849.84,95.5,853.84,91.5,849.84,95.5,858.84" style="stroke:#A80036;stroke-width:1.0;"/><text fill="#000000" font-family="sans-serif" font-size="13" lengthAdjust="spacing" textLength="7" x="88.0297" y="743.9913">1</text><text fill="#000000" font-family="sans-serif" font-size="13" lengthAdjust="spacing" textLength="5" x="90.2266" y="848.2969">*</text><!--MD5=[2d8e804c08f19bbfa58617799cb10019]
link ImportTests to TestTypeStore--><path codeLine="155" d="M773.04,382.01 C777.54,401.27 782.36,422.46 786.5,442 C800.76,509.24 815.39,587.74 823.95,634.85 " fill="none" id="ImportTests-to-TestTypeStore" style="stroke:#A80036;stroke-width:1.0;stroke-dasharray:7.0,7.0;"/><polygon fill="#A80036" points="824.86,639.87,827.2002,630.3032,823.9731,634.9493,819.3271,631.7222,824.86,639.87" style="stroke:#A80036;stroke-width:1.0;"/><!--MD5=[d6cd263c047078ba792463fe8f3651cd]
link ImportTests to ParameterCategoryStore--><path codeLine="156" d="M688.79,348.14 C641.9,370.69 579.63,403.96 530.5,442 C458.21,497.97 388.25,578.12 347.04,628.85 " fill="none" id="ImportTests-to-ParameterCategoryStore" style="stroke:#A80036;stroke-width:1.0;stroke-dasharray:7.0,7.0;"/><polygon fill="#A80036" points="343.88,632.75,352.6499,628.2679,347.0243,628.8624,346.4298,623.2369,343.88,632.75" style="stroke:#A80036;stroke-width:1.0;"/><!--MD5=[3a7e9ada0bee8d3704f80af659d28e9f]
link ImportTests to ParameterStore--><path codeLine="157" d="M826.33,374.7 C850.75,395.48 878.19,419.42 902.5,442 C973.42,507.87 1052.11,588.58 1097.78,636.22 " fill="none" id="ImportTests-to-ParameterStore" style="stroke:#A80036;stroke-width:1.0;stroke-dasharray:7.0,7.0;"/><polygon fill="#A80036" points="1101.28,639.88,1097.9496,630.6113,1097.8239,636.2668,1092.1684,636.1411,1101.28,639.88" style="stroke:#A80036;stroke-width:1.0;"/><!--MD5=[cd452e96874e337e75f61c4fc3e4c954]
link ImportTests to ClinicalAnalysisLabStore--><path codeLine="158" d="M688.97,333.17 C612.98,352.23 488.23,388.63 390.5,442 C295.38,493.95 199.93,576.97 144.35,629.16 " fill="none" id="ImportTests-to-ClinicalAnalysisLabStore" style="stroke:#A80036;stroke-width:1.0;stroke-dasharray:7.0,7.0;"/><polygon fill="#A80036" points="140.42,632.86,149.7153,629.6045,144.061,629.4332,144.2323,623.7789,140.42,632.86" style="stroke:#A80036;stroke-width:1.0;"/><!--MD5=[59fee5fa91eead9bdeaceb707989a59f]
link ImportTests to TestStore--><path codeLine="159" d="M798.17,382.19 C842.66,452.96 912.96,564.79 952.97,628.44 " fill="none" id="ImportTests-to-TestStore" style="stroke:#A80036;stroke-width:1.0;stroke-dasharray:7.0,7.0;"/><polygon fill="#A80036" points="955.8,632.93,954.3984,623.1814,953.1397,628.6964,947.6247,627.4378,955.8,632.93" style="stroke:#A80036;stroke-width:1.0;"/><!--MD5=[bfb9fd21f794a0eaa350dab55323a35f]
link ImportTests to ClientStore--><path codeLine="160" d="M754.58,382.12 C750.93,434.44 742.76,509.61 724.5,573 C718.41,594.14 708.62,616.43 699.47,634.93 " fill="none" id="ImportTests-to-ClientStore" style="stroke:#A80036;stroke-width:1.0;stroke-dasharray:7.0,7.0;"/><polygon fill="#A80036" points="697.16,639.55,704.7706,633.2987,699.4018,635.0807,697.6198,629.7119,697.16,639.55" style="stroke:#A80036;stroke-width:1.0;"/><!--MD5=[717d4b03d3c4372f4eafe5e342a0a7dd]
link Company to AuthFacade--><path codeLine="161" d="M582.6,573.16 C569.83,591.56 556.14,611.27 544.16,628.53 " fill="none" id="Company-to-AuthFacade" style="stroke:#A80036;stroke-width:1.0;stroke-dasharray:7.0,7.0;"/><polygon fill="#A80036" points="541.15,632.86,549.569,627.7493,544.002,628.7532,542.9981,623.1861,541.15,632.86" style="stroke:#A80036;stroke-width:1.0;"/><!--MD5=[8fa5194589bffb331f8c271d11ca426a]
link AuthFacade to UserStore--><path codeLine="162" d="M510.5,723.28 C510.5,768.11 510.5,836.94 510.5,881.09 " fill="none" id="AuthFacade-to-UserStore" style="stroke:#A80036;stroke-width:1.0;stroke-dasharray:7.0,7.0;"/><polygon fill="#A80036" points="510.5,886.35,514.5,877.35,510.5,881.35,506.5,877.35,510.5,886.35" style="stroke:#A80036;stroke-width:1.0;"/><!--MD5=[d1e0f6ecc4becbdb384d024f9b519f21]
link UserStore to User--><path codeLine="163" d="M510.5,962.74 C510.5,1006.05 510.5,1077.96 510.5,1127.89 " fill="none" id="UserStore-to-User" style="stroke:#A80036;stroke-width:1.0;stroke-dasharray:7.0,7.0;"/><polygon fill="#A80036" points="510.5,1132.96,514.5,1123.96,510.5,1127.96,506.5,1123.96,510.5,1132.96" style="stroke:#A80036;stroke-width:1.0;"/><!--MD5=[6df8849671cb880f6936e94aa30db6f9]
link Parameter to ParameterCategory--><path codeLine="164" d="M1057.8,1243.35 C1044.12,1261.46 1029.18,1281.24 1016.05,1298.62 " fill="none" id="Parameter-to-ParameterCategory" style="stroke:#A80036;stroke-width:1.0;"/><polygon fill="#A80036" points="1012.75,1302.98,1021.3691,1298.2145,1015.766,1298.992,1014.9884,1293.3889,1012.75,1302.98" style="stroke:#A80036;stroke-width:1.0;"/><text fill="#000000" font-family="sans-serif" font-size="13" lengthAdjust="spacing" textLength="7" x="1045.3425" y="1264.5846">1</text><text fill="#000000" font-family="sans-serif" font-size="13" lengthAdjust="spacing" textLength="5" x="1012.6508" y="1292.0923">*</text><!--MD5=[7bd3c92eb07a365b6c9931e3d01a7db4]
@startuml

class ImportTestUI{
}

class ImportTestController{
+readTestsfromFile()
+saveFileTestList()


}

class TestStore{
-List<Test> array
+createTest()
+saveTest()
}

class Test{
-String testCode
-String testNhsNumber
-String clientTin
-TestType testType
-List<ParameterCategory> catList
-List<Parameter> paList
-createdDate
-State state
-List<TestParameter> testParam
-LocalDateTime sampleCreatedDate
-LocalDateTime analysedData
-LocalDateTime diagnosticDate
-LocalDateTime validatedDate
+setSampleCreatedDate()
+setAnalysedData()
+setDiagnosticDate()
+setValidatedDate()
}

class Company{

+getClientList()
+getParameterCategoryList()
+getTestList()
+getTestTypeList()
+getParameterList()
+getClinicalAnalysisLabList()

}

class ImportTests{
-List<String> testFileList
+readTestFromCSV()
+getTestFileList()
+createClientfromFile()
+verifyClinic()
+createTestfromFile()
}

class ClinicalAnalysisLabStore{
-List<ClinicalAnalysisLab> array
+verifyClinicalLabID()
+saveClient()
}
class ClinicalAnalysisLab{
-String name
-String address
-String id
-String tin
-String phoneNumber
+getId()
}
class AuthFacade{
-UserSession userSession
-UserStore users
+addUserWithRole()
}
class UserStore{
-Set<User> users
+create()
}
class User{
-Email id
-Password password
-String name
-Set<UserRole> role
}

class ClientStore{
-List<Client> array
+createClient()
}

class Client{
-String phoneNumber
-String cc
-String nhs
-String tinNumber
-Date birthDate
-String email
-String name
-String sex

}
class ParameterStore{
-List<Parameter> pList
+getParameterExist()
}
class Parameter{
-String name
-String code
-String description
-ParameterCategory cat
+getName()
}
class TestTypeStore{
-List<TestType> array
+getTestTypeExist()
}
class TestType{
-String testID
-String description
-String collectingMethod
-List<ParameterCategory> array
}

class ParameterCategoryStore{
-List<ParameterCategory> pcList
+getParameterCategoryExist()
+createParameterCategory()
}
class ParameterCategory{
-String code
-String name
+getName()
}

ImportTestUI ..> ImportTestController
ImportTestController ..> ImportTests
ImportTestController ..> Company
ImportTests ..> Company
Company "1"- ->"*" ClinicalAnalysisLabStore
Company "1"- ->"*" ClientStore
Company "1"- ->"*"TestStore
Company "1"- ->"*" ParameterStore
Company "1"- ->"*" ParameterCategoryStore
Company "1"- ->"*" TestTypeStore
TestTypeStore "1"- ->"*" TestType
Test "1"- ->"*" TestType
ParameterStore "1"- ->"*" Parameter
ParameterCategoryStore "1"- ->"*" ParameterCategory
ClientStore "1"- ->"*" Client
TestStore "1"- ->"*" Test
Test "1"- ->"*" Parameter
Test "1"- ->"*" ParameterCategory
ClinicalAnalysisLabStore "1"- ->"*" ClinicalAnalysisLab
ImportTests ..> TestTypeStore
ImportTests ..> ParameterCategoryStore
ImportTests ..> ParameterStore
ImportTests ..> ClinicalAnalysisLabStore
ImportTests ..> TestStore
ImportTests ..> ClientStore
Company ..> AuthFacade
AuthFacade ..> UserStore
UserStore ..> User
Parameter "1"- ->"*" ParameterCategory


@enduml

PlantUML version 1.2021.7(Sun May 23 13:40:07 BST 2021)
(GPL source distribution)
Java Runtime: OpenJDK Runtime Environment
JVM: OpenJDK 64-Bit Server VM
Default Encoding: Cp1252
Language: en
Country: US
--></g></svg>