<?xml version="1.0" encoding="UTF-8" standalone="no"?><svg xmlns="http://www.w3.org/2000/svg" xmlns:xlink="http://www.w3.org/1999/xlink" contentScriptType="application/ecmascript" contentStyleType="text/css" height="663.75px" preserveAspectRatio="none" style="width:575px;height:663px;" version="1.1" viewBox="0 0 575 663" width="575px" zoomAndPan="magnify"><defs><filter height="300%" id="fya9zlr6mculg" width="300%" x="-1" y="-1"><feGaussianBlur result="blurOut" stdDeviation="2.5"/><feColorMatrix in="blurOut" result="blurOut2" type="matrix" values="0 0 0 0 0 0 0 0 0 0 0 0 0 0 0 0 0 0 .4 0"/><feOffset dx="5.0" dy="5.0" in="blurOut2" result="blurOut3"/><feBlend in="SourceGraphic" in2="blurOut3" mode="normal"/></filter></defs><g><rect fill="#FFFFFF" filter="url(#fya9zlr6mculg)" height="421.084" style="stroke:#A80036;stroke-width:1.25;" width="12.5" x="145.625" y="124.5117"/><rect fill="#FFFFFF" filter="url(#fya9zlr6mculg)" height="37.9395" style="stroke:#A80036;stroke-width:1.25;" width="12.5" x="506.875" y="152.4512"/><rect fill="#FFFFFF" filter="url(#fya9zlr6mculg)" height="69.6289" style="stroke:#A80036;stroke-width:1.25;" width="12.5" x="506.875" y="228.3301"/><rect fill="#FFFFFF" filter="url(#fya9zlr6mculg)" height="37.9395" style="stroke:#A80036;stroke-width:1.25;" width="12.5" x="506.875" y="335.8984"/><rect fill="#FFFFFF" filter="url(#fya9zlr6mculg)" height="46.6895" style="stroke:#A80036;stroke-width:1.25;" width="12.5" x="506.875" y="411.7773"/><rect fill="#FFFFFF" filter="url(#fya9zlr6mculg)" height="49.1895" style="stroke:#A80036;stroke-width:1.25;" width="12.5" x="506.875" y="496.4063"/><rect fill="#FFFFFF" filter="url(#fya9zlr6mculg)" height="174.6973" style="stroke:#000000;stroke-width:2.5;" width="545.625" x="12.5" y="247.0801"/><line style="stroke:#A80036;stroke-width:1.25;stroke-dasharray:5.0,5.0;" x1="151.25" x2="151.25" y1="112.0117" y2="556.8457"/><line style="stroke:#A80036;stroke-width:1.25;stroke-dasharray:5.0,5.0;" x1="513.125" x2="513.125" y1="112.0117" y2="556.8457"/><text fill="#000000" font-family="sans-serif" font-size="17.5" lengthAdjust="spacing" textLength="246.25" x="25" y="108.1665">Clinical Chemistry Technologist</text><ellipse cx="151.875" cy="18.75" fill="#FEFECE" filter="url(#fya9zlr6mculg)" rx="10" ry="10" style="stroke:#A80036;stroke-width:2.5;"/><path d="M151.875,28.75 L151.875,62.5 M135.625,38.75 L168.125,38.75 M151.875,62.5 L135.625,81.25 M151.875,62.5 L168.125,81.25 " fill="none" filter="url(#fya9zlr6mculg)" style="stroke:#A80036;stroke-width:2.5;"/><text fill="#000000" font-family="sans-serif" font-size="17.5" lengthAdjust="spacing" textLength="246.25" x="25" y="573.7622">Clinical Chemistry Technologist</text><ellipse cx="151.875" cy="590.1074" fill="#FEFECE" filter="url(#fya9zlr6mculg)" rx="10" ry="10" style="stroke:#A80036;stroke-width:2.5;"/><path d="M151.875,600.1074 L151.875,633.8574 M135.625,610.1074 L168.125,610.1074 M151.875,633.8574 L135.625,652.6074 M151.875,633.8574 L168.125,652.6074 " fill="none" filter="url(#fya9zlr6mculg)" style="stroke:#A80036;stroke-width:2.5;"/><text fill="#000000" font-family="sans-serif" font-size="17.5" lengthAdjust="spacing" textLength="57.5" x="480.625" y="108.1665">System</text><ellipse cx="513.125" cy="18.75" fill="#FEFECE" filter="url(#fya9zlr6mculg)" rx="10" ry="10" style="stroke:#A80036;stroke-width:2.5;"/><path d="M513.125,28.75 L513.125,62.5 M496.875,38.75 L529.375,38.75 M513.125,62.5 L496.875,81.25 M513.125,62.5 L529.375,81.25 " fill="none" filter="url(#fya9zlr6mculg)" style="stroke:#A80036;stroke-width:2.5;"/><text fill="#000000" font-family="sans-serif" font-size="17.5" lengthAdjust="spacing" textLength="57.5" x="480.625" y="573.7622">System</text><ellipse cx="513.125" cy="590.1074" fill="#FEFECE" filter="url(#fya9zlr6mculg)" rx="10" ry="10" style="stroke:#A80036;stroke-width:2.5;"/><path d="M513.125,600.1074 L513.125,633.8574 M496.875,610.1074 L529.375,610.1074 M513.125,633.8574 L496.875,652.6074 M513.125,633.8574 L529.375,652.6074 " fill="none" filter="url(#fya9zlr6mculg)" style="stroke:#A80036;stroke-width:2.5;"/><rect fill="#FFFFFF" filter="url(#fya9zlr6mculg)" height="421.084" style="stroke:#A80036;stroke-width:1.25;" width="12.5" x="145.625" y="124.5117"/><rect fill="#FFFFFF" filter="url(#fya9zlr6mculg)" height="37.9395" style="stroke:#A80036;stroke-width:1.25;" width="12.5" x="506.875" y="152.4512"/><rect fill="#FFFFFF" filter="url(#fya9zlr6mculg)" height="69.6289" style="stroke:#A80036;stroke-width:1.25;" width="12.5" x="506.875" y="228.3301"/><rect fill="#FFFFFF" filter="url(#fya9zlr6mculg)" height="37.9395" style="stroke:#A80036;stroke-width:1.25;" width="12.5" x="506.875" y="335.8984"/><rect fill="#FFFFFF" filter="url(#fya9zlr6mculg)" height="46.6895" style="stroke:#A80036;stroke-width:1.25;" width="12.5" x="506.875" y="411.7773"/><rect fill="#FFFFFF" filter="url(#fya9zlr6mculg)" height="49.1895" style="stroke:#A80036;stroke-width:1.25;" width="12.5" x="506.875" y="496.4063"/><polygon fill="#A80036" points="491.875,147.4512,504.375,152.4512,491.875,157.4512,496.875,152.4512" style="stroke:#A80036;stroke-width:1.25;"/><line style="stroke:#A80036;stroke-width:1.25;" x1="158.125" x2="499.375" y1="152.4512" y2="152.4512"/><text fill="#000000" font-family="sans-serif" font-size="16.25" font-weight="bold" lengthAdjust="spacing" textLength="8.75" x="166.875" y="146.3806">1</text><text fill="#000000" font-family="sans-serif" font-size="16.25" lengthAdjust="spacing" textLength="296.25" x="180.625" y="146.3806">Asks for record the results of a given test</text><polygon fill="#A80036" points="171.875,185.3906,159.375,190.3906,171.875,195.3906,166.875,190.3906" style="stroke:#A80036;stroke-width:1.25;"/><line style="stroke:#A80036;stroke-width:1.25;stroke-dasharray:2.0,2.0;" x1="164.375" x2="511.875" y1="190.3906" y2="190.3906"/><text fill="#000000" font-family="sans-serif" font-size="16.25" font-weight="bold" lengthAdjust="spacing" textLength="8.75" x="179.375" y="184.3201">2</text><text fill="#000000" font-family="sans-serif" font-size="16.25" lengthAdjust="spacing" textLength="230" x="193.125" y="184.3201">Asks for the code of the sample</text><polygon fill="#A80036" points="491.875,223.3301,504.375,228.3301,491.875,233.3301,496.875,228.3301" style="stroke:#A80036;stroke-width:1.25;"/><line style="stroke:#A80036;stroke-width:1.25;" x1="158.125" x2="499.375" y1="228.3301" y2="228.3301"/><text fill="#000000" font-family="sans-serif" font-size="16.25" font-weight="bold" lengthAdjust="spacing" textLength="8.75" x="166.875" y="222.2595">3</text><text fill="#000000" font-family="sans-serif" font-size="16.25" lengthAdjust="spacing" textLength="153.75" x="180.625" y="222.2595">Inserts the sample ID</text><path d="M12.5,247.0801 L103.75,247.0801 L103.75,257.0801 L91.25,269.5801 L12.5,269.5801 L12.5,247.0801 " fill="#EEEEEE" style="stroke:#000000;stroke-width:1.25;"/><rect fill="none" height="174.6973" style="stroke:#000000;stroke-width:2.5;" width="545.625" x="12.5" y="247.0801"/><text fill="#000000" font-family="sans-serif" font-size="16.25" font-weight="bold" lengthAdjust="spacing" textLength="35" x="31.25" y="265.199">loop</text><text fill="#000000" font-family="sans-serif" font-size="13.75" font-weight="bold" lengthAdjust="spacing" textLength="160" x="122.5" y="263.8538">[for all the parameters]</text><polygon fill="#A80036" points="171.875,292.959,159.375,297.959,171.875,302.959,166.875,297.959" style="stroke:#A80036;stroke-width:1.25;"/><line style="stroke:#A80036;stroke-width:1.25;stroke-dasharray:2.0,2.0;" x1="164.375" x2="511.875" y1="297.959" y2="297.959"/><text fill="#000000" font-family="sans-serif" font-size="16.25" font-weight="bold" lengthAdjust="spacing" textLength="8.75" x="179.375" y="291.8884">4</text><text fill="#000000" font-family="sans-serif" font-size="16.25" lengthAdjust="spacing" textLength="305" x="193.125" y="291.8884">Show parameters and asks to choose one</text><polygon fill="#A80036" points="491.875,330.8984,504.375,335.8984,491.875,340.8984,496.875,335.8984" style="stroke:#A80036;stroke-width:1.25;"/><line style="stroke:#A80036;stroke-width:1.25;" x1="158.125" x2="499.375" y1="335.8984" y2="335.8984"/><text fill="#000000" font-family="sans-serif" font-size="16.25" font-weight="bold" lengthAdjust="spacing" textLength="8.75" x="166.875" y="329.8279">5</text><text fill="#000000" font-family="sans-serif" font-size="16.25" lengthAdjust="spacing" textLength="132.5" x="180.625" y="329.8279">Choose parameter</text><polygon fill="#A80036" points="171.875,368.8379,159.375,373.8379,171.875,378.8379,166.875,373.8379" style="stroke:#A80036;stroke-width:1.25;"/><line style="stroke:#A80036;stroke-width:1.25;" x1="164.375" x2="511.875" y1="373.8379" y2="373.8379"/><text fill="#000000" font-family="sans-serif" font-size="16.25" font-weight="bold" lengthAdjust="spacing" textLength="8.75" x="179.375" y="367.7673">6</text><text fill="#000000" font-family="sans-serif" font-size="16.25" lengthAdjust="spacing" textLength="236.25" x="193.125" y="367.7673">Asks for results value and metric</text><polygon fill="#A80036" points="491.875,406.7773,504.375,411.7773,491.875,416.7773,496.875,411.7773" style="stroke:#A80036;stroke-width:1.25;"/><line style="stroke:#A80036;stroke-width:1.25;" x1="158.125" x2="499.375" y1="411.7773" y2="411.7773"/><text fill="#000000" font-family="sans-serif" font-size="16.25" font-weight="bold" lengthAdjust="spacing" textLength="8.75" x="166.875" y="405.7068">7</text><text fill="#000000" font-family="sans-serif" font-size="16.25" lengthAdjust="spacing" textLength="220" x="180.625" y="405.7068">Types results value and metric</text><polygon fill="#A80036" points="171.875,453.4668,159.375,458.4668,171.875,463.4668,166.875,458.4668" style="stroke:#A80036;stroke-width:1.25;"/><line style="stroke:#A80036;stroke-width:1.25;stroke-dasharray:2.0,2.0;" x1="164.375" x2="511.875" y1="458.4668" y2="458.4668"/><text fill="#000000" font-family="sans-serif" font-size="16.25" font-weight="bold" lengthAdjust="spacing" textLength="8.75" x="179.375" y="452.3962">8</text><text fill="#000000" font-family="sans-serif" font-size="16.25" lengthAdjust="spacing" textLength="280" x="193.125" y="452.3962">Show all data and request confirmation</text><polygon fill="#A80036" points="491.875,491.4063,504.375,496.4063,491.875,501.4063,496.875,496.4063" style="stroke:#A80036;stroke-width:1.25;"/><line style="stroke:#A80036;stroke-width:1.25;" x1="158.125" x2="499.375" y1="496.4063" y2="496.4063"/><text fill="#000000" font-family="sans-serif" font-size="16.25" font-weight="bold" lengthAdjust="spacing" textLength="8.75" x="166.875" y="490.3357">9</text><text fill="#000000" font-family="sans-serif" font-size="16.25" lengthAdjust="spacing" textLength="160" x="180.625" y="490.3357">confirms the operation</text><polygon fill="#A80036" points="171.875,529.3457,159.375,534.3457,171.875,539.3457,166.875,534.3457" style="stroke:#A80036;stroke-width:1.25;"/><line style="stroke:#A80036;stroke-width:1.25;stroke-dasharray:2.0,2.0;" x1="164.375" x2="505.625" y1="534.3457" y2="534.3457"/><text fill="#000000" font-family="sans-serif" font-size="16.25" font-weight="bold" lengthAdjust="spacing" textLength="17.5" x="179.375" y="528.2751">10</text><text fill="#000000" font-family="sans-serif" font-size="16.25" lengthAdjust="spacing" textLength="106.25" x="201.875" y="528.2751">Show success</text><!--MD5=[22e6d05caea2c973a0b204c2d53a5696]
@startuml
autonumber
actor "Clinical Chemistry Technologist" as cct
actor "System" as SYS
activate cct
cct -> SYS: Asks for record the results of a given test
activate SYS
SYS - -> cct: Asks for the code of the sample
deactivate SYS
cct -> SYS: Inserts the sample ID
activate SYS

loop for all the parameters
    SYS - -> cct: Show parameters and asks to choose one
    deactivate SYS
    cct -> SYS: Choose parameter
    activate SYS
    SYS -> cct: Asks for results value and metric
    deactivate SYS
    cct -> SYS: Types results value and metric
    activate SYS
end

SYS - -> cct: Show all data and request confirmation
deactivate SYS
cct -> SYS: confirms the operation
activate SYS
SYS - -> cct: Show success

@enduml

PlantUML version 1.2021.5(Sun Apr 25 12:20:28 BST 2021)
(GPL source distribution)
Java Runtime: OpenJDK Runtime Environment
JVM: Dynamic Code Evolution 64-Bit Server VM
Default Encoding: Cp1252
Language: pt
Country: PT
--></g></svg>