<?xml version="1.0" encoding="UTF-8" standalone="no"?><svg xmlns="http://www.w3.org/2000/svg" xmlns:xlink="http://www.w3.org/1999/xlink" contentScriptType="application/ecmascript" contentStyleType="text/css" height="531px" preserveAspectRatio="none" style="width:460px;height:531px;background:#FFFFFF;" version="1.1" viewBox="0 0 460 531" width="460px" zoomAndPan="magnify"><defs><filter height="300%" id="fy6srh7ub2duy" width="300%" x="-1" y="-1"><feGaussianBlur result="blurOut" stdDeviation="2.0"/><feColorMatrix in="blurOut" result="blurOut2" type="matrix" values="0 0 0 0 0 0 0 0 0 0 0 0 0 0 0 0 0 0 .4 0"/><feOffset dx="4.0" dy="4.0" in="blurOut2" result="blurOut3"/><feBlend in="SourceGraphic" in2="blurOut3" mode="normal"/></filter></defs><g><rect fill="#FFFFFF" filter="url(#fy6srh7ub2duy)" height="336.8672" style="stroke:#A80036;stroke-width:1.0;" width="10" x="116.5" y="99.6094"/><rect fill="#FFFFFF" filter="url(#fy6srh7ub2duy)" height="30.3516" style="stroke:#A80036;stroke-width:1.0;" width="10" x="405.5" y="121.9609"/><rect fill="#FFFFFF" filter="url(#fy6srh7ub2duy)" height="55.7031" style="stroke:#A80036;stroke-width:1.0;" width="10" x="405.5" y="182.6641"/><rect fill="#FFFFFF" filter="url(#fy6srh7ub2duy)" height="30.3516" style="stroke:#A80036;stroke-width:1.0;" width="10" x="405.5" y="268.7188"/><rect fill="#FFFFFF" filter="url(#fy6srh7ub2duy)" height="37.3516" style="stroke:#A80036;stroke-width:1.0;" width="10" x="405.5" y="329.4219"/><rect fill="#FFFFFF" filter="url(#fy6srh7ub2duy)" height="39.3516" style="stroke:#A80036;stroke-width:1.0;" width="10" x="405.5" y="397.125"/><rect fill="#FFFFFF" filter="url(#fy6srh7ub2duy)" height="139.7578" style="stroke:#000000;stroke-width:2.0;" width="436.5" x="10" y="197.6641"/><line style="stroke:#A80036;stroke-width:1.0;stroke-dasharray:5.0,5.0;" x1="121" x2="121" y1="89.6094" y2="445.4766"/><line style="stroke:#A80036;stroke-width:1.0;stroke-dasharray:5.0,5.0;" x1="410.5" x2="410.5" y1="89.6094" y2="445.4766"/><text fill="#000000" font-family="sans-serif" font-size="14" lengthAdjust="spacing" textLength="197" x="20" y="86.5332">Clinical Chemistry Technologist</text><ellipse cx="121.5" cy="15" fill="#FEFECE" filter="url(#fy6srh7ub2duy)" rx="8" ry="8" style="stroke:#A80036;stroke-width:2.0;"/><path d="M121.5,23 L121.5,50 M108.5,31 L134.5,31 M121.5,50 L108.5,65 M121.5,50 L134.5,65 " fill="none" filter="url(#fy6srh7ub2duy)" style="stroke:#A80036;stroke-width:2.0;"/><text fill="#000000" font-family="sans-serif" font-size="14" lengthAdjust="spacing" textLength="197" x="20" y="459.0098">Clinical Chemistry Technologist</text><ellipse cx="121.5" cy="472.0859" fill="#FEFECE" filter="url(#fy6srh7ub2duy)" rx="8" ry="8" style="stroke:#A80036;stroke-width:2.0;"/><path d="M121.5,480.0859 L121.5,507.0859 M108.5,488.0859 L134.5,488.0859 M121.5,507.0859 L108.5,522.0859 M121.5,507.0859 L134.5,522.0859 " fill="none" filter="url(#fy6srh7ub2duy)" style="stroke:#A80036;stroke-width:2.0;"/><text fill="#000000" font-family="sans-serif" font-size="14" lengthAdjust="spacing" textLength="46" x="384.5" y="86.5332">System</text><ellipse cx="410.5" cy="15" fill="#FEFECE" filter="url(#fy6srh7ub2duy)" rx="8" ry="8" style="stroke:#A80036;stroke-width:2.0;"/><path d="M410.5,23 L410.5,50 M397.5,31 L423.5,31 M410.5,50 L397.5,65 M410.5,50 L423.5,65 " fill="none" filter="url(#fy6srh7ub2duy)" style="stroke:#A80036;stroke-width:2.0;"/><text fill="#000000" font-family="sans-serif" font-size="14" lengthAdjust="spacing" textLength="46" x="384.5" y="459.0098">System</text><ellipse cx="410.5" cy="472.0859" fill="#FEFECE" filter="url(#fy6srh7ub2duy)" rx="8" ry="8" style="stroke:#A80036;stroke-width:2.0;"/><path d="M410.5,480.0859 L410.5,507.0859 M397.5,488.0859 L423.5,488.0859 M410.5,507.0859 L397.5,522.0859 M410.5,507.0859 L423.5,522.0859 " fill="none" filter="url(#fy6srh7ub2duy)" style="stroke:#A80036;stroke-width:2.0;"/><rect fill="#FFFFFF" filter="url(#fy6srh7ub2duy)" height="336.8672" style="stroke:#A80036;stroke-width:1.0;" width="10" x="116.5" y="99.6094"/><rect fill="#FFFFFF" filter="url(#fy6srh7ub2duy)" height="30.3516" style="stroke:#A80036;stroke-width:1.0;" width="10" x="405.5" y="121.9609"/><rect fill="#FFFFFF" filter="url(#fy6srh7ub2duy)" height="55.7031" style="stroke:#A80036;stroke-width:1.0;" width="10" x="405.5" y="182.6641"/><rect fill="#FFFFFF" filter="url(#fy6srh7ub2duy)" height="30.3516" style="stroke:#A80036;stroke-width:1.0;" width="10" x="405.5" y="268.7188"/><rect fill="#FFFFFF" filter="url(#fy6srh7ub2duy)" height="37.3516" style="stroke:#A80036;stroke-width:1.0;" width="10" x="405.5" y="329.4219"/><rect fill="#FFFFFF" filter="url(#fy6srh7ub2duy)" height="39.3516" style="stroke:#A80036;stroke-width:1.0;" width="10" x="405.5" y="397.125"/><polygon fill="#A80036" points="393.5,117.9609,403.5,121.9609,393.5,125.9609,397.5,121.9609" style="stroke:#A80036;stroke-width:1.0;"/><line style="stroke:#A80036;stroke-width:1.0;" x1="126.5" x2="399.5" y1="121.9609" y2="121.9609"/><text fill="#000000" font-family="sans-serif" font-size="13" font-weight="bold" lengthAdjust="spacing" textLength="7" x="133.5" y="117.1045">1</text><text fill="#000000" font-family="sans-serif" font-size="13" lengthAdjust="spacing" textLength="237" x="144.5" y="117.1045">Asks for record the results of a given test</text><polygon fill="#A80036" points="137.5,148.3125,127.5,152.3125,137.5,156.3125,133.5,152.3125" style="stroke:#A80036;stroke-width:1.0;"/><line style="stroke:#A80036;stroke-width:1.0;stroke-dasharray:2.0,2.0;" x1="131.5" x2="409.5" y1="152.3125" y2="152.3125"/><text fill="#000000" font-family="sans-serif" font-size="13" font-weight="bold" lengthAdjust="spacing" textLength="7" x="143.5" y="147.4561">2</text><text fill="#000000" font-family="sans-serif" font-size="13" lengthAdjust="spacing" textLength="184" x="154.5" y="147.4561">Asks for the code of the sample</text><polygon fill="#A80036" points="393.5,178.6641,403.5,182.6641,393.5,186.6641,397.5,182.6641" style="stroke:#A80036;stroke-width:1.0;"/><line style="stroke:#A80036;stroke-width:1.0;" x1="126.5" x2="399.5" y1="182.6641" y2="182.6641"/><text fill="#000000" font-family="sans-serif" font-size="13" font-weight="bold" lengthAdjust="spacing" textLength="7" x="133.5" y="177.8076">3</text><text fill="#000000" font-family="sans-serif" font-size="13" lengthAdjust="spacing" textLength="204" x="144.5" y="177.8076">Inserts the sample barcode number</text><path d="M10,197.6641 L83,197.6641 L83,205.6641 L73,215.6641 L10,215.6641 L10,197.6641 " fill="#EEEEEE" style="stroke:#000000;stroke-width:1.0;"/><rect fill="none" height="139.7578" style="stroke:#000000;stroke-width:2.0;" width="436.5" x="10" y="197.6641"/><text fill="#000000" font-family="sans-serif" font-size="13" font-weight="bold" lengthAdjust="spacing" textLength="28" x="25" y="212.1592">loop</text><text fill="#000000" font-family="sans-serif" font-size="11" font-weight="bold" lengthAdjust="spacing" textLength="128" x="98" y="211.083">[for all the parameters]</text><polygon fill="#A80036" points="137.5,234.3672,127.5,238.3672,137.5,242.3672,133.5,238.3672" style="stroke:#A80036;stroke-width:1.0;"/><line style="stroke:#A80036;stroke-width:1.0;stroke-dasharray:2.0,2.0;" x1="131.5" x2="409.5" y1="238.3672" y2="238.3672"/><text fill="#000000" font-family="sans-serif" font-size="13" font-weight="bold" lengthAdjust="spacing" textLength="7" x="143.5" y="233.5107">4</text><text fill="#000000" font-family="sans-serif" font-size="13" lengthAdjust="spacing" textLength="244" x="154.5" y="233.5107">Show parameters and asks to choose one</text><polygon fill="#A80036" points="393.5,264.7188,403.5,268.7188,393.5,272.7188,397.5,268.7188" style="stroke:#A80036;stroke-width:1.0;"/><line style="stroke:#A80036;stroke-width:1.0;" x1="126.5" x2="399.5" y1="268.7188" y2="268.7188"/><text fill="#000000" font-family="sans-serif" font-size="13" font-weight="bold" lengthAdjust="spacing" textLength="7" x="133.5" y="263.8623">5</text><text fill="#000000" font-family="sans-serif" font-size="13" lengthAdjust="spacing" textLength="106" x="144.5" y="263.8623">Choose parameter</text><polygon fill="#A80036" points="137.5,295.0703,127.5,299.0703,137.5,303.0703,133.5,299.0703" style="stroke:#A80036;stroke-width:1.0;"/><line style="stroke:#A80036;stroke-width:1.0;" x1="131.5" x2="409.5" y1="299.0703" y2="299.0703"/><text fill="#000000" font-family="sans-serif" font-size="13" font-weight="bold" lengthAdjust="spacing" textLength="7" x="143.5" y="294.2139">6</text><text fill="#000000" font-family="sans-serif" font-size="13" lengthAdjust="spacing" textLength="189" x="154.5" y="294.2139">Asks for results value and metric</text><polygon fill="#A80036" points="393.5,325.4219,403.5,329.4219,393.5,333.4219,397.5,329.4219" style="stroke:#A80036;stroke-width:1.0;"/><line style="stroke:#A80036;stroke-width:1.0;" x1="126.5" x2="399.5" y1="329.4219" y2="329.4219"/><text fill="#000000" font-family="sans-serif" font-size="13" font-weight="bold" lengthAdjust="spacing" textLength="7" x="133.5" y="324.5654">7</text><text fill="#000000" font-family="sans-serif" font-size="13" lengthAdjust="spacing" textLength="176" x="144.5" y="324.5654">Types results value and metric</text><polygon fill="#A80036" points="137.5,362.7734,127.5,366.7734,137.5,370.7734,133.5,366.7734" style="stroke:#A80036;stroke-width:1.0;"/><line style="stroke:#A80036;stroke-width:1.0;stroke-dasharray:2.0,2.0;" x1="131.5" x2="409.5" y1="366.7734" y2="366.7734"/><text fill="#000000" font-family="sans-serif" font-size="13" font-weight="bold" lengthAdjust="spacing" textLength="7" x="143.5" y="361.917">8</text><text fill="#000000" font-family="sans-serif" font-size="13" lengthAdjust="spacing" textLength="224" x="154.5" y="361.917">Show all data and request confirmation</text><polygon fill="#A80036" points="393.5,393.125,403.5,397.125,393.5,401.125,397.5,397.125" style="stroke:#A80036;stroke-width:1.0;"/><line style="stroke:#A80036;stroke-width:1.0;" x1="126.5" x2="399.5" y1="397.125" y2="397.125"/><text fill="#000000" font-family="sans-serif" font-size="13" font-weight="bold" lengthAdjust="spacing" textLength="7" x="133.5" y="392.2686">9</text><text fill="#000000" font-family="sans-serif" font-size="13" lengthAdjust="spacing" textLength="128" x="144.5" y="392.2686">confirms the operation</text><polygon fill="#A80036" points="137.5,423.4766,127.5,427.4766,137.5,431.4766,133.5,427.4766" style="stroke:#A80036;stroke-width:1.0;"/><line style="stroke:#A80036;stroke-width:1.0;stroke-dasharray:2.0,2.0;" x1="131.5" x2="404.5" y1="427.4766" y2="427.4766"/><text fill="#000000" font-family="sans-serif" font-size="13" font-weight="bold" lengthAdjust="spacing" textLength="14" x="143.5" y="422.6201">10</text><text fill="#000000" font-family="sans-serif" font-size="13" lengthAdjust="spacing" textLength="85" x="161.5" y="422.6201">Show success</text><!--MD5=[d5c15bba2057ab5dd469bac97bd91dea]
@startuml
autonumber
actor "Clinical Chemistry Technologist" as cct
actor "System" as SYS
activate cct
cct -> SYS: Asks for record the results of a given test
activate SYS
SYS - -> cct: Asks for the code of the sample
deactivate SYS
cct -> SYS: Inserts the sample barcode number
activate SYS

loop for all the parameters
    SYS - -> cct: Show parameters and asks to choose one
    deactivate SYS
    cct -> SYS: Choose parameter
    activate SYS
    SYS -> cct: Asks for results value and metric
    deactivate SYS
    cct -> SYS: Types results value and metric
    activate SYS
end

SYS - -> cct: Show all data and request confirmation
deactivate SYS
cct -> SYS: confirms the operation
activate SYS
SYS - -> cct: Show success

@enduml

PlantUML version 1.2021.7(Sun May 23 13:40:07 BST 2021)
(GPL source distribution)
Java Runtime: OpenJDK Runtime Environment
JVM: Dynamic Code Evolution 64-Bit Server VM
Default Encoding: Cp1252
Language: pt
Country: PT
--></g></svg>