<?xml version="1.0" encoding="UTF-8" standalone="no"?><svg xmlns="http://www.w3.org/2000/svg" xmlns:xlink="http://www.w3.org/1999/xlink" contentScriptType="application/ecmascript" contentStyleType="text/css" height="606px" preserveAspectRatio="none" style="width:965px;height:606px;" version="1.1" viewBox="0 0 965 606" width="965.25px" zoomAndPan="magnify"><defs><filter height="300%" id="f1lkhw3akwzjh1" width="300%" x="-1" y="-1"><feGaussianBlur result="blurOut" stdDeviation="1.5"/><feColorMatrix in="blurOut" result="blurOut2" type="matrix" values="0 0 0 0 0 0 0 0 0 0 0 0 0 0 0 0 0 0 .4 0"/><feOffset dx="3.0" dy="3.0" in="blurOut2" result="blurOut3"/><feBlend in="SourceGraphic" in2="blurOut3" mode="normal"/></filter></defs><g><rect fill="#FFFFFF" filter="url(#f1lkhw3akwzjh1)" height="460.7871" style="stroke:#A80036;stroke-width:0.75;" width="7.5" x="87.375" y="74.707"/><rect fill="#FFFFFF" filter="url(#f1lkhw3akwzjh1)" height="22.7637" style="stroke:#A80036;stroke-width:0.75;" width="7.5" x="304.125" y="91.4707"/><rect fill="#FFFFFF" filter="url(#f1lkhw3akwzjh1)" height="123.082" style="stroke:#A80036;stroke-width:0.75;" width="7.5" x="304.125" y="136.998"/><rect fill="#FFFFFF" filter="url(#f1lkhw3akwzjh1)" height="22.7637" style="stroke:#A80036;stroke-width:0.75;" width="7.5" x="304.125" y="282.8438"/><rect fill="#FFFFFF" filter="url(#f1lkhw3akwzjh1)" height="154.8457" style="stroke:#A80036;stroke-width:0.75;" width="7.5" x="304.125" y="328.3711"/><rect fill="#FFFFFF" filter="url(#f1lkhw3akwzjh1)" height="29.5137" style="stroke:#A80036;stroke-width:0.75;" width="7.5" x="304.125" y="505.9805"/><rect fill="#FFFFFF" filter="url(#f1lkhw3akwzjh1)" height="58.541" style="stroke:#A80036;stroke-width:0.75;" width="7.5" x="530.625" y="159.7617"/><rect fill="#FFFFFF" filter="url(#f1lkhw3akwzjh1)" height="104.0684" style="stroke:#A80036;stroke-width:0.75;" width="7.5" x="530.625" y="351.1348"/><rect fill="#FFFFFF" filter="url(#f1lkhw3akwzjh1)" height="58.541" style="stroke:#A80036;stroke-width:0.75;" width="7.5" x="757.125" y="373.8984"/><rect fill="#FFFFFF" filter="url(#f1lkhw3akwzjh1)" height="231.6504" style="stroke:#000000;stroke-width:1.5;" width="778.125" x="7.5" y="229.5527"/><line style="stroke:#A80036;stroke-width:0.75;stroke-dasharray:5.0,5.0;" x1="90.75" x2="90.75" y1="67.207" y2="542.2441"/><line style="stroke:#A80036;stroke-width:0.75;stroke-dasharray:5.0,5.0;" x1="307.5" x2="307.5" y1="67.207" y2="542.2441"/><line style="stroke:#A80036;stroke-width:0.75;stroke-dasharray:5.0,5.0;" x1="534" x2="534" y1="67.207" y2="542.2441"/><line style="stroke:#A80036;stroke-width:0.75;stroke-dasharray:5.0,5.0;" x1="760.875" x2="760.875" y1="67.207" y2="542.2441"/><text fill="#000000" font-family="sans-serif" font-size="10.5" lengthAdjust="spacing" textLength="147.75" x="15" y="64.8999">Clinical Chemistry Technologist</text><ellipse cx="91.125" cy="11.25" fill="#FEFECE" filter="url(#f1lkhw3akwzjh1)" rx="6" ry="6" style="stroke:#A80036;stroke-width:1.5;"/><path d="M91.125,17.25 L91.125,37.5 M81.375,23.25 L100.875,23.25 M91.125,37.5 L81.375,48.75 M91.125,37.5 L100.875,48.75 " fill="none" filter="url(#f1lkhw3akwzjh1)" style="stroke:#A80036;stroke-width:1.5;"/><text fill="#000000" font-family="sans-serif" font-size="10.5" lengthAdjust="spacing" textLength="147.75" x="15" y="552.394">Clinical Chemistry Technologist</text><ellipse cx="91.125" cy="562.2012" fill="#FEFECE" filter="url(#f1lkhw3akwzjh1)" rx="6" ry="6" style="stroke:#A80036;stroke-width:1.5;"/><path d="M91.125,568.2012 L91.125,588.4512 M81.375,574.2012 L100.875,574.2012 M91.125,588.4512 L81.375,599.7012 M91.125,588.4512 L100.875,599.7012 " fill="none" filter="url(#f1lkhw3akwzjh1)" style="stroke:#A80036;stroke-width:1.5;"/><rect fill="#FEFECE" filter="url(#f1lkhw3akwzjh1)" height="23.707" style="stroke:#A80036;stroke-width:1.125;" width="89.25" x="261.75" y="39.75"/><text fill="#000000" font-family="sans-serif" font-size="10.5" lengthAdjust="spacing" textLength="78.75" x="267" y="55.8999">RecordResultsUI</text><rect fill="#FEFECE" filter="url(#f1lkhw3akwzjh1)" height="23.707" style="stroke:#A80036;stroke-width:1.125;" width="89.25" x="261.75" y="541.4941"/><text fill="#000000" font-family="sans-serif" font-size="10.5" lengthAdjust="spacing" textLength="78.75" x="267" y="557.644">RecordResultsUI</text><rect fill="#FEFECE" filter="url(#f1lkhw3akwzjh1)" height="23.707" style="stroke:#A80036;stroke-width:1.125;" width="126.75" x="469.5" y="39.75"/><text fill="#000000" font-family="sans-serif" font-size="10.5" lengthAdjust="spacing" textLength="116.25" x="474.75" y="55.8999">RecordResultsController</text><rect fill="#FEFECE" filter="url(#f1lkhw3akwzjh1)" height="23.707" style="stroke:#A80036;stroke-width:1.125;" width="126.75" x="469.5" y="541.4941"/><text fill="#000000" font-family="sans-serif" font-size="10.5" lengthAdjust="spacing" textLength="116.25" x="474.75" y="557.644">RecordResultsController</text><rect fill="#FEFECE" filter="url(#f1lkhw3akwzjh1)" height="23.707" style="stroke:#A80036;stroke-width:1.125;" width="31.5" x="743.625" y="39.75"/><text fill="#000000" font-family="sans-serif" font-size="10.5" lengthAdjust="spacing" textLength="21" x="748.875" y="55.8999">Test</text><rect fill="#FEFECE" filter="url(#f1lkhw3akwzjh1)" height="23.707" style="stroke:#A80036;stroke-width:1.125;" width="31.5" x="743.625" y="541.4941"/><text fill="#000000" font-family="sans-serif" font-size="10.5" lengthAdjust="spacing" textLength="21" x="748.875" y="557.644">Test</text><rect fill="#FFFFFF" filter="url(#f1lkhw3akwzjh1)" height="460.7871" style="stroke:#A80036;stroke-width:0.75;" width="7.5" x="87.375" y="74.707"/><rect fill="#FFFFFF" filter="url(#f1lkhw3akwzjh1)" height="22.7637" style="stroke:#A80036;stroke-width:0.75;" width="7.5" x="304.125" y="91.4707"/><rect fill="#FFFFFF" filter="url(#f1lkhw3akwzjh1)" height="123.082" style="stroke:#A80036;stroke-width:0.75;" width="7.5" x="304.125" y="136.998"/><rect fill="#FFFFFF" filter="url(#f1lkhw3akwzjh1)" height="22.7637" style="stroke:#A80036;stroke-width:0.75;" width="7.5" x="304.125" y="282.8438"/><rect fill="#FFFFFF" filter="url(#f1lkhw3akwzjh1)" height="154.8457" style="stroke:#A80036;stroke-width:0.75;" width="7.5" x="304.125" y="328.3711"/><rect fill="#FFFFFF" filter="url(#f1lkhw3akwzjh1)" height="29.5137" style="stroke:#A80036;stroke-width:0.75;" width="7.5" x="304.125" y="505.9805"/><rect fill="#FFFFFF" filter="url(#f1lkhw3akwzjh1)" height="58.541" style="stroke:#A80036;stroke-width:0.75;" width="7.5" x="530.625" y="159.7617"/><rect fill="#FFFFFF" filter="url(#f1lkhw3akwzjh1)" height="104.0684" style="stroke:#A80036;stroke-width:0.75;" width="7.5" x="530.625" y="351.1348"/><rect fill="#FFFFFF" filter="url(#f1lkhw3akwzjh1)" height="58.541" style="stroke:#A80036;stroke-width:0.75;" width="7.5" x="757.125" y="373.8984"/><polygon fill="#A80036" points="295.125,88.4707,302.625,91.4707,295.125,94.4707,298.125,91.4707" style="stroke:#A80036;stroke-width:0.75;"/><line style="stroke:#A80036;stroke-width:0.75;" x1="94.875" x2="299.625" y1="91.4707" y2="91.4707"/><text fill="#000000" font-family="sans-serif" font-size="9.75" font-weight="bold" lengthAdjust="spacing" textLength="5.25" x="100.125" y="87.8284">1</text><text fill="#000000" font-family="sans-serif" font-size="9.75" lengthAdjust="spacing" textLength="177.75" x="108.375" y="87.8284">Asks for record the results of a given test</text><polygon fill="#A80036" points="103.125,111.2344,95.625,114.2344,103.125,117.2344,100.125,114.2344" style="stroke:#A80036;stroke-width:0.75;"/><line style="stroke:#A80036;stroke-width:0.75;stroke-dasharray:2.0,2.0;" x1="98.625" x2="307.125" y1="114.2344" y2="114.2344"/><text fill="#000000" font-family="sans-serif" font-size="9.75" font-weight="bold" lengthAdjust="spacing" textLength="5.25" x="107.625" y="110.592">2</text><text fill="#000000" font-family="sans-serif" font-size="9.75" lengthAdjust="spacing" textLength="138" x="115.875" y="110.592">Asks for the code of the sample</text><polygon fill="#A80036" points="295.125,133.998,302.625,136.998,295.125,139.998,298.125,136.998" style="stroke:#A80036;stroke-width:0.75;"/><line style="stroke:#A80036;stroke-width:0.75;" x1="94.875" x2="299.625" y1="136.998" y2="136.998"/><text fill="#000000" font-family="sans-serif" font-size="9.75" font-weight="bold" lengthAdjust="spacing" textLength="5.25" x="100.125" y="133.3557">3</text><text fill="#000000" font-family="sans-serif" font-size="9.75" lengthAdjust="spacing" textLength="92.25" x="108.375" y="133.3557">Inserts the sample ID</text><polygon fill="#A80036" points="521.625,156.7617,529.125,159.7617,521.625,162.7617,524.625,159.7617" style="stroke:#A80036;stroke-width:0.75;"/><line style="stroke:#A80036;stroke-width:0.75;" x1="311.625" x2="526.125" y1="159.7617" y2="159.7617"/><text fill="#000000" font-family="sans-serif" font-size="9.75" font-weight="bold" lengthAdjust="spacing" textLength="5.25" x="316.875" y="156.1194">4</text><text fill="#000000" font-family="sans-serif" font-size="9.75" lengthAdjust="spacing" textLength="156.75" x="325.125" y="156.1194">SD_getTestParameterList(sampleId)</text><rect fill="#FFFFFF" filter="url(#f1lkhw3akwzjh1)" height="32.0273" style="stroke:#000000;stroke-width:1.5;" width="217.5" x="467.25" y="165.7617"/><polygon fill="#EEEEEE" points="467.25,165.7617,513.75,165.7617,513.75,171.7617,506.25,179.2617,467.25,179.2617,467.25,165.7617" style="stroke:#000000;stroke-width:1.5;"/><text fill="#000000" font-family="sans-serif" font-size="9.75" font-weight="bold" lengthAdjust="spacing" textLength="12.75" x="477" y="177.3831">ref</text><text fill="#000000" font-family="sans-serif" font-size="9.75" lengthAdjust="spacing" textLength="211.5" x="471.75" y="192.3831">SD_AddTestResult(parameterCode,result,metric)</text><polygon fill="#A80036" points="319.875,215.3027,312.375,218.3027,319.875,221.3027,316.875,218.3027" style="stroke:#A80036;stroke-width:0.75;"/><line style="stroke:#A80036;stroke-width:0.75;stroke-dasharray:2.0,2.0;" x1="315.375" x2="533.625" y1="218.3027" y2="218.3027"/><text fill="#000000" font-family="sans-serif" font-size="9.75" font-weight="bold" lengthAdjust="spacing" textLength="5.25" x="324.375" y="214.6604">5</text><text fill="#000000" font-family="sans-serif" font-size="9.75" lengthAdjust="spacing" textLength="51" x="332.625" y="214.6604">tpStoreDTO</text><path d="M7.5,229.5527 L62.25,229.5527 L62.25,235.5527 L54.75,243.0527 L7.5,243.0527 L7.5,229.5527 " fill="#EEEEEE" style="stroke:#000000;stroke-width:0.75;"/><rect fill="none" height="231.6504" style="stroke:#000000;stroke-width:1.5;" width="778.125" x="7.5" y="229.5527"/><text fill="#000000" font-family="sans-serif" font-size="9.75" font-weight="bold" lengthAdjust="spacing" textLength="21" x="18.75" y="240.4241">loop</text><text fill="#000000" font-family="sans-serif" font-size="8.25" font-weight="bold" lengthAdjust="spacing" textLength="96" x="73.5" y="239.6169">[for all the parameters]</text><polygon fill="#A80036" points="103.125,257.0801,95.625,260.0801,103.125,263.0801,100.125,260.0801" style="stroke:#A80036;stroke-width:0.75;"/><line style="stroke:#A80036;stroke-width:0.75;stroke-dasharray:2.0,2.0;" x1="98.625" x2="307.125" y1="260.0801" y2="260.0801"/><text fill="#000000" font-family="sans-serif" font-size="9.75" font-weight="bold" lengthAdjust="spacing" textLength="5.25" x="107.625" y="256.4377">6</text><text fill="#000000" font-family="sans-serif" font-size="9.75" lengthAdjust="spacing" textLength="183" x="115.875" y="256.4377">Show parameters and asks to choose one</text><polygon fill="#A80036" points="295.125,279.8438,302.625,282.8438,295.125,285.8438,298.125,282.8438" style="stroke:#A80036;stroke-width:0.75;"/><line style="stroke:#A80036;stroke-width:0.75;" x1="94.875" x2="299.625" y1="282.8438" y2="282.8438"/><text fill="#000000" font-family="sans-serif" font-size="9.75" font-weight="bold" lengthAdjust="spacing" textLength="5.25" x="100.125" y="279.2014">7</text><text fill="#000000" font-family="sans-serif" font-size="9.75" lengthAdjust="spacing" textLength="79.5" x="108.375" y="279.2014">Choose parameter</text><polygon fill="#A80036" points="103.125,302.6074,95.625,305.6074,103.125,308.6074,100.125,305.6074" style="stroke:#A80036;stroke-width:0.75;"/><line style="stroke:#A80036;stroke-width:0.75;" x1="98.625" x2="307.125" y1="305.6074" y2="305.6074"/><text fill="#000000" font-family="sans-serif" font-size="9.75" font-weight="bold" lengthAdjust="spacing" textLength="5.25" x="107.625" y="301.9651">8</text><text fill="#000000" font-family="sans-serif" font-size="9.75" lengthAdjust="spacing" textLength="141.75" x="115.875" y="301.9651">Asks for results value and metric</text><polygon fill="#A80036" points="295.125,325.3711,302.625,328.3711,295.125,331.3711,298.125,328.3711" style="stroke:#A80036;stroke-width:0.75;"/><line style="stroke:#A80036;stroke-width:0.75;" x1="94.875" x2="299.625" y1="328.3711" y2="328.3711"/><text fill="#000000" font-family="sans-serif" font-size="9.75" font-weight="bold" lengthAdjust="spacing" textLength="5.25" x="100.125" y="324.7288">9</text><text fill="#000000" font-family="sans-serif" font-size="9.75" lengthAdjust="spacing" textLength="132" x="108.375" y="324.7288">Types results value and metric</text><polygon fill="#A80036" points="521.625,348.1348,529.125,351.1348,521.625,354.1348,524.625,351.1348" style="stroke:#A80036;stroke-width:0.75;"/><line style="stroke:#A80036;stroke-width:0.75;" x1="311.625" x2="526.125" y1="351.1348" y2="351.1348"/><text fill="#000000" font-family="sans-serif" font-size="9.75" font-weight="bold" lengthAdjust="spacing" textLength="10.5" x="316.875" y="347.4924">10</text><text fill="#000000" font-family="sans-serif" font-size="9.75" lengthAdjust="spacing" textLength="191.25" x="330.375" y="347.4924">addTestResult(parameterCode,result,metric)</text><polygon fill="#A80036" points="748.125,370.8984,755.625,373.8984,748.125,376.8984,751.125,373.8984" style="stroke:#A80036;stroke-width:0.75;"/><line style="stroke:#A80036;stroke-width:0.75;" x1="538.125" x2="752.625" y1="373.8984" y2="373.8984"/><text fill="#000000" font-family="sans-serif" font-size="9.75" font-weight="bold" lengthAdjust="spacing" textLength="10.5" x="543.375" y="370.2561">11</text><text fill="#000000" font-family="sans-serif" font-size="9.75" lengthAdjust="spacing" textLength="191.25" x="556.875" y="370.2561">addTestResult(parameterCode,result,metric)</text><rect fill="#FFFFFF" filter="url(#f1lkhw3akwzjh1)" height="32.0273" style="stroke:#000000;stroke-width:1.5;" width="217.5" x="741.375" y="379.8984"/><polygon fill="#EEEEEE" points="741.375,379.8984,787.875,379.8984,787.875,385.8984,780.375,393.3984,741.375,393.3984,741.375,379.8984" style="stroke:#000000;stroke-width:1.5;"/><text fill="#000000" font-family="sans-serif" font-size="9.75" font-weight="bold" lengthAdjust="spacing" textLength="12.75" x="751.125" y="391.5198">ref</text><text fill="#000000" font-family="sans-serif" font-size="9.75" lengthAdjust="spacing" textLength="211.5" x="745.875" y="406.5198">SD_AddTestResult(parameterCode,result,metric)</text><polygon fill="#A80036" points="546.375,429.4395,538.875,432.4395,546.375,435.4395,543.375,432.4395" style="stroke:#A80036;stroke-width:0.75;"/><line style="stroke:#A80036;stroke-width:0.75;stroke-dasharray:2.0,2.0;" x1="541.875" x2="760.125" y1="432.4395" y2="432.4395"/><text fill="#000000" font-family="sans-serif" font-size="9.75" font-weight="bold" lengthAdjust="spacing" textLength="10.5" x="550.875" y="428.7971">12</text><text fill="#000000" font-family="sans-serif" font-size="9.75" lengthAdjust="spacing" textLength="10.5" x="564.375" y="428.7971">ok</text><polygon fill="#A80036" points="319.875,452.2031,312.375,455.2031,319.875,458.2031,316.875,455.2031" style="stroke:#A80036;stroke-width:0.75;"/><line style="stroke:#A80036;stroke-width:0.75;stroke-dasharray:2.0,2.0;" x1="315.375" x2="533.625" y1="455.2031" y2="455.2031"/><text fill="#000000" font-family="sans-serif" font-size="9.75" font-weight="bold" lengthAdjust="spacing" textLength="10.5" x="324.375" y="451.5608">13</text><text fill="#000000" font-family="sans-serif" font-size="9.75" lengthAdjust="spacing" textLength="10.5" x="337.875" y="451.5608">ok</text><polygon fill="#A80036" points="103.125,480.2168,95.625,483.2168,103.125,486.2168,100.125,483.2168" style="stroke:#A80036;stroke-width:0.75;"/><line style="stroke:#A80036;stroke-width:0.75;stroke-dasharray:2.0,2.0;" x1="98.625" x2="307.125" y1="483.2168" y2="483.2168"/><text fill="#000000" font-family="sans-serif" font-size="9.75" font-weight="bold" lengthAdjust="spacing" textLength="10.5" x="107.625" y="479.5745">14</text><text fill="#000000" font-family="sans-serif" font-size="9.75" lengthAdjust="spacing" textLength="168" x="121.125" y="479.5745">Show all data and request confirmation</text><polygon fill="#A80036" points="295.125,502.9805,302.625,505.9805,295.125,508.9805,298.125,505.9805" style="stroke:#A80036;stroke-width:0.75;"/><line style="stroke:#A80036;stroke-width:0.75;" x1="94.875" x2="299.625" y1="505.9805" y2="505.9805"/><text fill="#000000" font-family="sans-serif" font-size="9.75" font-weight="bold" lengthAdjust="spacing" textLength="10.5" x="100.125" y="502.3381">15</text><text fill="#000000" font-family="sans-serif" font-size="9.75" lengthAdjust="spacing" textLength="96" x="113.625" y="502.3381">confirms the operation</text><polygon fill="#A80036" points="103.125,525.7441,95.625,528.7441,103.125,531.7441,100.125,528.7441" style="stroke:#A80036;stroke-width:0.75;"/><line style="stroke:#A80036;stroke-width:0.75;stroke-dasharray:2.0,2.0;" x1="98.625" x2="303.375" y1="528.7441" y2="528.7441"/><text fill="#000000" font-family="sans-serif" font-size="9.75" font-weight="bold" lengthAdjust="spacing" textLength="10.5" x="107.625" y="525.1018">16</text><text fill="#000000" font-family="sans-serif" font-size="9.75" lengthAdjust="spacing" textLength="63.75" x="121.125" y="525.1018">Show success</text><!--MD5=[d32f91a0010b8cb694284aedb8f2ccfe]
@startuml
autonumber
actor "Clinical Chemistry Technologist" as cct
participant "RecordResultsUI" as UI
participant "RecordResultsController" as ctrl
participant "Test" as Test

activate cct
cct -> UI: Asks for record the results of a given test
activate UI
UI - -> cct: Asks for the code of the sample
deactivate UI
cct -> UI: Inserts the sample ID
activate UI
UI -> ctrl: SD_getTestParameterList(sampleId)
ref over ctrl: SD_AddTestResult(parameterCode,result,metric)
activate ctrl
ctrl - -> UI: tpStoreDTO
deactivate ctrl
loop for all the parameters
    UI - -> cct: Show parameters and asks to choose one
    deactivate UI
    cct -> UI: Choose parameter
    activate UI
    UI -> cct: Asks for results value and metric
    deactivate UI
    cct -> UI: Types results value and metric
    activate UI

    UI -> ctrl: addTestResult(parameterCode,result,metric)
    activate ctrl
    ctrl -> Test: addTestResult(parameterCode,result,metric)
    activate Test
    ref over Test : SD_AddTestResult(parameterCode,result,metric)
    Test - -> ctrl : ok
    deactivate Test
    ctrl - -> UI: ok
    deactivate ctrl


end

UI - -> cct: Show all data and request confirmation
deactivate UI
cct -> UI: confirms the operation
activate UI
UI - -> cct: Show success



@enduml

PlantUML version 1.2021.5(Sun Apr 25 12:20:28 BST 2021)
(GPL source distribution)
Java Runtime: OpenJDK Runtime Environment
JVM: Dynamic Code Evolution 64-Bit Server VM
Default Encoding: Cp1252
Language: pt
Country: PT
--></g></svg>