<?xml version="1.0" encoding="UTF-8" standalone="no"?><svg xmlns="http://www.w3.org/2000/svg" xmlns:xlink="http://www.w3.org/1999/xlink" contentScriptType="application/ecmascript" contentStyleType="text/css" height="747px" preserveAspectRatio="none" style="width:1205px;height:747px;" version="1.1" viewBox="0 0 1205 747" width="1205px" zoomAndPan="magnify"><defs><filter height="300%" id="fldmb7ue0mh18" width="300%" x="-1" y="-1"><feGaussianBlur result="blurOut" stdDeviation="2.0"/><feColorMatrix in="blurOut" result="blurOut2" type="matrix" values="0 0 0 0 0 0 0 0 0 0 0 0 0 0 0 0 0 0 .4 0"/><feOffset dx="4.0" dy="4.0" in="blurOut2" result="blurOut3"/><feBlend in="SourceGraphic" in2="blurOut3" mode="normal"/></filter></defs><g><rect fill="#FFFFFF" filter="url(#fldmb7ue0mh18)" height="553.6797" style="stroke:#A80036;stroke-width:1.0;" width="10" x="116.5" y="99.6094"/><rect fill="#FFFFFF" filter="url(#fldmb7ue0mh18)" height="30.3516" style="stroke:#A80036;stroke-width:1.0;" width="10" x="405.5" y="121.9609"/><rect fill="#FFFFFF" filter="url(#fldmb7ue0mh18)" height="164.1094" style="stroke:#A80036;stroke-width:1.0;" width="10" x="405.5" y="182.6641"/><rect fill="#FFFFFF" filter="url(#fldmb7ue0mh18)" height="30.3516" style="stroke:#A80036;stroke-width:1.0;" width="10" x="405.5" y="377.125"/><rect fill="#FFFFFF" filter="url(#fldmb7ue0mh18)" height="206.4609" style="stroke:#A80036;stroke-width:1.0;" width="10" x="405.5" y="437.8281"/><rect fill="#FFFFFF" filter="url(#fldmb7ue0mh18)" height="78.0547" style="stroke:#A80036;stroke-width:1.0;" width="10" x="667.5" y="213.0156"/><rect fill="#FFFFFF" filter="url(#fldmb7ue0mh18)" height="138.7578" style="stroke:#A80036;stroke-width:1.0;" width="10" x="667.5" y="468.1797"/><rect fill="#FFFFFF" filter="url(#fldmb7ue0mh18)" height="78.0547" style="stroke:#A80036;stroke-width:1.0;" width="10" x="969.5" y="498.5313"/><rect fill="#FFFFFF" filter="url(#fldmb7ue0mh18)" height="308.8672" style="stroke:#000000;stroke-width:2.0;" width="999.5" x="10" y="306.0703"/><line style="stroke:#A80036;stroke-width:1.0;stroke-dasharray:5.0,5.0;" x1="121" x2="121" y1="89.6094" y2="662.2891"/><line style="stroke:#A80036;stroke-width:1.0;stroke-dasharray:5.0,5.0;" x1="410" x2="410" y1="89.6094" y2="662.2891"/><line style="stroke:#A80036;stroke-width:1.0;stroke-dasharray:5.0,5.0;" x1="672" x2="672" y1="89.6094" y2="662.2891"/><line style="stroke:#A80036;stroke-width:1.0;stroke-dasharray:5.0,5.0;" x1="974.5" x2="974.5" y1="89.6094" y2="662.2891"/><text fill="#000000" font-family="sans-serif" font-size="14" lengthAdjust="spacing" textLength="197" x="20" y="86.5332">Clinical Chemistry Technologist</text><ellipse cx="121.5" cy="15" fill="#FEFECE" filter="url(#fldmb7ue0mh18)" rx="8" ry="8" style="stroke:#A80036;stroke-width:2.0;"/><path d="M121.5,23 L121.5,50 M108.5,31 L134.5,31 M121.5,50 L108.5,65 M121.5,50 L134.5,65 " fill="none" filter="url(#fldmb7ue0mh18)" style="stroke:#A80036;stroke-width:2.0;"/><text fill="#000000" font-family="sans-serif" font-size="14" lengthAdjust="spacing" textLength="197" x="20" y="675.8223">Clinical Chemistry Technologist</text><ellipse cx="121.5" cy="688.8984" fill="#FEFECE" filter="url(#fldmb7ue0mh18)" rx="8" ry="8" style="stroke:#A80036;stroke-width:2.0;"/><path d="M121.5,696.8984 L121.5,723.8984 M108.5,704.8984 L134.5,704.8984 M121.5,723.8984 L108.5,738.8984 M121.5,723.8984 L134.5,738.8984 " fill="none" filter="url(#fldmb7ue0mh18)" style="stroke:#A80036;stroke-width:2.0;"/><rect fill="#FEFECE" filter="url(#fldmb7ue0mh18)" height="31.6094" style="stroke:#A80036;stroke-width:1.5;" width="123" x="347" y="53"/><text fill="#000000" font-family="sans-serif" font-size="14" lengthAdjust="spacing" textLength="109" x="354" y="74.5332">:RecordResultsUI</text><rect fill="#FEFECE" filter="url(#fldmb7ue0mh18)" height="31.6094" style="stroke:#A80036;stroke-width:1.5;" width="123" x="347" y="661.2891"/><text fill="#000000" font-family="sans-serif" font-size="14" lengthAdjust="spacing" textLength="109" x="354" y="682.8223">:RecordResultsUI</text><rect fill="#FEFECE" filter="url(#fldmb7ue0mh18)" height="31.6094" style="stroke:#A80036;stroke-width:1.5;" width="173" x="584" y="53"/><text fill="#000000" font-family="sans-serif" font-size="14" lengthAdjust="spacing" textLength="159" x="591" y="74.5332">:RecordResultsController</text><rect fill="#FEFECE" filter="url(#fldmb7ue0mh18)" height="31.6094" style="stroke:#A80036;stroke-width:1.5;" width="173" x="584" y="661.2891"/><text fill="#000000" font-family="sans-serif" font-size="14" lengthAdjust="spacing" textLength="159" x="591" y="682.8223">:RecordResultsController</text><rect fill="#FEFECE" filter="url(#fldmb7ue0mh18)" height="31.6094" style="stroke:#A80036;stroke-width:1.5;" width="46" x="949.5" y="53"/><text fill="#000000" font-family="sans-serif" font-size="14" lengthAdjust="spacing" textLength="32" x="956.5" y="74.5332">:Test</text><rect fill="#FEFECE" filter="url(#fldmb7ue0mh18)" height="31.6094" style="stroke:#A80036;stroke-width:1.5;" width="46" x="949.5" y="661.2891"/><text fill="#000000" font-family="sans-serif" font-size="14" lengthAdjust="spacing" textLength="32" x="956.5" y="682.8223">:Test</text><rect fill="#FFFFFF" filter="url(#fldmb7ue0mh18)" height="553.6797" style="stroke:#A80036;stroke-width:1.0;" width="10" x="116.5" y="99.6094"/><rect fill="#FFFFFF" filter="url(#fldmb7ue0mh18)" height="30.3516" style="stroke:#A80036;stroke-width:1.0;" width="10" x="405.5" y="121.9609"/><rect fill="#FFFFFF" filter="url(#fldmb7ue0mh18)" height="164.1094" style="stroke:#A80036;stroke-width:1.0;" width="10" x="405.5" y="182.6641"/><rect fill="#FFFFFF" filter="url(#fldmb7ue0mh18)" height="30.3516" style="stroke:#A80036;stroke-width:1.0;" width="10" x="405.5" y="377.125"/><rect fill="#FFFFFF" filter="url(#fldmb7ue0mh18)" height="206.4609" style="stroke:#A80036;stroke-width:1.0;" width="10" x="405.5" y="437.8281"/><rect fill="#FFFFFF" filter="url(#fldmb7ue0mh18)" height="78.0547" style="stroke:#A80036;stroke-width:1.0;" width="10" x="667.5" y="213.0156"/><rect fill="#FFFFFF" filter="url(#fldmb7ue0mh18)" height="138.7578" style="stroke:#A80036;stroke-width:1.0;" width="10" x="667.5" y="468.1797"/><rect fill="#FFFFFF" filter="url(#fldmb7ue0mh18)" height="78.0547" style="stroke:#A80036;stroke-width:1.0;" width="10" x="969.5" y="498.5313"/><polygon fill="#A80036" points="393.5,117.9609,403.5,121.9609,393.5,125.9609,397.5,121.9609" style="stroke:#A80036;stroke-width:1.0;"/><line style="stroke:#A80036;stroke-width:1.0;" x1="126.5" x2="399.5" y1="121.9609" y2="121.9609"/><text fill="#000000" font-family="sans-serif" font-size="13" font-weight="bold" lengthAdjust="spacing" textLength="7" x="133.5" y="117.1045">1</text><text fill="#000000" font-family="sans-serif" font-size="13" lengthAdjust="spacing" textLength="237" x="144.5" y="117.1045">Asks for record the results of a given test</text><polygon fill="#A80036" points="137.5,148.3125,127.5,152.3125,137.5,156.3125,133.5,152.3125" style="stroke:#A80036;stroke-width:1.0;"/><line style="stroke:#A80036;stroke-width:1.0;stroke-dasharray:2.0,2.0;" x1="131.5" x2="409.5" y1="152.3125" y2="152.3125"/><text fill="#000000" font-family="sans-serif" font-size="13" font-weight="bold" lengthAdjust="spacing" textLength="7" x="143.5" y="147.4561">2</text><text fill="#000000" font-family="sans-serif" font-size="13" lengthAdjust="spacing" textLength="184" x="154.5" y="147.4561">Asks for the code of the sample</text><polygon fill="#A80036" points="393.5,178.6641,403.5,182.6641,393.5,186.6641,397.5,182.6641" style="stroke:#A80036;stroke-width:1.0;"/><line style="stroke:#A80036;stroke-width:1.0;" x1="126.5" x2="399.5" y1="182.6641" y2="182.6641"/><text fill="#000000" font-family="sans-serif" font-size="13" font-weight="bold" lengthAdjust="spacing" textLength="7" x="133.5" y="177.8076">3</text><text fill="#000000" font-family="sans-serif" font-size="13" lengthAdjust="spacing" textLength="123" x="144.5" y="177.8076">Inserts the sample ID</text><polygon fill="#A80036" points="655.5,209.0156,665.5,213.0156,655.5,217.0156,659.5,213.0156" style="stroke:#A80036;stroke-width:1.0;"/><line style="stroke:#A80036;stroke-width:1.0;" x1="415.5" x2="661.5" y1="213.0156" y2="213.0156"/><text fill="#000000" font-family="sans-serif" font-size="13" font-weight="bold" lengthAdjust="spacing" textLength="7" x="422.5" y="208.1592">4</text><text fill="#000000" font-family="sans-serif" font-size="13" lengthAdjust="spacing" textLength="209" x="433.5" y="208.1592">SD_getTestParameterList(sampleId)</text><rect fill="#FFFFFF" filter="url(#fldmb7ue0mh18)" height="42.7031" style="stroke:#000000;stroke-width:2.0;" width="290" x="581" y="221.0156"/><polygon fill="#EEEEEE" points="581,221.0156,643,221.0156,643,229.0156,633,239.0156,581,239.0156,581,221.0156" style="stroke:#000000;stroke-width:2.0;"/><text fill="#000000" font-family="sans-serif" font-size="13" font-weight="bold" lengthAdjust="spacing" textLength="17" x="594" y="236.5107">ref</text><text fill="#000000" font-family="sans-serif" font-size="13" lengthAdjust="spacing" textLength="282" x="587" y="256.5107">SD_AddTestResult(parameterCode,result,metric)</text><polygon fill="#A80036" points="426.5,287.0703,416.5,291.0703,426.5,295.0703,422.5,291.0703" style="stroke:#A80036;stroke-width:1.0;"/><line style="stroke:#A80036;stroke-width:1.0;stroke-dasharray:2.0,2.0;" x1="420.5" x2="671.5" y1="291.0703" y2="291.0703"/><text fill="#000000" font-family="sans-serif" font-size="13" font-weight="bold" lengthAdjust="spacing" textLength="7" x="432.5" y="286.2139">5</text><text fill="#000000" font-family="sans-serif" font-size="13" lengthAdjust="spacing" textLength="68" x="443.5" y="286.2139">tpStoreDTO</text><path d="M10,306.0703 L83,306.0703 L83,314.0703 L73,324.0703 L10,324.0703 L10,306.0703 " fill="#EEEEEE" style="stroke:#000000;stroke-width:1.0;"/><rect fill="none" height="308.8672" style="stroke:#000000;stroke-width:2.0;" width="999.5" x="10" y="306.0703"/><text fill="#000000" font-family="sans-serif" font-size="13" font-weight="bold" lengthAdjust="spacing" textLength="28" x="25" y="320.5654">loop</text><text fill="#000000" font-family="sans-serif" font-size="11" font-weight="bold" lengthAdjust="spacing" textLength="128" x="98" y="319.4893">[for all the parameters]</text><polygon fill="#A80036" points="137.5,342.7734,127.5,346.7734,137.5,350.7734,133.5,346.7734" style="stroke:#A80036;stroke-width:1.0;"/><line style="stroke:#A80036;stroke-width:1.0;stroke-dasharray:2.0,2.0;" x1="131.5" x2="409.5" y1="346.7734" y2="346.7734"/><text fill="#000000" font-family="sans-serif" font-size="13" font-weight="bold" lengthAdjust="spacing" textLength="7" x="143.5" y="341.917">6</text><text fill="#000000" font-family="sans-serif" font-size="13" lengthAdjust="spacing" textLength="244" x="154.5" y="341.917">Show parameters and asks to choose one</text><polygon fill="#A80036" points="393.5,373.125,403.5,377.125,393.5,381.125,397.5,377.125" style="stroke:#A80036;stroke-width:1.0;"/><line style="stroke:#A80036;stroke-width:1.0;" x1="126.5" x2="399.5" y1="377.125" y2="377.125"/><text fill="#000000" font-family="sans-serif" font-size="13" font-weight="bold" lengthAdjust="spacing" textLength="7" x="133.5" y="372.2686">7</text><text fill="#000000" font-family="sans-serif" font-size="13" lengthAdjust="spacing" textLength="106" x="144.5" y="372.2686">Choose parameter</text><polygon fill="#A80036" points="137.5,403.4766,127.5,407.4766,137.5,411.4766,133.5,407.4766" style="stroke:#A80036;stroke-width:1.0;"/><line style="stroke:#A80036;stroke-width:1.0;" x1="131.5" x2="409.5" y1="407.4766" y2="407.4766"/><text fill="#000000" font-family="sans-serif" font-size="13" font-weight="bold" lengthAdjust="spacing" textLength="7" x="143.5" y="402.6201">8</text><text fill="#000000" font-family="sans-serif" font-size="13" lengthAdjust="spacing" textLength="124" x="154.5" y="402.6201">Asks for results value</text><polygon fill="#A80036" points="393.5,433.8281,403.5,437.8281,393.5,441.8281,397.5,437.8281" style="stroke:#A80036;stroke-width:1.0;"/><line style="stroke:#A80036;stroke-width:1.0;" x1="126.5" x2="399.5" y1="437.8281" y2="437.8281"/><text fill="#000000" font-family="sans-serif" font-size="13" font-weight="bold" lengthAdjust="spacing" textLength="7" x="133.5" y="432.9717">9</text><text fill="#000000" font-family="sans-serif" font-size="13" lengthAdjust="spacing" textLength="111" x="144.5" y="432.9717">Types results value</text><polygon fill="#A80036" points="655.5,464.1797,665.5,468.1797,655.5,472.1797,659.5,468.1797" style="stroke:#A80036;stroke-width:1.0;"/><line style="stroke:#A80036;stroke-width:1.0;" x1="415.5" x2="661.5" y1="468.1797" y2="468.1797"/><text fill="#000000" font-family="sans-serif" font-size="13" font-weight="bold" lengthAdjust="spacing" textLength="14" x="422.5" y="463.3232">10</text><text fill="#000000" font-family="sans-serif" font-size="13" lengthAdjust="spacing" textLength="215" x="440.5" y="463.3232">addTestResult(parameterCode,result)</text><polygon fill="#A80036" points="957.5,494.5313,967.5,498.5313,957.5,502.5313,961.5,498.5313" style="stroke:#A80036;stroke-width:1.0;"/><line style="stroke:#A80036;stroke-width:1.0;" x1="677.5" x2="963.5" y1="498.5313" y2="498.5313"/><text fill="#000000" font-family="sans-serif" font-size="13" font-weight="bold" lengthAdjust="spacing" textLength="14" x="684.5" y="493.6748">11</text><text fill="#000000" font-family="sans-serif" font-size="13" lengthAdjust="spacing" textLength="255" x="702.5" y="493.6748">addTestResult(parameterCode,result,metric)</text><rect fill="#FFFFFF" filter="url(#fldmb7ue0mh18)" height="42.7031" style="stroke:#000000;stroke-width:2.0;" width="250" x="946.5" y="506.5313"/><polygon fill="#EEEEEE" points="946.5,506.5313,1008.5,506.5313,1008.5,514.5313,998.5,524.5313,946.5,524.5313,946.5,506.5313" style="stroke:#000000;stroke-width:2.0;"/><text fill="#000000" font-family="sans-serif" font-size="13" font-weight="bold" lengthAdjust="spacing" textLength="17" x="959.5" y="522.0264">ref</text><text fill="#000000" font-family="sans-serif" font-size="13" lengthAdjust="spacing" textLength="242" x="952.5" y="542.0264">SD_AddTestResult(parameterCode,result)</text><polygon fill="#A80036" points="688.5,572.5859,678.5,576.5859,688.5,580.5859,684.5,576.5859" style="stroke:#A80036;stroke-width:1.0;"/><line style="stroke:#A80036;stroke-width:1.0;stroke-dasharray:2.0,2.0;" x1="682.5" x2="973.5" y1="576.5859" y2="576.5859"/><text fill="#000000" font-family="sans-serif" font-size="13" font-weight="bold" lengthAdjust="spacing" textLength="14" x="694.5" y="571.7295">12</text><text fill="#000000" font-family="sans-serif" font-size="13" lengthAdjust="spacing" textLength="14" x="712.5" y="571.7295">ok</text><polygon fill="#A80036" points="426.5,602.9375,416.5,606.9375,426.5,610.9375,422.5,606.9375" style="stroke:#A80036;stroke-width:1.0;"/><line style="stroke:#A80036;stroke-width:1.0;stroke-dasharray:2.0,2.0;" x1="420.5" x2="671.5" y1="606.9375" y2="606.9375"/><text fill="#000000" font-family="sans-serif" font-size="13" font-weight="bold" lengthAdjust="spacing" textLength="14" x="432.5" y="602.0811">13</text><text fill="#000000" font-family="sans-serif" font-size="13" lengthAdjust="spacing" textLength="14" x="450.5" y="602.0811">ok</text><polygon fill="#A80036" points="137.5,640.2891,127.5,644.2891,137.5,648.2891,133.5,644.2891" style="stroke:#A80036;stroke-width:1.0;"/><line style="stroke:#A80036;stroke-width:1.0;stroke-dasharray:2.0,2.0;" x1="131.5" x2="409.5" y1="644.2891" y2="644.2891"/><text fill="#000000" font-family="sans-serif" font-size="13" font-weight="bold" lengthAdjust="spacing" textLength="14" x="143.5" y="639.4326">14</text><text fill="#000000" font-family="sans-serif" font-size="13" lengthAdjust="spacing" textLength="190" x="161.5" y="639.4326">Show all data and show success</text><!--MD5=[8fcf460a0815feaba74d993e6786d000]
@startuml
autonumber
actor "Clinical Chemistry Technologist" as cct
participant ":RecordResultsUI" as UI
participant ":RecordResultsController" as ctrl
participant ":Test" as Test

activate cct
cct -> UI: Asks for record the results of a given test
activate UI
UI - -> cct: Asks for the code of the sample
deactivate UI
cct -> UI: Inserts the sample ID
activate UI
UI -> ctrl: SD_getTestParameterList(sampleId)
ref over ctrl: SD_AddTestResult(parameterCode,result,metric)
activate ctrl
ctrl - -> UI: tpStoreDTO
deactivate ctrl
loop for all the parameters
    UI - -> cct: Show parameters and asks to choose one
    deactivate UI
    cct -> UI: Choose parameter
    activate UI
    UI -> cct: Asks for results value
    deactivate UI
    cct -> UI: Types results value
    activate UI

    UI -> ctrl: addTestResult(parameterCode,result)
    activate ctrl
    ctrl -> Test: addTestResult(parameterCode,result,metric)
    activate Test
    ref over Test : SD_AddTestResult(parameterCode,result)
    Test - -> ctrl : ok
    deactivate Test
    ctrl - -> UI: ok
    deactivate ctrl


end

UI - -> cct: Show all data and show success
deactivate UI




@enduml

PlantUML version 1.2021.5(Sun Apr 25 12:20:28 BST 2021)
(GPL source distribution)
Java Runtime: OpenJDK Runtime Environment
JVM: Dynamic Code Evolution 64-Bit Server VM
Default Encoding: Cp1252
Language: pt
Country: PT
--></g></svg>