<?xml version="1.0" encoding="UTF-8" standalone="no"?><svg xmlns="http://www.w3.org/2000/svg" xmlns:xlink="http://www.w3.org/1999/xlink" contentScriptType="application/ecmascript" contentStyleType="text/css" height="345px" preserveAspectRatio="none" style="width:597px;height:345px;background:#FFFFFF;" version="1.1" viewBox="0 0 597 345" width="597px" zoomAndPan="magnify"><defs><filter height="300%" id="frsh1bdyaim00" width="300%" x="-1" y="-1"><feGaussianBlur result="blurOut" stdDeviation="2.0"/><feColorMatrix in="blurOut" result="blurOut2" type="matrix" values="0 0 0 0 0 0 0 0 0 0 0 0 0 0 0 0 0 0 .4 0"/><feOffset dx="4.0" dy="4.0" in="blurOut2" result="blurOut3"/><feBlend in="SourceGraphic" in2="blurOut3" mode="normal"/></filter></defs><g><!--MD5=[02e4b9b7573f1156f41e60aa5b4e25a4]
class Company--><rect codeLine="5" fill="#FEFECE" filter="url(#frsh1bdyaim00)" height="53.8359" id="Company" style="stroke:#A80036;stroke-width:1.5;" width="85" x="275" y="7"/><ellipse cx="290" cy="23" fill="#ADD1B2" rx="11" ry="11" style="stroke:#A80036;stroke-width:1.0;"/><path d="M292,19.5 Q292.2031,19 292.4375,18.75 Q292.6719,18.5 292.9375,18.5 Q293.4063,18.5 293.7031,18.7813 Q294,19.0625 294,19.7188 L294,21.2813 Q294,21.9375 293.7188,22.2188 Q293.4375,22.5 293,22.5 Q292.6094,22.5 292.3594,22.3281 Q292.1094,22.1563 292,21.7031 Q291.9531,21.3906 291.7813,21.2188 Q291.4688,20.8906 290.9063,20.7031 Q290.3438,20.5 289.7813,20.5 Q289.0781,20.5 288.4844,20.7813 Q287.9063,21.0625 287.4531,21.6875 Q287,22.3125 287,23.1719 L287,24.0938 Q287,25.125 287.8438,25.8125 Q288.6875,26.5 290.1875,26.5 Q291.0781,26.5 291.7031,26.2969 Q292.0625,26.1875 292.4688,25.8281 Q292.7344,25.625 292.875,25.5625 Q293.0156,25.5 293.1875,25.5 Q293.5156,25.5 293.75,25.7656 Q294,26.0156 294,26.375 Q294,26.7188 293.6563,27.125 Q293.1563,27.7188 292.3594,28.0469 Q291.3125,28.5 290.0313,28.5 Q288.5313,28.5 287.3281,27.9063 Q286.3594,27.4375 285.6719,26.4219 Q285,25.4063 285,24.2031 L285,23.1094 Q285,21.8594 285.5938,20.7656 Q286.2031,19.6719 287.25,19.0938 Q288.3125,18.5 289.5,18.5 Q290.2188,18.5 290.8438,18.75 Q291.4688,19 292,19.5 Z " fill="#000000"/><text fill="#000000" font-family="sans-serif" font-size="12" lengthAdjust="spacing" textLength="53" x="304" y="27.9102">Company</text><line style="stroke:#A80036;stroke-width:1.5;" x1="276" x2="359" y1="39" y2="39"/><text fill="#000000" font-family="sans-serif" font-size="11" lengthAdjust="spacing" textLength="27" x="281" y="54.4189">Name</text><!--MD5=[df38be88ccee13e832d6fafd6288a4ca]
class Test--><rect codeLine="9" fill="#FEFECE" filter="url(#frsh1bdyaim00)" height="123.0156" id="Test" style="stroke:#A80036;stroke-width:1.5;" width="83" x="7" y="173.5"/><ellipse cx="34.15" cy="189.5" fill="#ADD1B2" rx="11" ry="11" style="stroke:#A80036;stroke-width:1.0;"/><path d="M36.15,186 Q36.3531,185.5 36.5875,185.25 Q36.8219,185 37.0875,185 Q37.5563,185 37.8531,185.2813 Q38.15,185.5625 38.15,186.2188 L38.15,187.7813 Q38.15,188.4375 37.8688,188.7188 Q37.5875,189 37.15,189 Q36.7594,189 36.5094,188.8281 Q36.2594,188.6563 36.15,188.2031 Q36.1031,187.8906 35.9313,187.7188 Q35.6188,187.3906 35.0563,187.2031 Q34.4938,187 33.9313,187 Q33.2281,187 32.6344,187.2813 Q32.0563,187.5625 31.6031,188.1875 Q31.15,188.8125 31.15,189.6719 L31.15,190.5938 Q31.15,191.625 31.9938,192.3125 Q32.8375,193 34.3375,193 Q35.2281,193 35.8531,192.7969 Q36.2125,192.6875 36.6188,192.3281 Q36.8844,192.125 37.025,192.0625 Q37.1656,192 37.3375,192 Q37.6656,192 37.9,192.2656 Q38.15,192.5156 38.15,192.875 Q38.15,193.2188 37.8063,193.625 Q37.3063,194.2188 36.5094,194.5469 Q35.4625,195 34.1813,195 Q32.6813,195 31.4781,194.4063 Q30.5094,193.9375 29.8219,192.9219 Q29.15,191.9063 29.15,190.7031 L29.15,189.6094 Q29.15,188.3594 29.7438,187.2656 Q30.3531,186.1719 31.4,185.5938 Q32.4625,185 33.65,185 Q34.3688,185 34.9938,185.25 Q35.6188,185.5 36.15,186 Z " fill="#000000"/><text fill="#000000" font-family="sans-serif" font-size="12" lengthAdjust="spacing" textLength="24" x="50.85" y="194.4102">Test</text><line style="stroke:#A80036;stroke-width:1.5;" x1="8" x2="89" y1="205.5" y2="205.5"/><text fill="#000000" font-family="sans-serif" font-size="11" lengthAdjust="spacing" textLength="43" x="13" y="220.9189">testCode</text><text fill="#000000" font-family="sans-serif" font-size="11" lengthAdjust="spacing" textLength="43" x="13" y="234.7549">nhsCode</text><text fill="#000000" font-family="sans-serif" font-size="11" lengthAdjust="spacing" textLength="24" x="13" y="248.5908">state</text><text fill="#000000" font-family="sans-serif" font-size="11" lengthAdjust="spacing" textLength="71" x="13" y="262.4268">registeredDate</text><text fill="#000000" font-family="sans-serif" font-size="11" lengthAdjust="spacing" textLength="68" x="13" y="276.2627">diagnosisDate</text><text fill="#000000" font-family="sans-serif" font-size="11" lengthAdjust="spacing" textLength="65" x="13" y="290.0986">validatedDate</text><!--MD5=[ed6624c6556d5e7b1bd23032162d20b7]
class Client--><rect codeLine="18" fill="#FEFECE" filter="url(#frsh1bdyaim00)" height="150.6875" id="Client" style="stroke:#A80036;stroke-width:1.5;" width="175" x="230" y="159.5"/><ellipse cx="297.25" cy="175.5" fill="#ADD1B2" rx="11" ry="11" style="stroke:#A80036;stroke-width:1.0;"/><path d="M299.25,172 Q299.4531,171.5 299.6875,171.25 Q299.9219,171 300.1875,171 Q300.6563,171 300.9531,171.2813 Q301.25,171.5625 301.25,172.2188 L301.25,173.7813 Q301.25,174.4375 300.9688,174.7188 Q300.6875,175 300.25,175 Q299.8594,175 299.6094,174.8281 Q299.3594,174.6563 299.25,174.2031 Q299.2031,173.8906 299.0313,173.7188 Q298.7188,173.3906 298.1563,173.2031 Q297.5938,173 297.0313,173 Q296.3281,173 295.7344,173.2813 Q295.1563,173.5625 294.7031,174.1875 Q294.25,174.8125 294.25,175.6719 L294.25,176.5938 Q294.25,177.625 295.0938,178.3125 Q295.9375,179 297.4375,179 Q298.3281,179 298.9531,178.7969 Q299.3125,178.6875 299.7188,178.3281 Q299.9844,178.125 300.125,178.0625 Q300.2656,178 300.4375,178 Q300.7656,178 301,178.2656 Q301.25,178.5156 301.25,178.875 Q301.25,179.2188 300.9063,179.625 Q300.4063,180.2188 299.6094,180.5469 Q298.5625,181 297.2813,181 Q295.7813,181 294.5781,180.4063 Q293.6094,179.9375 292.9219,178.9219 Q292.25,177.9063 292.25,176.7031 L292.25,175.6094 Q292.25,174.3594 292.8438,173.2656 Q293.4531,172.1719 294.5,171.5938 Q295.5625,171 296.75,171 Q297.4688,171 298.0938,171.25 Q298.7188,171.5 299.25,172 Z " fill="#000000"/><text fill="#000000" font-family="sans-serif" font-size="12" lengthAdjust="spacing" textLength="32" x="317.75" y="180.4102">Client</text><line style="stroke:#A80036;stroke-width:1.5;" x1="231" x2="404" y1="191.5" y2="191.5"/><text fill="#000000" font-family="sans-serif" font-size="11" lengthAdjust="spacing" textLength="26" x="236" y="206.9189">name</text><text fill="#000000" font-family="sans-serif" font-size="11" lengthAdjust="spacing" textLength="91" x="236" y="220.7549">citizenCardNumber</text><text fill="#000000" font-family="sans-serif" font-size="11" lengthAdjust="spacing" textLength="163" x="236" y="234.5908">nationalHealthcareServiceNumber</text><text fill="#000000" font-family="sans-serif" font-size="11" lengthAdjust="spacing" textLength="42" x="236" y="248.4268">birthdate</text><text fill="#000000" font-family="sans-serif" font-size="11" lengthAdjust="spacing" textLength="18" x="236" y="262.2627">sex</text><text fill="#000000" font-family="sans-serif" font-size="11" lengthAdjust="spacing" textLength="112" x="236" y="276.0986">taxIdentificationNumber</text><text fill="#000000" font-family="sans-serif" font-size="11" lengthAdjust="spacing" textLength="67" x="236" y="289.9346">phoneNumber</text><text fill="#000000" font-family="sans-serif" font-size="11" lengthAdjust="spacing" textLength="28" x="236" y="303.7705">e-mail</text><!--MD5=[ec599613d695be233479fdeda6ef69ac]
class PerformanceReport--><rect codeLine="29" fill="#FEFECE" filter="url(#frsh1bdyaim00)" height="192.1953" id="PerformanceReport" style="stroke:#A80036;stroke-width:1.5;" width="143" x="440" y="139"/><ellipse cx="456.35" cy="155" fill="#ADD1B2" rx="11" ry="11" style="stroke:#A80036;stroke-width:1.0;"/><path d="M458.35,151.5 Q458.5531,151 458.7875,150.75 Q459.0219,150.5 459.2875,150.5 Q459.7563,150.5 460.0531,150.7813 Q460.35,151.0625 460.35,151.7188 L460.35,153.2813 Q460.35,153.9375 460.0688,154.2188 Q459.7875,154.5 459.35,154.5 Q458.9594,154.5 458.7094,154.3281 Q458.4594,154.1563 458.35,153.7031 Q458.3031,153.3906 458.1313,153.2188 Q457.8188,152.8906 457.2563,152.7031 Q456.6938,152.5 456.1313,152.5 Q455.4281,152.5 454.8344,152.7813 Q454.2563,153.0625 453.8031,153.6875 Q453.35,154.3125 453.35,155.1719 L453.35,156.0938 Q453.35,157.125 454.1938,157.8125 Q455.0375,158.5 456.5375,158.5 Q457.4281,158.5 458.0531,158.2969 Q458.4125,158.1875 458.8188,157.8281 Q459.0844,157.625 459.225,157.5625 Q459.3656,157.5 459.5375,157.5 Q459.8656,157.5 460.1,157.7656 Q460.35,158.0156 460.35,158.375 Q460.35,158.7188 460.0063,159.125 Q459.5063,159.7188 458.7094,160.0469 Q457.6625,160.5 456.3813,160.5 Q454.8813,160.5 453.6781,159.9063 Q452.7094,159.4375 452.0219,158.4219 Q451.35,157.4063 451.35,156.2031 L451.35,155.1094 Q451.35,153.8594 451.9438,152.7656 Q452.5531,151.6719 453.6,151.0938 Q454.6625,150.5 455.85,150.5 Q456.5688,150.5 457.1938,150.75 Q457.8188,151 458.35,151.5 Z " fill="#000000"/><text fill="#000000" font-family="sans-serif" font-size="12" lengthAdjust="spacing" textLength="108" x="470.65" y="159.9102">PerformanceReport</text><line style="stroke:#A80036;stroke-width:1.5;" x1="441" x2="582" y1="171" y2="171"/><text fill="#000000" font-family="sans-serif" font-size="11" lengthAdjust="spacing" textLength="131" x="446" y="186.4189">performanceReportNumber</text><text fill="#000000" font-family="sans-serif" font-size="11" lengthAdjust="spacing" textLength="66" x="446" y="200.2549">dateTimeStart</text><text fill="#000000" font-family="sans-serif" font-size="11" lengthAdjust="spacing" textLength="61" x="446" y="214.0908">dateTimeEnd</text><text fill="#000000" font-family="sans-serif" font-size="11" lengthAdjust="spacing" textLength="111" x="446" y="227.9268">dateLessEffectiveStart</text><text fill="#000000" font-family="sans-serif" font-size="11" lengthAdjust="spacing" textLength="106" x="446" y="241.7627">dateLessEffectiveEnd</text><text fill="#000000" font-family="sans-serif" font-size="11" lengthAdjust="spacing" textLength="101" x="446" y="255.5986">totalNumberOfClients</text><text fill="#000000" font-family="sans-serif" font-size="11" lengthAdjust="spacing" textLength="105" x="446" y="269.4346">totalNumberOfResults</text><text fill="#000000" font-family="sans-serif" font-size="11" lengthAdjust="spacing" textLength="125" x="446" y="283.2705">totalNumberOfDiagnostics</text><text fill="#000000" font-family="sans-serif" font-size="11" lengthAdjust="spacing" textLength="122" x="446" y="297.1064">totalNumberOfValidations</text><text fill="#000000" font-family="sans-serif" font-size="11" lengthAdjust="spacing" textLength="57" x="446" y="310.9424">growthRate</text><text fill="#000000" font-family="sans-serif" font-size="11" lengthAdjust="spacing" textLength="108" x="446" y="324.7783">subSequenceMaxSum</text><!--MD5=[7e4bc624457760b649895ff2ead938fa]
link Company to Test--><path codeLine="45" d="M282.33,61.02 C232.92,97.57 143.08,164.03 90.31,203.07 " fill="none" id="Company-Test" style="stroke:#A80036;stroke-width:1.0;"/><polygon fill="#000000" points="239.4803,103.1494,248.4998,100.1328,245.0041,95.4074,239.4803,103.1494" style="stroke:#000000;stroke-width:1.0;"/><text fill="#000000" font-family="sans-serif" font-size="13" lengthAdjust="spacing" textLength="50" x="252.5" y="105.4951">performs</text><text fill="#000000" font-family="sans-serif" font-size="13" lengthAdjust="spacing" textLength="7" x="266.8709" y="82.2321">1</text><text fill="#000000" font-family="sans-serif" font-size="13" lengthAdjust="spacing" textLength="5" x="97.9258" y="193.731">*</text><!--MD5=[6eee883fdf517d3604e8bd0f2058e9aa]
link Company to Client--><path codeLine="46" d="M317.5,61.02 C317.5,85.88 317.5,124.57 317.5,159.07 " fill="none" id="Company-Client" style="stroke:#A80036;stroke-width:1.0;"/><polygon fill="#000000" points="322.5,105.1758,325.4389,96.1307,319.5611,96.1307,322.5,105.1758" style="stroke:#000000;stroke-width:1.0;"/><text fill="#000000" font-family="sans-serif" font-size="13" lengthAdjust="spacing" textLength="37" x="331.5" y="105.4951">knows</text><text fill="#000000" font-family="sans-serif" font-size="13" lengthAdjust="spacing" textLength="7" x="309.7344" y="82.2321">1</text><text fill="#000000" font-family="sans-serif" font-size="13" lengthAdjust="spacing" textLength="5" x="312.2617" y="148.5972">*</text><!--MD5=[2d71882fbece197af46afaabf4aaa172]
link Company to PerformanceReport--><path codeLine="47" d="M346.25,61.11 C356.28,70.4 367.51,81.04 377.5,91 C398.09,111.55 419.88,134.32 439.76,155.54 " fill="none" id="Company-PerformanceReport" style="stroke:#A80036;stroke-width:1.0;"/><polygon fill="#000000" points="401.0182,103.7286,396.742,95.2336,392.5654,99.3694,401.0182,103.7286" style="stroke:#000000;stroke-width:1.0;"/><text fill="#000000" font-family="sans-serif" font-size="13" lengthAdjust="spacing" textLength="50" x="406.5" y="105.4951">performs</text><text fill="#000000" font-family="sans-serif" font-size="13" lengthAdjust="spacing" textLength="7" x="344.7734" y="82.3418">1</text><text fill="#000000" font-family="sans-serif" font-size="13" lengthAdjust="spacing" textLength="5" x="427.104" y="144.0239">*</text><!--MD5=[3994f36c72829dbcddd1cf7021dddf61]
link Test to Client--><path codeLine="48" d="M90.24,235 C127.42,235 183.06,235 229.97,235 " fill="none" id="Test-Client" style="stroke:#A80036;stroke-width:1.0;"/><polygon fill="#000000" points="117.5,223.1758,108.4549,220.2369,108.4549,226.1147,117.5,223.1758" style="stroke:#000000;stroke-width:1.0;"/><text fill="#000000" font-family="sans-serif" font-size="13" lengthAdjust="spacing" textLength="90" x="121.5" y="228.4951">associated with</text><text fill="#000000" font-family="sans-serif" font-size="13" lengthAdjust="spacing" textLength="5" x="98.1203" y="231.1">*</text><text fill="#000000" font-family="sans-serif" font-size="13" lengthAdjust="spacing" textLength="7" x="214.8626" y="231.8122">1</text><!--MD5=[55fbbac8bf2f5a4419022b9a0a083e95]
@startuml
'https://plantuml.com/class-diagram

hide methods

class Company{
Name
}

class Test{
testCode
nhsCode
state
registeredDate
diagnosisDate
validatedDate
}

class Client{
name
citizenCardNumber
nationalHealthcareServiceNumber
birthdate
sex
taxIdentificationNumber
phoneNumber
e-mail
}

class PerformanceReport{
performanceReportNumber
dateTimeStart
dateTimeEnd
dateLessEffectiveStart
dateLessEffectiveEnd
totalNumberOfClients
totalNumberOfResults
totalNumberOfDiagnostics
totalNumberOfValidations
growthRate
subSequenceMaxSum
}



Company "1" - - "*" Test: performs >
Company "1" - - "*" Client: knows >
Company "1" - - "*" PerformanceReport: performs >
Test "*" - "1" Client: associated with >

@enduml

@startuml

hide methods

class Company{
Name
}

class Test{
testCode
nhsCode
state
registeredDate
diagnosisDate
validatedDate
}

class Client{
name
citizenCardNumber
nationalHealthcareServiceNumber
birthdate
sex
taxIdentificationNumber
phoneNumber
e-mail
}

class PerformanceReport{
performanceReportNumber
dateTimeStart
dateTimeEnd
dateLessEffectiveStart
dateLessEffectiveEnd
totalNumberOfClients
totalNumberOfResults
totalNumberOfDiagnostics
totalNumberOfValidations
growthRate
subSequenceMaxSum
}



Company "1" - - "*" Test: performs >
Company "1" - - "*" Client: knows >
Company "1" - - "*" PerformanceReport: performs >
Test "*" - "1" Client: associated with >

@enduml

PlantUML version 1.2021.7(Sun May 23 13:40:07 BST 2021)
(GPL source distribution)
Java Runtime: OpenJDK Runtime Environment
JVM: Dynamic Code Evolution 64-Bit Server VM
Default Encoding: Cp1252
Language: pt
Country: PT
--></g></svg>