<?xml version="1.0" encoding="UTF-8" standalone="no"?><svg xmlns="http://www.w3.org/2000/svg" xmlns:xlink="http://www.w3.org/1999/xlink" contentScriptType="application/ecmascript" contentStyleType="text/css" height="471.25px" preserveAspectRatio="none" style="width:547px;height:471px;background:#FFFFFF;" version="1.1" viewBox="0 0 547 471" width="547.5px" zoomAndPan="magnify"><defs><filter height="300%" id="f1gw7pwqxxpyxa" width="300%" x="-1" y="-1"><feGaussianBlur result="blurOut" stdDeviation="2.5"/><feColorMatrix in="blurOut" result="blurOut2" type="matrix" values="0 0 0 0 0 0 0 0 0 0 0 0 0 0 0 0 0 0 .4 0"/><feOffset dx="5.0" dy="5.0" in="blurOut2" result="blurOut3"/><feBlend in="SourceGraphic" in2="blurOut3" mode="normal"/></filter></defs><g><rect fill="#FFFFFF" filter="url(#f1gw7pwqxxpyxa)" height="217.6367" style="stroke:#A80036;stroke-width:1.25;" width="12.5" x="65.625" y="124.5117"/><rect fill="#FFFFFF" filter="url(#f1gw7pwqxxpyxa)" height="37.9395" style="stroke:#A80036;stroke-width:1.25;" width="12.5" x="508.125" y="152.4512"/><rect fill="#FFFFFF" filter="url(#f1gw7pwqxxpyxa)" height="37.9395" style="stroke:#A80036;stroke-width:1.25;" width="12.5" x="508.125" y="228.3301"/><rect fill="#FFFFFF" filter="url(#f1gw7pwqxxpyxa)" height="49.1895" style="stroke:#A80036;stroke-width:1.25;" width="12.5" x="508.125" y="304.209"/><line style="stroke:#A80036;stroke-width:1.25;stroke-dasharray:5.0,5.0;" x1="71.25" x2="71.25" y1="112.0117" y2="364.6484"/><line style="stroke:#A80036;stroke-width:1.25;stroke-dasharray:5.0,5.0;" x1="514.375" x2="514.375" y1="112.0117" y2="364.6484"/><text fill="#000000" font-family="sans-serif" font-size="17.5" lengthAdjust="spacing" textLength="123.75" x="6.25" y="108.1665">LabCoordinator</text><ellipse cx="71.875" cy="18.75" fill="#FEFECE" filter="url(#f1gw7pwqxxpyxa)" rx="10" ry="10" style="stroke:#A80036;stroke-width:2.5;"/><path d="M71.875,28.75 L71.875,62.5 M55.625,38.75 L88.125,38.75 M71.875,62.5 L55.625,81.25 M71.875,62.5 L88.125,81.25 " fill="none" filter="url(#f1gw7pwqxxpyxa)" style="stroke:#A80036;stroke-width:2.5;"/><text fill="#000000" font-family="sans-serif" font-size="17.5" lengthAdjust="spacing" textLength="123.75" x="6.25" y="381.5649">LabCoordinator</text><ellipse cx="71.875" cy="397.9102" fill="#FEFECE" filter="url(#f1gw7pwqxxpyxa)" rx="10" ry="10" style="stroke:#A80036;stroke-width:2.5;"/><path d="M71.875,407.9102 L71.875,441.6602 M55.625,417.9102 L88.125,417.9102 M71.875,441.6602 L55.625,460.4102 M71.875,441.6602 L88.125,460.4102 " fill="none" filter="url(#f1gw7pwqxxpyxa)" style="stroke:#A80036;stroke-width:2.5;"/><text fill="#000000" font-family="sans-serif" font-size="17.5" lengthAdjust="spacing" textLength="57.5" x="481.875" y="108.1665">System</text><ellipse cx="514.375" cy="18.75" fill="#FEFECE" filter="url(#f1gw7pwqxxpyxa)" rx="10" ry="10" style="stroke:#A80036;stroke-width:2.5;"/><path d="M514.375,28.75 L514.375,62.5 M498.125,38.75 L530.625,38.75 M514.375,62.5 L498.125,81.25 M514.375,62.5 L530.625,81.25 " fill="none" filter="url(#f1gw7pwqxxpyxa)" style="stroke:#A80036;stroke-width:2.5;"/><text fill="#000000" font-family="sans-serif" font-size="17.5" lengthAdjust="spacing" textLength="57.5" x="481.875" y="381.5649">System</text><ellipse cx="514.375" cy="397.9102" fill="#FEFECE" filter="url(#f1gw7pwqxxpyxa)" rx="10" ry="10" style="stroke:#A80036;stroke-width:2.5;"/><path d="M514.375,407.9102 L514.375,441.6602 M498.125,417.9102 L530.625,417.9102 M514.375,441.6602 L498.125,460.4102 M514.375,441.6602 L530.625,460.4102 " fill="none" filter="url(#f1gw7pwqxxpyxa)" style="stroke:#A80036;stroke-width:2.5;"/><rect fill="#FFFFFF" filter="url(#f1gw7pwqxxpyxa)" height="217.6367" style="stroke:#A80036;stroke-width:1.25;" width="12.5" x="65.625" y="124.5117"/><rect fill="#FFFFFF" filter="url(#f1gw7pwqxxpyxa)" height="37.9395" style="stroke:#A80036;stroke-width:1.25;" width="12.5" x="508.125" y="152.4512"/><rect fill="#FFFFFF" filter="url(#f1gw7pwqxxpyxa)" height="37.9395" style="stroke:#A80036;stroke-width:1.25;" width="12.5" x="508.125" y="228.3301"/><rect fill="#FFFFFF" filter="url(#f1gw7pwqxxpyxa)" height="49.1895" style="stroke:#A80036;stroke-width:1.25;" width="12.5" x="508.125" y="304.209"/><polygon fill="#A80036" points="493.125,147.4512,505.625,152.4512,493.125,157.4512,498.125,152.4512" style="stroke:#A80036;stroke-width:1.25;"/><line style="stroke:#A80036;stroke-width:1.25;" x1="78.125" x2="500.625" y1="152.4512" y2="152.4512"/><text fill="#000000" font-family="sans-serif" font-size="16.25" lengthAdjust="spacing" textLength="401.25" x="86.875" y="146.3806">Asks to have an overview of the company's performance</text><polygon fill="#A80036" points="91.875,185.3906,79.375,190.3906,91.875,195.3906,86.875,190.3906" style="stroke:#A80036;stroke-width:1.25;"/><line style="stroke:#A80036;stroke-width:1.25;stroke-dasharray:2.0,2.0;" x1="84.375" x2="513.125" y1="190.3906" y2="190.3906"/><text fill="#000000" font-family="sans-serif" font-size="16.25" lengthAdjust="spacing" textLength="283.75" x="99.375" y="184.3201">Asks for the date interval to e evaluated</text><polygon fill="#A80036" points="493.125,223.3301,505.625,228.3301,493.125,233.3301,498.125,228.3301" style="stroke:#A80036;stroke-width:1.25;"/><line style="stroke:#A80036;stroke-width:1.25;" x1="78.125" x2="500.625" y1="228.3301" y2="228.3301"/><text fill="#000000" font-family="sans-serif" font-size="16.25" lengthAdjust="spacing" textLength="162.5" x="86.875" y="222.2595">Inputs the date interval</text><polygon fill="#A80036" points="91.875,261.2695,79.375,266.2695,91.875,271.2695,86.875,266.2695" style="stroke:#A80036;stroke-width:1.25;"/><line style="stroke:#A80036;stroke-width:1.25;stroke-dasharray:2.0,2.0;" x1="84.375" x2="513.125" y1="266.2695" y2="266.2695"/><text fill="#000000" font-family="sans-serif" font-size="16.25" lengthAdjust="spacing" textLength="245" x="99.375" y="260.199">Asks which algorithm will be used</text><polygon fill="#A80036" points="493.125,299.209,505.625,304.209,493.125,309.209,498.125,304.209" style="stroke:#A80036;stroke-width:1.25;"/><line style="stroke:#A80036;stroke-width:1.25;" x1="78.125" x2="500.625" y1="304.209" y2="304.209"/><text fill="#000000" font-family="sans-serif" font-size="16.25" lengthAdjust="spacing" textLength="148.75" x="86.875" y="298.1384">Selects an algorithm</text><polygon fill="#A80036" points="85.625,337.1484,73.125,342.1484,85.625,347.1484,80.625,342.1484" style="stroke:#A80036;stroke-width:1.25;"/><line style="stroke:#A80036;stroke-width:1.25;stroke-dasharray:2.0,2.0;" x1="78.125" x2="506.875" y1="342.1484" y2="342.1484"/><text fill="#000000" font-family="sans-serif" font-size="16.25" lengthAdjust="spacing" textLength="400" x="93.125" y="336.0779">Show all data requested and the maximum sum interval</text><!--MD5=[84d985139710066a9798a8310f373466]
@startuml
actor "LabCoordinator" as LabCord
actor "System" as Sys


activate LabCord
LabCord -> Sys: Asks to have an overview of the company's performance
activate Sys
Sys - -> LabCord: Asks for the date interval to e evaluated
deactivate Sys
LabCord -> Sys: Inputs the date interval
activate Sys
Sys - -> LabCord: Asks which algorithm will be used
deactivate Sys
LabCord -> Sys: Selects an algorithm
activate Sys
Sys - -> LabCord: Show all data requested and the maximum sum interval
deactivate LabCord

@enduml

PlantUML version 1.2021.7(Sun May 23 13:40:07 BST 2021)
(GPL source distribution)
Java Runtime: OpenJDK Runtime Environment
JVM: Dynamic Code Evolution 64-Bit Server VM
Default Encoding: Cp1252
Language: pt
Country: PT
--></g></svg>