<?xml version="1.0" encoding="UTF-8" standalone="no"?><svg xmlns="http://www.w3.org/2000/svg" xmlns:xlink="http://www.w3.org/1999/xlink" contentScriptType="application/ecmascript" contentStyleType="text/css" height="565px" preserveAspectRatio="none" style="width:1198px;height:565px;background:#FFFFFF;" version="1.1" viewBox="0 0 1198 565" width="1198px" zoomAndPan="magnify"><defs><filter height="300%" id="fx6re0bw2t8tw" width="300%" x="-1" y="-1"><feGaussianBlur result="blurOut" stdDeviation="2.0"/><feColorMatrix in="blurOut" result="blurOut2" type="matrix" values="0 0 0 0 0 0 0 0 0 0 0 0 0 0 0 0 0 0 .4 0"/><feOffset dx="4.0" dy="4.0" in="blurOut2" result="blurOut3"/><feBlend in="SourceGraphic" in2="blurOut3" mode="normal"/></filter></defs><g><!--MD5=[18bacfdd868ad0298cc929aa4e4727ba]
class CheckPerformanceUI--><rect codeLine="3" fill="#FEFECE" filter="url(#fx6re0bw2t8tw)" height="48" id="CheckPerformanceUI" style="stroke:#A80036;stroke-width:1.5;" width="150" x="404" y="7"/><ellipse cx="419" cy="23" fill="#ADD1B2" rx="11" ry="11" style="stroke:#A80036;stroke-width:1.0;"/><path d="M421,19.5 Q421.2031,19 421.4375,18.75 Q421.6719,18.5 421.9375,18.5 Q422.4063,18.5 422.7031,18.7813 Q423,19.0625 423,19.7188 L423,21.2813 Q423,21.9375 422.7188,22.2188 Q422.4375,22.5 422,22.5 Q421.6094,22.5 421.3594,22.3281 Q421.1094,22.1563 421,21.7031 Q420.9531,21.3906 420.7813,21.2188 Q420.4688,20.8906 419.9063,20.7031 Q419.3438,20.5 418.7813,20.5 Q418.0781,20.5 417.4844,20.7813 Q416.9063,21.0625 416.4531,21.6875 Q416,22.3125 416,23.1719 L416,24.0938 Q416,25.125 416.8438,25.8125 Q417.6875,26.5 419.1875,26.5 Q420.0781,26.5 420.7031,26.2969 Q421.0625,26.1875 421.4688,25.8281 Q421.7344,25.625 421.875,25.5625 Q422.0156,25.5 422.1875,25.5 Q422.5156,25.5 422.75,25.7656 Q423,26.0156 423,26.375 Q423,26.7188 422.6563,27.125 Q422.1563,27.7188 421.3594,28.0469 Q420.3125,28.5 419.0313,28.5 Q417.5313,28.5 416.3281,27.9063 Q415.3594,27.4375 414.6719,26.4219 Q414,25.4063 414,24.2031 L414,23.1094 Q414,21.8594 414.5938,20.7656 Q415.2031,19.6719 416.25,19.0938 Q417.3125,18.5 418.5,18.5 Q419.2188,18.5 419.8438,18.75 Q420.4688,19 421,19.5 Z " fill="#000000"/><text fill="#000000" font-family="sans-serif" font-size="12" lengthAdjust="spacing" textLength="118" x="433" y="27.9102">CheckPerformanceUI</text><line style="stroke:#A80036;stroke-width:1.5;" x1="405" x2="553" y1="39" y2="39"/><line style="stroke:#A80036;stroke-width:1.5;" x1="405" x2="553" y1="47" y2="47"/><!--MD5=[d15821809a5a16e983914593597d6c97]
class CheckPerformanceController--><rect codeLine="6" fill="#FEFECE" filter="url(#fx6re0bw2t8tw)" height="89.5078" id="CheckPerformanceController" style="stroke:#A80036;stroke-width:1.5;" width="198" x="380" y="116"/><ellipse cx="397.7" cy="132" fill="#ADD1B2" rx="11" ry="11" style="stroke:#A80036;stroke-width:1.0;"/><path d="M399.7,128.5 Q399.9031,128 400.1375,127.75 Q400.3719,127.5 400.6375,127.5 Q401.1063,127.5 401.4031,127.7813 Q401.7,128.0625 401.7,128.7188 L401.7,130.2813 Q401.7,130.9375 401.4188,131.2188 Q401.1375,131.5 400.7,131.5 Q400.3094,131.5 400.0594,131.3281 Q399.8094,131.1563 399.7,130.7031 Q399.6531,130.3906 399.4813,130.2188 Q399.1688,129.8906 398.6063,129.7031 Q398.0438,129.5 397.4813,129.5 Q396.7781,129.5 396.1844,129.7813 Q395.6063,130.0625 395.1531,130.6875 Q394.7,131.3125 394.7,132.1719 L394.7,133.0938 Q394.7,134.125 395.5438,134.8125 Q396.3875,135.5 397.8875,135.5 Q398.7781,135.5 399.4031,135.2969 Q399.7625,135.1875 400.1688,134.8281 Q400.4344,134.625 400.575,134.5625 Q400.7156,134.5 400.8875,134.5 Q401.2156,134.5 401.45,134.7656 Q401.7,135.0156 401.7,135.375 Q401.7,135.7188 401.3563,136.125 Q400.8563,136.7188 400.0594,137.0469 Q399.0125,137.5 397.7313,137.5 Q396.2313,137.5 395.0281,136.9063 Q394.0594,136.4375 393.3719,135.4219 Q392.7,134.4063 392.7,133.2031 L392.7,132.1094 Q392.7,130.8594 393.2938,129.7656 Q393.9031,128.6719 394.95,128.0938 Q396.0125,127.5 397.2,127.5 Q397.9188,127.5 398.5438,127.75 Q399.1688,128 399.7,128.5 Z " fill="#000000"/><text fill="#000000" font-family="sans-serif" font-size="12" lengthAdjust="spacing" textLength="160" x="412.3" y="136.9102">CheckPerformanceController</text><line style="stroke:#A80036;stroke-width:1.5;" x1="381" x2="577" y1="148" y2="148"/><line style="stroke:#A80036;stroke-width:1.5;" x1="381" x2="577" y1="156" y2="156"/><ellipse cx="391" cy="167" fill="#84BE84" rx="3" ry="3" style="stroke:#038048;stroke-width:1.0;"/><text fill="#000000" font-family="sans-serif" font-size="11" lengthAdjust="spacing" textLength="172" x="400" y="171.4189">getInterval(beginningDate, endDate)</text><ellipse cx="391" cy="180.8359" fill="#84BE84" rx="3" ry="3" style="stroke:#038048;stroke-width:1.0;"/><text fill="#000000" font-family="sans-serif" font-size="11" lengthAdjust="spacing" textLength="125" x="400" y="185.2549">selectAlgorithm(algorithm)</text><ellipse cx="391" cy="194.6719" fill="#84BE84" rx="3" ry="3" style="stroke:#038048;stroke-width:1.0;"/><text fill="#000000" font-family="sans-serif" font-size="11" lengthAdjust="spacing" textLength="98" x="400" y="199.0908">selectScope(scope)</text><!--MD5=[02e4b9b7573f1156f41e60aa5b4e25a4]
class Company--><rect codeLine="12" fill="#FEFECE" filter="url(#fx6re0bw2t8tw)" height="75.6719" id="Company" style="stroke:#A80036;stroke-width:1.5;" width="101" x="428.5" y="287.5"/><ellipse cx="450.7" cy="303.5" fill="#ADD1B2" rx="11" ry="11" style="stroke:#A80036;stroke-width:1.0;"/><path d="M452.7,300 Q452.9031,299.5 453.1375,299.25 Q453.3719,299 453.6375,299 Q454.1063,299 454.4031,299.2813 Q454.7,299.5625 454.7,300.2188 L454.7,301.7813 Q454.7,302.4375 454.4188,302.7188 Q454.1375,303 453.7,303 Q453.3094,303 453.0594,302.8281 Q452.8094,302.6563 452.7,302.2031 Q452.6531,301.8906 452.4813,301.7188 Q452.1688,301.3906 451.6063,301.2031 Q451.0438,301 450.4813,301 Q449.7781,301 449.1844,301.2813 Q448.6063,301.5625 448.1531,302.1875 Q447.7,302.8125 447.7,303.6719 L447.7,304.5938 Q447.7,305.625 448.5438,306.3125 Q449.3875,307 450.8875,307 Q451.7781,307 452.4031,306.7969 Q452.7625,306.6875 453.1688,306.3281 Q453.4344,306.125 453.575,306.0625 Q453.7156,306 453.8875,306 Q454.2156,306 454.45,306.2656 Q454.7,306.5156 454.7,306.875 Q454.7,307.2188 454.3563,307.625 Q453.8563,308.2188 453.0594,308.5469 Q452.0125,309 450.7313,309 Q449.2313,309 448.0281,308.4063 Q447.0594,307.9375 446.3719,306.9219 Q445.7,305.9063 445.7,304.7031 L445.7,303.6094 Q445.7,302.3594 446.2938,301.2656 Q446.9031,300.1719 447.95,299.5938 Q449.0125,299 450.2,299 Q450.9188,299 451.5438,299.25 Q452.1688,299.5 452.7,300 Z " fill="#000000"/><text fill="#000000" font-family="sans-serif" font-size="12" lengthAdjust="spacing" textLength="53" x="466.3" y="308.4102">Company</text><line style="stroke:#A80036;stroke-width:1.5;" x1="429.5" x2="528.5" y1="319.5" y2="319.5"/><line style="stroke:#A80036;stroke-width:1.5;" x1="429.5" x2="528.5" y1="327.5" y2="327.5"/><ellipse cx="439.5" cy="338.5" fill="#84BE84" rx="3" ry="3" style="stroke:#038048;stroke-width:1.0;"/><text fill="#000000" font-family="sans-serif" font-size="11" lengthAdjust="spacing" textLength="70" x="448.5" y="342.9189">getTestStore()</text><ellipse cx="439.5" cy="352.3359" fill="#84BE84" rx="3" ry="3" style="stroke:#038048;stroke-width:1.0;"/><text fill="#000000" font-family="sans-serif" font-size="11" lengthAdjust="spacing" textLength="75" x="448.5" y="356.7549">getClientStore()</text><!--MD5=[55cb992be19579b505cea3c5691093cb]
class ClientStore--><rect codeLine="17" fill="#FEFECE" filter="url(#fx6re0bw2t8tw)" height="61.8359" id="ClientStore" style="stroke:#A80036;stroke-width:1.5;" width="130" x="528" y="476"/><ellipse cx="559.65" cy="492" fill="#ADD1B2" rx="11" ry="11" style="stroke:#A80036;stroke-width:1.0;"/><path d="M561.65,488.5 Q561.8531,488 562.0875,487.75 Q562.3219,487.5 562.5875,487.5 Q563.0563,487.5 563.3531,487.7813 Q563.65,488.0625 563.65,488.7188 L563.65,490.2813 Q563.65,490.9375 563.3688,491.2188 Q563.0875,491.5 562.65,491.5 Q562.2594,491.5 562.0094,491.3281 Q561.7594,491.1563 561.65,490.7031 Q561.6031,490.3906 561.4313,490.2188 Q561.1188,489.8906 560.5563,489.7031 Q559.9938,489.5 559.4313,489.5 Q558.7281,489.5 558.1344,489.7813 Q557.5563,490.0625 557.1031,490.6875 Q556.65,491.3125 556.65,492.1719 L556.65,493.0938 Q556.65,494.125 557.4938,494.8125 Q558.3375,495.5 559.8375,495.5 Q560.7281,495.5 561.3531,495.2969 Q561.7125,495.1875 562.1188,494.8281 Q562.3844,494.625 562.525,494.5625 Q562.6656,494.5 562.8375,494.5 Q563.1656,494.5 563.4,494.7656 Q563.65,495.0156 563.65,495.375 Q563.65,495.7188 563.3063,496.125 Q562.8063,496.7188 562.0094,497.0469 Q560.9625,497.5 559.6813,497.5 Q558.1813,497.5 556.9781,496.9063 Q556.0094,496.4375 555.3219,495.4219 Q554.65,494.4063 554.65,493.2031 L554.65,492.1094 Q554.65,490.8594 555.2438,489.7656 Q555.8531,488.6719 556.9,488.0938 Q557.9625,487.5 559.15,487.5 Q559.8688,487.5 560.4938,487.75 Q561.1188,488 561.65,488.5 Z " fill="#000000"/><text fill="#000000" font-family="sans-serif" font-size="12" lengthAdjust="spacing" textLength="61" x="577.35" y="496.9102">ClientStore</text><line style="stroke:#A80036;stroke-width:1.5;" x1="529" x2="657" y1="508" y2="508"/><line style="stroke:#A80036;stroke-width:1.5;" x1="529" x2="657" y1="516" y2="516"/><ellipse cx="539" cy="527" fill="#84BE84" rx="3" ry="3" style="stroke:#038048;stroke-width:1.0;"/><text fill="#000000" font-family="sans-serif" font-size="11" lengthAdjust="spacing" textLength="104" x="548" y="531.4189">getNumberOfClients()</text><!--MD5=[0f6f7964b844a64b0496af0dda7914bd]
class TestStore--><rect codeLine="21" fill="#FEFECE" filter="url(#fx6re0bw2t8tw)" height="89.5078" id="TestStore" style="stroke:#A80036;stroke-width:1.5;" width="256" x="237" y="462"/><ellipse cx="334.25" cy="478" fill="#ADD1B2" rx="11" ry="11" style="stroke:#A80036;stroke-width:1.0;"/><path d="M336.25,474.5 Q336.4531,474 336.6875,473.75 Q336.9219,473.5 337.1875,473.5 Q337.6563,473.5 337.9531,473.7813 Q338.25,474.0625 338.25,474.7188 L338.25,476.2813 Q338.25,476.9375 337.9688,477.2188 Q337.6875,477.5 337.25,477.5 Q336.8594,477.5 336.6094,477.3281 Q336.3594,477.1563 336.25,476.7031 Q336.2031,476.3906 336.0313,476.2188 Q335.7188,475.8906 335.1563,475.7031 Q334.5938,475.5 334.0313,475.5 Q333.3281,475.5 332.7344,475.7813 Q332.1563,476.0625 331.7031,476.6875 Q331.25,477.3125 331.25,478.1719 L331.25,479.0938 Q331.25,480.125 332.0938,480.8125 Q332.9375,481.5 334.4375,481.5 Q335.3281,481.5 335.9531,481.2969 Q336.3125,481.1875 336.7188,480.8281 Q336.9844,480.625 337.125,480.5625 Q337.2656,480.5 337.4375,480.5 Q337.7656,480.5 338,480.7656 Q338.25,481.0156 338.25,481.375 Q338.25,481.7188 337.9063,482.125 Q337.4063,482.7188 336.6094,483.0469 Q335.5625,483.5 334.2813,483.5 Q332.7813,483.5 331.5781,482.9063 Q330.6094,482.4375 329.9219,481.4219 Q329.25,480.4063 329.25,479.2031 L329.25,478.1094 Q329.25,476.8594 329.8438,475.7656 Q330.4531,474.6719 331.5,474.0938 Q332.5625,473.5 333.75,473.5 Q334.4688,473.5 335.0938,473.75 Q335.7188,474 336.25,474.5 Z " fill="#000000"/><text fill="#000000" font-family="sans-serif" font-size="12" lengthAdjust="spacing" textLength="53" x="354.75" y="482.9102">TestStore</text><line style="stroke:#A80036;stroke-width:1.5;" x1="238" x2="492" y1="494" y2="494"/><line style="stroke:#A80036;stroke-width:1.5;" x1="238" x2="492" y1="502" y2="502"/><ellipse cx="248" cy="513" fill="#84BE84" rx="3" ry="3" style="stroke:#038048;stroke-width:1.0;"/><text fill="#000000" font-family="sans-serif" font-size="11" lengthAdjust="spacing" textLength="129" x="257" y="517.4189">getNumberOfTests(scope)</text><ellipse cx="248" cy="526.8359" fill="#84BE84" rx="3" ry="3" style="stroke:#038048;stroke-width:1.0;"/><text fill="#000000" font-family="sans-serif" font-size="11" lengthAdjust="spacing" textLength="216" x="257" y="531.2549">getNumberOfTestsWaitingForResults(scope)</text><ellipse cx="248" cy="540.6719" fill="#84BE84" rx="3" ry="3" style="stroke:#038048;stroke-width:1.0;"/><text fill="#000000" font-family="sans-serif" font-size="11" lengthAdjust="spacing" textLength="230" x="257" y="545.0908">getNumberOfTestsWaitingForDiagnostic(scope)</text><!--MD5=[8de75a75ee54c5dedd53bd54836823a0]
class MaxSumAdapter--><rect codeLine="27" fill="#FEFECE" filter="url(#fx6re0bw2t8tw)" height="61.8359" id="MaxSumAdapter" style="stroke:#A80036;stroke-width:1.5;" width="168" x="154" y="294.5"/><ellipse cx="189.25" cy="310.5" fill="#B4A7E5" rx="11" ry="11" style="stroke:#A80036;stroke-width:1.0;"/><path d="M190.25,307.5 L190.25,313.5 L192.25,313.5 L192.7344,313.5 L193.25,314.125 L193.25,314.5 L193.25,314.875 L192.7344,315.5 L192.25,315.5 L186.25,315.5 L185.7656,315.5 L185.25,314.875 L185.25,314.5 L185.25,314.125 L185.7656,313.5 L186.25,313.5 L188.25,313.5 L188.25,307.5 L186.25,307.5 L185.7656,307.5 L185.25,306.875 L185.25,306.5 L185.25,306.125 L185.7656,305.5 L186.25,305.5 L192.25,305.5 L192.7344,305.5 L193.25,306.125 L193.25,306.5 L193.25,306.875 L192.7344,307.5 L192.25,307.5 L190.25,307.5 Z " fill="#000000"/><text fill="#000000" font-family="sans-serif" font-size="12" font-style="italic" lengthAdjust="spacing" textLength="91" x="207.75" y="315.4102">MaxSumAdapter</text><line style="stroke:#A80036;stroke-width:1.5;" x1="155" x2="321" y1="326.5" y2="326.5"/><line style="stroke:#A80036;stroke-width:1.5;" x1="155" x2="321" y1="334.5" y2="334.5"/><ellipse cx="165" cy="345.5" fill="#84BE84" rx="3" ry="3" style="stroke:#038048;stroke-width:1.0;"/><text fill="#000000" font-family="sans-serif" font-size="11" lengthAdjust="spacing" textLength="142" x="174" y="349.9189">getMaxSum(differenceArray)</text><!--MD5=[5c2cc0b014a46c73fdb203783dfa5a39]
class InformationMapper--><rect codeLine="31" fill="#FEFECE" filter="url(#fx6re0bw2t8tw)" height="61.8359" id="InformationMapper" style="stroke:#A80036;stroke-width:1.5;" width="504" x="636" y="130"/><ellipse cx="832.25" cy="146" fill="#ADD1B2" rx="11" ry="11" style="stroke:#A80036;stroke-width:1.0;"/><path d="M834.25,142.5 Q834.4531,142 834.6875,141.75 Q834.9219,141.5 835.1875,141.5 Q835.6563,141.5 835.9531,141.7813 Q836.25,142.0625 836.25,142.7188 L836.25,144.2813 Q836.25,144.9375 835.9688,145.2188 Q835.6875,145.5 835.25,145.5 Q834.8594,145.5 834.6094,145.3281 Q834.3594,145.1563 834.25,144.7031 Q834.2031,144.3906 834.0313,144.2188 Q833.7188,143.8906 833.1563,143.7031 Q832.5938,143.5 832.0313,143.5 Q831.3281,143.5 830.7344,143.7813 Q830.1563,144.0625 829.7031,144.6875 Q829.25,145.3125 829.25,146.1719 L829.25,147.0938 Q829.25,148.125 830.0938,148.8125 Q830.9375,149.5 832.4375,149.5 Q833.3281,149.5 833.9531,149.2969 Q834.3125,149.1875 834.7188,148.8281 Q834.9844,148.625 835.125,148.5625 Q835.2656,148.5 835.4375,148.5 Q835.7656,148.5 836,148.7656 Q836.25,149.0156 836.25,149.375 Q836.25,149.7188 835.9063,150.125 Q835.4063,150.7188 834.6094,151.0469 Q833.5625,151.5 832.2813,151.5 Q830.7813,151.5 829.5781,150.9063 Q828.6094,150.4375 827.9219,149.4219 Q827.25,148.4063 827.25,147.2031 L827.25,146.1094 Q827.25,144.8594 827.8438,143.7656 Q828.4531,142.6719 829.5,142.0938 Q830.5625,141.5 831.75,141.5 Q832.4688,141.5 833.0938,141.75 Q833.7188,142 834.25,142.5 Z " fill="#000000"/><text fill="#000000" font-family="sans-serif" font-size="12" lengthAdjust="spacing" textLength="103" x="852.75" y="150.9102">InformationMapper</text><line style="stroke:#A80036;stroke-width:1.5;" x1="637" x2="1139" y1="162" y2="162"/><line style="stroke:#A80036;stroke-width:1.5;" x1="637" x2="1139" y1="170" y2="170"/><ellipse cx="647" cy="181" fill="#84BE84" rx="3" ry="3" style="stroke:#038048;stroke-width:1.0;"/><text fill="#000000" font-family="sans-serif" font-size="11" lengthAdjust="spacing" textLength="478" x="656" y="185.4189">toDTO(numberOfTests, numberOfWaitingForResults,numberOfWaitingForDiagnostic,masSumArray)</text><!--MD5=[d958ea3543bbbdc894822b45b6672d47]
class InformationDTO--><rect codeLine="35" fill="#FEFECE" filter="url(#fx6re0bw2t8tw)" height="117.1797" id="InformationDTO" style="stroke:#A80036;stroke-width:1.5;" width="548" x="636" y="267"/><ellipse cx="862.25" cy="283" fill="#ADD1B2" rx="11" ry="11" style="stroke:#A80036;stroke-width:1.0;"/><path d="M864.25,279.5 Q864.4531,279 864.6875,278.75 Q864.9219,278.5 865.1875,278.5 Q865.6563,278.5 865.9531,278.7813 Q866.25,279.0625 866.25,279.7188 L866.25,281.2813 Q866.25,281.9375 865.9688,282.2188 Q865.6875,282.5 865.25,282.5 Q864.8594,282.5 864.6094,282.3281 Q864.3594,282.1563 864.25,281.7031 Q864.2031,281.3906 864.0313,281.2188 Q863.7188,280.8906 863.1563,280.7031 Q862.5938,280.5 862.0313,280.5 Q861.3281,280.5 860.7344,280.7813 Q860.1563,281.0625 859.7031,281.6875 Q859.25,282.3125 859.25,283.1719 L859.25,284.0938 Q859.25,285.125 860.0938,285.8125 Q860.9375,286.5 862.4375,286.5 Q863.3281,286.5 863.9531,286.2969 Q864.3125,286.1875 864.7188,285.8281 Q864.9844,285.625 865.125,285.5625 Q865.2656,285.5 865.4375,285.5 Q865.7656,285.5 866,285.7656 Q866.25,286.0156 866.25,286.375 Q866.25,286.7188 865.9063,287.125 Q865.4063,287.7188 864.6094,288.0469 Q863.5625,288.5 862.2813,288.5 Q860.7813,288.5 859.5781,287.9063 Q858.6094,287.4375 857.9219,286.4219 Q857.25,285.4063 857.25,284.2031 L857.25,283.1094 Q857.25,281.8594 857.8438,280.7656 Q858.4531,279.6719 859.5,279.0938 Q860.5625,278.5 861.75,278.5 Q862.4688,278.5 863.0938,278.75 Q863.7188,279 864.25,279.5 Z " fill="#000000"/><text fill="#000000" font-family="sans-serif" font-size="12" lengthAdjust="spacing" textLength="87" x="882.75" y="287.9102">InformationDTO</text><line style="stroke:#A80036;stroke-width:1.5;" x1="637" x2="1183" y1="299" y2="299"/><rect fill="none" height="6" style="stroke:#C82930;stroke-width:1.0;" width="6" x="644" y="307"/><text fill="#000000" font-family="sans-serif" font-size="11" lengthAdjust="spacing" textLength="75" x="656" y="314.4189">numberOfTests</text><rect fill="none" height="6" style="stroke:#C82930;stroke-width:1.0;" width="6" x="644" y="320.8359"/><text fill="#000000" font-family="sans-serif" font-size="11" lengthAdjust="spacing" textLength="135" x="656" y="328.2549">numberOfWaitingForResults</text><rect fill="none" height="6" style="stroke:#C82930;stroke-width:1.0;" width="6" x="644" y="334.6719"/><text fill="#000000" font-family="sans-serif" font-size="11" lengthAdjust="spacing" textLength="149" x="656" y="342.0908">numberOfWaitingForDiagnostic</text><rect fill="none" height="6" style="stroke:#C82930;stroke-width:1.0;" width="6" x="644" y="348.5078"/><text fill="#000000" font-family="sans-serif" font-size="11" lengthAdjust="spacing" textLength="69" x="656" y="355.9268">masSumArray</text><line style="stroke:#A80036;stroke-width:1.5;" x1="637" x2="1183" y1="362.3438" y2="362.3438"/><ellipse cx="647" cy="373.3438" fill="#84BE84" rx="3" ry="3" style="stroke:#038048;stroke-width:1.0;"/><text fill="#000000" font-family="sans-serif" font-size="11" lengthAdjust="spacing" textLength="522" x="656" y="377.7627">InformationDTO(numberOfTests, numberOfWaitingForResults,numberOfWaitingForDiagnostic,masSumArray)</text><!--MD5=[353627c8c411a6e119df40e03d4587a6]
class BruteForceAdapter--><rect codeLine="43" fill="#FEFECE" filter="url(#fx6re0bw2t8tw)" height="48" id="BruteForceAdapter" style="stroke:#A80036;stroke-width:1.5;" width="134" x="17" y="137"/><ellipse cx="32" cy="153" fill="#ADD1B2" rx="11" ry="11" style="stroke:#A80036;stroke-width:1.0;"/><path d="M34,149.5 Q34.2031,149 34.4375,148.75 Q34.6719,148.5 34.9375,148.5 Q35.4063,148.5 35.7031,148.7813 Q36,149.0625 36,149.7188 L36,151.2813 Q36,151.9375 35.7188,152.2188 Q35.4375,152.5 35,152.5 Q34.6094,152.5 34.3594,152.3281 Q34.1094,152.1563 34,151.7031 Q33.9531,151.3906 33.7813,151.2188 Q33.4688,150.8906 32.9063,150.7031 Q32.3438,150.5 31.7813,150.5 Q31.0781,150.5 30.4844,150.7813 Q29.9063,151.0625 29.4531,151.6875 Q29,152.3125 29,153.1719 L29,154.0938 Q29,155.125 29.8438,155.8125 Q30.6875,156.5 32.1875,156.5 Q33.0781,156.5 33.7031,156.2969 Q34.0625,156.1875 34.4688,155.8281 Q34.7344,155.625 34.875,155.5625 Q35.0156,155.5 35.1875,155.5 Q35.5156,155.5 35.75,155.7656 Q36,156.0156 36,156.375 Q36,156.7188 35.6563,157.125 Q35.1563,157.7188 34.3594,158.0469 Q33.3125,158.5 32.0313,158.5 Q30.5313,158.5 29.3281,157.9063 Q28.3594,157.4375 27.6719,156.4219 Q27,155.4063 27,154.2031 L27,153.1094 Q27,151.8594 27.5938,150.7656 Q28.2031,149.6719 29.25,149.0938 Q30.3125,148.5 31.5,148.5 Q32.2188,148.5 32.8438,148.75 Q33.4688,149 34,149.5 Z " fill="#000000"/><text fill="#000000" font-family="sans-serif" font-size="12" lengthAdjust="spacing" textLength="102" x="46" y="157.9102">BruteForceAdapter</text><line style="stroke:#A80036;stroke-width:1.5;" x1="18" x2="150" y1="169" y2="169"/><line style="stroke:#A80036;stroke-width:1.5;" x1="18" x2="150" y1="177" y2="177"/><!--MD5=[e3c1d1270012c6b2c5c7c678a4b80154]
class BenchmarkAdapter--><rect codeLine="46" fill="#FEFECE" filter="url(#fx6re0bw2t8tw)" height="48" id="BenchmarkAdapter" style="stroke:#A80036;stroke-width:1.5;" width="137" x="188.5" y="137"/><ellipse cx="203.5" cy="153" fill="#ADD1B2" rx="11" ry="11" style="stroke:#A80036;stroke-width:1.0;"/><path d="M205.5,149.5 Q205.7031,149 205.9375,148.75 Q206.1719,148.5 206.4375,148.5 Q206.9063,148.5 207.2031,148.7813 Q207.5,149.0625 207.5,149.7188 L207.5,151.2813 Q207.5,151.9375 207.2188,152.2188 Q206.9375,152.5 206.5,152.5 Q206.1094,152.5 205.8594,152.3281 Q205.6094,152.1563 205.5,151.7031 Q205.4531,151.3906 205.2813,151.2188 Q204.9688,150.8906 204.4063,150.7031 Q203.8438,150.5 203.2813,150.5 Q202.5781,150.5 201.9844,150.7813 Q201.4063,151.0625 200.9531,151.6875 Q200.5,152.3125 200.5,153.1719 L200.5,154.0938 Q200.5,155.125 201.3438,155.8125 Q202.1875,156.5 203.6875,156.5 Q204.5781,156.5 205.2031,156.2969 Q205.5625,156.1875 205.9688,155.8281 Q206.2344,155.625 206.375,155.5625 Q206.5156,155.5 206.6875,155.5 Q207.0156,155.5 207.25,155.7656 Q207.5,156.0156 207.5,156.375 Q207.5,156.7188 207.1563,157.125 Q206.6563,157.7188 205.8594,158.0469 Q204.8125,158.5 203.5313,158.5 Q202.0313,158.5 200.8281,157.9063 Q199.8594,157.4375 199.1719,156.4219 Q198.5,155.4063 198.5,154.2031 L198.5,153.1094 Q198.5,151.8594 199.0938,150.7656 Q199.7031,149.6719 200.75,149.0938 Q201.8125,148.5 203,148.5 Q203.7188,148.5 204.3438,148.75 Q204.9688,149 205.5,149.5 Z " fill="#000000"/><text fill="#000000" font-family="sans-serif" font-size="12" lengthAdjust="spacing" textLength="105" x="217.5" y="157.9102">BenchmarkAdapter</text><line style="stroke:#A80036;stroke-width:1.5;" x1="189.5" x2="324.5" y1="169" y2="169"/><line style="stroke:#A80036;stroke-width:1.5;" x1="189.5" x2="324.5" y1="177" y2="177"/><!--MD5=[1dec90c14ec2ba3af2708f621be65d00]
class BruteForceAlgorithm--><rect codeLine="48" fill="#FEFECE" filter="url(#fx6re0bw2t8tw)" height="48" id="BruteForceAlgorithm" style="stroke:#A80036;stroke-width:1.5;" width="144" x="7" y="7"/><ellipse cx="22" cy="23" fill="#ADD1B2" rx="11" ry="11" style="stroke:#A80036;stroke-width:1.0;"/><path d="M24,19.5 Q24.2031,19 24.4375,18.75 Q24.6719,18.5 24.9375,18.5 Q25.4063,18.5 25.7031,18.7813 Q26,19.0625 26,19.7188 L26,21.2813 Q26,21.9375 25.7188,22.2188 Q25.4375,22.5 25,22.5 Q24.6094,22.5 24.3594,22.3281 Q24.1094,22.1563 24,21.7031 Q23.9531,21.3906 23.7813,21.2188 Q23.4688,20.8906 22.9063,20.7031 Q22.3438,20.5 21.7813,20.5 Q21.0781,20.5 20.4844,20.7813 Q19.9063,21.0625 19.4531,21.6875 Q19,22.3125 19,23.1719 L19,24.0938 Q19,25.125 19.8438,25.8125 Q20.6875,26.5 22.1875,26.5 Q23.0781,26.5 23.7031,26.2969 Q24.0625,26.1875 24.4688,25.8281 Q24.7344,25.625 24.875,25.5625 Q25.0156,25.5 25.1875,25.5 Q25.5156,25.5 25.75,25.7656 Q26,26.0156 26,26.375 Q26,26.7188 25.6563,27.125 Q25.1563,27.7188 24.3594,28.0469 Q23.3125,28.5 22.0313,28.5 Q20.5313,28.5 19.3281,27.9063 Q18.3594,27.4375 17.6719,26.4219 Q17,25.4063 17,24.2031 L17,23.1094 Q17,21.8594 17.5938,20.7656 Q18.2031,19.6719 19.25,19.0938 Q20.3125,18.5 21.5,18.5 Q22.2188,18.5 22.8438,18.75 Q23.4688,19 24,19.5 Z " fill="#000000"/><text fill="#000000" font-family="sans-serif" font-size="12" lengthAdjust="spacing" textLength="112" x="36" y="27.9102">BruteForceAlgorithm</text><line style="stroke:#A80036;stroke-width:1.5;" x1="8" x2="150" y1="39" y2="39"/><line style="stroke:#A80036;stroke-width:1.5;" x1="8" x2="150" y1="47" y2="47"/><!--MD5=[11bfefeec74d45075ceaf494a510e590]
class BenchmarkAlgorithm--><rect codeLine="51" fill="#FEFECE" filter="url(#fx6re0bw2t8tw)" height="48" id="BenchmarkAlgorithm" style="stroke:#A80036;stroke-width:1.5;" width="147" x="186.5" y="7"/><ellipse cx="201.5" cy="23" fill="#ADD1B2" rx="11" ry="11" style="stroke:#A80036;stroke-width:1.0;"/><path d="M203.5,19.5 Q203.7031,19 203.9375,18.75 Q204.1719,18.5 204.4375,18.5 Q204.9063,18.5 205.2031,18.7813 Q205.5,19.0625 205.5,19.7188 L205.5,21.2813 Q205.5,21.9375 205.2188,22.2188 Q204.9375,22.5 204.5,22.5 Q204.1094,22.5 203.8594,22.3281 Q203.6094,22.1563 203.5,21.7031 Q203.4531,21.3906 203.2813,21.2188 Q202.9688,20.8906 202.4063,20.7031 Q201.8438,20.5 201.2813,20.5 Q200.5781,20.5 199.9844,20.7813 Q199.4063,21.0625 198.9531,21.6875 Q198.5,22.3125 198.5,23.1719 L198.5,24.0938 Q198.5,25.125 199.3438,25.8125 Q200.1875,26.5 201.6875,26.5 Q202.5781,26.5 203.2031,26.2969 Q203.5625,26.1875 203.9688,25.8281 Q204.2344,25.625 204.375,25.5625 Q204.5156,25.5 204.6875,25.5 Q205.0156,25.5 205.25,25.7656 Q205.5,26.0156 205.5,26.375 Q205.5,26.7188 205.1563,27.125 Q204.6563,27.7188 203.8594,28.0469 Q202.8125,28.5 201.5313,28.5 Q200.0313,28.5 198.8281,27.9063 Q197.8594,27.4375 197.1719,26.4219 Q196.5,25.4063 196.5,24.2031 L196.5,23.1094 Q196.5,21.8594 197.0938,20.7656 Q197.7031,19.6719 198.75,19.0938 Q199.8125,18.5 201,18.5 Q201.7188,18.5 202.3438,18.75 Q202.9688,19 203.5,19.5 Z " fill="#000000"/><text fill="#000000" font-family="sans-serif" font-size="12" lengthAdjust="spacing" textLength="115" x="215.5" y="27.9102">BenchmarkAlgorithm</text><line style="stroke:#A80036;stroke-width:1.5;" x1="187.5" x2="332.5" y1="39" y2="39"/><line style="stroke:#A80036;stroke-width:1.5;" x1="187.5" x2="332.5" y1="47" y2="47"/><!--MD5=[00d80cb1b444f71274b1ed2d244b169b]
link CheckPerformanceUI to CheckPerformanceController--><path codeLine="54" d="M479,55.18 C479,70.59 479,91.42 479,110.45 " fill="none" id="CheckPerformanceUI-to-CheckPerformanceController" style="stroke:#A80036;stroke-width:1.0;stroke-dasharray:7.0,7.0;"/><polygon fill="#A80036" points="479,115.76,483,106.76,479,110.76,475,106.76,479,115.76" style="stroke:#A80036;stroke-width:1.0;"/><!--MD5=[a4e6bb2f6846bcd2250842dc92ddd04f]
link CheckPerformanceController to Company--><path codeLine="55" d="M479,206.4 C479,229.99 479,258.84 479,282.11 " fill="none" id="CheckPerformanceController-to-Company" style="stroke:#A80036;stroke-width:1.0;stroke-dasharray:7.0,7.0;"/><polygon fill="#A80036" points="479,287.3,483,278.3,479,282.3,475,278.3,479,287.3" style="stroke:#A80036;stroke-width:1.0;"/><!--MD5=[a11230341c8e65219708844feaa40162]
link Company to ClientStore--><path codeLine="57" d="M486.52,363.65 C491.94,384.82 500.69,411.19 514,432 C523.45,446.78 536.52,460.61 549.3,472.24 " fill="none" id="Company-to-ClientStore" style="stroke:#A80036;stroke-width:1.0;"/><polygon fill="#A80036" points="553.25,475.77,549.1999,466.7924,549.5201,472.4402,543.8723,472.7603,553.25,475.77" style="stroke:#A80036;stroke-width:1.0;"/><polygon fill="#000000" points="521.5026,427.5044,519.5197,418.2029,514.4311,421.1448,521.5026,427.5044" style="stroke:#000000;stroke-width:1.0;"/><text fill="#000000" font-family="sans-serif" font-size="13" lengthAdjust="spacing" textLength="28" x="528" y="428.4951">uses</text><!--MD5=[7f6cf7f175eae0af66201860de5de971]
link Company to TestStore--><path codeLine="58" d="M455.38,363.69 C438.1,390.9 414.5,428.06 395.75,457.59 " fill="none" id="Company-to-TestStore" style="stroke:#A80036;stroke-width:1.0;"/><polygon fill="#A80036" points="393.02,461.88,401.2086,456.4076,395.6905,457.6529,394.4452,452.1348,393.02,461.88" style="stroke:#A80036;stroke-width:1.0;"/><polygon fill="#000000" points="424.3196,427.3966,431.6494,421.3365,426.6875,418.1856,424.3196,427.3966" style="stroke:#000000;stroke-width:1.0;"/><text fill="#000000" font-family="sans-serif" font-size="13" lengthAdjust="spacing" textLength="28" x="436" y="428.4951">uses</text><!--MD5=[6c0c1830eb56147542818754c5619923]
link CheckPerformanceController to ClientStore--><path codeLine="60" d="M513.01,206.16 C525.4,224.17 538.45,245.74 547,267 C574.77,336.03 586.1,423.17 590.47,470.85 " fill="none" id="CheckPerformanceController-to-ClientStore" style="stroke:#A80036;stroke-width:1.0;stroke-dasharray:7.0,7.0;"/><polygon fill="#A80036" points="590.92,475.9,594.108,466.5814,590.4776,470.9196,586.1394,467.2892,590.92,475.9" style="stroke:#A80036;stroke-width:1.0;"/><!--MD5=[b19dbc05a0ce20a1977a8b9fe378f9f6]
link CheckPerformanceController to TestStore--><path codeLine="61" d="M444.99,206.16 C432.6,224.17 419.55,245.74 411,267 C385.77,329.73 374.11,407.41 368.91,456.84 " fill="none" id="CheckPerformanceController-to-TestStore" style="stroke:#A80036;stroke-width:1.0;stroke-dasharray:7.0,7.0;"/><polygon fill="#A80036" points="368.4,461.84,373.3049,453.2994,368.9145,456.8665,365.3473,452.4762,368.4,461.84" style="stroke:#A80036;stroke-width:1.0;"/><!--MD5=[306ccb5fde71d530be83066ff0686145]
link CheckPerformanceController to MaxSumAdapter--><path codeLine="63" d="M397.03,206.08 C380.83,215.51 364.16,225.73 349,236 C324.13,252.84 297.78,273.71 277,290.95 " fill="none" id="CheckPerformanceController-to-MaxSumAdapter" style="stroke:#A80036;stroke-width:1.0;stroke-dasharray:7.0,7.0;"/><polygon fill="#A80036" points="272.92,294.34,282.3957,291.6547,276.7623,291.1405,277.2765,285.507,272.92,294.34" style="stroke:#A80036;stroke-width:1.0;"/><!--MD5=[123e3cfcf57c1a13154239bbf0a3ad94]
link CheckPerformanceController to InformationMapper--><path codeLine="65" d="M578.05,161 C595.52,161 612.98,161 630.45,161 " fill="none" id="CheckPerformanceController-to-InformationMapper" style="stroke:#A80036;stroke-width:1.0;stroke-dasharray:7.0,7.0;"/><polygon fill="#A80036" points="635.87,161,626.87,157,630.87,161,626.87,165,635.87,161" style="stroke:#A80036;stroke-width:1.0;"/><!--MD5=[3972baaef0ee361a84aa30142b86f006]
link InformationMapper to InformationDTO--><path codeLine="66" d="M892.09,192.18 C894.73,211.72 898.27,237.88 901.51,261.78 " fill="none" id="InformationMapper-to-InformationDTO" style="stroke:#A80036;stroke-width:1.0;"/><polygon fill="#A80036" points="902.19,266.85,904.9458,257.3946,901.5189,261.8952,897.0182,258.4683,902.19,266.85" style="stroke:#A80036;stroke-width:1.0;"/><!--MD5=[957cb2bd4807780acb52c5c528d903be]
reverse link BenchmarkAlgorithm to BenchmarkAdapter--><path codeLine="67" d="M259.34,60.25 C258.8,83.31 258.04,115.48 257.54,136.99 " fill="none" id="BenchmarkAlgorithm-backto-BenchmarkAdapter" style="stroke:#A80036;stroke-width:1.0;"/><polygon fill="#A80036" points="259.46,55.18,255.2554,64.0862,259.3457,60.1787,263.2533,64.2691,259.46,55.18" style="stroke:#A80036;stroke-width:1.0;"/><!--MD5=[341d5306d17046cddd505b8e1496d9ae]
reverse link BruteForceAlgorithm to BruteForceAdapter--><path codeLine="68" d="M80.1,60.25 C81,83.31 82.26,115.48 83.1,136.99 " fill="none" id="BruteForceAlgorithm-backto-BruteForceAdapter" style="stroke:#A80036;stroke-width:1.0;"/><polygon fill="#A80036" points="79.91,55.18,76.2468,64.3223,80.0956,60.1766,84.2413,64.0253,79.91,55.18" style="stroke:#A80036;stroke-width:1.0;"/><!--MD5=[147a04d424604e92afb712fb0fa24da0]
link BenchmarkAdapter to MaxSumAdapter--><path codeLine="70" d="M254.28,185.28 C251.58,208.37 247.35,244.5 243.89,274.17 " fill="none" id="BenchmarkAdapter-to-MaxSumAdapter" style="stroke:#A80036;stroke-width:1.0;"/><polygon fill="none" points="250.8,275.3,241.53,294.35,236.9,273.67,250.8,275.3" style="stroke:#A80036;stroke-width:1.0;"/><!--MD5=[fcec16cbc5754c7244187915ef110d0b]
link BruteForceAdapter to MaxSumAdapter--><path codeLine="71" d="M106.06,185.28 C129.33,209.83 166.56,249.11 195.54,279.7 " fill="none" id="BruteForceAdapter-to-MaxSumAdapter" style="stroke:#A80036;stroke-width:1.0;"/><polygon fill="none" points="200.75,275.02,209.42,294.35,190.59,284.65,200.75,275.02" style="stroke:#A80036;stroke-width:1.0;"/><!--MD5=[b1527eff9a347e390a29f2a379a5d6cc]
@startuml
'https://plantuml.com/class-diagram

class CheckPerformanceUI{
}

class CheckPerformanceController{
+getInterval(beginningDate, endDate)
+selectAlgorithm(algorithm)
+selectScope(scope)
}

class Company{
+getTestStore()
+getClientStore()
}

class ClientStore{
+getNumberOfClients()
}

class TestStore{
+getNumberOfTests(scope)
+getNumberOfTestsWaitingForResults(scope)
+getNumberOfTestsWaitingForDiagnostic(scope)
}

interface MaxSumAdapter{
+getMaxSum(differenceArray)
}

class InformationMapper{
+toDTO(numberOfTests, numberOfWaitingForResults,numberOfWaitingForDiagnostic,masSumArray)
}

class InformationDTO{
-numberOfTests
-numberOfWaitingForResults
-numberOfWaitingForDiagnostic
-masSumArray
+InformationDTO(numberOfTests, numberOfWaitingForResults,numberOfWaitingForDiagnostic,masSumArray)
}

class BruteForceAdapter{
}

class BenchmarkAdapter{
}
class BruteForceAlgorithm{
}

class BenchmarkAlgorithm{
}

CheckPerformanceUI ..> CheckPerformanceController
CheckPerformanceController ..> Company

Company - -> ClientStore: uses >
Company - -> TestStore: uses >

CheckPerformanceController ..> ClientStore
CheckPerformanceController ..> TestStore

CheckPerformanceController ..> MaxSumAdapter

CheckPerformanceController .> InformationMapper
InformationMapper - -> InformationDTO
BenchmarkAlgorithm <- - BenchmarkAdapter
BruteForceAlgorithm <- - BruteForceAdapter

BenchmarkAdapter - -|> MaxSumAdapter
BruteForceAdapter - -|> MaxSumAdapter




@enduml

@startuml

class CheckPerformanceUI{
}

class CheckPerformanceController{
+getInterval(beginningDate, endDate)
+selectAlgorithm(algorithm)
+selectScope(scope)
}

class Company{
+getTestStore()
+getClientStore()
}

class ClientStore{
+getNumberOfClients()
}

class TestStore{
+getNumberOfTests(scope)
+getNumberOfTestsWaitingForResults(scope)
+getNumberOfTestsWaitingForDiagnostic(scope)
}

interface MaxSumAdapter{
+getMaxSum(differenceArray)
}

class InformationMapper{
+toDTO(numberOfTests, numberOfWaitingForResults,numberOfWaitingForDiagnostic,masSumArray)
}

class InformationDTO{
-numberOfTests
-numberOfWaitingForResults
-numberOfWaitingForDiagnostic
-masSumArray
+InformationDTO(numberOfTests, numberOfWaitingForResults,numberOfWaitingForDiagnostic,masSumArray)
}

class BruteForceAdapter{
}

class BenchmarkAdapter{
}
class BruteForceAlgorithm{
}

class BenchmarkAlgorithm{
}

CheckPerformanceUI ..> CheckPerformanceController
CheckPerformanceController ..> Company

Company - -> ClientStore: uses >
Company - -> TestStore: uses >

CheckPerformanceController ..> ClientStore
CheckPerformanceController ..> TestStore

CheckPerformanceController ..> MaxSumAdapter

CheckPerformanceController .> InformationMapper
InformationMapper - -> InformationDTO
BenchmarkAlgorithm <- - BenchmarkAdapter
BruteForceAlgorithm <- - BruteForceAdapter

BenchmarkAdapter - -|> MaxSumAdapter
BruteForceAdapter - -|> MaxSumAdapter




@enduml

PlantUML version 1.2021.7(Sun May 23 13:40:07 BST 2021)
(GPL source distribution)
Java Runtime: OpenJDK Runtime Environment
JVM: Dynamic Code Evolution 64-Bit Server VM
Default Encoding: Cp1252
Language: pt
Country: PT
--></g></svg>