<?xml version="1.0" encoding="UTF-8" standalone="no"?>
<svg xmlns="http://www.w3.org/2000/svg"
     contentScriptType="application/ecmascript" contentStyleType="text/css" height="722px" preserveAspectRatio="none"
     style="width:288px;height:722px;" version="1.1" viewBox="0 0 288 722" width="288px" zoomAndPan="magnify">
    <defs>
        <filter height="300%" id="f1oacw1y21dnid" width="300%" x="-1" y="-1">
            <feGaussianBlur result="blurOut" stdDeviation="2.0"/>
            <feColorMatrix in="blurOut" result="blurOut2" type="matrix"
                           values="0 0 0 0 0 0 0 0 0 0 0 0 0 0 0 0 0 0 .4 0"/>
            <feOffset dx="4.0" dy="4.0" in="blurOut2" result="blurOut3"/>
            <feBlend in="SourceGraphic" in2="blurOut3" mode="normal"/>
        </filter>
    </defs>
    <g><!--MD5=[6017f56a87b244e108fd0d8749edd53c]
class CreateParameterCategoryUI-->
        <rect codeLine="3" fill="#FEFECE" filter="url(#f1oacw1y21dnid)" height="48" id="CreateParameterCategoryUI"
              style="stroke:#A80036;stroke-width:1.5;" width="188" x="65" y="7"/>
        <ellipse cx="80" cy="23" fill="#ADD1B2" rx="11" ry="11" style="stroke:#A80036;stroke-width:1.0;"/>
        <path d="M82,19.5 Q82.2031,19 82.4375,18.75 Q82.6719,18.5 82.9375,18.5 Q83.4063,18.5 83.7031,18.7813 Q84,19.0625 84,19.7188 L84,21.2813 Q84,21.9375 83.7188,22.2188 Q83.4375,22.5 83,22.5 Q82.6094,22.5 82.3594,22.3281 Q82.1094,22.1563 82,21.7031 Q81.9531,21.3906 81.7813,21.2188 Q81.4688,20.8906 80.9063,20.7031 Q80.3438,20.5 79.7813,20.5 Q79.0781,20.5 78.4844,20.7813 Q77.9063,21.0625 77.4531,21.6875 Q77,22.3125 77,23.1719 L77,24.0938 Q77,25.125 77.8438,25.8125 Q78.6875,26.5 80.1875,26.5 Q81.0781,26.5 81.7031,26.2969 Q82.0625,26.1875 82.4688,25.8281 Q82.7344,25.625 82.875,25.5625 Q83.0156,25.5 83.1875,25.5 Q83.5156,25.5 83.75,25.7656 Q84,26.0156 84,26.375 Q84,26.7188 83.6563,27.125 Q83.1563,27.7188 82.3594,28.0469 Q81.3125,28.5 80.0313,28.5 Q78.5313,28.5 77.3281,27.9063 Q76.3594,27.4375 75.6719,26.4219 Q75,25.4063 75,24.2031 L75,23.1094 Q75,21.8594 75.5938,20.7656 Q76.2031,19.6719 77.25,19.0938 Q78.3125,18.5 79.5,18.5 Q80.2188,18.5 80.8438,18.75 Q81.4688,19 82,19.5 Z "
              fill="#000000"/>
        <text fill="#000000" font-family="sans-serif" font-size="12" lengthAdjust="spacing" textLength="156" x="94"
              y="27.9102">CreateParameterCategoryUI
        </text>
        <line style="stroke:#A80036;stroke-width:1.5;" x1="66" x2="252" y1="39" y2="39"/>
        <line style="stroke:#A80036;stroke-width:1.5;" x1="66" x2="252" y1="47" y2="47"/><!--MD5=[43bb81d93caae6cc68206df5797cd1c4]
class CreateParameterCategoryController-->
        <rect codeLine="5" fill="#FEFECE" filter="url(#f1oacw1y21dnid)" height="103.3438"
              id="CreateParameterCategoryController" style="stroke:#A80036;stroke-width:1.5;" width="230" x="44"
              y="115"/>
        <ellipse cx="59" cy="131" fill="#ADD1B2" rx="11" ry="11" style="stroke:#A80036;stroke-width:1.0;"/>
        <path d="M61,127.5 Q61.2031,127 61.4375,126.75 Q61.6719,126.5 61.9375,126.5 Q62.4063,126.5 62.7031,126.7813 Q63,127.0625 63,127.7188 L63,129.2813 Q63,129.9375 62.7188,130.2188 Q62.4375,130.5 62,130.5 Q61.6094,130.5 61.3594,130.3281 Q61.1094,130.1563 61,129.7031 Q60.9531,129.3906 60.7813,129.2188 Q60.4688,128.8906 59.9063,128.7031 Q59.3438,128.5 58.7813,128.5 Q58.0781,128.5 57.4844,128.7813 Q56.9063,129.0625 56.4531,129.6875 Q56,130.3125 56,131.1719 L56,132.0938 Q56,133.125 56.8438,133.8125 Q57.6875,134.5 59.1875,134.5 Q60.0781,134.5 60.7031,134.2969 Q61.0625,134.1875 61.4688,133.8281 Q61.7344,133.625 61.875,133.5625 Q62.0156,133.5 62.1875,133.5 Q62.5156,133.5 62.75,133.7656 Q63,134.0156 63,134.375 Q63,134.7188 62.6563,135.125 Q62.1563,135.7188 61.3594,136.0469 Q60.3125,136.5 59.0313,136.5 Q57.5313,136.5 56.3281,135.9063 Q55.3594,135.4375 54.6719,134.4219 Q54,133.4063 54,132.2031 L54,131.1094 Q54,129.8594 54.5938,128.7656 Q55.2031,127.6719 56.25,127.0938 Q57.3125,126.5 58.5,126.5 Q59.2188,126.5 59.8438,126.75 Q60.4688,127 61,127.5 Z "
              fill="#000000"/>
        <text fill="#000000" font-family="sans-serif" font-size="12" lengthAdjust="spacing" textLength="198" x="73"
              y="135.9102">CreateParameterCategoryController
        </text>
        <line style="stroke:#A80036;stroke-width:1.5;" x1="45" x2="273" y1="147" y2="147"/>
        <rect fill="none" height="6" style="stroke:#C82930;stroke-width:1.0;" width="6" x="52" y="155"/>
        <text fill="#000000" font-family="sans-serif" font-size="11" lengthAdjust="spacing" textLength="44" x="64"
              y="162.4189">company
        </text>
        <rect fill="none" height="6" style="stroke:#C82930;stroke-width:1.0;" width="6" x="52" y="168.8359"/>
        <text fill="#000000" font-family="sans-serif" font-size="11" lengthAdjust="spacing" textLength="75" x="64"
              y="176.2549">parameterStore
        </text>
        <line style="stroke:#A80036;stroke-width:1.5;" x1="45" x2="273" y1="182.6719" y2="182.6719"/>
        <ellipse cx="55" cy="193.6719" fill="#84BE84" rx="3" ry="3" style="stroke:#038048;stroke-width:1.0;"/>
        <text fill="#000000" font-family="sans-serif" font-size="11" lengthAdjust="spacing" textLength="125" x="64"
              y="198.0908">saveParameterCategory()
        </text>
        <ellipse cx="55" cy="207.5078" fill="#84BE84" rx="3" ry="3" style="stroke:#038048;stroke-width:1.0;"/>
        <text fill="#000000" font-family="sans-serif" font-size="11" lengthAdjust="spacing" textLength="188" x="64"
              y="211.9268">createParameterCategory(code, name)
        </text><!--MD5=[02e4b9b7573f1156f41e60aa5b4e25a4]
class Company-->
        <rect codeLine="11" fill="#FEFECE" filter="url(#f1oacw1y21dnid)" height="89.5078" id="Company"
              style="stroke:#A80036;stroke-width:1.5;" width="168" x="7" y="278"/>
        <ellipse cx="60.25" cy="294" fill="#ADD1B2" rx="11" ry="11" style="stroke:#A80036;stroke-width:1.0;"/>
        <path d="M62.25,290.5 Q62.4531,290 62.6875,289.75 Q62.9219,289.5 63.1875,289.5 Q63.6563,289.5 63.9531,289.7813 Q64.25,290.0625 64.25,290.7188 L64.25,292.2813 Q64.25,292.9375 63.9688,293.2188 Q63.6875,293.5 63.25,293.5 Q62.8594,293.5 62.6094,293.3281 Q62.3594,293.1563 62.25,292.7031 Q62.2031,292.3906 62.0313,292.2188 Q61.7188,291.8906 61.1563,291.7031 Q60.5938,291.5 60.0313,291.5 Q59.3281,291.5 58.7344,291.7813 Q58.1563,292.0625 57.7031,292.6875 Q57.25,293.3125 57.25,294.1719 L57.25,295.0938 Q57.25,296.125 58.0938,296.8125 Q58.9375,297.5 60.4375,297.5 Q61.3281,297.5 61.9531,297.2969 Q62.3125,297.1875 62.7188,296.8281 Q62.9844,296.625 63.125,296.5625 Q63.2656,296.5 63.4375,296.5 Q63.7656,296.5 64,296.7656 Q64.25,297.0156 64.25,297.375 Q64.25,297.7188 63.9063,298.125 Q63.4063,298.7188 62.6094,299.0469 Q61.5625,299.5 60.2813,299.5 Q58.7813,299.5 57.5781,298.9063 Q56.6094,298.4375 55.9219,297.4219 Q55.25,296.4063 55.25,295.2031 L55.25,294.1094 Q55.25,292.8594 55.8438,291.7656 Q56.4531,290.6719 57.5,290.0938 Q58.5625,289.5 59.75,289.5 Q60.4688,289.5 61.0938,289.75 Q61.7188,290 62.25,290.5 Z "
              fill="#000000"/>
        <text fill="#000000" font-family="sans-serif" font-size="12" lengthAdjust="spacing" textLength="53" x="80.75"
              y="298.9102">Company
        </text>
        <line style="stroke:#A80036;stroke-width:1.5;" x1="8" x2="174" y1="310" y2="310"/>
        <rect fill="none" height="6" style="stroke:#C82930;stroke-width:1.0;" width="6" x="15" y="318"/>
        <text fill="#000000" font-family="sans-serif" font-size="11" lengthAdjust="spacing" textLength="75" x="27"
              y="325.4189">parameterStore
        </text>
        <rect fill="none" height="6" style="stroke:#C82930;stroke-width:1.0;" width="6" x="15" y="331.8359"/>
        <text fill="#000000" font-family="sans-serif" font-size="11" lengthAdjust="spacing" textLength="55" x="27"
              y="339.2549">designation
        </text>
        <line style="stroke:#A80036;stroke-width:1.5;" x1="8" x2="174" y1="345.6719" y2="345.6719"/>
        <ellipse cx="18" cy="356.6719" fill="#84BE84" rx="3" ry="3" style="stroke:#038048;stroke-width:1.0;"/>
        <text fill="#000000" font-family="sans-serif" font-size="11" lengthAdjust="spacing" textLength="142" x="27"
              y="361.0908">getParameterCategoryStore()
        </text><!--MD5=[d802db621b5b215a6f0466f93cefcb42]
class ParameterCategoryStore-->
        <rect codeLine="16" fill="#FEFECE" filter="url(#f1oacw1y21dnid)" height="131.0156" id="ParameterCategoryStore"
              style="stroke:#A80036;stroke-width:1.5;" width="214" x="52" y="428"/>
        <ellipse cx="87.7" cy="444" fill="#ADD1B2" rx="11" ry="11" style="stroke:#A80036;stroke-width:1.0;"/>
        <path d="M89.7,440.5 Q89.9031,440 90.1375,439.75 Q90.3719,439.5 90.6375,439.5 Q91.1063,439.5 91.4031,439.7813 Q91.7,440.0625 91.7,440.7188 L91.7,442.2813 Q91.7,442.9375 91.4188,443.2188 Q91.1375,443.5 90.7,443.5 Q90.3094,443.5 90.0594,443.3281 Q89.8094,443.1563 89.7,442.7031 Q89.6531,442.3906 89.4813,442.2188 Q89.1688,441.8906 88.6063,441.7031 Q88.0438,441.5 87.4813,441.5 Q86.7781,441.5 86.1844,441.7813 Q85.6063,442.0625 85.1531,442.6875 Q84.7,443.3125 84.7,444.1719 L84.7,445.0938 Q84.7,446.125 85.5438,446.8125 Q86.3875,447.5 87.8875,447.5 Q88.7781,447.5 89.4031,447.2969 Q89.7625,447.1875 90.1688,446.8281 Q90.4344,446.625 90.575,446.5625 Q90.7156,446.5 90.8875,446.5 Q91.2156,446.5 91.45,446.7656 Q91.7,447.0156 91.7,447.375 Q91.7,447.7188 91.3563,448.125 Q90.8563,448.7188 90.0594,449.0469 Q89.0125,449.5 87.7313,449.5 Q86.2313,449.5 85.0281,448.9063 Q84.0594,448.4375 83.3719,447.4219 Q82.7,446.4063 82.7,445.2031 L82.7,444.1094 Q82.7,442.8594 83.2938,441.7656 Q83.9031,440.6719 84.95,440.0938 Q86.0125,439.5 87.2,439.5 Q87.9188,439.5 88.5438,439.75 Q89.1688,440 89.7,440.5 Z "
              fill="#000000"/>
        <text fill="#000000" font-family="sans-serif" font-size="12" lengthAdjust="spacing" textLength="136" x="106.3"
              y="448.9102">ParameterCategoryStore
        </text>
        <line style="stroke:#A80036;stroke-width:1.5;" x1="53" x2="265" y1="460" y2="460"/>
        <rect fill="none" height="6" style="stroke:#C82930;stroke-width:1.0;" width="6" x="60" y="468"/>
        <text fill="#000000" font-family="sans-serif" font-size="11" lengthAdjust="spacing" textLength="60" x="72"
              y="475.4189">categoryList
        </text>
        <rect fill="none" height="6" style="stroke:#C82930;stroke-width:1.0;" width="6" x="60" y="481.8359"/>
        <text fill="#000000" font-family="sans-serif" font-size="11" lengthAdjust="spacing" textLength="43" x="72"
              y="489.2549">category
        </text>
        <line style="stroke:#A80036;stroke-width:1.5;" x1="53" x2="265" y1="495.6719" y2="495.6719"/>
        <ellipse cx="63" cy="506.6719" fill="#84BE84" rx="3" ry="3" style="stroke:#038048;stroke-width:1.0;"/>
        <text fill="#000000" font-family="sans-serif" font-size="11" lengthAdjust="spacing" textLength="188" x="72"
              y="511.0908">createParameterCategory(code, name)
        </text>
        <ellipse cx="63" cy="520.5078" fill="#84BE84" rx="3" ry="3" style="stroke:#038048;stroke-width:1.0;"/>
        <text fill="#000000" font-family="sans-serif" font-size="11" lengthAdjust="spacing" textLength="137" x="72"
              y="524.9268">saveParameterCategory(pc)
        </text>
        <ellipse cx="63" cy="534.3438" fill="#84BE84" rx="3" ry="3" style="stroke:#038048;stroke-width:1.0;"/>
        <text fill="#000000" font-family="sans-serif" font-size="11" lengthAdjust="spacing" textLength="150" x="72"
              y="538.7627">validateParameterCategory(pc)
        </text>
        <ellipse cx="63" cy="548.1797" fill="#84BE84" rx="3" ry="3" style="stroke:#038048;stroke-width:1.0;"/>
        <text fill="#000000" font-family="sans-serif" font-size="11" lengthAdjust="spacing" textLength="131" x="72"
              y="552.5986">addParameterCategory(pc)
        </text><!--MD5=[36afb6bbd95a8ac778c4537c55a683d5]
class ParameterCategory-->
        <rect codeLine="25" fill="#FEFECE" filter="url(#f1oacw1y21dnid)" height="89.5078" id="ParameterCategory"
              style="stroke:#A80036;stroke-width:1.5;" width="180" x="69" y="619"/>
        <ellipse cx="102.45" cy="635" fill="#ADD1B2" rx="11" ry="11" style="stroke:#A80036;stroke-width:1.0;"/>
        <path d="M104.45,631.5 Q104.6531,631 104.8875,630.75 Q105.1219,630.5 105.3875,630.5 Q105.8563,630.5 106.1531,630.7813 Q106.45,631.0625 106.45,631.7188 L106.45,633.2813 Q106.45,633.9375 106.1688,634.2188 Q105.8875,634.5 105.45,634.5 Q105.0594,634.5 104.8094,634.3281 Q104.5594,634.1563 104.45,633.7031 Q104.4031,633.3906 104.2313,633.2188 Q103.9188,632.8906 103.3563,632.7031 Q102.7938,632.5 102.2313,632.5 Q101.5281,632.5 100.9344,632.7813 Q100.3563,633.0625 99.9031,633.6875 Q99.45,634.3125 99.45,635.1719 L99.45,636.0938 Q99.45,637.125 100.2938,637.8125 Q101.1375,638.5 102.6375,638.5 Q103.5281,638.5 104.1531,638.2969 Q104.5125,638.1875 104.9188,637.8281 Q105.1844,637.625 105.325,637.5625 Q105.4656,637.5 105.6375,637.5 Q105.9656,637.5 106.2,637.7656 Q106.45,638.0156 106.45,638.375 Q106.45,638.7188 106.1063,639.125 Q105.6063,639.7188 104.8094,640.0469 Q103.7625,640.5 102.4813,640.5 Q100.9813,640.5 99.7781,639.9063 Q98.8094,639.4375 98.1219,638.4219 Q97.45,637.4063 97.45,636.2031 L97.45,635.1094 Q97.45,633.8594 98.0438,632.7656 Q98.6531,631.6719 99.7,631.0938 Q100.7625,630.5 101.95,630.5 Q102.6688,630.5 103.2938,630.75 Q103.9188,631 104.45,631.5 Z "
              fill="#000000"/>
        <text fill="#000000" font-family="sans-serif" font-size="12" lengthAdjust="spacing" textLength="107" x="120.55"
              y="639.9102">ParameterCategory
        </text>
        <line style="stroke:#A80036;stroke-width:1.5;" x1="70" x2="248" y1="651" y2="651"/>
        <rect fill="none" height="6" style="stroke:#C82930;stroke-width:1.0;" width="6" x="77" y="659"/>
        <text fill="#000000" font-family="sans-serif" font-size="11" lengthAdjust="spacing" textLength="24" x="89"
              y="666.4189">code
        </text>
        <rect fill="none" height="6" style="stroke:#C82930;stroke-width:1.0;" width="6" x="77" y="672.8359"/>
        <text fill="#000000" font-family="sans-serif" font-size="11" lengthAdjust="spacing" textLength="26" x="89"
              y="680.2549">name
        </text>
        <line style="stroke:#A80036;stroke-width:1.5;" x1="70" x2="248" y1="686.6719" y2="686.6719"/>
        <ellipse cx="80" cy="697.6719" fill="#84BE84" rx="3" ry="3" style="stroke:#038048;stroke-width:1.0;"/>
        <text fill="#000000" font-family="sans-serif" font-size="11" lengthAdjust="spacing" textLength="154" x="89"
              y="702.0908">ParameterCategory(code,name)
        </text><!--MD5=[93b1b9218398b0464d36d46d0f539949]
link CreateParameterCategoryUI to CreateParameterCategoryController-->
        <path codeLine="30" d="M159,55.25 C159,70.28 159,90.51 159,109.53 " fill="none"
              id="CreateParameterCategoryUI-to-CreateParameterCategoryController"
              style="stroke:#A80036;stroke-width:1.0;"/>
        <polygon fill="#A80036" points="159,114.86,163,105.86,159,109.86,155,105.86,159,114.86"
                 style="stroke:#A80036;stroke-width:1.0;"/><!--MD5=[a00c31f7a5d66db29f7adf0293377a3b]
link CreateParameterCategoryController to Company-->
        <path codeLine="31" d="M136.73,218.09 C128.98,235.71 120.3,255.43 112.6,272.92 " fill="none"
              id="CreateParameterCategoryController-to-Company" style="stroke:#A80036;stroke-width:1.0;"/>
        <polygon fill="#A80036"
                 points="110.46,277.79,117.7494,271.1669,112.4761,273.2145,110.4285,267.9412,110.46,277.79"
                 style="stroke:#A80036;stroke-width:1.0;"/><!--MD5=[be6e87e2c6f1800ec3da53612c46e11a]
link CreateParameterCategoryController to ParameterCategoryStore-->
        <path codeLine="32"
              d="M178.07,218.2 C184.12,236.74 190,258.05 193,278 C198.95,317.56 198.32,328.35 193,368 C190.58,386.07 186.26,405.22 181.5,422.95 "
              fill="none" id="CreateParameterCategoryController-to-ParameterCategoryStore"
              style="stroke:#A80036;stroke-width:1.0;stroke-dasharray:7.0,7.0;"/>
        <polygon fill="#A80036"
                 points="180.15,427.91,186.3733,420.2765,181.4632,423.0855,178.6541,418.1754,180.15,427.91"
                 style="stroke:#A80036;stroke-width:1.0;"/><!--MD5=[d53d7490e5836ca5709858d7326f212b]
link Company to ParameterCategoryStore-->
        <path codeLine="33" d="M108.87,368.27 C115.65,385.08 123.55,404.65 131.04,423.22 " fill="none"
              id="Company-to-ParameterCategoryStore" style="stroke:#A80036;stroke-width:1.0;"/>
        <polygon fill="#A80036"
                 points="132.94,427.92,133.2853,418.0772,131.0708,423.2826,125.8654,421.068,132.94,427.92"
                 style="stroke:#A80036;stroke-width:1.0;"/><!--MD5=[d6274e3b73b5bc8f467c6cfbf5bf003e]
link ParameterCategoryStore to ParameterCategory-->
        <path codeLine="34" d="M159,559.16 C159,577.25 159,596.61 159,613.65 " fill="none"
              id="ParameterCategoryStore-to-ParameterCategory" style="stroke:#A80036;stroke-width:1.0;"/>
        <polygon fill="#A80036" points="159,618.86,163,609.86,159,613.86,155,609.86,159,618.86"
                 style="stroke:#A80036;stroke-width:1.0;"/>
        <text fill="#000000" font-family="sans-serif" font-size="13" lengthAdjust="spacing" textLength="7" x="151.6172"
              y="580.7301">1
        </text>
        <text fill="#000000" font-family="sans-serif" font-size="13" lengthAdjust="spacing" textLength="5" x="153.6172"
              y="608.2827">*
        </text><!--MD5=[1946379c5f3378d95ed7a9efaa1acd0a]
@startuml
'https://plantuml.com/class-diagram

class CreateParameterCategoryUI{
}
class CreateParameterCategoryController{
-company
- parameterStore
+saveParameterCategory()
+createParameterCategory(code, name)
}
class Company{
-parameterStore
-designation
+getParameterCategoryStore()
}
class ParameterCategoryStore{
-categoryList
-category
+createParameterCategory(code, name)
+saveParameterCategory(pc)
+validateParameterCategory(pc)
+addParameterCategory(pc)
}

class ParameterCategory{
-code
-name
+ParameterCategory(code,name)
}
CreateParameterCategoryUI - -> CreateParameterCategoryController
CreateParameterCategoryController - -> Company
CreateParameterCategoryController ..> ParameterCategoryStore
Company - ->  ParameterCategoryStore
ParameterCategoryStore "1" - -> "*" ParameterCategory

@enduml

@startuml

class CreateParameterCategoryUI{
}
class CreateParameterCategoryController{
-company
- parameterStore
+saveParameterCategory()
+createParameterCategory(code, name)
}
class Company{
-parameterStore
-designation
+getParameterCategoryStore()
}
class ParameterCategoryStore{
-categoryList
-category
+createParameterCategory(code, name)
+saveParameterCategory(pc)
+validateParameterCategory(pc)
+addParameterCategory(pc)
}

class ParameterCategory{
-code
-name
+ParameterCategory(code,name)
}
CreateParameterCategoryUI - -> CreateParameterCategoryController
CreateParameterCategoryController - -> Company
CreateParameterCategoryController ..> ParameterCategoryStore
Company - ->  ParameterCategoryStore
ParameterCategoryStore "1" - -> "*" ParameterCategory

@enduml

PlantUML version 1.2021.5(Sun Apr 25 12:20:28 BST 2021)
(GPL source distribution)
Java Runtime: OpenJDK Runtime Environment
JVM: Dynamic Code Evolution 64-Bit Server VM
Default Encoding: Cp1252
Language: pt
Country: PT
-->
    </g>
</svg>