<?xml version="1.0" encoding="UTF-8" standalone="no"?><svg xmlns="http://www.w3.org/2000/svg" xmlns:xlink="http://www.w3.org/1999/xlink" contentScriptType="application/ecmascript" contentStyleType="text/css" height="348px" preserveAspectRatio="none" style="width:796px;height:348px;" version="1.1" viewBox="0 0 796 348" width="796px" zoomAndPan="magnify"><defs><filter height="300%" id="f198fvjy4uh8f6" width="300%" x="-1" y="-1"><feGaussianBlur result="blurOut" stdDeviation="1.6000000000000003"/><feColorMatrix in="blurOut" result="blurOut2" type="matrix" values="0 0 0 0 0 0 0 0 0 0 0 0 0 0 0 0 0 0 .4 0"/><feOffset dx="3.2000000000000006" dy="3.2000000000000006" in="blurOut2" result="blurOut3"/><feBlend in="SourceGraphic" in2="blurOut3" mode="normal"/></filter></defs><g><!--MD5=[3fd616f346a44cd59a91eb10b19e157c]
class User--><rect codeLine="6" fill="#FEFECE" filter="url(#f198fvjy4uh8f6)" height="65.2063" id="User" style="stroke:#A80036;stroke-width:1.2000000000000002;" width="52.8" x="5.6" y="272"/><ellipse cx="20.12" cy="284.8" fill="#ADD1B2" rx="8.8" ry="8.8" style="stroke:#A80036;stroke-width:0.8000000000000002;"/><path d="M21.72,282 Q21.8825,281.6 22.07,281.4 Q22.2575,281.2 22.47,281.2 Q22.845,281.2 23.0825,281.425 Q23.32,281.65 23.32,282.175 L23.32,283.425 Q23.32,283.95 23.095,284.175 Q22.87,284.4 22.52,284.4 Q22.2075,284.4 22.0075,284.2625 Q21.8075,284.125 21.72,283.7625 Q21.6825,283.5125 21.545,283.375 Q21.295,283.1125 20.845,282.9625 Q20.395,282.8 19.945,282.8 Q19.3825,282.8 18.9075,283.025 Q18.445,283.25 18.0825,283.75 Q17.72,284.25 17.72,284.9375 L17.72,285.675 Q17.72,286.5 18.395,287.05 Q19.07,287.6 20.27,287.6 Q20.9825,287.6 21.4825,287.4375 Q21.77,287.35 22.095,287.0625 Q22.3075,286.9 22.42,286.85 Q22.5325,286.8 22.67,286.8 Q22.9325,286.8 23.12,287.0125 Q23.32,287.2125 23.32,287.5 Q23.32,287.775 23.045,288.1 Q22.645,288.575 22.0075,288.8375 Q21.17,289.2 20.145,289.2 Q18.945,289.2 17.9825,288.725 Q17.2075,288.35 16.6575,287.5375 Q16.12,286.725 16.12,285.7625 L16.12,284.8875 Q16.12,283.8875 16.595,283.0125 Q17.0825,282.1375 17.92,281.675 Q18.77,281.2 19.72,281.2 Q20.295,281.2 20.795,281.4 Q21.295,281.6 21.72,282 Z " fill="#000000"/><text fill="#000000" font-family="sans-serif" font-size="9.6" lengthAdjust="spacing" textLength="21.6" x="31.88" y="288.7281">User</text><line style="stroke:#A80036;stroke-width:1.2000000000000002;" x1="6.4" x2="57.6" y1="297.6" y2="297.6"/><text fill="#000000" font-family="sans-serif" font-size="8.8" lengthAdjust="spacing" textLength="24" x="10.4" y="309.9352">-name</text><text fill="#000000" font-family="sans-serif" font-size="8.8" lengthAdjust="spacing" textLength="22.4" x="10.4" y="321.0039">-email</text><text fill="#000000" font-family="sans-serif" font-size="8.8" lengthAdjust="spacing" textLength="43.2" x="10.4" y="332.0727">-password</text><!--MD5=[7421f545a0d8420c5bec41e74b387d9c]
class Employee--><rect codeLine="12" fill="#FEFECE" filter="url(#f198fvjy4uh8f6)" height="98.4125" id="Employee" style="stroke:#A80036;stroke-width:1.2000000000000002;" width="183.2" x="285.2" y="111.2"/><ellipse cx="351.4" cy="124" fill="#ADD1B2" rx="8.8" ry="8.8" style="stroke:#A80036;stroke-width:0.8000000000000002;"/><path d="M353,121.2 Q353.1625,120.8 353.35,120.6 Q353.5375,120.4 353.75,120.4 Q354.125,120.4 354.3625,120.625 Q354.6,120.85 354.6,121.375 L354.6,122.625 Q354.6,123.15 354.375,123.375 Q354.15,123.6 353.8,123.6 Q353.4875,123.6 353.2875,123.4625 Q353.0875,123.325 353,122.9625 Q352.9625,122.7125 352.825,122.575 Q352.575,122.3125 352.125,122.1625 Q351.675,122 351.225,122 Q350.6625,122 350.1875,122.225 Q349.725,122.45 349.3625,122.95 Q349,123.45 349,124.1375 L349,124.875 Q349,125.7 349.675,126.25 Q350.35,126.8 351.55,126.8 Q352.2625,126.8 352.7625,126.6375 Q353.05,126.55 353.375,126.2625 Q353.5875,126.1 353.7,126.05 Q353.8125,126 353.95,126 Q354.2125,126 354.4,126.2125 Q354.6,126.4125 354.6,126.7 Q354.6,126.975 354.325,127.3 Q353.925,127.775 353.2875,128.0375 Q352.45,128.4 351.425,128.4 Q350.225,128.4 349.2625,127.925 Q348.4875,127.55 347.9375,126.7375 Q347.4,125.925 347.4,124.9625 L347.4,124.0875 Q347.4,123.0875 347.875,122.2125 Q348.3625,121.3375 349.2,120.875 Q350.05,120.4 351,120.4 Q351.575,120.4 352.075,120.6 Q352.575,120.8 353,121.2 Z " fill="#000000"/><text fill="#000000" font-family="sans-serif" font-size="9.6" lengthAdjust="spacing" textLength="44" x="367.8" y="127.9281">Employee</text><line style="stroke:#A80036;stroke-width:1.2000000000000002;" x1="286" x2="467.6" y1="136.8" y2="136.8"/><text fill="#000000" font-family="sans-serif" font-size="8.8" lengthAdjust="spacing" textLength="52" x="290" y="149.1352">-Employee ID;</text><text fill="#000000" font-family="sans-serif" font-size="8.8" lengthAdjust="spacing" textLength="27.2" x="290" y="160.2039">-Name;</text><text fill="#000000" font-family="sans-serif" font-size="8.8" lengthAdjust="spacing" textLength="39.2" x="290" y="171.2727">-Address;</text><text fill="#000000" font-family="sans-serif" font-size="8.8" lengthAdjust="spacing" textLength="61.6" x="290" y="182.3414">-Phone Number;</text><text fill="#000000" font-family="sans-serif" font-size="8.8" lengthAdjust="spacing" textLength="28" x="290" y="193.4102">-E-Mail;</text><text fill="#000000" font-family="sans-serif" font-size="8.8" lengthAdjust="spacing" textLength="173.6" x="290" y="204.4789">-Standard Occupational Classification "SOC";</text><!--MD5=[7d96fd15f3014691d2fcaf89c5791e2a]
class SpecialistDoctor--><rect codeLine="21" fill="#FEFECE" filter="url(#f198fvjy4uh8f6)" height="43.0688" id="SpecialistDoctor" style="stroke:#A80036;stroke-width:1.2000000000000002;" width="97.6" x="86.4" y="283.2"/><ellipse cx="98.4" cy="296" fill="#ADD1B2" rx="8.8" ry="8.8" style="stroke:#A80036;stroke-width:0.8000000000000002;"/><path d="M100,293.2 Q100.1625,292.8 100.35,292.6 Q100.5375,292.4 100.75,292.4 Q101.125,292.4 101.3625,292.625 Q101.6,292.85 101.6,293.375 L101.6,294.625 Q101.6,295.15 101.375,295.375 Q101.15,295.6 100.8,295.6 Q100.4875,295.6 100.2875,295.4625 Q100.0875,295.325 100,294.9625 Q99.9625,294.7125 99.825,294.575 Q99.575,294.3125 99.125,294.1625 Q98.675,294 98.225,294 Q97.6625,294 97.1875,294.225 Q96.725,294.45 96.3625,294.95 Q96,295.45 96,296.1375 L96,296.875 Q96,297.7 96.675,298.25 Q97.35,298.8 98.55,298.8 Q99.2625,298.8 99.7625,298.6375 Q100.05,298.55 100.375,298.2625 Q100.5875,298.1 100.7,298.05 Q100.8125,298 100.95,298 Q101.2125,298 101.4,298.2125 Q101.6,298.4125 101.6,298.7 Q101.6,298.975 101.325,299.3 Q100.925,299.775 100.2875,300.0375 Q99.45,300.4 98.425,300.4 Q97.225,300.4 96.2625,299.925 Q95.4875,299.55 94.9375,298.7375 Q94.4,297.925 94.4,296.9625 L94.4,296.0875 Q94.4,295.0875 94.875,294.2125 Q95.3625,293.3375 96.2,292.875 Q97.05,292.4 98,292.4 Q98.575,292.4 99.075,292.6 Q99.575,292.8 100,293.2 Z " fill="#000000"/><text fill="#000000" font-family="sans-serif" font-size="9.6" lengthAdjust="spacing" textLength="72" x="109.6" y="299.9281">SpecialistDoctor</text><line style="stroke:#A80036;stroke-width:1.2000000000000002;" x1="87.2" x2="183.2" y1="308.8" y2="308.8"/><text fill="#000000" font-family="sans-serif" font-size="8.8" lengthAdjust="spacing" textLength="86.4" x="91.2" y="321.1352">-Doctor Index Number;</text><!--MD5=[12e90e92236ca84f203192a07d84ec5e]
class OrganizationRole--><rect codeLine="25" fill="#FEFECE" filter="url(#f198fvjy4uh8f6)" height="43.0688" id="OrganizationRole" style="stroke:#A80036;stroke-width:1.2000000000000002;" width="101.6" x="605.2" y="138.8"/><ellipse cx="617.2" cy="151.6" fill="#ADD1B2" rx="8.8" ry="8.8" style="stroke:#A80036;stroke-width:0.8000000000000002;"/><path d="M618.8,148.8 Q618.9625,148.4 619.15,148.2 Q619.3375,148 619.55,148 Q619.925,148 620.1625,148.225 Q620.4,148.45 620.4,148.975 L620.4,150.225 Q620.4,150.75 620.175,150.975 Q619.95,151.2 619.6,151.2 Q619.2875,151.2 619.0875,151.0625 Q618.8875,150.925 618.8,150.5625 Q618.7625,150.3125 618.625,150.175 Q618.375,149.9125 617.925,149.7625 Q617.475,149.6 617.025,149.6 Q616.4625,149.6 615.9875,149.825 Q615.525,150.05 615.1625,150.55 Q614.8,151.05 614.8,151.7375 L614.8,152.475 Q614.8,153.3 615.475,153.85 Q616.15,154.4 617.35,154.4 Q618.0625,154.4 618.5625,154.2375 Q618.85,154.15 619.175,153.8625 Q619.3875,153.7 619.5,153.65 Q619.6125,153.6 619.75,153.6 Q620.0125,153.6 620.2,153.8125 Q620.4,154.0125 620.4,154.3 Q620.4,154.575 620.125,154.9 Q619.725,155.375 619.0875,155.6375 Q618.25,156 617.225,156 Q616.025,156 615.0625,155.525 Q614.2875,155.15 613.7375,154.3375 Q613.2,153.525 613.2,152.5625 L613.2,151.6875 Q613.2,150.6875 613.675,149.8125 Q614.1625,148.9375 615,148.475 Q615.85,148 616.8,148 Q617.375,148 617.875,148.2 Q618.375,148.4 618.8,148.8 Z " fill="#000000"/><text fill="#000000" font-family="sans-serif" font-size="9.6" lengthAdjust="spacing" textLength="76" x="628.4" y="155.5281">OrganizationRole</text><line style="stroke:#A80036;stroke-width:1.2000000000000002;" x1="606" x2="706" y1="164.4" y2="164.4"/><text fill="#000000" font-family="sans-serif" font-size="8.8" lengthAdjust="spacing" textLength="45.6" x="610" y="176.7352">-description</text><!--MD5=[02e4b9b7573f1156f41e60aa5b4e25a4]
class Company--><rect codeLine="29" fill="#FEFECE" filter="url(#f198fvjy4uh8f6)" height="43.0688" id="Company" style="stroke:#A80036;stroke-width:1.2000000000000002;" width="68" x="259.6" y="5.6"/><ellipse cx="271.6" cy="18.4" fill="#ADD1B2" rx="8.8" ry="8.8" style="stroke:#A80036;stroke-width:0.8000000000000002;"/><path d="M273.2,15.6 Q273.3625,15.2 273.55,15 Q273.7375,14.8 273.95,14.8 Q274.325,14.8 274.5625,15.025 Q274.8,15.25 274.8,15.775 L274.8,17.025 Q274.8,17.55 274.575,17.775 Q274.35,18 274,18 Q273.6875,18 273.4875,17.8625 Q273.2875,17.725 273.2,17.3625 Q273.1625,17.1125 273.025,16.975 Q272.775,16.7125 272.325,16.5625 Q271.875,16.4 271.425,16.4 Q270.8625,16.4 270.3875,16.625 Q269.925,16.85 269.5625,17.35 Q269.2,17.85 269.2,18.5375 L269.2,19.275 Q269.2,20.1 269.875,20.65 Q270.55,21.2 271.75,21.2 Q272.4625,21.2 272.9625,21.0375 Q273.25,20.95 273.575,20.6625 Q273.7875,20.5 273.9,20.45 Q274.0125,20.4 274.15,20.4 Q274.4125,20.4 274.6,20.6125 Q274.8,20.8125 274.8,21.1 Q274.8,21.375 274.525,21.7 Q274.125,22.175 273.4875,22.4375 Q272.65,22.8 271.625,22.8 Q270.425,22.8 269.4625,22.325 Q268.6875,21.95 268.1375,21.1375 Q267.6,20.325 267.6,19.3625 L267.6,18.4875 Q267.6,17.4875 268.075,16.6125 Q268.5625,15.7375 269.4,15.275 Q270.25,14.8 271.2,14.8 Q271.775,14.8 272.275,15 Q272.775,15.2 273.2,15.6 Z " fill="#000000"/><text fill="#000000" font-family="sans-serif" font-size="9.6" lengthAdjust="spacing" textLength="42.4" x="282.8" y="22.3281">Company</text><line style="stroke:#A80036;stroke-width:1.2000000000000002;" x1="260.4" x2="326.8" y1="31.2" y2="31.2"/><text fill="#000000" font-family="sans-serif" font-size="8.8" lengthAdjust="spacing" textLength="21.6" x="264.4" y="43.5352">Name</text><!--MD5=[da547346deef918ea16944ba046651ef]
class Administrator--><rect fill="#FEFECE" filter="url(#f198fvjy4uh8f6)" height="32" id="Administrator" style="stroke:#A80036;stroke-width:1.2000000000000002;" width="84" x="375.6" y="11.2"/><ellipse cx="387.6" cy="24" fill="#ADD1B2" rx="8.8" ry="8.8" style="stroke:#A80036;stroke-width:0.8000000000000002;"/><path d="M389.2,21.2 Q389.3625,20.8 389.55,20.6 Q389.7375,20.4 389.95,20.4 Q390.325,20.4 390.5625,20.625 Q390.8,20.85 390.8,21.375 L390.8,22.625 Q390.8,23.15 390.575,23.375 Q390.35,23.6 390,23.6 Q389.6875,23.6 389.4875,23.4625 Q389.2875,23.325 389.2,22.9625 Q389.1625,22.7125 389.025,22.575 Q388.775,22.3125 388.325,22.1625 Q387.875,22 387.425,22 Q386.8625,22 386.3875,22.225 Q385.925,22.45 385.5625,22.95 Q385.2,23.45 385.2,24.1375 L385.2,24.875 Q385.2,25.7 385.875,26.25 Q386.55,26.8 387.75,26.8 Q388.4625,26.8 388.9625,26.6375 Q389.25,26.55 389.575,26.2625 Q389.7875,26.1 389.9,26.05 Q390.0125,26 390.15,26 Q390.4125,26 390.6,26.2125 Q390.8,26.4125 390.8,26.7 Q390.8,26.975 390.525,27.3 Q390.125,27.775 389.4875,28.0375 Q388.65,28.4 387.625,28.4 Q386.425,28.4 385.4625,27.925 Q384.6875,27.55 384.1375,26.7375 Q383.6,25.925 383.6,24.9625 L383.6,24.0875 Q383.6,23.0875 384.075,22.2125 Q384.5625,21.3375 385.4,20.875 Q386.25,20.4 387.2,20.4 Q387.775,20.4 388.275,20.6 Q388.775,20.8 389.2,21.2 Z " fill="#000000"/><text fill="#000000" font-family="sans-serif" font-size="9.6" lengthAdjust="spacing" textLength="58.4" x="398.8" y="27.9281">Administrator</text><line style="stroke:#A80036;stroke-width:1.2000000000000002;" x1="376.4" x2="458.8" y1="36.8" y2="36.8"/><!--MD5=[012ee2a8bf3ae2b319009b06f951c2e5]
class ClinicalChemistryTechnologist--><rect fill="#FEFECE" filter="url(#f198fvjy4uh8f6)" height="32" id="ClinicalChemistryTechnologist" style="stroke:#A80036;stroke-width:1.2000000000000002;" width="160" x="212" y="288.8"/><ellipse cx="224" cy="301.6" fill="#ADD1B2" rx="8.8" ry="8.8" style="stroke:#A80036;stroke-width:0.8000000000000002;"/><path d="M225.6,298.8 Q225.7625,298.4 225.95,298.2 Q226.1375,298 226.35,298 Q226.725,298 226.9625,298.225 Q227.2,298.45 227.2,298.975 L227.2,300.225 Q227.2,300.75 226.975,300.975 Q226.75,301.2 226.4,301.2 Q226.0875,301.2 225.8875,301.0625 Q225.6875,300.925 225.6,300.5625 Q225.5625,300.3125 225.425,300.175 Q225.175,299.9125 224.725,299.7625 Q224.275,299.6 223.825,299.6 Q223.2625,299.6 222.7875,299.825 Q222.325,300.05 221.9625,300.55 Q221.6,301.05 221.6,301.7375 L221.6,302.475 Q221.6,303.3 222.275,303.85 Q222.95,304.4 224.15,304.4 Q224.8625,304.4 225.3625,304.2375 Q225.65,304.15 225.975,303.8625 Q226.1875,303.7 226.3,303.65 Q226.4125,303.6 226.55,303.6 Q226.8125,303.6 227,303.8125 Q227.2,304.0125 227.2,304.3 Q227.2,304.575 226.925,304.9 Q226.525,305.375 225.8875,305.6375 Q225.05,306 224.025,306 Q222.825,306 221.8625,305.525 Q221.0875,305.15 220.5375,304.3375 Q220,303.525 220,302.5625 L220,301.6875 Q220,300.6875 220.475,299.8125 Q220.9625,298.9375 221.8,298.475 Q222.65,298 223.6,298 Q224.175,298 224.675,298.2 Q225.175,298.4 225.6,298.8 Z " fill="#000000"/><text fill="#000000" font-family="sans-serif" font-size="9.6" lengthAdjust="spacing" textLength="134.4" x="235.2" y="305.5281">ClinicalChemistryTechnologist</text><line style="stroke:#A80036;stroke-width:1.2000000000000002;" x1="212.8" x2="371.2" y1="314.4" y2="314.4"/><!--MD5=[052425de1c0eb6cc1c1b48342b0bb88f]
class LaboratoryCoordinator--><rect fill="#FEFECE" filter="url(#f198fvjy4uh8f6)" height="32" id="LaboratoryCoordinator" style="stroke:#A80036;stroke-width:1.2000000000000002;" width="124" x="400.4" y="288.8"/><ellipse cx="412.4" cy="301.6" fill="#ADD1B2" rx="8.8" ry="8.8" style="stroke:#A80036;stroke-width:0.8000000000000002;"/><path d="M414,298.8 Q414.1625,298.4 414.35,298.2 Q414.5375,298 414.75,298 Q415.125,298 415.3625,298.225 Q415.6,298.45 415.6,298.975 L415.6,300.225 Q415.6,300.75 415.375,300.975 Q415.15,301.2 414.8,301.2 Q414.4875,301.2 414.2875,301.0625 Q414.0875,300.925 414,300.5625 Q413.9625,300.3125 413.825,300.175 Q413.575,299.9125 413.125,299.7625 Q412.675,299.6 412.225,299.6 Q411.6625,299.6 411.1875,299.825 Q410.725,300.05 410.3625,300.55 Q410,301.05 410,301.7375 L410,302.475 Q410,303.3 410.675,303.85 Q411.35,304.4 412.55,304.4 Q413.2625,304.4 413.7625,304.2375 Q414.05,304.15 414.375,303.8625 Q414.5875,303.7 414.7,303.65 Q414.8125,303.6 414.95,303.6 Q415.2125,303.6 415.4,303.8125 Q415.6,304.0125 415.6,304.3 Q415.6,304.575 415.325,304.9 Q414.925,305.375 414.2875,305.6375 Q413.45,306 412.425,306 Q411.225,306 410.2625,305.525 Q409.4875,305.15 408.9375,304.3375 Q408.4,303.525 408.4,302.5625 L408.4,301.6875 Q408.4,300.6875 408.875,299.8125 Q409.3625,298.9375 410.2,298.475 Q411.05,298 412,298 Q412.575,298 413.075,298.2 Q413.575,298.4 414,298.8 Z " fill="#000000"/><text fill="#000000" font-family="sans-serif" font-size="9.6" lengthAdjust="spacing" textLength="98.4" x="423.6" y="305.5281">LaboratoryCoordinator</text><line style="stroke:#A80036;stroke-width:1.2000000000000002;" x1="401.2" x2="523.6" y1="314.4" y2="314.4"/><!--MD5=[01931d41e78f8996acd44f6f0fd8de28]
class MedicalLabTechnician--><rect fill="#FEFECE" filter="url(#f198fvjy4uh8f6)" height="32" id="MedicalLabTechnician" style="stroke:#A80036;stroke-width:1.2000000000000002;" width="124" x="552.4" y="288.8"/><ellipse cx="564.4" cy="301.6" fill="#ADD1B2" rx="8.8" ry="8.8" style="stroke:#A80036;stroke-width:0.8000000000000002;"/><path d="M566,298.8 Q566.1625,298.4 566.35,298.2 Q566.5375,298 566.75,298 Q567.125,298 567.3625,298.225 Q567.6,298.45 567.6,298.975 L567.6,300.225 Q567.6,300.75 567.375,300.975 Q567.15,301.2 566.8,301.2 Q566.4875,301.2 566.2875,301.0625 Q566.0875,300.925 566,300.5625 Q565.9625,300.3125 565.825,300.175 Q565.575,299.9125 565.125,299.7625 Q564.675,299.6 564.225,299.6 Q563.6625,299.6 563.1875,299.825 Q562.725,300.05 562.3625,300.55 Q562,301.05 562,301.7375 L562,302.475 Q562,303.3 562.675,303.85 Q563.35,304.4 564.55,304.4 Q565.2625,304.4 565.7625,304.2375 Q566.05,304.15 566.375,303.8625 Q566.5875,303.7 566.7,303.65 Q566.8125,303.6 566.95,303.6 Q567.2125,303.6 567.4,303.8125 Q567.6,304.0125 567.6,304.3 Q567.6,304.575 567.325,304.9 Q566.925,305.375 566.2875,305.6375 Q565.45,306 564.425,306 Q563.225,306 562.2625,305.525 Q561.4875,305.15 560.9375,304.3375 Q560.4,303.525 560.4,302.5625 L560.4,301.6875 Q560.4,300.6875 560.875,299.8125 Q561.3625,298.9375 562.2,298.475 Q563.05,298 564,298 Q564.575,298 565.075,298.2 Q565.575,298.4 566,298.8 Z " fill="#000000"/><text fill="#000000" font-family="sans-serif" font-size="9.6" lengthAdjust="spacing" textLength="98.4" x="575.6" y="305.5281">MedicalLabTechnician</text><line style="stroke:#A80036;stroke-width:1.2000000000000002;" x1="553.2" x2="675.6" y1="314.4" y2="314.4"/><!--MD5=[03960189e81aa2c066c762ffabbee709]
class Receptionist--><rect fill="#FEFECE" filter="url(#f198fvjy4uh8f6)" height="32" id="Receptionist" style="stroke:#A80036;stroke-width:1.2000000000000002;" width="80.8" x="704.4" y="288.8"/><ellipse cx="716.4" cy="301.6" fill="#ADD1B2" rx="8.8" ry="8.8" style="stroke:#A80036;stroke-width:0.8000000000000002;"/><path d="M718,298.8 Q718.1625,298.4 718.35,298.2 Q718.5375,298 718.75,298 Q719.125,298 719.3625,298.225 Q719.6,298.45 719.6,298.975 L719.6,300.225 Q719.6,300.75 719.375,300.975 Q719.15,301.2 718.8,301.2 Q718.4875,301.2 718.2875,301.0625 Q718.0875,300.925 718,300.5625 Q717.9625,300.3125 717.825,300.175 Q717.575,299.9125 717.125,299.7625 Q716.675,299.6 716.225,299.6 Q715.6625,299.6 715.1875,299.825 Q714.725,300.05 714.3625,300.55 Q714,301.05 714,301.7375 L714,302.475 Q714,303.3 714.675,303.85 Q715.35,304.4 716.55,304.4 Q717.2625,304.4 717.7625,304.2375 Q718.05,304.15 718.375,303.8625 Q718.5875,303.7 718.7,303.65 Q718.8125,303.6 718.95,303.6 Q719.2125,303.6 719.4,303.8125 Q719.6,304.0125 719.6,304.3 Q719.6,304.575 719.325,304.9 Q718.925,305.375 718.2875,305.6375 Q717.45,306 716.425,306 Q715.225,306 714.2625,305.525 Q713.4875,305.15 712.9375,304.3375 Q712.4,303.525 712.4,302.5625 L712.4,301.6875 Q712.4,300.6875 712.875,299.8125 Q713.3625,298.9375 714.2,298.475 Q715.05,298 716,298 Q716.575,298 717.075,298.2 Q717.575,298.4 718,298.8 Z " fill="#000000"/><text fill="#000000" font-family="sans-serif" font-size="9.6" lengthAdjust="spacing" textLength="55.2" x="727.6" y="305.5281">Receptionist</text><line style="stroke:#A80036;stroke-width:1.2000000000000002;" x1="705.2" x2="784.4" y1="314.4" y2="314.4"/><!--MD5=[241b49406f7a05442b1e788ffaf3787c]
link Employee to OrganizationRole--><path codeLine="33" d="M468.608,160.4 C513.904,160.4 566.84,160.4 604.872,160.4 " fill="none" id="Employee-OrganizationRole" style="stroke:#A80036;stroke-width:0.8000000000000002;"/><polygon fill="#000000" points="490.4,150.9406,483.1639,148.5895,483.1639,153.2918,490.4,150.9406" style="stroke:#000000;stroke-width:0.8000000000000002;"/><text fill="#000000" font-family="sans-serif" font-size="10.4" lengthAdjust="spacing" textLength="96.8" x="493.6" y="155.1961">is characterized by a</text><text fill="#000000" font-family="sans-serif" font-size="10.4" lengthAdjust="spacing" textLength="5.6" x="474.6688" y="157.9947">1</text><text fill="#000000" font-family="sans-serif" font-size="10.4" lengthAdjust="spacing" textLength="5.6" x="593.0366" y="157.6799">1</text><!--MD5=[22fb9506fac029fc1d2ae00f0eb8d606]
link Employee to User--><path codeLine="34" d="M285.064,185.976 C222.728,204.832 139.624,234.024 72,272 C67.424,274.568 62.832,277.656 58.48,280.88 " fill="none" id="Employee-User" style="stroke:#A80036;stroke-width:0.8000000000000002;"/><polygon fill="#000000" points="144.3106,242.4859,151.8931,241.859,150.0765,237.5218,144.3106,242.4859" style="stroke:#000000;stroke-width:0.8000000000000002;"/><text fill="#000000" font-family="sans-serif" font-size="10.4" lengthAdjust="spacing" textLength="16.8" x="155.2" y="245.1961">is a</text><text fill="#000000" font-family="sans-serif" font-size="10.4" lengthAdjust="spacing" textLength="5.6" x="273.1124" y="185.2695">1</text><text fill="#000000" font-family="sans-serif" font-size="10.4" lengthAdjust="spacing" textLength="5.6" x="64.885" y="272.3174">1</text><!--MD5=[09366576ee87d48d594df10cacc83f45]
link Company to Employee--><path codeLine="35" d="M298.488,48.848 C301.76,60.592 306.736,75.256 313.6,87.2 C318.296,95.376 324,103.464 330.04,111.112 " fill="none" id="Company-Employee" style="stroke:#A80036;stroke-width:0.8000000000000002;"/><polygon fill="#000000" points="319.4081,83.7087,318.2345,76.1913,314.04,78.3168,319.4081,83.7087" style="stroke:#000000;stroke-width:0.8000000000000002;"/><text fill="#000000" font-family="sans-serif" font-size="10.4" lengthAdjust="spacing" textLength="39.2" x="324.8" y="84.3961">employs</text><text fill="#000000" font-family="sans-serif" font-size="10.4" lengthAdjust="spacing" textLength="5.6" x="293.3448" y="65.8247">1</text><text fill="#000000" font-family="sans-serif" font-size="10.4" lengthAdjust="spacing" textLength="4" x="320.4021" y="102.6847">*</text><!--MD5=[8f7dd94d56b58fc07b233ccd3dd98f8c]
link Administrator to Employee--><path codeLine="36" d="M396.952,43.312 C388.24,51.064 379.048,61.28 374.4,72.8 C369.608,84.68 368.256,98.24 368.6,111.056 " fill="none" id="Administrator-Employee" style="stroke:#A80036;stroke-width:0.8000000000000002;"/><polygon fill="#000000" points="376.8557,83.8305,381.8182,78.0632,377.4805,76.2477,376.8557,83.8305" style="stroke:#000000;stroke-width:0.8000000000000002;"/><text fill="#000000" font-family="sans-serif" font-size="10.4" lengthAdjust="spacing" textLength="16.8" x="385.6" y="84.3961">is a</text><text fill="#000000" font-family="sans-serif" font-size="10.4" lengthAdjust="spacing" textLength="5.6" x="384.7573" y="60.4791">1</text><text fill="#000000" font-family="sans-serif" font-size="10.4" lengthAdjust="spacing" textLength="5.6" x="361.7281" y="102.6222">1</text><!--MD5=[8f7dd94d56b58fc07b233ccd3dd98f8c]
link Administrator to Employee--><path codeLine="42" d="M415.576,43.288 C413.768,55.36 410.728,72.552 406.4,87.2 C404.088,95.016 401.232,103.144 398.224,111.008 " fill="none" id="Administrator-Employee-1" style="stroke:#A80036;stroke-width:0.8000000000000002;"/><polygon fill="#000000" points="413.4071,84.0154,417.4808,77.5894,412.9257,76.4222,413.4071,84.0154" style="stroke:#000000;stroke-width:0.8000000000000002;"/><text fill="#000000" font-family="sans-serif" font-size="10.4" lengthAdjust="spacing" textLength="34.4" x="421.6" y="84.3961">register</text><text fill="#000000" font-family="sans-serif" font-size="10.4" lengthAdjust="spacing" textLength="5.6" x="408.6193" y="60.4484">1</text><text fill="#000000" font-family="sans-serif" font-size="10.4" lengthAdjust="spacing" textLength="5.6" x="394.7774" y="102.5687">1</text><!--MD5=[d0b577d991866bb293f65e18071b6be7]
link Employee to ClinicalChemistryTechnologist--><path codeLine="37" d="M347.856,209.944 C331.544,237.416 312.264,269.88 301.152,288.592 " fill="none" id="Employee-ClinicalChemistryTechnologist" style="stroke:#A80036;stroke-width:0.8000000000000002;"/><polygon fill="#000000" points="333.9576,244.3799,339.6739,239.3587,335.6308,236.9577,333.9576,244.3799" style="stroke:#000000;stroke-width:0.8000000000000002;"/><text fill="#000000" font-family="sans-serif" font-size="10.4" lengthAdjust="spacing" textLength="40" x="343.2" y="245.1961">can be a</text><text fill="#000000" font-family="sans-serif" font-size="10.4" lengthAdjust="spacing" textLength="5.6" x="338.784" y="226.8737">1</text><text fill="#000000" font-family="sans-serif" font-size="10.4" lengthAdjust="spacing" textLength="5.6" x="297.4179" y="279.9883">1</text><!--MD5=[a0184b63db99e4170c08b50ca520f26e]
link Employee to LaboratoryCoordinator--><path codeLine="38" d="M406.016,209.944 C422.488,237.416 441.944,269.88 453.16,288.592 " fill="none" id="Employee-LaboratoryCoordinator" style="stroke:#A80036;stroke-width:0.8000000000000002;"/><polygon fill="#000000" points="434.0565,244.3715,432.3528,236.9562,428.3196,239.3738,434.0565,244.3715" style="stroke:#000000;stroke-width:0.8000000000000002;"/><text fill="#000000" font-family="sans-serif" font-size="10.4" lengthAdjust="spacing" textLength="40" x="439.2" y="245.1961">can be a</text><text fill="#000000" font-family="sans-serif" font-size="10.4" lengthAdjust="spacing" textLength="5.6" x="403.3053" y="226.8737">1</text><text fill="#000000" font-family="sans-serif" font-size="10.4" lengthAdjust="spacing" textLength="5.6" x="444.0233" y="279.9883">1</text><!--MD5=[3960df5b1ea8ecab6ad2804cc08d8583]
link Employee to MedicalLabTechnician--><path codeLine="39" d="M457.576,209.744 C503.448,237.32 557.784,269.968 588.96,288.712 " fill="none" id="Employee-MedicalLabTechnician" style="stroke:#A80036;stroke-width:0.8000000000000002;"/><polygon fill="#000000" points="524.2284,243.0012,519.2376,237.2584,516.8152,241.2887,524.2284,243.0012" style="stroke:#000000;stroke-width:0.8000000000000002;"/><text fill="#000000" font-family="sans-serif" font-size="10.4" lengthAdjust="spacing" textLength="40" x="528" y="245.1961">can be a</text><text fill="#000000" font-family="sans-serif" font-size="10.4" lengthAdjust="spacing" textLength="5.6" x="460.5046" y="226.6518">1</text><text fill="#000000" font-family="sans-serif" font-size="10.4" lengthAdjust="spacing" textLength="5.6" x="575.0645" y="280.1436">1</text><!--MD5=[1da12df22706e73e1def33b218b7f412]
link Employee to Receptionist--><path codeLine="40" d="M468.528,188.472 C532.056,208.584 617.896,238.248 690.4,272 C700.728,276.808 711.648,282.992 720.968,288.64 " fill="none" id="Employee-Receptionist" style="stroke:#A80036;stroke-width:0.8000000000000002;"/><polygon fill="#000000" points="639.718,242.4159,633.8592,237.5617,632.1249,241.9325,639.718,242.4159" style="stroke:#000000;stroke-width:0.8000000000000002;"/><text fill="#000000" font-family="sans-serif" font-size="10.4" lengthAdjust="spacing" textLength="40" x="643.2" y="245.1961">can be a</text><text fill="#000000" font-family="sans-serif" font-size="10.4" lengthAdjust="spacing" textLength="5.6" x="474.8791" y="187.9332">1</text><text fill="#000000" font-family="sans-serif" font-size="10.4" lengthAdjust="spacing" textLength="5.6" x="707.5449" y="280.0504">1</text><!--MD5=[dad08633360fb9f059c0c4df7f2e8d04]
link Employee to SpecialistDoctor--><path codeLine="41" d="M294.672,209.744 C252.4,234.728 203.064,263.888 170.592,283.08 " fill="none" id="Employee-SpecialistDoctor" style="stroke:#A80036;stroke-width:0.8000000000000002;"/><polygon fill="#000000" points="249.3565,242.9759,256.7821,241.3181,254.3896,237.27,249.3565,242.9759" style="stroke:#000000;stroke-width:0.8000000000000002;"/><text fill="#000000" font-family="sans-serif" font-size="10.4" lengthAdjust="spacing" textLength="40" x="260" y="245.1961">can be a</text><text fill="#000000" font-family="sans-serif" font-size="10.4" lengthAdjust="spacing" textLength="5.6" x="279.783" y="226.6518">1</text><text fill="#000000" font-family="sans-serif" font-size="10.4" lengthAdjust="spacing" textLength="5.6" x="172.5289" y="274.621">1</text><!--MD5=[e8023889f4d914684daac56cffbb9942]
@startuml
'https://plantuml.com/class-diagram

hide methods
skinparam classAttributeIconSize 0

class User{
-name
-email
-password
}

class Employee{
-Employee ID;
-Name;
-Address;
-Phone Number;
-E-Mail;
-Standard Occupational Classification "SOC";
}

class SpecialistDoctor{
-Doctor Index Number;
}

class OrganizationRole{
-description
}

class Company{
Name
}

Employee "1" - "1" OrganizationRole: is characterized by a  >
Employee "1" - - "1" User: is a >
Company "1" - - "*" Employee: employs >
Administrator"1" - - "1" Employee: is a >
Employee "1" - - "1" ClinicalChemistryTechnologist: can be a >
Employee "1" - - "1" LaboratoryCoordinator: can be a >
Employee "1" - - "1" MedicalLabTechnician: can be a >
Employee "1" - - "1" Receptionist: can be a >
Employee "1" - - "1" SpecialistDoctor: can be a >
Administrator "1" - - "1" Employee: register >

@enduml

@startuml

hide methods
skinparam classAttributeIconSize 0

class User{
-name
-email
-password
}

class Employee{
-Employee ID;
-Name;
-Address;
-Phone Number;
-E-Mail;
-Standard Occupational Classification "SOC";
}

class SpecialistDoctor{
-Doctor Index Number;
}

class OrganizationRole{
-description
}

class Company{
Name
}

Employee "1" - "1" OrganizationRole: is characterized by a  >
Employee "1" - - "1" User: is a >
Company "1" - - "*" Employee: employs >
Administrator"1" - - "1" Employee: is a >
Employee "1" - - "1" ClinicalChemistryTechnologist: can be a >
Employee "1" - - "1" LaboratoryCoordinator: can be a >
Employee "1" - - "1" MedicalLabTechnician: can be a >
Employee "1" - - "1" Receptionist: can be a >
Employee "1" - - "1" SpecialistDoctor: can be a >
Administrator "1" - - "1" Employee: register >

@enduml

PlantUML version 1.2021.4(Sun Apr 04 09:49:39 BST 2021)
(GPL source distribution)
Java Runtime: OpenJDK Runtime Environment
JVM: Dynamic Code Evolution 64-Bit Server VM
Default Encoding: Cp1252
Language: pt
Country: PT
--></g></svg>