<?xml version="1.0" encoding="UTF-8" standalone="no"?><svg xmlns="http://www.w3.org/2000/svg" xmlns:xlink="http://www.w3.org/1999/xlink" contentScriptType="application/ecmascript" contentStyleType="text/css" height="435px" preserveAspectRatio="none" style="width:995px;height:435px;" version="1.1" viewBox="0 0 995 435" width="995px" zoomAndPan="magnify"><defs><filter height="300%" id="f6pg0iyoxaabe" width="300%" x="-1" y="-1"><feGaussianBlur result="blurOut" stdDeviation="2.0"/><feColorMatrix in="blurOut" result="blurOut2" type="matrix" values="0 0 0 0 0 0 0 0 0 0 0 0 0 0 0 0 0 0 .4 0"/><feOffset dx="4.0" dy="4.0" in="blurOut2" result="blurOut3"/><feBlend in="SourceGraphic" in2="blurOut3" mode="normal"/></filter></defs><g><!--MD5=[3fd616f346a44cd59a91eb10b19e157c]
class User--><rect codeLine="6" fill="#FEFECE" filter="url(#f6pg0iyoxaabe)" height="81.5078" id="User" style="stroke:#A80036;stroke-width:1.5;" width="66" x="7" y="340"/><ellipse cx="25.15" cy="356" fill="#ADD1B2" rx="11" ry="11" style="stroke:#A80036;stroke-width:1.0;"/><path d="M27.15,352.5 Q27.3531,352 27.5875,351.75 Q27.8219,351.5 28.0875,351.5 Q28.5563,351.5 28.8531,351.7813 Q29.15,352.0625 29.15,352.7188 L29.15,354.2813 Q29.15,354.9375 28.8688,355.2188 Q28.5875,355.5 28.15,355.5 Q27.7594,355.5 27.5094,355.3281 Q27.2594,355.1563 27.15,354.7031 Q27.1031,354.3906 26.9313,354.2188 Q26.6188,353.8906 26.0563,353.7031 Q25.4938,353.5 24.9313,353.5 Q24.2281,353.5 23.6344,353.7813 Q23.0563,354.0625 22.6031,354.6875 Q22.15,355.3125 22.15,356.1719 L22.15,357.0938 Q22.15,358.125 22.9938,358.8125 Q23.8375,359.5 25.3375,359.5 Q26.2281,359.5 26.8531,359.2969 Q27.2125,359.1875 27.6188,358.8281 Q27.8844,358.625 28.025,358.5625 Q28.1656,358.5 28.3375,358.5 Q28.6656,358.5 28.9,358.7656 Q29.15,359.0156 29.15,359.375 Q29.15,359.7188 28.8063,360.125 Q28.3063,360.7188 27.5094,361.0469 Q26.4625,361.5 25.1813,361.5 Q23.6813,361.5 22.4781,360.9063 Q21.5094,360.4375 20.8219,359.4219 Q20.15,358.4063 20.15,357.2031 L20.15,356.1094 Q20.15,354.8594 20.7438,353.7656 Q21.3531,352.6719 22.4,352.0938 Q23.4625,351.5 24.65,351.5 Q25.3688,351.5 25.9938,351.75 Q26.6188,352 27.15,352.5 Z " fill="#000000"/><text fill="#000000" font-family="sans-serif" font-size="12" lengthAdjust="spacing" textLength="27" x="39.85" y="360.9102">User</text><line style="stroke:#A80036;stroke-width:1.5;" x1="8" x2="72" y1="372" y2="372"/><text fill="#000000" font-family="sans-serif" font-size="11" lengthAdjust="spacing" textLength="30" x="13" y="387.4189">-name</text><text fill="#000000" font-family="sans-serif" font-size="11" lengthAdjust="spacing" textLength="28" x="13" y="401.2549">-email</text><text fill="#000000" font-family="sans-serif" font-size="11" lengthAdjust="spacing" textLength="54" x="13" y="415.0908">-password</text><!--MD5=[7421f545a0d8420c5bec41e74b387d9c]
class Employee--><rect codeLine="12" fill="#FEFECE" filter="url(#f6pg0iyoxaabe)" height="123.0156" id="Employee" style="stroke:#A80036;stroke-width:1.5;" width="229" x="356.5" y="139"/><ellipse cx="439.25" cy="155" fill="#ADD1B2" rx="11" ry="11" style="stroke:#A80036;stroke-width:1.0;"/><path d="M441.25,151.5 Q441.4531,151 441.6875,150.75 Q441.9219,150.5 442.1875,150.5 Q442.6563,150.5 442.9531,150.7813 Q443.25,151.0625 443.25,151.7188 L443.25,153.2813 Q443.25,153.9375 442.9688,154.2188 Q442.6875,154.5 442.25,154.5 Q441.8594,154.5 441.6094,154.3281 Q441.3594,154.1563 441.25,153.7031 Q441.2031,153.3906 441.0313,153.2188 Q440.7188,152.8906 440.1563,152.7031 Q439.5938,152.5 439.0313,152.5 Q438.3281,152.5 437.7344,152.7813 Q437.1563,153.0625 436.7031,153.6875 Q436.25,154.3125 436.25,155.1719 L436.25,156.0938 Q436.25,157.125 437.0938,157.8125 Q437.9375,158.5 439.4375,158.5 Q440.3281,158.5 440.9531,158.2969 Q441.3125,158.1875 441.7188,157.8281 Q441.9844,157.625 442.125,157.5625 Q442.2656,157.5 442.4375,157.5 Q442.7656,157.5 443,157.7656 Q443.25,158.0156 443.25,158.375 Q443.25,158.7188 442.9063,159.125 Q442.4063,159.7188 441.6094,160.0469 Q440.5625,160.5 439.2813,160.5 Q437.7813,160.5 436.5781,159.9063 Q435.6094,159.4375 434.9219,158.4219 Q434.25,157.4063 434.25,156.2031 L434.25,155.1094 Q434.25,153.8594 434.8438,152.7656 Q435.4531,151.6719 436.5,151.0938 Q437.5625,150.5 438.75,150.5 Q439.4688,150.5 440.0938,150.75 Q440.7188,151 441.25,151.5 Z " fill="#000000"/><text fill="#000000" font-family="sans-serif" font-size="12" lengthAdjust="spacing" textLength="55" x="459.75" y="159.9102">Employee</text><line style="stroke:#A80036;stroke-width:1.5;" x1="357.5" x2="584.5" y1="171" y2="171"/><text fill="#000000" font-family="sans-serif" font-size="11" lengthAdjust="spacing" textLength="65" x="362.5" y="186.4189">-Employee ID;</text><text fill="#000000" font-family="sans-serif" font-size="11" lengthAdjust="spacing" textLength="34" x="362.5" y="200.2549">-Name;</text><text fill="#000000" font-family="sans-serif" font-size="11" lengthAdjust="spacing" textLength="49" x="362.5" y="214.0908">-Address;</text><text fill="#000000" font-family="sans-serif" font-size="11" lengthAdjust="spacing" textLength="77" x="362.5" y="227.9268">-Phone Number;</text><text fill="#000000" font-family="sans-serif" font-size="11" lengthAdjust="spacing" textLength="35" x="362.5" y="241.7627">-E-Mail;</text><text fill="#000000" font-family="sans-serif" font-size="11" lengthAdjust="spacing" textLength="217" x="362.5" y="255.5986">-Standard Occupational Classification "soc";</text><!--MD5=[7d96fd15f3014691d2fcaf89c5791e2a]
class SpecialistDoctor--><rect codeLine="21" fill="#FEFECE" filter="url(#f6pg0iyoxaabe)" height="53.8359" id="SpecialistDoctor" style="stroke:#A80036;stroke-width:1.5;" width="122" x="108" y="354"/><ellipse cx="123" cy="370" fill="#ADD1B2" rx="11" ry="11" style="stroke:#A80036;stroke-width:1.0;"/><path d="M125,366.5 Q125.2031,366 125.4375,365.75 Q125.6719,365.5 125.9375,365.5 Q126.4063,365.5 126.7031,365.7813 Q127,366.0625 127,366.7188 L127,368.2813 Q127,368.9375 126.7188,369.2188 Q126.4375,369.5 126,369.5 Q125.6094,369.5 125.3594,369.3281 Q125.1094,369.1563 125,368.7031 Q124.9531,368.3906 124.7813,368.2188 Q124.4688,367.8906 123.9063,367.7031 Q123.3438,367.5 122.7813,367.5 Q122.0781,367.5 121.4844,367.7813 Q120.9063,368.0625 120.4531,368.6875 Q120,369.3125 120,370.1719 L120,371.0938 Q120,372.125 120.8438,372.8125 Q121.6875,373.5 123.1875,373.5 Q124.0781,373.5 124.7031,373.2969 Q125.0625,373.1875 125.4688,372.8281 Q125.7344,372.625 125.875,372.5625 Q126.0156,372.5 126.1875,372.5 Q126.5156,372.5 126.75,372.7656 Q127,373.0156 127,373.375 Q127,373.7188 126.6563,374.125 Q126.1563,374.7188 125.3594,375.0469 Q124.3125,375.5 123.0313,375.5 Q121.5313,375.5 120.3281,374.9063 Q119.3594,374.4375 118.6719,373.4219 Q118,372.4063 118,371.2031 L118,370.1094 Q118,368.8594 118.5938,367.7656 Q119.2031,366.6719 120.25,366.0938 Q121.3125,365.5 122.5,365.5 Q123.2188,365.5 123.8438,365.75 Q124.4688,366 125,366.5 Z " fill="#000000"/><text fill="#000000" font-family="sans-serif" font-size="12" lengthAdjust="spacing" textLength="90" x="137" y="374.9102">SpecialistDoctor</text><line style="stroke:#A80036;stroke-width:1.5;" x1="109" x2="229" y1="386" y2="386"/><text fill="#000000" font-family="sans-serif" font-size="11" lengthAdjust="spacing" textLength="108" x="114" y="401.4189">-Doctor Index Number;</text><!--MD5=[12e90e92236ca84f203192a07d84ec5e]
class OrganizationRole--><rect codeLine="25" fill="#FEFECE" filter="url(#f6pg0iyoxaabe)" height="53.8359" id="OrganizationRole" style="stroke:#A80036;stroke-width:1.5;" width="127" x="756.5" y="173.5"/><ellipse cx="771.5" cy="189.5" fill="#ADD1B2" rx="11" ry="11" style="stroke:#A80036;stroke-width:1.0;"/><path d="M773.5,186 Q773.7031,185.5 773.9375,185.25 Q774.1719,185 774.4375,185 Q774.9063,185 775.2031,185.2813 Q775.5,185.5625 775.5,186.2188 L775.5,187.7813 Q775.5,188.4375 775.2188,188.7188 Q774.9375,189 774.5,189 Q774.1094,189 773.8594,188.8281 Q773.6094,188.6563 773.5,188.2031 Q773.4531,187.8906 773.2813,187.7188 Q772.9688,187.3906 772.4063,187.2031 Q771.8438,187 771.2813,187 Q770.5781,187 769.9844,187.2813 Q769.4063,187.5625 768.9531,188.1875 Q768.5,188.8125 768.5,189.6719 L768.5,190.5938 Q768.5,191.625 769.3438,192.3125 Q770.1875,193 771.6875,193 Q772.5781,193 773.2031,192.7969 Q773.5625,192.6875 773.9688,192.3281 Q774.2344,192.125 774.375,192.0625 Q774.5156,192 774.6875,192 Q775.0156,192 775.25,192.2656 Q775.5,192.5156 775.5,192.875 Q775.5,193.2188 775.1563,193.625 Q774.6563,194.2188 773.8594,194.5469 Q772.8125,195 771.5313,195 Q770.0313,195 768.8281,194.4063 Q767.8594,193.9375 767.1719,192.9219 Q766.5,191.9063 766.5,190.7031 L766.5,189.6094 Q766.5,188.3594 767.0938,187.2656 Q767.7031,186.1719 768.75,185.5938 Q769.8125,185 771,185 Q771.7188,185 772.3438,185.25 Q772.9688,185.5 773.5,186 Z " fill="#000000"/><text fill="#000000" font-family="sans-serif" font-size="12" lengthAdjust="spacing" textLength="95" x="785.5" y="194.4102">OrganizationRole</text><line style="stroke:#A80036;stroke-width:1.5;" x1="757.5" x2="882.5" y1="205.5" y2="205.5"/><text fill="#000000" font-family="sans-serif" font-size="11" lengthAdjust="spacing" textLength="57" x="762.5" y="220.9189">-description</text><!--MD5=[02e4b9b7573f1156f41e60aa5b4e25a4]
class Company--><rect codeLine="29" fill="#FEFECE" filter="url(#f6pg0iyoxaabe)" height="53.8359" id="Company" style="stroke:#A80036;stroke-width:1.5;" width="85" x="604.5" y="7"/><ellipse cx="619.5" cy="23" fill="#ADD1B2" rx="11" ry="11" style="stroke:#A80036;stroke-width:1.0;"/><path d="M621.5,19.5 Q621.7031,19 621.9375,18.75 Q622.1719,18.5 622.4375,18.5 Q622.9063,18.5 623.2031,18.7813 Q623.5,19.0625 623.5,19.7188 L623.5,21.2813 Q623.5,21.9375 623.2188,22.2188 Q622.9375,22.5 622.5,22.5 Q622.1094,22.5 621.8594,22.3281 Q621.6094,22.1563 621.5,21.7031 Q621.4531,21.3906 621.2813,21.2188 Q620.9688,20.8906 620.4063,20.7031 Q619.8438,20.5 619.2813,20.5 Q618.5781,20.5 617.9844,20.7813 Q617.4063,21.0625 616.9531,21.6875 Q616.5,22.3125 616.5,23.1719 L616.5,24.0938 Q616.5,25.125 617.3438,25.8125 Q618.1875,26.5 619.6875,26.5 Q620.5781,26.5 621.2031,26.2969 Q621.5625,26.1875 621.9688,25.8281 Q622.2344,25.625 622.375,25.5625 Q622.5156,25.5 622.6875,25.5 Q623.0156,25.5 623.25,25.7656 Q623.5,26.0156 623.5,26.375 Q623.5,26.7188 623.1563,27.125 Q622.6563,27.7188 621.8594,28.0469 Q620.8125,28.5 619.5313,28.5 Q618.0313,28.5 616.8281,27.9063 Q615.8594,27.4375 615.1719,26.4219 Q614.5,25.4063 614.5,24.2031 L614.5,23.1094 Q614.5,21.8594 615.0938,20.7656 Q615.7031,19.6719 616.75,19.0938 Q617.8125,18.5 619,18.5 Q619.7188,18.5 620.3438,18.75 Q620.9688,19 621.5,19.5 Z " fill="#000000"/><text fill="#000000" font-family="sans-serif" font-size="12" lengthAdjust="spacing" textLength="53" x="633.5" y="27.9102">Company</text><line style="stroke:#A80036;stroke-width:1.5;" x1="605.5" x2="688.5" y1="39" y2="39"/><text fill="#000000" font-family="sans-serif" font-size="11" lengthAdjust="spacing" textLength="27" x="610.5" y="54.4189">Name</text><!--MD5=[da547346deef918ea16944ba046651ef]
class Administrator--><rect fill="#FEFECE" filter="url(#f6pg0iyoxaabe)" height="40" id="Administrator" style="stroke:#A80036;stroke-width:1.5;" width="105" x="442.5" y="14"/><ellipse cx="457.5" cy="30" fill="#ADD1B2" rx="11" ry="11" style="stroke:#A80036;stroke-width:1.0;"/><path d="M459.5,26.5 Q459.7031,26 459.9375,25.75 Q460.1719,25.5 460.4375,25.5 Q460.9063,25.5 461.2031,25.7813 Q461.5,26.0625 461.5,26.7188 L461.5,28.2813 Q461.5,28.9375 461.2188,29.2188 Q460.9375,29.5 460.5,29.5 Q460.1094,29.5 459.8594,29.3281 Q459.6094,29.1563 459.5,28.7031 Q459.4531,28.3906 459.2813,28.2188 Q458.9688,27.8906 458.4063,27.7031 Q457.8438,27.5 457.2813,27.5 Q456.5781,27.5 455.9844,27.7813 Q455.4063,28.0625 454.9531,28.6875 Q454.5,29.3125 454.5,30.1719 L454.5,31.0938 Q454.5,32.125 455.3438,32.8125 Q456.1875,33.5 457.6875,33.5 Q458.5781,33.5 459.2031,33.2969 Q459.5625,33.1875 459.9688,32.8281 Q460.2344,32.625 460.375,32.5625 Q460.5156,32.5 460.6875,32.5 Q461.0156,32.5 461.25,32.7656 Q461.5,33.0156 461.5,33.375 Q461.5,33.7188 461.1563,34.125 Q460.6563,34.7188 459.8594,35.0469 Q458.8125,35.5 457.5313,35.5 Q456.0313,35.5 454.8281,34.9063 Q453.8594,34.4375 453.1719,33.4219 Q452.5,32.4063 452.5,31.2031 L452.5,30.1094 Q452.5,28.8594 453.0938,27.7656 Q453.7031,26.6719 454.75,26.0938 Q455.8125,25.5 457,25.5 Q457.7188,25.5 458.3438,25.75 Q458.9688,26 459.5,26.5 Z " fill="#000000"/><text fill="#000000" font-family="sans-serif" font-size="12" lengthAdjust="spacing" textLength="73" x="471.5" y="34.9102">Administrator</text><line style="stroke:#A80036;stroke-width:1.5;" x1="443.5" x2="546.5" y1="46" y2="46"/><!--MD5=[012ee2a8bf3ae2b319009b06f951c2e5]
class ClinicalChemistryTechnologist--><rect fill="#FEFECE" filter="url(#f6pg0iyoxaabe)" height="40" id="ClinicalChemistryTechnologist" style="stroke:#A80036;stroke-width:1.5;" width="200" x="265" y="361"/><ellipse cx="280" cy="377" fill="#ADD1B2" rx="11" ry="11" style="stroke:#A80036;stroke-width:1.0;"/><path d="M282,373.5 Q282.2031,373 282.4375,372.75 Q282.6719,372.5 282.9375,372.5 Q283.4063,372.5 283.7031,372.7813 Q284,373.0625 284,373.7188 L284,375.2813 Q284,375.9375 283.7188,376.2188 Q283.4375,376.5 283,376.5 Q282.6094,376.5 282.3594,376.3281 Q282.1094,376.1563 282,375.7031 Q281.9531,375.3906 281.7813,375.2188 Q281.4688,374.8906 280.9063,374.7031 Q280.3438,374.5 279.7813,374.5 Q279.0781,374.5 278.4844,374.7813 Q277.9063,375.0625 277.4531,375.6875 Q277,376.3125 277,377.1719 L277,378.0938 Q277,379.125 277.8438,379.8125 Q278.6875,380.5 280.1875,380.5 Q281.0781,380.5 281.7031,380.2969 Q282.0625,380.1875 282.4688,379.8281 Q282.7344,379.625 282.875,379.5625 Q283.0156,379.5 283.1875,379.5 Q283.5156,379.5 283.75,379.7656 Q284,380.0156 284,380.375 Q284,380.7188 283.6563,381.125 Q283.1563,381.7188 282.3594,382.0469 Q281.3125,382.5 280.0313,382.5 Q278.5313,382.5 277.3281,381.9063 Q276.3594,381.4375 275.6719,380.4219 Q275,379.4063 275,378.2031 L275,377.1094 Q275,375.8594 275.5938,374.7656 Q276.2031,373.6719 277.25,373.0938 Q278.3125,372.5 279.5,372.5 Q280.2188,372.5 280.8438,372.75 Q281.4688,373 282,373.5 Z " fill="#000000"/><text fill="#000000" font-family="sans-serif" font-size="12" lengthAdjust="spacing" textLength="168" x="294" y="381.9102">ClinicalChemistryTechnologist</text><line style="stroke:#A80036;stroke-width:1.5;" x1="266" x2="464" y1="393" y2="393"/><!--MD5=[052425de1c0eb6cc1c1b48342b0bb88f]
class LaboratoryCoordinator--><rect fill="#FEFECE" filter="url(#f6pg0iyoxaabe)" height="40" id="LaboratoryCoordinator" style="stroke:#A80036;stroke-width:1.5;" width="155" x="500.5" y="361"/><ellipse cx="515.5" cy="377" fill="#ADD1B2" rx="11" ry="11" style="stroke:#A80036;stroke-width:1.0;"/><path d="M517.5,373.5 Q517.7031,373 517.9375,372.75 Q518.1719,372.5 518.4375,372.5 Q518.9063,372.5 519.2031,372.7813 Q519.5,373.0625 519.5,373.7188 L519.5,375.2813 Q519.5,375.9375 519.2188,376.2188 Q518.9375,376.5 518.5,376.5 Q518.1094,376.5 517.8594,376.3281 Q517.6094,376.1563 517.5,375.7031 Q517.4531,375.3906 517.2813,375.2188 Q516.9688,374.8906 516.4063,374.7031 Q515.8438,374.5 515.2813,374.5 Q514.5781,374.5 513.9844,374.7813 Q513.4063,375.0625 512.9531,375.6875 Q512.5,376.3125 512.5,377.1719 L512.5,378.0938 Q512.5,379.125 513.3438,379.8125 Q514.1875,380.5 515.6875,380.5 Q516.5781,380.5 517.2031,380.2969 Q517.5625,380.1875 517.9688,379.8281 Q518.2344,379.625 518.375,379.5625 Q518.5156,379.5 518.6875,379.5 Q519.0156,379.5 519.25,379.7656 Q519.5,380.0156 519.5,380.375 Q519.5,380.7188 519.1563,381.125 Q518.6563,381.7188 517.8594,382.0469 Q516.8125,382.5 515.5313,382.5 Q514.0313,382.5 512.8281,381.9063 Q511.8594,381.4375 511.1719,380.4219 Q510.5,379.4063 510.5,378.2031 L510.5,377.1094 Q510.5,375.8594 511.0938,374.7656 Q511.7031,373.6719 512.75,373.0938 Q513.8125,372.5 515,372.5 Q515.7188,372.5 516.3438,372.75 Q516.9688,373 517.5,373.5 Z " fill="#000000"/><text fill="#000000" font-family="sans-serif" font-size="12" lengthAdjust="spacing" textLength="123" x="529.5" y="381.9102">LaboratoryCoordinator</text><line style="stroke:#A80036;stroke-width:1.5;" x1="501.5" x2="654.5" y1="393" y2="393"/><!--MD5=[01931d41e78f8996acd44f6f0fd8de28]
class MedicalLabTechnician--><rect fill="#FEFECE" filter="url(#f6pg0iyoxaabe)" height="40" id="MedicalLabTechnician" style="stroke:#A80036;stroke-width:1.5;" width="155" x="690.5" y="361"/><ellipse cx="705.5" cy="377" fill="#ADD1B2" rx="11" ry="11" style="stroke:#A80036;stroke-width:1.0;"/><path d="M707.5,373.5 Q707.7031,373 707.9375,372.75 Q708.1719,372.5 708.4375,372.5 Q708.9063,372.5 709.2031,372.7813 Q709.5,373.0625 709.5,373.7188 L709.5,375.2813 Q709.5,375.9375 709.2188,376.2188 Q708.9375,376.5 708.5,376.5 Q708.1094,376.5 707.8594,376.3281 Q707.6094,376.1563 707.5,375.7031 Q707.4531,375.3906 707.2813,375.2188 Q706.9688,374.8906 706.4063,374.7031 Q705.8438,374.5 705.2813,374.5 Q704.5781,374.5 703.9844,374.7813 Q703.4063,375.0625 702.9531,375.6875 Q702.5,376.3125 702.5,377.1719 L702.5,378.0938 Q702.5,379.125 703.3438,379.8125 Q704.1875,380.5 705.6875,380.5 Q706.5781,380.5 707.2031,380.2969 Q707.5625,380.1875 707.9688,379.8281 Q708.2344,379.625 708.375,379.5625 Q708.5156,379.5 708.6875,379.5 Q709.0156,379.5 709.25,379.7656 Q709.5,380.0156 709.5,380.375 Q709.5,380.7188 709.1563,381.125 Q708.6563,381.7188 707.8594,382.0469 Q706.8125,382.5 705.5313,382.5 Q704.0313,382.5 702.8281,381.9063 Q701.8594,381.4375 701.1719,380.4219 Q700.5,379.4063 700.5,378.2031 L700.5,377.1094 Q700.5,375.8594 701.0938,374.7656 Q701.7031,373.6719 702.75,373.0938 Q703.8125,372.5 705,372.5 Q705.7188,372.5 706.3438,372.75 Q706.9688,373 707.5,373.5 Z " fill="#000000"/><text fill="#000000" font-family="sans-serif" font-size="12" lengthAdjust="spacing" textLength="123" x="719.5" y="381.9102">MedicalLabTechnician</text><line style="stroke:#A80036;stroke-width:1.5;" x1="691.5" x2="844.5" y1="393" y2="393"/><!--MD5=[03960189e81aa2c066c762ffabbee709]
class Receptionist--><rect fill="#FEFECE" filter="url(#f6pg0iyoxaabe)" height="40" id="Receptionist" style="stroke:#A80036;stroke-width:1.5;" width="101" x="880.5" y="361"/><ellipse cx="895.5" cy="377" fill="#ADD1B2" rx="11" ry="11" style="stroke:#A80036;stroke-width:1.0;"/><path d="M897.5,373.5 Q897.7031,373 897.9375,372.75 Q898.1719,372.5 898.4375,372.5 Q898.9063,372.5 899.2031,372.7813 Q899.5,373.0625 899.5,373.7188 L899.5,375.2813 Q899.5,375.9375 899.2188,376.2188 Q898.9375,376.5 898.5,376.5 Q898.1094,376.5 897.8594,376.3281 Q897.6094,376.1563 897.5,375.7031 Q897.4531,375.3906 897.2813,375.2188 Q896.9688,374.8906 896.4063,374.7031 Q895.8438,374.5 895.2813,374.5 Q894.5781,374.5 893.9844,374.7813 Q893.4063,375.0625 892.9531,375.6875 Q892.5,376.3125 892.5,377.1719 L892.5,378.0938 Q892.5,379.125 893.3438,379.8125 Q894.1875,380.5 895.6875,380.5 Q896.5781,380.5 897.2031,380.2969 Q897.5625,380.1875 897.9688,379.8281 Q898.2344,379.625 898.375,379.5625 Q898.5156,379.5 898.6875,379.5 Q899.0156,379.5 899.25,379.7656 Q899.5,380.0156 899.5,380.375 Q899.5,380.7188 899.1563,381.125 Q898.6563,381.7188 897.8594,382.0469 Q896.8125,382.5 895.5313,382.5 Q894.0313,382.5 892.8281,381.9063 Q891.8594,381.4375 891.1719,380.4219 Q890.5,379.4063 890.5,378.2031 L890.5,377.1094 Q890.5,375.8594 891.0938,374.7656 Q891.7031,373.6719 892.75,373.0938 Q893.8125,372.5 895,372.5 Q895.7188,372.5 896.3438,372.75 Q896.9688,373 897.5,373.5 Z " fill="#000000"/><text fill="#000000" font-family="sans-serif" font-size="12" lengthAdjust="spacing" textLength="69" x="909.5" y="381.9102">Receptionist</text><line style="stroke:#A80036;stroke-width:1.5;" x1="881.5" x2="980.5" y1="393" y2="393"/><!--MD5=[9abf40ff36e4aa94ac761b2803c1dce8]
link Company to OrganizationRole--><path codeLine="32" d="M674.62,61.2 C684.52,70.6 695.76,81.27 706,91 C735.51,119.05 769.29,151.2 792.37,173.18 " fill="none" id="Company-OrganizationRole" style="stroke:#A80036;stroke-width:1.0;"/><polygon fill="#000000" points="733.6232,103.6214,729.0941,95.2585,725.0435,99.5179,733.6232,103.6214" style="stroke:#000000;stroke-width:1.0;"/><text fill="#000000" font-family="sans-serif" font-size="13" lengthAdjust="spacing" textLength="83" x="739" y="105.4951">knowns all the</text><text fill="#000000" font-family="sans-serif" font-size="13" lengthAdjust="spacing" textLength="7" x="672.8963" y="82.4515">1</text><text fill="#000000" font-family="sans-serif" font-size="13" lengthAdjust="spacing" textLength="5" x="780.4024" y="162.567">*</text><!--MD5=[241b49406f7a05442b1e788ffaf3787c]
link Employee to OrganizationRole--><path codeLine="33" d="M585.76,200.5 C642.38,200.5 708.55,200.5 756.09,200.5 " fill="none" id="Employee-OrganizationRole" style="stroke:#A80036;stroke-width:1.0;"/><polygon fill="#000000" points="613,188.6758,603.9549,185.7369,603.9549,191.6147,613,188.6758" style="stroke:#000000;stroke-width:1.0;"/><text fill="#000000" font-family="sans-serif" font-size="13" lengthAdjust="spacing" textLength="121" x="617" y="193.9951">is characterized by a</text><text fill="#000000" font-family="sans-serif" font-size="13" lengthAdjust="spacing" textLength="7" x="593.336" y="197.4934">1</text><text fill="#000000" font-family="sans-serif" font-size="13" lengthAdjust="spacing" textLength="7" x="741.2957" y="197.0999">1</text><!--MD5=[22fb9506fac029fc1d2ae00f0eb8d606]
link Employee to User--><path codeLine="34" d="M356.33,232.47 C278.41,256.04 174.53,292.53 90,340 C84.28,343.21 78.54,347.07 73.1,351.1 " fill="none" id="Employee-User" style="stroke:#A80036;stroke-width:1.0;"/><polygon fill="#000000" points="180.3882,303.1074,189.8664,302.3238,187.5956,296.9023,180.3882,303.1074" style="stroke:#000000;stroke-width:1.0;"/><text fill="#000000" font-family="sans-serif" font-size="13" lengthAdjust="spacing" textLength="21" x="194" y="306.4951">is a</text><text fill="#000000" font-family="sans-serif" font-size="13" lengthAdjust="spacing" textLength="7" x="341.3905" y="231.5869">1</text><text fill="#000000" font-family="sans-serif" font-size="13" lengthAdjust="spacing" textLength="7" x="81.1062" y="340.3968">1</text><!--MD5=[09366576ee87d48d594df10cacc83f45]
link Company to Employee--><path codeLine="35" d="M619.11,61.07 C596.82,81.9 564.67,111.95 536.01,138.74 " fill="none" id="Company-Employee" style="stroke:#A80036;stroke-width:1.0;"/><polygon fill="#000000" points="587.3471,103.59,595.962,99.5608,591.9484,95.2666,587.3471,103.59" style="stroke:#000000;stroke-width:1.0;"/><text fill="#000000" font-family="sans-serif" font-size="13" lengthAdjust="spacing" textLength="49" x="600" y="105.4951">employs</text><text fill="#000000" font-family="sans-serif" font-size="13" lengthAdjust="spacing" textLength="7" x="605.2434" y="82.2931">1</text><text fill="#000000" font-family="sans-serif" font-size="13" lengthAdjust="spacing" textLength="5" x="538.2377" y="128.1885">*</text><!--MD5=[8f7dd94d56b58fc07b233ccd3dd98f8c]
link Administrator to Employee--><path codeLine="36" d="M462.69,54.08 C450.02,63.45 436.89,75.97 430,91 C422.99,106.28 424.92,123.14 430.7,138.92 " fill="none" id="Administrator-Employee" style="stroke:#A80036;stroke-width:1.0;"/><polygon fill="#000000" points="433.2359,104.8542,439.1771,97.4277,433.6772,95.3539,433.2359,104.8542" style="stroke:#000000;stroke-width:1.0;"/><text fill="#000000" font-family="sans-serif" font-size="13" lengthAdjust="spacing" textLength="21" x="444" y="105.4951">is a</text><text fill="#000000" font-family="sans-serif" font-size="13" lengthAdjust="spacing" textLength="7" x="445.6184" y="75.5221">1</text><text fill="#000000" font-family="sans-serif" font-size="13" lengthAdjust="spacing" textLength="7" x="418.3619" y="127.9555">1</text><!--MD5=[8f7dd94d56b58fc07b233ccd3dd98f8c]
link Administrator to Employee--><path codeLine="42" d="M492.2,54.19 C489.18,74.87 484.23,108.84 479.86,138.74 " fill="none" id="Administrator-Employee-1" style="stroke:#A80036;stroke-width:1.0;"/><polygon fill="#000000" points="491.2779,105.1234,495.4923,96.5975,489.6761,95.7487,491.2779,105.1234" style="stroke:#000000;stroke-width:1.0;"/><text fill="#000000" font-family="sans-serif" font-size="13" lengthAdjust="spacing" textLength="43" x="501" y="105.4951">register</text><text fill="#000000" font-family="sans-serif" font-size="13" lengthAdjust="spacing" textLength="7" x="483.4281" y="75.663">1</text><text fill="#000000" font-family="sans-serif" font-size="13" lengthAdjust="spacing" textLength="7" x="473.4798" y="128.1885">1</text><!--MD5=[d0b577d991866bb293f65e18071b6be7]
link Employee to ClinicalChemistryTechnologist--><path codeLine="37" d="M434.82,262.43 C414.43,296.77 390.33,337.35 376.44,360.74 " fill="none" id="Employee-ClinicalChemistryTechnologist" style="stroke:#A80036;stroke-width:1.0;"/><polygon fill="#000000" points="417.447,305.4749,424.5923,299.1983,419.5384,296.1971,417.447,305.4749" style="stroke:#000000;stroke-width:1.0;"/><text fill="#000000" font-family="sans-serif" font-size="13" lengthAdjust="spacing" textLength="50" x="429" y="306.4951">can be a</text><text fill="#000000" font-family="sans-serif" font-size="13" lengthAdjust="spacing" textLength="7" x="423.48" y="283.5921">1</text><text fill="#000000" font-family="sans-serif" font-size="13" lengthAdjust="spacing" textLength="7" x="371.7724" y="349.9854">1</text><!--MD5=[a0184b63db99e4170c08b50ca520f26e]
link Employee to LaboratoryCoordinator--><path codeLine="38" d="M507.52,262.43 C528.11,296.77 552.43,337.35 566.45,360.74 " fill="none" id="Employee-LaboratoryCoordinator" style="stroke:#A80036;stroke-width:1.0;"/><polygon fill="#000000" points="542.5707,305.4643,540.441,296.1953,535.3995,299.2173,542.5707,305.4643" style="stroke:#000000;stroke-width:1.0;"/><text fill="#000000" font-family="sans-serif" font-size="13" lengthAdjust="spacing" textLength="50" x="549" y="306.4951">can be a</text><text fill="#000000" font-family="sans-serif" font-size="13" lengthAdjust="spacing" textLength="7" x="504.1316" y="283.5921">1</text><text fill="#000000" font-family="sans-serif" font-size="13" lengthAdjust="spacing" textLength="7" x="555.0291" y="349.9854">1</text><!--MD5=[3960df5b1ea8ecab6ad2804cc08d8583]
link Employee to MedicalLabTechnician--><path codeLine="39" d="M571.97,262.18 C629.31,296.65 697.23,337.46 736.2,360.89 " fill="none" id="Employee-MedicalLabTechnician" style="stroke:#A80036;stroke-width:1.0;"/><polygon fill="#000000" points="656.2855,303.7516,650.047,296.573,647.019,301.6109,656.2855,303.7516" style="stroke:#000000;stroke-width:1.0;"/><text fill="#000000" font-family="sans-serif" font-size="13" lengthAdjust="spacing" textLength="50" x="661" y="306.4951">can be a</text><text fill="#000000" font-family="sans-serif" font-size="13" lengthAdjust="spacing" textLength="7" x="575.6308" y="283.3147">1</text><text fill="#000000" font-family="sans-serif" font-size="13" lengthAdjust="spacing" textLength="7" x="718.8306" y="350.1794">1</text><!--MD5=[1da12df22706e73e1def33b218b7f412]
link Employee to Receptionist--><path codeLine="40" d="M585.66,235.59 C665.07,260.73 772.37,297.81 863,340 C875.91,346.01 889.56,353.74 901.21,360.8 " fill="none" id="Employee-Receptionist" style="stroke:#A80036;stroke-width:1.0;"/><polygon fill="#000000" points="800.6475,303.0199,793.324,296.9521,791.1561,302.4156,800.6475,303.0199" style="stroke:#000000;stroke-width:1.0;"/><text fill="#000000" font-family="sans-serif" font-size="13" lengthAdjust="spacing" textLength="50" x="805" y="306.4951">can be a</text><text fill="#000000" font-family="sans-serif" font-size="13" lengthAdjust="spacing" textLength="7" x="593.5989" y="234.9165">1</text><text fill="#000000" font-family="sans-serif" font-size="13" lengthAdjust="spacing" textLength="7" x="884.4311" y="350.063">1</text><!--MD5=[dad08633360fb9f059c0c4df7f2e8d04]
link Employee to SpecialistDoctor--><path codeLine="41" d="M368.34,262.18 C315.5,293.41 253.83,329.86 213.24,353.85 " fill="none" id="Employee-SpecialistDoctor" style="stroke:#A80036;stroke-width:1.0;"/><polygon fill="#000000" points="311.6956,303.7198,320.9777,301.6477,317.987,296.5875,311.6956,303.7198" style="stroke:#000000;stroke-width:1.0;"/><text fill="#000000" font-family="sans-serif" font-size="13" lengthAdjust="spacing" textLength="50" x="325" y="306.4951">can be a</text><text fill="#000000" font-family="sans-serif" font-size="13" lengthAdjust="spacing" textLength="7" x="349.7288" y="283.3147">1</text><text fill="#000000" font-family="sans-serif" font-size="13" lengthAdjust="spacing" textLength="7" x="215.6611" y="343.2763">1</text><!--MD5=[a1b16b47d6762866b4294ba6efb7d7b0]
@startuml
'https://plantuml.com/class-diagram

hide methods
skinparam classAttributeIconSize 0

class User{
-name
-email
-password
}

class Employee{
-Employee ID;
-Name;
-Address;
-Phone Number;
-E-Mail;
-Standard Occupational Classification "soc";
}

class SpecialistDoctor{
-Doctor Index Number;
}

class OrganizationRole{
-description
}

class Company{
Name
}
Company "1" - "*" OrganizationRole: knowns all the >
Employee "1" - "1" OrganizationRole: is characterized by a  >
Employee "1" - - "1" User: is a >
Company "1" - - "*" Employee: employs >
Administrator"1" - - "1" Employee: is a >
Employee "1" - - "1" ClinicalChemistryTechnologist: can be a >
Employee "1" - - "1" LaboratoryCoordinator: can be a >
Employee "1" - - "1" MedicalLabTechnician: can be a >
Employee "1" - - "1" Receptionist: can be a >
Employee "1" - - "1" SpecialistDoctor: can be a >
Administrator "1" - - "1" Employee: register >

@enduml

@startuml

hide methods
skinparam classAttributeIconSize 0

class User{
-name
-email
-password
}

class Employee{
-Employee ID;
-Name;
-Address;
-Phone Number;
-E-Mail;
-Standard Occupational Classification "soc";
}

class SpecialistDoctor{
-Doctor Index Number;
}

class OrganizationRole{
-description
}

class Company{
Name
}
Company "1" - "*" OrganizationRole: knowns all the >
Employee "1" - "1" OrganizationRole: is characterized by a  >
Employee "1" - - "1" User: is a >
Company "1" - - "*" Employee: employs >
Administrator"1" - - "1" Employee: is a >
Employee "1" - - "1" ClinicalChemistryTechnologist: can be a >
Employee "1" - - "1" LaboratoryCoordinator: can be a >
Employee "1" - - "1" MedicalLabTechnician: can be a >
Employee "1" - - "1" Receptionist: can be a >
Employee "1" - - "1" SpecialistDoctor: can be a >
Administrator "1" - - "1" Employee: register >

@enduml

PlantUML version 1.2021.5(Sun Apr 25 12:20:28 BST 2021)
(GPL source distribution)
Java Runtime: OpenJDK Runtime Environment
JVM: Dynamic Code Evolution 64-Bit Server VM
Default Encoding: Cp1252
Language: pt
Country: PT
--></g></svg>