<?xml version="1.0" encoding="UTF-8" standalone="no"?><svg xmlns="http://www.w3.org/2000/svg" xmlns:xlink="http://www.w3.org/1999/xlink" contentScriptType="application/ecmascript" contentStyleType="text/css" height="447px" preserveAspectRatio="none" style="width:538px;height:447px;" version="1.1" viewBox="0 0 538 447" width="538px" zoomAndPan="magnify"><defs><filter height="300%" id="f142g22r4mtx9m" width="300%" x="-1" y="-1"><feGaussianBlur result="blurOut" stdDeviation="2.0"/><feColorMatrix in="blurOut" result="blurOut2" type="matrix" values="0 0 0 0 0 0 0 0 0 0 0 0 0 0 0 0 0 0 .4 0"/><feOffset dx="4.0" dy="4.0" in="blurOut2" result="blurOut3"/><feBlend in="SourceGraphic" in2="blurOut3" mode="normal"/></filter></defs><g><!--MD5=[da547346deef918ea16944ba046651ef]
class Administrator--><rect codeLine="3" fill="#FEFECE" filter="url(#f142g22r4mtx9m)" height="137.6328" id="Administrator" style="stroke:#A80036;stroke-width:1.5;" width="260" x="7" y="145"/><ellipse cx="92.75" cy="161" fill="#ADD1B2" rx="11" ry="11" style="stroke:#A80036;stroke-width:1.0;"/><path d="M95.0938,156.6719 C94.1563,156.2344 93.5625,156.0938 92.6875,156.0938 C90.0625,156.0938 88.0625,158.1719 88.0625,160.8906 L88.0625,162.0156 C88.0625,164.5938 90.1719,166.4844 93.0625,166.4844 C94.2813,166.4844 95.4375,166.1875 96.1875,165.6406 C96.7656,165.2344 97.0938,164.7813 97.0938,164.3906 C97.0938,163.9375 96.7031,163.5469 96.2344,163.5469 C96.0156,163.5469 95.8125,163.625 95.625,163.8125 C95.1719,164.2969 95.1719,164.2969 94.9844,164.3906 C94.5625,164.6563 93.875,164.7813 93.1094,164.7813 C91.0625,164.7813 89.7656,163.6875 89.7656,161.9844 L89.7656,160.8906 C89.7656,159.1094 91.0156,157.7969 92.75,157.7969 C93.3281,157.7969 93.9375,157.9531 94.4063,158.2031 C94.8906,158.4844 95.0625,158.7031 95.1563,159.1094 C95.2188,159.5156 95.25,159.6406 95.3906,159.7656 C95.5313,159.9063 95.7656,160.0156 95.9844,160.0156 C96.25,160.0156 96.5156,159.875 96.6875,159.6563 C96.7969,159.5 96.8281,159.3125 96.8281,158.8906 L96.8281,157.4688 C96.8281,157.0313 96.8125,156.9063 96.7188,156.75 C96.5625,156.4844 96.2813,156.3438 95.9844,156.3438 C95.6875,156.3438 95.4844,156.4375 95.2656,156.75 L95.0938,156.6719 Z " fill="#000000"/><text fill="#000000" font-family="sans-serif" font-size="12" lengthAdjust="spacing" textLength="80" x="113.25" y="165.1543">Administrator</text><line style="stroke:#A80036;stroke-width:1.5;" x1="8" x2="266" y1="177" y2="177"/><text fill="#000000" font-family="sans-serif" font-size="11" lengthAdjust="spacing" textLength="77" x="13" y="191.2104">Employee ID;</text><text fill="#000000" font-family="sans-serif" font-size="11" lengthAdjust="spacing" textLength="104" x="13" y="204.0151">Organization Role;</text><text fill="#000000" font-family="sans-serif" font-size="11" lengthAdjust="spacing" textLength="37" x="13" y="216.8198">Name;</text><text fill="#000000" font-family="sans-serif" font-size="11" lengthAdjust="spacing" textLength="49" x="13" y="229.6245">Address;</text><text fill="#000000" font-family="sans-serif" font-size="11" lengthAdjust="spacing" textLength="87" x="13" y="242.4292">Phone Number;</text><text fill="#000000" font-family="sans-serif" font-size="11" lengthAdjust="spacing" textLength="36" x="13" y="255.2339">E-Mail;</text><text fill="#000000" font-family="sans-serif" font-size="11" lengthAdjust="spacing" textLength="248" x="13" y="268.0386">Standard Occupational Classification "soc";</text><line style="stroke:#A80036;stroke-width:1.5;" x1="8" x2="266" y1="274.6328" y2="274.6328"/><!--MD5=[02e4b9b7573f1156f41e60aa5b4e25a4]
class Company--><rect codeLine="13" fill="#FEFECE" filter="url(#f142g22r4mtx9m)" height="60.8047" id="Company" style="stroke:#A80036;stroke-width:1.5;" width="88" x="220" y="7"/><ellipse cx="235" cy="23" fill="#ADD1B2" rx="11" ry="11" style="stroke:#A80036;stroke-width:1.0;"/><path d="M237.3438,18.6719 C236.4063,18.2344 235.8125,18.0938 234.9375,18.0938 C232.3125,18.0938 230.3125,20.1719 230.3125,22.8906 L230.3125,24.0156 C230.3125,26.5938 232.4219,28.4844 235.3125,28.4844 C236.5313,28.4844 237.6875,28.1875 238.4375,27.6406 C239.0156,27.2344 239.3438,26.7813 239.3438,26.3906 C239.3438,25.9375 238.9531,25.5469 238.4844,25.5469 C238.2656,25.5469 238.0625,25.625 237.875,25.8125 C237.4219,26.2969 237.4219,26.2969 237.2344,26.3906 C236.8125,26.6563 236.125,26.7813 235.3594,26.7813 C233.3125,26.7813 232.0156,25.6875 232.0156,23.9844 L232.0156,22.8906 C232.0156,21.1094 233.2656,19.7969 235,19.7969 C235.5781,19.7969 236.1875,19.9531 236.6563,20.2031 C237.1406,20.4844 237.3125,20.7031 237.4063,21.1094 C237.4688,21.5156 237.5,21.6406 237.6406,21.7656 C237.7813,21.9063 238.0156,22.0156 238.2344,22.0156 C238.5,22.0156 238.7656,21.875 238.9375,21.6563 C239.0469,21.5 239.0781,21.3125 239.0781,20.8906 L239.0781,19.4688 C239.0781,19.0313 239.0625,18.9063 238.9688,18.75 C238.8125,18.4844 238.5313,18.3438 238.2344,18.3438 C237.9375,18.3438 237.7344,18.4375 237.5156,18.75 L237.3438,18.6719 Z " fill="#000000"/><text fill="#000000" font-family="sans-serif" font-size="12" lengthAdjust="spacing" textLength="56" x="249" y="27.1543">Company</text><line style="stroke:#A80036;stroke-width:1.5;" x1="221" x2="307" y1="39" y2="39"/><text fill="#000000" font-family="sans-serif" font-size="11" lengthAdjust="spacing" textLength="34" x="226" y="53.2104">Name</text><line style="stroke:#A80036;stroke-width:1.5;" x1="221" x2="307" y1="59.8047" y2="59.8047"/><!--MD5=[1f6362a5c8f21d8d6a0fce68f3a92a4e]
class Parameter--><rect codeLine="17" fill="#FEFECE" filter="url(#f142g22r4mtx9m)" height="60.8047" id="Parameter" style="stroke:#A80036;stroke-width:1.5;" width="93" x="431.5" y="183.5"/><ellipse cx="446.5" cy="199.5" fill="#ADD1B2" rx="11" ry="11" style="stroke:#A80036;stroke-width:1.0;"/><path d="M448.8438,195.1719 C447.9063,194.7344 447.3125,194.5938 446.4375,194.5938 C443.8125,194.5938 441.8125,196.6719 441.8125,199.3906 L441.8125,200.5156 C441.8125,203.0938 443.9219,204.9844 446.8125,204.9844 C448.0313,204.9844 449.1875,204.6875 449.9375,204.1406 C450.5156,203.7344 450.8438,203.2813 450.8438,202.8906 C450.8438,202.4375 450.4531,202.0469 449.9844,202.0469 C449.7656,202.0469 449.5625,202.125 449.375,202.3125 C448.9219,202.7969 448.9219,202.7969 448.7344,202.8906 C448.3125,203.1563 447.625,203.2813 446.8594,203.2813 C444.8125,203.2813 443.5156,202.1875 443.5156,200.4844 L443.5156,199.3906 C443.5156,197.6094 444.7656,196.2969 446.5,196.2969 C447.0781,196.2969 447.6875,196.4531 448.1563,196.7031 C448.6406,196.9844 448.8125,197.2031 448.9063,197.6094 C448.9688,198.0156 449,198.1406 449.1406,198.2656 C449.2813,198.4063 449.5156,198.5156 449.7344,198.5156 C450,198.5156 450.2656,198.375 450.4375,198.1563 C450.5469,198 450.5781,197.8125 450.5781,197.3906 L450.5781,195.9688 C450.5781,195.5313 450.5625,195.4063 450.4688,195.25 C450.3125,194.9844 450.0313,194.8438 449.7344,194.8438 C449.4375,194.8438 449.2344,194.9375 449.0156,195.25 L448.8438,195.1719 Z " fill="#000000"/><text fill="#000000" font-family="sans-serif" font-size="12" lengthAdjust="spacing" textLength="61" x="460.5" y="203.6543">Parameter</text><line style="stroke:#A80036;stroke-width:1.5;" x1="432.5" x2="523.5" y1="215.5" y2="215.5"/><text fill="#000000" font-family="sans-serif" font-size="11" lengthAdjust="spacing" textLength="71" x="437.5" y="229.7104">Designation;</text><line style="stroke:#A80036;stroke-width:1.5;" x1="432.5" x2="523.5" y1="236.3047" y2="236.3047"/><!--MD5=[36afb6bbd95a8ac778c4537c55a683d5]
class ParameterCategory--><rect codeLine="21" fill="#FEFECE" filter="url(#f142g22r4mtx9m)" height="73.6094" id="ParameterCategory" style="stroke:#A80036;stroke-width:1.5;" width="148" x="263" y="360"/><ellipse cx="278" cy="376" fill="#ADD1B2" rx="11" ry="11" style="stroke:#A80036;stroke-width:1.0;"/><path d="M280.3438,371.6719 C279.4063,371.2344 278.8125,371.0938 277.9375,371.0938 C275.3125,371.0938 273.3125,373.1719 273.3125,375.8906 L273.3125,377.0156 C273.3125,379.5938 275.4219,381.4844 278.3125,381.4844 C279.5313,381.4844 280.6875,381.1875 281.4375,380.6406 C282.0156,380.2344 282.3438,379.7813 282.3438,379.3906 C282.3438,378.9375 281.9531,378.5469 281.4844,378.5469 C281.2656,378.5469 281.0625,378.625 280.875,378.8125 C280.4219,379.2969 280.4219,379.2969 280.2344,379.3906 C279.8125,379.6563 279.125,379.7813 278.3594,379.7813 C276.3125,379.7813 275.0156,378.6875 275.0156,376.9844 L275.0156,375.8906 C275.0156,374.1094 276.2656,372.7969 278,372.7969 C278.5781,372.7969 279.1875,372.9531 279.6563,373.2031 C280.1406,373.4844 280.3125,373.7031 280.4063,374.1094 C280.4688,374.5156 280.5,374.6406 280.6406,374.7656 C280.7813,374.9063 281.0156,375.0156 281.2344,375.0156 C281.5,375.0156 281.7656,374.875 281.9375,374.6563 C282.0469,374.5 282.0781,374.3125 282.0781,373.8906 L282.0781,372.4688 C282.0781,372.0313 282.0625,371.9063 281.9688,371.75 C281.8125,371.4844 281.5313,371.3438 281.2344,371.3438 C280.9375,371.3438 280.7344,371.4375 280.5156,371.75 L280.3438,371.6719 Z " fill="#000000"/><text fill="#000000" font-family="sans-serif" font-size="12" lengthAdjust="spacing" textLength="116" x="292" y="380.1543">ParameterCategory</text><line style="stroke:#A80036;stroke-width:1.5;" x1="264" x2="410" y1="392" y2="392"/><text fill="#000000" font-family="sans-serif" font-size="11" lengthAdjust="spacing" textLength="71" x="269" y="406.2104">Designation;</text><text fill="#000000" font-family="sans-serif" font-size="11" lengthAdjust="spacing" textLength="33" x="269" y="419.0151">Code;</text><line style="stroke:#A80036;stroke-width:1.5;" x1="264" x2="410" y1="425.6094" y2="425.6094"/><!--MD5=[eaea43e34e45c5b9d20b595fc78f1f20]
link Company to Administrator--><path codeLine="26" d="M242.456,68.102 C227.17,89.105 206.013,118.175 186.659,144.768 " fill="none" id="Company-Administrator" style="stroke:#A80036;stroke-width:1.0;"/><polygon fill="#000000" points="222.0578,110.6091,229.7565,105.0252,225.0041,101.5664,222.0578,110.6091" style="stroke:#000000;stroke-width:1.0;"/><text fill="#000000" font-family="sans-serif" font-size="13" lengthAdjust="spacing" textLength="55" x="234" y="111.0669">employs</text><text fill="#000000" font-family="sans-serif" font-size="13" lengthAdjust="spacing" textLength="8" x="229.1876" y="88.0613">1</text><text fill="#000000" font-family="sans-serif" font-size="13" lengthAdjust="spacing" textLength="7" x="184.4191" y="133.9477">*</text><!--MD5=[93b4f25fb503a8e0e9a46b1d30ff3f44]
link Company to ParameterCategory--><path codeLine="27" d="M283.862,68.002 C289.252,77.254 294.547,87.739 298,98 C328.54,188.744 335.336,302.51 336.736,359.6693 " fill="none" id="Company-ParameterCategory" style="stroke:#A80036;stroke-width:1.0;"/><polygon fill="#000000" points="338.8919,218.9862,340.1703,209.562,334.3867,210.6104,338.8919,218.9862" style="stroke:#000000;stroke-width:1.0;"/><text fill="#000000" font-family="sans-serif" font-size="13" lengthAdjust="spacing" textLength="44" x="347" y="218.5669">adopts</text><text fill="#000000" font-family="sans-serif" font-size="13" lengthAdjust="spacing" textLength="8" x="279.1335" y="87.9406">1</text><text fill="#000000" font-family="sans-serif" font-size="13" lengthAdjust="spacing" textLength="7" x="329.0655" y="348.7973">*</text><!--MD5=[6df8849671cb880f6936e94aa30db6f9]
link Parameter to ParameterCategory--><path codeLine="28" d="M454.717,244.888 C430.156,276.417 391.446,326.109 365.179,359.8273 " fill="none" id="Parameter-ParameterCategory" style="stroke:#A80036;stroke-width:1.0;"/><polygon fill="#000000" points="401.9273,325.5108,409.8043,320.1814,405.1674,316.5692,401.9273,325.5108" style="stroke:#000000;stroke-width:1.0;"/><text fill="#000000" font-family="sans-serif" font-size="13" lengthAdjust="spacing" textLength="35" x="414" y="326.0669">has a</text><text fill="#000000" font-family="sans-serif" font-size="13" lengthAdjust="spacing" textLength="8" x="441.5162" y="264.3039">1</text><text fill="#000000" font-family="sans-serif" font-size="13" lengthAdjust="spacing" textLength="7" x="362.5749" y="348.9835">*</text><!--MD5=[7144ffdeebbe38808f7fb2ce8ac24f7d]
link Administrator to ParameterCategory--><path codeLine="29" d="M199.189,283.161 C214.652,299.047 231.528,315.536 248,330 C259.564,340.1542 272.591,350.4073 285.039,359.7059 " fill="none" id="Administrator-ParameterCategory" style="stroke:#A80036;stroke-width:1.0;"/><polygon fill="#000000" points="256.732,324.8939,251.9366,316.6808,248.0249,321.068,256.732,324.8939" style="stroke:#000000;stroke-width:1.0;"/><text fill="#000000" font-family="sans-serif" font-size="13" lengthAdjust="spacing" textLength="48" x="262" y="326.0669">creates</text><text fill="#000000" font-family="sans-serif" font-size="13" lengthAdjust="spacing" textLength="8" x="196.917" y="302.7988">1</text><text fill="#000000" font-family="sans-serif" font-size="13" lengthAdjust="spacing" textLength="8" x="267.0709" y="348.8405">1</text><!--MD5=[4b3aebb510c0b8240efe6a3cdd5b3676]
@startuml
'https://plantuml.com/class-diagram

class Administrator{
Employee ID;
Organization Role;
Name;
Address;
Phone Number;
E-Mail;
Standard Occupational Classification "soc";
}

class Company{
Name
}

class Parameter{
Designation;
}

class ParameterCategory{
Designation;
Code;
}

Company "1" - - "*" Administrator: employs >
Company "1" - - "*" ParameterCategory : adopts >
Parameter "1" - - "*" ParameterCategory : has a >
Administrator "1" - - "1" ParameterCategory : creates >
@enduml

@startuml

class Administrator{
Employee ID;
Organization Role;
Name;
Address;
Phone Number;
E-Mail;
Standard Occupational Classification "soc";
}

class Company{
Name
}

class Parameter{
Designation;
}

class ParameterCategory{
Designation;
Code;
}

Company "1" - - "*" Administrator: employs >
Company "1" - - "*" ParameterCategory : adopts >
Parameter "1" - - "*" ParameterCategory : has a >
Administrator "1" - - "1" ParameterCategory : creates >
@enduml

PlantUML version 1.2021.5beta3(Unknown compile time)
(GPL source distribution)
Java Runtime: Java(TM) SE Runtime Environment
JVM: Java HotSpot(TM) 64-Bit Server VM
Default Encoding: UTF-8
Language: en
Country: US
--></g></svg>