<?xml version="1.0" encoding="UTF-8" standalone="no"?><svg xmlns="http://www.w3.org/2000/svg" xmlns:xlink="http://www.w3.org/1999/xlink" contentScriptType="application/ecmascript" contentStyleType="text/css" height="678px" preserveAspectRatio="none" style="width:388px;height:678px;" version="1.1" viewBox="0 0 388 678" width="388px" zoomAndPan="magnify"><defs><filter height="300%" id="f161hml9ybbifj" width="300%" x="-1" y="-1"><feGaussianBlur result="blurOut" stdDeviation="2.0"/><feColorMatrix in="blurOut" result="blurOut2" type="matrix" values="0 0 0 0 0 0 0 0 0 0 0 0 0 0 0 0 0 0 .4 0"/><feOffset dx="4.0" dy="4.0" in="blurOut2" result="blurOut3"/><feBlend in="SourceGraphic" in2="blurOut3" mode="normal"/></filter></defs><g><!--MD5=[6017f56a87b244e108fd0d8749edd53c]
class CreateParameterCategoryUI--><rect codeLine="3" fill="#FEFECE" filter="url(#f161hml9ybbifj)" height="48" id="CreateParameterCategoryUI" style="stroke:#A80036;stroke-width:1.5;" width="200" x="149" y="7"/><ellipse cx="164" cy="23" fill="#ADD1B2" rx="11" ry="11" style="stroke:#A80036;stroke-width:1.0;"/><path d="M166.3438,18.6719 C165.4063,18.2344 164.8125,18.0938 163.9375,18.0938 C161.3125,18.0938 159.3125,20.1719 159.3125,22.8906 L159.3125,24.0156 C159.3125,26.5938 161.4219,28.4844 164.3125,28.4844 C165.5313,28.4844 166.6875,28.1875 167.4375,27.6406 C168.0156,27.2344 168.3438,26.7813 168.3438,26.3906 C168.3438,25.9375 167.9531,25.5469 167.4844,25.5469 C167.2656,25.5469 167.0625,25.625 166.875,25.8125 C166.4219,26.2969 166.4219,26.2969 166.2344,26.3906 C165.8125,26.6563 165.125,26.7813 164.3594,26.7813 C162.3125,26.7813 161.0156,25.6875 161.0156,23.9844 L161.0156,22.8906 C161.0156,21.1094 162.2656,19.7969 164,19.7969 C164.5781,19.7969 165.1875,19.9531 165.6563,20.2031 C166.1406,20.4844 166.3125,20.7031 166.4063,21.1094 C166.4688,21.5156 166.5,21.6406 166.6406,21.7656 C166.7813,21.9063 167.0156,22.0156 167.2344,22.0156 C167.5,22.0156 167.7656,21.875 167.9375,21.6563 C168.0469,21.5 168.0781,21.3125 168.0781,20.8906 L168.0781,19.4688 C168.0781,19.0313 168.0625,18.9063 167.9688,18.75 C167.8125,18.4844 167.5313,18.3438 167.2344,18.3438 C166.9375,18.3438 166.7344,18.4375 166.5156,18.75 L166.3438,18.6719 Z " fill="#000000"/><text fill="#000000" font-family="sans-serif" font-size="12" lengthAdjust="spacing" textLength="168" x="178" y="27.1543">CreateParameterCategoryUI</text><line style="stroke:#A80036;stroke-width:1.5;" x1="150" x2="348" y1="39" y2="39"/><line style="stroke:#A80036;stroke-width:1.5;" x1="150" x2="348" y1="47" y2="47"/><!--MD5=[43bb81d93caae6cc68206df5797cd1c4]
class CreateParameterCategoryController--><rect codeLine="5" fill="#FEFECE" filter="url(#f161hml9ybbifj)" height="73.6094" id="CreateParameterCategoryController" style="stroke:#A80036;stroke-width:1.5;" width="250" x="124" y="116"/><ellipse cx="140.35" cy="132" fill="#ADD1B2" rx="11" ry="11" style="stroke:#A80036;stroke-width:1.0;"/><path d="M142.6938,127.6719 C141.7563,127.2344 141.1625,127.0938 140.2875,127.0938 C137.6625,127.0938 135.6625,129.1719 135.6625,131.8906 L135.6625,133.0156 C135.6625,135.5938 137.7719,137.4844 140.6625,137.4844 C141.8813,137.4844 143.0375,137.1875 143.7875,136.6406 C144.3656,136.2344 144.6938,135.7813 144.6938,135.3906 C144.6938,134.9375 144.3031,134.5469 143.8344,134.5469 C143.6156,134.5469 143.4125,134.625 143.225,134.8125 C142.7719,135.2969 142.7719,135.2969 142.5844,135.3906 C142.1625,135.6563 141.475,135.7813 140.7094,135.7813 C138.6625,135.7813 137.3656,134.6875 137.3656,132.9844 L137.3656,131.8906 C137.3656,130.1094 138.6156,128.7969 140.35,128.7969 C140.9281,128.7969 141.5375,128.9531 142.0063,129.2031 C142.4906,129.4844 142.6625,129.7031 142.7563,130.1094 C142.8188,130.5156 142.85,130.6406 142.9906,130.7656 C143.1313,130.9063 143.3656,131.0156 143.5844,131.0156 C143.85,131.0156 144.1156,130.875 144.2875,130.6563 C144.3969,130.5 144.4281,130.3125 144.4281,129.8906 L144.4281,128.4688 C144.4281,128.0313 144.4125,127.9063 144.3188,127.75 C144.1625,127.4844 143.8813,127.3438 143.5844,127.3438 C143.2875,127.3438 143.0844,127.4375 142.8656,127.75 L142.6938,127.6719 Z " fill="#000000"/><text fill="#000000" font-family="sans-serif" font-size="12" lengthAdjust="spacing" textLength="215" x="154.65" y="136.1543">CreateParameterCategoryController</text><line style="stroke:#A80036;stroke-width:1.5;" x1="125" x2="373" y1="148" y2="148"/><line style="stroke:#A80036;stroke-width:1.5;" x1="125" x2="373" y1="156" y2="156"/><ellipse cx="135" cy="167" fill="#84BE84" rx="3" ry="3" style="stroke:#038048;stroke-width:1.0;"/><text fill="#000000" font-family="sans-serif" font-size="11" lengthAdjust="spacing" textLength="147" x="144" y="170.2104">saveParameterCategory()</text><ellipse cx="135" cy="179.8047" fill="#84BE84" rx="3" ry="3" style="stroke:#038048;stroke-width:1.0;"/><text fill="#000000" font-family="sans-serif" font-size="11" lengthAdjust="spacing" textLength="224" x="144" y="183.0151">createParameterCategory(code, name)</text><!--MD5=[02e4b9b7573f1156f41e60aa5b4e25a4]
class Company--><rect codeLine="9" fill="#FEFECE" filter="url(#f161hml9ybbifj)" height="73.6094" id="Company" style="stroke:#A80036;stroke-width:1.5;" width="232" x="7" y="251"/><ellipse cx="90.75" cy="267" fill="#ADD1B2" rx="11" ry="11" style="stroke:#A80036;stroke-width:1.0;"/><path d="M93.0938,262.6719 C92.1563,262.2344 91.5625,262.0938 90.6875,262.0938 C88.0625,262.0938 86.0625,264.1719 86.0625,266.8906 L86.0625,268.0156 C86.0625,270.5938 88.1719,272.4844 91.0625,272.4844 C92.2813,272.4844 93.4375,272.1875 94.1875,271.6406 C94.7656,271.2344 95.0938,270.7813 95.0938,270.3906 C95.0938,269.9375 94.7031,269.5469 94.2344,269.5469 C94.0156,269.5469 93.8125,269.625 93.625,269.8125 C93.1719,270.2969 93.1719,270.2969 92.9844,270.3906 C92.5625,270.6563 91.875,270.7813 91.1094,270.7813 C89.0625,270.7813 87.7656,269.6875 87.7656,267.9844 L87.7656,266.8906 C87.7656,265.1094 89.0156,263.7969 90.75,263.7969 C91.3281,263.7969 91.9375,263.9531 92.4063,264.2031 C92.8906,264.4844 93.0625,264.7031 93.1563,265.1094 C93.2188,265.5156 93.25,265.6406 93.3906,265.7656 C93.5313,265.9063 93.7656,266.0156 93.9844,266.0156 C94.25,266.0156 94.5156,265.875 94.6875,265.6563 C94.7969,265.5 94.8281,265.3125 94.8281,264.8906 L94.8281,263.4688 C94.8281,263.0313 94.8125,262.9063 94.7188,262.75 C94.5625,262.4844 94.2813,262.3438 93.9844,262.3438 C93.6875,262.3438 93.4844,262.4375 93.2656,262.75 L93.0938,262.6719 Z " fill="#000000"/><text fill="#000000" font-family="sans-serif" font-size="12" lengthAdjust="spacing" textLength="56" x="111.25" y="271.1543">Company</text><line style="stroke:#A80036;stroke-width:1.5;" x1="8" x2="238" y1="283" y2="283"/><rect fill="none" height="6" style="stroke:#C82930;stroke-width:1.0;" width="6" x="15" y="291"/><text fill="#000000" font-family="sans-serif" font-size="11" lengthAdjust="spacing" textLength="66" x="27" y="297.2104">designation</text><line style="stroke:#A80036;stroke-width:1.5;" x1="8" x2="238" y1="303.8047" y2="303.8047"/><ellipse cx="18" cy="314.8047" fill="#84BE84" rx="3" ry="3" style="stroke:#038048;stroke-width:1.0;"/><text fill="#000000" font-family="sans-serif" font-size="11" lengthAdjust="spacing" textLength="206" x="27" y="318.0151">getParameterCategory(code, name)</text><!--MD5=[d802db621b5b215a6f0466f93cefcb42]
class ParameterCategoryStore--><rect codeLine="13" fill="#FEFECE" filter="url(#f161hml9ybbifj)" height="99.2188" id="ParameterCategoryStore" style="stroke:#A80036;stroke-width:1.5;" width="250" x="111" y="402"/><ellipse cx="157.25" cy="418" fill="#ADD1B2" rx="11" ry="11" style="stroke:#A80036;stroke-width:1.0;"/><path d="M159.5938,413.6719 C158.6563,413.2344 158.0625,413.0938 157.1875,413.0938 C154.5625,413.0938 152.5625,415.1719 152.5625,417.8906 L152.5625,419.0156 C152.5625,421.5938 154.6719,423.4844 157.5625,423.4844 C158.7813,423.4844 159.9375,423.1875 160.6875,422.6406 C161.2656,422.2344 161.5938,421.7813 161.5938,421.3906 C161.5938,420.9375 161.2031,420.5469 160.7344,420.5469 C160.5156,420.5469 160.3125,420.625 160.125,420.8125 C159.6719,421.2969 159.6719,421.2969 159.4844,421.3906 C159.0625,421.6563 158.375,421.7813 157.6094,421.7813 C155.5625,421.7813 154.2656,420.6875 154.2656,418.9844 L154.2656,417.8906 C154.2656,416.1094 155.5156,414.7969 157.25,414.7969 C157.8281,414.7969 158.4375,414.9531 158.9063,415.2031 C159.3906,415.4844 159.5625,415.7031 159.6563,416.1094 C159.7188,416.5156 159.75,416.6406 159.8906,416.7656 C160.0313,416.9063 160.2656,417.0156 160.4844,417.0156 C160.75,417.0156 161.0156,416.875 161.1875,416.6563 C161.2969,416.5 161.3281,416.3125 161.3281,415.8906 L161.3281,414.4688 C161.3281,414.0313 161.3125,413.9063 161.2188,413.75 C161.0625,413.4844 160.7813,413.3438 160.4844,413.3438 C160.1875,413.3438 159.9844,413.4375 159.7656,413.75 L159.5938,413.6719 Z " fill="#000000"/><text fill="#000000" font-family="sans-serif" font-size="12" lengthAdjust="spacing" textLength="149" x="177.75" y="422.1543">ParameterCategoryStore</text><line style="stroke:#A80036;stroke-width:1.5;" x1="112" x2="360" y1="434" y2="434"/><line style="stroke:#A80036;stroke-width:1.5;" x1="112" x2="360" y1="442" y2="442"/><ellipse cx="122" cy="453" fill="#84BE84" rx="3" ry="3" style="stroke:#038048;stroke-width:1.0;"/><text fill="#000000" font-family="sans-serif" font-size="11" lengthAdjust="spacing" textLength="224" x="131" y="456.2104">createParameterCategory(code, name)</text><ellipse cx="122" cy="465.8047" fill="#84BE84" rx="3" ry="3" style="stroke:#038048;stroke-width:1.0;"/><text fill="#000000" font-family="sans-serif" font-size="11" lengthAdjust="spacing" textLength="160" x="131" y="469.0151">saveParameterCategory(pc)</text><ellipse cx="122" cy="478.6094" fill="#84BE84" rx="3" ry="3" style="stroke:#038048;stroke-width:1.0;"/><text fill="#000000" font-family="sans-serif" font-size="11" lengthAdjust="spacing" textLength="178" x="131" y="481.8198">validateParameterCategory(pc)</text><ellipse cx="122" cy="491.4141" fill="#84BE84" rx="3" ry="3" style="stroke:#038048;stroke-width:1.0;"/><text fill="#000000" font-family="sans-serif" font-size="11" lengthAdjust="spacing" textLength="153" x="131" y="494.6245">addParameterCategory(pc)</text><!--MD5=[36afb6bbd95a8ac778c4537c55a683d5]
class ParameterCategory--><rect codeLine="20" fill="#FEFECE" filter="url(#f161hml9ybbifj)" height="86.4141" id="ParameterCategory" style="stroke:#A80036;stroke-width:1.5;" width="209" x="131.5" y="578"/><ellipse cx="173.95" cy="594" fill="#ADD1B2" rx="11" ry="11" style="stroke:#A80036;stroke-width:1.0;"/><path d="M176.2938,589.6719 C175.3563,589.2344 174.7625,589.0938 173.8875,589.0938 C171.2625,589.0938 169.2625,591.1719 169.2625,593.8906 L169.2625,595.0156 C169.2625,597.5938 171.3719,599.4844 174.2625,599.4844 C175.4813,599.4844 176.6375,599.1875 177.3875,598.6406 C177.9656,598.2344 178.2938,597.7813 178.2938,597.3906 C178.2938,596.9375 177.9031,596.5469 177.4344,596.5469 C177.2156,596.5469 177.0125,596.625 176.825,596.8125 C176.3719,597.2969 176.3719,597.2969 176.1844,597.3906 C175.7625,597.6563 175.075,597.7813 174.3094,597.7813 C172.2625,597.7813 170.9656,596.6875 170.9656,594.9844 L170.9656,593.8906 C170.9656,592.1094 172.2156,590.7969 173.95,590.7969 C174.5281,590.7969 175.1375,590.9531 175.6063,591.2031 C176.0906,591.4844 176.2625,591.7031 176.3563,592.1094 C176.4188,592.5156 176.45,592.6406 176.5906,592.7656 C176.7313,592.9063 176.9656,593.0156 177.1844,593.0156 C177.45,593.0156 177.7156,592.875 177.8875,592.6563 C177.9969,592.5 178.0281,592.3125 178.0281,591.8906 L178.0281,590.4688 C178.0281,590.0313 178.0125,589.9063 177.9188,589.75 C177.7625,589.4844 177.4813,589.3438 177.1844,589.3438 C176.8875,589.3438 176.6844,589.4375 176.4656,589.75 L176.2938,589.6719 Z " fill="#000000"/><text fill="#000000" font-family="sans-serif" font-size="12" lengthAdjust="spacing" textLength="116" x="194.05" y="598.1543">ParameterCategory</text><line style="stroke:#A80036;stroke-width:1.5;" x1="132.5" x2="339.5" y1="610" y2="610"/><rect fill="none" height="6" style="stroke:#C82930;stroke-width:1.0;" width="6" x="139.5" y="618"/><text fill="#000000" font-family="sans-serif" font-size="11" lengthAdjust="spacing" textLength="28" x="151.5" y="624.2104">code</text><rect fill="none" height="6" style="stroke:#C82930;stroke-width:1.0;" width="6" x="139.5" y="630.8047"/><text fill="#000000" font-family="sans-serif" font-size="11" lengthAdjust="spacing" textLength="33" x="151.5" y="637.0151">name</text><line style="stroke:#A80036;stroke-width:1.5;" x1="132.5" x2="339.5" y1="643.6094" y2="643.6094"/><ellipse cx="142.5" cy="654.6094" fill="#84BE84" rx="3" ry="3" style="stroke:#038048;stroke-width:1.0;"/><text fill="#000000" font-family="sans-serif" font-size="11" lengthAdjust="spacing" textLength="183" x="151.5" y="657.8198">ParameterCategory(code,name)</text><!--MD5=[93b1b9218398b0464d36d46d0f539949]
link CreateParameterCategoryUI to CreateParameterCategoryController--><path codeLine="25" d="M249,55.137 C249,70.825 249,92.003 249,110.555 " fill="none" id="CreateParameterCategoryUI-to-CreateParameterCategoryController" style="stroke:#A80036;stroke-width:1.0;stroke-dasharray:7.0,7.0;"/><polygon fill="#A80036" points="249,115.711,253,106.711,249,110.711,245,106.711,249,115.711" style="stroke:#A80036;stroke-width:1.0;"/><!--MD5=[a00c31f7a5d66db29f7adf0293377a3b]
link CreateParameterCategoryController to Company--><path codeLine="26" d="M214.57,190.343 C198.041,207.79 178.184,228.75 161.192,246.686 " fill="none" id="CreateParameterCategoryController-to-Company" style="stroke:#A80036;stroke-width:1.0;stroke-dasharray:7.0,7.0;"/><polygon fill="#A80036" points="157.388,250.701,166.4813,246.9179,160.8265,247.071,160.6734,241.4163,157.388,250.701" style="stroke:#A80036;stroke-width:1.0;"/><!--MD5=[be6e87e2c6f1800ec3da53612c46e11a]
link CreateParameterCategoryController to ParameterCategoryStore--><path codeLine="27" d="M252.711,190.345 C254.386,208.537 256.173,230.909 257,251 C258.353,283.861 259.723,292.224 257,325 C255.027,348.742 250.99,374.752 246.978,396.907 " fill="none" id="CreateParameterCategoryController-to-ParameterCategoryStore" style="stroke:#A80036;stroke-width:1.0;stroke-dasharray:7.0,7.0;"/><polygon fill="#A80036" points="246.068,401.864,251.6249,393.7325,246.9693,396.9459,243.7559,392.2904,246.068,401.864" style="stroke:#A80036;stroke-width:1.0;"/><!--MD5=[d53d7490e5836ca5709858d7326f212b]
link Company to ParameterCategoryStore--><path codeLine="28" d="M148.359,325.244 C163.245,346.518 182.325,373.787 198.879,397.446 " fill="none" id="Company-to-ParameterCategoryStore" style="stroke:#A80036;stroke-width:1.0;"/><polygon fill="#A80036" points="201.939,401.82,200.0584,392.1524,199.0732,397.7228,193.5028,396.7376,201.939,401.82" style="stroke:#A80036;stroke-width:1.0;"/><text fill="#000000" font-family="sans-serif" font-size="13" lengthAdjust="spacing" textLength="30" x="181" y="368.0669">uses</text><text fill="#000000" font-family="sans-serif" font-size="13" lengthAdjust="spacing" textLength="8" x="143.8966" y="344.765">1</text><text fill="#000000" font-family="sans-serif" font-size="13" lengthAdjust="spacing" textLength="8" x="188.5867" y="390.8399">1</text><!--MD5=[d6274e3b73b5bc8f467c6cfbf5bf003e]
link ParameterCategoryStore to ParameterCategory--><path codeLine="29" d="M236,501.398 C236,523.837 236,550.337 236,572.5909 " fill="none" id="ParameterCategoryStore-to-ParameterCategory" style="stroke:#A80036;stroke-width:1.0;"/><polygon fill="#A80036" points="236,577.8569,240,568.8569,236,572.8569,232,568.8569,236,577.8569" style="stroke:#A80036;stroke-width:1.0;"/><text fill="#000000" font-family="sans-serif" font-size="13" lengthAdjust="spacing" textLength="44" x="237" y="544.0669">adopts</text><text fill="#000000" font-family="sans-serif" font-size="13" lengthAdjust="spacing" textLength="8" x="227.4625" y="521.172">1</text><text fill="#000000" font-family="sans-serif" font-size="13" lengthAdjust="spacing" textLength="7" x="228.4422" y="566.8303">*</text><!--MD5=[e89910392054544064080e073d3198ab]
@startuml
'https://plantuml.com/class-diagram

class CreateParameterCategoryUI{
}
class CreateParameterCategoryController{
+saveParameterCategory()
+createParameterCategory(code, name)
}
class Company{
-designation
+getParameterCategory(code, name)
}
class ParameterCategoryStore{
+createParameterCategory(code, name)
+saveParameterCategory(pc)
+validateParameterCategory(pc)
+addParameterCategory(pc)
}

class ParameterCategory{
-code
-name
+ParameterCategory(code,name)
}
CreateParameterCategoryUI ..> CreateParameterCategoryController
CreateParameterCategoryController ..> Company
CreateParameterCategoryController ..> ParameterCategoryStore
Company "1" - -> "1" ParameterCategoryStore : uses
ParameterCategoryStore "1" - -> "*" ParameterCategory : adopts
@enduml

@startuml

class CreateParameterCategoryUI{
}
class CreateParameterCategoryController{
+saveParameterCategory()
+createParameterCategory(code, name)
}
class Company{
-designation
+getParameterCategory(code, name)
}
class ParameterCategoryStore{
+createParameterCategory(code, name)
+saveParameterCategory(pc)
+validateParameterCategory(pc)
+addParameterCategory(pc)
}

class ParameterCategory{
-code
-name
+ParameterCategory(code,name)
}
CreateParameterCategoryUI ..> CreateParameterCategoryController
CreateParameterCategoryController ..> Company
CreateParameterCategoryController ..> ParameterCategoryStore
Company "1" - -> "1" ParameterCategoryStore : uses
ParameterCategoryStore "1" - -> "*" ParameterCategory : adopts
@enduml

PlantUML version 1.2021.5(Sun Apr 25 11:20:28 UTC 2021)
(GPL source distribution)
Java Runtime: Java(TM) SE Runtime Environment
JVM: Java HotSpot(TM) 64-Bit Server VM
Default Encoding: UTF-8
Language: en
Country: US
--></g></svg>