<?xml version="1.0" encoding="UTF-8" standalone="no"?><svg xmlns="http://www.w3.org/2000/svg" xmlns:xlink="http://www.w3.org/1999/xlink" contentScriptType="application/ecmascript" contentStyleType="text/css" height="682px" preserveAspectRatio="none" style="width:365px;height:682px;" version="1.1" viewBox="0 0 365 682" width="365px" zoomAndPan="magnify"><defs><filter height="300%" id="fpoa7o5gtrkfw" width="300%" x="-1" y="-1"><feGaussianBlur result="blurOut" stdDeviation="2.0"/><feColorMatrix in="blurOut" result="blurOut2" type="matrix" values="0 0 0 0 0 0 0 0 0 0 0 0 0 0 0 0 0 0 .4 0"/><feOffset dx="4.0" dy="4.0" in="blurOut2" result="blurOut3"/><feBlend in="SourceGraphic" in2="blurOut3" mode="normal"/></filter></defs><g><!--MD5=[36afb6bbd95a8ac778c4537c55a683d5]
class ParameterCategory--><rect codeLine="4" fill="#FEFECE" filter="url(#fpoa7o5gtrkfw)" height="75.6719" id="ParameterCategory" style="stroke:#A80036;stroke-width:1.5;" width="139" x="21.5" y="571.5"/><ellipse cx="36.5" cy="587.5" fill="#ADD1B2" rx="11" ry="11" style="stroke:#A80036;stroke-width:1.0;"/><path d="M38.5,584 Q38.7031,583.5 38.9375,583.25 Q39.1719,583 39.4375,583 Q39.9063,583 40.2031,583.2813 Q40.5,583.5625 40.5,584.2188 L40.5,585.7813 Q40.5,586.4375 40.2188,586.7188 Q39.9375,587 39.5,587 Q39.1094,587 38.8594,586.8281 Q38.6094,586.6563 38.5,586.2031 Q38.4531,585.8906 38.2813,585.7188 Q37.9688,585.3906 37.4063,585.2031 Q36.8438,585 36.2813,585 Q35.5781,585 34.9844,585.2813 Q34.4063,585.5625 33.9531,586.1875 Q33.5,586.8125 33.5,587.6719 L33.5,588.5938 Q33.5,589.625 34.3438,590.3125 Q35.1875,591 36.6875,591 Q37.5781,591 38.2031,590.7969 Q38.5625,590.6875 38.9688,590.3281 Q39.2344,590.125 39.375,590.0625 Q39.5156,590 39.6875,590 Q40.0156,590 40.25,590.2656 Q40.5,590.5156 40.5,590.875 Q40.5,591.2188 40.1563,591.625 Q39.6563,592.2188 38.8594,592.5469 Q37.8125,593 36.5313,593 Q35.0313,593 33.8281,592.4063 Q32.8594,591.9375 32.1719,590.9219 Q31.5,589.9063 31.5,588.7031 L31.5,587.6094 Q31.5,586.3594 32.0938,585.2656 Q32.7031,584.1719 33.75,583.5938 Q34.8125,583 36,583 Q36.7188,583 37.3438,583.25 Q37.9688,583.5 38.5,584 Z " fill="#000000"/><text fill="#000000" font-family="sans-serif" font-size="12" lengthAdjust="spacing" textLength="107" x="50.5" y="592.4102">ParameterCategory</text><line style="stroke:#A80036;stroke-width:1.5;" x1="22.5" x2="159.5" y1="603.5" y2="603.5"/><text fill="#000000" font-family="sans-serif" font-size="11" lengthAdjust="spacing" textLength="106" x="27.5" y="618.9189">-String CategoryName</text><text fill="#000000" font-family="sans-serif" font-size="11" lengthAdjust="spacing" textLength="60" x="27.5" y="632.7549">-String Code</text><line style="stroke:#A80036;stroke-width:1.5;" x1="22.5" x2="159.5" y1="639.1719" y2="639.1719"/><!--MD5=[02e4b9b7573f1156f41e60aa5b4e25a4]
class Company--><rect codeLine="10" fill="#FEFECE" filter="url(#fpoa7o5gtrkfw)" height="75.6719" id="Company" style="stroke:#A80036;stroke-width:1.5;" width="116" x="101" y="265"/><ellipse cx="129.95" cy="281" fill="#ADD1B2" rx="11" ry="11" style="stroke:#A80036;stroke-width:1.0;"/><path d="M131.95,277.5 Q132.1531,277 132.3875,276.75 Q132.6219,276.5 132.8875,276.5 Q133.3563,276.5 133.6531,276.7813 Q133.95,277.0625 133.95,277.7188 L133.95,279.2813 Q133.95,279.9375 133.6688,280.2188 Q133.3875,280.5 132.95,280.5 Q132.5594,280.5 132.3094,280.3281 Q132.0594,280.1563 131.95,279.7031 Q131.9031,279.3906 131.7313,279.2188 Q131.4188,278.8906 130.8563,278.7031 Q130.2938,278.5 129.7313,278.5 Q129.0281,278.5 128.4344,278.7813 Q127.8562,279.0625 127.4031,279.6875 Q126.95,280.3125 126.95,281.1719 L126.95,282.0938 Q126.95,283.125 127.7937,283.8125 Q128.6375,284.5 130.1375,284.5 Q131.0281,284.5 131.6531,284.2969 Q132.0125,284.1875 132.4188,283.8281 Q132.6844,283.625 132.825,283.5625 Q132.9656,283.5 133.1375,283.5 Q133.4656,283.5 133.7,283.7656 Q133.95,284.0156 133.95,284.375 Q133.95,284.7188 133.6063,285.125 Q133.1063,285.7188 132.3094,286.0469 Q131.2625,286.5 129.9813,286.5 Q128.4813,286.5 127.2781,285.9063 Q126.3094,285.4375 125.6219,284.4219 Q124.95,283.4063 124.95,282.2031 L124.95,281.1094 Q124.95,279.8594 125.5437,278.7656 Q126.1531,277.6719 127.2,277.0938 Q128.2625,276.5 129.45,276.5 Q130.1688,276.5 130.7938,276.75 Q131.4188,277 131.95,277.5 Z " fill="#000000"/><text fill="#000000" font-family="sans-serif" font-size="12" lengthAdjust="spacing" textLength="53" x="147.05" y="285.9102">Company</text><line style="stroke:#A80036;stroke-width:1.5;" x1="102" x2="216" y1="297" y2="297"/><line style="stroke:#A80036;stroke-width:1.5;" x1="102" x2="216" y1="305" y2="305"/><text fill="#000000" font-family="sans-serif" font-size="11" lengthAdjust="spacing" textLength="90" x="107" y="320.4189">+getCategoryList()</text><text fill="#000000" font-family="sans-serif" font-size="11" lengthAdjust="spacing" textLength="104" x="107" y="334.2549">+getParameterStore()</text><!--MD5=[b9009a04d919d78a73c2eeec1e385786]
class CreateParameterController--><rect codeLine="15" fill="#FEFECE" filter="url(#fpoa7o5gtrkfw)" height="89.5078" id="CreateParameterController" style="stroke:#A80036;stroke-width:1.5;" width="274" x="77" y="115"/><ellipse cx="135.25" cy="131" fill="#ADD1B2" rx="11" ry="11" style="stroke:#A80036;stroke-width:1.0;"/><path d="M137.25,127.5 Q137.4531,127 137.6875,126.75 Q137.9219,126.5 138.1875,126.5 Q138.6563,126.5 138.9531,126.7813 Q139.25,127.0625 139.25,127.7188 L139.25,129.2813 Q139.25,129.9375 138.9688,130.2188 Q138.6875,130.5 138.25,130.5 Q137.8594,130.5 137.6094,130.3281 Q137.3594,130.1563 137.25,129.7031 Q137.2031,129.3906 137.0313,129.2188 Q136.7188,128.8906 136.1563,128.7031 Q135.5938,128.5 135.0313,128.5 Q134.3281,128.5 133.7344,128.7813 Q133.1563,129.0625 132.7031,129.6875 Q132.25,130.3125 132.25,131.1719 L132.25,132.0938 Q132.25,133.125 133.0938,133.8125 Q133.9375,134.5 135.4375,134.5 Q136.3281,134.5 136.9531,134.2969 Q137.3125,134.1875 137.7188,133.8281 Q137.9844,133.625 138.125,133.5625 Q138.2656,133.5 138.4375,133.5 Q138.7656,133.5 139,133.7656 Q139.25,134.0156 139.25,134.375 Q139.25,134.7188 138.9063,135.125 Q138.4063,135.7188 137.6094,136.0469 Q136.5625,136.5 135.2813,136.5 Q133.7813,136.5 132.5781,135.9063 Q131.6094,135.4375 130.9219,134.4219 Q130.25,133.4063 130.25,132.2031 L130.25,131.1094 Q130.25,129.8594 130.8438,128.7656 Q131.4531,127.6719 132.5,127.0938 Q133.5625,126.5 134.75,126.5 Q135.4688,126.5 136.0938,126.75 Q136.7188,127 137.25,127.5 Z " fill="#000000"/><text fill="#000000" font-family="sans-serif" font-size="12" lengthAdjust="spacing" textLength="149" x="155.75" y="135.9102">CreateParameterController</text><line style="stroke:#A80036;stroke-width:1.5;" x1="78" x2="350" y1="147" y2="147"/><line style="stroke:#A80036;stroke-width:1.5;" x1="78" x2="350" y1="155" y2="155"/><text fill="#000000" font-family="sans-serif" font-size="11" lengthAdjust="spacing" textLength="262" x="83" y="170.4189">+createParameter(code, description, NHSid, Category)</text><text fill="#000000" font-family="sans-serif" font-size="11" lengthAdjust="spacing" textLength="90" x="83" y="184.2549">+getCategoryList()</text><text fill="#000000" font-family="sans-serif" font-size="11" lengthAdjust="spacing" textLength="87" x="83" y="198.0908">+saveParameter()</text><!--MD5=[5518e6815e09c51d4db6e17774f331d2]
class CreateParameterUI--><rect codeLine="21" fill="#FEFECE" filter="url(#fpoa7o5gtrkfw)" height="48" id="CreateParameterUI" style="stroke:#A80036;stroke-width:1.5;" width="139" x="144.5" y="7"/><ellipse cx="159.5" cy="23" fill="#ADD1B2" rx="11" ry="11" style="stroke:#A80036;stroke-width:1.0;"/><path d="M161.5,19.5 Q161.7031,19 161.9375,18.75 Q162.1719,18.5 162.4375,18.5 Q162.9063,18.5 163.2031,18.7813 Q163.5,19.0625 163.5,19.7188 L163.5,21.2813 Q163.5,21.9375 163.2188,22.2188 Q162.9375,22.5 162.5,22.5 Q162.1094,22.5 161.8594,22.3281 Q161.6094,22.1563 161.5,21.7031 Q161.4531,21.3906 161.2813,21.2188 Q160.9688,20.8906 160.4063,20.7031 Q159.8438,20.5 159.2813,20.5 Q158.5781,20.5 157.9844,20.7813 Q157.4063,21.0625 156.9531,21.6875 Q156.5,22.3125 156.5,23.1719 L156.5,24.0938 Q156.5,25.125 157.3438,25.8125 Q158.1875,26.5 159.6875,26.5 Q160.5781,26.5 161.2031,26.2969 Q161.5625,26.1875 161.9688,25.8281 Q162.2344,25.625 162.375,25.5625 Q162.5156,25.5 162.6875,25.5 Q163.0156,25.5 163.25,25.7656 Q163.5,26.0156 163.5,26.375 Q163.5,26.7188 163.1563,27.125 Q162.6563,27.7188 161.8594,28.0469 Q160.8125,28.5 159.5313,28.5 Q158.0313,28.5 156.8281,27.9063 Q155.8594,27.4375 155.1719,26.4219 Q154.5,25.4063 154.5,24.2031 L154.5,23.1094 Q154.5,21.8594 155.0938,20.7656 Q155.7031,19.6719 156.75,19.0938 Q157.8125,18.5 159,18.5 Q159.7188,18.5 160.3438,18.75 Q160.9688,19 161.5,19.5 Z " fill="#000000"/><text fill="#000000" font-family="sans-serif" font-size="12" lengthAdjust="spacing" textLength="107" x="173.5" y="27.9102">CreateParameterUI</text><line style="stroke:#A80036;stroke-width:1.5;" x1="145.5" x2="282.5" y1="39" y2="39"/><line style="stroke:#A80036;stroke-width:1.5;" x1="145.5" x2="282.5" y1="47" y2="47"/><!--MD5=[d802db621b5b215a6f0466f93cefcb42]
class ParameterCategoryStore--><rect codeLine="24" fill="#FEFECE" filter="url(#fpoa7o5gtrkfw)" height="61.8359" id="ParameterCategoryStore" style="stroke:#A80036;stroke-width:1.5;" width="168" x="7" y="415"/><ellipse cx="22" cy="431" fill="#ADD1B2" rx="11" ry="11" style="stroke:#A80036;stroke-width:1.0;"/><path d="M24,427.5 Q24.2031,427 24.4375,426.75 Q24.6719,426.5 24.9375,426.5 Q25.4063,426.5 25.7031,426.7813 Q26,427.0625 26,427.7188 L26,429.2813 Q26,429.9375 25.7188,430.2188 Q25.4375,430.5 25,430.5 Q24.6094,430.5 24.3594,430.3281 Q24.1094,430.1563 24,429.7031 Q23.9531,429.3906 23.7813,429.2188 Q23.4688,428.8906 22.9063,428.7031 Q22.3438,428.5 21.7813,428.5 Q21.0781,428.5 20.4844,428.7813 Q19.9063,429.0625 19.4531,429.6875 Q19,430.3125 19,431.1719 L19,432.0938 Q19,433.125 19.8438,433.8125 Q20.6875,434.5 22.1875,434.5 Q23.0781,434.5 23.7031,434.2969 Q24.0625,434.1875 24.4688,433.8281 Q24.7344,433.625 24.875,433.5625 Q25.0156,433.5 25.1875,433.5 Q25.5156,433.5 25.75,433.7656 Q26,434.0156 26,434.375 Q26,434.7188 25.6563,435.125 Q25.1563,435.7188 24.3594,436.0469 Q23.3125,436.5 22.0313,436.5 Q20.5313,436.5 19.3281,435.9063 Q18.3594,435.4375 17.6719,434.4219 Q17,433.4063 17,432.2031 L17,431.1094 Q17,429.8594 17.5938,428.7656 Q18.2031,427.6719 19.25,427.0938 Q20.3125,426.5 21.5,426.5 Q22.2188,426.5 22.8438,426.75 Q23.4688,427 24,427.5 Z " fill="#000000"/><text fill="#000000" font-family="sans-serif" font-size="12" lengthAdjust="spacing" textLength="136" x="36" y="435.9102">ParameterCategoryStore</text><line style="stroke:#A80036;stroke-width:1.5;" x1="8" x2="174" y1="447" y2="447"/><line style="stroke:#A80036;stroke-width:1.5;" x1="8" x2="174" y1="455" y2="455"/><text fill="#000000" font-family="sans-serif" font-size="11" lengthAdjust="spacing" textLength="90" x="13" y="470.4189">+getCategoryList()</text><!--MD5=[be7802b157a16874d39c59ca0e2b25be]
class ParameterStore--><rect codeLine="28" fill="#FEFECE" filter="url(#fpoa7o5gtrkfw)" height="89.5078" id="ParameterStore" style="stroke:#A80036;stroke-width:1.5;" width="119" x="210.5" y="401"/><ellipse cx="225.5" cy="417" fill="#ADD1B2" rx="11" ry="11" style="stroke:#A80036;stroke-width:1.0;"/><path d="M227.5,413.5 Q227.7031,413 227.9375,412.75 Q228.1719,412.5 228.4375,412.5 Q228.9063,412.5 229.2031,412.7813 Q229.5,413.0625 229.5,413.7188 L229.5,415.2813 Q229.5,415.9375 229.2188,416.2188 Q228.9375,416.5 228.5,416.5 Q228.1094,416.5 227.8594,416.3281 Q227.6094,416.1563 227.5,415.7031 Q227.4531,415.3906 227.2813,415.2188 Q226.9688,414.8906 226.4063,414.7031 Q225.8438,414.5 225.2813,414.5 Q224.5781,414.5 223.9844,414.7813 Q223.4063,415.0625 222.9531,415.6875 Q222.5,416.3125 222.5,417.1719 L222.5,418.0938 Q222.5,419.125 223.3438,419.8125 Q224.1875,420.5 225.6875,420.5 Q226.5781,420.5 227.2031,420.2969 Q227.5625,420.1875 227.9688,419.8281 Q228.2344,419.625 228.375,419.5625 Q228.5156,419.5 228.6875,419.5 Q229.0156,419.5 229.25,419.7656 Q229.5,420.0156 229.5,420.375 Q229.5,420.7188 229.1563,421.125 Q228.6563,421.7188 227.8594,422.0469 Q226.8125,422.5 225.5313,422.5 Q224.0313,422.5 222.8281,421.9063 Q221.8594,421.4375 221.1719,420.4219 Q220.5,419.4063 220.5,418.2031 L220.5,417.1094 Q220.5,415.8594 221.0938,414.7656 Q221.7031,413.6719 222.75,413.0938 Q223.8125,412.5 225,412.5 Q225.7188,412.5 226.3438,412.75 Q226.9688,413 227.5,413.5 Z " fill="#000000"/><text fill="#000000" font-family="sans-serif" font-size="12" lengthAdjust="spacing" textLength="87" x="239.5" y="421.9102">ParameterStore</text><line style="stroke:#A80036;stroke-width:1.5;" x1="211.5" x2="328.5" y1="433" y2="433"/><line style="stroke:#A80036;stroke-width:1.5;" x1="211.5" x2="328.5" y1="441" y2="441"/><text fill="#000000" font-family="sans-serif" font-size="11" lengthAdjust="spacing" textLength="94" x="216.5" y="456.4189">+createParameter()</text><text fill="#000000" font-family="sans-serif" font-size="11" lengthAdjust="spacing" textLength="100" x="216.5" y="470.2549">+validateParameter()</text><text fill="#000000" font-family="sans-serif" font-size="11" lengthAdjust="spacing" textLength="87" x="216.5" y="484.0908">+saveParameter()</text><!--MD5=[1f6362a5c8f21d8d6a0fce68f3a92a4e]
class Parameter--><rect codeLine="33" fill="#FEFECE" filter="url(#fpoa7o5gtrkfw)" height="117.1797" id="Parameter" style="stroke:#A80036;stroke-width:1.5;" width="100" x="220" y="551"/><ellipse cx="239.5" cy="567" fill="#ADD1B2" rx="11" ry="11" style="stroke:#A80036;stroke-width:1.0;"/><path d="M241.5,563.5 Q241.7031,563 241.9375,562.75 Q242.1719,562.5 242.4375,562.5 Q242.9063,562.5 243.2031,562.7813 Q243.5,563.0625 243.5,563.7188 L243.5,565.2813 Q243.5,565.9375 243.2188,566.2188 Q242.9375,566.5 242.5,566.5 Q242.1094,566.5 241.8594,566.3281 Q241.6094,566.1563 241.5,565.7031 Q241.4531,565.3906 241.2813,565.2188 Q240.9688,564.8906 240.4063,564.7031 Q239.8438,564.5 239.2813,564.5 Q238.5781,564.5 237.9844,564.7813 Q237.4063,565.0625 236.9531,565.6875 Q236.5,566.3125 236.5,567.1719 L236.5,568.0938 Q236.5,569.125 237.3438,569.8125 Q238.1875,570.5 239.6875,570.5 Q240.5781,570.5 241.2031,570.2969 Q241.5625,570.1875 241.9688,569.8281 Q242.2344,569.625 242.375,569.5625 Q242.5156,569.5 242.6875,569.5 Q243.0156,569.5 243.25,569.7656 Q243.5,570.0156 243.5,570.375 Q243.5,570.7188 243.1563,571.125 Q242.6563,571.7188 241.8594,572.0469 Q240.8125,572.5 239.5313,572.5 Q238.0313,572.5 236.8281,571.9063 Q235.8594,571.4375 235.1719,570.4219 Q234.5,569.4063 234.5,568.2031 L234.5,567.1094 Q234.5,565.8594 235.0938,564.7656 Q235.7031,563.6719 236.75,563.0938 Q237.8125,562.5 239,562.5 Q239.7188,562.5 240.3438,562.75 Q240.9688,563 241.5,563.5 Z " fill="#000000"/><text fill="#000000" font-family="sans-serif" font-size="12" lengthAdjust="spacing" textLength="58" x="254.5" y="571.9102">Parameter</text><line style="stroke:#A80036;stroke-width:1.5;" x1="221" x2="319" y1="583" y2="583"/><text fill="#000000" font-family="sans-serif" font-size="11" lengthAdjust="spacing" textLength="59" x="226" y="598.4189">-String code</text><text fill="#000000" font-family="sans-serif" font-size="11" lengthAdjust="spacing" textLength="88" x="226" y="612.2549">-String description</text><text fill="#000000" font-family="sans-serif" font-size="11" lengthAdjust="spacing" textLength="64" x="226" y="626.0908">-String NHSid</text><text fill="#000000" font-family="sans-serif" font-size="11" lengthAdjust="spacing" textLength="75" x="226" y="639.9268">-CategoryName</text><line style="stroke:#A80036;stroke-width:1.5;" x1="221" x2="319" y1="646.3438" y2="646.3438"/><text fill="#000000" font-family="sans-serif" font-size="11" lengthAdjust="spacing" textLength="63" x="226" y="661.7627">+Parameter()</text><!--MD5=[9d3dd688f78c4545f26622cd23f9dd25]
link CreateParameterUI to CreateParameterController--><path codeLine="41" d="M214,55.29 C214,70.48 214,90.88 214,109.56 " fill="none" id="CreateParameterUI-to-CreateParameterController" style="stroke:#A80036;stroke-width:1.0;stroke-dasharray:7.0,7.0;"/><polygon fill="#A80036" points="214,114.78,218,105.78,214,109.78,210,105.78,214,114.78" style="stroke:#A80036;stroke-width:1.0;"/><!--MD5=[6d585fb02c26694275539b4f1508918e]
link CreateParameterController to Company--><path codeLine="43" d="M196.75,205.23 C189.95,222.65 182.18,242.57 175.47,259.79 " fill="none" id="CreateParameterController-to-Company" style="stroke:#A80036;stroke-width:1.0;stroke-dasharray:7.0,7.0;"/><polygon fill="#A80036" points="173.6,264.57,180.5941,257.6359,175.415,259.9111,173.1398,254.7319,173.6,264.57" style="stroke:#A80036;stroke-width:1.0;"/><!--MD5=[46706d5726812879537e05899d80bc9e]
link CreateParameterController to ParameterStore--><path codeLine="44" d="M222.69,205.06 C232.87,256.68 249.68,341.97 260.28,395.73 " fill="none" id="CreateParameterController-to-ParameterStore" style="stroke:#A80036;stroke-width:1.0;stroke-dasharray:7.0,7.0;"/><polygon fill="#A80036" points="261.29,400.83,263.4634,391.224,260.3177,395.9255,255.6162,392.7797,261.29,400.83" style="stroke:#A80036;stroke-width:1.0;"/><!--MD5=[d53d7490e5836ca5709858d7326f212b]
link Company to ParameterCategoryStore--><path codeLine="46" d="M141.13,341.05 C130.04,364.06 115.96,393.25 105.54,414.84 " fill="none" id="Company-ParameterCategoryStore" style="stroke:#A80036;stroke-width:1.0;"/><!--MD5=[daf3d7412afa2c7651483be0b6e971d1]
link Company to ParameterStore--><path codeLine="47" d="M188.16,341.05 C202.62,359.4 220.17,381.7 235.31,400.93 " fill="none" id="Company-ParameterStore" style="stroke:#A80036;stroke-width:1.0;"/><!--MD5=[a0992dda039fed1bb57aff5aacace800]
link ParameterStore to Parameter--><path codeLine="49" d="M270,491.13 C270,509.53 270,531.15 270,550.78 " fill="none" id="ParameterStore-Parameter" style="stroke:#A80036;stroke-width:1.0;"/><!--MD5=[d6274e3b73b5bc8f467c6cfbf5bf003e]
link ParameterCategoryStore to ParameterCategory--><path codeLine="51" d="M91,477.38 C91,504.06 91,542.95 91,571.45 " fill="none" id="ParameterCategoryStore-ParameterCategory" style="stroke:#A80036;stroke-width:1.0;"/><!--MD5=[2a3468a077f262f02c123e8caa58415b]
@startuml
skinparam classAttributeIconSize 0


class ParameterCategory {
  -String CategoryName
  -String Code
}


class Company{
+getCategoryList()
+getParameterStore()
}

class CreateParameterController {
+createParameter(code, description, NHSid, Category)
+getCategoryList()
+saveParameter()
}

class CreateParameterUI{
}

class ParameterCategoryStore{
+getCategoryList()
}

class ParameterStore{
+createParameter()
+validateParameter()
+saveParameter()
}
class Parameter{
-String code
-String description
-String NHSid
-CategoryName
+Parameter()
}

CreateParameterUI ..> CreateParameterController

CreateParameterController ..> Company
CreateParameterController ..> ParameterStore

Company - - ParameterCategoryStore
Company - - ParameterStore

ParameterStore - - Parameter

ParameterCategoryStore - - ParameterCategory





@enduml

PlantUML version 1.2021.4(Sun Apr 04 09:49:39 BST 2021)
(GPL source distribution)
Java Runtime: OpenJDK Runtime Environment
JVM: OpenJDK 64-Bit Server VM
Default Encoding: Cp1252
Language: en
Country: US
--></g></svg>