<?xml version="1.0" encoding="UTF-8" standalone="no"?><svg xmlns="http://www.w3.org/2000/svg" xmlns:xlink="http://www.w3.org/1999/xlink" contentScriptType="application/ecmascript" contentStyleType="text/css" height="681px" preserveAspectRatio="none" style="width:328px;height:681px;" version="1.1" viewBox="0 0 328 681" width="328px" zoomAndPan="magnify"><defs><filter height="300%" id="f13mkdwajhnwb1" width="300%" x="-1" y="-1"><feGaussianBlur result="blurOut" stdDeviation="2.0"/><feColorMatrix in="blurOut" result="blurOut2" type="matrix" values="0 0 0 0 0 0 0 0 0 0 0 0 0 0 0 0 0 0 .4 0"/><feOffset dx="4.0" dy="4.0" in="blurOut2" result="blurOut3"/><feBlend in="SourceGraphic" in2="blurOut3" mode="normal"/></filter></defs><g><!--MD5=[6017f56a87b244e108fd0d8749edd53c]
class CreateParameterCategoryUI--><rect codeLine="3" fill="#FEFECE" filter="url(#f13mkdwajhnwb1)" height="48" id="CreateParameterCategoryUI" style="stroke:#A80036;stroke-width:1.5;" width="188" x="79" y="7"/><ellipse cx="94" cy="23" fill="#ADD1B2" rx="11" ry="11" style="stroke:#A80036;stroke-width:1.0;"/><path d="M96,19.5 Q96.2031,19 96.4375,18.75 Q96.6719,18.5 96.9375,18.5 Q97.4063,18.5 97.7031,18.7813 Q98,19.0625 98,19.7188 L98,21.2813 Q98,21.9375 97.7188,22.2188 Q97.4375,22.5 97,22.5 Q96.6094,22.5 96.3594,22.3281 Q96.1094,22.1563 96,21.7031 Q95.9531,21.3906 95.7813,21.2188 Q95.4688,20.8906 94.9063,20.7031 Q94.3438,20.5 93.7813,20.5 Q93.0781,20.5 92.4844,20.7813 Q91.9063,21.0625 91.4531,21.6875 Q91,22.3125 91,23.1719 L91,24.0938 Q91,25.125 91.8438,25.8125 Q92.6875,26.5 94.1875,26.5 Q95.0781,26.5 95.7031,26.2969 Q96.0625,26.1875 96.4688,25.8281 Q96.7344,25.625 96.875,25.5625 Q97.0156,25.5 97.1875,25.5 Q97.5156,25.5 97.75,25.7656 Q98,26.0156 98,26.375 Q98,26.7188 97.6563,27.125 Q97.1563,27.7188 96.3594,28.0469 Q95.3125,28.5 94.0313,28.5 Q92.5313,28.5 91.3281,27.9063 Q90.3594,27.4375 89.6719,26.4219 Q89,25.4063 89,24.2031 L89,23.1094 Q89,21.8594 89.5938,20.7656 Q90.2031,19.6719 91.25,19.0938 Q92.3125,18.5 93.5,18.5 Q94.2188,18.5 94.8438,18.75 Q95.4688,19 96,19.5 Z " fill="#000000"/><text fill="#000000" font-family="sans-serif" font-size="12" lengthAdjust="spacing" textLength="156" x="108" y="27.9102">CreateParameterCategoryUI</text><line style="stroke:#A80036;stroke-width:1.5;" x1="80" x2="266" y1="39" y2="39"/><line style="stroke:#A80036;stroke-width:1.5;" x1="80" x2="266" y1="47" y2="47"/><!--MD5=[43bb81d93caae6cc68206df5797cd1c4]
class CreateParameterCategoryController--><rect codeLine="6" fill="#FEFECE" filter="url(#f13mkdwajhnwb1)" height="75.6719" id="CreateParameterCategoryController" style="stroke:#A80036;stroke-width:1.5;" width="282" x="32" y="115"/><ellipse cx="70.4" cy="131" fill="#ADD1B2" rx="11" ry="11" style="stroke:#A80036;stroke-width:1.0;"/><path d="M72.4,127.5 Q72.6031,127 72.8375,126.75 Q73.0719,126.5 73.3375,126.5 Q73.8063,126.5 74.1031,126.7813 Q74.4,127.0625 74.4,127.7188 L74.4,129.2813 Q74.4,129.9375 74.1188,130.2188 Q73.8375,130.5 73.4,130.5 Q73.0094,130.5 72.7594,130.3281 Q72.5094,130.1563 72.4,129.7031 Q72.3531,129.3906 72.1813,129.2188 Q71.8688,128.8906 71.3063,128.7031 Q70.7438,128.5 70.1813,128.5 Q69.4781,128.5 68.8844,128.7813 Q68.3063,129.0625 67.8531,129.6875 Q67.4,130.3125 67.4,131.1719 L67.4,132.0938 Q67.4,133.125 68.2438,133.8125 Q69.0875,134.5 70.5875,134.5 Q71.4781,134.5 72.1031,134.2969 Q72.4625,134.1875 72.8688,133.8281 Q73.1344,133.625 73.275,133.5625 Q73.4156,133.5 73.5875,133.5 Q73.9156,133.5 74.15,133.7656 Q74.4,134.0156 74.4,134.375 Q74.4,134.7188 74.0563,135.125 Q73.5563,135.7188 72.7594,136.0469 Q71.7125,136.5 70.4313,136.5 Q68.9313,136.5 67.7281,135.9063 Q66.7594,135.4375 66.0719,134.4219 Q65.4,133.4063 65.4,132.2031 L65.4,131.1094 Q65.4,129.8594 65.9938,128.7656 Q66.6031,127.6719 67.65,127.0938 Q68.7125,126.5 69.9,126.5 Q70.6188,126.5 71.2438,126.75 Q71.8688,127 72.4,127.5 Z " fill="#000000"/><text fill="#000000" font-family="sans-serif" font-size="12" lengthAdjust="spacing" textLength="198" x="89.6" y="135.9102">CreateParameterCategoryController</text><line style="stroke:#A80036;stroke-width:1.5;" x1="33" x2="313" y1="147" y2="147"/><line style="stroke:#A80036;stroke-width:1.5;" x1="33" x2="313" y1="155" y2="155"/><ellipse cx="43" cy="166" fill="#84BE84" rx="3" ry="3" style="stroke:#038048;stroke-width:1.0;"/><text fill="#000000" font-family="sans-serif" font-size="11" lengthAdjust="spacing" textLength="81" x="52" y="170.4189">saveParameter()</text><ellipse cx="43" cy="179.8359" fill="#84BE84" rx="3" ry="3" style="stroke:#038048;stroke-width:1.0;"/><text fill="#000000" font-family="sans-serif" font-size="11" lengthAdjust="spacing" textLength="256" x="52" y="184.2549">createParameter(code, description, NHSid, Category)</text><!--MD5=[02e4b9b7573f1156f41e60aa5b4e25a4]
class Company--><rect codeLine="11" fill="#FEFECE" filter="url(#f13mkdwajhnwb1)" height="75.6719" id="Company" style="stroke:#A80036;stroke-width:1.5;" width="124" x="54" y="251"/><ellipse cx="86.55" cy="267" fill="#ADD1B2" rx="11" ry="11" style="stroke:#A80036;stroke-width:1.0;"/><path d="M88.55,263.5 Q88.7531,263 88.9875,262.75 Q89.2219,262.5 89.4875,262.5 Q89.9563,262.5 90.2531,262.7813 Q90.55,263.0625 90.55,263.7188 L90.55,265.2813 Q90.55,265.9375 90.2688,266.2188 Q89.9875,266.5 89.55,266.5 Q89.1594,266.5 88.9094,266.3281 Q88.6594,266.1563 88.55,265.7031 Q88.5031,265.3906 88.3313,265.2188 Q88.0188,264.8906 87.4563,264.7031 Q86.8938,264.5 86.3313,264.5 Q85.6281,264.5 85.0344,264.7813 Q84.4563,265.0625 84.0031,265.6875 Q83.55,266.3125 83.55,267.1719 L83.55,268.0938 Q83.55,269.125 84.3938,269.8125 Q85.2375,270.5 86.7375,270.5 Q87.6281,270.5 88.2531,270.2969 Q88.6125,270.1875 89.0188,269.8281 Q89.2844,269.625 89.425,269.5625 Q89.5656,269.5 89.7375,269.5 Q90.0656,269.5 90.3,269.7656 Q90.55,270.0156 90.55,270.375 Q90.55,270.7188 90.2063,271.125 Q89.7063,271.7188 88.9094,272.0469 Q87.8625,272.5 86.5813,272.5 Q85.0813,272.5 83.8781,271.9063 Q82.9094,271.4375 82.2219,270.4219 Q81.55,269.4063 81.55,268.2031 L81.55,267.1094 Q81.55,265.8594 82.1438,264.7656 Q82.7531,263.6719 83.8,263.0938 Q84.8625,262.5 86.05,262.5 Q86.7688,262.5 87.3938,262.75 Q88.0188,263 88.55,263.5 Z " fill="#000000"/><text fill="#000000" font-family="sans-serif" font-size="12" lengthAdjust="spacing" textLength="53" x="104.45" y="271.9102">Company</text><line style="stroke:#A80036;stroke-width:1.5;" x1="55" x2="177" y1="283" y2="283"/><rect fill="none" height="6" style="stroke:#C82930;stroke-width:1.0;" width="6" x="62" y="291"/><text fill="#000000" font-family="sans-serif" font-size="11" lengthAdjust="spacing" textLength="55" x="74" y="298.4189">designation</text><line style="stroke:#A80036;stroke-width:1.5;" x1="55" x2="177" y1="304.8359" y2="304.8359"/><ellipse cx="65" cy="315.8359" fill="#84BE84" rx="3" ry="3" style="stroke:#038048;stroke-width:1.0;"/><text fill="#000000" font-family="sans-serif" font-size="11" lengthAdjust="spacing" textLength="98" x="74" y="320.2549">getParameterStore()</text><!--MD5=[be7802b157a16874d39c59ca0e2b25be]
class ParameterStore--><rect codeLine="17" fill="#FEFECE" filter="url(#f13mkdwajhnwb1)" height="117.1797" id="ParameterStore" style="stroke:#A80036;stroke-width:1.5;" width="214" x="66" y="387"/><ellipse cx="125.25" cy="403" fill="#ADD1B2" rx="11" ry="11" style="stroke:#A80036;stroke-width:1.0;"/><path d="M127.25,399.5 Q127.4531,399 127.6875,398.75 Q127.9219,398.5 128.1875,398.5 Q128.6563,398.5 128.9531,398.7813 Q129.25,399.0625 129.25,399.7188 L129.25,401.2813 Q129.25,401.9375 128.9688,402.2188 Q128.6875,402.5 128.25,402.5 Q127.8594,402.5 127.6094,402.3281 Q127.3594,402.1563 127.25,401.7031 Q127.2031,401.3906 127.0313,401.2188 Q126.7188,400.8906 126.1563,400.7031 Q125.5938,400.5 125.0313,400.5 Q124.3281,400.5 123.7344,400.7813 Q123.1563,401.0625 122.7031,401.6875 Q122.25,402.3125 122.25,403.1719 L122.25,404.0938 Q122.25,405.125 123.0938,405.8125 Q123.9375,406.5 125.4375,406.5 Q126.3281,406.5 126.9531,406.2969 Q127.3125,406.1875 127.7188,405.8281 Q127.9844,405.625 128.125,405.5625 Q128.2656,405.5 128.4375,405.5 Q128.7656,405.5 129,405.7656 Q129.25,406.0156 129.25,406.375 Q129.25,406.7188 128.9063,407.125 Q128.4063,407.7188 127.6094,408.0469 Q126.5625,408.5 125.2813,408.5 Q123.7813,408.5 122.5781,407.9063 Q121.6094,407.4375 120.9219,406.4219 Q120.25,405.4063 120.25,404.2031 L120.25,403.1094 Q120.25,401.8594 120.8438,400.7656 Q121.4531,399.6719 122.5,399.0938 Q123.5625,398.5 124.75,398.5 Q125.4688,398.5 126.0938,398.75 Q126.7188,399 127.25,399.5 Z " fill="#000000"/><text fill="#000000" font-family="sans-serif" font-size="12" lengthAdjust="spacing" textLength="87" x="145.75" y="407.9102">ParameterStore</text><line style="stroke:#A80036;stroke-width:1.5;" x1="67" x2="279" y1="419" y2="419"/><rect fill="none" height="6" style="stroke:#C82930;stroke-width:1.0;" width="6" x="74" y="427"/><text fill="#000000" font-family="sans-serif" font-size="11" lengthAdjust="spacing" textLength="59" x="86" y="434.4189">getCategory</text><line style="stroke:#A80036;stroke-width:1.5;" x1="67" x2="279" y1="440.8359" y2="440.8359"/><ellipse cx="77" cy="451.8359" fill="#84BE84" rx="3" ry="3" style="stroke:#038048;stroke-width:1.0;"/><text fill="#000000" font-family="sans-serif" font-size="11" lengthAdjust="spacing" textLength="188" x="86" y="456.2549">createParameterCategory(code, name)</text><ellipse cx="77" cy="465.6719" fill="#84BE84" rx="3" ry="3" style="stroke:#038048;stroke-width:1.0;"/><text fill="#000000" font-family="sans-serif" font-size="11" lengthAdjust="spacing" textLength="137" x="86" y="470.0908">saveParameterCategory(pc)</text><ellipse cx="77" cy="479.5078" fill="#84BE84" rx="3" ry="3" style="stroke:#038048;stroke-width:1.0;"/><text fill="#000000" font-family="sans-serif" font-size="11" lengthAdjust="spacing" textLength="150" x="86" y="483.9268">validateParameterCategory(pc)</text><ellipse cx="77" cy="493.3438" fill="#84BE84" rx="3" ry="3" style="stroke:#038048;stroke-width:1.0;"/><text fill="#000000" font-family="sans-serif" font-size="11" lengthAdjust="spacing" textLength="131" x="86" y="497.7627">addParameterCategory(pc)</text><!--MD5=[d802db621b5b215a6f0466f93cefcb42]
class ParameterCategoryStore--><rect codeLine="25" fill="#FEFECE" filter="url(#f13mkdwajhnwb1)" height="48" id="ParameterCategoryStore" style="stroke:#A80036;stroke-width:1.5;" width="168" x="7" y="591.5"/><ellipse cx="22" cy="607.5" fill="#ADD1B2" rx="11" ry="11" style="stroke:#A80036;stroke-width:1.0;"/><path d="M24,604 Q24.2031,603.5 24.4375,603.25 Q24.6719,603 24.9375,603 Q25.4063,603 25.7031,603.2813 Q26,603.5625 26,604.2188 L26,605.7813 Q26,606.4375 25.7188,606.7188 Q25.4375,607 25,607 Q24.6094,607 24.3594,606.8281 Q24.1094,606.6563 24,606.2031 Q23.9531,605.8906 23.7813,605.7188 Q23.4688,605.3906 22.9063,605.2031 Q22.3438,605 21.7813,605 Q21.0781,605 20.4844,605.2813 Q19.9063,605.5625 19.4531,606.1875 Q19,606.8125 19,607.6719 L19,608.5938 Q19,609.625 19.8438,610.3125 Q20.6875,611 22.1875,611 Q23.0781,611 23.7031,610.7969 Q24.0625,610.6875 24.4688,610.3281 Q24.7344,610.125 24.875,610.0625 Q25.0156,610 25.1875,610 Q25.5156,610 25.75,610.2656 Q26,610.5156 26,610.875 Q26,611.2188 25.6563,611.625 Q25.1563,612.2188 24.3594,612.5469 Q23.3125,613 22.0313,613 Q20.5313,613 19.3281,612.4063 Q18.3594,611.9375 17.6719,610.9219 Q17,609.9063 17,608.7031 L17,607.6094 Q17,606.3594 17.5938,605.2656 Q18.2031,604.1719 19.25,603.5938 Q20.3125,603 21.5,603 Q22.2188,603 22.8438,603.25 Q23.4688,603.5 24,604 Z " fill="#000000"/><text fill="#000000" font-family="sans-serif" font-size="12" lengthAdjust="spacing" textLength="136" x="36" y="612.4102">ParameterCategoryStore</text><line style="stroke:#A80036;stroke-width:1.5;" x1="8" x2="174" y1="623.5" y2="623.5"/><line style="stroke:#A80036;stroke-width:1.5;" x1="8" x2="174" y1="631.5" y2="631.5"/><!--MD5=[1f6362a5c8f21d8d6a0fce68f3a92a4e]
class Parameter--><rect codeLine="28" fill="#FEFECE" filter="url(#f13mkdwajhnwb1)" height="103.3438" id="Parameter" style="stroke:#A80036;stroke-width:1.5;" width="90" x="210" y="564"/><ellipse cx="225" cy="580" fill="#ADD1B2" rx="11" ry="11" style="stroke:#A80036;stroke-width:1.0;"/><path d="M227,576.5 Q227.2031,576 227.4375,575.75 Q227.6719,575.5 227.9375,575.5 Q228.4063,575.5 228.7031,575.7813 Q229,576.0625 229,576.7188 L229,578.2813 Q229,578.9375 228.7188,579.2188 Q228.4375,579.5 228,579.5 Q227.6094,579.5 227.3594,579.3281 Q227.1094,579.1563 227,578.7031 Q226.9531,578.3906 226.7813,578.2188 Q226.4688,577.8906 225.9063,577.7031 Q225.3438,577.5 224.7813,577.5 Q224.0781,577.5 223.4844,577.7813 Q222.9063,578.0625 222.4531,578.6875 Q222,579.3125 222,580.1719 L222,581.0938 Q222,582.125 222.8438,582.8125 Q223.6875,583.5 225.1875,583.5 Q226.0781,583.5 226.7031,583.2969 Q227.0625,583.1875 227.4688,582.8281 Q227.7344,582.625 227.875,582.5625 Q228.0156,582.5 228.1875,582.5 Q228.5156,582.5 228.75,582.7656 Q229,583.0156 229,583.375 Q229,583.7188 228.6563,584.125 Q228.1563,584.7188 227.3594,585.0469 Q226.3125,585.5 225.0313,585.5 Q223.5313,585.5 222.3281,584.9063 Q221.3594,584.4375 220.6719,583.4219 Q220,582.4063 220,581.2031 L220,580.1094 Q220,578.8594 220.5938,577.7656 Q221.2031,576.6719 222.25,576.0938 Q223.3125,575.5 224.5,575.5 Q225.2188,575.5 225.8438,575.75 Q226.4688,576 227,576.5 Z " fill="#000000"/><text fill="#000000" font-family="sans-serif" font-size="12" lengthAdjust="spacing" textLength="58" x="239" y="584.9102">Parameter</text><line style="stroke:#A80036;stroke-width:1.5;" x1="211" x2="299" y1="596" y2="596"/><rect fill="none" height="6" style="stroke:#C82930;stroke-width:1.0;" width="6" x="218" y="604"/><text fill="#000000" font-family="sans-serif" font-size="11" lengthAdjust="spacing" textLength="24" x="230" y="611.4189">code</text><rect fill="none" height="6" style="stroke:#C82930;stroke-width:1.0;" width="6" x="218" y="617.8359"/><text fill="#000000" font-family="sans-serif" font-size="11" lengthAdjust="spacing" textLength="53" x="230" y="625.2549">description</text><rect fill="none" height="6" style="stroke:#C82930;stroke-width:1.0;" width="6" x="218" y="631.6719"/><text fill="#000000" font-family="sans-serif" font-size="11" lengthAdjust="spacing" textLength="29" x="230" y="639.0908">NHSid</text><rect fill="none" height="6" style="stroke:#C82930;stroke-width:1.0;" width="6" x="218" y="645.5078"/><text fill="#000000" font-family="sans-serif" font-size="11" lengthAdjust="spacing" textLength="44" x="230" y="652.9268">Category</text><line style="stroke:#A80036;stroke-width:1.5;" x1="211" x2="299" y1="659.3438" y2="659.3438"/><!--MD5=[97eec42b9db3b75f38564f4e0635d9dc]
link ParameterStore to ParameterCategoryStore--><path codeLine="34" d="M144.78,504.32 C131.2,532.14 115.54,564.22 104.63,586.57 " fill="none" id="ParameterStore-to-ParameterCategoryStore" style="stroke:#A80036;stroke-width:1.0;stroke-dasharray:7.0,7.0;"/><polygon fill="#A80036" points="102.38,591.18,109.9264,584.8514,104.5761,586.6881,102.7394,581.3377,102.38,591.18" style="stroke:#A80036;stroke-width:1.0;"/><!--MD5=[daf3d7412afa2c7651483be0b6e971d1]
link Company to ParameterStore--><path codeLine="35" d="M129.65,327.01 C135.76,343.55 143.12,363.51 150.03,382.24 " fill="none" id="Company-to-ParameterStore" style="stroke:#A80036;stroke-width:1.0;"/><polygon fill="#A80036" points="151.78,386.97,152.4276,377.1425,150.0541,382.2773,144.9193,379.9039,151.78,386.97" style="stroke:#A80036;stroke-width:1.0;"/><!--MD5=[93b1b9218398b0464d36d46d0f539949]
link CreateParameterCategoryUI to CreateParameterCategoryController--><path codeLine="36" d="M173,55.14 C173,70.58 173,91.33 173,109.67 " fill="none" id="CreateParameterCategoryUI-to-CreateParameterCategoryController" style="stroke:#A80036;stroke-width:1.0;stroke-dasharray:7.0,7.0;"/><polygon fill="#A80036" points="173,114.77,177,105.77,173,109.77,169,105.77,173,114.77" style="stroke:#A80036;stroke-width:1.0;"/><!--MD5=[a00c31f7a5d66db29f7adf0293377a3b]
link CreateParameterCategoryController to Company--><path codeLine="37" d="M157.12,191.33 C149.9,208.31 141.31,228.49 133.86,246.01 " fill="none" id="CreateParameterCategoryController-to-Company" style="stroke:#A80036;stroke-width:1.0;stroke-dasharray:7.0,7.0;"/><polygon fill="#A80036" points="131.79,250.87,138.9942,244.1544,133.7475,246.2691,131.6328,241.0224,131.79,250.87" style="stroke:#A80036;stroke-width:1.0;"/><!--MD5=[ea01db65e63531a52ee1490d82c8de3d]
link CreateParameterCategoryController to ParameterStore--><path codeLine="38" d="M184.02,191.41 C188.73,209.27 193.67,231.06 196,251 C199.92,284.55 199.26,293.38 196,327 C194.26,344.97 191.05,364.26 187.57,381.92 " fill="none" id="CreateParameterCategoryController-to-ParameterStore" style="stroke:#A80036;stroke-width:1.0;stroke-dasharray:7.0,7.0;"/><polygon fill="#A80036" points="186.59,386.86,192.2864,378.8256,187.5761,381.9582,184.4435,377.2479,186.59,386.86" style="stroke:#A80036;stroke-width:1.0;"/><!--MD5=[a0992dda039fed1bb57aff5aacace800]
link ParameterStore to Parameter--><path codeLine="39" d="M201.22,504.32 C209.86,522.01 219.34,541.44 227.9,558.98 " fill="none" id="ParameterStore-to-Parameter" style="stroke:#A80036;stroke-width:1.0;stroke-dasharray:7.0,7.0;"/><polygon fill="#A80036" points="230.29,563.87,229.9306,554.0277,228.0939,559.3781,222.7436,557.5414,230.29,563.87" style="stroke:#A80036;stroke-width:1.0;"/><!--MD5=[96694cef4544805530d4f86d2c97be3b]
@startuml
'https://plantuml.com/class-diagram

class CreateParameterCategoryUI{
}

class CreateParameterCategoryController{
+saveParameter()
+createParameter(code, description, NHSid, Category)
}

class Company{
-designation
+getParameterStore()
}


class ParameterStore{
+createParameterCategory(code, name)
+saveParameterCategory(pc)
+validateParameterCategory(pc)
+addParameterCategory(pc)
-getCategory
}

class ParameterCategoryStore{
}

class Parameter{
-code
-description
-NHSid
-Category
}
ParameterStore ..> ParameterCategoryStore
Company - -> ParameterStore
CreateParameterCategoryUI ..> CreateParameterCategoryController
CreateParameterCategoryController ..> Company
CreateParameterCategoryController ..> ParameterStore
ParameterStore ..> Parameter









@enduml

@startuml

class CreateParameterCategoryUI{
}

class CreateParameterCategoryController{
+saveParameter()
+createParameter(code, description, NHSid, Category)
}

class Company{
-designation
+getParameterStore()
}


class ParameterStore{
+createParameterCategory(code, name)
+saveParameterCategory(pc)
+validateParameterCategory(pc)
+addParameterCategory(pc)
-getCategory
}

class ParameterCategoryStore{
}

class Parameter{
-code
-description
-NHSid
-Category
}
ParameterStore ..> ParameterCategoryStore
Company - -> ParameterStore
CreateParameterCategoryUI ..> CreateParameterCategoryController
CreateParameterCategoryController ..> Company
CreateParameterCategoryController ..> ParameterStore
ParameterStore ..> Parameter









@enduml

PlantUML version 1.2021.4(Sun Apr 04 09:49:39 BST 2021)
(GPL source distribution)
Java Runtime: OpenJDK Runtime Environment
JVM: Dynamic Code Evolution 64-Bit Server VM
Default Encoding: Cp1252
Language: pt
Country: PT
--></g></svg>