<?xml version="1.0" encoding="UTF-8" standalone="no"?><svg xmlns="http://www.w3.org/2000/svg" xmlns:xlink="http://www.w3.org/1999/xlink" contentScriptType="application/ecmascript" contentStyleType="text/css" height="1125px" preserveAspectRatio="none" style="width:645px;height:1125px;" version="1.1" viewBox="0 0 645 1125" width="645px" zoomAndPan="magnify"><defs><filter height="300%" id="f1fe83zvag9dgt" width="300%" x="-1" y="-1"><feGaussianBlur result="blurOut" stdDeviation="2.5"/><feColorMatrix in="blurOut" result="blurOut2" type="matrix" values="0 0 0 0 0 0 0 0 0 0 0 0 0 0 0 0 0 0 .4 0"/><feOffset dx="5.0" dy="5.0" in="blurOut2" result="blurOut3"/><feBlend in="SourceGraphic" in2="blurOut3" mode="normal"/></filter></defs><g><!--MD5=[36afb6bbd95a8ac778c4537c55a683d5]
class ParameterCategory--><rect codeLine="2" fill="#FEFECE" filter="url(#f1fe83zvag9dgt)" height="94.5898" id="ParameterCategory" style="stroke:#A80036;stroke-width:1.875;" width="173.75" x="151.4625" y="1013.75"/><ellipse cx="170.2125" cy="1033.75" fill="#ADD1B2" rx="13.75" ry="13.75" style="stroke:#A80036;stroke-width:1.25;"/><path d="M172.7125,1029.375 Q172.9664,1028.75 173.2594,1028.4375 Q173.5523,1028.125 173.8844,1028.125 Q174.4703,1028.125 174.8414,1028.4766 Q175.2125,1028.8281 175.2125,1029.6484 L175.2125,1031.6016 Q175.2125,1032.4219 174.8609,1032.7734 Q174.5094,1033.125 173.9625,1033.125 Q173.4742,1033.125 173.1617,1032.9102 Q172.8492,1032.6953 172.7125,1032.1289 Q172.6539,1031.7383 172.4391,1031.5234 Q172.0484,1031.1133 171.3453,1030.8789 Q170.6422,1030.625 169.9391,1030.625 Q169.0602,1030.625 168.318,1030.9766 Q167.5953,1031.3281 167.0289,1032.1094 Q166.4625,1032.8906 166.4625,1033.9648 L166.4625,1035.1172 Q166.4625,1036.4063 167.5172,1037.2656 Q168.5719,1038.125 170.4469,1038.125 Q171.5602,1038.125 172.3414,1037.8711 Q172.7906,1037.7344 173.2984,1037.2852 Q173.6305,1037.0313 173.8063,1036.9531 Q173.982,1036.875 174.1969,1036.875 Q174.607,1036.875 174.9,1037.207 Q175.2125,1037.5195 175.2125,1037.9688 Q175.2125,1038.3984 174.7828,1038.9063 Q174.1578,1039.6484 173.1617,1040.0586 Q171.8531,1040.625 170.2516,1040.625 Q168.3766,1040.625 166.8727,1039.8828 Q165.6617,1039.2969 164.8023,1038.0273 Q163.9625,1036.7578 163.9625,1035.2539 L163.9625,1033.8867 Q163.9625,1032.3242 164.7047,1030.957 Q165.4664,1029.5898 166.775,1028.8672 Q168.1031,1028.125 169.5875,1028.125 Q170.4859,1028.125 171.2672,1028.4375 Q172.0484,1028.75 172.7125,1029.375 Z " fill="#000000"/><text fill="#000000" font-family="sans-serif" font-size="15" lengthAdjust="spacing" textLength="133.75" x="187.7125" y="1039.8877">ParameterCategory</text><line style="stroke:#A80036;stroke-width:1.875;" x1="152.7125" x2="323.9625" y1="1053.75" y2="1053.75"/><rect fill="none" height="7.5" style="stroke:#C82930;stroke-width:1.25;" width="7.5" x="161.4625" y="1063.75"/><text fill="#000000" font-family="sans-serif" font-size="13.75" lengthAdjust="spacing" textLength="127.5" x="176.4625" y="1073.0237">String CategoryName</text><rect fill="none" height="7.5" style="stroke:#C82930;stroke-width:1.25;" width="7.5" x="161.4625" y="1081.0449"/><text fill="#000000" font-family="sans-serif" font-size="13.75" lengthAdjust="spacing" textLength="70" x="176.4625" y="1090.3186">String Code</text><line style="stroke:#A80036;stroke-width:1.875;" x1="152.7125" x2="323.9625" y1="1098.3398" y2="1098.3398"/><!--MD5=[02e4b9b7573f1156f41e60aa5b4e25a4]
class Company--><rect codeLine="7" fill="#FEFECE" filter="url(#f1fe83zvag9dgt)" height="94.5898" id="Company" style="stroke:#A80036;stroke-width:1.875;" width="155" x="297.0875" y="333.75"/><ellipse cx="337.775" cy="353.75" fill="#ADD1B2" rx="13.75" ry="13.75" style="stroke:#A80036;stroke-width:1.25;"/><path d="M340.275,349.375 Q340.5289,348.75 340.8219,348.4375 Q341.1148,348.125 341.4469,348.125 Q342.0328,348.125 342.4039,348.4766 Q342.775,348.8281 342.775,349.6484 L342.775,351.6016 Q342.775,352.4219 342.4234,352.7734 Q342.0719,353.125 341.525,353.125 Q341.0367,353.125 340.7242,352.9102 Q340.4117,352.6953 340.275,352.1289 Q340.2164,351.7383 340.0016,351.5234 Q339.6109,351.1133 338.9078,350.8789 Q338.2047,350.625 337.5016,350.625 Q336.6227,350.625 335.8805,350.9766 Q335.1578,351.3281 334.5914,352.1094 Q334.025,352.8906 334.025,353.9648 L334.025,355.1172 Q334.025,356.4063 335.0797,357.2656 Q336.1344,358.125 338.0094,358.125 Q339.1227,358.125 339.9039,357.8711 Q340.3531,357.7344 340.8609,357.2852 Q341.193,357.0313 341.3688,356.9531 Q341.5445,356.875 341.7594,356.875 Q342.1695,356.875 342.4625,357.207 Q342.775,357.5195 342.775,357.9688 Q342.775,358.3984 342.3453,358.9063 Q341.7203,359.6484 340.7242,360.0586 Q339.4156,360.625 337.8141,360.625 Q335.9391,360.625 334.4352,359.8828 Q333.2242,359.2969 332.3648,358.0273 Q331.525,356.7578 331.525,355.2539 L331.525,353.8867 Q331.525,352.3242 332.2672,350.957 Q333.0289,349.5898 334.3375,348.8672 Q335.6656,348.125 337.15,348.125 Q338.0484,348.125 338.8297,348.4375 Q339.6109,348.75 340.275,349.375 Z " fill="#000000"/><text fill="#000000" font-family="sans-serif" font-size="15" lengthAdjust="spacing" textLength="66.25" x="360.15" y="359.8877">Company</text><line style="stroke:#A80036;stroke-width:1.875;" x1="298.3375" x2="450.8375" y1="373.75" y2="373.75"/><line style="stroke:#A80036;stroke-width:1.875;" x1="298.3375" x2="450.8375" y1="383.75" y2="383.75"/><ellipse cx="310.8375" cy="397.5" fill="#84BE84" rx="3.75" ry="3.75" style="stroke:#038048;stroke-width:1.25;"/><text fill="#000000" font-family="sans-serif" font-size="13.75" lengthAdjust="spacing" textLength="105" x="322.0875" y="403.0237">getCategoryList()</text><ellipse cx="310.8375" cy="414.7949" fill="#84BE84" rx="3.75" ry="3.75" style="stroke:#038048;stroke-width:1.25;"/><text fill="#000000" font-family="sans-serif" font-size="13.75" lengthAdjust="spacing" textLength="122.5" x="322.0875" y="420.3186">getParameterStore()</text><!--MD5=[b9009a04d919d78a73c2eeec1e385786]
class CreateParameterController--><rect codeLine="12" fill="#FEFECE" filter="url(#f1fe83zvag9dgt)" height="111.8848" id="CreateParameterController" style="stroke:#A80036;stroke-width:1.875;" width="352.5" x="275.8375" y="145"/><ellipse cx="353.65" cy="165" fill="#ADD1B2" rx="13.75" ry="13.75" style="stroke:#A80036;stroke-width:1.25;"/><path d="M356.15,160.625 Q356.4039,160 356.6969,159.6875 Q356.9898,159.375 357.3219,159.375 Q357.9078,159.375 358.2789,159.7266 Q358.65,160.0781 358.65,160.8984 L358.65,162.8516 Q358.65,163.6719 358.2984,164.0234 Q357.9469,164.375 357.4,164.375 Q356.9117,164.375 356.5992,164.1602 Q356.2867,163.9453 356.15,163.3789 Q356.0914,162.9883 355.8766,162.7734 Q355.4859,162.3633 354.7828,162.1289 Q354.0797,161.875 353.3766,161.875 Q352.4977,161.875 351.7555,162.2266 Q351.0328,162.5781 350.4664,163.3594 Q349.9,164.1406 349.9,165.2148 L349.9,166.3672 Q349.9,167.6563 350.9547,168.5156 Q352.0094,169.375 353.8844,169.375 Q354.9977,169.375 355.7789,169.1211 Q356.2281,168.9844 356.7359,168.5352 Q357.068,168.2813 357.2438,168.2031 Q357.4195,168.125 357.6344,168.125 Q358.0445,168.125 358.3375,168.457 Q358.65,168.7695 358.65,169.2188 Q358.65,169.6484 358.2203,170.1563 Q357.5953,170.8984 356.5992,171.3086 Q355.2906,171.875 353.6891,171.875 Q351.8141,171.875 350.3102,171.1328 Q349.0992,170.5469 348.2398,169.2773 Q347.4,168.0078 347.4,166.5039 L347.4,165.1367 Q347.4,163.5742 348.1422,162.207 Q348.9039,160.8398 350.2125,160.1172 Q351.5406,159.375 353.025,159.375 Q353.9234,159.375 354.7047,159.6875 Q355.4859,160 356.15,160.625 Z " fill="#000000"/><text fill="#000000" font-family="sans-serif" font-size="15" lengthAdjust="spacing" textLength="186.25" x="379.275" y="171.1377">CreateParameterController</text><line style="stroke:#A80036;stroke-width:1.875;" x1="277.0875" x2="627.0875" y1="185" y2="185"/><line style="stroke:#A80036;stroke-width:1.875;" x1="277.0875" x2="627.0875" y1="195" y2="195"/><ellipse cx="289.5875" cy="208.75" fill="#84BE84" rx="3.75" ry="3.75" style="stroke:#038048;stroke-width:1.25;"/><text fill="#000000" font-family="sans-serif" font-size="13.75" lengthAdjust="spacing" textLength="320" x="300.8375" y="214.2737">createParameter(code, description, NHSid, Category)</text><ellipse cx="289.5875" cy="226.0449" fill="#84BE84" rx="3.75" ry="3.75" style="stroke:#038048;stroke-width:1.25;"/><text fill="#000000" font-family="sans-serif" font-size="13.75" lengthAdjust="spacing" textLength="105" x="300.8375" y="231.5686">getCategoryList()</text><ellipse cx="289.5875" cy="243.3398" fill="#84BE84" rx="3.75" ry="3.75" style="stroke:#038048;stroke-width:1.25;"/><text fill="#000000" font-family="sans-serif" font-size="13.75" lengthAdjust="spacing" textLength="101.25" x="300.8375" y="248.8635">saveParameter()</text><!--MD5=[5518e6815e09c51d4db6e17774f331d2]
class CreateParameterUI--><rect codeLine="18" fill="#FEFECE" filter="url(#f1fe83zvag9dgt)" height="60" id="CreateParameterUI" style="stroke:#A80036;stroke-width:1.875;" width="173.75" x="365.2125" y="8.75"/><ellipse cx="383.9625" cy="28.75" fill="#ADD1B2" rx="13.75" ry="13.75" style="stroke:#A80036;stroke-width:1.25;"/><path d="M386.4625,24.375 Q386.7164,23.75 387.0094,23.4375 Q387.3023,23.125 387.6344,23.125 Q388.2203,23.125 388.5914,23.4766 Q388.9625,23.8281 388.9625,24.6484 L388.9625,26.6016 Q388.9625,27.4219 388.6109,27.7734 Q388.2594,28.125 387.7125,28.125 Q387.2242,28.125 386.9117,27.9102 Q386.5992,27.6953 386.4625,27.1289 Q386.4039,26.7383 386.1891,26.5234 Q385.7984,26.1133 385.0953,25.8789 Q384.3922,25.625 383.6891,25.625 Q382.8102,25.625 382.068,25.9766 Q381.3453,26.3281 380.7789,27.1094 Q380.2125,27.8906 380.2125,28.9648 L380.2125,30.1172 Q380.2125,31.4063 381.2672,32.2656 Q382.3219,33.125 384.1969,33.125 Q385.3102,33.125 386.0914,32.8711 Q386.5406,32.7344 387.0484,32.2852 Q387.3805,32.0313 387.5563,31.9531 Q387.732,31.875 387.9469,31.875 Q388.357,31.875 388.65,32.207 Q388.9625,32.5195 388.9625,32.9688 Q388.9625,33.3984 388.5328,33.9063 Q387.9078,34.6484 386.9117,35.0586 Q385.6031,35.625 384.0016,35.625 Q382.1266,35.625 380.6227,34.8828 Q379.4117,34.2969 378.5523,33.0273 Q377.7125,31.7578 377.7125,30.2539 L377.7125,28.8867 Q377.7125,27.3242 378.4547,25.957 Q379.2164,24.5898 380.525,23.8672 Q381.8531,23.125 383.3375,23.125 Q384.2359,23.125 385.0172,23.4375 Q385.7984,23.75 386.4625,24.375 Z " fill="#000000"/><text fill="#000000" font-family="sans-serif" font-size="15" lengthAdjust="spacing" textLength="133.75" x="401.4625" y="34.8877">CreateParameterUI</text><line style="stroke:#A80036;stroke-width:1.875;" x1="366.4625" x2="537.7125" y1="48.75" y2="48.75"/><line style="stroke:#A80036;stroke-width:1.875;" x1="366.4625" x2="537.7125" y1="58.75" y2="58.75"/><!--MD5=[d802db621b5b215a6f0466f93cefcb42]
class ParameterCategoryStore--><rect codeLine="21" fill="#FEFECE" filter="url(#f1fe83zvag9dgt)" height="77.2949" id="ParameterCategoryStore" style="stroke:#A80036;stroke-width:1.875;" width="210" x="135.8375" y="655"/><ellipse cx="154.5875" cy="675" fill="#ADD1B2" rx="13.75" ry="13.75" style="stroke:#A80036;stroke-width:1.25;"/><path d="M157.0875,670.625 Q157.3414,670 157.6344,669.6875 Q157.9273,669.375 158.2594,669.375 Q158.8453,669.375 159.2164,669.7266 Q159.5875,670.0781 159.5875,670.8984 L159.5875,672.8516 Q159.5875,673.6719 159.2359,674.0234 Q158.8844,674.375 158.3375,674.375 Q157.8492,674.375 157.5367,674.1602 Q157.2242,673.9453 157.0875,673.3789 Q157.0289,672.9883 156.8141,672.7734 Q156.4234,672.3633 155.7203,672.1289 Q155.0172,671.875 154.3141,671.875 Q153.4352,671.875 152.693,672.2266 Q151.9703,672.5781 151.4039,673.3594 Q150.8375,674.1406 150.8375,675.2148 L150.8375,676.3672 Q150.8375,677.6563 151.8922,678.5156 Q152.9469,679.375 154.8219,679.375 Q155.9352,679.375 156.7164,679.1211 Q157.1656,678.9844 157.6734,678.5352 Q158.0055,678.2813 158.1813,678.2031 Q158.357,678.125 158.5719,678.125 Q158.982,678.125 159.275,678.457 Q159.5875,678.7695 159.5875,679.2188 Q159.5875,679.6484 159.1578,680.1563 Q158.5328,680.8984 157.5367,681.3086 Q156.2281,681.875 154.6266,681.875 Q152.7516,681.875 151.2477,681.1328 Q150.0367,680.5469 149.1773,679.2773 Q148.3375,678.0078 148.3375,676.5039 L148.3375,675.1367 Q148.3375,673.5742 149.0797,672.207 Q149.8414,670.8398 151.15,670.1172 Q152.4781,669.375 153.9625,669.375 Q154.8609,669.375 155.6422,669.6875 Q156.4234,670 157.0875,670.625 Z " fill="#000000"/><text fill="#000000" font-family="sans-serif" font-size="15" lengthAdjust="spacing" textLength="170" x="172.0875" y="681.1377">ParameterCategoryStore</text><line style="stroke:#A80036;stroke-width:1.875;" x1="137.0875" x2="344.5875" y1="695" y2="695"/><line style="stroke:#A80036;stroke-width:1.875;" x1="137.0875" x2="344.5875" y1="705" y2="705"/><ellipse cx="149.5875" cy="718.75" fill="#84BE84" rx="3.75" ry="3.75" style="stroke:#038048;stroke-width:1.25;"/><text fill="#000000" font-family="sans-serif" font-size="13.75" lengthAdjust="spacing" textLength="105" x="160.8375" y="724.2737">getCategoryList()</text><!--MD5=[be7802b157a16874d39c59ca0e2b25be]
class ParameterStore--><rect codeLine="25" fill="#FEFECE" filter="url(#f1fe83zvag9dgt)" height="111.8848" id="ParameterStore" style="stroke:#A80036;stroke-width:1.875;" width="150" x="467.0875" y="505"/><ellipse cx="486.4" cy="525" fill="#ADD1B2" rx="13.75" ry="13.75" style="stroke:#A80036;stroke-width:1.25;"/><path d="M488.9,520.625 Q489.1539,520 489.4469,519.6875 Q489.7398,519.375 490.0719,519.375 Q490.6578,519.375 491.0289,519.7266 Q491.4,520.0781 491.4,520.8984 L491.4,522.8516 Q491.4,523.6719 491.0484,524.0234 Q490.6969,524.375 490.15,524.375 Q489.6617,524.375 489.3492,524.1602 Q489.0367,523.9453 488.9,523.3789 Q488.8414,522.9883 488.6266,522.7734 Q488.2359,522.3633 487.5328,522.1289 Q486.8297,521.875 486.1266,521.875 Q485.2477,521.875 484.5055,522.2266 Q483.7828,522.5781 483.2164,523.3594 Q482.65,524.1406 482.65,525.2148 L482.65,526.3672 Q482.65,527.6563 483.7047,528.5156 Q484.7594,529.375 486.6344,529.375 Q487.7477,529.375 488.5289,529.1211 Q488.9781,528.9844 489.4859,528.5352 Q489.818,528.2813 489.9937,528.2031 Q490.1695,528.125 490.3844,528.125 Q490.7945,528.125 491.0875,528.457 Q491.4,528.7695 491.4,529.2188 Q491.4,529.6484 490.9703,530.1563 Q490.3453,530.8984 489.3492,531.3086 Q488.0406,531.875 486.4391,531.875 Q484.5641,531.875 483.0602,531.1328 Q481.8492,530.5469 480.9898,529.2773 Q480.15,528.0078 480.15,526.5039 L480.15,525.1367 Q480.15,523.5742 480.8922,522.207 Q481.6539,520.8398 482.9625,520.1172 Q484.2906,519.375 485.775,519.375 Q486.6734,519.375 487.4547,519.6875 Q488.2359,520 488.9,520.625 Z " fill="#000000"/><text fill="#000000" font-family="sans-serif" font-size="15" lengthAdjust="spacing" textLength="108.75" x="504.025" y="531.1377">ParameterStore</text><line style="stroke:#A80036;stroke-width:1.875;" x1="468.3375" x2="615.8375" y1="545" y2="545"/><line style="stroke:#A80036;stroke-width:1.875;" x1="468.3375" x2="615.8375" y1="555" y2="555"/><ellipse cx="480.8375" cy="568.75" fill="#84BE84" rx="3.75" ry="3.75" style="stroke:#038048;stroke-width:1.25;"/><text fill="#000000" font-family="sans-serif" font-size="13.75" lengthAdjust="spacing" textLength="110" x="492.0875" y="574.2737">createParameter()</text><ellipse cx="480.8375" cy="586.0449" fill="#84BE84" rx="3.75" ry="3.75" style="stroke:#038048;stroke-width:1.25;"/><text fill="#000000" font-family="sans-serif" font-size="13.75" lengthAdjust="spacing" textLength="117.5" x="492.0875" y="591.5686">validateParameter()</text><ellipse cx="480.8375" cy="603.3398" fill="#84BE84" rx="3.75" ry="3.75" style="stroke:#038048;stroke-width:1.25;"/><text fill="#000000" font-family="sans-serif" font-size="13.75" lengthAdjust="spacing" textLength="101.25" x="492.0875" y="608.8635">saveParameter()</text><!--MD5=[1f6362a5c8f21d8d6a0fce68f3a92a4e]
class Parameter--><rect codeLine="31" fill="#FEFECE" filter="url(#f1fe83zvag9dgt)" height="146.4746" id="Parameter" style="stroke:#A80036;stroke-width:1.875;" width="141.25" x="305.2125" y="770"/><ellipse cx="336.9" cy="790" fill="#ADD1B2" rx="13.75" ry="13.75" style="stroke:#A80036;stroke-width:1.25;"/><path d="M339.4,785.625 Q339.6539,785 339.9469,784.6875 Q340.2398,784.375 340.5719,784.375 Q341.1578,784.375 341.5289,784.7266 Q341.9,785.0781 341.9,785.8984 L341.9,787.8516 Q341.9,788.6719 341.5484,789.0234 Q341.1969,789.375 340.65,789.375 Q340.1617,789.375 339.8492,789.1602 Q339.5367,788.9453 339.4,788.3789 Q339.3414,787.9883 339.1266,787.7734 Q338.7359,787.3633 338.0328,787.1289 Q337.3297,786.875 336.6266,786.875 Q335.7477,786.875 335.0055,787.2266 Q334.2828,787.5781 333.7164,788.3594 Q333.15,789.1406 333.15,790.2148 L333.15,791.3672 Q333.15,792.6563 334.2047,793.5156 Q335.2594,794.375 337.1344,794.375 Q338.2477,794.375 339.0289,794.1211 Q339.4781,793.9844 339.9859,793.5352 Q340.318,793.2813 340.4938,793.2031 Q340.6695,793.125 340.8844,793.125 Q341.2945,793.125 341.5875,793.457 Q341.9,793.7695 341.9,794.2188 Q341.9,794.6484 341.4703,795.1563 Q340.8453,795.8984 339.8492,796.3086 Q338.5406,796.875 336.9391,796.875 Q335.0641,796.875 333.5602,796.1328 Q332.3492,795.5469 331.4898,794.2773 Q330.65,793.0078 330.65,791.5039 L330.65,790.1367 Q330.65,788.5742 331.3922,787.207 Q332.1539,785.8398 333.4625,785.1172 Q334.7906,784.375 336.275,784.375 Q337.1734,784.375 337.9547,784.6875 Q338.7359,785 339.4,785.625 Z " fill="#000000"/><text fill="#000000" font-family="sans-serif" font-size="15" lengthAdjust="spacing" textLength="72.5" x="357.275" y="796.1377">Parameter</text><line style="stroke:#A80036;stroke-width:1.875;" x1="306.4625" x2="445.2125" y1="810" y2="810"/><rect fill="none" height="7.5" style="stroke:#C82930;stroke-width:1.25;" width="7.5" x="315.2125" y="820"/><text fill="#000000" font-family="sans-serif" font-size="13.75" lengthAdjust="spacing" textLength="72.5" x="330.2125" y="829.2737">code: String</text><rect fill="none" height="7.5" style="stroke:#C82930;stroke-width:1.25;" width="7.5" x="315.2125" y="837.2949"/><text fill="#000000" font-family="sans-serif" font-size="13.75" lengthAdjust="spacing" textLength="107.5" x="330.2125" y="846.5686">shortName: String</text><rect fill="none" height="7.5" style="stroke:#C82930;stroke-width:1.25;" width="7.5" x="315.2125" y="854.5898"/><text fill="#000000" font-family="sans-serif" font-size="13.75" lengthAdjust="spacing" textLength="108.75" x="330.2125" y="863.8635">description: String</text><rect fill="none" height="7.5" style="stroke:#C82930;stroke-width:1.25;" width="7.5" x="315.2125" y="871.8848"/><text fill="#000000" font-family="sans-serif" font-size="13.75" lengthAdjust="spacing" textLength="82.5" x="330.2125" y="881.1584">Cat: Category</text><line style="stroke:#A80036;stroke-width:1.875;" x1="306.4625" x2="445.2125" y1="889.1797" y2="889.1797"/><ellipse cx="318.9625" cy="902.9297" fill="#84BE84" rx="3.75" ry="3.75" style="stroke:#038048;stroke-width:1.25;"/><text fill="#000000" font-family="sans-serif" font-size="13.75" lengthAdjust="spacing" textLength="71.25" x="330.2125" y="908.4534">Parameter()</text><!--MD5=[9d3dd688f78c4545f26622cd23f9dd25]
link CreateParameterUI to CreateParameterController--><path codeLine="39" d="M452.0875,68.975 C452.0875,88.2375 452.0875,114.275 452.0875,138.0625 " fill="none" id="CreateParameterUI-to-CreateParameterController" style="stroke:#A80036;stroke-width:1.25;stroke-dasharray:7.0,7.0;"/><polygon fill="#A80036" points="452.0875,144.7,457.0875,133.45,452.0875,138.45,447.0875,133.45,452.0875,144.7" style="stroke:#A80036;stroke-width:1.25;"/><!--MD5=[6d585fb02c26694275539b4f1508918e]
link CreateParameterController to Company--><path codeLine="41" d="M427.9875,257.6875 C418.3125,279.825 407.225,305.2375 397.6625,327.1375 " fill="none" id="CreateParameterController-to-Company" style="stroke:#A80036;stroke-width:1.25;stroke-dasharray:7.0,7.0;"/><polygon fill="#A80036" points="395.0125,333.2125,404.093,324.8994,397.5111,327.4837,394.9268,320.9017,395.0125,333.2125" style="stroke:#A80036;stroke-width:1.25;"/><!--MD5=[46706d5726812879537e05899d80bc9e]
link CreateParameterController to ParameterStore--><path codeLine="42" d="M465.95,257.575 C482.325,322.6625 509.5125,430.6375 526.5875,498.425 " fill="none" id="CreateParameterController-to-ParameterStore" style="stroke:#A80036;stroke-width:1.25;stroke-dasharray:7.0,7.0;"/><polygon fill="#A80036" points="528.2,504.8625,530.2886,492.7299,526.6674,498.8033,520.594,495.1821,528.2,504.8625" style="stroke:#A80036;stroke-width:1.25;"/><!--MD5=[d53d7490e5836ca5709858d7326f212b]
link Company to ParameterCategoryStore--><path codeLine="44" d="M354.05,428.9875 C343.9875,451.8625 331.7125,479.85 320.8375,505 C299.55,554.175 275.4625,610.7625 259.325,648.8 " fill="none" id="Company-to-ParameterCategoryStore" style="stroke:#A80036;stroke-width:1.25;stroke-dasharray:7.0,7.0;"/><polygon fill="#A80036" points="256.8125,654.7375,265.7957,646.3194,259.2442,648.98,256.5836,642.4286,256.8125,654.7375" style="stroke:#A80036;stroke-width:1.25;"/><!--MD5=[daf3d7412afa2c7651483be0b6e971d1]
link Company to ParameterStore--><path codeLine="45" d="M418.5875,429.1375 C439.125,450.9 463.8125,477.0625 485.7,500.25 " fill="none" id="Company-to-ParameterStore" style="stroke:#A80036;stroke-width:1.25;stroke-dasharray:7.0,7.0;"/><polygon fill="#A80036" points="490.0375,504.85,485.9454,493.2389,485.7451,500.3072,478.6768,500.1068,490.0375,504.85" style="stroke:#A80036;stroke-width:1.25;"/><!--MD5=[a0992dda039fed1bb57aff5aacace800]
link ParameterStore to Parameter--><path codeLine="47" d="M509.2375,617.7 C484.325,659.5625 449.75,717.6625 422.05,764.2125 " fill="none" id="ParameterStore-to-Parameter" style="stroke:#A80036;stroke-width:1.25;stroke-dasharray:7.0,7.0;"/><polygon fill="#A80036" points="418.7,769.8375,428.7581,762.7385,421.9024,764.4703,420.1706,757.6146,418.7,769.8375" style="stroke:#A80036;stroke-width:1.25;"/><!--MD5=[d6274e3b73b5bc8f467c6cfbf5bf003e]
link ParameterCategoryStore to ParameterCategory--><path codeLine="49" d="M240.575,732.6875 C240.125,797.925 239.2125,932.075 238.7,1006.8 " fill="none" id="ParameterCategoryStore-to-ParameterCategory" style="stroke:#A80036;stroke-width:1.25;stroke-dasharray:7.0,7.0;"/><polygon fill="#A80036" points="238.65,1013.3875,243.7465,1002.1809,238.7037,1007.1377,233.7469,1002.0949,238.65,1013.3875" style="stroke:#A80036;stroke-width:1.25;"/><!--MD5=[12d76240d3c3c66074d4ec2ea8bf469c]
link Company to Parameter--><path codeLine="51" d="M374.7125,429.075 C374.925,507.4875 375.35,666.6875 375.6125,762.8375 " fill="none" id="Company-to-Parameter" style="stroke:#A80036;stroke-width:1.25;"/><polygon fill="#A80036" points="375.6375,769.65,380.6053,758.3858,375.6196,763.4,370.6054,758.4143,375.6375,769.65" style="stroke:#A80036;stroke-width:1.25;"/><text fill="#000000" font-family="sans-serif" font-size="16.25" lengthAdjust="spacing" textLength="46.25" x="377.0875" y="568.1189">knows</text><text fill="#000000" font-family="sans-serif" font-size="16.25" lengthAdjust="spacing" textLength="8.75" x="365.2852" y="455.2275">1</text><text fill="#000000" font-family="sans-serif" font-size="16.25" lengthAdjust="spacing" textLength="6.25" x="368.9823" y="756.3585">*</text><!--MD5=[93b4f25fb503a8e0e9a46b1d30ff3f44]
link Company to ParameterCategory--><path codeLine="52" d="M296.7875,424.4375 C221.4625,469.9625 111.9125,550.375 64.5875,655 C7.5,781.1875 118.025,931.425 187.6625,1008.6 " fill="none" id="Company-to-ParameterCategory" style="stroke:#A80036;stroke-width:1.25;"/><polygon fill="#A80036" points="192.1875,1013.5875,188.3309,1001.8961,187.9877,1008.9588,180.925,1008.6157,192.1875,1013.5875" style="stroke:#A80036;stroke-width:1.25;"/><text fill="#000000" font-family="sans-serif" font-size="16.25" lengthAdjust="spacing" textLength="46.25" x="65.8375" y="700.6189">knows</text><text fill="#000000" font-family="sans-serif" font-size="16.25" lengthAdjust="spacing" textLength="8.75" x="278.536" y="425.1928">1</text><text fill="#000000" font-family="sans-serif" font-size="16.25" lengthAdjust="spacing" textLength="6.25" x="177.1604" y="1000.2609">*</text><!--MD5=[6df8849671cb880f6936e94aa30db6f9]
link Parameter to ParameterCategory--><path codeLine="53" d="M329.6625,916.775 C310.575,946.7125 288.875,980.75 271.4125,1008.125 " fill="none" id="Parameter-to-ParameterCategory" style="stroke:#A80036;stroke-width:1.25;"/><polygon fill="#A80036" points="267.975,1013.5125,278.2376,1006.7124,271.3339,1008.2418,269.8045,1001.3381,267.975,1013.5125" style="stroke:#A80036;stroke-width:1.25;"/><text fill="#000000" font-family="sans-serif" font-size="16.25" lengthAdjust="spacing" textLength="111.25" x="304.5875" y="971.8689">caracterized by</text><text fill="#000000" font-family="sans-serif" font-size="16.25" lengthAdjust="spacing" textLength="8.75" x="315.0677" y="943.3283">1</text><text fill="#000000" font-family="sans-serif" font-size="16.25" lengthAdjust="spacing" textLength="8.75" x="263.7249" y="1000.1726">1</text><!--MD5=[75444d2e8b92d628f493f0936d0b6059]
@startuml

class ParameterCategory {
  -String CategoryName
  -String Code
}

class Company{
+getCategoryList()
+getParameterStore()
}

class CreateParameterController {
+createParameter(code, description, NHSid, Category)
+getCategoryList()
+saveParameter()
}

class CreateParameterUI{
}

class ParameterCategoryStore{
+getCategoryList()
}

class ParameterStore{
+createParameter()
+validateParameter()
+saveParameter()
}

class Parameter{
-code: String
-shortName: String
-description: String
-Cat: Category
+Parameter()
}

CreateParameterUI ..> CreateParameterController

CreateParameterController ..> Company
CreateParameterController ..> ParameterStore

Company ..> ParameterCategoryStore
Company ..> ParameterStore

ParameterStore ..> Parameter

ParameterCategoryStore ..> ParameterCategory

Company"1" - -> "*"Parameter: knows
Company"1" - -> "*"ParameterCategory: knows
Parameter "1" - -> "1" ParameterCategory: caracterized by
@enduml

PlantUML version 1.2021.4(Sun Apr 04 09:49:39 BST 2021)
(GPL source distribution)
Java Runtime: OpenJDK Runtime Environment
JVM: Dynamic Code Evolution 64-Bit Server VM
Default Encoding: Cp1252
Language: pt
Country: PT
--></g></svg>