<?xml version="1.0" encoding="UTF-8" standalone="no"?><svg xmlns="http://www.w3.org/2000/svg" xmlns:xlink="http://www.w3.org/1999/xlink" contentScriptType="application/ecmascript" contentStyleType="text/css" height="631px" preserveAspectRatio="none" style="width:505px;height:631px;background:#FFFFFF;" version="1.1" viewBox="0 0 505 631" width="505px" zoomAndPan="magnify"><defs><filter height="300%" id="ff37poxl1fs6j" width="300%" x="-1" y="-1"><feGaussianBlur result="blurOut" stdDeviation="2.0"/><feColorMatrix in="blurOut" result="blurOut2" type="matrix" values="0 0 0 0 0 0 0 0 0 0 0 0 0 0 0 0 0 0 .4 0"/><feOffset dx="4.0" dy="4.0" in="blurOut2" result="blurOut3"/><feBlend in="SourceGraphic" in2="blurOut3" mode="normal"/></filter></defs><g><!--MD5=[02e4b9b7573f1156f41e60aa5b4e25a4]
class Company--><rect codeLine="5" fill="#FEFECE" filter="url(#ff37poxl1fs6j)" height="53.8359" id="Company" style="stroke:#A80036;stroke-width:1.5;" width="85" x="182.5" y="7"/><ellipse cx="197.5" cy="23" fill="#ADD1B2" rx="11" ry="11" style="stroke:#A80036;stroke-width:1.0;"/><path d="M199.5,19.5 Q199.7031,19 199.9375,18.75 Q200.1719,18.5 200.4375,18.5 Q200.9063,18.5 201.2031,18.7813 Q201.5,19.0625 201.5,19.7188 L201.5,21.2813 Q201.5,21.9375 201.2188,22.2188 Q200.9375,22.5 200.5,22.5 Q200.1094,22.5 199.8594,22.3281 Q199.6094,22.1563 199.5,21.7031 Q199.4531,21.3906 199.2813,21.2188 Q198.9688,20.8906 198.4063,20.7031 Q197.8438,20.5 197.2813,20.5 Q196.5781,20.5 195.9844,20.7813 Q195.4063,21.0625 194.9531,21.6875 Q194.5,22.3125 194.5,23.1719 L194.5,24.0938 Q194.5,25.125 195.3438,25.8125 Q196.1875,26.5 197.6875,26.5 Q198.5781,26.5 199.2031,26.2969 Q199.5625,26.1875 199.9688,25.8281 Q200.2344,25.625 200.375,25.5625 Q200.5156,25.5 200.6875,25.5 Q201.0156,25.5 201.25,25.7656 Q201.5,26.0156 201.5,26.375 Q201.5,26.7188 201.1563,27.125 Q200.6563,27.7188 199.8594,28.0469 Q198.8125,28.5 197.5313,28.5 Q196.0313,28.5 194.8281,27.9063 Q193.8594,27.4375 193.1719,26.4219 Q192.5,25.4063 192.5,24.2031 L192.5,23.1094 Q192.5,21.8594 193.0938,20.7656 Q193.7031,19.6719 194.75,19.0938 Q195.8125,18.5 197,18.5 Q197.7188,18.5 198.3438,18.75 Q198.9688,19 199.5,19.5 Z " fill="#000000"/><text fill="#000000" font-family="sans-serif" font-size="12" lengthAdjust="spacing" textLength="53" x="211.5" y="27.9102">Company</text><line style="stroke:#A80036;stroke-width:1.5;" x1="183.5" x2="266.5" y1="39" y2="39"/><rect fill="none" height="6" style="stroke:#C82930;stroke-width:1.0;" width="6" x="190.5" y="47"/><text fill="#000000" font-family="sans-serif" font-size="11" lengthAdjust="spacing" textLength="55" x="202.5" y="54.4189">designation</text><!--MD5=[df38be88ccee13e832d6fafd6288a4ca]
class Test--><rect codeLine="9" fill="#FEFECE" filter="url(#ff37poxl1fs6j)" height="81.5078" id="Test" style="stroke:#A80036;stroke-width:1.5;" width="74" x="188" y="139"/><ellipse cx="211.1" cy="155" fill="#ADD1B2" rx="11" ry="11" style="stroke:#A80036;stroke-width:1.0;"/><path d="M213.1,151.5 Q213.3031,151 213.5375,150.75 Q213.7719,150.5 214.0375,150.5 Q214.5063,150.5 214.8031,150.7813 Q215.1,151.0625 215.1,151.7188 L215.1,153.2813 Q215.1,153.9375 214.8188,154.2188 Q214.5375,154.5 214.1,154.5 Q213.7094,154.5 213.4594,154.3281 Q213.2094,154.1563 213.1,153.7031 Q213.0531,153.3906 212.8813,153.2188 Q212.5688,152.8906 212.0063,152.7031 Q211.4438,152.5 210.8813,152.5 Q210.1781,152.5 209.5844,152.7813 Q209.0063,153.0625 208.5531,153.6875 Q208.1,154.3125 208.1,155.1719 L208.1,156.0938 Q208.1,157.125 208.9438,157.8125 Q209.7875,158.5 211.2875,158.5 Q212.1781,158.5 212.8031,158.2969 Q213.1625,158.1875 213.5688,157.8281 Q213.8344,157.625 213.975,157.5625 Q214.1156,157.5 214.2875,157.5 Q214.6156,157.5 214.85,157.7656 Q215.1,158.0156 215.1,158.375 Q215.1,158.7188 214.7563,159.125 Q214.2563,159.7188 213.4594,160.0469 Q212.4125,160.5 211.1313,160.5 Q209.6313,160.5 208.4281,159.9063 Q207.4594,159.4375 206.7719,158.4219 Q206.1,157.4063 206.1,156.2031 L206.1,155.1094 Q206.1,153.8594 206.6938,152.7656 Q207.3031,151.6719 208.35,151.0938 Q209.4125,150.5 210.6,150.5 Q211.3188,150.5 211.9438,150.75 Q212.5688,151 213.1,151.5 Z " fill="#000000"/><text fill="#000000" font-family="sans-serif" font-size="12" lengthAdjust="spacing" textLength="24" x="226.9" y="159.9102">Test</text><line style="stroke:#A80036;stroke-width:1.5;" x1="189" x2="261" y1="171" y2="171"/><rect fill="none" height="6" style="stroke:#C82930;stroke-width:1.0;" width="6" x="196" y="179"/><text fill="#000000" font-family="sans-serif" font-size="11" lengthAdjust="spacing" textLength="24" x="208" y="186.4189">code</text><rect fill="none" height="6" style="stroke:#C82930;stroke-width:1.0;" width="6" x="196" y="192.8359"/><text fill="#000000" font-family="sans-serif" font-size="11" lengthAdjust="spacing" textLength="44" x="208" y="200.2549">NhsCode</text><rect fill="none" height="6" style="stroke:#C82930;stroke-width:1.0;" width="6" x="196" y="206.6719"/><text fill="#000000" font-family="sans-serif" font-size="11" lengthAdjust="spacing" textLength="48" x="208" y="214.0908">createdAt</text><!--MD5=[aeb3272166074d8737a70b61b1e71682]
class TestType--><rect codeLine="15" fill="#FEFECE" filter="url(#ff37poxl1fs6j)" height="81.5078" id="TestType" style="stroke:#A80036;stroke-width:1.5;" width="106" x="336" y="139"/><ellipse cx="361.8" cy="155" fill="#ADD1B2" rx="11" ry="11" style="stroke:#A80036;stroke-width:1.0;"/><path d="M363.8,151.5 Q364.0031,151 364.2375,150.75 Q364.4719,150.5 364.7375,150.5 Q365.2063,150.5 365.5031,150.7813 Q365.8,151.0625 365.8,151.7188 L365.8,153.2813 Q365.8,153.9375 365.5188,154.2188 Q365.2375,154.5 364.8,154.5 Q364.4094,154.5 364.1594,154.3281 Q363.9094,154.1563 363.8,153.7031 Q363.7531,153.3906 363.5813,153.2188 Q363.2688,152.8906 362.7063,152.7031 Q362.1438,152.5 361.5813,152.5 Q360.8781,152.5 360.2844,152.7813 Q359.7063,153.0625 359.2531,153.6875 Q358.8,154.3125 358.8,155.1719 L358.8,156.0938 Q358.8,157.125 359.6438,157.8125 Q360.4875,158.5 361.9875,158.5 Q362.8781,158.5 363.5031,158.2969 Q363.8625,158.1875 364.2688,157.8281 Q364.5344,157.625 364.675,157.5625 Q364.8156,157.5 364.9875,157.5 Q365.3156,157.5 365.55,157.7656 Q365.8,158.0156 365.8,158.375 Q365.8,158.7188 365.4563,159.125 Q364.9563,159.7188 364.1594,160.0469 Q363.1125,160.5 361.8313,160.5 Q360.3313,160.5 359.1281,159.9063 Q358.1594,159.4375 357.4719,158.4219 Q356.8,157.4063 356.8,156.2031 L356.8,155.1094 Q356.8,153.8594 357.3938,152.7656 Q358.0031,151.6719 359.05,151.0938 Q360.1125,150.5 361.3,150.5 Q362.0188,150.5 362.6438,150.75 Q363.2688,151 363.8,151.5 Z " fill="#000000"/><text fill="#000000" font-family="sans-serif" font-size="12" lengthAdjust="spacing" textLength="50" x="378.2" y="159.9102">TestType</text><line style="stroke:#A80036;stroke-width:1.5;" x1="337" x2="441" y1="171" y2="171"/><rect fill="none" height="6" style="stroke:#C82930;stroke-width:1.0;" width="6" x="344" y="179"/><text fill="#000000" font-family="sans-serif" font-size="11" lengthAdjust="spacing" textLength="24" x="356" y="186.4189">code</text><rect fill="none" height="6" style="stroke:#C82930;stroke-width:1.0;" width="6" x="344" y="192.8359"/><text fill="#000000" font-family="sans-serif" font-size="11" lengthAdjust="spacing" textLength="53" x="356" y="200.2549">description</text><rect fill="none" height="6" style="stroke:#C82930;stroke-width:1.0;" width="6" x="344" y="206.6719"/><text fill="#000000" font-family="sans-serif" font-size="11" lengthAdjust="spacing" textLength="80" x="356" y="214.0908">collectingMethod</text><!--MD5=[8f188b89eff49accb0f38c057b38a9f2]
class ExternalModule--><rect codeLine="21" fill="#FEFECE" filter="url(#ff37poxl1fs6j)" height="40" id="ExternalModule" style="stroke:#A80036;stroke-width:1.5;" width="116" x="363" y="577"/><ellipse cx="378" cy="593" fill="#ADD1B2" rx="11" ry="11" style="stroke:#A80036;stroke-width:1.0;"/><path d="M380,589.5 Q380.2031,589 380.4375,588.75 Q380.6719,588.5 380.9375,588.5 Q381.4063,588.5 381.7031,588.7813 Q382,589.0625 382,589.7188 L382,591.2813 Q382,591.9375 381.7188,592.2188 Q381.4375,592.5 381,592.5 Q380.6094,592.5 380.3594,592.3281 Q380.1094,592.1563 380,591.7031 Q379.9531,591.3906 379.7813,591.2188 Q379.4688,590.8906 378.9063,590.7031 Q378.3438,590.5 377.7813,590.5 Q377.0781,590.5 376.4844,590.7813 Q375.9063,591.0625 375.4531,591.6875 Q375,592.3125 375,593.1719 L375,594.0938 Q375,595.125 375.8438,595.8125 Q376.6875,596.5 378.1875,596.5 Q379.0781,596.5 379.7031,596.2969 Q380.0625,596.1875 380.4688,595.8281 Q380.7344,595.625 380.875,595.5625 Q381.0156,595.5 381.1875,595.5 Q381.5156,595.5 381.75,595.7656 Q382,596.0156 382,596.375 Q382,596.7188 381.6563,597.125 Q381.1563,597.7188 380.3594,598.0469 Q379.3125,598.5 378.0313,598.5 Q376.5313,598.5 375.3281,597.9063 Q374.3594,597.4375 373.6719,596.4219 Q373,595.4063 373,594.2031 L373,593.1094 Q373,591.8594 373.5938,590.7656 Q374.2031,589.6719 375.25,589.0938 Q376.3125,588.5 377.5,588.5 Q378.2188,588.5 378.8438,588.75 Q379.4688,589 380,589.5 Z " fill="#000000"/><text fill="#000000" font-family="sans-serif" font-size="12" lengthAdjust="spacing" textLength="84" x="392" y="597.9102">ExternalModule</text><line style="stroke:#A80036;stroke-width:1.5;" x1="364" x2="478" y1="609" y2="609"/><!--MD5=[1c357e7e7fdba398bcadd6e61afe49f5]
class ReferenceValue--><rect codeLine="24" fill="#FEFECE" filter="url(#ff37poxl1fs6j)" height="40" id="ReferenceValue" style="stroke:#A80036;stroke-width:1.5;" width="120" x="128" y="577"/><ellipse cx="143" cy="593" fill="#ADD1B2" rx="11" ry="11" style="stroke:#A80036;stroke-width:1.0;"/><path d="M145,589.5 Q145.2031,589 145.4375,588.75 Q145.6719,588.5 145.9375,588.5 Q146.4063,588.5 146.7031,588.7813 Q147,589.0625 147,589.7188 L147,591.2813 Q147,591.9375 146.7188,592.2188 Q146.4375,592.5 146,592.5 Q145.6094,592.5 145.3594,592.3281 Q145.1094,592.1563 145,591.7031 Q144.9531,591.3906 144.7813,591.2188 Q144.4688,590.8906 143.9063,590.7031 Q143.3438,590.5 142.7813,590.5 Q142.0781,590.5 141.4844,590.7813 Q140.9063,591.0625 140.4531,591.6875 Q140,592.3125 140,593.1719 L140,594.0938 Q140,595.125 140.8438,595.8125 Q141.6875,596.5 143.1875,596.5 Q144.0781,596.5 144.7031,596.2969 Q145.0625,596.1875 145.4688,595.8281 Q145.7344,595.625 145.875,595.5625 Q146.0156,595.5 146.1875,595.5 Q146.5156,595.5 146.75,595.7656 Q147,596.0156 147,596.375 Q147,596.7188 146.6563,597.125 Q146.1563,597.7188 145.3594,598.0469 Q144.3125,598.5 143.0313,598.5 Q141.5313,598.5 140.3281,597.9063 Q139.3594,597.4375 138.6719,596.4219 Q138,595.4063 138,594.2031 L138,593.1094 Q138,591.8594 138.5938,590.7656 Q139.2031,589.6719 140.25,589.0938 Q141.3125,588.5 142.5,588.5 Q143.2188,588.5 143.8438,588.75 Q144.4688,589 145,589.5 Z " fill="#000000"/><text fill="#000000" font-family="sans-serif" font-size="12" lengthAdjust="spacing" textLength="88" x="157" y="597.9102">ReferenceValue</text><line style="stroke:#A80036;stroke-width:1.5;" x1="129" x2="247" y1="609" y2="609"/><!--MD5=[4e608140b854dae633589343bce77383]
class TestParameterResult--><rect codeLine="27" fill="#FEFECE" filter="url(#ff37poxl1fs6j)" height="81.5078" id="TestParameterResult" style="stroke:#A80036;stroke-width:1.5;" width="150" x="132" y="417"/><ellipse cx="147" cy="433" fill="#ADD1B2" rx="11" ry="11" style="stroke:#A80036;stroke-width:1.0;"/><path d="M149,429.5 Q149.2031,429 149.4375,428.75 Q149.6719,428.5 149.9375,428.5 Q150.4063,428.5 150.7031,428.7813 Q151,429.0625 151,429.7188 L151,431.2813 Q151,431.9375 150.7188,432.2188 Q150.4375,432.5 150,432.5 Q149.6094,432.5 149.3594,432.3281 Q149.1094,432.1563 149,431.7031 Q148.9531,431.3906 148.7813,431.2188 Q148.4688,430.8906 147.9063,430.7031 Q147.3438,430.5 146.7813,430.5 Q146.0781,430.5 145.4844,430.7813 Q144.9063,431.0625 144.4531,431.6875 Q144,432.3125 144,433.1719 L144,434.0938 Q144,435.125 144.8438,435.8125 Q145.6875,436.5 147.1875,436.5 Q148.0781,436.5 148.7031,436.2969 Q149.0625,436.1875 149.4688,435.8281 Q149.7344,435.625 149.875,435.5625 Q150.0156,435.5 150.1875,435.5 Q150.5156,435.5 150.75,435.7656 Q151,436.0156 151,436.375 Q151,436.7188 150.6563,437.125 Q150.1563,437.7188 149.3594,438.0469 Q148.3125,438.5 147.0313,438.5 Q145.5313,438.5 144.3281,437.9063 Q143.3594,437.4375 142.6719,436.4219 Q142,435.4063 142,434.2031 L142,433.1094 Q142,431.8594 142.5938,430.7656 Q143.2031,429.6719 144.25,429.0938 Q145.3125,428.5 146.5,428.5 Q147.2188,428.5 147.8438,428.75 Q148.4688,429 149,429.5 Z " fill="#000000"/><text fill="#000000" font-family="sans-serif" font-size="12" lengthAdjust="spacing" textLength="118" x="161" y="437.9102">TestParameterResult</text><line style="stroke:#A80036;stroke-width:1.5;" x1="133" x2="281" y1="449" y2="449"/><rect fill="none" height="6" style="stroke:#C82930;stroke-width:1.0;" width="6" x="140" y="457"/><text fill="#000000" font-family="sans-serif" font-size="11" lengthAdjust="spacing" textLength="48" x="152" y="464.4189">createdAt</text><rect fill="none" height="6" style="stroke:#C82930;stroke-width:1.0;" width="6" x="140" y="470.8359"/><text fill="#000000" font-family="sans-serif" font-size="11" lengthAdjust="spacing" textLength="26" x="152" y="478.2549">value</text><rect fill="none" height="6" style="stroke:#C82930;stroke-width:1.0;" width="6" x="140" y="484.6719"/><text fill="#000000" font-family="sans-serif" font-size="11" lengthAdjust="spacing" textLength="29" x="152" y="492.0908">metric</text><!--MD5=[0f07739f46effee96e095e9c408da841]
class TestParameter--><rect codeLine="33" fill="#FEFECE" filter="url(#ff37poxl1fs6j)" height="40" id="TestParameter" style="stroke:#A80036;stroke-width:1.5;" width="114" x="150" y="299"/><ellipse cx="165" cy="315" fill="#ADD1B2" rx="11" ry="11" style="stroke:#A80036;stroke-width:1.0;"/><path d="M167,311.5 Q167.2031,311 167.4375,310.75 Q167.6719,310.5 167.9375,310.5 Q168.4063,310.5 168.7031,310.7813 Q169,311.0625 169,311.7188 L169,313.2813 Q169,313.9375 168.7188,314.2188 Q168.4375,314.5 168,314.5 Q167.6094,314.5 167.3594,314.3281 Q167.1094,314.1563 167,313.7031 Q166.9531,313.3906 166.7813,313.2188 Q166.4688,312.8906 165.9063,312.7031 Q165.3438,312.5 164.7813,312.5 Q164.0781,312.5 163.4844,312.7813 Q162.9063,313.0625 162.4531,313.6875 Q162,314.3125 162,315.1719 L162,316.0938 Q162,317.125 162.8438,317.8125 Q163.6875,318.5 165.1875,318.5 Q166.0781,318.5 166.7031,318.2969 Q167.0625,318.1875 167.4688,317.8281 Q167.7344,317.625 167.875,317.5625 Q168.0156,317.5 168.1875,317.5 Q168.5156,317.5 168.75,317.7656 Q169,318.0156 169,318.375 Q169,318.7188 168.6563,319.125 Q168.1563,319.7188 167.3594,320.0469 Q166.3125,320.5 165.0313,320.5 Q163.5313,320.5 162.3281,319.9063 Q161.3594,319.4375 160.6719,318.4219 Q160,317.4063 160,316.2031 L160,315.1094 Q160,313.8594 160.5938,312.7656 Q161.2031,311.6719 162.25,311.0938 Q163.3125,310.5 164.5,310.5 Q165.2188,310.5 165.8438,310.75 Q166.4688,311 167,311.5 Z " fill="#000000"/><text fill="#000000" font-family="sans-serif" font-size="12" lengthAdjust="spacing" textLength="82" x="179" y="319.9102">TestParameter</text><line style="stroke:#A80036;stroke-width:1.5;" x1="151" x2="263" y1="331" y2="331"/><!--MD5=[1f6362a5c8f21d8d6a0fce68f3a92a4e]
class Parameter--><rect codeLine="36" fill="#FEFECE" filter="url(#ff37poxl1fs6j)" height="81.5078" id="Parameter" style="stroke:#A80036;stroke-width:1.5;" width="90" x="7" y="417"/><ellipse cx="22" cy="433" fill="#ADD1B2" rx="11" ry="11" style="stroke:#A80036;stroke-width:1.0;"/><path d="M24,429.5 Q24.2031,429 24.4375,428.75 Q24.6719,428.5 24.9375,428.5 Q25.4063,428.5 25.7031,428.7813 Q26,429.0625 26,429.7188 L26,431.2813 Q26,431.9375 25.7188,432.2188 Q25.4375,432.5 25,432.5 Q24.6094,432.5 24.3594,432.3281 Q24.1094,432.1563 24,431.7031 Q23.9531,431.3906 23.7813,431.2188 Q23.4688,430.8906 22.9063,430.7031 Q22.3438,430.5 21.7813,430.5 Q21.0781,430.5 20.4844,430.7813 Q19.9063,431.0625 19.4531,431.6875 Q19,432.3125 19,433.1719 L19,434.0938 Q19,435.125 19.8438,435.8125 Q20.6875,436.5 22.1875,436.5 Q23.0781,436.5 23.7031,436.2969 Q24.0625,436.1875 24.4688,435.8281 Q24.7344,435.625 24.875,435.5625 Q25.0156,435.5 25.1875,435.5 Q25.5156,435.5 25.75,435.7656 Q26,436.0156 26,436.375 Q26,436.7188 25.6563,437.125 Q25.1563,437.7188 24.3594,438.0469 Q23.3125,438.5 22.0313,438.5 Q20.5313,438.5 19.3281,437.9063 Q18.3594,437.4375 17.6719,436.4219 Q17,435.4063 17,434.2031 L17,433.1094 Q17,431.8594 17.5938,430.7656 Q18.2031,429.6719 19.25,429.0938 Q20.3125,428.5 21.5,428.5 Q22.2188,428.5 22.8438,428.75 Q23.4688,429 24,429.5 Z " fill="#000000"/><text fill="#000000" font-family="sans-serif" font-size="12" lengthAdjust="spacing" textLength="58" x="36" y="437.9102">Parameter</text><line style="stroke:#A80036;stroke-width:1.5;" x1="8" x2="96" y1="449" y2="449"/><rect fill="none" height="6" style="stroke:#C82930;stroke-width:1.0;" width="6" x="15" y="457"/><text fill="#000000" font-family="sans-serif" font-size="11" lengthAdjust="spacing" textLength="24" x="27" y="464.4189">code</text><rect fill="none" height="6" style="stroke:#C82930;stroke-width:1.0;" width="6" x="15" y="470.8359"/><text fill="#000000" font-family="sans-serif" font-size="11" lengthAdjust="spacing" textLength="52" x="27" y="478.2549">shortName</text><rect fill="none" height="6" style="stroke:#C82930;stroke-width:1.0;" width="6" x="15" y="484.6719"/><text fill="#000000" font-family="sans-serif" font-size="11" lengthAdjust="spacing" textLength="53" x="27" y="492.0908">description</text><ellipse cx="113" cy="319" fill="#000000" rx="2" ry="2" style="stroke:none;stroke-width:1.0;"/><!--MD5=[12d76240d3c3c66074d4ec2ea8bf469c]
link Company to Parameter--><path codeLine="42" d="M192.19,61.12 C148.78,98.01 74.33,169.99 45,251 C25.14,305.84 33.41,374.36 42.04,416.91 " fill="none" id="Company-Parameter" style="stroke:#A80036;stroke-width:1.0;"/><polygon fill="#000000" points="48.0559,264.7824,54.2805,257.5917,48.8651,255.3063,48.0559,264.7824" style="stroke:#000000;stroke-width:1.0;"/><text fill="#000000" font-family="sans-serif" font-size="13" lengthAdjust="spacing" textLength="118" x="59" y="265.4951">capable of analysing</text><text fill="#000000" font-family="sans-serif" font-size="13" lengthAdjust="spacing" textLength="7" x="177.2472" y="82.354">1</text><text fill="#000000" font-family="sans-serif" font-size="13" lengthAdjust="spacing" textLength="5" x="34.8984" y="406.0403">*</text><!--MD5=[7e4bc624457760b649895ff2ead938fa]
link Company to Test--><path codeLine="43" d="M225,61.08 C225,82.8 225,114.09 225,138.98 " fill="none" id="Company-Test" style="stroke:#A80036;stroke-width:1.0;"/><polygon fill="#000000" points="230,105.1758,232.9389,96.1307,227.0611,96.1307,230,105.1758" style="stroke:#000000;stroke-width:1.0;"/><text fill="#000000" font-family="sans-serif" font-size="13" lengthAdjust="spacing" textLength="50" x="239" y="105.4951">performs</text><text fill="#000000" font-family="sans-serif" font-size="13" lengthAdjust="spacing" textLength="7" x="217.2344" y="82.3053">1</text><text fill="#000000" font-family="sans-serif" font-size="13" lengthAdjust="spacing" textLength="5" x="219.5703" y="128.1223">*</text><!--MD5=[742a261f27a3dcd734c626287d811acd]
link Company to TestType--><path codeLine="44" d="M260.92,61.26 C272.94,70.39 286.27,80.88 298,91 C315.48,106.07 333.93,123.58 349.61,139 " fill="none" id="Company-TestType" style="stroke:#A80036;stroke-width:1.0;"/><polygon fill="#000000" points="325.76,103.4716,320.8953,95.2993,317.0209,99.7195,325.76,103.4716" style="stroke:#000000;stroke-width:1.0;"/><text fill="#000000" font-family="sans-serif" font-size="13" lengthAdjust="spacing" textLength="53" x="331" y="105.4951">conducts</text><text fill="#000000" font-family="sans-serif" font-size="13" lengthAdjust="spacing" textLength="7" x="261.0119" y="82.5246">1</text><text fill="#000000" font-family="sans-serif" font-size="13" lengthAdjust="spacing" textLength="5" x="337.4102" y="128.1458">*</text><!--MD5=[9735660ec8fc5abdb8afe2aef285d6e2]
link ReferenceValue to ExternalModule--><path codeLine="45" d="M248,597 C283.33,597 327.8,597 362.81,597 " fill="none" id="ReferenceValue-ExternalModule" style="stroke:#A80036;stroke-width:1.0;"/><polygon fill="#000000" points="275.5,585.1758,266.4549,582.2369,266.4549,588.1147,275.5,585.1758" style="stroke:#000000;stroke-width:1.0;"/><text fill="#000000" font-family="sans-serif" font-size="13" lengthAdjust="spacing" textLength="65" x="279.5" y="590.4951">provided by</text><text fill="#000000" font-family="sans-serif" font-size="13" lengthAdjust="spacing" textLength="5" x="256.0078" y="593.4926">*</text><text fill="#000000" font-family="sans-serif" font-size="13" lengthAdjust="spacing" textLength="7" x="347.906" y="593.4926">1</text><!--MD5=[e981d4f96c4342412d1e68160b30cf70]
link Test to TestType--><path codeLine="46" d="M262.21,180 C283.95,180 311.74,180 335.76,180 " fill="none" id="Test-TestType" style="stroke:#A80036;stroke-width:1.0;"/><polygon fill="#000000" points="289.5,168.1758,280.4549,165.2369,280.4549,171.1147,289.5,168.1758" style="stroke:#000000;stroke-width:1.0;"/><text fill="#000000" font-family="sans-serif" font-size="13" lengthAdjust="spacing" textLength="24" x="293.5" y="173.4951">is of</text><text fill="#000000" font-family="sans-serif" font-size="13" lengthAdjust="spacing" textLength="5" x="270.0279" y="176.0032">*</text><text fill="#000000" font-family="sans-serif" font-size="13" lengthAdjust="spacing" textLength="7" x="321.1356" y="176.4768">1</text><!--MD5=[51a9f93d924aea77dd04bc827accab22]
link Test to apoint486--><path d="M213.35,221.42 C207.18,237.6 198.29,255.55 186,269 C167.48,289.27 153.92,282.47 132,299 C124.25,304.84 116.55,313.73 113.94,316.86 " fill="none" id="Test-apoint486" style="stroke:#A80036;stroke-width:1.0;"/><polygon fill="#000000" points="200.3932,263.6386,208.9534,259.4944,204.8826,255.2543,200.3932,263.6386" style="stroke:#000000;stroke-width:1.0;"/><text fill="#000000" font-family="sans-serif" font-size="13" lengthAdjust="spacing" textLength="116" x="213" y="265.4951">requests analysis of</text><text fill="#000000" font-family="sans-serif" font-size="13" lengthAdjust="spacing" textLength="5" x="206.3602" y="241.9241">*</text><!--MD5=[2c239692e2a518620208b605a6b68b1e]
link apoint486 to Parameter--><path d="M112.31,321.54 C108.18,330.83 86.17,380.25 69.93,416.73 " fill="none" id="apoint486-Parameter" style="stroke:#A80036;stroke-width:1.0;"/><text fill="#000000" font-family="sans-serif" font-size="13" lengthAdjust="spacing" textLength="20" x="51.2434" y="406.1346">1..*</text><!--MD5=[63108c05c628990bc25be27037e082fb]
link apoint486 to TestParameter--><path d="M115.2,319 C126.8,319 138.39,319 149.99,319 " fill="none" id="apoint486-TestParameter" style="stroke:#A80036;stroke-width:1.0;stroke-dasharray:7.0,7.0;"/><!--MD5=[0e00e25ac6b8c14659aaff2cf7e5df08]
link TestParameter to TestParameterResult--><path codeLine="49" d="M207,339.05 C207,359.05 207,391.09 207,416.73 " fill="none" id="TestParameter-TestParameterResult" style="stroke:#A80036;stroke-width:1.0;"/><polygon fill="#000000" points="212,383.1758,214.9389,374.1307,209.0611,374.1307,212,383.1758" style="stroke:#000000;stroke-width:1.0;"/><text fill="#000000" font-family="sans-serif" font-size="13" lengthAdjust="spacing" textLength="49" x="221" y="383.4951">contains</text><text fill="#000000" font-family="sans-serif" font-size="13" lengthAdjust="spacing" textLength="7" x="199.0156" y="360.4836">1</text><text fill="#000000" font-family="sans-serif" font-size="13" lengthAdjust="spacing" textLength="22" x="183.1781" y="406.1346">0..1</text><!--MD5=[52200cc2361fa0ac0481dd6ffcdb824b]
link TestParameterResult to ReferenceValue--><path codeLine="50" d="M201.4,499.36 C197.86,524.94 193.43,556.84 190.66,576.82 " fill="none" id="TestParameterResult-ReferenceValue" style="stroke:#A80036;stroke-width:1.0;"/><polygon fill="#000000" points="201.3133,543.1284,205.4666,534.5727,199.6445,533.7654,201.3133,543.1284" style="stroke:#000000;stroke-width:1.0;"/><text fill="#000000" font-family="sans-serif" font-size="13" lengthAdjust="spacing" textLength="36" x="211" y="543.4951">record</text><text fill="#000000" font-family="sans-serif" font-size="13" lengthAdjust="spacing" textLength="7" x="193.1203" y="519.8557">1</text><text fill="#000000" font-family="sans-serif" font-size="13" lengthAdjust="spacing" textLength="7" x="183.4133" y="566.0889">1</text><!--MD5=[71e6920dcc27afae8f25537cd5357b5f]
link TestType to ExternalModule--><path codeLine="51" d="M392.1,221.17 C398.84,308.64 414.64,513.57 419.53,576.97 " fill="none" id="TestType-ExternalModule" style="stroke:#A80036;stroke-width:1.0;"/><polygon fill="#000000" points="410.3843,383.161,412.6193,373.9168,406.7588,374.3686,410.3843,383.161" style="stroke:#000000;stroke-width:1.0;"/><text fill="#000000" font-family="sans-serif" font-size="13" lengthAdjust="spacing" textLength="78" x="419" y="383.4951">makes use of</text><text fill="#000000" font-family="sans-serif" font-size="13" lengthAdjust="spacing" textLength="5" x="387.1881" y="241.9489">*</text><text fill="#000000" font-family="sans-serif" font-size="13" lengthAdjust="spacing" textLength="7" x="411.0701" y="566.2829">1</text><!--MD5=[47d5d48ac72ae1cb608520c7e2c0e27c]
@startuml

hide methods


class Company{
-designation
}

class Test{
-code
-NhsCode
-createdAt
}

class TestType{
-code
-description
-collectingMethod
}

class ExternalModule{
}

class ReferenceValue{
}

class TestParameterResult{
-createdAt
-value
-metric
}

class TestParameter{
}

class Parameter{
-code
-shortName
-description
}

Company "1" - - "*" Parameter: capable of analysing >
Company "1" - - "*" Test: performs >
Company "1" - - "*" TestType: conducts >
ReferenceValue "*" - "1" ExternalModule: provided by >
Test "*" - "1"TestType: is of >
Test "*" - - "1..*" Parameter: requests analysis of >
(Test, Parameter) .. TestParameter
TestParameter "1" - - "0..1" TestParameterResult: contains >
TestParameterResult "1" - - "1" ReferenceValue: record >
TestType "*" - "1" ExternalModule: makes use of >


@enduml

PlantUML version 1.2021.7(Sun May 23 13:40:07 BST 2021)
(GPL source distribution)
Java Runtime: OpenJDK Runtime Environment
JVM: Dynamic Code Evolution 64-Bit Server VM
Default Encoding: Cp1252
Language: pt
Country: PT
--></g></svg>