<?xml version="1.0" encoding="UTF-8" standalone="no"?><svg xmlns="http://www.w3.org/2000/svg" xmlns:xlink="http://www.w3.org/1999/xlink" contentScriptType="application/ecmascript" contentStyleType="text/css" height="2494.5px" preserveAspectRatio="none" style="width:1515px;height:2494px;background:#FFFFFF;" version="1.1" viewBox="0 0 1515 2494" width="1515px" zoomAndPan="magnify"><defs><filter height="300%" id="fyqd9x6msuy8z" width="300%" x="-1" y="-1"><feGaussianBlur result="blurOut" stdDeviation="3.0"/><feColorMatrix in="blurOut" result="blurOut2" type="matrix" values="0 0 0 0 0 0 0 0 0 0 0 0 0 0 0 0 0 0 .4 0"/><feOffset dx="6.0" dy="6.0" in="blurOut2" result="blurOut3"/><feBlend in="SourceGraphic" in2="blurOut3" mode="normal"/></filter></defs><g><!--MD5=[d1151b490b47c26d82d7d928d07b6146]
class RecordResultUI--><rect codeLine="3" fill="#FEFECE" filter="url(#fyqd9x6msuy8z)" height="72" id="RecordResultUI" style="stroke:#A80036;stroke-width:2.25;" width="180" x="364.5" y="10.5"/><ellipse cx="387" cy="34.5" fill="#ADD1B2" rx="16.5" ry="16.5" style="stroke:#A80036;stroke-width:1.5;"/><path d="M390,29.25 Q390.3047,28.5 390.6563,28.125 Q391.0078,27.75 391.4063,27.75 Q392.1094,27.75 392.5547,28.1719 Q393,28.5938 393,29.5781 L393,31.9219 Q393,32.9063 392.5781,33.3281 Q392.1563,33.75 391.5,33.75 Q390.9141,33.75 390.5391,33.4922 Q390.1641,33.2344 390,32.5547 Q389.9297,32.0859 389.6719,31.8281 Q389.2031,31.3359 388.3594,31.0547 Q387.5156,30.75 386.6719,30.75 Q385.6172,30.75 384.7266,31.1719 Q383.8594,31.5938 383.1797,32.5313 Q382.5,33.4688 382.5,34.7578 L382.5,36.1406 Q382.5,37.6875 383.7656,38.7188 Q385.0313,39.75 387.2813,39.75 Q388.6172,39.75 389.5547,39.4453 Q390.0938,39.2813 390.7031,38.7422 Q391.1016,38.4375 391.3125,38.3438 Q391.5234,38.25 391.7813,38.25 Q392.2734,38.25 392.625,38.6484 Q393,39.0234 393,39.5625 Q393,40.0781 392.4844,40.6875 Q391.7344,41.5781 390.5391,42.0703 Q388.9688,42.75 387.0469,42.75 Q384.7969,42.75 382.9922,41.8594 Q381.5391,41.1563 380.5078,39.6328 Q379.5,38.1094 379.5,36.3047 L379.5,34.6641 Q379.5,32.7891 380.3906,31.1484 Q381.3047,29.5078 382.875,28.6406 Q384.4688,27.75 386.25,27.75 Q387.3281,27.75 388.2656,28.125 Q389.2031,28.5 390,29.25 Z " fill="#000000"/><text fill="#000000" font-family="sans-serif" font-size="18" lengthAdjust="spacing" textLength="132" x="408" y="41.8652">RecordResultUI</text><line style="stroke:#A80036;stroke-width:2.25;" x1="366" x2="543" y1="58.5" y2="58.5"/><line style="stroke:#A80036;stroke-width:2.25;" x1="366" x2="543" y1="70.5" y2="70.5"/><!--MD5=[b7749eeb332e823be77fccb8e3a3d9bf]
class RecordResultController--><rect codeLine="5" fill="#FEFECE" filter="url(#fyqd9x6msuy8z)" height="113.5078" id="RecordResultController" style="stroke:#A80036;stroke-width:2.25;" width="310.5" x="299.25" y="174"/><ellipse cx="352.125" cy="198" fill="#ADD1B2" rx="16.5" ry="16.5" style="stroke:#A80036;stroke-width:1.5;"/><path d="M355.125,192.75 Q355.4297,192 355.7813,191.625 Q356.1328,191.25 356.5313,191.25 Q357.2344,191.25 357.6797,191.6719 Q358.125,192.0938 358.125,193.0781 L358.125,195.4219 Q358.125,196.4063 357.7031,196.8281 Q357.2813,197.25 356.625,197.25 Q356.0391,197.25 355.6641,196.9922 Q355.2891,196.7344 355.125,196.0547 Q355.0547,195.5859 354.7969,195.3281 Q354.3281,194.8359 353.4844,194.5547 Q352.6406,194.25 351.7969,194.25 Q350.7422,194.25 349.8516,194.6719 Q348.9844,195.0938 348.3047,196.0313 Q347.625,196.9688 347.625,198.2578 L347.625,199.6406 Q347.625,201.1875 348.8906,202.2188 Q350.1563,203.25 352.4063,203.25 Q353.7422,203.25 354.6797,202.9453 Q355.2188,202.7813 355.8281,202.2422 Q356.2266,201.9375 356.4375,201.8438 Q356.6484,201.75 356.9063,201.75 Q357.3984,201.75 357.75,202.1484 Q358.125,202.5234 358.125,203.0625 Q358.125,203.5781 357.6094,204.1875 Q356.8594,205.0781 355.6641,205.5703 Q354.0938,206.25 352.1719,206.25 Q349.9219,206.25 348.1172,205.3594 Q346.6641,204.6563 345.6328,203.1328 Q344.625,201.6094 344.625,199.8047 L344.625,198.1641 Q344.625,196.2891 345.5156,194.6484 Q346.4297,193.0078 348,192.1406 Q349.5938,191.25 351.375,191.25 Q352.4531,191.25 353.3906,191.625 Q354.3281,192 355.125,192.75 Z " fill="#000000"/><text fill="#000000" font-family="sans-serif" font-size="18" lengthAdjust="spacing" textLength="195" x="379.875" y="205.3652">RecordResultController</text><line style="stroke:#A80036;stroke-width:2.25;" x1="300.75" x2="608.25" y1="222" y2="222"/><line style="stroke:#A80036;stroke-width:2.25;" x1="300.75" x2="608.25" y1="234" y2="234"/><ellipse cx="315.75" cy="250.5" fill="#84BE84" rx="4.5" ry="4.5" style="stroke:#038048;stroke-width:1.5;"/><text fill="#000000" font-family="sans-serif" font-size="16.5" lengthAdjust="spacing" textLength="228" x="329.25" y="257.1284">getTestParameterList(sampleId)</text><ellipse cx="315.75" cy="271.2539" fill="#84BE84" rx="4.5" ry="4.5" style="stroke:#038048;stroke-width:1.5;"/><text fill="#000000" font-family="sans-serif" font-size="16.5" lengthAdjust="spacing" textLength="271.5" x="329.25" y="277.8823">addTestResult(parameterCode,result)</text><!--MD5=[02e4b9b7573f1156f41e60aa5b4e25a4]
class Company--><rect codeLine="9" fill="#FEFECE" filter="url(#fyqd9x6msuy8z)" height="134.2617" id="Company" style="stroke:#A80036;stroke-width:2.25;" width="165" x="51" y="379.5"/><ellipse cx="90.375" cy="403.5" fill="#ADD1B2" rx="16.5" ry="16.5" style="stroke:#A80036;stroke-width:1.5;"/><path d="M93.375,398.25 Q93.6797,397.5 94.0313,397.125 Q94.3828,396.75 94.7813,396.75 Q95.4844,396.75 95.9297,397.1719 Q96.375,397.5938 96.375,398.5781 L96.375,400.9219 Q96.375,401.9063 95.9531,402.3281 Q95.5313,402.75 94.875,402.75 Q94.2891,402.75 93.9141,402.4922 Q93.5391,402.2344 93.375,401.5547 Q93.3047,401.0859 93.0469,400.8281 Q92.5781,400.3359 91.7344,400.0547 Q90.8906,399.75 90.0469,399.75 Q88.9922,399.75 88.1016,400.1719 Q87.2344,400.5938 86.5547,401.5313 Q85.875,402.4688 85.875,403.7578 L85.875,405.1406 Q85.875,406.6875 87.1406,407.7188 Q88.4063,408.75 90.6563,408.75 Q91.9922,408.75 92.9297,408.4453 Q93.4688,408.2813 94.0781,407.7422 Q94.4766,407.4375 94.6875,407.3438 Q94.8984,407.25 95.1563,407.25 Q95.6484,407.25 96,407.6484 Q96.375,408.0234 96.375,408.5625 Q96.375,409.0781 95.8594,409.6875 Q95.1094,410.5781 93.9141,411.0703 Q92.3438,411.75 90.4219,411.75 Q88.1719,411.75 86.3672,410.8594 Q84.9141,410.1563 83.8828,408.6328 Q82.875,407.1094 82.875,405.3047 L82.875,403.6641 Q82.875,401.7891 83.7656,400.1484 Q84.6797,398.5078 86.25,397.6406 Q87.8438,396.75 89.625,396.75 Q90.7031,396.75 91.6406,397.125 Q92.5781,397.5 93.375,398.25 Z " fill="#000000"/><text fill="#000000" font-family="sans-serif" font-size="18" lengthAdjust="spacing" textLength="79.5" x="115.125" y="410.8652">Company</text><line style="stroke:#A80036;stroke-width:2.25;" x1="52.5" x2="214.5" y1="427.5" y2="427.5"/><rect fill="none" height="9" style="stroke:#C82930;stroke-width:1.5;" width="9" x="63" y="439.5"/><text fill="#000000" font-family="sans-serif" font-size="16.5" lengthAdjust="spacing" textLength="82.5" x="81" y="450.6284">designation</text><line style="stroke:#A80036;stroke-width:2.25;" x1="52.5" x2="214.5" y1="460.2539" y2="460.2539"/><ellipse cx="67.5" cy="476.7539" fill="#84BE84" rx="4.5" ry="4.5" style="stroke:#038048;stroke-width:1.5;"/><text fill="#000000" font-family="sans-serif" font-size="16.5" lengthAdjust="spacing" textLength="126" x="81" y="483.3823">getSampleStore()</text><ellipse cx="67.5" cy="497.5078" fill="#84BE84" rx="4.5" ry="4.5" style="stroke:#038048;stroke-width:1.5;"/><text fill="#000000" font-family="sans-serif" font-size="16.5" lengthAdjust="spacing" textLength="105" x="81" y="504.1362">getTestStore()</text><!--MD5=[fcd6df96e169c9fc6403c4dc9bdb4d83]
class SampleStore--><rect codeLine="14" fill="#FEFECE" filter="url(#fyqd9x6msuy8z)" height="113.5078" id="SampleStore" style="stroke:#A80036;stroke-width:2.25;" width="189" x="10.5" y="714"/><ellipse cx="47.85" cy="738" fill="#ADD1B2" rx="16.5" ry="16.5" style="stroke:#A80036;stroke-width:1.5;"/><path d="M50.85,732.75 Q51.1547,732 51.5062,731.625 Q51.8578,731.25 52.2562,731.25 Q52.9594,731.25 53.4047,731.6719 Q53.85,732.0938 53.85,733.0781 L53.85,735.4219 Q53.85,736.4063 53.4281,736.8281 Q53.0062,737.25 52.35,737.25 Q51.7641,737.25 51.3891,736.9922 Q51.0141,736.7344 50.85,736.0547 Q50.7797,735.5859 50.5219,735.3281 Q50.0531,734.8359 49.2094,734.5547 Q48.3656,734.25 47.5219,734.25 Q46.4672,734.25 45.5766,734.6719 Q44.7094,735.0938 44.0297,736.0313 Q43.35,736.9688 43.35,738.2578 L43.35,739.6406 Q43.35,741.1875 44.6156,742.2188 Q45.8812,743.25 48.1312,743.25 Q49.4672,743.25 50.4047,742.9453 Q50.9437,742.7813 51.5531,742.2422 Q51.9516,741.9375 52.1625,741.8438 Q52.3734,741.75 52.6312,741.75 Q53.1234,741.75 53.475,742.1484 Q53.85,742.5234 53.85,743.0625 Q53.85,743.5781 53.3344,744.1875 Q52.5844,745.0781 51.3891,745.5703 Q49.8187,746.25 47.8969,746.25 Q45.6469,746.25 43.8422,745.3594 Q42.3891,744.6563 41.3578,743.1328 Q40.35,741.6094 40.35,739.8047 L40.35,738.1641 Q40.35,736.2891 41.2406,734.6484 Q42.1547,733.0078 43.725,732.1406 Q45.3187,731.25 47.1,731.25 Q48.1781,731.25 49.1156,731.625 Q50.0531,732 50.85,732.75 Z " fill="#000000"/><text fill="#000000" font-family="sans-serif" font-size="18" lengthAdjust="spacing" textLength="108" x="72.15" y="745.3652">SampleStore</text><line style="stroke:#A80036;stroke-width:2.25;" x1="12" x2="198" y1="762" y2="762"/><rect fill="none" height="9" style="stroke:#C82930;stroke-width:1.5;" width="9" x="22.5" y="774"/><text fill="#000000" font-family="sans-serif" font-size="16.5" lengthAdjust="spacing" textLength="76.5" x="40.5" y="785.1284">sampleList</text><line style="stroke:#A80036;stroke-width:2.25;" x1="12" x2="198" y1="794.7539" y2="794.7539"/><ellipse cx="27" cy="811.2539" fill="#84BE84" rx="4.5" ry="4.5" style="stroke:#038048;stroke-width:1.5;"/><text fill="#000000" font-family="sans-serif" font-size="16.5" lengthAdjust="spacing" textLength="150" x="40.5" y="817.8823">getSample(sampleId)</text><!--MD5=[9681492165142af2a4a3a169d90ee8d4]
class Sample--><rect codeLine="18" fill="#FEFECE" filter="url(#fyqd9x6msuy8z)" height="134.2617" id="Sample" style="stroke:#A80036;stroke-width:2.25;" width="118.5" x="308.25" y="703.5"/><ellipse cx="333.45" cy="727.5" fill="#ADD1B2" rx="16.5" ry="16.5" style="stroke:#A80036;stroke-width:1.5;"/><path d="M336.45,722.25 Q336.7547,721.5 337.1063,721.125 Q337.4578,720.75 337.8563,720.75 Q338.5594,720.75 339.0047,721.1719 Q339.45,721.5938 339.45,722.5781 L339.45,724.9219 Q339.45,725.9063 339.0281,726.3281 Q338.6063,726.75 337.95,726.75 Q337.3641,726.75 336.9891,726.4922 Q336.6141,726.2344 336.45,725.5547 Q336.3797,725.0859 336.1219,724.8281 Q335.6531,724.3359 334.8094,724.0547 Q333.9656,723.75 333.1219,723.75 Q332.0672,723.75 331.1766,724.1719 Q330.3094,724.5938 329.6297,725.5313 Q328.95,726.4688 328.95,727.7578 L328.95,729.1406 Q328.95,730.6875 330.2156,731.7188 Q331.4813,732.75 333.7313,732.75 Q335.0672,732.75 336.0047,732.4453 Q336.5438,732.2813 337.1531,731.7422 Q337.5516,731.4375 337.7625,731.3438 Q337.9734,731.25 338.2313,731.25 Q338.7234,731.25 339.075,731.6484 Q339.45,732.0234 339.45,732.5625 Q339.45,733.0781 338.9344,733.6875 Q338.1844,734.5781 336.9891,735.0703 Q335.4188,735.75 333.4969,735.75 Q331.2469,735.75 329.4422,734.8594 Q327.9891,734.1563 326.9578,732.6328 Q325.95,731.1094 325.95,729.3047 L325.95,727.6641 Q325.95,725.7891 326.8406,724.1484 Q327.7547,722.5078 329.325,721.6406 Q330.9188,720.75 332.7,720.75 Q333.7781,720.75 334.7156,721.125 Q335.6531,721.5 336.45,722.25 Z " fill="#000000"/><text fill="#000000" font-family="sans-serif" font-size="18" lengthAdjust="spacing" textLength="64.5" x="355.05" y="734.8652">Sample</text><line style="stroke:#A80036;stroke-width:2.25;" x1="309.75" x2="425.25" y1="751.5" y2="751.5"/><rect fill="none" height="9" style="stroke:#C82930;stroke-width:1.5;" width="9" x="320.25" y="763.5"/><text fill="#000000" font-family="sans-serif" font-size="16.5" lengthAdjust="spacing" textLength="63" x="338.25" y="774.6284">sampleId</text><rect fill="none" height="9" style="stroke:#C82930;stroke-width:1.5;" width="9" x="320.25" y="784.2539"/><text fill="#000000" font-family="sans-serif" font-size="16.5" lengthAdjust="spacing" textLength="39" x="338.25" y="795.3823">testId</text><line style="stroke:#A80036;stroke-width:2.25;" x1="309.75" x2="425.25" y1="805.0078" y2="805.0078"/><ellipse cx="324.75" cy="821.5078" fill="#84BE84" rx="4.5" ry="4.5" style="stroke:#038048;stroke-width:1.5;"/><text fill="#000000" font-family="sans-serif" font-size="16.5" lengthAdjust="spacing" textLength="79.5" x="338.25" y="828.1362">getTestID()</text><!--MD5=[df38be88ccee13e832d6fafd6288a4ca]
class Test--><rect codeLine="23" fill="#FEFECE" filter="url(#fyqd9x6msuy8z)" height="279.5391" id="Test" style="stroke:#A80036;stroke-width:2.25;" width="310.5" x="479.25" y="631.5"/><ellipse cx="610.125" cy="655.5" fill="#ADD1B2" rx="16.5" ry="16.5" style="stroke:#A80036;stroke-width:1.5;"/><path d="M613.125,650.25 Q613.4297,649.5 613.7813,649.125 Q614.1328,648.75 614.5313,648.75 Q615.2344,648.75 615.6797,649.1719 Q616.125,649.5938 616.125,650.5781 L616.125,652.9219 Q616.125,653.9063 615.7031,654.3281 Q615.2813,654.75 614.625,654.75 Q614.0391,654.75 613.6641,654.4922 Q613.2891,654.2344 613.125,653.5547 Q613.0547,653.0859 612.7969,652.8281 Q612.3281,652.3359 611.4844,652.0547 Q610.6406,651.75 609.7969,651.75 Q608.7422,651.75 607.8516,652.1719 Q606.9844,652.5938 606.3047,653.5313 Q605.625,654.4688 605.625,655.7578 L605.625,657.1406 Q605.625,658.6875 606.8906,659.7188 Q608.1563,660.75 610.4063,660.75 Q611.7422,660.75 612.6797,660.4453 Q613.2188,660.2813 613.8281,659.7422 Q614.2266,659.4375 614.4375,659.3438 Q614.6484,659.25 614.9063,659.25 Q615.3984,659.25 615.75,659.6484 Q616.125,660.0234 616.125,660.5625 Q616.125,661.0781 615.6094,661.6875 Q614.8594,662.5781 613.6641,663.0703 Q612.0938,663.75 610.1719,663.75 Q607.9219,663.75 606.1172,662.8594 Q604.6641,662.1563 603.6328,660.6328 Q602.625,659.1094 602.625,657.3047 L602.625,655.6641 Q602.625,653.7891 603.5156,652.1484 Q604.4297,650.5078 606,649.6406 Q607.5938,648.75 609.375,648.75 Q610.4531,648.75 611.3906,649.125 Q612.3281,649.5 613.125,650.25 Z " fill="#000000"/><text fill="#000000" font-family="sans-serif" font-size="18" lengthAdjust="spacing" textLength="36" x="640.875" y="662.8652">Test</text><line style="stroke:#A80036;stroke-width:2.25;" x1="480.75" x2="788.25" y1="679.5" y2="679.5"/><rect fill="none" height="9" style="stroke:#C82930;stroke-width:1.5;" width="9" x="491.25" y="691.5"/><text fill="#000000" font-family="sans-serif" font-size="16.5" lengthAdjust="spacing" textLength="40.5" x="509.25" y="702.6284">state;</text><rect fill="none" height="9" style="stroke:#C82930;stroke-width:1.5;" width="9" x="491.25" y="712.2539"/><text fill="#000000" font-family="sans-serif" font-size="16.5" lengthAdjust="spacing" textLength="64.5" x="509.25" y="723.3823">testCode</text><rect fill="none" height="9" style="stroke:#C82930;stroke-width:1.5;" width="9" x="491.25" y="733.0078"/><text fill="#000000" font-family="sans-serif" font-size="16.5" lengthAdjust="spacing" textLength="111" x="509.25" y="744.1362">testNhsNumber</text><rect fill="none" height="9" style="stroke:#C82930;stroke-width:1.5;" width="9" x="491.25" y="753.7617"/><text fill="#000000" font-family="sans-serif" font-size="16.5" lengthAdjust="spacing" textLength="58.5" x="509.25" y="764.8901">clientTin</text><rect fill="none" height="9" style="stroke:#C82930;stroke-width:1.5;" width="9" x="491.25" y="774.5156"/><text fill="#000000" font-family="sans-serif" font-size="16.5" lengthAdjust="spacing" textLength="63" x="509.25" y="785.644">testType</text><rect fill="none" height="9" style="stroke:#C82930;stroke-width:1.5;" width="9" x="491.25" y="795.2695"/><text fill="#000000" font-family="sans-serif" font-size="16.5" lengthAdjust="spacing" textLength="72" x="509.25" y="806.3979">testParam</text><rect fill="none" height="9" style="stroke:#C82930;stroke-width:1.5;" width="9" x="491.25" y="816.0234"/><text fill="#000000" font-family="sans-serif" font-size="16.5" lengthAdjust="spacing" textLength="88.5" x="509.25" y="827.1519">createdDate</text><rect fill="none" height="9" style="stroke:#C82930;stroke-width:1.5;" width="9" x="491.25" y="836.7773"/><text fill="#000000" font-family="sans-serif" font-size="16.5" lengthAdjust="spacing" textLength="141" x="509.25" y="847.9058">sampleCreatedDate</text><line style="stroke:#A80036;stroke-width:2.25;" x1="480.75" x2="788.25" y1="857.5313" y2="857.5313"/><ellipse cx="495.75" cy="874.0313" fill="#84BE84" rx="4.5" ry="4.5" style="stroke:#038048;stroke-width:1.5;"/><text fill="#000000" font-family="sans-serif" font-size="16.5" lengthAdjust="spacing" textLength="165" x="509.25" y="880.6597">getTestParameterList()</text><ellipse cx="495.75" cy="894.7852" fill="#84BE84" rx="4.5" ry="4.5" style="stroke:#038048;stroke-width:1.5;"/><text fill="#000000" font-family="sans-serif" font-size="16.5" lengthAdjust="spacing" textLength="271.5" x="509.25" y="901.4136">addTestResult(parameterCode,result)</text><!--MD5=[76b0da115d32a89fc61a2abda59b6b4b]
class TestParameterList--><rect codeLine="35" fill="#FEFECE" filter="url(#fyqd9x6msuy8z)" height="92.7539" id="TestParameterList" style="stroke:#A80036;stroke-width:2.25;" width="282" x="1018.5" y="724.5"/><ellipse cx="1077.45" cy="748.5" fill="#ADD1B2" rx="16.5" ry="16.5" style="stroke:#A80036;stroke-width:1.5;"/><path d="M1080.45,743.25 Q1080.7547,742.5 1081.1062,742.125 Q1081.4578,741.75 1081.8562,741.75 Q1082.5594,741.75 1083.0047,742.1719 Q1083.45,742.5938 1083.45,743.5781 L1083.45,745.9219 Q1083.45,746.9063 1083.0281,747.3281 Q1082.6062,747.75 1081.95,747.75 Q1081.3641,747.75 1080.9891,747.4922 Q1080.6141,747.2344 1080.45,746.5547 Q1080.3797,746.0859 1080.1219,745.8281 Q1079.6531,745.3359 1078.8094,745.0547 Q1077.9656,744.75 1077.1219,744.75 Q1076.0672,744.75 1075.1766,745.1719 Q1074.3094,745.5938 1073.6297,746.5313 Q1072.95,747.4688 1072.95,748.7578 L1072.95,750.1406 Q1072.95,751.6875 1074.2156,752.7188 Q1075.4812,753.75 1077.7312,753.75 Q1079.0672,753.75 1080.0047,753.4453 Q1080.5437,753.2813 1081.1531,752.7422 Q1081.5516,752.4375 1081.7625,752.3438 Q1081.9734,752.25 1082.2312,752.25 Q1082.7234,752.25 1083.075,752.6484 Q1083.45,753.0234 1083.45,753.5625 Q1083.45,754.0781 1082.9344,754.6875 Q1082.1844,755.5781 1080.9891,756.0703 Q1079.4187,756.75 1077.4969,756.75 Q1075.2469,756.75 1073.4422,755.8594 Q1071.9891,755.1563 1070.9578,753.6328 Q1069.95,752.1094 1069.95,750.3047 L1069.95,748.6641 Q1069.95,746.7891 1070.8406,745.1484 Q1071.7547,743.5078 1073.325,742.6406 Q1074.9187,741.75 1076.7,741.75 Q1077.7781,741.75 1078.7156,742.125 Q1079.6531,742.5 1080.45,743.25 Z " fill="#000000"/><text fill="#000000" font-family="sans-serif" font-size="18" lengthAdjust="spacing" textLength="153" x="1106.55" y="755.8652">TestParameterList</text><line style="stroke:#A80036;stroke-width:2.25;" x1="1020" x2="1299" y1="772.5" y2="772.5"/><line style="stroke:#A80036;stroke-width:2.25;" x1="1020" x2="1299" y1="784.5" y2="784.5"/><ellipse cx="1035" cy="801" fill="#84BE84" rx="4.5" ry="4.5" style="stroke:#038048;stroke-width:1.5;"/><text fill="#000000" font-family="sans-serif" font-size="16.5" lengthAdjust="spacing" textLength="243" x="1048.5" y="807.6284">getParameterFor(parameterCode)</text><!--MD5=[0f6f7964b844a64b0496af0dda7914bd]
class TestStore--><rect codeLine="38" fill="#FEFECE" filter="url(#fyqd9x6msuy8z)" height="113.5078" id="TestStore" style="stroke:#A80036;stroke-width:2.25;" width="225" x="330" y="390"/><ellipse cx="396.375" cy="414" fill="#ADD1B2" rx="16.5" ry="16.5" style="stroke:#A80036;stroke-width:1.5;"/><path d="M399.375,408.75 Q399.6797,408 400.0313,407.625 Q400.3828,407.25 400.7813,407.25 Q401.4844,407.25 401.9297,407.6719 Q402.375,408.0938 402.375,409.0781 L402.375,411.4219 Q402.375,412.4063 401.9531,412.8281 Q401.5313,413.25 400.875,413.25 Q400.2891,413.25 399.9141,412.9922 Q399.5391,412.7344 399.375,412.0547 Q399.3047,411.5859 399.0469,411.3281 Q398.5781,410.8359 397.7344,410.5547 Q396.8906,410.25 396.0469,410.25 Q394.9922,410.25 394.1016,410.6719 Q393.2344,411.0938 392.5547,412.0313 Q391.875,412.9688 391.875,414.2578 L391.875,415.6406 Q391.875,417.1875 393.1406,418.2188 Q394.4063,419.25 396.6563,419.25 Q397.9922,419.25 398.9297,418.9453 Q399.4688,418.7813 400.0781,418.2422 Q400.4766,417.9375 400.6875,417.8438 Q400.8984,417.75 401.1563,417.75 Q401.6484,417.75 402,418.1484 Q402.375,418.5234 402.375,419.0625 Q402.375,419.5781 401.8594,420.1875 Q401.1094,421.0781 399.9141,421.5703 Q398.3438,422.25 396.4219,422.25 Q394.1719,422.25 392.3672,421.3594 Q390.9141,420.6563 389.8828,419.1328 Q388.875,417.6094 388.875,415.8047 L388.875,414.1641 Q388.875,412.2891 389.7656,410.6484 Q390.6797,409.0078 392.25,408.1406 Q393.8438,407.25 395.625,407.25 Q396.7031,407.25 397.6406,407.625 Q398.5781,408 399.375,408.75 Z " fill="#000000"/><text fill="#000000" font-family="sans-serif" font-size="18" lengthAdjust="spacing" textLength="79.5" x="427.125" y="421.3652">TestStore</text><line style="stroke:#A80036;stroke-width:2.25;" x1="331.5" x2="553.5" y1="438" y2="438"/><rect fill="none" height="9" style="stroke:#C82930;stroke-width:1.5;" width="9" x="342" y="450"/><text fill="#000000" font-family="sans-serif" font-size="16.5" lengthAdjust="spacing" textLength="52.5" x="360" y="461.1284">testList</text><line style="stroke:#A80036;stroke-width:2.25;" x1="331.5" x2="553.5" y1="470.7539" y2="470.7539"/><ellipse cx="346.5" cy="487.2539" fill="#84BE84" rx="4.5" ry="4.5" style="stroke:#038048;stroke-width:1.5;"/><text fill="#000000" font-family="sans-serif" font-size="16.5" lengthAdjust="spacing" textLength="186" x="360" y="493.8823">getTestByCode(sampleId)</text><!--MD5=[f00f90d115d6875ad2fc8ae1987d3643]
class TestParameterStoreMapper--><rect codeLine="42" fill="#FEFECE" filter="url(#fyqd9x6msuy8z)" height="113.5078" id="TestParameterStoreMapper" style="stroke:#A80036;stroke-width:2.25;" width="276" x="678" y="174"/><ellipse cx="700.5" cy="198" fill="#ADD1B2" rx="16.5" ry="16.5" style="stroke:#A80036;stroke-width:1.5;"/><path d="M703.5,192.75 Q703.8047,192 704.1563,191.625 Q704.5078,191.25 704.9063,191.25 Q705.6094,191.25 706.0547,191.6719 Q706.5,192.0938 706.5,193.0781 L706.5,195.4219 Q706.5,196.4063 706.0781,196.8281 Q705.6563,197.25 705,197.25 Q704.4141,197.25 704.0391,196.9922 Q703.6641,196.7344 703.5,196.0547 Q703.4297,195.5859 703.1719,195.3281 Q702.7031,194.8359 701.8594,194.5547 Q701.0156,194.25 700.1719,194.25 Q699.1172,194.25 698.2266,194.6719 Q697.3594,195.0938 696.6797,196.0313 Q696,196.9688 696,198.2578 L696,199.6406 Q696,201.1875 697.2656,202.2188 Q698.5313,203.25 700.7813,203.25 Q702.1172,203.25 703.0547,202.9453 Q703.5938,202.7813 704.2031,202.2422 Q704.6016,201.9375 704.8125,201.8438 Q705.0234,201.75 705.2813,201.75 Q705.7734,201.75 706.125,202.1484 Q706.5,202.5234 706.5,203.0625 Q706.5,203.5781 705.9844,204.1875 Q705.2344,205.0781 704.0391,205.5703 Q702.4688,206.25 700.5469,206.25 Q698.2969,206.25 696.4922,205.3594 Q695.0391,204.6563 694.0078,203.1328 Q693,201.6094 693,199.8047 L693,198.1641 Q693,196.2891 693.8906,194.6484 Q694.8047,193.0078 696.375,192.1406 Q697.9688,191.25 699.75,191.25 Q700.8281,191.25 701.7656,191.625 Q702.7031,192 703.5,192.75 Z " fill="#000000"/><text fill="#000000" font-family="sans-serif" font-size="18" lengthAdjust="spacing" textLength="228" x="721.5" y="205.3652">TestParameterStoreMapper</text><line style="stroke:#A80036;stroke-width:2.25;" x1="679.5" x2="952.5" y1="222" y2="222"/><line style="stroke:#A80036;stroke-width:2.25;" x1="679.5" x2="952.5" y1="234" y2="234"/><ellipse cx="694.5" cy="250.5" fill="#84BE84" rx="4.5" ry="4.5" style="stroke:#038048;stroke-width:1.5;"/><text fill="#000000" font-family="sans-serif" font-size="16.5" lengthAdjust="spacing" textLength="91.5" x="708" y="257.1284">toDTO(pList)</text><rect fill="#F24D5C" height="9" style="stroke:#C82930;stroke-width:1.5;" width="9" x="690" y="266.7539"/><text fill="#000000" font-family="sans-serif" font-size="16.5" lengthAdjust="spacing" textLength="157.5" x="708" y="277.8823">toDTO(testParameter)</text><!--MD5=[16358064a951ae5dfdda1035a51b763d]
class TestParameterDTO--><rect codeLine="46" fill="#FEFECE" filter="url(#fyqd9x6msuy8z)" height="113.5078" id="TestParameterDTO" style="stroke:#A80036;stroke-width:2.25;" width="208.5" x="714.75" y="390"/><ellipse cx="737.25" cy="414" fill="#ADD1B2" rx="16.5" ry="16.5" style="stroke:#A80036;stroke-width:1.5;"/><path d="M740.25,408.75 Q740.5547,408 740.9063,407.625 Q741.2578,407.25 741.6563,407.25 Q742.3594,407.25 742.8047,407.6719 Q743.25,408.0938 743.25,409.0781 L743.25,411.4219 Q743.25,412.4063 742.8281,412.8281 Q742.4063,413.25 741.75,413.25 Q741.1641,413.25 740.7891,412.9922 Q740.4141,412.7344 740.25,412.0547 Q740.1797,411.5859 739.9219,411.3281 Q739.4531,410.8359 738.6094,410.5547 Q737.7656,410.25 736.9219,410.25 Q735.8672,410.25 734.9766,410.6719 Q734.1094,411.0938 733.4297,412.0313 Q732.75,412.9688 732.75,414.2578 L732.75,415.6406 Q732.75,417.1875 734.0156,418.2188 Q735.2813,419.25 737.5313,419.25 Q738.8672,419.25 739.8047,418.9453 Q740.3438,418.7813 740.9531,418.2422 Q741.3516,417.9375 741.5625,417.8438 Q741.7734,417.75 742.0313,417.75 Q742.5234,417.75 742.875,418.1484 Q743.25,418.5234 743.25,419.0625 Q743.25,419.5781 742.7344,420.1875 Q741.9844,421.0781 740.7891,421.5703 Q739.2188,422.25 737.2969,422.25 Q735.0469,422.25 733.2422,421.3594 Q731.7891,420.6563 730.7578,419.1328 Q729.75,417.6094 729.75,415.8047 L729.75,414.1641 Q729.75,412.2891 730.6406,410.6484 Q731.5547,409.0078 733.125,408.1406 Q734.7188,407.25 736.5,407.25 Q737.5781,407.25 738.5156,407.625 Q739.4531,408 740.25,408.75 Z " fill="#000000"/><text fill="#000000" font-family="sans-serif" font-size="18" lengthAdjust="spacing" textLength="160.5" x="758.25" y="421.3652">TestParameterDTO</text><line style="stroke:#A80036;stroke-width:2.25;" x1="716.25" x2="921.75" y1="438" y2="438"/><rect fill="none" height="9" style="stroke:#C82930;stroke-width:1.5;" width="9" x="726.75" y="450"/><text fill="#000000" font-family="sans-serif" font-size="16.5" lengthAdjust="spacing" textLength="45" x="744.75" y="461.1284">pcode</text><line style="stroke:#A80036;stroke-width:2.25;" x1="716.25" x2="921.75" y1="470.7539" y2="470.7539"/><ellipse cx="731.25" cy="487.2539" fill="#84BE84" rx="4.5" ry="4.5" style="stroke:#038048;stroke-width:1.5;"/><text fill="#000000" font-family="sans-serif" font-size="16.5" lengthAdjust="spacing" textLength="79.5" x="744.75" y="493.8823">getPcode()</text><!--MD5=[0f07739f46effee96e095e9c408da841]
class TestParameter--><rect codeLine="50" fill="#FEFECE" filter="url(#fyqd9x6msuy8z)" height="134.2617" id="TestParameter" style="stroke:#A80036;stroke-width:2.25;" width="184.5" x="1059.75" y="1037.25"/><ellipse cx="1088.325" cy="1061.25" fill="#ADD1B2" rx="16.5" ry="16.5" style="stroke:#A80036;stroke-width:1.5;"/><path d="M1091.325,1056 Q1091.6297,1055.25 1091.9812,1054.875 Q1092.3328,1054.5 1092.7312,1054.5 Q1093.4344,1054.5 1093.8797,1054.9219 Q1094.325,1055.3438 1094.325,1056.3281 L1094.325,1058.6719 Q1094.325,1059.6563 1093.9031,1060.0781 Q1093.4812,1060.5 1092.825,1060.5 Q1092.2391,1060.5 1091.8641,1060.2422 Q1091.4891,1059.9844 1091.325,1059.3047 Q1091.2547,1058.8359 1090.9969,1058.5781 Q1090.5281,1058.0859 1089.6844,1057.8047 Q1088.8406,1057.5 1087.9969,1057.5 Q1086.9422,1057.5 1086.0516,1057.9219 Q1085.1844,1058.3438 1084.5047,1059.2813 Q1083.825,1060.2188 1083.825,1061.5078 L1083.825,1062.8906 Q1083.825,1064.4375 1085.0906,1065.4688 Q1086.3562,1066.5 1088.6062,1066.5 Q1089.9422,1066.5 1090.8797,1066.1953 Q1091.4187,1066.0313 1092.0281,1065.4922 Q1092.4266,1065.1875 1092.6375,1065.0938 Q1092.8484,1065 1093.1062,1065 Q1093.5984,1065 1093.95,1065.3984 Q1094.325,1065.7734 1094.325,1066.3125 Q1094.325,1066.8281 1093.8094,1067.4375 Q1093.0594,1068.3281 1091.8641,1068.8203 Q1090.2937,1069.5 1088.3719,1069.5 Q1086.1219,1069.5 1084.3172,1068.6094 Q1082.8641,1067.9063 1081.8328,1066.3828 Q1080.825,1064.8594 1080.825,1063.0547 L1080.825,1061.4141 Q1080.825,1059.5391 1081.7156,1057.8984 Q1082.6297,1056.2578 1084.2,1055.3906 Q1085.7937,1054.5 1087.575,1054.5 Q1088.6531,1054.5 1089.5906,1054.875 Q1090.5281,1055.25 1091.325,1056 Z " fill="#000000"/><text fill="#000000" font-family="sans-serif" font-size="18" lengthAdjust="spacing" textLength="123" x="1110.675" y="1068.6152">TestParameter</text><line style="stroke:#A80036;stroke-width:2.25;" x1="1061.25" x2="1242.75" y1="1085.25" y2="1085.25"/><rect fill="none" height="9" style="stroke:#C82930;stroke-width:1.5;" width="9" x="1071.75" y="1097.25"/><text fill="#000000" font-family="sans-serif" font-size="16.5" lengthAdjust="spacing" textLength="46.5" x="1089.75" y="1108.3784">pCode</text><rect fill="none" height="9" style="stroke:#C82930;stroke-width:1.5;" width="9" x="1071.75" y="1118.0039"/><text fill="#000000" font-family="sans-serif" font-size="16.5" lengthAdjust="spacing" textLength="145.5" x="1089.75" y="1129.1323">testParameterResult</text><line style="stroke:#A80036;stroke-width:2.25;" x1="1061.25" x2="1242.75" y1="1138.7578" y2="1138.7578"/><ellipse cx="1076.25" cy="1155.2578" fill="#84BE84" rx="4.5" ry="4.5" style="stroke:#038048;stroke-width:1.5;"/><text fill="#000000" font-family="sans-serif" font-size="16.5" lengthAdjust="spacing" textLength="108" x="1089.75" y="1161.8862">getParameter()</text><!--MD5=[1f6362a5c8f21d8d6a0fce68f3a92a4e]
class Parameter--><rect codeLine="55" fill="#FEFECE" filter="url(#fyqd9x6msuy8z)" height="155.0156" id="Parameter" style="stroke:#A80036;stroke-width:2.25;" width="135" x="1359" y="1027.5"/><ellipse cx="1381.5" cy="1051.5" fill="#ADD1B2" rx="16.5" ry="16.5" style="stroke:#A80036;stroke-width:1.5;"/><path d="M1384.5,1046.25 Q1384.8047,1045.5 1385.1563,1045.125 Q1385.5078,1044.75 1385.9063,1044.75 Q1386.6094,1044.75 1387.0547,1045.1719 Q1387.5,1045.5938 1387.5,1046.5781 L1387.5,1048.9219 Q1387.5,1049.9063 1387.0781,1050.3281 Q1386.6563,1050.75 1386,1050.75 Q1385.4141,1050.75 1385.0391,1050.4922 Q1384.6641,1050.2344 1384.5,1049.5547 Q1384.4297,1049.0859 1384.1719,1048.8281 Q1383.7031,1048.3359 1382.8594,1048.0547 Q1382.0156,1047.75 1381.1719,1047.75 Q1380.1172,1047.75 1379.2266,1048.1719 Q1378.3594,1048.5938 1377.6797,1049.5313 Q1377,1050.4688 1377,1051.7578 L1377,1053.1406 Q1377,1054.6875 1378.2656,1055.7188 Q1379.5313,1056.75 1381.7813,1056.75 Q1383.1172,1056.75 1384.0547,1056.4453 Q1384.5938,1056.2813 1385.2031,1055.7422 Q1385.6016,1055.4375 1385.8125,1055.3438 Q1386.0234,1055.25 1386.2813,1055.25 Q1386.7734,1055.25 1387.125,1055.6484 Q1387.5,1056.0234 1387.5,1056.5625 Q1387.5,1057.0781 1386.9844,1057.6875 Q1386.2344,1058.5781 1385.0391,1059.0703 Q1383.4688,1059.75 1381.5469,1059.75 Q1379.2969,1059.75 1377.4922,1058.8594 Q1376.0391,1058.1563 1375.0078,1056.6328 Q1374,1055.1094 1374,1053.3047 L1374,1051.6641 Q1374,1049.7891 1374.8906,1048.1484 Q1375.8047,1046.5078 1377.375,1045.6406 Q1378.9688,1044.75 1380.75,1044.75 Q1381.8281,1044.75 1382.7656,1045.125 Q1383.7031,1045.5 1384.5,1046.25 Z " fill="#000000"/><text fill="#000000" font-family="sans-serif" font-size="18" lengthAdjust="spacing" textLength="87" x="1402.5" y="1058.8652">Parameter</text><line style="stroke:#A80036;stroke-width:2.25;" x1="1360.5" x2="1492.5" y1="1075.5" y2="1075.5"/><rect fill="none" height="9" style="stroke:#C82930;stroke-width:1.5;" width="9" x="1371" y="1087.5"/><text fill="#000000" font-family="sans-serif" font-size="16.5" lengthAdjust="spacing" textLength="39" x="1389" y="1098.6284">name</text><rect fill="none" height="9" style="stroke:#C82930;stroke-width:1.5;" width="9" x="1371" y="1108.2539"/><text fill="#000000" font-family="sans-serif" font-size="16.5" lengthAdjust="spacing" textLength="36" x="1389" y="1119.3823">code</text><rect fill="none" height="9" style="stroke:#C82930;stroke-width:1.5;" width="9" x="1371" y="1129.0078"/><text fill="#000000" font-family="sans-serif" font-size="16.5" lengthAdjust="spacing" textLength="79.5" x="1389" y="1140.1362">description</text><rect fill="none" height="9" style="stroke:#C82930;stroke-width:1.5;" width="9" x="1371" y="1149.7617"/><text fill="#000000" font-family="sans-serif" font-size="16.5" lengthAdjust="spacing" textLength="22.5" x="1389" y="1160.8901">cat</text><line style="stroke:#A80036;stroke-width:2.25;" x1="1360.5" x2="1492.5" y1="1170.5156" y2="1170.5156"/><!--MD5=[aeb3272166074d8737a70b61b1e71682]
class TestType--><rect codeLine="61" fill="#FEFECE" filter="url(#fyqd9x6msuy8z)" height="113.5078" id="TestType" style="stroke:#A80036;stroke-width:2.25;" width="183" x="651" y="1227"/><ellipse cx="700.5" cy="1251" fill="#ADD1B2" rx="16.5" ry="16.5" style="stroke:#A80036;stroke-width:1.5;"/><path d="M703.5,1245.75 Q703.8047,1245 704.1563,1244.625 Q704.5078,1244.25 704.9063,1244.25 Q705.6094,1244.25 706.0547,1244.6719 Q706.5,1245.0938 706.5,1246.0781 L706.5,1248.4219 Q706.5,1249.4063 706.0781,1249.8281 Q705.6563,1250.25 705,1250.25 Q704.4141,1250.25 704.0391,1249.9922 Q703.6641,1249.7344 703.5,1249.0547 Q703.4297,1248.5859 703.1719,1248.3281 Q702.7031,1247.8359 701.8594,1247.5547 Q701.0156,1247.25 700.1719,1247.25 Q699.1172,1247.25 698.2266,1247.6719 Q697.3594,1248.0938 696.6797,1249.0313 Q696,1249.9688 696,1251.2578 L696,1252.6406 Q696,1254.1875 697.2656,1255.2188 Q698.5313,1256.25 700.7813,1256.25 Q702.1172,1256.25 703.0547,1255.9453 Q703.5938,1255.7813 704.2031,1255.2422 Q704.6016,1254.9375 704.8125,1254.8438 Q705.0234,1254.75 705.2813,1254.75 Q705.7734,1254.75 706.125,1255.1484 Q706.5,1255.5234 706.5,1256.0625 Q706.5,1256.5781 705.9844,1257.1875 Q705.2344,1258.0781 704.0391,1258.5703 Q702.4688,1259.25 700.5469,1259.25 Q698.2969,1259.25 696.4922,1258.3594 Q695.0391,1257.6563 694.0078,1256.1328 Q693,1254.6094 693,1252.8047 L693,1251.1641 Q693,1249.2891 693.8906,1247.6484 Q694.8047,1246.0078 696.375,1245.1406 Q697.9688,1244.25 699.75,1244.25 Q700.8281,1244.25 701.7656,1244.625 Q702.7031,1245 703.5,1245.75 Z " fill="#000000"/><text fill="#000000" font-family="sans-serif" font-size="18" lengthAdjust="spacing" textLength="75" x="727.5" y="1258.3652">TestType</text><line style="stroke:#A80036;stroke-width:2.25;" x1="652.5" x2="832.5" y1="1275" y2="1275"/><rect fill="none" height="9" style="stroke:#C82930;stroke-width:1.5;" width="9" x="663" y="1287"/><text fill="#000000" font-family="sans-serif" font-size="16.5" lengthAdjust="spacing" textLength="109.5" x="681" y="1298.1284">externalModule</text><line style="stroke:#A80036;stroke-width:2.25;" x1="652.5" x2="832.5" y1="1307.7539" y2="1307.7539"/><ellipse cx="667.5" cy="1324.2539" fill="#84BE84" rx="4.5" ry="4.5" style="stroke:#038048;stroke-width:1.5;"/><text fill="#000000" font-family="sans-serif" font-size="16.5" lengthAdjust="spacing" textLength="144" x="681" y="1330.8823">getExternalModule()</text><!--MD5=[1c7472a369df7167a64e84eb61b770ca]
class RefValueAdapter--><rect codeLine="65" fill="#FEFECE" filter="url(#fyqd9x6msuy8z)" height="155.0156" id="RefValueAdapter" style="stroke:#A80036;stroke-width:2.25;" width="237" x="813" y="1909.5"/><ellipse cx="857.1" cy="1933.5" fill="#B4A7E5" rx="16.5" ry="16.5" style="stroke:#A80036;stroke-width:1.5;"/><path d="M858.6,1929 L858.6,1938 L861.6,1938 L862.3266,1938 L863.1,1938.9375 L863.1,1939.5 L863.1,1940.0625 L862.3266,1941 L861.6,1941 L852.6,1941 L851.8734,1941 L851.1,1940.0625 L851.1,1939.5 L851.1,1938.9375 L851.8734,1938 L852.6,1938 L855.6,1938 L855.6,1929 L852.6,1929 L851.8734,1929 L851.1,1928.0625 L851.1,1927.5 L851.1,1926.9375 L851.8734,1926 L852.6,1926 L861.6,1926 L862.3266,1926 L863.1,1926.9375 L863.1,1927.5 L863.1,1928.0625 L862.3266,1929 L861.6,1929 L858.6,1929 Z " fill="#000000"/><text fill="#000000" font-family="sans-serif" font-size="18" font-style="italic" lengthAdjust="spacing" textLength="141" x="882.9" y="1940.8652">RefValueAdapter</text><line style="stroke:#A80036;stroke-width:2.25;" x1="814.5" x2="1048.5" y1="1957.5" y2="1957.5"/><line style="stroke:#A80036;stroke-width:2.25;" x1="814.5" x2="1048.5" y1="1969.5" y2="1969.5"/><ellipse cx="829.5" cy="1986" fill="#84BE84" rx="4.5" ry="4.5" style="stroke:#038048;stroke-width:1.5;"/><text fill="#000000" font-family="sans-serif" font-size="16.5" lengthAdjust="spacing" textLength="193.5" x="843" y="1992.6284">getRefValue(String param)</text><ellipse cx="829.5" cy="2006.7539" fill="#84BE84" rx="4.5" ry="4.5" style="stroke:#038048;stroke-width:1.5;"/><text fill="#000000" font-family="sans-serif" font-size="16.5" lengthAdjust="spacing" textLength="192" x="843" y="2013.3823">getMinValue(String param)</text><ellipse cx="829.5" cy="2027.5078" fill="#84BE84" rx="4.5" ry="4.5" style="stroke:#038048;stroke-width:1.5;"/><text fill="#000000" font-family="sans-serif" font-size="16.5" lengthAdjust="spacing" textLength="198" x="843" y="2034.1362">getMaxValue(String param)</text><ellipse cx="829.5" cy="2048.2617" fill="#84BE84" rx="4.5" ry="4.5" style="stroke:#038048;stroke-width:1.5;"/><text fill="#000000" font-family="sans-serif" font-size="16.5" lengthAdjust="spacing" textLength="169.5" x="843" y="2054.8901">getMetric(String param)</text><!--MD5=[1c357e7e7fdba398bcadd6e61afe49f5]
class ReferenceValue--><rect codeLine="71" fill="#FEFECE" filter="url(#fyqd9x6msuy8z)" height="134.2617" id="ReferenceValue" style="stroke:#A80036;stroke-width:2.25;" width="180" x="988.5" y="1657.5"/><ellipse cx="1011" cy="1681.5" fill="#ADD1B2" rx="16.5" ry="16.5" style="stroke:#A80036;stroke-width:1.5;"/><path d="M1014,1676.25 Q1014.3047,1675.5 1014.6563,1675.125 Q1015.0078,1674.75 1015.4063,1674.75 Q1016.1094,1674.75 1016.5547,1675.1719 Q1017,1675.5938 1017,1676.5781 L1017,1678.9219 Q1017,1679.9063 1016.5781,1680.3281 Q1016.1563,1680.75 1015.5,1680.75 Q1014.9141,1680.75 1014.5391,1680.4922 Q1014.1641,1680.2344 1014,1679.5547 Q1013.9297,1679.0859 1013.6719,1678.8281 Q1013.2031,1678.3359 1012.3594,1678.0547 Q1011.5156,1677.75 1010.6719,1677.75 Q1009.6172,1677.75 1008.7266,1678.1719 Q1007.8594,1678.5938 1007.1797,1679.5313 Q1006.5,1680.4688 1006.5,1681.7578 L1006.5,1683.1406 Q1006.5,1684.6875 1007.7656,1685.7188 Q1009.0313,1686.75 1011.2813,1686.75 Q1012.6172,1686.75 1013.5547,1686.4453 Q1014.0938,1686.2813 1014.7031,1685.7422 Q1015.1016,1685.4375 1015.3125,1685.3438 Q1015.5234,1685.25 1015.7813,1685.25 Q1016.2734,1685.25 1016.625,1685.6484 Q1017,1686.0234 1017,1686.5625 Q1017,1687.0781 1016.4844,1687.6875 Q1015.7344,1688.5781 1014.5391,1689.0703 Q1012.9688,1689.75 1011.0469,1689.75 Q1008.7969,1689.75 1006.9922,1688.8594 Q1005.5391,1688.1563 1004.5078,1686.6328 Q1003.5,1685.1094 1003.5,1683.3047 L1003.5,1681.6641 Q1003.5,1679.7891 1004.3906,1678.1484 Q1005.3047,1676.5078 1006.875,1675.6406 Q1008.4688,1674.75 1010.25,1674.75 Q1011.3281,1674.75 1012.2656,1675.125 Q1013.2031,1675.5 1014,1676.25 Z " fill="#000000"/><text fill="#000000" font-family="sans-serif" font-size="18" lengthAdjust="spacing" textLength="132" x="1032" y="1688.8652">ReferenceValue</text><line style="stroke:#A80036;stroke-width:2.25;" x1="990" x2="1167" y1="1705.5" y2="1705.5"/><rect fill="none" height="9" style="stroke:#C82930;stroke-width:1.5;" width="9" x="1000.5" y="1717.5"/><text fill="#000000" font-family="sans-serif" font-size="16.5" lengthAdjust="spacing" textLength="66" x="1018.5" y="1728.6284">minValue</text><rect fill="none" height="9" style="stroke:#C82930;stroke-width:1.5;" width="9" x="1000.5" y="1738.2539"/><text fill="#000000" font-family="sans-serif" font-size="16.5" lengthAdjust="spacing" textLength="72" x="1018.5" y="1749.3823">maxValue</text><rect fill="none" height="9" style="stroke:#C82930;stroke-width:1.5;" width="9" x="1000.5" y="1759.0078"/><text fill="#000000" font-family="sans-serif" font-size="16.5" lengthAdjust="spacing" textLength="43.5" x="1018.5" y="1770.1362">metric</text><line style="stroke:#A80036;stroke-width:2.25;" x1="990" x2="1167" y1="1779.7617" y2="1779.7617"/><!--MD5=[4e608140b854dae633589343bce77383]
class TestParameterResult--><rect codeLine="76" fill="#FEFECE" filter="url(#fyqd9x6msuy8z)" height="155.0156" id="TestParameterResult" style="stroke:#A80036;stroke-width:2.25;" width="309" x="976.5" y="1386"/><ellipse cx="1036.8" cy="1410" fill="#ADD1B2" rx="16.5" ry="16.5" style="stroke:#A80036;stroke-width:1.5;"/><path d="M1039.8,1404.75 Q1040.1047,1404 1040.4563,1403.625 Q1040.8078,1403.25 1041.2063,1403.25 Q1041.9094,1403.25 1042.3547,1403.6719 Q1042.8,1404.0938 1042.8,1405.0781 L1042.8,1407.4219 Q1042.8,1408.4063 1042.3781,1408.8281 Q1041.9563,1409.25 1041.3,1409.25 Q1040.7141,1409.25 1040.3391,1408.9922 Q1039.9641,1408.7344 1039.8,1408.0547 Q1039.7297,1407.5859 1039.4719,1407.3281 Q1039.0031,1406.8359 1038.1594,1406.5547 Q1037.3156,1406.25 1036.4719,1406.25 Q1035.4172,1406.25 1034.5266,1406.6719 Q1033.6594,1407.0938 1032.9797,1408.0313 Q1032.3,1408.9688 1032.3,1410.2578 L1032.3,1411.6406 Q1032.3,1413.1875 1033.5656,1414.2188 Q1034.8313,1415.25 1037.0813,1415.25 Q1038.4172,1415.25 1039.3547,1414.9453 Q1039.8938,1414.7813 1040.5031,1414.2422 Q1040.9016,1413.9375 1041.1125,1413.8438 Q1041.3234,1413.75 1041.5813,1413.75 Q1042.0734,1413.75 1042.425,1414.1484 Q1042.8,1414.5234 1042.8,1415.0625 Q1042.8,1415.5781 1042.2844,1416.1875 Q1041.5344,1417.0781 1040.3391,1417.5703 Q1038.7688,1418.25 1036.8469,1418.25 Q1034.5969,1418.25 1032.7922,1417.3594 Q1031.3391,1416.6563 1030.3078,1415.1328 Q1029.3,1413.6094 1029.3,1411.8047 L1029.3,1410.1641 Q1029.3,1408.2891 1030.1906,1406.6484 Q1031.1047,1405.0078 1032.675,1404.1406 Q1034.2688,1403.25 1036.05,1403.25 Q1037.1281,1403.25 1038.0656,1403.625 Q1039.0031,1404 1039.8,1404.75 Z " fill="#000000"/><text fill="#000000" font-family="sans-serif" font-size="18" lengthAdjust="spacing" textLength="177" x="1066.2" y="1417.3652">TestParameterResult</text><line style="stroke:#A80036;stroke-width:2.25;" x1="978" x2="1284" y1="1434" y2="1434"/><rect fill="none" height="9" style="stroke:#C82930;stroke-width:1.5;" width="9" x="988.5" y="1446"/><text fill="#000000" font-family="sans-serif" font-size="16.5" lengthAdjust="spacing" textLength="40.5" x="1006.5" y="1457.1284">result</text><rect fill="none" height="9" style="stroke:#C82930;stroke-width:1.5;" width="9" x="988.5" y="1466.7539"/><text fill="#000000" font-family="sans-serif" font-size="16.5" lengthAdjust="spacing" textLength="57" x="1006.5" y="1477.8823">paramId</text><rect fill="none" height="9" style="stroke:#C82930;stroke-width:1.5;" width="9" x="988.5" y="1487.5078"/><text fill="#000000" font-family="sans-serif" font-size="16.5" lengthAdjust="spacing" textLength="63" x="1006.5" y="1498.6362">refValue</text><line style="stroke:#A80036;stroke-width:2.25;" x1="978" x2="1284" y1="1508.2617" y2="1508.2617"/><ellipse cx="993" cy="1524.7617" fill="#84BE84" rx="4.5" ry="4.5" style="stroke:#038048;stroke-width:1.5;"/><text fill="#000000" font-family="sans-serif" font-size="16.5" lengthAdjust="spacing" textLength="270" x="1006.5" y="1531.3901">TestParameterResult(result,refValue)</text><!--MD5=[5c34e247bdc718c2aaa7fe06d704a57f]
class CovidReferenceValues1API--><rect codeLine="82" fill="#FEFECE" filter="url(#fyqd9x6msuy8z)" height="72" id="CovidReferenceValues1API" style="stroke:#A80036;stroke-width:2.25;" width="274.5" x="435.75" y="2401.5"/><ellipse cx="458.25" cy="2425.5" fill="#ADD1B2" rx="16.5" ry="16.5" style="stroke:#A80036;stroke-width:1.5;"/><path d="M461.25,2420.25 Q461.5547,2419.5 461.9063,2419.125 Q462.2578,2418.75 462.6563,2418.75 Q463.3594,2418.75 463.8047,2419.1719 Q464.25,2419.5938 464.25,2420.5781 L464.25,2422.9219 Q464.25,2423.9063 463.8281,2424.3281 Q463.4063,2424.75 462.75,2424.75 Q462.1641,2424.75 461.7891,2424.4922 Q461.4141,2424.2344 461.25,2423.5547 Q461.1797,2423.0859 460.9219,2422.8281 Q460.4531,2422.3359 459.6094,2422.0547 Q458.7656,2421.75 457.9219,2421.75 Q456.8672,2421.75 455.9766,2422.1719 Q455.1094,2422.5938 454.4297,2423.5313 Q453.75,2424.4688 453.75,2425.7578 L453.75,2427.1406 Q453.75,2428.6875 455.0156,2429.7188 Q456.2813,2430.75 458.5313,2430.75 Q459.8672,2430.75 460.8047,2430.4453 Q461.3438,2430.2813 461.9531,2429.7422 Q462.3516,2429.4375 462.5625,2429.3438 Q462.7734,2429.25 463.0313,2429.25 Q463.5234,2429.25 463.875,2429.6484 Q464.25,2430.0234 464.25,2430.5625 Q464.25,2431.0781 463.7344,2431.6875 Q462.9844,2432.5781 461.7891,2433.0703 Q460.2188,2433.75 458.2969,2433.75 Q456.0469,2433.75 454.2422,2432.8594 Q452.7891,2432.1563 451.7578,2430.6328 Q450.75,2429.1094 450.75,2427.3047 L450.75,2425.6641 Q450.75,2423.7891 451.6406,2422.1484 Q452.5547,2420.5078 454.125,2419.6406 Q455.7188,2418.75 457.5,2418.75 Q458.5781,2418.75 459.5156,2419.125 Q460.4531,2419.5 461.25,2420.25 Z " fill="#000000"/><text fill="#000000" font-family="sans-serif" font-size="18" lengthAdjust="spacing" textLength="226.5" x="479.25" y="2432.8652">CovidReferenceValues1API</text><line style="stroke:#A80036;stroke-width:2.25;" x1="437.25" x2="708.75" y1="2449.5" y2="2449.5"/><line style="stroke:#A80036;stroke-width:2.25;" x1="437.25" x2="708.75" y1="2461.5" y2="2461.5"/><!--MD5=[c2db872d8177dd5e15eeb53e86d83378]
class ExternalModule2API--><rect codeLine="84" fill="#FEFECE" filter="url(#fyqd9x6msuy8z)" height="72" id="ExternalModule2API" style="stroke:#A80036;stroke-width:2.25;" width="211.5" x="825.75" y="2401.5"/><ellipse cx="848.25" cy="2425.5" fill="#ADD1B2" rx="16.5" ry="16.5" style="stroke:#A80036;stroke-width:1.5;"/><path d="M851.25,2420.25 Q851.5547,2419.5 851.9063,2419.125 Q852.2578,2418.75 852.6563,2418.75 Q853.3594,2418.75 853.8047,2419.1719 Q854.25,2419.5938 854.25,2420.5781 L854.25,2422.9219 Q854.25,2423.9063 853.8281,2424.3281 Q853.4063,2424.75 852.75,2424.75 Q852.1641,2424.75 851.7891,2424.4922 Q851.4141,2424.2344 851.25,2423.5547 Q851.1797,2423.0859 850.9219,2422.8281 Q850.4531,2422.3359 849.6094,2422.0547 Q848.7656,2421.75 847.9219,2421.75 Q846.8672,2421.75 845.9766,2422.1719 Q845.1094,2422.5938 844.4297,2423.5313 Q843.75,2424.4688 843.75,2425.7578 L843.75,2427.1406 Q843.75,2428.6875 845.0156,2429.7188 Q846.2813,2430.75 848.5313,2430.75 Q849.8672,2430.75 850.8047,2430.4453 Q851.3438,2430.2813 851.9531,2429.7422 Q852.3516,2429.4375 852.5625,2429.3438 Q852.7734,2429.25 853.0313,2429.25 Q853.5234,2429.25 853.875,2429.6484 Q854.25,2430.0234 854.25,2430.5625 Q854.25,2431.0781 853.7344,2431.6875 Q852.9844,2432.5781 851.7891,2433.0703 Q850.2188,2433.75 848.2969,2433.75 Q846.0469,2433.75 844.2422,2432.8594 Q842.7891,2432.1563 841.7578,2430.6328 Q840.75,2429.1094 840.75,2427.3047 L840.75,2425.6641 Q840.75,2423.7891 841.6406,2422.1484 Q842.5547,2420.5078 844.125,2419.6406 Q845.7188,2418.75 847.5,2418.75 Q848.5781,2418.75 849.5156,2419.125 Q850.4531,2419.5 851.25,2420.25 Z " fill="#000000"/><text fill="#000000" font-family="sans-serif" font-size="18" lengthAdjust="spacing" textLength="163.5" x="869.25" y="2432.8652">ExternalModule2API</text><line style="stroke:#A80036;stroke-width:2.25;" x1="827.25" x2="1035.75" y1="2449.5" y2="2449.5"/><line style="stroke:#A80036;stroke-width:2.25;" x1="827.25" x2="1035.75" y1="2461.5" y2="2461.5"/><!--MD5=[684eca265d68b7682ab3f1c4bd898418]
class ExternalModule3API--><rect codeLine="86" fill="#FEFECE" filter="url(#fyqd9x6msuy8z)" height="72" id="ExternalModule3API" style="stroke:#A80036;stroke-width:2.25;" width="211.5" x="1152.75" y="2401.5"/><ellipse cx="1175.25" cy="2425.5" fill="#ADD1B2" rx="16.5" ry="16.5" style="stroke:#A80036;stroke-width:1.5;"/><path d="M1178.25,2420.25 Q1178.5547,2419.5 1178.9063,2419.125 Q1179.2578,2418.75 1179.6563,2418.75 Q1180.3594,2418.75 1180.8047,2419.1719 Q1181.25,2419.5938 1181.25,2420.5781 L1181.25,2422.9219 Q1181.25,2423.9063 1180.8281,2424.3281 Q1180.4063,2424.75 1179.75,2424.75 Q1179.1641,2424.75 1178.7891,2424.4922 Q1178.4141,2424.2344 1178.25,2423.5547 Q1178.1797,2423.0859 1177.9219,2422.8281 Q1177.4531,2422.3359 1176.6094,2422.0547 Q1175.7656,2421.75 1174.9219,2421.75 Q1173.8672,2421.75 1172.9766,2422.1719 Q1172.1094,2422.5938 1171.4297,2423.5313 Q1170.75,2424.4688 1170.75,2425.7578 L1170.75,2427.1406 Q1170.75,2428.6875 1172.0156,2429.7188 Q1173.2813,2430.75 1175.5313,2430.75 Q1176.8672,2430.75 1177.8047,2430.4453 Q1178.3438,2430.2813 1178.9531,2429.7422 Q1179.3516,2429.4375 1179.5625,2429.3438 Q1179.7734,2429.25 1180.0313,2429.25 Q1180.5234,2429.25 1180.875,2429.6484 Q1181.25,2430.0234 1181.25,2430.5625 Q1181.25,2431.0781 1180.7344,2431.6875 Q1179.9844,2432.5781 1178.7891,2433.0703 Q1177.2188,2433.75 1175.2969,2433.75 Q1173.0469,2433.75 1171.2422,2432.8594 Q1169.7891,2432.1563 1168.7578,2430.6328 Q1167.75,2429.1094 1167.75,2427.3047 L1167.75,2425.6641 Q1167.75,2423.7891 1168.6406,2422.1484 Q1169.5547,2420.5078 1171.125,2419.6406 Q1172.7188,2418.75 1174.5,2418.75 Q1175.5781,2418.75 1176.5156,2419.125 Q1177.4531,2419.5 1178.25,2420.25 Z " fill="#000000"/><text fill="#000000" font-family="sans-serif" font-size="18" lengthAdjust="spacing" textLength="163.5" x="1196.25" y="2432.8652">ExternalModule3API</text><line style="stroke:#A80036;stroke-width:2.25;" x1="1154.25" x2="1362.75" y1="2449.5" y2="2449.5"/><line style="stroke:#A80036;stroke-width:2.25;" x1="1154.25" x2="1362.75" y1="2461.5" y2="2461.5"/><!--MD5=[9e79a15defc04663f36ad34442e5fa10]
class CovidReferenceValues1APIAdapter--><rect codeLine="88" fill="#FEFECE" filter="url(#fyqd9x6msuy8z)" height="155.0156" id="CovidReferenceValues1APIAdapter" style="stroke:#A80036;stroke-width:2.25;" width="337.5" x="404.25" y="2155.5"/><ellipse cx="426.75" cy="2179.5" fill="#ADD1B2" rx="16.5" ry="16.5" style="stroke:#A80036;stroke-width:1.5;"/><path d="M429.75,2174.25 Q430.0547,2173.5 430.4063,2173.125 Q430.7578,2172.75 431.1563,2172.75 Q431.8594,2172.75 432.3047,2173.1719 Q432.75,2173.5938 432.75,2174.5781 L432.75,2176.9219 Q432.75,2177.9063 432.3281,2178.3281 Q431.9063,2178.75 431.25,2178.75 Q430.6641,2178.75 430.2891,2178.4922 Q429.9141,2178.2344 429.75,2177.5547 Q429.6797,2177.0859 429.4219,2176.8281 Q428.9531,2176.3359 428.1094,2176.0547 Q427.2656,2175.75 426.4219,2175.75 Q425.3672,2175.75 424.4766,2176.1719 Q423.6094,2176.5938 422.9297,2177.5313 Q422.25,2178.4688 422.25,2179.7578 L422.25,2181.1406 Q422.25,2182.6875 423.5156,2183.7188 Q424.7813,2184.75 427.0313,2184.75 Q428.3672,2184.75 429.3047,2184.4453 Q429.8438,2184.2813 430.4531,2183.7422 Q430.8516,2183.4375 431.0625,2183.3438 Q431.2734,2183.25 431.5313,2183.25 Q432.0234,2183.25 432.375,2183.6484 Q432.75,2184.0234 432.75,2184.5625 Q432.75,2185.0781 432.2344,2185.6875 Q431.4844,2186.5781 430.2891,2187.0703 Q428.7188,2187.75 426.7969,2187.75 Q424.5469,2187.75 422.7422,2186.8594 Q421.2891,2186.1563 420.2578,2184.6328 Q419.25,2183.1094 419.25,2181.3047 L419.25,2179.6641 Q419.25,2177.7891 420.1406,2176.1484 Q421.0547,2174.5078 422.625,2173.6406 Q424.2188,2172.75 426,2172.75 Q427.0781,2172.75 428.0156,2173.125 Q428.9531,2173.5 429.75,2174.25 Z " fill="#000000"/><text fill="#000000" font-family="sans-serif" font-size="18" lengthAdjust="spacing" textLength="289.5" x="447.75" y="2186.8652">CovidReferenceValues1APIAdapter</text><line style="stroke:#A80036;stroke-width:2.25;" x1="405.75" x2="740.25" y1="2203.5" y2="2203.5"/><line style="stroke:#A80036;stroke-width:2.25;" x1="405.75" x2="740.25" y1="2215.5" y2="2215.5"/><ellipse cx="420.75" cy="2232" fill="#84BE84" rx="4.5" ry="4.5" style="stroke:#038048;stroke-width:1.5;"/><text fill="#000000" font-family="sans-serif" font-size="16.5" lengthAdjust="spacing" textLength="193.5" x="434.25" y="2238.6284">getRefValue(String param)</text><ellipse cx="420.75" cy="2252.7539" fill="#84BE84" rx="4.5" ry="4.5" style="stroke:#038048;stroke-width:1.5;"/><text fill="#000000" font-family="sans-serif" font-size="16.5" lengthAdjust="spacing" textLength="192" x="434.25" y="2259.3823">getMinValue(String param)</text><ellipse cx="420.75" cy="2273.5078" fill="#84BE84" rx="4.5" ry="4.5" style="stroke:#038048;stroke-width:1.5;"/><text fill="#000000" font-family="sans-serif" font-size="16.5" lengthAdjust="spacing" textLength="198" x="434.25" y="2280.1362">getMaxValue(String param)</text><ellipse cx="420.75" cy="2294.2617" fill="#84BE84" rx="4.5" ry="4.5" style="stroke:#038048;stroke-width:1.5;"/><text fill="#000000" font-family="sans-serif" font-size="16.5" lengthAdjust="spacing" textLength="169.5" x="434.25" y="2300.8901">getMetric(String param)</text><!--MD5=[bf202dd950ceaf4f26879676f3c29ba5]
class ExternalModule2APIAdapter--><rect codeLine="94" fill="#FEFECE" filter="url(#fyqd9x6msuy8z)" height="155.0156" id="ExternalModule2APIAdapter" style="stroke:#A80036;stroke-width:2.25;" width="274.5" x="794.25" y="2155.5"/><ellipse cx="816.75" cy="2179.5" fill="#ADD1B2" rx="16.5" ry="16.5" style="stroke:#A80036;stroke-width:1.5;"/><path d="M819.75,2174.25 Q820.0547,2173.5 820.4063,2173.125 Q820.7578,2172.75 821.1563,2172.75 Q821.8594,2172.75 822.3047,2173.1719 Q822.75,2173.5938 822.75,2174.5781 L822.75,2176.9219 Q822.75,2177.9063 822.3281,2178.3281 Q821.9063,2178.75 821.25,2178.75 Q820.6641,2178.75 820.2891,2178.4922 Q819.9141,2178.2344 819.75,2177.5547 Q819.6797,2177.0859 819.4219,2176.8281 Q818.9531,2176.3359 818.1094,2176.0547 Q817.2656,2175.75 816.4219,2175.75 Q815.3672,2175.75 814.4766,2176.1719 Q813.6094,2176.5938 812.9297,2177.5313 Q812.25,2178.4688 812.25,2179.7578 L812.25,2181.1406 Q812.25,2182.6875 813.5156,2183.7188 Q814.7813,2184.75 817.0313,2184.75 Q818.3672,2184.75 819.3047,2184.4453 Q819.8438,2184.2813 820.4531,2183.7422 Q820.8516,2183.4375 821.0625,2183.3438 Q821.2734,2183.25 821.5313,2183.25 Q822.0234,2183.25 822.375,2183.6484 Q822.75,2184.0234 822.75,2184.5625 Q822.75,2185.0781 822.2344,2185.6875 Q821.4844,2186.5781 820.2891,2187.0703 Q818.7188,2187.75 816.7969,2187.75 Q814.5469,2187.75 812.7422,2186.8594 Q811.2891,2186.1563 810.2578,2184.6328 Q809.25,2183.1094 809.25,2181.3047 L809.25,2179.6641 Q809.25,2177.7891 810.1406,2176.1484 Q811.0547,2174.5078 812.625,2173.6406 Q814.2188,2172.75 816,2172.75 Q817.0781,2172.75 818.0156,2173.125 Q818.9531,2173.5 819.75,2174.25 Z " fill="#000000"/><text fill="#000000" font-family="sans-serif" font-size="18" lengthAdjust="spacing" textLength="226.5" x="837.75" y="2186.8652">ExternalModule2APIAdapter</text><line style="stroke:#A80036;stroke-width:2.25;" x1="795.75" x2="1067.25" y1="2203.5" y2="2203.5"/><line style="stroke:#A80036;stroke-width:2.25;" x1="795.75" x2="1067.25" y1="2215.5" y2="2215.5"/><ellipse cx="810.75" cy="2232" fill="#84BE84" rx="4.5" ry="4.5" style="stroke:#038048;stroke-width:1.5;"/><text fill="#000000" font-family="sans-serif" font-size="16.5" lengthAdjust="spacing" textLength="193.5" x="824.25" y="2238.6284">getRefValue(String param)</text><ellipse cx="810.75" cy="2252.7539" fill="#84BE84" rx="4.5" ry="4.5" style="stroke:#038048;stroke-width:1.5;"/><text fill="#000000" font-family="sans-serif" font-size="16.5" lengthAdjust="spacing" textLength="192" x="824.25" y="2259.3823">getMinValue(String param)</text><ellipse cx="810.75" cy="2273.5078" fill="#84BE84" rx="4.5" ry="4.5" style="stroke:#038048;stroke-width:1.5;"/><text fill="#000000" font-family="sans-serif" font-size="16.5" lengthAdjust="spacing" textLength="198" x="824.25" y="2280.1362">getMaxValue(String param)</text><ellipse cx="810.75" cy="2294.2617" fill="#84BE84" rx="4.5" ry="4.5" style="stroke:#038048;stroke-width:1.5;"/><text fill="#000000" font-family="sans-serif" font-size="16.5" lengthAdjust="spacing" textLength="169.5" x="824.25" y="2300.8901">getMetric(String param)</text><!--MD5=[35c27d149b939a19a05414d761c02afa]
class ExternalModule3APIAdapter--><rect codeLine="100" fill="#FEFECE" filter="url(#fyqd9x6msuy8z)" height="155.0156" id="ExternalModule3APIAdapter" style="stroke:#A80036;stroke-width:2.25;" width="274.5" x="1121.25" y="2155.5"/><ellipse cx="1143.75" cy="2179.5" fill="#ADD1B2" rx="16.5" ry="16.5" style="stroke:#A80036;stroke-width:1.5;"/><path d="M1146.75,2174.25 Q1147.0547,2173.5 1147.4063,2173.125 Q1147.7578,2172.75 1148.1563,2172.75 Q1148.8594,2172.75 1149.3047,2173.1719 Q1149.75,2173.5938 1149.75,2174.5781 L1149.75,2176.9219 Q1149.75,2177.9063 1149.3281,2178.3281 Q1148.9063,2178.75 1148.25,2178.75 Q1147.6641,2178.75 1147.2891,2178.4922 Q1146.9141,2178.2344 1146.75,2177.5547 Q1146.6797,2177.0859 1146.4219,2176.8281 Q1145.9531,2176.3359 1145.1094,2176.0547 Q1144.2656,2175.75 1143.4219,2175.75 Q1142.3672,2175.75 1141.4766,2176.1719 Q1140.6094,2176.5938 1139.9297,2177.5313 Q1139.25,2178.4688 1139.25,2179.7578 L1139.25,2181.1406 Q1139.25,2182.6875 1140.5156,2183.7188 Q1141.7813,2184.75 1144.0313,2184.75 Q1145.3672,2184.75 1146.3047,2184.4453 Q1146.8438,2184.2813 1147.4531,2183.7422 Q1147.8516,2183.4375 1148.0625,2183.3438 Q1148.2734,2183.25 1148.5313,2183.25 Q1149.0234,2183.25 1149.375,2183.6484 Q1149.75,2184.0234 1149.75,2184.5625 Q1149.75,2185.0781 1149.2344,2185.6875 Q1148.4844,2186.5781 1147.2891,2187.0703 Q1145.7188,2187.75 1143.7969,2187.75 Q1141.5469,2187.75 1139.7422,2186.8594 Q1138.2891,2186.1563 1137.2578,2184.6328 Q1136.25,2183.1094 1136.25,2181.3047 L1136.25,2179.6641 Q1136.25,2177.7891 1137.1406,2176.1484 Q1138.0547,2174.5078 1139.625,2173.6406 Q1141.2188,2172.75 1143,2172.75 Q1144.0781,2172.75 1145.0156,2173.125 Q1145.9531,2173.5 1146.75,2174.25 Z " fill="#000000"/><text fill="#000000" font-family="sans-serif" font-size="18" lengthAdjust="spacing" textLength="226.5" x="1164.75" y="2186.8652">ExternalModule3APIAdapter</text><line style="stroke:#A80036;stroke-width:2.25;" x1="1122.75" x2="1394.25" y1="2203.5" y2="2203.5"/><line style="stroke:#A80036;stroke-width:2.25;" x1="1122.75" x2="1394.25" y1="2215.5" y2="2215.5"/><ellipse cx="1137.75" cy="2232" fill="#84BE84" rx="4.5" ry="4.5" style="stroke:#038048;stroke-width:1.5;"/><text fill="#000000" font-family="sans-serif" font-size="16.5" lengthAdjust="spacing" textLength="193.5" x="1151.25" y="2238.6284">getRefValue(String param)</text><ellipse cx="1137.75" cy="2252.7539" fill="#84BE84" rx="4.5" ry="4.5" style="stroke:#038048;stroke-width:1.5;"/><text fill="#000000" font-family="sans-serif" font-size="16.5" lengthAdjust="spacing" textLength="192" x="1151.25" y="2259.3823">getMinValue(String param)</text><ellipse cx="1137.75" cy="2273.5078" fill="#84BE84" rx="4.5" ry="4.5" style="stroke:#038048;stroke-width:1.5;"/><text fill="#000000" font-family="sans-serif" font-size="16.5" lengthAdjust="spacing" textLength="198" x="1151.25" y="2280.1362">getMaxValue(String param)</text><ellipse cx="1137.75" cy="2294.2617" fill="#84BE84" rx="4.5" ry="4.5" style="stroke:#038048;stroke-width:1.5;"/><text fill="#000000" font-family="sans-serif" font-size="16.5" lengthAdjust="spacing" textLength="169.5" x="1151.25" y="2300.8901">getMetric(String param)</text><!--MD5=[f5428fd05aad57864ae2f1af42726350]
link RecordResultUI to RecordResultController--><path codeLine="106" d="M454.5,82.56 C454.5,106.065 454.5,137.865 454.5,165.87 " fill="none" id="RecordResultUI-to-RecordResultController" style="stroke:#A80036;stroke-width:1.5;stroke-dasharray:7.0,7.0;"/><polygon fill="#A80036" points="454.5,173.655,460.5,160.155,454.5,166.155,448.5,160.155,454.5,173.655" style="stroke:#A80036;stroke-width:1.5;"/><!--MD5=[ad94b30c163beda945d4742c60cadd9b]
link RecordResultController to Company--><path codeLine="107" d="M370.575,288.18 C325.26,318.255 269.28,355.395 223.11,386.04 " fill="none" id="RecordResultController-to-Company" style="stroke:#A80036;stroke-width:1.5;stroke-dasharray:7.0,7.0;"/><polygon fill="#A80036" points="216.375,390.51,230.9418,388.0486,222.6253,386.3646,224.3092,378.0481,216.375,390.51" style="stroke:#A80036;stroke-width:1.5;"/><!--MD5=[614914ea2818ba632179bffb6284c7a6]
link RecordResultController to TestStore--><path codeLine="108" d="M451.35,288.465 C449.73,317.205 447.75,352.335 446.07,382.08 " fill="none" id="RecordResultController-to-TestStore" style="stroke:#A80036;stroke-width:1.5;stroke-dasharray:7.0,7.0;"/><polygon fill="#A80036" points="445.635,389.91,452.3954,376.7743,446.0629,382.4222,440.4149,376.0897,445.635,389.91" style="stroke:#A80036;stroke-width:1.5;"/><!--MD5=[a8c4228888174c409606ef1b96aaf4a1]
link RecordResultController to Test--><path codeLine="109" d="M515.895,288.51 C539.925,313.905 565.32,345.78 580.5,379.5 C614.76,455.58 628.62,547.77 633.75,623.415 " fill="none" id="RecordResultController-to-Test" style="stroke:#A80036;stroke-width:1.5;stroke-dasharray:7.0,7.0;"/><polygon fill="#A80036" points="634.26,631.14,639.3988,617.2893,633.7882,623.6549,627.4226,618.0442,634.26,631.14" style="stroke:#A80036;stroke-width:1.5;"/><!--MD5=[d8cc87b52c5b0699dfa8eb2caca57b06]
link RecordResultController to TestParameterStoreMapper--><path codeLine="110" d="M609.825,231 C629.865,231 649.89,231 669.915,231 " fill="none" id="RecordResultController-to-TestParameterStoreMapper" style="stroke:#A80036;stroke-width:1.5;stroke-dasharray:7.0,7.0;"/><polygon fill="#A80036" points="677.88,231,664.38,225,670.38,231,664.38,237,677.88,231" style="stroke:#A80036;stroke-width:1.5;"/><!--MD5=[690cd618a239917bb74b829e84e618a3]
link TestParameterStoreMapper to TestParameterDTO--><path codeLine="111" d="M816.795,288.465 C817.2,317.205 817.695,352.335 818.1,382.08 " fill="none" id="TestParameterStoreMapper-to-TestParameterDTO" style="stroke:#A80036;stroke-width:1.5;stroke-dasharray:7.0,7.0;"/><polygon fill="#A80036" points="818.22,389.91,824.0266,376.3257,818.1129,382.4108,812.0278,376.4971,818.22,389.91" style="stroke:#A80036;stroke-width:1.5;"/><!--MD5=[7f6cf7f175eae0af66201860de5de971]
link Company to TestStore--><path codeLine="113" d="M216.3,447 C248.85,447 286.845,447 322.305,447 " fill="none" id="Company-to-TestStore" style="stroke:#A80036;stroke-width:1.5;"/><polygon fill="#A80036" points="329.835,447,316.335,441,322.335,447,316.335,453,329.835,447" style="stroke:#A80036;stroke-width:1.5;"/><text fill="#000000" font-family="sans-serif" font-size="19.5" lengthAdjust="spacing" textLength="58.5" x="243.75" y="437.2427">adopts</text><text fill="#000000" font-family="sans-serif" font-size="19.5" lengthAdjust="spacing" textLength="10.5" x="228.1317" y="441.7152">1</text><text fill="#000000" font-family="sans-serif" font-size="19.5" lengthAdjust="spacing" textLength="10.5" x="307.175" y="442.0577">1</text><!--MD5=[6fff8c743b4aac4516b5292cd3b50f72]
link Company to SampleStore--><path codeLine="114" d="M127.635,514.62 C122.655,570.6 115.575,650.325 110.67,705.66 " fill="none" id="Company-to-SampleStore" style="stroke:#A80036;stroke-width:1.5;"/><polygon fill="#A80036" points="109.965,713.625,117.1392,700.7106,110.6305,706.1546,105.1865,699.6459,109.965,713.625" style="stroke:#A80036;stroke-width:1.5;"/><text fill="#000000" font-family="sans-serif" font-size="19.5" lengthAdjust="spacing" textLength="58.5" x="126" y="581.2427">adopts</text><text fill="#000000" font-family="sans-serif" font-size="19.5" lengthAdjust="spacing" textLength="10.5" x="115.572" y="546.1482">1</text><text fill="#000000" font-family="sans-serif" font-size="19.5" lengthAdjust="spacing" textLength="10.5" x="99.4142" y="697.6011">1</text><!--MD5=[24da80e03bf7ae3160485df7795f9e59]
link SampleStore to Sample--><path codeLine="116" d="M199.77,771 C233.07,771 269.775,771 300.345,771 " fill="none" id="SampleStore-to-Sample" style="stroke:#A80036;stroke-width:1.5;"/><polygon fill="#A80036" points="307.98,771,294.48,765,300.48,771,294.48,777,307.98,771" style="stroke:#A80036;stroke-width:1.5;"/><text fill="#000000" font-family="sans-serif" font-size="19.5" lengthAdjust="spacing" textLength="54" x="226.875" y="761.2427">stores</text><text fill="#000000" font-family="sans-serif" font-size="19.5" lengthAdjust="spacing" textLength="10.5" x="211.3348" y="765.9141">1</text><text fill="#000000" font-family="sans-serif" font-size="19.5" lengthAdjust="spacing" textLength="7.5" x="288.8146" y="765.1469">*</text><!--MD5=[1c597f054c4006c32127b5f2848e0497]
link Test to TestParameterList--><path codeLine="117" d="M789.885,771 C859.62,771 941.52,771 1010.475,771 " fill="none" id="Test-to-TestParameterList" style="stroke:#A80036;stroke-width:1.5;"/><polygon fill="#A80036" points="1018.395,771,1004.895,765,1010.895,771,1004.895,777,1018.395,771" style="stroke:#A80036;stroke-width:1.5;"/><text fill="#000000" font-family="sans-serif" font-size="19.5" lengthAdjust="spacing" textLength="174" x="817.125" y="761.2427">requests analysis of</text><text fill="#000000" font-family="sans-serif" font-size="19.5" lengthAdjust="spacing" textLength="10.5" x="801.6816" y="766.361">1</text><text fill="#000000" font-family="sans-serif" font-size="19.5" lengthAdjust="spacing" textLength="10.5" x="995.775" y="766.281">1</text><!--MD5=[757d1b70759bcc84b2284ec30b17fea5]
link TestParameterList to TestParameter--><path codeLine="118" d="M1158.48,817.8 C1157.235,872.205 1155.15,964.215 1153.68,1029.045 " fill="none" id="TestParameterList-to-TestParameter" style="stroke:#A80036;stroke-width:1.5;"/><polygon fill="#A80036" points="1153.5,1036.815,1159.8069,1023.4556,1153.6714,1029.317,1147.8101,1023.1814,1153.5,1036.815" style="stroke:#A80036;stroke-width:1.5;"/><text fill="#000000" font-family="sans-serif" font-size="19.5" lengthAdjust="spacing" textLength="54" x="1156.5" y="977.2427">stores</text><text fill="#000000" font-family="sans-serif" font-size="19.5" lengthAdjust="spacing" textLength="10.5" x="1146.7848" y="849.3251">1</text><text fill="#000000" font-family="sans-serif" font-size="19.5" lengthAdjust="spacing" textLength="7.5" x="1145.6555" y="1020.9145">*</text><!--MD5=[92e8e476cc9e9004a7125f53a120ec97]
link TestParameter to Parameter--><path codeLine="119" d="M1244.55,1104.75 C1279.14,1104.75 1317.96,1104.75 1350.84,1104.75 " fill="none" id="TestParameter-to-Parameter" style="stroke:#A80036;stroke-width:1.5;"/><polygon fill="#A80036" points="1358.64,1104.75,1345.14,1098.75,1351.14,1104.75,1345.14,1110.75,1358.64,1104.75" style="stroke:#A80036;stroke-width:1.5;"/><text fill="#000000" font-family="sans-serif" font-size="19.5" lengthAdjust="spacing" textLength="60" x="1271.625" y="1094.9927">refer to</text><text fill="#000000" font-family="sans-serif" font-size="19.5" lengthAdjust="spacing" textLength="7.5" x="1256.2866" y="1099.6073">*</text><text fill="#000000" font-family="sans-serif" font-size="19.5" lengthAdjust="spacing" textLength="10.5" x="1336.4881" y="1099.0811">1</text><!--MD5=[0e00e25ac6b8c14659aaff2cf7e5df08]
link TestParameter to TestParameterResult--><path codeLine="120" d="M1148.1,1172.28 C1144.665,1230.36 1139.655,1315.2 1135.95,1378.035 " fill="none" id="TestParameter-to-TestParameterResult" style="stroke:#A80036;stroke-width:1.5;"/><polygon fill="#A80036" points="1135.5,1385.58,1142.2625,1372.4454,1135.9291,1378.0923,1130.2822,1371.7588,1135.5,1385.58" style="stroke:#A80036;stroke-width:1.5;"/><text fill="#000000" font-family="sans-serif" font-size="19.5" lengthAdjust="spacing" textLength="73.5" x="1146" y="1292.2427">contains</text><text fill="#000000" font-family="sans-serif" font-size="19.5" lengthAdjust="spacing" textLength="10.5" x="1136.3133" y="1203.7956">1</text><text fill="#000000" font-family="sans-serif" font-size="19.5" lengthAdjust="spacing" textLength="33" x="1100.8875" y="1369.7741">0..1</text><!--MD5=[52200cc2361fa0ac0481dd6ffcdb824b]
link TestParameterResult to ReferenceValue--><path codeLine="121" d="M1115.535,1540.98 C1108.56,1575.36 1100.355,1615.785 1093.44,1649.835 " fill="none" id="TestParameterResult-to-ReferenceValue" style="stroke:#A80036;stroke-width:1.5;"/><polygon fill="#A80036" points="1091.895,1657.455,1100.4733,1645.4274,1093.3947,1650.1065,1088.7156,1643.0279,1091.895,1657.455" style="stroke:#A80036;stroke-width:1.5;"/><text fill="#000000" font-family="sans-serif" font-size="19.5" lengthAdjust="spacing" textLength="64.5" x="1107" y="1607.2427">records</text><text fill="#000000" font-family="sans-serif" font-size="19.5" lengthAdjust="spacing" textLength="10.5" x="1102.2514" y="1573.2809">1</text><text fill="#000000" font-family="sans-serif" font-size="19.5" lengthAdjust="spacing" textLength="10.5" x="1082.6931" y="1641.121">1</text><!--MD5=[d3968cd7281c1cfe0e72644ec4abb6d8]
reverse link ReferenceValue to RefValueAdapter--><path codeLine="122" d="M1036.815,1799.88 C1017.39,1834.065 994.29,1874.715 974.685,1909.23 " fill="none" id="ReferenceValue-backto-RefValueAdapter" style="stroke:#A80036;stroke-width:1.5;"/><polygon fill="#A80036" points="1040.64,1793.13,1028.77,1801.9251,1036.9467,1799.6576,1039.2142,1807.8343,1040.64,1793.13" style="stroke:#A80036;stroke-width:1.5;"/><text fill="#000000" font-family="sans-serif" font-size="19.5" lengthAdjust="spacing" textLength="54" x="1014" y="1859.2427">create</text><text fill="#000000" font-family="sans-serif" font-size="19.5" lengthAdjust="spacing" textLength="10.5" x="1024.3471" y="1824.2252">1</text><text fill="#000000" font-family="sans-serif" font-size="19.5" lengthAdjust="spacing" textLength="10.5" x="969.2825" y="1893.4442">1</text><!--MD5=[e981d4f96c4342412d1e68160b30cf70]
link Test to TestType--><path codeLine="123" d="M663.72,910.515 C684.99,1010.91 712.785,1142.175 729.045,1218.93 " fill="none" id="Test-to-TestType" style="stroke:#A80036;stroke-width:1.5;"/><polygon fill="#A80036" points="730.665,1226.64,733.7552,1212.1935,729.1199,1219.3009,722.0126,1214.6656,730.665,1226.64" style="stroke:#A80036;stroke-width:1.5;"/><text fill="#000000" font-family="sans-serif" font-size="19.5" lengthAdjust="spacing" textLength="36" x="679.5" y="977.2427">is of</text><text fill="#000000" font-family="sans-serif" font-size="19.5" lengthAdjust="spacing" textLength="7.5" x="658.3292" y="943.3045">*</text><text fill="#000000" font-family="sans-serif" font-size="19.5" lengthAdjust="spacing" textLength="10.5" x="717.1217" y="1210.6187">1</text><!--MD5=[b0f4f6db8206580012ef9cd998ed01c5]
link TestStore to Test--><path codeLine="124" d="M475.95,504.42 C495.93,537.84 522.33,581.97 547.845,624.615 " fill="none" id="TestStore-to-Test" style="stroke:#A80036;stroke-width:1.5;"/><polygon fill="#A80036" points="551.925,631.44,550.1458,616.7742,548.0757,625.0031,539.8468,622.9331,551.925,631.44" style="stroke:#A80036;stroke-width:1.5;"/><text fill="#000000" font-family="sans-serif" font-size="19.5" lengthAdjust="spacing" textLength="54" x="523.5" y="581.2427">stores</text><text fill="#000000" font-family="sans-serif" font-size="19.5" lengthAdjust="spacing" textLength="10.5" x="469.9444" y="535.8077">1</text><text fill="#000000" font-family="sans-serif" font-size="19.5" lengthAdjust="spacing" textLength="7.5" x="537.2762" y="615.1311">*</text><!--MD5=[ab68da8a07ff570caf114eed5dbe11c6]
link TestType to RefValueAdapter--><path codeLine="125" d="M757.65,1341.585 C790.785,1464.24 869.835,1756.95 908.88,1901.52 " fill="none" id="TestType-to-RefValueAdapter" style="stroke:#A80036;stroke-width:1.5;"/><polygon fill="#A80036" points="910.935,1909.14,913.1788,1894.5381,908.9652,1901.9033,901.6001,1897.6897,910.935,1909.14" style="stroke:#A80036;stroke-width:1.5;"/><text fill="#000000" font-family="sans-serif" font-size="19.5" lengthAdjust="spacing" textLength="117" x="829.5" y="1607.2427">makes use of</text><text fill="#000000" font-family="sans-serif" font-size="19.5" lengthAdjust="spacing" textLength="7.5" x="751.8956" y="1372.5609">*</text><text fill="#000000" font-family="sans-serif" font-size="19.5" lengthAdjust="spacing" textLength="10.5" x="896.9661" y="1893.3421">1</text><!--MD5=[e27a48c1292f354810518bb9da08881d]
link CovidReferenceValues1APIAdapter to CovidReferenceValues1API--><path codeLine="127" d="M573,2310.525 C573,2338.59 573,2369.37 573,2393.415 " fill="none" id="CovidReferenceValues1APIAdapter-to-CovidReferenceValues1API" style="stroke:#A80036;stroke-width:1.5;"/><polygon fill="#A80036" points="573,2401.305,579,2387.805,573,2393.805,567,2387.805,573,2401.305" style="stroke:#A80036;stroke-width:1.5;"/><!--MD5=[12a83c69fe6943f18de8c363e5459f01]
link ExternalModule2APIAdapter to ExternalModule2API--><path codeLine="128" d="M931.5,2310.525 C931.5,2338.59 931.5,2369.37 931.5,2393.415 " fill="none" id="ExternalModule2APIAdapter-to-ExternalModule2API" style="stroke:#A80036;stroke-width:1.5;"/><polygon fill="#A80036" points="931.5,2401.305,937.5,2387.805,931.5,2393.805,925.5,2387.805,931.5,2401.305" style="stroke:#A80036;stroke-width:1.5;"/><!--MD5=[f4142d0c21ccdde895a2d8f73faf8794]
link ExternalModule3APIAdapter to ExternalModule3API--><path codeLine="129" d="M1258.5,2310.525 C1258.5,2338.59 1258.5,2369.37 1258.5,2393.415 " fill="none" id="ExternalModule3APIAdapter-to-ExternalModule3API" style="stroke:#A80036;stroke-width:1.5;"/><polygon fill="#A80036" points="1258.5,2401.305,1264.5,2387.805,1258.5,2393.805,1252.5,2387.805,1258.5,2401.305" style="stroke:#A80036;stroke-width:1.5;"/><!--MD5=[d462e97212aa7f4070dd3eb895f3beac]
reverse link RefValueAdapter to CovidReferenceValues1APIAdapter--><path codeLine="131" d="M794.43,2081.16 C758.385,2105.595 719.925,2131.665 685.335,2155.11 " fill="none" id="RefValueAdapter-backto-CovidReferenceValues1APIAdapter" style="stroke:#A80036;stroke-width:1.5;stroke-dasharray:7.0,7.0;"/><polygon fill="none" points="788.82,2072.28,819.54,2064.135,800.595,2089.665,788.82,2072.28" style="stroke:#A80036;stroke-width:1.5;"/><!--MD5=[4658a848659281542d8454db136cf803]
reverse link RefValueAdapter to ExternalModule2APIAdapter--><path codeLine="132" d="M931.5,2094.705 C931.5,2115.105 931.5,2136.09 931.5,2155.305 " fill="none" id="RefValueAdapter-backto-ExternalModule2APIAdapter" style="stroke:#A80036;stroke-width:1.5;stroke-dasharray:7.0,7.0;"/><polygon fill="none" points="921,2094.465,931.5,2064.465,942,2094.465,921,2094.465" style="stroke:#A80036;stroke-width:1.5;"/><!--MD5=[d9c93c72e4f8cda515a5140b70ad7e9a]
reverse link RefValueAdapter to ExternalModule3APIAdapter--><path codeLine="133" d="M1057.95,2082.225 C1090.425,2106.345 1124.94,2131.995 1156.035,2155.11 " fill="none" id="RefValueAdapter-backto-ExternalModule3APIAdapter" style="stroke:#A80036;stroke-width:1.5;stroke-dasharray:7.0,7.0;"/><polygon fill="none" points="1051.44,2090.46,1033.62,2064.135,1063.965,2073.6,1051.44,2090.46" style="stroke:#A80036;stroke-width:1.5;"/><!--MD5=[4a073d19fef165d990b615d1468722be]
@startuml
'https://plantuml.com/class-diagram

class RecordResultUI{
}
class RecordResultController{
+ getTestParameterList(sampleId)
+ addTestResult(parameterCode,result)
}
class Company{
-designation
+getSampleStore()
+getTestStore()
}
class SampleStore{
-sampleList
+getSample(sampleId)
}
class Sample{
-sampleId
-testId
+getTestID()
}
class Test{
-state;
-testCode
-testNhsNumber
-clientTin
-testType
-testParam
-createdDate
-sampleCreatedDate
+getTestParameterList()
+addTestResult(parameterCode,result)
}
class TestParameterList{
+getParameterFor(parameterCode)
}
class TestStore{
-testList
+getTestByCode(sampleId)
}
class TestParameterStoreMapper{
+toDTO(pList)
-toDTO(testParameter)
}
class TestParameterDTO{
-pcode
+getPcode()
}
class TestParameter{
- pCode
- testParameterResult
+getParameter()
}
class Parameter{
-name
-code
-description
-cat
}
class TestType{
-externalModule
+getExternalModule()
}
interface RefValueAdapter{
+getRefValue(String param)
+getMinValue(String param)
+getMaxValue(String param)
+getMetric(String param)
}
class ReferenceValue{
-minValue
-maxValue
-metric
}
class TestParameterResult{
-result
-paramId
-refValue
+TestParameterResult(result,refValue)
}
class CovidReferenceValues1API{
}
class ExternalModule2API{
}
class ExternalModule3API{
}
class CovidReferenceValues1APIAdapter{
+getRefValue(String param)
+getMinValue(String param)
+getMaxValue(String param)
+getMetric(String param)
}
class ExternalModule2APIAdapter{
+getRefValue(String param)
+getMinValue(String param)
+getMaxValue(String param)
+getMetric(String param)
}
class ExternalModule3APIAdapter{
+getRefValue(String param)
+getMinValue(String param)
+getMaxValue(String param)
+getMetric(String param)
}
RecordResultUI ..> RecordResultController
RecordResultController ..> Company
RecordResultController ..> TestStore
RecordResultController ..> Test
RecordResultController .> TestParameterStoreMapper
TestParameterStoreMapper ..> TestParameterDTO

Company "1" -> "1" TestStore: adopts
Company "1" - -> "1" SampleStore: adopts

SampleStore "1" -> "*" Sample: stores
Test "1"  -> "1" TestParameterList: requests analysis of
TestParameterList "1" - -> "*" TestParameter: stores
TestParameter "*" -> "1" Parameter: refer to
TestParameter "1" - -> "0..1" TestParameterResult:contains
TestParameterResult "1" - -> "1" ReferenceValue: records
ReferenceValue "1" <- - "1"RefValueAdapter: create
Test "*" - -> "1"TestType: is of
TestStore "1" - -> "*" Test: stores
TestType "*" - -> "1" RefValueAdapter: makes use of

CovidReferenceValues1APIAdapter - -> CovidReferenceValues1API
ExternalModule2APIAdapter - -> ExternalModule2API
ExternalModule3APIAdapter  - -> ExternalModule3API

RefValueAdapter <|.. CovidReferenceValues1APIAdapter
RefValueAdapter <|.. ExternalModule2APIAdapter
RefValueAdapter <|.. ExternalModule3APIAdapter




@enduml

@startuml

class RecordResultUI{
}
class RecordResultController{
+ getTestParameterList(sampleId)
+ addTestResult(parameterCode,result)
}
class Company{
-designation
+getSampleStore()
+getTestStore()
}
class SampleStore{
-sampleList
+getSample(sampleId)
}
class Sample{
-sampleId
-testId
+getTestID()
}
class Test{
-state;
-testCode
-testNhsNumber
-clientTin
-testType
-testParam
-createdDate
-sampleCreatedDate
+getTestParameterList()
+addTestResult(parameterCode,result)
}
class TestParameterList{
+getParameterFor(parameterCode)
}
class TestStore{
-testList
+getTestByCode(sampleId)
}
class TestParameterStoreMapper{
+toDTO(pList)
-toDTO(testParameter)
}
class TestParameterDTO{
-pcode
+getPcode()
}
class TestParameter{
- pCode
- testParameterResult
+getParameter()
}
class Parameter{
-name
-code
-description
-cat
}
class TestType{
-externalModule
+getExternalModule()
}
interface RefValueAdapter{
+getRefValue(String param)
+getMinValue(String param)
+getMaxValue(String param)
+getMetric(String param)
}
class ReferenceValue{
-minValue
-maxValue
-metric
}
class TestParameterResult{
-result
-paramId
-refValue
+TestParameterResult(result,refValue)
}
class CovidReferenceValues1API{
}
class ExternalModule2API{
}
class ExternalModule3API{
}
class CovidReferenceValues1APIAdapter{
+getRefValue(String param)
+getMinValue(String param)
+getMaxValue(String param)
+getMetric(String param)
}
class ExternalModule2APIAdapter{
+getRefValue(String param)
+getMinValue(String param)
+getMaxValue(String param)
+getMetric(String param)
}
class ExternalModule3APIAdapter{
+getRefValue(String param)
+getMinValue(String param)
+getMaxValue(String param)
+getMetric(String param)
}
RecordResultUI ..> RecordResultController
RecordResultController ..> Company
RecordResultController ..> TestStore
RecordResultController ..> Test
RecordResultController .> TestParameterStoreMapper
TestParameterStoreMapper ..> TestParameterDTO

Company "1" -> "1" TestStore: adopts
Company "1" - -> "1" SampleStore: adopts

SampleStore "1" -> "*" Sample: stores
Test "1"  -> "1" TestParameterList: requests analysis of
TestParameterList "1" - -> "*" TestParameter: stores
TestParameter "*" -> "1" Parameter: refer to
TestParameter "1" - -> "0..1" TestParameterResult:contains
TestParameterResult "1" - -> "1" ReferenceValue: records
ReferenceValue "1" <- - "1"RefValueAdapter: create
Test "*" - -> "1"TestType: is of
TestStore "1" - -> "*" Test: stores
TestType "*" - -> "1" RefValueAdapter: makes use of

CovidReferenceValues1APIAdapter - -> CovidReferenceValues1API
ExternalModule2APIAdapter - -> ExternalModule2API
ExternalModule3APIAdapter  - -> ExternalModule3API

RefValueAdapter <|.. CovidReferenceValues1APIAdapter
RefValueAdapter <|.. ExternalModule2APIAdapter
RefValueAdapter <|.. ExternalModule3APIAdapter




@enduml

PlantUML version 1.2021.7(Sun May 23 13:40:07 BST 2021)
(GPL source distribution)
Java Runtime: OpenJDK Runtime Environment
JVM: Dynamic Code Evolution 64-Bit Server VM
Default Encoding: Cp1252
Language: pt
Country: PT
--></g></svg>