<?xml version="1.0" encoding="UTF-8" standalone="no"?><svg xmlns="http://www.w3.org/2000/svg" xmlns:xlink="http://www.w3.org/1999/xlink" contentScriptType="application/ecmascript" contentStyleType="text/css" height="1159px" preserveAspectRatio="none" style="width:1582px;height:1159px;background:#FFFFFF;" version="1.1" viewBox="0 0 1582 1159" width="1582px" zoomAndPan="magnify"><defs><filter height="300%" id="fnp2s4vaj4w21" width="300%" x="-1" y="-1"><feGaussianBlur result="blurOut" stdDeviation="2.0"/><feColorMatrix in="blurOut" result="blurOut2" type="matrix" values="0 0 0 0 0 0 0 0 0 0 0 0 0 0 0 0 0 0 .4 0"/><feOffset dx="4.0" dy="4.0" in="blurOut2" result="blurOut3"/><feBlend in="SourceGraphic" in2="blurOut3" mode="normal"/></filter></defs><g><rect fill="#FFFFFF" filter="url(#fnp2s4vaj4w21)" height="965.1406" style="stroke:#A80036;stroke-width:1.0;" width="10" x="116.5" y="99.6094"/><rect fill="#FFFFFF" filter="url(#fnp2s4vaj4w21)" height="30.3516" style="stroke:#A80036;stroke-width:1.0;" width="10" x="412.5" y="121.9609"/><rect fill="#FFFFFF" filter="url(#fnp2s4vaj4w21)" height="509.2188" style="stroke:#A80036;stroke-width:1.0;" width="10" x="412.5" y="182.6641"/><rect fill="#FFFFFF" filter="url(#fnp2s4vaj4w21)" height="30.3516" style="stroke:#A80036;stroke-width:1.0;" width="10" x="412.5" y="722.2344"/><rect fill="#FFFFFF" filter="url(#fnp2s4vaj4w21)" height="272.8125" style="stroke:#A80036;stroke-width:1.0;" width="10" x="412.5" y="782.9375"/><rect fill="#FFFFFF" filter="url(#fnp2s4vaj4w21)" height="423.1641" style="stroke:#A80036;stroke-width:1.0;" width="10" x="674.5" y="213.0156"/><rect fill="#FFFFFF" filter="url(#fnp2s4vaj4w21)" height="212.1094" style="stroke:#A80036;stroke-width:1.0;" width="10" x="674.5" y="813.2891"/><rect fill="#FFFFFF" filter="url(#fnp2s4vaj4w21)" height="30" style="stroke:#A80036;stroke-width:1.0;" width="10" x="815.5" y="243.3672"/><rect fill="#FFFFFF" filter="url(#fnp2s4vaj4w21)" height="30" style="stroke:#A80036;stroke-width:1.0;" width="10" x="815.5" y="424.4219"/><rect fill="#FFFFFF" filter="url(#fnp2s4vaj4w21)" height="30" style="stroke:#A80036;stroke-width:1.0;" width="10" x="918" y="303.7188"/><rect fill="#FFFFFF" filter="url(#fnp2s4vaj4w21)" height="30" style="stroke:#A80036;stroke-width:1.0;" width="10" x="1019.5" y="364.0703"/><rect fill="#FFFFFF" filter="url(#fnp2s4vaj4w21)" height="60.3516" style="stroke:#A80036;stroke-width:1.0;" width="10" x="1111.5" y="484.7734"/><rect fill="#FFFFFF" filter="url(#fnp2s4vaj4w21)" height="30" style="stroke:#A80036;stroke-width:1.0;" width="10" x="1334.5" y="515.125"/><rect fill="#FFFFFF" filter="url(#fnp2s4vaj4w21)" height="103.7031" style="stroke:#A80036;stroke-width:1.0;" width="10" x="1334.5" y="891.3438"/><rect fill="#FFFFFF" filter="url(#fnp2s4vaj4w21)" height="28" style="stroke:#A80036;stroke-width:1.0;" width="10" x="1339.5" y="929.6953"/><rect fill="#FFFFFF" filter="url(#fnp2s4vaj4w21)" height="30.3516" style="stroke:#A80036;stroke-width:1.0;" width="10" x="1468.5" y="575.4766"/><line style="stroke:#A80036;stroke-width:1.0;stroke-dasharray:5.0,5.0;" x1="121" x2="121" y1="89.6094" y2="1073.75"/><line style="stroke:#A80036;stroke-width:1.0;stroke-dasharray:5.0,5.0;" x1="417" x2="417" y1="89.6094" y2="1073.75"/><line style="stroke:#A80036;stroke-width:1.0;stroke-dasharray:5.0,5.0;" x1="679" x2="679" y1="89.6094" y2="1073.75"/><line style="stroke:#A80036;stroke-width:1.0;stroke-dasharray:5.0,5.0;" x1="820.5" x2="820.5" y1="89.6094" y2="1073.75"/><line style="stroke:#A80036;stroke-width:1.0;stroke-dasharray:5.0,5.0;" x1="922.5" x2="922.5" y1="89.6094" y2="1073.75"/><line style="stroke:#A80036;stroke-width:1.0;stroke-dasharray:5.0,5.0;" x1="1024.5" x2="1024.5" y1="89.6094" y2="1073.75"/><line style="stroke:#A80036;stroke-width:1.0;stroke-dasharray:5.0,5.0;" x1="1116.5" x2="1116.5" y1="89.6094" y2="1073.75"/><line style="stroke:#A80036;stroke-width:1.0;stroke-dasharray:5.0,5.0;" x1="1339.5" x2="1339.5" y1="89.6094" y2="1073.75"/><line style="stroke:#A80036;stroke-width:1.0;stroke-dasharray:5.0,5.0;" x1="1473.5" x2="1473.5" y1="89.6094" y2="1073.75"/><text fill="#000000" font-family="sans-serif" font-size="14" lengthAdjust="spacing" textLength="197" x="20" y="86.5332">Clinical Chemistry Technologist</text><ellipse cx="121.5" cy="15" fill="#FEFECE" filter="url(#fnp2s4vaj4w21)" rx="8" ry="8" style="stroke:#A80036;stroke-width:2.0;"/><path d="M121.5,23 L121.5,50 M108.5,31 L134.5,31 M121.5,50 L108.5,65 M121.5,50 L134.5,65 " fill="none" filter="url(#fnp2s4vaj4w21)" style="stroke:#A80036;stroke-width:2.0;"/><text fill="#000000" font-family="sans-serif" font-size="14" lengthAdjust="spacing" textLength="197" x="20" y="1087.2832">Clinical Chemistry Technologist</text><ellipse cx="121.5" cy="1100.3594" fill="#FEFECE" filter="url(#fnp2s4vaj4w21)" rx="8" ry="8" style="stroke:#A80036;stroke-width:2.0;"/><path d="M121.5,1108.3594 L121.5,1135.3594 M108.5,1116.3594 L134.5,1116.3594 M121.5,1135.3594 L108.5,1150.3594 M121.5,1135.3594 L134.5,1150.3594 " fill="none" filter="url(#fnp2s4vaj4w21)" style="stroke:#A80036;stroke-width:2.0;"/><rect fill="#FEFECE" filter="url(#fnp2s4vaj4w21)" height="31.6094" style="stroke:#A80036;stroke-width:1.5;" width="123" x="354" y="53"/><text fill="#000000" font-family="sans-serif" font-size="14" lengthAdjust="spacing" textLength="109" x="361" y="74.5332">:RecordResultsUI</text><rect fill="#FEFECE" filter="url(#fnp2s4vaj4w21)" height="31.6094" style="stroke:#A80036;stroke-width:1.5;" width="123" x="354" y="1072.75"/><text fill="#000000" font-family="sans-serif" font-size="14" lengthAdjust="spacing" textLength="109" x="361" y="1094.2832">:RecordResultsUI</text><rect fill="#FEFECE" filter="url(#fnp2s4vaj4w21)" height="31.6094" style="stroke:#A80036;stroke-width:1.5;" width="169" x="593" y="53"/><text fill="#000000" font-family="sans-serif" font-size="14" lengthAdjust="spacing" textLength="155" x="600" y="74.5332">RecordResultsController</text><rect fill="#FEFECE" filter="url(#fnp2s4vaj4w21)" height="31.6094" style="stroke:#A80036;stroke-width:1.5;" width="169" x="593" y="1072.75"/><text fill="#000000" font-family="sans-serif" font-size="14" lengthAdjust="spacing" textLength="155" x="600" y="1094.2832">RecordResultsController</text><rect fill="#FEFECE" filter="url(#fnp2s4vaj4w21)" height="31.6094" style="stroke:#A80036;stroke-width:1.5;" width="78" x="779.5" y="53"/><text fill="#000000" font-family="sans-serif" font-size="14" lengthAdjust="spacing" textLength="64" x="786.5" y="74.5332">:Company</text><rect fill="#FEFECE" filter="url(#fnp2s4vaj4w21)" height="31.6094" style="stroke:#A80036;stroke-width:1.5;" width="78" x="779.5" y="1072.75"/><text fill="#000000" font-family="sans-serif" font-size="14" lengthAdjust="spacing" textLength="64" x="786.5" y="1094.2832">:Company</text><rect fill="#FEFECE" filter="url(#fnp2s4vaj4w21)" height="31.6094" style="stroke:#A80036;stroke-width:1.5;" width="99" x="871.5" y="53"/><text fill="#000000" font-family="sans-serif" font-size="14" lengthAdjust="spacing" textLength="85" x="878.5" y="74.5332">:SampleStore</text><rect fill="#FEFECE" filter="url(#fnp2s4vaj4w21)" height="31.6094" style="stroke:#A80036;stroke-width:1.5;" width="99" x="871.5" y="1072.75"/><text fill="#000000" font-family="sans-serif" font-size="14" lengthAdjust="spacing" textLength="85" x="878.5" y="1094.2832">:SampleStore</text><rect fill="#FEFECE" filter="url(#fnp2s4vaj4w21)" height="31.6094" style="stroke:#A80036;stroke-width:1.5;" width="76" x="984.5" y="53"/><text fill="#000000" font-family="sans-serif" font-size="14" lengthAdjust="spacing" textLength="62" x="991.5" y="74.5332">s :Sample</text><rect fill="#FEFECE" filter="url(#fnp2s4vaj4w21)" height="31.6094" style="stroke:#A80036;stroke-width:1.5;" width="76" x="984.5" y="1072.75"/><text fill="#000000" font-family="sans-serif" font-size="14" lengthAdjust="spacing" textLength="62" x="991.5" y="1094.2832">s :Sample</text><rect fill="#FEFECE" filter="url(#fnp2s4vaj4w21)" height="31.6094" style="stroke:#A80036;stroke-width:1.5;" width="80" x="1074.5" y="53"/><text fill="#000000" font-family="sans-serif" font-size="14" lengthAdjust="spacing" textLength="66" x="1081.5" y="74.5332">:TestStore</text><rect fill="#FEFECE" filter="url(#fnp2s4vaj4w21)" height="31.6094" style="stroke:#A80036;stroke-width:1.5;" width="80" x="1074.5" y="1072.75"/><text fill="#000000" font-family="sans-serif" font-size="14" lengthAdjust="spacing" textLength="66" x="1081.5" y="1094.2832">:TestStore</text><rect fill="#FEFECE" filter="url(#fnp2s4vaj4w21)" height="31.6094" style="stroke:#A80036;stroke-width:1.5;" width="46" x="1314.5" y="53"/><text fill="#000000" font-family="sans-serif" font-size="14" lengthAdjust="spacing" textLength="32" x="1321.5" y="74.5332">:Test</text><rect fill="#FEFECE" filter="url(#fnp2s4vaj4w21)" height="31.6094" style="stroke:#A80036;stroke-width:1.5;" width="46" x="1314.5" y="1072.75"/><text fill="#000000" font-family="sans-serif" font-size="14" lengthAdjust="spacing" textLength="32" x="1321.5" y="1094.2832">:Test</text><rect fill="#FEFECE" filter="url(#fnp2s4vaj4w21)" height="31.6094" style="stroke:#A80036;stroke-width:1.5;" width="194" x="1374.5" y="53"/><text fill="#000000" font-family="sans-serif" font-size="14" lengthAdjust="spacing" textLength="180" x="1381.5" y="74.5332">:TestParameterStoreMapper</text><rect fill="#FEFECE" filter="url(#fnp2s4vaj4w21)" height="31.6094" style="stroke:#A80036;stroke-width:1.5;" width="194" x="1374.5" y="1072.75"/><text fill="#000000" font-family="sans-serif" font-size="14" lengthAdjust="spacing" textLength="180" x="1381.5" y="1094.2832">:TestParameterStoreMapper</text><rect fill="#FFFFFF" filter="url(#fnp2s4vaj4w21)" height="965.1406" style="stroke:#A80036;stroke-width:1.0;" width="10" x="116.5" y="99.6094"/><rect fill="#FFFFFF" filter="url(#fnp2s4vaj4w21)" height="30.3516" style="stroke:#A80036;stroke-width:1.0;" width="10" x="412.5" y="121.9609"/><rect fill="#FFFFFF" filter="url(#fnp2s4vaj4w21)" height="509.2188" style="stroke:#A80036;stroke-width:1.0;" width="10" x="412.5" y="182.6641"/><rect fill="#FFFFFF" filter="url(#fnp2s4vaj4w21)" height="30.3516" style="stroke:#A80036;stroke-width:1.0;" width="10" x="412.5" y="722.2344"/><rect fill="#FFFFFF" filter="url(#fnp2s4vaj4w21)" height="272.8125" style="stroke:#A80036;stroke-width:1.0;" width="10" x="412.5" y="782.9375"/><rect fill="#FFFFFF" filter="url(#fnp2s4vaj4w21)" height="423.1641" style="stroke:#A80036;stroke-width:1.0;" width="10" x="674.5" y="213.0156"/><rect fill="#FFFFFF" filter="url(#fnp2s4vaj4w21)" height="212.1094" style="stroke:#A80036;stroke-width:1.0;" width="10" x="674.5" y="813.2891"/><rect fill="#FFFFFF" filter="url(#fnp2s4vaj4w21)" height="30" style="stroke:#A80036;stroke-width:1.0;" width="10" x="815.5" y="243.3672"/><rect fill="#FFFFFF" filter="url(#fnp2s4vaj4w21)" height="30" style="stroke:#A80036;stroke-width:1.0;" width="10" x="815.5" y="424.4219"/><rect fill="#FFFFFF" filter="url(#fnp2s4vaj4w21)" height="30" style="stroke:#A80036;stroke-width:1.0;" width="10" x="918" y="303.7188"/><rect fill="#FFFFFF" filter="url(#fnp2s4vaj4w21)" height="30" style="stroke:#A80036;stroke-width:1.0;" width="10" x="1019.5" y="364.0703"/><rect fill="#FFFFFF" filter="url(#fnp2s4vaj4w21)" height="60.3516" style="stroke:#A80036;stroke-width:1.0;" width="10" x="1111.5" y="484.7734"/><rect fill="#FFFFFF" filter="url(#fnp2s4vaj4w21)" height="30" style="stroke:#A80036;stroke-width:1.0;" width="10" x="1334.5" y="515.125"/><rect fill="#FFFFFF" filter="url(#fnp2s4vaj4w21)" height="103.7031" style="stroke:#A80036;stroke-width:1.0;" width="10" x="1334.5" y="891.3438"/><rect fill="#FFFFFF" filter="url(#fnp2s4vaj4w21)" height="28" style="stroke:#A80036;stroke-width:1.0;" width="10" x="1339.5" y="929.6953"/><rect fill="#FFFFFF" filter="url(#fnp2s4vaj4w21)" height="30.3516" style="stroke:#A80036;stroke-width:1.0;" width="10" x="1468.5" y="575.4766"/><polygon fill="#A80036" points="400.5,117.9609,410.5,121.9609,400.5,125.9609,404.5,121.9609" style="stroke:#A80036;stroke-width:1.0;"/><line style="stroke:#A80036;stroke-width:1.0;" x1="126.5" x2="406.5" y1="121.9609" y2="121.9609"/><text fill="#000000" font-family="sans-serif" font-size="13" font-weight="bold" lengthAdjust="spacing" textLength="7" x="133.5" y="117.1045">1</text><text fill="#000000" font-family="sans-serif" font-size="13" lengthAdjust="spacing" textLength="237" x="144.5" y="117.1045">Asks for record the results of a given test</text><polygon fill="#A80036" points="137.5,148.3125,127.5,152.3125,137.5,156.3125,133.5,152.3125" style="stroke:#A80036;stroke-width:1.0;"/><line style="stroke:#A80036;stroke-width:1.0;stroke-dasharray:2.0,2.0;" x1="131.5" x2="416.5" y1="152.3125" y2="152.3125"/><text fill="#000000" font-family="sans-serif" font-size="13" font-weight="bold" lengthAdjust="spacing" textLength="7" x="143.5" y="147.4561">2</text><text fill="#000000" font-family="sans-serif" font-size="13" lengthAdjust="spacing" textLength="184" x="154.5" y="147.4561">Asks for the code of the sample</text><polygon fill="#A80036" points="400.5,178.6641,410.5,182.6641,400.5,186.6641,404.5,182.6641" style="stroke:#A80036;stroke-width:1.0;"/><line style="stroke:#A80036;stroke-width:1.0;" x1="126.5" x2="406.5" y1="182.6641" y2="182.6641"/><text fill="#000000" font-family="sans-serif" font-size="13" font-weight="bold" lengthAdjust="spacing" textLength="7" x="133.5" y="177.8076">3</text><text fill="#000000" font-family="sans-serif" font-size="13" lengthAdjust="spacing" textLength="123" x="144.5" y="177.8076">Inserts the sample ID</text><polygon fill="#A80036" points="662.5,209.0156,672.5,213.0156,662.5,217.0156,666.5,213.0156" style="stroke:#A80036;stroke-width:1.0;"/><line style="stroke:#A80036;stroke-width:1.0;" x1="422.5" x2="668.5" y1="213.0156" y2="213.0156"/><text fill="#000000" font-family="sans-serif" font-size="13" font-weight="bold" lengthAdjust="spacing" textLength="7" x="429.5" y="208.1592">4</text><text fill="#000000" font-family="sans-serif" font-size="13" lengthAdjust="spacing" textLength="184" x="440.5" y="208.1592">getTestParameterList(sampleId)</text><polygon fill="#A80036" points="803.5,239.3672,813.5,243.3672,803.5,247.3672,807.5,243.3672" style="stroke:#A80036;stroke-width:1.0;"/><line style="stroke:#A80036;stroke-width:1.0;" x1="684.5" x2="809.5" y1="243.3672" y2="243.3672"/><text fill="#000000" font-family="sans-serif" font-size="13" font-weight="bold" lengthAdjust="spacing" textLength="7" x="691.5" y="238.5107">5</text><text fill="#000000" font-family="sans-serif" font-size="13" lengthAdjust="spacing" textLength="101" x="702.5" y="238.5107">getSampleStore()</text><polygon fill="#A80036" points="906,299.7188,916,303.7188,906,307.7188,910,303.7188" style="stroke:#A80036;stroke-width:1.0;"/><line style="stroke:#A80036;stroke-width:1.0;" x1="684.5" x2="912" y1="303.7188" y2="303.7188"/><text fill="#000000" font-family="sans-serif" font-size="13" font-weight="bold" lengthAdjust="spacing" textLength="7" x="691.5" y="298.8623">6</text><text fill="#000000" font-family="sans-serif" font-size="13" lengthAdjust="spacing" textLength="122" x="702.5" y="298.8623">getSample(sampleId)</text><polygon fill="#A80036" points="1007.5,360.0703,1017.5,364.0703,1007.5,368.0703,1011.5,364.0703" style="stroke:#A80036;stroke-width:1.0;"/><line style="stroke:#A80036;stroke-width:1.0;" x1="684.5" x2="1013.5" y1="364.0703" y2="364.0703"/><text fill="#000000" font-family="sans-serif" font-size="13" font-weight="bold" lengthAdjust="spacing" textLength="7" x="691.5" y="359.2139">7</text><text fill="#000000" font-family="sans-serif" font-size="13" lengthAdjust="spacing" textLength="111" x="702.5" y="359.2139">testId = getTestID()</text><polygon fill="#A80036" points="803.5,420.4219,813.5,424.4219,803.5,428.4219,807.5,424.4219" style="stroke:#A80036;stroke-width:1.0;"/><line style="stroke:#A80036;stroke-width:1.0;" x1="684.5" x2="809.5" y1="424.4219" y2="424.4219"/><text fill="#000000" font-family="sans-serif" font-size="13" font-weight="bold" lengthAdjust="spacing" textLength="7" x="691.5" y="419.5654">8</text><text fill="#000000" font-family="sans-serif" font-size="13" lengthAdjust="spacing" textLength="82" x="702.5" y="419.5654">getTestStore()</text><polygon fill="#A80036" points="1099.5,480.7734,1109.5,484.7734,1099.5,488.7734,1103.5,484.7734" style="stroke:#A80036;stroke-width:1.0;"/><line style="stroke:#A80036;stroke-width:1.0;" x1="684.5" x2="1105.5" y1="484.7734" y2="484.7734"/><text fill="#000000" font-family="sans-serif" font-size="13" font-weight="bold" lengthAdjust="spacing" textLength="7" x="691.5" y="479.917">9</text><text fill="#000000" font-family="sans-serif" font-size="13" lengthAdjust="spacing" textLength="215" x="702.5" y="479.917">pList = getTestParametersList(testId)</text><polygon fill="#A80036" points="1322.5,511.125,1332.5,515.125,1322.5,519.125,1326.5,515.125" style="stroke:#A80036;stroke-width:1.0;"/><line style="stroke:#A80036;stroke-width:1.0;" x1="1121.5" x2="1328.5" y1="515.125" y2="515.125"/><text fill="#000000" font-family="sans-serif" font-size="13" font-weight="bold" lengthAdjust="spacing" textLength="14" x="1128.5" y="510.2686">10</text><text fill="#000000" font-family="sans-serif" font-size="13" lengthAdjust="spacing" textLength="176" x="1146.5" y="510.2686">pList = getTestParameterList()</text><polygon fill="#A80036" points="1456.5,571.4766,1466.5,575.4766,1456.5,579.4766,1460.5,575.4766" style="stroke:#A80036;stroke-width:1.0;"/><line style="stroke:#A80036;stroke-width:1.0;" x1="684.5" x2="1462.5" y1="575.4766" y2="575.4766"/><text fill="#000000" font-family="sans-serif" font-size="13" font-weight="bold" lengthAdjust="spacing" textLength="14" x="691.5" y="570.6201">11</text><text fill="#000000" font-family="sans-serif" font-size="13" lengthAdjust="spacing" textLength="73" x="709.5" y="570.6201">toDTO(pList)</text><polygon fill="#A80036" points="695.5,601.8281,685.5,605.8281,695.5,609.8281,691.5,605.8281" style="stroke:#A80036;stroke-width:1.0;"/><line style="stroke:#A80036;stroke-width:1.0;stroke-dasharray:2.0,2.0;" x1="689.5" x2="1472.5" y1="605.8281" y2="605.8281"/><text fill="#000000" font-family="sans-serif" font-size="13" font-weight="bold" lengthAdjust="spacing" textLength="14" x="701.5" y="600.9717">12</text><text fill="#000000" font-family="sans-serif" font-size="13" lengthAdjust="spacing" textLength="68" x="719.5" y="600.9717">tpStoreDTO</text><polygon fill="#A80036" points="433.5,632.1797,423.5,636.1797,433.5,640.1797,429.5,636.1797" style="stroke:#A80036;stroke-width:1.0;"/><line style="stroke:#A80036;stroke-width:1.0;stroke-dasharray:2.0,2.0;" x1="427.5" x2="678.5" y1="636.1797" y2="636.1797"/><text fill="#000000" font-family="sans-serif" font-size="13" font-weight="bold" lengthAdjust="spacing" textLength="14" x="439.5" y="631.3232">13</text><text fill="#000000" font-family="sans-serif" font-size="13" lengthAdjust="spacing" textLength="68" x="457.5" y="631.3232">tpStoreDTO</text><polygon fill="#A80036" points="137.5,687.8828,127.5,691.8828,137.5,695.8828,133.5,691.8828" style="stroke:#A80036;stroke-width:1.0;"/><line style="stroke:#A80036;stroke-width:1.0;stroke-dasharray:2.0,2.0;" x1="131.5" x2="416.5" y1="691.8828" y2="691.8828"/><text fill="#000000" font-family="sans-serif" font-size="13" font-weight="bold" lengthAdjust="spacing" textLength="14" x="143.5" y="687.0264">14</text><text fill="#000000" font-family="sans-serif" font-size="13" lengthAdjust="spacing" textLength="244" x="161.5" y="687.0264">Show parameters and asks to choose one</text><polygon fill="#A80036" points="400.5,718.2344,410.5,722.2344,400.5,726.2344,404.5,722.2344" style="stroke:#A80036;stroke-width:1.0;"/><line style="stroke:#A80036;stroke-width:1.0;" x1="126.5" x2="406.5" y1="722.2344" y2="722.2344"/><text fill="#000000" font-family="sans-serif" font-size="13" font-weight="bold" lengthAdjust="spacing" textLength="14" x="133.5" y="717.3779">15</text><text fill="#000000" font-family="sans-serif" font-size="13" lengthAdjust="spacing" textLength="106" x="151.5" y="717.3779">Choose parameter</text><polygon fill="#A80036" points="137.5,748.5859,127.5,752.5859,137.5,756.5859,133.5,752.5859" style="stroke:#A80036;stroke-width:1.0;"/><line style="stroke:#A80036;stroke-width:1.0;stroke-dasharray:2.0,2.0;" x1="131.5" x2="416.5" y1="752.5859" y2="752.5859"/><text fill="#000000" font-family="sans-serif" font-size="13" font-weight="bold" lengthAdjust="spacing" textLength="14" x="143.5" y="747.7295">16</text><text fill="#000000" font-family="sans-serif" font-size="13" lengthAdjust="spacing" textLength="124" x="161.5" y="747.7295">Asks for results value</text><polygon fill="#A80036" points="400.5,778.9375,410.5,782.9375,400.5,786.9375,404.5,782.9375" style="stroke:#A80036;stroke-width:1.0;"/><line style="stroke:#A80036;stroke-width:1.0;" x1="126.5" x2="406.5" y1="782.9375" y2="782.9375"/><text fill="#000000" font-family="sans-serif" font-size="13" font-weight="bold" lengthAdjust="spacing" textLength="14" x="133.5" y="778.0811">17</text><text fill="#000000" font-family="sans-serif" font-size="13" lengthAdjust="spacing" textLength="111" x="151.5" y="778.0811">Types results value</text><polygon fill="#A80036" points="662.5,809.2891,672.5,813.2891,662.5,817.2891,666.5,813.2891" style="stroke:#A80036;stroke-width:1.0;"/><line style="stroke:#A80036;stroke-width:1.0;" x1="422.5" x2="668.5" y1="813.2891" y2="813.2891"/><text fill="#000000" font-family="sans-serif" font-size="13" font-weight="bold" lengthAdjust="spacing" textLength="14" x="429.5" y="808.4326">18</text><text fill="#000000" font-family="sans-serif" font-size="13" lengthAdjust="spacing" textLength="215" x="447.5" y="808.4326">addTestResult(parameterCode,result)</text><rect fill="#FFFFFF" filter="url(#fnp2s4vaj4w21)" height="42.7031" style="stroke:#000000;stroke-width:2.0;" width="223" x="590" y="821.2891"/><polygon fill="#EEEEEE" points="590,821.2891,652,821.2891,652,829.2891,642,839.2891,590,839.2891,590,821.2891" style="stroke:#000000;stroke-width:2.0;"/><text fill="#000000" font-family="sans-serif" font-size="13" font-weight="bold" lengthAdjust="spacing" textLength="17" x="603" y="836.7842">ref</text><text fill="#000000" font-family="sans-serif" font-size="13" lengthAdjust="spacing" textLength="215" x="596" y="856.7842">addTestResult(parameterCode,result)</text><polygon fill="#A80036" points="1322.5,887.3438,1332.5,891.3438,1322.5,895.3438,1326.5,891.3438" style="stroke:#A80036;stroke-width:1.0;"/><line style="stroke:#A80036;stroke-width:1.0;" x1="684.5" x2="1328.5" y1="891.3438" y2="891.3438"/><text fill="#000000" font-family="sans-serif" font-size="13" font-weight="bold" lengthAdjust="spacing" textLength="14" x="691.5" y="886.4873">19</text><text fill="#000000" font-family="sans-serif" font-size="13" lengthAdjust="spacing" textLength="81" x="709.5" y="886.4873">changeState()</text><line style="stroke:#A80036;stroke-width:1.0;" x1="1349.5" x2="1391.5" y1="921.6953" y2="921.6953"/><line style="stroke:#A80036;stroke-width:1.0;" x1="1391.5" x2="1391.5" y1="921.6953" y2="934.6953"/><line style="stroke:#A80036;stroke-width:1.0;" x1="1350.5" x2="1391.5" y1="934.6953" y2="934.6953"/><polygon fill="#A80036" points="1360.5,930.6953,1350.5,934.6953,1360.5,938.6953,1356.5,934.6953" style="stroke:#A80036;stroke-width:1.0;"/><text fill="#000000" font-family="sans-serif" font-size="13" font-weight="bold" lengthAdjust="spacing" textLength="14" x="1356.5" y="916.8389">20</text><text fill="#000000" font-family="sans-serif" font-size="13" lengthAdjust="spacing" textLength="81" x="1374.5" y="916.8389">changeState()</text><polygon fill="#A80036" points="695.5,991.0469,685.5,995.0469,695.5,999.0469,691.5,995.0469" style="stroke:#A80036;stroke-width:1.0;"/><line style="stroke:#A80036;stroke-width:1.0;stroke-dasharray:2.0,2.0;" x1="689.5" x2="1338.5" y1="995.0469" y2="995.0469"/><text fill="#000000" font-family="sans-serif" font-size="13" font-weight="bold" lengthAdjust="spacing" textLength="14" x="701.5" y="990.1904">21</text><text fill="#000000" font-family="sans-serif" font-size="13" lengthAdjust="spacing" textLength="14" x="719.5" y="990.1904">ok</text><polygon fill="#A80036" points="433.5,1021.3984,423.5,1025.3984,433.5,1029.3984,429.5,1025.3984" style="stroke:#A80036;stroke-width:1.0;"/><line style="stroke:#A80036;stroke-width:1.0;stroke-dasharray:2.0,2.0;" x1="427.5" x2="678.5" y1="1025.3984" y2="1025.3984"/><text fill="#000000" font-family="sans-serif" font-size="13" font-weight="bold" lengthAdjust="spacing" textLength="14" x="439.5" y="1020.542">22</text><text fill="#000000" font-family="sans-serif" font-size="13" lengthAdjust="spacing" textLength="14" x="457.5" y="1020.542">ok</text><polygon fill="#A80036" points="137.5,1051.75,127.5,1055.75,137.5,1059.75,133.5,1055.75" style="stroke:#A80036;stroke-width:1.0;"/><line style="stroke:#A80036;stroke-width:1.0;stroke-dasharray:2.0,2.0;" x1="131.5" x2="416.5" y1="1055.75" y2="1055.75"/><text fill="#000000" font-family="sans-serif" font-size="13" font-weight="bold" lengthAdjust="spacing" textLength="14" x="143.5" y="1050.8936">23</text><text fill="#000000" font-family="sans-serif" font-size="13" lengthAdjust="spacing" textLength="190" x="161.5" y="1050.8936">Show all data and show success</text><!--MD5=[ca0822f9bf6f966f4b2a64c7af9069c6]
@startuml
autonumber
actor "Clinical Chemistry Technologist" as cct
participant ":RecordResultsUI" as UI
participant "RecordResultsController" as ctrl
participant ":Company" as Comp
participant ":SampleStore" as sStore
participant "s :Sample" as samp
participant ":TestStore" as tStore
participant ":Test" as Test
participant ":TestParameterStoreMapper" as tpStoreMapper

activate cct
cct -> UI: Asks for record the results of a given test
activate UI
UI - -> cct: Asks for the code of the sample
deactivate UI
cct -> UI: Inserts the sample ID
activate UI
UI -> ctrl: getTestParameterList(sampleId)
      activate ctrl
      ctrl -> Comp: getSampleStore()
      activate Comp
      deactivate
      ctrl -> sStore: getSample(sampleId)
      activate sStore
      deactivate
      ctrl -> samp: testId = getTestID()
      activate samp
      deactivate
      ctrl -> Comp: getTestStore()
      activate Comp
      deactivate
      ctrl -> tStore: pList = getTestParametersList(testId)
      activate tStore
      tStore -> Test: pList = getTestParameterList()
      activate Test
      deactivate
      deactivate tStore

      ctrl -> tpStoreMapper: toDTO(pList)
      activate tpStoreMapper

      tpStoreMapper - -> ctrl: tpStoreDTO
      deactivate tpStoreMapper
      return tpStoreDTO
      deactivate ctrl
      deactivate tStore
loop for all the parameters
    UI - -> cct: Show parameters and asks to choose one
    deactivate UI
    cct -> UI: Choose parameter
    activate UI
    UI - -> cct: Asks for results value
    deactivate UI
    cct -> UI: Types results value
    activate UI

    UI -> ctrl: addTestResult(parameterCode,result)
    activate ctrl
   ref over ctrl: addTestResult(parameterCode,result)
ctrl -> Test: changeState()
activate Test
Test -> Test: changeState()
activate Test
deactivate

Test - -> ctrl: ok
deactivate
ctrl - -> UI : ok
deactivate ctrl


UI - -> cct: Show all data and show success
deactivate UI




@enduml

PlantUML version 1.2021.7(Sun May 23 13:40:07 BST 2021)
(GPL source distribution)
Java Runtime: OpenJDK Runtime Environment
JVM: Dynamic Code Evolution 64-Bit Server VM
Default Encoding: Cp1252
Language: pt
Country: PT
--></g></svg>