<?xml version="1.0" encoding="UTF-8" standalone="no"?><svg xmlns="http://www.w3.org/2000/svg" xmlns:xlink="http://www.w3.org/1999/xlink" contentScriptType="application/ecmascript" contentStyleType="text/css" height="888px" preserveAspectRatio="none" style="width:2335px;height:888px;" version="1.1" viewBox="0 0 2335 888" width="2335px" zoomAndPan="magnify"><defs><filter height="300%" id="f5j2aknp3t3lo" width="300%" x="-1" y="-1"><feGaussianBlur result="blurOut" stdDeviation="2.0"/><feColorMatrix in="blurOut" result="blurOut2" type="matrix" values="0 0 0 0 0 0 0 0 0 0 0 0 0 0 0 0 0 0 .4 0"/><feOffset dx="4.0" dy="4.0" in="blurOut2" result="blurOut3"/><feBlend in="SourceGraphic" in2="blurOut3" mode="normal"/></filter></defs><g><!--MD5=[a05769ccb6ff68467d0f03d44782bb8a]
class ChemicalAnalysis--><rect codeLine="118" fill="#FEFECE" filter="url(#f5j2aknp3t3lo)" height="60.8047" id="ChemicalAnalysis" style="stroke:#A80036;stroke-width:1.5;" width="135" x="177" y="397.5"/><ellipse cx="192" cy="413.5" fill="#ADD1B2" rx="11" ry="11" style="stroke:#A80036;stroke-width:1.0;"/><path d="M194.3438,409.1719 C193.4063,408.7344 192.8125,408.5938 191.9375,408.5938 C189.3125,408.5938 187.3125,410.6719 187.3125,413.3906 L187.3125,414.5156 C187.3125,417.0938 189.4219,418.9844 192.3125,418.9844 C193.5313,418.9844 194.6875,418.6875 195.4375,418.1406 C196.0156,417.7344 196.3438,417.2813 196.3438,416.8906 C196.3438,416.4375 195.9531,416.0469 195.4844,416.0469 C195.2656,416.0469 195.0625,416.125 194.875,416.3125 C194.4219,416.7969 194.4219,416.7969 194.2344,416.8906 C193.8125,417.1563 193.125,417.2813 192.3594,417.2813 C190.3125,417.2813 189.0156,416.1875 189.0156,414.4844 L189.0156,413.3906 C189.0156,411.6094 190.2656,410.2969 192,410.2969 C192.5781,410.2969 193.1875,410.4531 193.6563,410.7031 C194.1406,410.9844 194.3125,411.2031 194.4063,411.6094 C194.4688,412.0156 194.5,412.1406 194.6406,412.2656 C194.7813,412.4063 195.0156,412.5156 195.2344,412.5156 C195.5,412.5156 195.7656,412.375 195.9375,412.1563 C196.0469,412 196.0781,411.8125 196.0781,411.3906 L196.0781,409.9688 C196.0781,409.5313 196.0625,409.4063 195.9688,409.25 C195.8125,408.9844 195.5313,408.8438 195.2344,408.8438 C194.9375,408.8438 194.7344,408.9375 194.5156,409.25 L194.3438,409.1719 Z " fill="#000000"/><text fill="#000000" font-family="sans-serif" font-size="12" lengthAdjust="spacing" textLength="103" x="206" y="417.6543">ChemicalAnalysis</text><line style="stroke:#A80036;stroke-width:1.5;" x1="178" x2="311" y1="429.5" y2="429.5"/><text fill="#000000" font-family="sans-serif" font-size="11" lengthAdjust="spacing" textLength="36" x="183" y="443.7104">Client;</text><line style="stroke:#A80036;stroke-width:1.5;" x1="178" x2="311" y1="450.3047" y2="450.3047"/><!--MD5=[df38be88ccee13e832d6fafd6288a4ca]
class Test--><rect codeLine="4" fill="#FEFECE" filter="url(#f5j2aknp3t3lo)" height="86.4141" id="Test" style="stroke:#A80036;stroke-width:1.5;" width="88" x="926.5" y="593"/><ellipse cx="955" cy="609" fill="#ADD1B2" rx="11" ry="11" style="stroke:#A80036;stroke-width:1.0;"/><path d="M957.3438,604.6719 C956.4063,604.2344 955.8125,604.0938 954.9375,604.0938 C952.3125,604.0938 950.3125,606.1719 950.3125,608.8906 L950.3125,610.0156 C950.3125,612.5938 952.4219,614.4844 955.3125,614.4844 C956.5313,614.4844 957.6875,614.1875 958.4375,613.6406 C959.0156,613.2344 959.3438,612.7813 959.3438,612.3906 C959.3438,611.9375 958.9531,611.5469 958.4844,611.5469 C958.2656,611.5469 958.0625,611.625 957.875,611.8125 C957.4219,612.2969 957.4219,612.2969 957.2344,612.3906 C956.8125,612.6563 956.125,612.7813 955.3594,612.7813 C953.3125,612.7813 952.0156,611.6875 952.0156,609.9844 L952.0156,608.8906 C952.0156,607.1094 953.2656,605.7969 955,605.7969 C955.5781,605.7969 956.1875,605.9531 956.6563,606.2031 C957.1406,606.4844 957.3125,606.7031 957.4063,607.1094 C957.4688,607.5156 957.5,607.6406 957.6406,607.7656 C957.7813,607.9063 958.0156,608.0156 958.2344,608.0156 C958.5,608.0156 958.7656,607.875 958.9375,607.6563 C959.0469,607.5 959.0781,607.3125 959.0781,606.8906 L959.0781,605.4688 C959.0781,605.0313 959.0625,604.9063 958.9688,604.75 C958.8125,604.4844 958.5313,604.3438 958.2344,604.3438 C957.9375,604.3438 957.7344,604.4375 957.5156,604.75 L957.3438,604.6719 Z " fill="#000000"/><text fill="#000000" font-family="sans-serif" font-size="12" lengthAdjust="spacing" textLength="26" x="972" y="613.1543">Test</text><line style="stroke:#A80036;stroke-width:1.5;" x1="927.5" x2="1013.5" y1="625" y2="625"/><text fill="#000000" font-family="sans-serif" font-size="11" lengthAdjust="spacing" textLength="36" x="932.5" y="639.2104">Client;</text><text fill="#000000" font-family="sans-serif" font-size="11" lengthAdjust="spacing" textLength="44" x="932.5" y="652.0151">Test ID;</text><text fill="#000000" font-family="sans-serif" font-size="11" lengthAdjust="spacing" textLength="76" x="932.5" y="664.8198">Type of Test;</text><line style="stroke:#A80036;stroke-width:1.5;" x1="927.5" x2="1013.5" y1="671.4141" y2="671.4141"/><!--MD5=[9681492165142af2a4a3a169d90ee8d4]
class Sample--><rect codeLine="10" fill="#FEFECE" filter="url(#f5j2aknp3t3lo)" height="73.6094" id="Sample" style="stroke:#A80036;stroke-width:1.5;" width="107" x="498" y="391"/><ellipse cx="526.5" cy="407" fill="#ADD1B2" rx="11" ry="11" style="stroke:#A80036;stroke-width:1.0;"/><path d="M528.8438,402.6719 C527.9063,402.2344 527.3125,402.0938 526.4375,402.0938 C523.8125,402.0938 521.8125,404.1719 521.8125,406.8906 L521.8125,408.0156 C521.8125,410.5938 523.9219,412.4844 526.8125,412.4844 C528.0313,412.4844 529.1875,412.1875 529.9375,411.6406 C530.5156,411.2344 530.8438,410.7813 530.8438,410.3906 C530.8438,409.9375 530.4531,409.5469 529.9844,409.5469 C529.7656,409.5469 529.5625,409.625 529.375,409.8125 C528.9219,410.2969 528.9219,410.2969 528.7344,410.3906 C528.3125,410.6563 527.625,410.7813 526.8594,410.7813 C524.8125,410.7813 523.5156,409.6875 523.5156,407.9844 L523.5156,406.8906 C523.5156,405.1094 524.7656,403.7969 526.5,403.7969 C527.0781,403.7969 527.6875,403.9531 528.1563,404.2031 C528.6406,404.4844 528.8125,404.7031 528.9063,405.1094 C528.9688,405.5156 529,405.6406 529.1406,405.7656 C529.2813,405.9063 529.5156,406.0156 529.7344,406.0156 C530,406.0156 530.2656,405.875 530.4375,405.6563 C530.5469,405.5 530.5781,405.3125 530.5781,404.8906 L530.5781,403.4688 C530.5781,403.0313 530.5625,402.9063 530.4688,402.75 C530.3125,402.4844 530.0313,402.3438 529.7344,402.3438 C529.4375,402.3438 529.2344,402.4375 529.0156,402.75 L528.8438,402.6719 Z " fill="#000000"/><text fill="#000000" font-family="sans-serif" font-size="12" lengthAdjust="spacing" textLength="45" x="543.5" y="411.1543">Sample</text><line style="stroke:#A80036;stroke-width:1.5;" x1="499" x2="604" y1="423" y2="423"/><text fill="#000000" font-family="sans-serif" font-size="11" lengthAdjust="spacing" textLength="44" x="504" y="437.2104">Test ID;</text><text fill="#000000" font-family="sans-serif" font-size="11" lengthAdjust="spacing" textLength="95" x="504" y="450.0151">Type of Sample;</text><line style="stroke:#A80036;stroke-width:1.5;" x1="499" x2="604" y1="456.6094" y2="456.6094"/><!--MD5=[f5ce7ed79300ea91e9719010e6fbc6f7]
class Covid19Tests--><rect codeLine="15" fill="#FEFECE" filter="url(#f5j2aknp3t3lo)" height="60.8047" id="Covid19Tests" style="stroke:#A80036;stroke-width:1.5;" width="114" x="1035.5" y="397.5"/><ellipse cx="1050.5" cy="413.5" fill="#ADD1B2" rx="11" ry="11" style="stroke:#A80036;stroke-width:1.0;"/><path d="M1052.8438,409.1719 C1051.9063,408.7344 1051.3125,408.5938 1050.4375,408.5938 C1047.8125,408.5938 1045.8125,410.6719 1045.8125,413.3906 L1045.8125,414.5156 C1045.8125,417.0938 1047.9219,418.9844 1050.8125,418.9844 C1052.0313,418.9844 1053.1875,418.6875 1053.9375,418.1406 C1054.5156,417.7344 1054.8438,417.2813 1054.8438,416.8906 C1054.8438,416.4375 1054.4531,416.0469 1053.9844,416.0469 C1053.7656,416.0469 1053.5625,416.125 1053.375,416.3125 C1052.9219,416.7969 1052.9219,416.7969 1052.7344,416.8906 C1052.3125,417.1563 1051.625,417.2813 1050.8594,417.2813 C1048.8125,417.2813 1047.5156,416.1875 1047.5156,414.4844 L1047.5156,413.3906 C1047.5156,411.6094 1048.7656,410.2969 1050.5,410.2969 C1051.0781,410.2969 1051.6875,410.4531 1052.1563,410.7031 C1052.6406,410.9844 1052.8125,411.2031 1052.9063,411.6094 C1052.9688,412.0156 1053,412.1406 1053.1406,412.2656 C1053.2813,412.4063 1053.5156,412.5156 1053.7344,412.5156 C1054,412.5156 1054.2656,412.375 1054.4375,412.1563 C1054.5469,412 1054.5781,411.8125 1054.5781,411.3906 L1054.5781,409.9688 C1054.5781,409.5313 1054.5625,409.4063 1054.4688,409.25 C1054.3125,408.9844 1054.0313,408.8438 1053.7344,408.8438 C1053.4375,408.8438 1053.2344,408.9375 1053.0156,409.25 L1052.8438,409.1719 Z " fill="#000000"/><text fill="#000000" font-family="sans-serif" font-size="12" lengthAdjust="spacing" textLength="82" x="1064.5" y="417.6543">Covid19Tests</text><line style="stroke:#A80036;stroke-width:1.5;" x1="1036.5" x2="1148.5" y1="429.5" y2="429.5"/><text fill="#000000" font-family="sans-serif" font-size="11" lengthAdjust="spacing" textLength="86" x="1041.5" y="443.7104">Covid19 Value;</text><line style="stroke:#A80036;stroke-width:1.5;" x1="1036.5" x2="1148.5" y1="450.3047" y2="450.3047"/><!--MD5=[b16729950a1b59046e8981165c1f1f01]
class AnalysisOfBlood--><rect codeLine="19" fill="#FEFECE" filter="url(#f5j2aknp3t3lo)" height="86.4141" id="AnalysisOfBlood" style="stroke:#A80036;stroke-width:1.5;" width="165" x="1185" y="385"/><ellipse cx="1215.75" cy="401" fill="#ADD1B2" rx="11" ry="11" style="stroke:#A80036;stroke-width:1.0;"/><path d="M1218.0938,396.6719 C1217.1563,396.2344 1216.5625,396.0938 1215.6875,396.0938 C1213.0625,396.0938 1211.0625,398.1719 1211.0625,400.8906 L1211.0625,402.0156 C1211.0625,404.5938 1213.1719,406.4844 1216.0625,406.4844 C1217.2813,406.4844 1218.4375,406.1875 1219.1875,405.6406 C1219.7656,405.2344 1220.0938,404.7813 1220.0938,404.3906 C1220.0938,403.9375 1219.7031,403.5469 1219.2344,403.5469 C1219.0156,403.5469 1218.8125,403.625 1218.625,403.8125 C1218.1719,404.2969 1218.1719,404.2969 1217.9844,404.3906 C1217.5625,404.6563 1216.875,404.7813 1216.1094,404.7813 C1214.0625,404.7813 1212.7656,403.6875 1212.7656,401.9844 L1212.7656,400.8906 C1212.7656,399.1094 1214.0156,397.7969 1215.75,397.7969 C1216.3281,397.7969 1216.9375,397.9531 1217.4063,398.2031 C1217.8906,398.4844 1218.0625,398.7031 1218.1563,399.1094 C1218.2188,399.5156 1218.25,399.6406 1218.3906,399.7656 C1218.5313,399.9063 1218.7656,400.0156 1218.9844,400.0156 C1219.25,400.0156 1219.5156,399.875 1219.6875,399.6563 C1219.7969,399.5 1219.8281,399.3125 1219.8281,398.8906 L1219.8281,397.4688 C1219.8281,397.0313 1219.8125,396.9063 1219.7188,396.75 C1219.5625,396.4844 1219.2813,396.3438 1218.9844,396.3438 C1218.6875,396.3438 1218.4844,396.4375 1218.2656,396.75 L1218.0938,396.6719 Z " fill="#000000"/><text fill="#000000" font-family="sans-serif" font-size="12" lengthAdjust="spacing" textLength="98" x="1233.25" y="405.1543">AnalysisOfBlood</text><line style="stroke:#A80036;stroke-width:1.5;" x1="1186" x2="1349" y1="417" y2="417"/><text fill="#000000" font-family="sans-serif" font-size="11" lengthAdjust="spacing" textLength="142" x="1191" y="431.2104">Number Red Blood Cells;</text><text fill="#000000" font-family="sans-serif" font-size="11" lengthAdjust="spacing" textLength="153" x="1191" y="444.0151">Number White Blood Cells;</text><text fill="#000000" font-family="sans-serif" font-size="11" lengthAdjust="spacing" textLength="101" x="1191" y="456.8198">Number Platelets;</text><line style="stroke:#A80036;stroke-width:1.5;" x1="1186" x2="1349" y1="463.4141" y2="463.4141"/><!--MD5=[ed6624c6556d5e7b1bd23032162d20b7]
class Client--><rect codeLine="25" fill="#FEFECE" filter="url(#f5j2aknp3t3lo)" height="150.4375" id="Client" style="stroke:#A80036;stroke-width:1.5;" width="221" x="1410" y="561"/><ellipse cx="1499.75" cy="577" fill="#ADD1B2" rx="11" ry="11" style="stroke:#A80036;stroke-width:1.0;"/><path d="M1502.0938,572.6719 C1501.1563,572.2344 1500.5625,572.0938 1499.6875,572.0938 C1497.0625,572.0938 1495.0625,574.1719 1495.0625,576.8906 L1495.0625,578.0156 C1495.0625,580.5938 1497.1719,582.4844 1500.0625,582.4844 C1501.2813,582.4844 1502.4375,582.1875 1503.1875,581.6406 C1503.7656,581.2344 1504.0938,580.7813 1504.0938,580.3906 C1504.0938,579.9375 1503.7031,579.5469 1503.2344,579.5469 C1503.0156,579.5469 1502.8125,579.625 1502.625,579.8125 C1502.1719,580.2969 1502.1719,580.2969 1501.9844,580.3906 C1501.5625,580.6563 1500.875,580.7813 1500.1094,580.7813 C1498.0625,580.7813 1496.7656,579.6875 1496.7656,577.9844 L1496.7656,576.8906 C1496.7656,575.1094 1498.0156,573.7969 1499.75,573.7969 C1500.3281,573.7969 1500.9375,573.9531 1501.4063,574.2031 C1501.8906,574.4844 1502.0625,574.7031 1502.1563,575.1094 C1502.2188,575.5156 1502.25,575.6406 1502.3906,575.7656 C1502.5313,575.9063 1502.7656,576.0156 1502.9844,576.0156 C1503.25,576.0156 1503.5156,575.875 1503.6875,575.6563 C1503.7969,575.5 1503.8281,575.3125 1503.8281,574.8906 L1503.8281,573.4688 C1503.8281,573.0313 1503.8125,572.9063 1503.7188,572.75 C1503.5625,572.4844 1503.2813,572.3438 1502.9844,572.3438 C1502.6875,572.3438 1502.4844,572.4375 1502.2656,572.75 L1502.0938,572.6719 Z " fill="#000000"/><text fill="#000000" font-family="sans-serif" font-size="12" lengthAdjust="spacing" textLength="33" x="1520.25" y="581.1543">Client</text><line style="stroke:#A80036;stroke-width:1.5;" x1="1411" x2="1630" y1="593" y2="593"/><text fill="#000000" font-family="sans-serif" font-size="11" lengthAdjust="spacing" textLength="37" x="1416" y="607.2104">Name;</text><text fill="#000000" font-family="sans-serif" font-size="11" lengthAdjust="spacing" textLength="120" x="1416" y="620.0151">Citizen card Number;</text><text fill="#000000" font-family="sans-serif" font-size="11" lengthAdjust="spacing" textLength="209" x="1416" y="632.8198">National Healthcare Service Number</text><text fill="#000000" font-family="sans-serif" font-size="11" lengthAdjust="spacing" textLength="59" x="1416" y="645.6245">Birth date;</text><text fill="#000000" font-family="sans-serif" font-size="11" lengthAdjust="spacing" textLength="26" x="1416" y="658.4292">Sex;</text><text fill="#000000" font-family="sans-serif" font-size="11" lengthAdjust="spacing" textLength="150" x="1416" y="671.2339">Tax Identification Number;</text><text fill="#000000" font-family="sans-serif" font-size="11" lengthAdjust="spacing" textLength="38" x="1416" y="684.0386">Phone;</text><text fill="#000000" font-family="sans-serif" font-size="11" lengthAdjust="spacing" textLength="38" x="1416" y="696.8433">E-mail;</text><line style="stroke:#A80036;stroke-width:1.5;" x1="1411" x2="1630" y1="703.4375" y2="703.4375"/><!--MD5=[03960189e81aa2c066c762ffabbee709]
class Receptionist--><rect codeLine="36" fill="#FEFECE" filter="url(#f5j2aknp3t3lo)" height="137.6328" id="Receptionist" style="stroke:#A80036;stroke-width:1.5;" width="260" x="1057.5" y="151"/><ellipse cx="1146.25" cy="167" fill="#ADD1B2" rx="11" ry="11" style="stroke:#A80036;stroke-width:1.0;"/><path d="M1148.5938,162.6719 C1147.6563,162.2344 1147.0625,162.0938 1146.1875,162.0938 C1143.5625,162.0938 1141.5625,164.1719 1141.5625,166.8906 L1141.5625,168.0156 C1141.5625,170.5938 1143.6719,172.4844 1146.5625,172.4844 C1147.7813,172.4844 1148.9375,172.1875 1149.6875,171.6406 C1150.2656,171.2344 1150.5938,170.7813 1150.5938,170.3906 C1150.5938,169.9375 1150.2031,169.5469 1149.7344,169.5469 C1149.5156,169.5469 1149.3125,169.625 1149.125,169.8125 C1148.6719,170.2969 1148.6719,170.2969 1148.4844,170.3906 C1148.0625,170.6563 1147.375,170.7813 1146.6094,170.7813 C1144.5625,170.7813 1143.2656,169.6875 1143.2656,167.9844 L1143.2656,166.8906 C1143.2656,165.1094 1144.5156,163.7969 1146.25,163.7969 C1146.8281,163.7969 1147.4375,163.9531 1147.9063,164.2031 C1148.3906,164.4844 1148.5625,164.7031 1148.6563,165.1094 C1148.7188,165.5156 1148.75,165.6406 1148.8906,165.7656 C1149.0313,165.9063 1149.2656,166.0156 1149.4844,166.0156 C1149.75,166.0156 1150.0156,165.875 1150.1875,165.6563 C1150.2969,165.5 1150.3281,165.3125 1150.3281,164.8906 L1150.3281,163.4688 C1150.3281,163.0313 1150.3125,162.9063 1150.2188,162.75 C1150.0625,162.4844 1149.7813,162.3438 1149.4844,162.3438 C1149.1875,162.3438 1148.9844,162.4375 1148.7656,162.75 L1148.5938,162.6719 Z " fill="#000000"/><text fill="#000000" font-family="sans-serif" font-size="12" lengthAdjust="spacing" textLength="74" x="1166.75" y="171.1543">Receptionist</text><line style="stroke:#A80036;stroke-width:1.5;" x1="1058.5" x2="1316.5" y1="183" y2="183"/><text fill="#000000" font-family="sans-serif" font-size="11" lengthAdjust="spacing" textLength="77" x="1063.5" y="197.2104">Employee ID;</text><text fill="#000000" font-family="sans-serif" font-size="11" lengthAdjust="spacing" textLength="104" x="1063.5" y="210.0151">Organization Role;</text><text fill="#000000" font-family="sans-serif" font-size="11" lengthAdjust="spacing" textLength="37" x="1063.5" y="222.8198">Name;</text><text fill="#000000" font-family="sans-serif" font-size="11" lengthAdjust="spacing" textLength="49" x="1063.5" y="235.6245">Address;</text><text fill="#000000" font-family="sans-serif" font-size="11" lengthAdjust="spacing" textLength="87" x="1063.5" y="248.4292">Phone Number;</text><text fill="#000000" font-family="sans-serif" font-size="11" lengthAdjust="spacing" textLength="36" x="1063.5" y="261.2339">E-Mail;</text><text fill="#000000" font-family="sans-serif" font-size="11" lengthAdjust="spacing" textLength="248" x="1063.5" y="274.0386">Standard Occupational Classification "SOC";</text><line style="stroke:#A80036;stroke-width:1.5;" x1="1058.5" x2="1316.5" y1="280.6328" y2="280.6328"/><!--MD5=[01931d41e78f8996acd44f6f0fd8de28]
class MedicalLabTechnician--><rect codeLine="46" fill="#FEFECE" filter="url(#f5j2aknp3t3lo)" height="137.6328" id="MedicalLabTechnician" style="stroke:#A80036;stroke-width:1.5;" width="260" x="615.5" y="151"/><ellipse cx="676.25" cy="167" fill="#ADD1B2" rx="11" ry="11" style="stroke:#A80036;stroke-width:1.0;"/><path d="M678.5938,162.6719 C677.6563,162.2344 677.0625,162.0938 676.1875,162.0938 C673.5625,162.0938 671.5625,164.1719 671.5625,166.8906 L671.5625,168.0156 C671.5625,170.5938 673.6719,172.4844 676.5625,172.4844 C677.7813,172.4844 678.9375,172.1875 679.6875,171.6406 C680.2656,171.2344 680.5938,170.7813 680.5938,170.3906 C680.5938,169.9375 680.2031,169.5469 679.7344,169.5469 C679.5156,169.5469 679.3125,169.625 679.125,169.8125 C678.6719,170.2969 678.6719,170.2969 678.4844,170.3906 C678.0625,170.6563 677.375,170.7813 676.6094,170.7813 C674.5625,170.7813 673.2656,169.6875 673.2656,167.9844 L673.2656,166.8906 C673.2656,165.1094 674.5156,163.7969 676.25,163.7969 C676.8281,163.7969 677.4375,163.9531 677.9063,164.2031 C678.3906,164.4844 678.5625,164.7031 678.6563,165.1094 C678.7188,165.5156 678.75,165.6406 678.8906,165.7656 C679.0313,165.9063 679.2656,166.0156 679.4844,166.0156 C679.75,166.0156 680.0156,165.875 680.1875,165.6563 C680.2969,165.5 680.3281,165.3125 680.3281,164.8906 L680.3281,163.4688 C680.3281,163.0313 680.3125,162.9063 680.2188,162.75 C680.0625,162.4844 679.7813,162.3438 679.4844,162.3438 C679.1875,162.3438 678.9844,162.4375 678.7656,162.75 L678.5938,162.6719 Z " fill="#000000"/><text fill="#000000" font-family="sans-serif" font-size="12" lengthAdjust="spacing" textLength="130" x="696.75" y="171.1543">MedicalLabTechnician</text><line style="stroke:#A80036;stroke-width:1.5;" x1="616.5" x2="874.5" y1="183" y2="183"/><text fill="#000000" font-family="sans-serif" font-size="11" lengthAdjust="spacing" textLength="77" x="621.5" y="197.2104">Employee ID;</text><text fill="#000000" font-family="sans-serif" font-size="11" lengthAdjust="spacing" textLength="104" x="621.5" y="210.0151">Organization Role;</text><text fill="#000000" font-family="sans-serif" font-size="11" lengthAdjust="spacing" textLength="37" x="621.5" y="222.8198">Name;</text><text fill="#000000" font-family="sans-serif" font-size="11" lengthAdjust="spacing" textLength="49" x="621.5" y="235.6245">Address;</text><text fill="#000000" font-family="sans-serif" font-size="11" lengthAdjust="spacing" textLength="87" x="621.5" y="248.4292">Phone Number;</text><text fill="#000000" font-family="sans-serif" font-size="11" lengthAdjust="spacing" textLength="36" x="621.5" y="261.2339">E-Mail;</text><text fill="#000000" font-family="sans-serif" font-size="11" lengthAdjust="spacing" textLength="248" x="621.5" y="274.0386">Standard Occupational Classification "SOC";</text><line style="stroke:#A80036;stroke-width:1.5;" x1="616.5" x2="874.5" y1="280.6328" y2="280.6328"/><!--MD5=[7d96fd15f3014691d2fcaf89c5791e2a]
class SpecialistDoctor--><rect codeLine="56" fill="#FEFECE" filter="url(#f5j2aknp3t3lo)" height="150.4375" id="SpecialistDoctor" style="stroke:#A80036;stroke-width:1.5;" width="260" x="1647.5" y="145"/><ellipse cx="1723.75" cy="161" fill="#ADD1B2" rx="11" ry="11" style="stroke:#A80036;stroke-width:1.0;"/><path d="M1726.0938,156.6719 C1725.1563,156.2344 1724.5625,156.0938 1723.6875,156.0938 C1721.0625,156.0938 1719.0625,158.1719 1719.0625,160.8906 L1719.0625,162.0156 C1719.0625,164.5938 1721.1719,166.4844 1724.0625,166.4844 C1725.2813,166.4844 1726.4375,166.1875 1727.1875,165.6406 C1727.7656,165.2344 1728.0938,164.7813 1728.0938,164.3906 C1728.0938,163.9375 1727.7031,163.5469 1727.2344,163.5469 C1727.0156,163.5469 1726.8125,163.625 1726.625,163.8125 C1726.1719,164.2969 1726.1719,164.2969 1725.9844,164.3906 C1725.5625,164.6563 1724.875,164.7813 1724.1094,164.7813 C1722.0625,164.7813 1720.7656,163.6875 1720.7656,161.9844 L1720.7656,160.8906 C1720.7656,159.1094 1722.0156,157.7969 1723.75,157.7969 C1724.3281,157.7969 1724.9375,157.9531 1725.4063,158.2031 C1725.8906,158.4844 1726.0625,158.7031 1726.1563,159.1094 C1726.2188,159.5156 1726.25,159.6406 1726.3906,159.7656 C1726.5313,159.9063 1726.7656,160.0156 1726.9844,160.0156 C1727.25,160.0156 1727.5156,159.875 1727.6875,159.6563 C1727.7969,159.5 1727.8281,159.3125 1727.8281,158.8906 L1727.8281,157.4688 C1727.8281,157.0313 1727.8125,156.9063 1727.7188,156.75 C1727.5625,156.4844 1727.2813,156.3438 1726.9844,156.3438 C1726.6875,156.3438 1726.4844,156.4375 1726.2656,156.75 L1726.0938,156.6719 Z " fill="#000000"/><text fill="#000000" font-family="sans-serif" font-size="12" lengthAdjust="spacing" textLength="99" x="1744.25" y="165.1543">SpecialistDoctor</text><line style="stroke:#A80036;stroke-width:1.5;" x1="1648.5" x2="1906.5" y1="177" y2="177"/><text fill="#000000" font-family="sans-serif" font-size="11" lengthAdjust="spacing" textLength="77" x="1653.5" y="191.2104">Employee ID;</text><text fill="#000000" font-family="sans-serif" font-size="11" lengthAdjust="spacing" textLength="104" x="1653.5" y="204.0151">Organization Role;</text><text fill="#000000" font-family="sans-serif" font-size="11" lengthAdjust="spacing" textLength="37" x="1653.5" y="216.8198">Name;</text><text fill="#000000" font-family="sans-serif" font-size="11" lengthAdjust="spacing" textLength="49" x="1653.5" y="229.6245">Address;</text><text fill="#000000" font-family="sans-serif" font-size="11" lengthAdjust="spacing" textLength="87" x="1653.5" y="242.4292">Phone Number;</text><text fill="#000000" font-family="sans-serif" font-size="11" lengthAdjust="spacing" textLength="36" x="1653.5" y="255.2339">E-Mail;</text><text fill="#000000" font-family="sans-serif" font-size="11" lengthAdjust="spacing" textLength="248" x="1653.5" y="268.0386">Standard Occupational Classification "SOC";</text><text fill="#000000" font-family="sans-serif" font-size="11" lengthAdjust="spacing" textLength="125" x="1653.5" y="280.8433">Doctor Index Number;</text><line style="stroke:#A80036;stroke-width:1.5;" x1="1648.5" x2="1906.5" y1="287.4375" y2="287.4375"/><!--MD5=[da547346deef918ea16944ba046651ef]
class Administrator--><rect codeLine="67" fill="#FEFECE" filter="url(#f5j2aknp3t3lo)" height="137.6328" id="Administrator" style="stroke:#A80036;stroke-width:1.5;" width="260" x="2061.5" y="151"/><ellipse cx="2147.25" cy="167" fill="#ADD1B2" rx="11" ry="11" style="stroke:#A80036;stroke-width:1.0;"/><path d="M2149.5938,162.6719 C2148.6563,162.2344 2148.0625,162.0938 2147.1875,162.0938 C2144.5625,162.0938 2142.5625,164.1719 2142.5625,166.8906 L2142.5625,168.0156 C2142.5625,170.5938 2144.6719,172.4844 2147.5625,172.4844 C2148.7813,172.4844 2149.9375,172.1875 2150.6875,171.6406 C2151.2656,171.2344 2151.5938,170.7813 2151.5938,170.3906 C2151.5938,169.9375 2151.2031,169.5469 2150.7344,169.5469 C2150.5156,169.5469 2150.3125,169.625 2150.125,169.8125 C2149.6719,170.2969 2149.6719,170.2969 2149.4844,170.3906 C2149.0625,170.6563 2148.375,170.7813 2147.6094,170.7813 C2145.5625,170.7813 2144.2656,169.6875 2144.2656,167.9844 L2144.2656,166.8906 C2144.2656,165.1094 2145.5156,163.7969 2147.25,163.7969 C2147.8281,163.7969 2148.4375,163.9531 2148.9063,164.2031 C2149.3906,164.4844 2149.5625,164.7031 2149.6563,165.1094 C2149.7188,165.5156 2149.75,165.6406 2149.8906,165.7656 C2150.0313,165.9063 2150.2656,166.0156 2150.4844,166.0156 C2150.75,166.0156 2151.0156,165.875 2151.1875,165.6563 C2151.2969,165.5 2151.3281,165.3125 2151.3281,164.8906 L2151.3281,163.4688 C2151.3281,163.0313 2151.3125,162.9063 2151.2188,162.75 C2151.0625,162.4844 2150.7813,162.3438 2150.4844,162.3438 C2150.1875,162.3438 2149.9844,162.4375 2149.7656,162.75 L2149.5938,162.6719 Z " fill="#000000"/><text fill="#000000" font-family="sans-serif" font-size="12" lengthAdjust="spacing" textLength="80" x="2167.75" y="171.1543">Administrator</text><line style="stroke:#A80036;stroke-width:1.5;" x1="2062.5" x2="2320.5" y1="183" y2="183"/><text fill="#000000" font-family="sans-serif" font-size="11" lengthAdjust="spacing" textLength="77" x="2067.5" y="197.2104">Employee ID;</text><text fill="#000000" font-family="sans-serif" font-size="11" lengthAdjust="spacing" textLength="104" x="2067.5" y="210.0151">Organization Role;</text><text fill="#000000" font-family="sans-serif" font-size="11" lengthAdjust="spacing" textLength="37" x="2067.5" y="222.8198">Name;</text><text fill="#000000" font-family="sans-serif" font-size="11" lengthAdjust="spacing" textLength="49" x="2067.5" y="235.6245">Address;</text><text fill="#000000" font-family="sans-serif" font-size="11" lengthAdjust="spacing" textLength="87" x="2067.5" y="248.4292">Phone Number;</text><text fill="#000000" font-family="sans-serif" font-size="11" lengthAdjust="spacing" textLength="36" x="2067.5" y="261.2339">E-Mail;</text><text fill="#000000" font-family="sans-serif" font-size="11" lengthAdjust="spacing" textLength="248" x="2067.5" y="274.0386">Standard Occupational Classification "SOC";</text><line style="stroke:#A80036;stroke-width:1.5;" x1="2062.5" x2="2320.5" y1="280.6328" y2="280.6328"/><!--MD5=[012ee2a8bf3ae2b319009b06f951c2e5]
class ClinicalChemistryTechnologist--><rect codeLine="77" fill="#FEFECE" filter="url(#f5j2aknp3t3lo)" height="137.6328" id="ClinicalChemistryTechnologist" style="stroke:#A80036;stroke-width:1.5;" width="260" x="320.5" y="151"/><ellipse cx="358" cy="167" fill="#ADD1B2" rx="11" ry="11" style="stroke:#A80036;stroke-width:1.0;"/><path d="M360.3438,162.6719 C359.4063,162.2344 358.8125,162.0938 357.9375,162.0938 C355.3125,162.0938 353.3125,164.1719 353.3125,166.8906 L353.3125,168.0156 C353.3125,170.5938 355.4219,172.4844 358.3125,172.4844 C359.5313,172.4844 360.6875,172.1875 361.4375,171.6406 C362.0156,171.2344 362.3438,170.7813 362.3438,170.3906 C362.3438,169.9375 361.9531,169.5469 361.4844,169.5469 C361.2656,169.5469 361.0625,169.625 360.875,169.8125 C360.4219,170.2969 360.4219,170.2969 360.2344,170.3906 C359.8125,170.6563 359.125,170.7813 358.3594,170.7813 C356.3125,170.7813 355.0156,169.6875 355.0156,167.9844 L355.0156,166.8906 C355.0156,165.1094 356.2656,163.7969 358,163.7969 C358.5781,163.7969 359.1875,163.9531 359.6563,164.2031 C360.1406,164.4844 360.3125,164.7031 360.4063,165.1094 C360.4688,165.5156 360.5,165.6406 360.6406,165.7656 C360.7813,165.9063 361.0156,166.0156 361.2344,166.0156 C361.5,166.0156 361.7656,165.875 361.9375,165.6563 C362.0469,165.5 362.0781,165.3125 362.0781,164.8906 L362.0781,163.4688 C362.0781,163.0313 362.0625,162.9063 361.9688,162.75 C361.8125,162.4844 361.5313,162.3438 361.2344,162.3438 C360.9375,162.3438 360.7344,162.4375 360.5156,162.75 L360.3438,162.6719 Z " fill="#000000"/><text fill="#000000" font-family="sans-serif" font-size="12" lengthAdjust="spacing" textLength="178" x="377" y="171.1543">ClinicalChemistryTechnologist</text><line style="stroke:#A80036;stroke-width:1.5;" x1="321.5" x2="579.5" y1="183" y2="183"/><text fill="#000000" font-family="sans-serif" font-size="11" lengthAdjust="spacing" textLength="77" x="326.5" y="197.2104">Employee ID;</text><text fill="#000000" font-family="sans-serif" font-size="11" lengthAdjust="spacing" textLength="104" x="326.5" y="210.0151">Organization Role;</text><text fill="#000000" font-family="sans-serif" font-size="11" lengthAdjust="spacing" textLength="37" x="326.5" y="222.8198">Name;</text><text fill="#000000" font-family="sans-serif" font-size="11" lengthAdjust="spacing" textLength="49" x="326.5" y="235.6245">Address;</text><text fill="#000000" font-family="sans-serif" font-size="11" lengthAdjust="spacing" textLength="87" x="326.5" y="248.4292">Phone Number;</text><text fill="#000000" font-family="sans-serif" font-size="11" lengthAdjust="spacing" textLength="36" x="326.5" y="261.2339">E-Mail;</text><text fill="#000000" font-family="sans-serif" font-size="11" lengthAdjust="spacing" textLength="248" x="326.5" y="274.0386">Standard Occupational Classification "SOC";</text><line style="stroke:#A80036;stroke-width:1.5;" x1="321.5" x2="579.5" y1="280.6328" y2="280.6328"/><!--MD5=[052425de1c0eb6cc1c1b48342b0bb88f]
class LaboratoryCoordinator--><rect codeLine="87" fill="#FEFECE" filter="url(#f5j2aknp3t3lo)" height="137.6328" id="LaboratoryCoordinator" style="stroke:#A80036;stroke-width:1.5;" width="260" x="1352.5" y="151"/><ellipse cx="1410.25" cy="167" fill="#ADD1B2" rx="11" ry="11" style="stroke:#A80036;stroke-width:1.0;"/><path d="M1412.5938,162.6719 C1411.6563,162.2344 1411.0625,162.0938 1410.1875,162.0938 C1407.5625,162.0938 1405.5625,164.1719 1405.5625,166.8906 L1405.5625,168.0156 C1405.5625,170.5938 1407.6719,172.4844 1410.5625,172.4844 C1411.7813,172.4844 1412.9375,172.1875 1413.6875,171.6406 C1414.2656,171.2344 1414.5938,170.7813 1414.5938,170.3906 C1414.5938,169.9375 1414.2031,169.5469 1413.7344,169.5469 C1413.5156,169.5469 1413.3125,169.625 1413.125,169.8125 C1412.6719,170.2969 1412.6719,170.2969 1412.4844,170.3906 C1412.0625,170.6563 1411.375,170.7813 1410.6094,170.7813 C1408.5625,170.7813 1407.2656,169.6875 1407.2656,167.9844 L1407.2656,166.8906 C1407.2656,165.1094 1408.5156,163.7969 1410.25,163.7969 C1410.8281,163.7969 1411.4375,163.9531 1411.9063,164.2031 C1412.3906,164.4844 1412.5625,164.7031 1412.6563,165.1094 C1412.7188,165.5156 1412.75,165.6406 1412.8906,165.7656 C1413.0313,165.9063 1413.2656,166.0156 1413.4844,166.0156 C1413.75,166.0156 1414.0156,165.875 1414.1875,165.6563 C1414.2969,165.5 1414.3281,165.3125 1414.3281,164.8906 L1414.3281,163.4688 C1414.3281,163.0313 1414.3125,162.9063 1414.2188,162.75 C1414.0625,162.4844 1413.7813,162.3438 1413.4844,162.3438 C1413.1875,162.3438 1412.9844,162.4375 1412.7656,162.75 L1412.5938,162.6719 Z " fill="#000000"/><text fill="#000000" font-family="sans-serif" font-size="12" lengthAdjust="spacing" textLength="136" x="1430.75" y="171.1543">LaboratoryCoordinator</text><line style="stroke:#A80036;stroke-width:1.5;" x1="1353.5" x2="1611.5" y1="183" y2="183"/><text fill="#000000" font-family="sans-serif" font-size="11" lengthAdjust="spacing" textLength="77" x="1358.5" y="197.2104">Employee ID;</text><text fill="#000000" font-family="sans-serif" font-size="11" lengthAdjust="spacing" textLength="104" x="1358.5" y="210.0151">Organization Role;</text><text fill="#000000" font-family="sans-serif" font-size="11" lengthAdjust="spacing" textLength="37" x="1358.5" y="222.8198">Name;</text><text fill="#000000" font-family="sans-serif" font-size="11" lengthAdjust="spacing" textLength="49" x="1358.5" y="235.6245">Address;</text><text fill="#000000" font-family="sans-serif" font-size="11" lengthAdjust="spacing" textLength="87" x="1358.5" y="248.4292">Phone Number;</text><text fill="#000000" font-family="sans-serif" font-size="11" lengthAdjust="spacing" textLength="36" x="1358.5" y="261.2339">E-Mail;</text><text fill="#000000" font-family="sans-serif" font-size="11" lengthAdjust="spacing" textLength="248" x="1358.5" y="274.0386">Standard Occupational Classification "SOC";</text><line style="stroke:#A80036;stroke-width:1.5;" x1="1353.5" x2="1611.5" y1="280.6328" y2="280.6328"/><!--MD5=[1934a092c0e7d4da7dc7075b6f4b6b03]
class ClinicalAnalysisLaboratory--><rect codeLine="97" fill="#FEFECE" filter="url(#f5j2aknp3t3lo)" height="112.0234" id="ClinicalAnalysisLaboratory" style="stroke:#A80036;stroke-width:1.5;" width="187" x="1863" y="372"/><ellipse cx="1878" cy="388" fill="#ADD1B2" rx="11" ry="11" style="stroke:#A80036;stroke-width:1.0;"/><path d="M1880.3438,383.6719 C1879.4063,383.2344 1878.8125,383.0938 1877.9375,383.0938 C1875.3125,383.0938 1873.3125,385.1719 1873.3125,387.8906 L1873.3125,389.0156 C1873.3125,391.5938 1875.4219,393.4844 1878.3125,393.4844 C1879.5313,393.4844 1880.6875,393.1875 1881.4375,392.6406 C1882.0156,392.2344 1882.3438,391.7813 1882.3438,391.3906 C1882.3438,390.9375 1881.9531,390.5469 1881.4844,390.5469 C1881.2656,390.5469 1881.0625,390.625 1880.875,390.8125 C1880.4219,391.2969 1880.4219,391.2969 1880.2344,391.3906 C1879.8125,391.6563 1879.125,391.7813 1878.3594,391.7813 C1876.3125,391.7813 1875.0156,390.6875 1875.0156,388.9844 L1875.0156,387.8906 C1875.0156,386.1094 1876.2656,384.7969 1878,384.7969 C1878.5781,384.7969 1879.1875,384.9531 1879.6563,385.2031 C1880.1406,385.4844 1880.3125,385.7031 1880.4063,386.1094 C1880.4688,386.5156 1880.5,386.6406 1880.6406,386.7656 C1880.7813,386.9063 1881.0156,387.0156 1881.2344,387.0156 C1881.5,387.0156 1881.7656,386.875 1881.9375,386.6563 C1882.0469,386.5 1882.0781,386.3125 1882.0781,385.8906 L1882.0781,384.4688 C1882.0781,384.0313 1882.0625,383.9063 1881.9688,383.75 C1881.8125,383.4844 1881.5313,383.3438 1881.2344,383.3438 C1880.9375,383.3438 1880.7344,383.4375 1880.5156,383.75 L1880.3438,383.6719 Z " fill="#000000"/><text fill="#000000" font-family="sans-serif" font-size="12" lengthAdjust="spacing" textLength="155" x="1892" y="392.1543">ClinicalAnalysisLaboratory</text><line style="stroke:#A80036;stroke-width:1.5;" x1="1864" x2="2049" y1="404" y2="404"/><text fill="#000000" font-family="sans-serif" font-size="11" lengthAdjust="spacing" textLength="79" x="1869" y="418.2104">Laboratory ID;</text><text fill="#000000" font-family="sans-serif" font-size="11" lengthAdjust="spacing" textLength="37" x="1869" y="431.0151">Name;</text><text fill="#000000" font-family="sans-serif" font-size="11" lengthAdjust="spacing" textLength="49" x="1869" y="443.8198">Address;</text><text fill="#000000" font-family="sans-serif" font-size="11" lengthAdjust="spacing" textLength="87" x="1869" y="456.6245">Phone Number;</text><text fill="#000000" font-family="sans-serif" font-size="11" lengthAdjust="spacing" textLength="69" x="1869" y="469.4292">TIN number;</text><line style="stroke:#A80036;stroke-width:1.5;" x1="1864" x2="2049" y1="476.0234" y2="476.0234"/><!--MD5=[a64badb107d3691f2dc6af242cdbeb21]
class ChemicalLaboratory--><rect codeLine="105" fill="#FEFECE" filter="url(#f5j2aknp3t3lo)" height="99.2188" id="ChemicalLaboratory" style="stroke:#A80036;stroke-width:1.5;" width="151" x="169" y="586.5"/><ellipse cx="184" cy="602.5" fill="#ADD1B2" rx="11" ry="11" style="stroke:#A80036;stroke-width:1.0;"/><path d="M186.3438,598.1719 C185.4063,597.7344 184.8125,597.5938 183.9375,597.5938 C181.3125,597.5938 179.3125,599.6719 179.3125,602.3906 L179.3125,603.5156 C179.3125,606.0938 181.4219,607.9844 184.3125,607.9844 C185.5313,607.9844 186.6875,607.6875 187.4375,607.1406 C188.0156,606.7344 188.3438,606.2813 188.3438,605.8906 C188.3438,605.4375 187.9531,605.0469 187.4844,605.0469 C187.2656,605.0469 187.0625,605.125 186.875,605.3125 C186.4219,605.7969 186.4219,605.7969 186.2344,605.8906 C185.8125,606.1563 185.125,606.2813 184.3594,606.2813 C182.3125,606.2813 181.0156,605.1875 181.0156,603.4844 L181.0156,602.3906 C181.0156,600.6094 182.2656,599.2969 184,599.2969 C184.5781,599.2969 185.1875,599.4531 185.6563,599.7031 C186.1406,599.9844 186.3125,600.2031 186.4063,600.6094 C186.4688,601.0156 186.5,601.1406 186.6406,601.2656 C186.7813,601.4063 187.0156,601.5156 187.2344,601.5156 C187.5,601.5156 187.7656,601.375 187.9375,601.1563 C188.0469,601 188.0781,600.8125 188.0781,600.3906 L188.0781,598.9688 C188.0781,598.5313 188.0625,598.4063 187.9688,598.25 C187.8125,597.9844 187.5313,597.8438 187.2344,597.8438 C186.9375,597.8438 186.7344,597.9375 186.5156,598.25 L186.3438,598.1719 Z " fill="#000000"/><text fill="#000000" font-family="sans-serif" font-size="12" lengthAdjust="spacing" textLength="119" x="198" y="606.6543">ChemicalLaboratory</text><line style="stroke:#A80036;stroke-width:1.5;" x1="170" x2="319" y1="618.5" y2="618.5"/><text fill="#000000" font-family="sans-serif" font-size="11" lengthAdjust="spacing" textLength="37" x="175" y="632.7104">Name;</text><text fill="#000000" font-family="sans-serif" font-size="11" lengthAdjust="spacing" textLength="49" x="175" y="645.5151">Address;</text><text fill="#000000" font-family="sans-serif" font-size="11" lengthAdjust="spacing" textLength="87" x="175" y="658.3198">Phone Number;</text><text fill="#000000" font-family="sans-serif" font-size="11" lengthAdjust="spacing" textLength="69" x="175" y="671.1245">TIN number;</text><line style="stroke:#A80036;stroke-width:1.5;" x1="170" x2="319" y1="677.7188" y2="677.7188"/><!--MD5=[628c1010a7b084d4bd8091fdea3514d5]
class CompanyHeadquarters--><rect codeLine="112" fill="#FEFECE" filter="url(#f5j2aknp3t3lo)" height="86.4141" id="CompanyHeadquarters" style="stroke:#A80036;stroke-width:1.5;" width="171" x="7" y="788"/><ellipse cx="22" cy="804" fill="#ADD1B2" rx="11" ry="11" style="stroke:#A80036;stroke-width:1.0;"/><path d="M24.3438,799.6719 C23.4063,799.2344 22.8125,799.0938 21.9375,799.0938 C19.3125,799.0938 17.3125,801.1719 17.3125,803.8906 L17.3125,805.0156 C17.3125,807.5938 19.4219,809.4844 22.3125,809.4844 C23.5313,809.4844 24.6875,809.1875 25.4375,808.6406 C26.0156,808.2344 26.3438,807.7813 26.3438,807.3906 C26.3438,806.9375 25.9531,806.5469 25.4844,806.5469 C25.2656,806.5469 25.0625,806.625 24.875,806.8125 C24.4219,807.2969 24.4219,807.2969 24.2344,807.3906 C23.8125,807.6563 23.125,807.7813 22.3594,807.7813 C20.3125,807.7813 19.0156,806.6875 19.0156,804.9844 L19.0156,803.8906 C19.0156,802.1094 20.2656,800.7969 22,800.7969 C22.5781,800.7969 23.1875,800.9531 23.6563,801.2031 C24.1406,801.4844 24.3125,801.7031 24.4063,802.1094 C24.4688,802.5156 24.5,802.6406 24.6406,802.7656 C24.7813,802.9063 25.0156,803.0156 25.2344,803.0156 C25.5,803.0156 25.7656,802.875 25.9375,802.6563 C26.0469,802.5 26.0781,802.3125 26.0781,801.8906 L26.0781,800.4688 C26.0781,800.0313 26.0625,799.9063 25.9688,799.75 C25.8125,799.4844 25.5313,799.3438 25.2344,799.3438 C24.9375,799.3438 24.7344,799.4375 24.5156,799.75 L24.3438,799.6719 Z " fill="#000000"/><text fill="#000000" font-family="sans-serif" font-size="12" lengthAdjust="spacing" textLength="139" x="36" y="808.1543">CompanyHeadquarters</text><line style="stroke:#A80036;stroke-width:1.5;" x1="8" x2="177" y1="820" y2="820"/><text fill="#000000" font-family="sans-serif" font-size="11" lengthAdjust="spacing" textLength="49" x="13" y="834.2104">Address;</text><text fill="#000000" font-family="sans-serif" font-size="11" lengthAdjust="spacing" textLength="87" x="13" y="847.0151">Phone Number;</text><text fill="#000000" font-family="sans-serif" font-size="11" lengthAdjust="spacing" textLength="36" x="13" y="859.8198">E-Mail;</text><line style="stroke:#A80036;stroke-width:1.5;" x1="8" x2="177" y1="866.4141" y2="866.4141"/><!--MD5=[02fc58f162e5dc3bc308f0155586c56c]
class BloodSample--><rect codeLine="122" fill="#FEFECE" filter="url(#f5j2aknp3t3lo)" height="60.8047" id="BloodSample" style="stroke:#A80036;stroke-width:1.5;" width="112" x="910.5" y="189.5"/><ellipse cx="925.5" cy="205.5" fill="#ADD1B2" rx="11" ry="11" style="stroke:#A80036;stroke-width:1.0;"/><path d="M927.8438,201.1719 C926.9063,200.7344 926.3125,200.5938 925.4375,200.5938 C922.8125,200.5938 920.8125,202.6719 920.8125,205.3906 L920.8125,206.5156 C920.8125,209.0938 922.9219,210.9844 925.8125,210.9844 C927.0313,210.9844 928.1875,210.6875 928.9375,210.1406 C929.5156,209.7344 929.8438,209.2813 929.8438,208.8906 C929.8438,208.4375 929.4531,208.0469 928.9844,208.0469 C928.7656,208.0469 928.5625,208.125 928.375,208.3125 C927.9219,208.7969 927.9219,208.7969 927.7344,208.8906 C927.3125,209.1563 926.625,209.2813 925.8594,209.2813 C923.8125,209.2813 922.5156,208.1875 922.5156,206.4844 L922.5156,205.3906 C922.5156,203.6094 923.7656,202.2969 925.5,202.2969 C926.0781,202.2969 926.6875,202.4531 927.1563,202.7031 C927.6406,202.9844 927.8125,203.2031 927.9063,203.6094 C927.9688,204.0156 928,204.1406 928.1406,204.2656 C928.2813,204.4063 928.5156,204.5156 928.7344,204.5156 C929,204.5156 929.2656,204.375 929.4375,204.1563 C929.5469,204 929.5781,203.8125 929.5781,203.3906 L929.5781,201.9688 C929.5781,201.5313 929.5625,201.4063 929.4688,201.25 C929.3125,200.9844 929.0313,200.8438 928.7344,200.8438 C928.4375,200.8438 928.2344,200.9375 928.0156,201.25 L927.8438,201.1719 Z " fill="#000000"/><text fill="#000000" font-family="sans-serif" font-size="12" lengthAdjust="spacing" textLength="80" x="939.5" y="209.6543">BloodSample</text><line style="stroke:#A80036;stroke-width:1.5;" x1="911.5" x2="1021.5" y1="221.5" y2="221.5"/><text fill="#000000" font-family="sans-serif" font-size="11" lengthAdjust="spacing" textLength="63" x="916.5" y="235.7104">Sample ID;</text><line style="stroke:#A80036;stroke-width:1.5;" x1="911.5" x2="1021.5" y1="242.3047" y2="242.3047"/><!--MD5=[95a69b007b79291380c4f1b867b5859e]
class SwabSample--><rect codeLine="126" fill="#FEFECE" filter="url(#f5j2aknp3t3lo)" height="60.8047" id="SwabSample" style="stroke:#A80036;stroke-width:1.5;" width="110" x="175.5" y="189.5"/><ellipse cx="190.5" cy="205.5" fill="#ADD1B2" rx="11" ry="11" style="stroke:#A80036;stroke-width:1.0;"/><path d="M192.8438,201.1719 C191.9063,200.7344 191.3125,200.5938 190.4375,200.5938 C187.8125,200.5938 185.8125,202.6719 185.8125,205.3906 L185.8125,206.5156 C185.8125,209.0938 187.9219,210.9844 190.8125,210.9844 C192.0313,210.9844 193.1875,210.6875 193.9375,210.1406 C194.5156,209.7344 194.8438,209.2813 194.8438,208.8906 C194.8438,208.4375 194.4531,208.0469 193.9844,208.0469 C193.7656,208.0469 193.5625,208.125 193.375,208.3125 C192.9219,208.7969 192.9219,208.7969 192.7344,208.8906 C192.3125,209.1563 191.625,209.2813 190.8594,209.2813 C188.8125,209.2813 187.5156,208.1875 187.5156,206.4844 L187.5156,205.3906 C187.5156,203.6094 188.7656,202.2969 190.5,202.2969 C191.0781,202.2969 191.6875,202.4531 192.1563,202.7031 C192.6406,202.9844 192.8125,203.2031 192.9063,203.6094 C192.9688,204.0156 193,204.1406 193.1406,204.2656 C193.2813,204.4063 193.5156,204.5156 193.7344,204.5156 C194,204.5156 194.2656,204.375 194.4375,204.1563 C194.5469,204 194.5781,203.8125 194.5781,203.3906 L194.5781,201.9688 C194.5781,201.5313 194.5625,201.4063 194.4688,201.25 C194.3125,200.9844 194.0313,200.8438 193.7344,200.8438 C193.4375,200.8438 193.2344,200.9375 193.0156,201.25 L192.8438,201.1719 Z " fill="#000000"/><text fill="#000000" font-family="sans-serif" font-size="12" lengthAdjust="spacing" textLength="78" x="204.5" y="209.6543">SwabSample</text><line style="stroke:#A80036;stroke-width:1.5;" x1="176.5" x2="284.5" y1="221.5" y2="221.5"/><text fill="#000000" font-family="sans-serif" font-size="11" lengthAdjust="spacing" textLength="63" x="181.5" y="235.7104">Sample ID;</text><line style="stroke:#A80036;stroke-width:1.5;" x1="176.5" x2="284.5" y1="242.3047" y2="242.3047"/><!--MD5=[b800f109deaac10d0215b7128105e174]
class ManyLabs--><rect codeLine="130" fill="#FEFECE" filter="url(#f5j2aknp3t3lo)" height="60.8047" id="ManyLabs" style="stroke:#A80036;stroke-width:1.5;" width="92" x="1141.5" y="7"/><ellipse cx="1156.95" cy="23" fill="#ADD1B2" rx="11" ry="11" style="stroke:#A80036;stroke-width:1.0;"/><path d="M1159.2938,18.6719 C1158.3563,18.2344 1157.7625,18.0938 1156.8875,18.0938 C1154.2625,18.0938 1152.2625,20.1719 1152.2625,22.8906 L1152.2625,24.0156 C1152.2625,26.5938 1154.3719,28.4844 1157.2625,28.4844 C1158.4813,28.4844 1159.6375,28.1875 1160.3875,27.6406 C1160.9656,27.2344 1161.2938,26.7813 1161.2938,26.3906 C1161.2938,25.9375 1160.9031,25.5469 1160.4344,25.5469 C1160.2156,25.5469 1160.0125,25.625 1159.825,25.8125 C1159.3719,26.2969 1159.3719,26.2969 1159.1844,26.3906 C1158.7625,26.6563 1158.075,26.7813 1157.3094,26.7813 C1155.2625,26.7813 1153.9656,25.6875 1153.9656,23.9844 L1153.9656,22.8906 C1153.9656,21.1094 1155.2156,19.7969 1156.95,19.7969 C1157.5281,19.7969 1158.1375,19.9531 1158.6063,20.2031 C1159.0906,20.4844 1159.2625,20.7031 1159.3563,21.1094 C1159.4188,21.5156 1159.45,21.6406 1159.5906,21.7656 C1159.7313,21.9063 1159.9656,22.0156 1160.1844,22.0156 C1160.45,22.0156 1160.7156,21.875 1160.8875,21.6563 C1160.9969,21.5 1161.0281,21.3125 1161.0281,20.8906 L1161.0281,19.4688 C1161.0281,19.0313 1161.0125,18.9063 1160.9188,18.75 C1160.7625,18.4844 1160.4813,18.3438 1160.1844,18.3438 C1159.8875,18.3438 1159.6844,18.4375 1159.4656,18.75 L1159.2938,18.6719 Z " fill="#000000"/><text fill="#000000" font-family="sans-serif" font-size="12" lengthAdjust="spacing" textLength="59" x="1171.05" y="27.1543">ManyLabs</text><line style="stroke:#A80036;stroke-width:1.5;" x1="1142.5" x2="1232.5" y1="39" y2="39"/><text fill="#000000" font-family="sans-serif" font-size="11" lengthAdjust="spacing" textLength="80" x="1147.5" y="53.2104">Chemical Lab;</text><line style="stroke:#A80036;stroke-width:1.5;" x1="1142.5" x2="1232.5" y1="59.8047" y2="59.8047"/><!--MD5=[2a962ae93217d0020b2ed3696d7c22bf]
class BarcodeExternalAPI--><rect codeLine="134" fill="#FEFECE" filter="url(#f5j2aknp3t3lo)" height="60.8047" id="BarcodeExternalAPI" style="stroke:#A80036;stroke-width:1.5;" width="148" x="477.5" y="605.5"/><ellipse cx="492.5" cy="621.5" fill="#ADD1B2" rx="11" ry="11" style="stroke:#A80036;stroke-width:1.0;"/><path d="M494.8438,617.1719 C493.9063,616.7344 493.3125,616.5938 492.4375,616.5938 C489.8125,616.5938 487.8125,618.6719 487.8125,621.3906 L487.8125,622.5156 C487.8125,625.0938 489.9219,626.9844 492.8125,626.9844 C494.0313,626.9844 495.1875,626.6875 495.9375,626.1406 C496.5156,625.7344 496.8438,625.2813 496.8438,624.8906 C496.8438,624.4375 496.4531,624.0469 495.9844,624.0469 C495.7656,624.0469 495.5625,624.125 495.375,624.3125 C494.9219,624.7969 494.9219,624.7969 494.7344,624.8906 C494.3125,625.1563 493.625,625.2813 492.8594,625.2813 C490.8125,625.2813 489.5156,624.1875 489.5156,622.4844 L489.5156,621.3906 C489.5156,619.6094 490.7656,618.2969 492.5,618.2969 C493.0781,618.2969 493.6875,618.4531 494.1563,618.7031 C494.6406,618.9844 494.8125,619.2031 494.9063,619.6094 C494.9688,620.0156 495,620.1406 495.1406,620.2656 C495.2813,620.4063 495.5156,620.5156 495.7344,620.5156 C496,620.5156 496.2656,620.375 496.4375,620.1563 C496.5469,620 496.5781,619.8125 496.5781,619.3906 L496.5781,617.9688 C496.5781,617.5313 496.5625,617.4063 496.4688,617.25 C496.3125,616.9844 496.0313,616.8438 495.7344,616.8438 C495.4375,616.8438 495.2344,616.9375 495.0156,617.25 L494.8438,617.1719 Z " fill="#000000"/><text fill="#000000" font-family="sans-serif" font-size="12" lengthAdjust="spacing" textLength="116" x="506.5" y="625.6543">BarcodeExternalAPI</text><line style="stroke:#A80036;stroke-width:1.5;" x1="478.5" x2="624.5" y1="637.5" y2="637.5"/><text fill="#000000" font-family="sans-serif" font-size="11" lengthAdjust="spacing" textLength="99" x="483.5" y="651.7104">Barcode Number;</text><line style="stroke:#A80036;stroke-width:1.5;" x1="478.5" x2="624.5" y1="658.3047" y2="658.3047"/><!--MD5=[a999c1570c205a2156b04a15307bc1ff]
class LabOrder--><rect codeLine="138" fill="#FEFECE" filter="url(#f5j2aknp3t3lo)" height="86.4141" id="LabOrder" style="stroke:#A80036;stroke-width:1.5;" width="89" x="1476" y="788"/><ellipse cx="1491" cy="804" fill="#ADD1B2" rx="11" ry="11" style="stroke:#A80036;stroke-width:1.0;"/><path d="M1493.3438,799.6719 C1492.4063,799.2344 1491.8125,799.0938 1490.9375,799.0938 C1488.3125,799.0938 1486.3125,801.1719 1486.3125,803.8906 L1486.3125,805.0156 C1486.3125,807.5938 1488.4219,809.4844 1491.3125,809.4844 C1492.5313,809.4844 1493.6875,809.1875 1494.4375,808.6406 C1495.0156,808.2344 1495.3438,807.7813 1495.3438,807.3906 C1495.3438,806.9375 1494.9531,806.5469 1494.4844,806.5469 C1494.2656,806.5469 1494.0625,806.625 1493.875,806.8125 C1493.4219,807.2969 1493.4219,807.2969 1493.2344,807.3906 C1492.8125,807.6563 1492.125,807.7813 1491.3594,807.7813 C1489.3125,807.7813 1488.0156,806.6875 1488.0156,804.9844 L1488.0156,803.8906 C1488.0156,802.1094 1489.2656,800.7969 1491,800.7969 C1491.5781,800.7969 1492.1875,800.9531 1492.6563,801.2031 C1493.1406,801.4844 1493.3125,801.7031 1493.4063,802.1094 C1493.4688,802.5156 1493.5,802.6406 1493.6406,802.7656 C1493.7813,802.9063 1494.0156,803.0156 1494.2344,803.0156 C1494.5,803.0156 1494.7656,802.875 1494.9375,802.6563 C1495.0469,802.5 1495.0781,802.3125 1495.0781,801.8906 L1495.0781,800.4688 C1495.0781,800.0313 1495.0625,799.9063 1494.9688,799.75 C1494.8125,799.4844 1494.5313,799.3438 1494.2344,799.3438 C1493.9375,799.3438 1493.7344,799.4375 1493.5156,799.75 L1493.3438,799.6719 Z " fill="#000000"/><text fill="#000000" font-family="sans-serif" font-size="12" lengthAdjust="spacing" textLength="57" x="1505" y="808.1543">LabOrder</text><line style="stroke:#A80036;stroke-width:1.5;" x1="1477" x2="1564" y1="820" y2="820"/><text fill="#000000" font-family="sans-serif" font-size="11" lengthAdjust="spacing" textLength="36" x="1482" y="834.2104">Client;</text><text fill="#000000" font-family="sans-serif" font-size="11" lengthAdjust="spacing" textLength="37" x="1482" y="847.0151">Doctor</text><text fill="#000000" font-family="sans-serif" font-size="11" lengthAdjust="spacing" textLength="73" x="1482" y="859.8198">Type of Test</text><line style="stroke:#A80036;stroke-width:1.5;" x1="1477" x2="1564" y1="866.4141" y2="866.4141"/><!--MD5=[f856f85595ce4f8bf435bc42f531c692]
class Results--><rect codeLine="144" fill="#FEFECE" filter="url(#f5j2aknp3t3lo)" height="73.6094" id="Results" style="stroke:#A80036;stroke-width:1.5;" width="75" x="1608" y="391"/><ellipse cx="1623" cy="407" fill="#ADD1B2" rx="11" ry="11" style="stroke:#A80036;stroke-width:1.0;"/><path d="M1625.3438,402.6719 C1624.4063,402.2344 1623.8125,402.0938 1622.9375,402.0938 C1620.3125,402.0938 1618.3125,404.1719 1618.3125,406.8906 L1618.3125,408.0156 C1618.3125,410.5938 1620.4219,412.4844 1623.3125,412.4844 C1624.5313,412.4844 1625.6875,412.1875 1626.4375,411.6406 C1627.0156,411.2344 1627.3438,410.7813 1627.3438,410.3906 C1627.3438,409.9375 1626.9531,409.5469 1626.4844,409.5469 C1626.2656,409.5469 1626.0625,409.625 1625.875,409.8125 C1625.4219,410.2969 1625.4219,410.2969 1625.2344,410.3906 C1624.8125,410.6563 1624.125,410.7813 1623.3594,410.7813 C1621.3125,410.7813 1620.0156,409.6875 1620.0156,407.9844 L1620.0156,406.8906 C1620.0156,405.1094 1621.2656,403.7969 1623,403.7969 C1623.5781,403.7969 1624.1875,403.9531 1624.6563,404.2031 C1625.1406,404.4844 1625.3125,404.7031 1625.4063,405.1094 C1625.4688,405.5156 1625.5,405.6406 1625.6406,405.7656 C1625.7813,405.9063 1626.0156,406.0156 1626.2344,406.0156 C1626.5,406.0156 1626.7656,405.875 1626.9375,405.6563 C1627.0469,405.5 1627.0781,405.3125 1627.0781,404.8906 L1627.0781,403.4688 C1627.0781,403.0313 1627.0625,402.9063 1626.9688,402.75 C1626.8125,402.4844 1626.5313,402.3438 1626.2344,402.3438 C1625.9375,402.3438 1625.7344,402.4375 1625.5156,402.75 L1625.3438,402.6719 Z " fill="#000000"/><text fill="#000000" font-family="sans-serif" font-size="12" lengthAdjust="spacing" textLength="43" x="1637" y="411.1543">Results</text><line style="stroke:#A80036;stroke-width:1.5;" x1="1609" x2="1682" y1="423" y2="423"/><text fill="#000000" font-family="sans-serif" font-size="11" lengthAdjust="spacing" textLength="40" x="1614" y="437.2104">TestID;</text><text fill="#000000" font-family="sans-serif" font-size="11" lengthAdjust="spacing" textLength="36" x="1614" y="450.0151">Client;</text><line style="stroke:#A80036;stroke-width:1.5;" x1="1609" x2="1682" y1="456.6094" y2="456.6094"/><!--MD5=[f00dbe8c0302c6aec2cb26b3c659c8fc]
class Report--><rect codeLine="149" fill="#FEFECE" filter="url(#f5j2aknp3t3lo)" height="86.4141" id="Report" style="stroke:#A80036;stroke-width:1.5;" width="88" x="1718.5" y="385"/><ellipse cx="1740.7" cy="401" fill="#ADD1B2" rx="11" ry="11" style="stroke:#A80036;stroke-width:1.0;"/><path d="M1743.0438,396.6719 C1742.1063,396.2344 1741.5125,396.0938 1740.6375,396.0938 C1738.0125,396.0938 1736.0125,398.1719 1736.0125,400.8906 L1736.0125,402.0156 C1736.0125,404.5938 1738.1219,406.4844 1741.0125,406.4844 C1742.2313,406.4844 1743.3875,406.1875 1744.1375,405.6406 C1744.7156,405.2344 1745.0438,404.7813 1745.0438,404.3906 C1745.0438,403.9375 1744.6531,403.5469 1744.1844,403.5469 C1743.9656,403.5469 1743.7625,403.625 1743.575,403.8125 C1743.1219,404.2969 1743.1219,404.2969 1742.9344,404.3906 C1742.5125,404.6563 1741.825,404.7813 1741.0594,404.7813 C1739.0125,404.7813 1737.7156,403.6875 1737.7156,401.9844 L1737.7156,400.8906 C1737.7156,399.1094 1738.9656,397.7969 1740.7,397.7969 C1741.2781,397.7969 1741.8875,397.9531 1742.3563,398.2031 C1742.8406,398.4844 1743.0125,398.7031 1743.1063,399.1094 C1743.1688,399.5156 1743.2,399.6406 1743.3406,399.7656 C1743.4813,399.9063 1743.7156,400.0156 1743.9344,400.0156 C1744.2,400.0156 1744.4656,399.875 1744.6375,399.6563 C1744.7469,399.5 1744.7781,399.3125 1744.7781,398.8906 L1744.7781,397.4688 C1744.7781,397.0313 1744.7625,396.9063 1744.6688,396.75 C1744.5125,396.4844 1744.2313,396.3438 1743.9344,396.3438 C1743.6375,396.3438 1743.4344,396.4375 1743.2156,396.75 L1743.0438,396.6719 Z " fill="#000000"/><text fill="#000000" font-family="sans-serif" font-size="12" lengthAdjust="spacing" textLength="40" x="1756.3" y="405.1543">Report</text><line style="stroke:#A80036;stroke-width:1.5;" x1="1719.5" x2="1805.5" y1="417" y2="417"/><text fill="#000000" font-family="sans-serif" font-size="11" lengthAdjust="spacing" textLength="40" x="1724.5" y="431.2104">TestID;</text><text fill="#000000" font-family="sans-serif" font-size="11" lengthAdjust="spacing" textLength="36" x="1724.5" y="444.0151">Client;</text><text fill="#000000" font-family="sans-serif" font-size="11" lengthAdjust="spacing" textLength="76" x="1724.5" y="456.8198">Doctor's text;</text><line style="stroke:#A80036;stroke-width:1.5;" x1="1719.5" x2="1805.5" y1="463.4141" y2="463.4141"/><!--MD5=[848c8065b29fb9bba3c9b45c1c07083f]
link LaboratoryCoordinator to Report--><path codeLine="155" d="M1537.31,289.129 C1555.68,308.451 1577.41,328.012 1600.5,342 C1640.19,366.044 1659.97,349.407 1700.5,372 C1707.04,375.643 1713.47,380.076 1719.59,384.826 " fill="none" id="LaboratoryCoordinator-Report" style="stroke:#A80036;stroke-width:1.0;"/><polygon fill="#000000" points="1609.927,335.8906,1603.2846,329.084,1600.5524,334.2882,1609.927,335.8906" style="stroke:#000000;stroke-width:1.0;"/><text fill="#000000" font-family="sans-serif" font-size="13" lengthAdjust="spacing" textLength="47" x="1614.5" y="338.0669">verifies</text><text fill="#000000" font-family="sans-serif" font-size="13" lengthAdjust="spacing" textLength="8" x="1534.3116" y="308.7637">1</text><text fill="#000000" font-family="sans-serif" font-size="13" lengthAdjust="spacing" textLength="7" x="1705.1934" y="373.7943">*</text><!--MD5=[4b82047290a06c8b32e27f2a763def38]
link LaboratoryCoordinator to Results--><path codeLine="156" d="M1463.05,289.207 C1461.63,307.869 1464.22,327.049 1475.5,342 C1504.73,380.747 1537.68,349.147 1580.5,372 C1590.15,377.151 1599.65,383.92 1608.29,390.94 " fill="none" id="LaboratoryCoordinator-Results" style="stroke:#A80036;stroke-width:1.0;"/><polygon fill="#000000" points="1484.5953,336.4349,1478.8729,328.8386,1475.5007,333.6529,1484.5953,336.4349" style="stroke:#000000;stroke-width:1.0;"/><text fill="#000000" font-family="sans-serif" font-size="13" lengthAdjust="spacing" textLength="47" x="1489.5" y="338.0669">verifies</text><text fill="#000000" font-family="sans-serif" font-size="13" lengthAdjust="spacing" textLength="8" x="1452.8149" y="308.6089">1</text><text fill="#000000" font-family="sans-serif" font-size="13" lengthAdjust="spacing" textLength="7" x="1592.8936" y="396.9641">*</text><!--MD5=[751cfe51b23fefb6f00d77895667dcd3]
link ManyLabs to ClinicalAnalysisLaboratory--><path codeLine="157" d="M1233.59,38.092 C1379.88,37.83 1829.7,45.29 1925.5,145 C1983.08,204.935 1978.22,308.388 1968.22,371.944 " fill="none" id="ManyLabs-ClinicalAnalysisLaboratory" style="stroke:#A80036;stroke-width:1.0;"/><polygon fill="#000000" points="1983.052,222.1351,1976.0333,215.7172,1973.6014,221.0684,1983.052,222.1351" style="stroke:#000000;stroke-width:1.0;"/><text fill="#000000" font-family="sans-serif" font-size="13" lengthAdjust="spacing" textLength="34" x="1987.5" y="224.5669">owns</text><text fill="#000000" font-family="sans-serif" font-size="13" lengthAdjust="spacing" textLength="8" x="1241.5731" y="34.0841">1</text><text fill="#000000" font-family="sans-serif" font-size="13" lengthAdjust="spacing" textLength="7" x="1962.2732" y="360.8748">*</text><!--MD5=[8a6d7ee8c87825ebd3e431c21c7b4cee]
link ManyLabs to ChemicalLaboratory--><path codeLine="158" d="M1141.36,39.716 C949.825,45.23 224.324,70.91 157.5,145 C44.5147,270.27 154.484,489.489 213.04,586.479 " fill="none" id="ManyLabs-ChemicalLaboratory" style="stroke:#A80036;stroke-width:1.0;"/><polygon fill="#000000" points="114.1917,336.1039,123.477,334.0459,120.494,328.9812,114.1917,336.1039" style="stroke:#000000;stroke-width:1.0;"/><text fill="#000000" font-family="sans-serif" font-size="13" lengthAdjust="spacing" textLength="34" x="127.5" y="338.0669">owns</text><text fill="#000000" font-family="sans-serif" font-size="13" lengthAdjust="spacing" textLength="8" x="1125.3689" y="53.3575">1</text><text fill="#000000" font-family="sans-serif" font-size="13" lengthAdjust="spacing" textLength="8" x="200.0534" y="575.5213">1</text><!--MD5=[28872c30563a403407cdd0ffae1509cf]
link ManyLabs to CompanyHeadquarters--><path codeLine="159" d="M1141.5,39.439 C974.437,43.143 400.235,58.517 221.5,98 C119.683,120.491 20.5,114.729 20.5,219 C20.5,219 20.5,219 20.5,637 C20.5,691.717 46.2179,749.968 66.9128,787.9847 " fill="none" id="ManyLabs-CompanyHeadquarters" style="stroke:#A80036;stroke-width:1.0;"/><polygon fill="#000000" points="21.3973,430.9243,30.499,428.1658,27.1393,423.3428,21.3973,430.9243" style="stroke:#000000;stroke-width:1.0;"/><text fill="#000000" font-family="sans-serif" font-size="13" lengthAdjust="spacing" textLength="34" x="34.5" y="432.5669">owns</text><text fill="#000000" font-family="sans-serif" font-size="13" lengthAdjust="spacing" textLength="8" x="1125.5313" y="35.6458">1</text><text fill="#000000" font-family="sans-serif" font-size="13" lengthAdjust="spacing" textLength="8" x="54.1973" y="776.9787">1</text><!--MD5=[556f4fc7f34777d3e7df9d0d4354e494]
link ManyLabs to Receptionist--><path codeLine="160" d="M1187.5,68.306 C1187.5,90.735 1187.5,122.383 1187.5,150.889 " fill="none" id="ManyLabs-Receptionist" style="stroke:#A80036;stroke-width:1.0;"/><polygon fill="#000000" points="1192.5,111.5664,1195.4389,102.5213,1189.5611,102.5213,1192.5,111.5664" style="stroke:#000000;stroke-width:1.0;"/><text fill="#000000" font-family="sans-serif" font-size="13" lengthAdjust="spacing" textLength="55" x="1201.5" y="111.0669">employs</text><text fill="#000000" font-family="sans-serif" font-size="13" lengthAdjust="spacing" textLength="8" x="1178.7125" y="87.9467">1</text><text fill="#000000" font-family="sans-serif" font-size="13" lengthAdjust="spacing" textLength="7" x="1180.1391" y="140.0812">*</text><!--MD5=[3cf7671cef0f3620bece442ffe4e4e50]
link ManyLabs to MedicalLabTechnician--><path codeLine="161" d="M1141.36,53.249 C1082.73,72.422 978.777,107.869 892.5,145 C886.989,147.372 881.392,149.853 875.762,152.408 " fill="none" id="ManyLabs-MedicalLabTechnician" style="stroke:#A80036;stroke-width:1.0;"/><polygon fill="#000000" points="1005.8158,108.3152,1015.3175,107.9049,1013.2617,102.3983,1005.8158,108.3152" style="stroke:#000000;stroke-width:1.0;"/><text fill="#000000" font-family="sans-serif" font-size="13" lengthAdjust="spacing" textLength="55" x="1019.5" y="111.0669">employs</text><text fill="#000000" font-family="sans-serif" font-size="13" lengthAdjust="spacing" textLength="8" x="1125.3689" y="69.0474">1</text><text fill="#000000" font-family="sans-serif" font-size="13" lengthAdjust="spacing" textLength="7" x="883.4951" y="145.1481">*</text><!--MD5=[f072115e8edb6175e84eb290bd261033]
link ManyLabs to SpecialistDoctor--><path codeLine="162" d="M1233.8,45.999 C1315.56,60.034 1490.12,93.575 1630.5,145 C1636,147.015 1641.56,149.181 1647.14,151.463 " fill="none" id="ManyLabs-SpecialistDoctor" style="stroke:#A80036;stroke-width:1.0;"/><polygon fill="#000000" points="1545.3448,107.8026,1537.3071,102.7186,1535.8539,108.414,1545.3448,107.8026" style="stroke:#000000;stroke-width:1.0;"/><text fill="#000000" font-family="sans-serif" font-size="13" lengthAdjust="spacing" textLength="55" x="1549.5" y="111.0669">employs</text><text fill="#000000" font-family="sans-serif" font-size="13" lengthAdjust="spacing" textLength="8" x="1241.5022" y="43.244">1</text><text fill="#000000" font-family="sans-serif" font-size="13" lengthAdjust="spacing" textLength="7" x="1632.4012" y="144.1252">*</text><!--MD5=[43d0c106e494f56ba0d1755de00d75e2]
link ManyLabs to Administrator--><path codeLine="163" d="M1233.75,38.882 C1384.32,40.592 1859.09,49.77 2003.5,98 C2039.21,109.927 2074.85,130.187 2105.35,150.754 " fill="none" id="ManyLabs-Administrator" style="stroke:#A80036;stroke-width:1.0;"/><polygon fill="#000000" points="2052.4593,107.2029,2043.862,103.1364,2043.1137,108.9664,2052.4593,107.2029" style="stroke:#000000;stroke-width:1.0;"/><text fill="#000000" font-family="sans-serif" font-size="13" lengthAdjust="spacing" textLength="55" x="2056.5" y="111.0669">employs</text><text fill="#000000" font-family="sans-serif" font-size="13" lengthAdjust="spacing" textLength="8" x="1241.4445" y="52.3341">1</text><text fill="#000000" font-family="sans-serif" font-size="13" lengthAdjust="spacing" textLength="7" x="2089.1048" y="139.9322">*</text><!--MD5=[6b3fdfcb9cf79f680f9e00582f34cc1c]
link ManyLabs to ClinicalChemistryTechnologist--><path codeLine="164" d="M1141.23,42.295 C1040.26,51.555 793.461,79.522 597.5,145 C591.945,146.856 586.336,148.89 580.719,151.06 " fill="none" id="ManyLabs-ClinicalChemistryTechnologist" style="stroke:#A80036;stroke-width:1.0;"/><polygon fill="#000000" points="756.5916,107.5189,766.0309,108.681,764.9112,102.9107,756.5916,107.5189" style="stroke:#000000;stroke-width:1.0;"/><text fill="#000000" font-family="sans-serif" font-size="13" lengthAdjust="spacing" textLength="55" x="770.5" y="111.0669">employs</text><text fill="#000000" font-family="sans-serif" font-size="13" lengthAdjust="spacing" textLength="8" x="1125.5324" y="38.9728">1</text><text fill="#000000" font-family="sans-serif" font-size="13" lengthAdjust="spacing" textLength="7" x="588.4496" y="143.7222">*</text><!--MD5=[64d0d3425637fc3821708f17c5b768ff]
link ManyLabs to LaboratoryCoordinator--><path codeLine="165" d="M1233.59,66.703 C1270.38,89.211 1323.47,121.697 1371.18,150.889 " fill="none" id="ManyLabs-LaboratoryCoordinator" style="stroke:#A80036;stroke-width:1.0;"/><polygon fill="#000000" points="1318.765,109.176,1312.5834,101.9483,1309.5157,106.9621,1318.765,109.176" style="stroke:#000000;stroke-width:1.0;"/><text fill="#000000" font-family="sans-serif" font-size="13" lengthAdjust="spacing" textLength="55" x="1323.5" y="111.0669">employs</text><text fill="#000000" font-family="sans-serif" font-size="13" lengthAdjust="spacing" textLength="8" x="1241.5731" y="84.6456">1</text><text fill="#000000" font-family="sans-serif" font-size="13" lengthAdjust="spacing" textLength="7" x="1352.3392" y="140.0812">*</text><!--MD5=[0bde84c484199f8c429a86e32cc6847f]
link Client to LabOrder--><path codeLine="166" d="M1520.5,711.067 C1520.5,737.111 1520.5,765.463 1520.5,787.9508 " fill="none" id="Client-LabOrder" style="stroke:#A80036;stroke-width:1.0;"/><polygon fill="#000000" points="1525.5,754.5664,1528.4389,745.5213,1522.5611,745.5213,1525.5,754.5664" style="stroke:#000000;stroke-width:1.0;"/><text fill="#000000" font-family="sans-serif" font-size="13" lengthAdjust="spacing" textLength="178" x="1534.5" y="754.0669">to execute the test needs a</text><text fill="#000000" font-family="sans-serif" font-size="13" lengthAdjust="spacing" textLength="8" x="1512.0875" y="731.6329">1</text><text fill="#000000" font-family="sans-serif" font-size="13" lengthAdjust="spacing" textLength="8" x="1511.8625" y="776.9392">1</text><!--MD5=[2ce19936f030d44747fea2344a815275]
link BloodSample to Sample--><path codeLine="167" d="M944.283,250.578 C930.972,266.191 912.73,284.285 892.5,295 C829.722,328.252 802.294,300.808 735.5,325 C721.892,329.929 654.601,367.854 605.318,396.028 " fill="none" id="BloodSample-Sample" style="stroke:#A80036;stroke-width:1.0;"/><polygon fill="#000000" points="735.9052,335.5381,745.3762,334.6721,743.0584,329.2705,735.9052,335.5381" style="stroke:#000000;stroke-width:1.0;"/><text fill="#000000" font-family="sans-serif" font-size="13" lengthAdjust="spacing" textLength="72" x="749.5" y="338.0669">is a type of</text><text fill="#000000" font-family="sans-serif" font-size="13" lengthAdjust="spacing" textLength="8" x="930.8757" y="270.5323">1</text><text fill="#000000" font-family="sans-serif" font-size="13" lengthAdjust="spacing" textLength="8" x="613.0873" y="387.826">1</text><!--MD5=[f801f1b8fee8640f67ed328ce6074342]
link SwabSample to Sample--><path codeLine="168" d="M251.474,250.663 C272.614,278.368 307.736,318.827 347.5,342 C393.509,368.812 414.574,350.977 463.5,372 C475.584,377.192 487.931,383.896 499.41,390.826 " fill="none" id="SwabSample-Sample" style="stroke:#A80036;stroke-width:1.0;"/><polygon fill="#000000" points="356.8526,336.027,350.425,329.0173,347.5323,334.1341,356.8526,336.027" style="stroke:#000000;stroke-width:1.0;"/><text fill="#000000" font-family="sans-serif" font-size="13" lengthAdjust="spacing" textLength="72" x="361.5" y="338.0669">is a type of</text><text fill="#000000" font-family="sans-serif" font-size="13" lengthAdjust="spacing" textLength="8" x="246.8158" y="270.2755">1</text><text fill="#000000" font-family="sans-serif" font-size="13" lengthAdjust="spacing" textLength="8" x="490.844" y="379.982">1</text><!--MD5=[e8dee32c8f22193c49a500f12de243cb]
link ChemicalLaboratory to CompanyHeadquarters--><path codeLine="169" d="M206.144,685.702 C181.343,717.193 149.387,757.769 125.681,787.8689 " fill="none" id="ChemicalLaboratory-CompanyHeadquarters" style="stroke:#A80036;stroke-width:1.0;"/><polygon fill="#000000" points="161.4064,753.4945,169.3116,748.2069,164.6939,744.5702,161.4064,753.4945" style="stroke:#000000;stroke-width:1.0;"/><text fill="#000000" font-family="sans-serif" font-size="13" lengthAdjust="spacing" textLength="76" x="173.5" y="754.0669">is located in</text><text fill="#000000" font-family="sans-serif" font-size="13" lengthAdjust="spacing" textLength="8" x="192.1877" y="705.8069">1</text><text fill="#000000" font-family="sans-serif" font-size="13" lengthAdjust="spacing" textLength="8" x="122.3317" y="776.8442">1</text><!--MD5=[6cd0a3af2322bf46f6c633408da71c74]
link Receptionist to ClinicalAnalysisLaboratory--><path codeLine="170" d="M1315.83,289.116 C1322.06,291.308 1328.3,293.289 1334.5,295 C1512.33,344.092 1571.22,273.958 1748.5,325 C1763.98,329.456 1766.14,334.719 1780.5,342 C1806.98,355.423 1835.92,369.601 1862.55,382.449 " fill="none" id="Receptionist-ClinicalAnalysisLaboratory" style="stroke:#A80036;stroke-width:1.0;"/><polygon fill="#000000" points="1790.4287,334.4078,1782.0072,329.9887,1781.018,335.7827,1790.4287,334.4078" style="stroke:#000000;stroke-width:1.0;"/><text fill="#000000" font-family="sans-serif" font-size="13" lengthAdjust="spacing" textLength="58" x="1794.5" y="338.0669">works on</text><text fill="#000000" font-family="sans-serif" font-size="13" lengthAdjust="spacing" textLength="7" x="1321.118" y="308.7494">*</text><text fill="#000000" font-family="sans-serif" font-size="13" lengthAdjust="spacing" textLength="8" x="1847.0507" y="375.4584">1</text><!--MD5=[e8b34c2e6517a986175307f5599f058a]
link Receptionist to Test--><path codeLine="171" d="M1057.32,286.512 C1051.31,289.405 1045.35,292.246 1039.5,295 C962.993,331.031 911.639,301.128 865.5,372 C818.962,443.486 883.734,538.877 930.314,592.936 " fill="none" id="Receptionist-Test" style="stroke:#A80036;stroke-width:1.0;"/><polygon fill="#000000" points="868.5855,432.6854,874.7638,425.4549,869.3339,423.2043,868.5855,432.6854" style="stroke:#000000;stroke-width:1.0;"/><text fill="#000000" font-family="sans-serif" font-size="13" lengthAdjust="spacing" textLength="137" x="879.5" y="432.5669">register in application</text><text fill="#000000" font-family="sans-serif" font-size="13" lengthAdjust="spacing" textLength="8" x="1041.5627" y="287.005">1</text><text fill="#000000" font-family="sans-serif" font-size="13" lengthAdjust="spacing" textLength="7" x="916.3515" y="581.9218">*</text><!--MD5=[6a35157f4c730bda767e7c9f1b8b7f73]
link Receptionist to Client--><path codeLine="172" d="M1317.55,286.695 C1357.18,306.822 1390.68,324.011 1391.5,325 C1438.6,381.674 1410.32,415.913 1438.5,484 C1449.17,509.772 1462.98,536.861 1476.22,560.867 " fill="none" id="Receptionist-Client" style="stroke:#A80036;stroke-width:1.0;"/><polygon fill="#000000" points="1446.0045,432.394,1444.0175,423.0933,1438.9302,426.0374,1446.0045,432.394" style="stroke:#000000;stroke-width:1.0;"/><text fill="#000000" font-family="sans-serif" font-size="13" lengthAdjust="spacing" textLength="137" x="1452.5" y="432.5669">register in application</text><text fill="#000000" font-family="sans-serif" font-size="13" lengthAdjust="spacing" textLength="8" x="1325.2998" y="287.1986">1</text><text fill="#000000" font-family="sans-serif" font-size="13" lengthAdjust="spacing" textLength="7" x="1464.666" y="550.0434">*</text><!--MD5=[0a29b4543c1af9e8341b856b8b8ec05c]
link MedicalLabTechnician to Sample--><path codeLine="173" d="M615.28,288.073 C582.017,305.811 554.836,321.131 552.5,325 C540.784,344.405 540.534,369.905 543.213,390.554 " fill="none" id="MedicalLabTechnician-Sample" style="stroke:#A80036;stroke-width:1.0;"/><polygon fill="#000000" points="554.6238,337.6564,562.2309,331.9481,557.4228,328.567,554.6238,337.6564" style="stroke:#000000;stroke-width:1.0;"/><text fill="#000000" font-family="sans-serif" font-size="13" lengthAdjust="spacing" textLength="128" x="566.5" y="338.0669">collects and records</text><text fill="#000000" font-family="sans-serif" font-size="13" lengthAdjust="spacing" textLength="8" x="599.5204" y="288.6562">1</text><text fill="#000000" font-family="sans-serif" font-size="13" lengthAdjust="spacing" textLength="7" x="534.1871" y="379.9408">*</text><!--MD5=[35c5d5b78cc27fdb07caaeeaa436e174]
link SpecialistDoctor to Report--><path codeLine="174" d="M1858.45,295.029 C1866.2,310.02 1868.81,326.082 1861.5,342 C1850.06,366.908 1827.31,387.259 1806.51,401.797 " fill="none" id="SpecialistDoctor-Report" style="stroke:#A80036;stroke-width:1.0;"/><polygon fill="#000000" points="1868.3127,338.0626,1874.9124,331.2146,1869.6268,328.6433,1868.3127,338.0626" style="stroke:#000000;stroke-width:1.0;"/><text fill="#000000" font-family="sans-serif" font-size="13" lengthAdjust="spacing" textLength="39" x="1879.5" y="338.0669">writes</text><text fill="#000000" font-family="sans-serif" font-size="13" lengthAdjust="spacing" textLength="8" x="1858.3855" y="315.591">1</text><text fill="#000000" font-family="sans-serif" font-size="13" lengthAdjust="spacing" textLength="8" x="1814.4617" y="393.2585">1</text><!--MD5=[30986eb9547a17a7d69613c4e4ec0900]
link SpecialistDoctor to Results--><path codeLine="175" d="M1700.64,295.159 C1692.87,304.734 1685.61,314.778 1679.5,325 C1667.34,345.348 1658.88,370.611 1653.43,390.903 " fill="none" id="SpecialistDoctor-Results" style="stroke:#A80036;stroke-width:1.0;"/><polygon fill="#000000" points="1682.2888,338.0509,1688.9248,331.2381,1683.653,328.6387,1682.2888,338.0509" style="stroke:#000000;stroke-width:1.0;"/><text fill="#000000" font-family="sans-serif" font-size="13" lengthAdjust="spacing" textLength="50" x="1693.5" y="338.0669">analyse</text><text fill="#000000" font-family="sans-serif" font-size="13" lengthAdjust="spacing" textLength="8" x="1684.3013" y="315.7344">1</text><text fill="#000000" font-family="sans-serif" font-size="13" lengthAdjust="spacing" textLength="8" x="1646.1546" y="379.7956">1</text><!--MD5=[7dcd581d20c87a53331ad083603da507]
link Sample to ChemicalLaboratory--><path codeLine="176" d="M499.251,465.109 C470.741,484.725 434.774,509.334 402.5,531 C375.371,549.212 345.462,568.978 319.032,586.339 " fill="none" id="Sample-ChemicalLaboratory" style="stroke:#A80036;stroke-width:1.0;"/><polygon fill="#000000" points="428.3513,525.3572,437.4967,522.7472,434.216,517.8701,428.3513,525.3572" style="stroke:#000000;stroke-width:1.0;"/><text fill="#000000" font-family="sans-serif" font-size="13" lengthAdjust="spacing" textLength="53" x="441.5" y="527.0669">are sent</text><text fill="#000000" font-family="sans-serif" font-size="13" lengthAdjust="spacing" textLength="7" x="483.0176" y="484.6076">*</text><text fill="#000000" font-family="sans-serif" font-size="13" lengthAdjust="spacing" textLength="8" x="320.9506" y="575.3616">1</text><!--MD5=[98994e1502641fa381021dffe882d56a]
link ClinicalChemistryTechnologist to Sample--><path codeLine="177" d="M438.029,289.237 C437.607,307.1 439.847,325.861 447.5,342 C458.241,364.65 478.3,383.266 497.957,397.242 " fill="none" id="ClinicalChemistryTechnologist-Sample" style="stroke:#A80036;stroke-width:1.0;"/><polygon fill="#000000" points="454.9259,337.9385,453.1072,328.6034,447.9676,331.4552,454.9259,337.9385" style="stroke:#000000;stroke-width:1.0;"/><text fill="#000000" font-family="sans-serif" font-size="13" lengthAdjust="spacing" textLength="50" x="461.5" y="338.0669">analyse</text><text fill="#000000" font-family="sans-serif" font-size="13" lengthAdjust="spacing" textLength="8" x="428.4591" y="308.6417">1</text><text fill="#000000" font-family="sans-serif" font-size="13" lengthAdjust="spacing" textLength="8" x="481.865" y="388.9657">1</text><!--MD5=[a30fd0de2ece51448e49a79ae7d6d462]
link ClinicalChemistryTechnologist to Results--><path codeLine="178" d="M578.839,289.071 C585.069,291.275 591.308,293.271 597.5,295 C703.021,324.462 1479.18,330.326 1580.5,372 C1591.3,376.442 1601.62,383.38 1610.74,390.851 " fill="none" id="ClinicalChemistryTechnologist-Results" style="stroke:#A80036;stroke-width:1.0;"/><polygon fill="#000000" points="1330.4759,334.0572,1321.7629,330.2446,1321.186,336.0941,1330.4759,334.0572" style="stroke:#000000;stroke-width:1.0;"/><text fill="#000000" font-family="sans-serif" font-size="13" lengthAdjust="spacing" textLength="48" x="1334.5" y="338.0669">records</text><text fill="#000000" font-family="sans-serif" font-size="13" lengthAdjust="spacing" textLength="8" x="583.0786" y="308.7">1</text><text fill="#000000" font-family="sans-serif" font-size="13" lengthAdjust="spacing" textLength="8" x="1595.8359" y="380.0114">1</text><!--MD5=[c3a86c626b5b742f72786125539e9227]
link ClinicalChemistryTechnologist to ChemicalLaboratory--><path codeLine="179" d="M429.896,289.216 C404.018,373.951 361.435,509.979 348.5,531 C336.188,551.007 319.294,570.066 302.701,586.274 " fill="none" id="ClinicalChemistryTechnologist-ChemicalLaboratory" style="stroke:#A80036;stroke-width:1.0;"/><polygon fill="#000000" points="407.5319,432.6628,413.7939,425.5047,408.3905,423.1911,407.5319,432.6628" style="stroke:#000000;stroke-width:1.0;"/><text fill="#000000" font-family="sans-serif" font-size="13" lengthAdjust="spacing" textLength="58" x="418.5" y="432.5669">works on</text><text fill="#000000" font-family="sans-serif" font-size="13" lengthAdjust="spacing" textLength="7" x="420.5986" y="308.6187">*</text><text fill="#000000" font-family="sans-serif" font-size="13" lengthAdjust="spacing" textLength="8" x="302.323" y="575.2874">1</text><!--MD5=[96971bad3275db9d19457cba1e126aca]
link AnalysisOfBlood to Test--><path codeLine="180" d="M1214.92,471.049 C1190.79,489.896 1161.58,512.088 1134.5,531 C1094.84,558.703 1048.11,588.027 1014.7,608.449 " fill="none" id="AnalysisOfBlood-Test" style="stroke:#A80036;stroke-width:1.0;"/><polygon fill="#000000" points="1158.3774,525.3955,1167.4982,522.7008,1164.1724,517.8544,1158.3774,525.3955" style="stroke:#000000;stroke-width:1.0;"/><text fill="#000000" font-family="sans-serif" font-size="13" lengthAdjust="spacing" textLength="72" x="1171.5" y="527.0669">is a type of</text><text fill="#000000" font-family="sans-serif" font-size="13" lengthAdjust="spacing" textLength="7" x="1198.6318" y="491.4648">*</text><text fill="#000000" font-family="sans-serif" font-size="13" lengthAdjust="spacing" textLength="7" x="1022.6003" y="599.6873">*</text><!--MD5=[830ce5c4009d4f16aaea5756d28aff94]
link Covid19Tests to Test--><path codeLine="181" d="M1075.02,458.515 C1054.2,493.67 1019.27,552.658 995.571,592.668 " fill="none" id="Covid19Tests-Test" style="stroke:#A80036;stroke-width:1.0;"/><polygon fill="#000000" points="1041.9522,526.8686,1049.09,520.5835,1044.0325,517.5883,1041.9522,526.8686" style="stroke:#000000;stroke-width:1.0;"/><text fill="#000000" font-family="sans-serif" font-size="13" lengthAdjust="spacing" textLength="72" x="1053.5" y="527.0669">is a type of</text><text fill="#000000" font-family="sans-serif" font-size="13" lengthAdjust="spacing" textLength="7" x="1063.6929" y="478.4563">*</text><text fill="#000000" font-family="sans-serif" font-size="13" lengthAdjust="spacing" textLength="7" x="991.8741" y="581.9297">*</text><!--MD5=[1ae83efc6d1967ce5bc17dfe294d00c2]
link Sample to Test--><path codeLine="182" d="M605.254,457.776 C644.458,478.566 698.99,507.08 747.5,531 C808.994,561.322 881.035,594.503 926.226,615.038 " fill="none" id="Sample-Test" style="stroke:#A80036;stroke-width:1.0;"/><polygon fill="#000000" points="756.99,524.7663,750.1606,518.1475,747.5744,523.4258,756.99,524.7663" style="stroke:#000000;stroke-width:1.0;"/><text fill="#000000" font-family="sans-serif" font-size="13" lengthAdjust="spacing" textLength="60" x="761.5" y="527.0669">is used in</text><text fill="#000000" font-family="sans-serif" font-size="13" lengthAdjust="spacing" textLength="8" x="613.0147" y="457.8714">1</text><text fill="#000000" font-family="sans-serif" font-size="13" lengthAdjust="spacing" textLength="8" x="910.5323" y="607.5464">1</text><!--MD5=[1dbb730aa792675a530b390feeeb5270]
link Report to Client--><path codeLine="183" d="M1718.26,468.507 C1712.32,473.742 1706.27,479.019 1700.5,484 C1671.16,509.312 1638.81,536.632 1609.72,560.984 " fill="none" id="Report-Client" style="stroke:#A80036;stroke-width:1.0;"/><polygon fill="#000000" points="1661.6941,525.8091,1670.4851,522.1801,1666.6731,517.706,1661.6941,525.8091" style="stroke:#000000;stroke-width:1.0;"/><text fill="#000000" font-family="sans-serif" font-size="13" lengthAdjust="spacing" textLength="90" x="1674.5" y="527.0669">is delivered to</text><text fill="#000000" font-family="sans-serif" font-size="13" lengthAdjust="spacing" textLength="8" x="1702.5718" y="470.812">1</text><text fill="#000000" font-family="sans-serif" font-size="13" lengthAdjust="spacing" textLength="8" x="1610.1088" y="549.9132">1</text><!--MD5=[97f0e67b6e351c541401326f382aebd9]
link ChemicalAnalysis to ChemicalLaboratory--><path codeLine="184" d="M244.5,458.515 C244.5,491.89 244.5,546.745 244.5,586.45 " fill="none" id="ChemicalAnalysis-ChemicalLaboratory" style="stroke:#A80036;stroke-width:1.0;"/><polygon fill="#000000" points="249.5,527.5664,252.4389,518.5213,246.5611,518.5213,249.5,527.5664" style="stroke:#000000;stroke-width:1.0;"/><text fill="#000000" font-family="sans-serif" font-size="13" lengthAdjust="spacing" textLength="81" x="258.5" y="527.0669">take place in</text><text fill="#000000" font-family="sans-serif" font-size="13" lengthAdjust="spacing" textLength="7" x="236.7781" y="478.4563">*</text><text fill="#000000" font-family="sans-serif" font-size="13" lengthAdjust="spacing" textLength="8" x="235.9375" y="575.4882">1</text><!--MD5=[04051b31133b0fb73b3485da462ad7f3]
link Sample to BarcodeExternalAPI--><path codeLine="185" d="M551.5,465.354 C551.5,505.204 551.5,568.376 551.5,605.347 " fill="none" id="Sample-BarcodeExternalAPI" style="stroke:#A80036;stroke-width:1.0;"/><polygon fill="#000000" points="556.5,527.5664,559.4389,518.5213,553.5611,518.5213,556.5,527.5664" style="stroke:#000000;stroke-width:1.0;"/><text fill="#000000" font-family="sans-serif" font-size="13" lengthAdjust="spacing" textLength="111" x="565.5" y="527.0669">is identified using</text><text fill="#000000" font-family="sans-serif" font-size="13" lengthAdjust="spacing" textLength="8" x="542.8625" y="484.6112">1</text><!--MD5=[7e2d4b17c97185eaac75d198ac2b96e4]
@startuml
class ChemicalAnalysis{
}

class Test{
Client;
Test ID;
Type of Test;
}

class Sample{
Test ID;
Type of Sample;
}

class Covid19Tests{
Covid19 Value;
}

class AnalysisOfBlood{
Number Red Blood Cells;
Number White Blood Cells;
Number Platelets;
}

class Client{
Name;
Citizen card Number;
National Healthcare Service Number
Birth date;
Sex;
Tax Identification Number;
Phone;
E-mail;
}

class Receptionist{
Employee ID;
Organization Role;
Name;
Address;
Phone Number;
E-Mail;
Standard Occupational Classification "SOC";
}

class MedicalLabTechnician{
Employee ID;
Organization Role;
Name;
Address;
Phone Number;
E-Mail;
Standard Occupational Classification "SOC";
}

class SpecialistDoctor{
Employee ID;
Organization Role;
Name;
Address;
Phone Number;
E-Mail;
Standard Occupational Classification "SOC";
Doctor Index Number;
}

class Administrator{
Employee ID;
Organization Role;
Name;
Address;
Phone Number;
E-Mail;
Standard Occupational Classification "SOC";
}

class ClinicalChemistryTechnologist{
Employee ID;
Organization Role;
Name;
Address;
Phone Number;
E-Mail;
Standard Occupational Classification "SOC";
}

class LaboratoryCoordinator{
Employee ID;
Organization Role;
Name;
Address;
Phone Number;
E-Mail;
Standard Occupational Classification "SOC";
}

class ClinicalAnalysisLaboratory{
Laboratory ID;
Name;
Address;
Phone Number;
TIN number;
}

class ChemicalLaboratory{
Name;
Address;
Phone Number;
TIN number;
}

class CompanyHeadquarters{
Address;
Phone Number;
E-Mail;
}

class ChemicalAnalysis{
Client;
}

class BloodSample{
Sample ID;
}

class SwabSample{
Sample ID;
}

class ManyLabs{
Chemical Lab;
}

class BarcodeExternalAPI{
Barcode Number;
}

class LabOrder{
Client;
Doctor
Type of Test
}

class Results{
TestID;
Client;
}

class Report{
TestID;
Client;
Doctor's text;
}

LaboratoryCoordinator "1" - - "*" Report: verifies >
LaboratoryCoordinator "1" - - "*" Results: verifies >
ManyLabs "1" - - "*" ClinicalAnalysisLaboratory: owns >
ManyLabs "1" - - "1" ChemicalLaboratory: owns >
ManyLabs "1" - - "1" CompanyHeadquarters: owns >
ManyLabs "1" - - "*" Receptionist: employs  >
ManyLabs "1" - - "*" MedicalLabTechnician: employs >
ManyLabs "1" - - "*" SpecialistDoctor: employs >
ManyLabs "1" - - "*" Administrator: employs >
ManyLabs "1" - - "*" ClinicalChemistryTechnologist: employs >
ManyLabs "1" - - "*" LaboratoryCoordinator: employs >
Client "1" - - "1" LabOrder: to execute the test needs a  >
BloodSample "1" - - "1" Sample: is a type of >
SwabSample "1" - - "1" Sample: is a type of >
ChemicalLaboratory "1" - - "1" CompanyHeadquarters: is located in >
Receptionist "*" - - "1" ClinicalAnalysisLaboratory: works on >
Receptionist "1" - - "*" Test: register in application >
Receptionist "1" - - "*" Client: register in application >
MedicalLabTechnician "1" - - "*" Sample: collects and records >
SpecialistDoctor "1" - - "1" Report: writes >
SpecialistDoctor "1" - - "1" Results: analyse >
Sample "*" - - "1" ChemicalLaboratory: are sent >
ClinicalChemistryTechnologist "1" - - "1" Sample : analyse >
ClinicalChemistryTechnologist "1" - - "1" Results : records >
ClinicalChemistryTechnologist "*" - - "1" ChemicalLaboratory : works on >
AnalysisOfBlood "*" - - "*" Test : is a type of >
Covid19Tests "*" - - "*" Test : is a type of >
Sample "1" - - "1" Test : is used in >
Report "1" - - "1" Client : is delivered to >
ChemicalAnalysis "*" - - "1" ChemicalLaboratory : take place in >
Sample "1" - - BarcodeExternalAPI : is identified using >
@enduml

PlantUML version 1.2021.5beta3(Unknown compile time)
(GPL source distribution)
Java Runtime: Java(TM) SE Runtime Environment
JVM: Java HotSpot(TM) 64-Bit Server VM
Default Encoding: UTF-8
Language: en
Country: US
--></g></svg>