<?xml version="1.0" encoding="UTF-8" standalone="no"?><svg xmlns="http://www.w3.org/2000/svg" xmlns:xlink="http://www.w3.org/1999/xlink" contentScriptType="application/ecmascript" contentStyleType="text/css" height="220px" preserveAspectRatio="none" style="width:456px;height:220px;" version="1.1" viewBox="0 0 456 220" width="456px" zoomAndPan="magnify"><defs><filter height="300%" id="f1lshpowhns3ee" width="300%" x="-1" y="-1"><feGaussianBlur result="blurOut" stdDeviation="2.0"/><feColorMatrix in="blurOut" result="blurOut2" type="matrix" values="0 0 0 0 0 0 0 0 0 0 0 0 0 0 0 0 0 0 .4 0"/><feOffset dx="4.0" dy="4.0" in="blurOut2" result="blurOut3"/><feBlend in="SourceGraphic" in2="blurOut3" mode="normal"/></filter></defs><g><!--MD5=[df38be88ccee13e832d6fafd6288a4ca]
class Test--><rect codeLine="4" fill="#FEFECE" filter="url(#f1lshpowhns3ee)" height="40" id="Test" style="stroke:#A80036;stroke-width:1.5;" width="56" x="68.41" y="7"/><ellipse cx="83.41" cy="23" fill="#ADD1B2" rx="11" ry="11" style="stroke:#A80036;stroke-width:1.0;"/><path d="M85.41,19.5 Q85.6131,19 85.8475,18.75 Q86.0819,18.5 86.3475,18.5 Q86.8163,18.5 87.1131,18.7813 Q87.41,19.0625 87.41,19.7188 L87.41,21.2813 Q87.41,21.9375 87.1288,22.2188 Q86.8475,22.5 86.41,22.5 Q86.0194,22.5 85.7694,22.3281 Q85.5194,22.1563 85.41,21.7031 Q85.3631,21.3906 85.1913,21.2188 Q84.8788,20.8906 84.3163,20.7031 Q83.7538,20.5 83.1913,20.5 Q82.4881,20.5 81.8944,20.7813 Q81.3163,21.0625 80.8631,21.6875 Q80.41,22.3125 80.41,23.1719 L80.41,24.0938 Q80.41,25.125 81.2538,25.8125 Q82.0975,26.5 83.5975,26.5 Q84.4881,26.5 85.1131,26.2969 Q85.4725,26.1875 85.8788,25.8281 Q86.1444,25.625 86.285,25.5625 Q86.4256,25.5 86.5975,25.5 Q86.9256,25.5 87.16,25.7656 Q87.41,26.0156 87.41,26.375 Q87.41,26.7188 87.0663,27.125 Q86.5663,27.7188 85.7694,28.0469 Q84.7225,28.5 83.4413,28.5 Q81.9413,28.5 80.7381,27.9063 Q79.7694,27.4375 79.0819,26.4219 Q78.41,25.4063 78.41,24.2031 L78.41,23.1094 Q78.41,21.8594 79.0038,20.7656 Q79.6131,19.6719 80.66,19.0938 Q81.7225,18.5 82.91,18.5 Q83.6288,18.5 84.2538,18.75 Q84.8788,19 85.41,19.5 Z " fill="#000000"/><text fill="#000000" font-family="sans-serif" font-size="12" lengthAdjust="spacing" textLength="24" x="97.41" y="27.9102">Test</text><line style="stroke:#A80036;stroke-width:1.5;" x1="69.41" x2="123.41" y1="39" y2="39"/><!--MD5=[4e608140b854dae633589343bce77383]
class TestParameterResult--><rect codeLine="7" fill="#FEFECE" filter="url(#f1lshpowhns3ee)" height="81.5078" id="TestParameterResult" style="stroke:#A80036;stroke-width:1.5;" width="150" x="67.41" y="125"/><ellipse cx="82.41" cy="141" fill="#ADD1B2" rx="11" ry="11" style="stroke:#A80036;stroke-width:1.0;"/><path d="M84.41,137.5 Q84.6131,137 84.8475,136.75 Q85.0819,136.5 85.3475,136.5 Q85.8163,136.5 86.1131,136.7813 Q86.41,137.0625 86.41,137.7188 L86.41,139.2813 Q86.41,139.9375 86.1288,140.2188 Q85.8475,140.5 85.41,140.5 Q85.0194,140.5 84.7694,140.3281 Q84.5194,140.1563 84.41,139.7031 Q84.3631,139.3906 84.1913,139.2188 Q83.8788,138.8906 83.3163,138.7031 Q82.7538,138.5 82.1913,138.5 Q81.4881,138.5 80.8944,138.7813 Q80.3163,139.0625 79.8631,139.6875 Q79.41,140.3125 79.41,141.1719 L79.41,142.0938 Q79.41,143.125 80.2538,143.8125 Q81.0975,144.5 82.5975,144.5 Q83.4881,144.5 84.1131,144.2969 Q84.4725,144.1875 84.8788,143.8281 Q85.1444,143.625 85.285,143.5625 Q85.4256,143.5 85.5975,143.5 Q85.9256,143.5 86.16,143.7656 Q86.41,144.0156 86.41,144.375 Q86.41,144.7188 86.0663,145.125 Q85.5663,145.7188 84.7694,146.0469 Q83.7225,146.5 82.4413,146.5 Q80.9413,146.5 79.7381,145.9063 Q78.7694,145.4375 78.0819,144.4219 Q77.41,143.4063 77.41,142.2031 L77.41,141.1094 Q77.41,139.8594 78.0038,138.7656 Q78.6131,137.6719 79.66,137.0938 Q80.7225,136.5 81.91,136.5 Q82.6288,136.5 83.2538,136.75 Q83.8788,137 84.41,137.5 Z " fill="#000000"/><text fill="#000000" font-family="sans-serif" font-size="12" lengthAdjust="spacing" textLength="118" x="96.41" y="145.9102">TestParameterResult</text><line style="stroke:#A80036;stroke-width:1.5;" x1="68.41" x2="216.41" y1="157" y2="157"/><rect fill="none" height="6" style="stroke:#C82930;stroke-width:1.0;" width="6" x="75.41" y="165"/><text fill="#000000" font-family="sans-serif" font-size="11" lengthAdjust="spacing" textLength="48" x="87.41" y="172.4189">createdAt</text><rect fill="none" height="6" style="stroke:#C82930;stroke-width:1.0;" width="6" x="75.41" y="178.8359"/><text fill="#000000" font-family="sans-serif" font-size="11" lengthAdjust="spacing" textLength="26" x="87.41" y="186.2549">value</text><rect fill="none" height="6" style="stroke:#C82930;stroke-width:1.0;" width="6" x="75.41" y="192.6719"/><text fill="#000000" font-family="sans-serif" font-size="11" lengthAdjust="spacing" textLength="29" x="87.41" y="200.0908">metric</text><!--MD5=[1440c33e6e2d06f1d65157f758d3adef]
class TestReport--><rect codeLine="13" fill="#FEFECE" filter="url(#f1lshpowhns3ee)" height="40" id="TestReport" style="stroke:#A80036;stroke-width:1.5;" width="93" x="311.91" y="146"/><ellipse cx="326.91" cy="162" fill="#ADD1B2" rx="11" ry="11" style="stroke:#A80036;stroke-width:1.0;"/><path d="M328.91,158.5 Q329.1131,158 329.3475,157.75 Q329.5819,157.5 329.8475,157.5 Q330.3162,157.5 330.6131,157.7813 Q330.91,158.0625 330.91,158.7188 L330.91,160.2813 Q330.91,160.9375 330.6287,161.2188 Q330.3475,161.5 329.91,161.5 Q329.5194,161.5 329.2694,161.3281 Q329.0194,161.1563 328.91,160.7031 Q328.8631,160.3906 328.6912,160.2188 Q328.3787,159.8906 327.8162,159.7031 Q327.2537,159.5 326.6912,159.5 Q325.9881,159.5 325.3944,159.7813 Q324.8162,160.0625 324.3631,160.6875 Q323.91,161.3125 323.91,162.1719 L323.91,163.0938 Q323.91,164.125 324.7537,164.8125 Q325.5975,165.5 327.0975,165.5 Q327.9881,165.5 328.6131,165.2969 Q328.9725,165.1875 329.3787,164.8281 Q329.6444,164.625 329.785,164.5625 Q329.9256,164.5 330.0975,164.5 Q330.4256,164.5 330.66,164.7656 Q330.91,165.0156 330.91,165.375 Q330.91,165.7188 330.5662,166.125 Q330.0662,166.7188 329.2694,167.0469 Q328.2225,167.5 326.9412,167.5 Q325.4412,167.5 324.2381,166.9063 Q323.2694,166.4375 322.5819,165.4219 Q321.91,164.4063 321.91,163.2031 L321.91,162.1094 Q321.91,160.8594 322.5037,159.7656 Q323.1131,158.6719 324.16,158.0938 Q325.2225,157.5 326.41,157.5 Q327.1287,157.5 327.7537,157.75 Q328.3787,158 328.91,158.5 Z " fill="#000000"/><text fill="#000000" font-family="sans-serif" font-size="12" lengthAdjust="spacing" textLength="61" x="340.91" y="166.9102">TestReport</text><line style="stroke:#A80036;stroke-width:1.5;" x1="312.91" x2="403.91" y1="178" y2="178"/><!--MD5=[052425de1c0eb6cc1c1b48342b0bb88f]
class LaboratoryCoordinator--><rect codeLine="16" fill="#FEFECE" filter="url(#f1lshpowhns3ee)" height="40" id="LaboratoryCoordinator" style="stroke:#A80036;stroke-width:1.5;" width="155" x="287.91" y="7"/><ellipse cx="302.91" cy="23" fill="#ADD1B2" rx="11" ry="11" style="stroke:#A80036;stroke-width:1.0;"/><path d="M304.91,19.5 Q305.1131,19 305.3475,18.75 Q305.5819,18.5 305.8475,18.5 Q306.3162,18.5 306.6131,18.7813 Q306.91,19.0625 306.91,19.7188 L306.91,21.2813 Q306.91,21.9375 306.6287,22.2188 Q306.3475,22.5 305.91,22.5 Q305.5194,22.5 305.2694,22.3281 Q305.0194,22.1563 304.91,21.7031 Q304.8631,21.3906 304.6912,21.2188 Q304.3787,20.8906 303.8162,20.7031 Q303.2537,20.5 302.6912,20.5 Q301.9881,20.5 301.3944,20.7813 Q300.8162,21.0625 300.3631,21.6875 Q299.91,22.3125 299.91,23.1719 L299.91,24.0938 Q299.91,25.125 300.7537,25.8125 Q301.5975,26.5 303.0975,26.5 Q303.9881,26.5 304.6131,26.2969 Q304.9725,26.1875 305.3787,25.8281 Q305.6444,25.625 305.785,25.5625 Q305.9256,25.5 306.0975,25.5 Q306.4256,25.5 306.66,25.7656 Q306.91,26.0156 306.91,26.375 Q306.91,26.7188 306.5662,27.125 Q306.0662,27.7188 305.2694,28.0469 Q304.2225,28.5 302.9412,28.5 Q301.4412,28.5 300.2381,27.9063 Q299.2694,27.4375 298.5819,26.4219 Q297.91,25.4063 297.91,24.2031 L297.91,23.1094 Q297.91,21.8594 298.5037,20.7656 Q299.1131,19.6719 300.16,19.0938 Q301.2225,18.5 302.41,18.5 Q303.1287,18.5 303.7537,18.75 Q304.3787,19 304.91,19.5 Z " fill="#000000"/><text fill="#000000" font-family="sans-serif" font-size="12" lengthAdjust="spacing" textLength="123" x="316.91" y="27.9102">LaboratoryCoordinator</text><line style="stroke:#A80036;stroke-width:1.5;" x1="288.91" x2="441.91" y1="39" y2="39"/><!--MD5=[7e640006601b46b45f9a4772292905af]
link Test to TestParameterResult--><path codeLine="20" d="M68.17,38.17 C40.99,49.69 6,70.11 20.41,95 C31.12,113.49 48.76,127.52 67.34,137.97 " fill="none" id="Test-TestParameterResult" style="stroke:#A80036;stroke-width:1.0;"/><polygon fill="#000000" points="25.4516,81.176,22.4375,90.1963,28.3152,90.2452,25.4516,81.176" style="stroke:#000000;stroke-width:1.0;"/><text fill="#000000" font-family="sans-serif" font-size="13" lengthAdjust="spacing" textLength="90" x="34.41" y="91.4951">associated with</text><text fill="#000000" font-family="sans-serif" font-size="13" lengthAdjust="spacing" textLength="7" x="53.4334" y="36.4807">1</text><text fill="#000000" font-family="sans-serif" font-size="13" lengthAdjust="spacing" textLength="5" x="54.3406" y="131.793">*</text><!--MD5=[bf2c4a24c3ba26e9822e5aa7c016b9db]
link Test to TestReport--><path codeLine="21" d="M110.83,47.09 C122.91,61.94 141.37,82.12 161.41,95 C174.43,103.36 257.49,131.64 311.52,149.59 " fill="none" id="Test-TestReport" style="stroke:#A80036;stroke-width:1.0;"/><polygon fill="#000000" points="161.9572,83.9015,168.6757,90.633,171.3492,85.3984,161.9572,83.9015" style="stroke:#000000;stroke-width:1.0;"/><text fill="#000000" font-family="sans-serif" font-size="13" lengthAdjust="spacing" textLength="90" x="175.41" y="91.4951">associated with</text><text fill="#000000" font-family="sans-serif" font-size="13" lengthAdjust="spacing" textLength="7" x="106.9013" y="68.5349">1</text><text fill="#000000" font-family="sans-serif" font-size="13" lengthAdjust="spacing" textLength="7" x="296.804" y="143.3743">1</text><!--MD5=[8a007d733b3469369a4e9798341361c9]
link LaboratoryCoordinator to TestReport--><path codeLine="22" d="M372.26,47.28 C375.08,56.2 378.01,67.01 379.41,77 C382.79,101.11 374.38,128.28 367.21,145.97 " fill="none" id="LaboratoryCoordinator-TestReport" style="stroke:#A80036;stroke-width:1.0;"/><polygon fill="#000000" points="384.1545,91.1692,387.5518,82.2862,381.6816,81.9858,384.1545,91.1692" style="stroke:#000000;stroke-width:1.0;"/><text fill="#000000" font-family="sans-serif" font-size="13" lengthAdjust="spacing" textLength="50" x="393.41" y="91.4951">validates</text><text fill="#000000" font-family="sans-serif" font-size="13" lengthAdjust="spacing" textLength="7" x="366.1603" y="68.4226">1</text><text fill="#000000" font-family="sans-serif" font-size="13" lengthAdjust="spacing" textLength="7" x="361.7669" y="135.2829">1</text><!--MD5=[a44482911318f66adcb58e0c9810b7dd]
link LaboratoryCoordinator to TestParameterResult--><path codeLine="23" d="M341.38,47.21 C323.42,61.18 298,80.18 274.41,95 C256.4,106.32 236.39,117.57 217.5,127.63 " fill="none" id="LaboratoryCoordinator-TestParameterResult" style="stroke:#A80036;stroke-width:1.0;"/><polygon fill="#000000" points="300.2162,88.8983,309.4031,86.4383,306.2026,81.5082,300.2162,88.8983" style="stroke:#000000;stroke-width:1.0;"/><text fill="#000000" font-family="sans-serif" font-size="13" lengthAdjust="spacing" textLength="50" x="313.41" y="91.4951">validates</text><text fill="#000000" font-family="sans-serif" font-size="13" lengthAdjust="spacing" textLength="7" x="326.9813" y="68.3338">1</text><text fill="#000000" font-family="sans-serif" font-size="13" lengthAdjust="spacing" textLength="20" x="225.3442" y="120.8893">1..*</text><!--MD5=[532d702eb1914274c8ad7bdaac9c3e6e]
@startuml
hide methods


class Test{
}

class TestParameterResult{
-createdAt
-value
-metric
}

class TestReport{
}

class LaboratoryCoordinator{
}


Test "1" - - "*" TestParameterResult: associated with <
Test "1" - - "1" TestReport: associated with <
LaboratoryCoordinator "1" - - "1" TestReport: validates >
LaboratoryCoordinator "1" - - "1..*" TestParameterResult: validates >


@enduml

PlantUML version 1.2021.5(Sun Apr 25 12:20:28 BST 2021)
(GPL source distribution)
Java Runtime: OpenJDK Runtime Environment
JVM: Dynamic Code Evolution 64-Bit Server VM
Default Encoding: Cp1252
Language: pt
Country: PT
--></g></svg>