<?xml version="1.0" encoding="UTF-8" standalone="no"?><svg xmlns="http://www.w3.org/2000/svg" xmlns:xlink="http://www.w3.org/1999/xlink" contentScriptType="application/ecmascript" contentStyleType="text/css" height="234px" preserveAspectRatio="none" style="width:469px;height:234px;" version="1.1" viewBox="0 0 469 234" width="469px" zoomAndPan="magnify"><defs><filter height="300%" id="fqg0ngght6a1h" width="300%" x="-1" y="-1"><feGaussianBlur result="blurOut" stdDeviation="2.0"/><feColorMatrix in="blurOut" result="blurOut2" type="matrix" values="0 0 0 0 0 0 0 0 0 0 0 0 0 0 0 0 0 0 .4 0"/><feOffset dx="4.0" dy="4.0" in="blurOut2" result="blurOut3"/><feBlend in="SourceGraphic" in2="blurOut3" mode="normal"/></filter></defs><g><!--MD5=[df38be88ccee13e832d6fafd6288a4ca]
class Test--><rect codeLine="4" fill="#FEFECE" filter="url(#fqg0ngght6a1h)" height="53.8359" id="Test" style="stroke:#A80036;stroke-width:1.5;" width="74" x="202" y="7"/><ellipse cx="225.1" cy="23" fill="#ADD1B2" rx="11" ry="11" style="stroke:#A80036;stroke-width:1.0;"/><path d="M227.1,19.5 Q227.3031,19 227.5375,18.75 Q227.7719,18.5 228.0375,18.5 Q228.5063,18.5 228.8031,18.7813 Q229.1,19.0625 229.1,19.7188 L229.1,21.2813 Q229.1,21.9375 228.8188,22.2188 Q228.5375,22.5 228.1,22.5 Q227.7094,22.5 227.4594,22.3281 Q227.2094,22.1563 227.1,21.7031 Q227.0531,21.3906 226.8813,21.2188 Q226.5688,20.8906 226.0063,20.7031 Q225.4438,20.5 224.8813,20.5 Q224.1781,20.5 223.5844,20.7813 Q223.0063,21.0625 222.5531,21.6875 Q222.1,22.3125 222.1,23.1719 L222.1,24.0938 Q222.1,25.125 222.9438,25.8125 Q223.7875,26.5 225.2875,26.5 Q226.1781,26.5 226.8031,26.2969 Q227.1625,26.1875 227.5688,25.8281 Q227.8344,25.625 227.975,25.5625 Q228.1156,25.5 228.2875,25.5 Q228.6156,25.5 228.85,25.7656 Q229.1,26.0156 229.1,26.375 Q229.1,26.7188 228.7563,27.125 Q228.2563,27.7188 227.4594,28.0469 Q226.4125,28.5 225.1313,28.5 Q223.6313,28.5 222.4281,27.9063 Q221.4594,27.4375 220.7719,26.4219 Q220.1,25.4063 220.1,24.2031 L220.1,23.1094 Q220.1,21.8594 220.6938,20.7656 Q221.3031,19.6719 222.35,19.0938 Q223.4125,18.5 224.6,18.5 Q225.3188,18.5 225.9438,18.75 Q226.5688,19 227.1,19.5 Z " fill="#000000"/><text fill="#000000" font-family="sans-serif" font-size="12" lengthAdjust="spacing" textLength="24" x="240.9" y="27.9102">Test</text><line style="stroke:#A80036;stroke-width:1.5;" x1="203" x2="275" y1="39" y2="39"/><rect fill="none" height="6" style="stroke:#C82930;stroke-width:1.0;" width="6" x="210" y="47"/><text fill="#000000" font-family="sans-serif" font-size="11" lengthAdjust="spacing" textLength="48" x="222" y="54.4189">createdAt</text><!--MD5=[4e608140b854dae633589343bce77383]
class TestParameterResult--><rect codeLine="8" fill="#FEFECE" filter="url(#fqg0ngght6a1h)" height="81.5078" id="TestParameterResult" style="stroke:#A80036;stroke-width:1.5;" width="150" x="7" y="139"/><ellipse cx="22" cy="155" fill="#ADD1B2" rx="11" ry="11" style="stroke:#A80036;stroke-width:1.0;"/><path d="M24,151.5 Q24.2031,151 24.4375,150.75 Q24.6719,150.5 24.9375,150.5 Q25.4063,150.5 25.7031,150.7813 Q26,151.0625 26,151.7188 L26,153.2813 Q26,153.9375 25.7188,154.2188 Q25.4375,154.5 25,154.5 Q24.6094,154.5 24.3594,154.3281 Q24.1094,154.1563 24,153.7031 Q23.9531,153.3906 23.7813,153.2188 Q23.4688,152.8906 22.9063,152.7031 Q22.3438,152.5 21.7813,152.5 Q21.0781,152.5 20.4844,152.7813 Q19.9063,153.0625 19.4531,153.6875 Q19,154.3125 19,155.1719 L19,156.0938 Q19,157.125 19.8438,157.8125 Q20.6875,158.5 22.1875,158.5 Q23.0781,158.5 23.7031,158.2969 Q24.0625,158.1875 24.4688,157.8281 Q24.7344,157.625 24.875,157.5625 Q25.0156,157.5 25.1875,157.5 Q25.5156,157.5 25.75,157.7656 Q26,158.0156 26,158.375 Q26,158.7188 25.6563,159.125 Q25.1563,159.7188 24.3594,160.0469 Q23.3125,160.5 22.0313,160.5 Q20.5313,160.5 19.3281,159.9063 Q18.3594,159.4375 17.6719,158.4219 Q17,157.4063 17,156.2031 L17,155.1094 Q17,153.8594 17.5938,152.7656 Q18.2031,151.6719 19.25,151.0938 Q20.3125,150.5 21.5,150.5 Q22.2188,150.5 22.8438,150.75 Q23.4688,151 24,151.5 Z " fill="#000000"/><text fill="#000000" font-family="sans-serif" font-size="12" lengthAdjust="spacing" textLength="118" x="36" y="159.9102">TestParameterResult</text><line style="stroke:#A80036;stroke-width:1.5;" x1="8" x2="156" y1="171" y2="171"/><rect fill="none" height="6" style="stroke:#C82930;stroke-width:1.0;" width="6" x="15" y="179"/><text fill="#000000" font-family="sans-serif" font-size="11" lengthAdjust="spacing" textLength="48" x="27" y="186.4189">createdAt</text><rect fill="none" height="6" style="stroke:#C82930;stroke-width:1.0;" width="6" x="15" y="192.8359"/><text fill="#000000" font-family="sans-serif" font-size="11" lengthAdjust="spacing" textLength="26" x="27" y="200.2549">value</text><rect fill="none" height="6" style="stroke:#C82930;stroke-width:1.0;" width="6" x="15" y="206.6719"/><text fill="#000000" font-family="sans-serif" font-size="11" lengthAdjust="spacing" textLength="29" x="27" y="214.0908">metric</text><!--MD5=[1440c33e6e2d06f1d65157f758d3adef]
class TestReport--><rect codeLine="15" fill="#FEFECE" filter="url(#fqg0ngght6a1h)" height="53.8359" id="TestReport" style="stroke:#A80036;stroke-width:1.5;" width="93" x="192.5" y="153"/><ellipse cx="207.5" cy="169" fill="#ADD1B2" rx="11" ry="11" style="stroke:#A80036;stroke-width:1.0;"/><path d="M209.5,165.5 Q209.7031,165 209.9375,164.75 Q210.1719,164.5 210.4375,164.5 Q210.9063,164.5 211.2031,164.7813 Q211.5,165.0625 211.5,165.7188 L211.5,167.2813 Q211.5,167.9375 211.2188,168.2188 Q210.9375,168.5 210.5,168.5 Q210.1094,168.5 209.8594,168.3281 Q209.6094,168.1563 209.5,167.7031 Q209.4531,167.3906 209.2813,167.2188 Q208.9688,166.8906 208.4063,166.7031 Q207.8438,166.5 207.2813,166.5 Q206.5781,166.5 205.9844,166.7813 Q205.4063,167.0625 204.9531,167.6875 Q204.5,168.3125 204.5,169.1719 L204.5,170.0938 Q204.5,171.125 205.3438,171.8125 Q206.1875,172.5 207.6875,172.5 Q208.5781,172.5 209.2031,172.2969 Q209.5625,172.1875 209.9688,171.8281 Q210.2344,171.625 210.375,171.5625 Q210.5156,171.5 210.6875,171.5 Q211.0156,171.5 211.25,171.7656 Q211.5,172.0156 211.5,172.375 Q211.5,172.7188 211.1563,173.125 Q210.6563,173.7188 209.8594,174.0469 Q208.8125,174.5 207.5313,174.5 Q206.0313,174.5 204.8281,173.9063 Q203.8594,173.4375 203.1719,172.4219 Q202.5,171.4063 202.5,170.2031 L202.5,169.1094 Q202.5,167.8594 203.0938,166.7656 Q203.7031,165.6719 204.75,165.0938 Q205.8125,164.5 207,164.5 Q207.7188,164.5 208.3438,164.75 Q208.9688,165 209.5,165.5 Z " fill="#000000"/><text fill="#000000" font-family="sans-serif" font-size="12" lengthAdjust="spacing" textLength="61" x="221.5" y="173.9102">TestReport</text><line style="stroke:#A80036;stroke-width:1.5;" x1="193.5" x2="284.5" y1="185" y2="185"/><rect fill="none" height="6" style="stroke:#C82930;stroke-width:1.0;" width="6" x="200.5" y="193"/><text fill="#000000" font-family="sans-serif" font-size="11" lengthAdjust="spacing" textLength="48" x="212.5" y="200.4189">createdAt</text><!--MD5=[9681492165142af2a4a3a169d90ee8d4]
class Sample--><rect codeLine="21" fill="#FEFECE" filter="url(#fqg0ngght6a1h)" height="53.8359" id="Sample" style="stroke:#A80036;stroke-width:1.5;" width="75" x="346.5" y="153"/><ellipse cx="361.5" cy="169" fill="#ADD1B2" rx="11" ry="11" style="stroke:#A80036;stroke-width:1.0;"/><path d="M363.5,165.5 Q363.7031,165 363.9375,164.75 Q364.1719,164.5 364.4375,164.5 Q364.9063,164.5 365.2031,164.7813 Q365.5,165.0625 365.5,165.7188 L365.5,167.2813 Q365.5,167.9375 365.2188,168.2188 Q364.9375,168.5 364.5,168.5 Q364.1094,168.5 363.8594,168.3281 Q363.6094,168.1563 363.5,167.7031 Q363.4531,167.3906 363.2813,167.2188 Q362.9688,166.8906 362.4063,166.7031 Q361.8438,166.5 361.2813,166.5 Q360.5781,166.5 359.9844,166.7813 Q359.4063,167.0625 358.9531,167.6875 Q358.5,168.3125 358.5,169.1719 L358.5,170.0938 Q358.5,171.125 359.3438,171.8125 Q360.1875,172.5 361.6875,172.5 Q362.5781,172.5 363.2031,172.2969 Q363.5625,172.1875 363.9688,171.8281 Q364.2344,171.625 364.375,171.5625 Q364.5156,171.5 364.6875,171.5 Q365.0156,171.5 365.25,171.7656 Q365.5,172.0156 365.5,172.375 Q365.5,172.7188 365.1563,173.125 Q364.6563,173.7188 363.8594,174.0469 Q362.8125,174.5 361.5313,174.5 Q360.0313,174.5 358.8281,173.9063 Q357.8594,173.4375 357.1719,172.4219 Q356.5,171.4063 356.5,170.2031 L356.5,169.1094 Q356.5,167.8594 357.0938,166.7656 Q357.7031,165.6719 358.75,165.0938 Q359.8125,164.5 361,164.5 Q361.7188,164.5 362.3438,164.75 Q362.9688,165 363.5,165.5 Z " fill="#000000"/><text fill="#000000" font-family="sans-serif" font-size="12" lengthAdjust="spacing" textLength="43" x="375.5" y="173.9102">Sample</text><line style="stroke:#A80036;stroke-width:1.5;" x1="347.5" x2="420.5" y1="185" y2="185"/><rect fill="none" height="6" style="stroke:#C82930;stroke-width:1.0;" width="6" x="354.5" y="193"/><text fill="#000000" font-family="sans-serif" font-size="11" lengthAdjust="spacing" textLength="48" x="366.5" y="200.4189">createdAt</text><!--MD5=[b72ac8ab7fb5921fceb5036a3902baea]
link Test to Sample--><path codeLine="25" d="M276.07,47.45 C298.45,56.55 326.18,70.84 345,91 C361.31,108.47 371.56,133.88 377.44,152.91 " fill="none" id="Test-Sample" style="stroke:#A80036;stroke-width:1.0;"/><polygon fill="#000000" points="358.5351,96.571,362.6844,105.1287,366.922,101.0554,358.5351,96.571" style="stroke:#000000;stroke-width:1.0;"/><text fill="#000000" font-family="sans-serif" font-size="13" lengthAdjust="spacing" textLength="90" x="371" y="105.4951">associated with</text><text fill="#000000" font-family="sans-serif" font-size="13" lengthAdjust="spacing" textLength="7" x="284.0572" y="46.0688">1</text><text fill="#000000" font-family="sans-serif" font-size="13" lengthAdjust="spacing" textLength="5" x="370.3449" y="142.3502">*</text><!--MD5=[7e640006601b46b45f9a4772292905af]
link Test to TestParameterResult--><path codeLine="26" d="M201.87,45.63 C176.92,54.37 144.75,68.95 123,91 C109.98,104.2 100.58,122.3 94.09,138.66 " fill="none" id="Test-TestParameterResult" style="stroke:#A80036;stroke-width:1.0;"/><polygon fill="#000000" points="131.785,96.9087,123.0175,100.5941,126.8582,105.0437,131.785,96.9087" style="stroke:#000000;stroke-width:1.0;"/><text fill="#000000" font-family="sans-serif" font-size="13" lengthAdjust="spacing" textLength="90" x="137" y="105.4951">associated with</text><text fill="#000000" font-family="sans-serif" font-size="13" lengthAdjust="spacing" textLength="7" x="187.1249" y="43.8662">1</text><text fill="#000000" font-family="sans-serif" font-size="13" lengthAdjust="spacing" textLength="5" x="90.6783" y="128.0531">*</text><!--MD5=[bf2c4a24c3ba26e9822e5aa7c016b9db]
link Test to TestReport--><path codeLine="27" d="M237.31,61.2 C236.78,70.59 236.26,81.27 236,91 C235.44,111.78 236.33,135.32 237.27,152.82 " fill="none" id="Test-TestReport" style="stroke:#A80036;stroke-width:1.0;"/><polygon fill="#000000" points="241.0022,95.1758,238.0593,104.2196,243.9372,104.2221,241.0022,95.1758" style="stroke:#000000;stroke-width:1.0;"/><text fill="#000000" font-family="sans-serif" font-size="13" lengthAdjust="spacing" textLength="90" x="250" y="105.4951">associated with</text><text fill="#000000" font-family="sans-serif" font-size="13" lengthAdjust="spacing" textLength="7" x="229.1747" y="82.4515">1</text><text fill="#000000" font-family="sans-serif" font-size="13" lengthAdjust="spacing" textLength="7" x="229.0606" y="142.2394">1</text><!--MD5=[028a2bc61252ad906eb9960ab0e4cc3b]
@startuml
hide methods


class Test{
-createdAt
}

class TestParameterResult{
-createdAt
-value
-metric
}


class TestReport{
-createdAt
}



class Sample{
-createdAt
}

Test "1" - - "*" Sample: associated with <
Test "1" - - "*" TestParameterResult: associated with <
Test "1" - - "1" TestReport: associated with <



@enduml

PlantUML version 1.2021.5(Sun Apr 25 12:20:28 BST 2021)
(GPL source distribution)
Java Runtime: OpenJDK Runtime Environment
JVM: Dynamic Code Evolution 64-Bit Server VM
Default Encoding: Cp1252
Language: pt
Country: PT
--></g></svg>