<?xml version="1.0" encoding="UTF-8" standalone="no"?><svg xmlns="http://www.w3.org/2000/svg" xmlns:xlink="http://www.w3.org/1999/xlink" contentScriptType="application/ecmascript" contentStyleType="text/css" height="388.8px" preserveAspectRatio="none" style="width:364px;height:388px;" version="1.1" viewBox="0 0 364 388" width="364.8px" zoomAndPan="magnify"><defs><filter height="300%" id="f10go79snyn6gu" width="300%" x="-1" y="-1"><feGaussianBlur result="blurOut" stdDeviation="1.6"/><feColorMatrix in="blurOut" result="blurOut2" type="matrix" values="0 0 0 0 0 0 0 0 0 0 0 0 0 0 0 0 0 0 .4 0"/><feOffset dx="3.2" dy="3.2" in="blurOut2" result="blurOut3"/><feBlend in="SourceGraphic" in2="blurOut3" mode="normal"/></filter></defs><g><rect fill="#FFFFFF" filter="url(#f10go79snyn6gu)" height="226.8125" style="stroke:#A80036;stroke-width:0.8;" width="8" x="47.6" y="79.6875"/><rect fill="#FFFFFF" filter="url(#f10go79snyn6gu)" height="62.4438" style="stroke:#A80036;stroke-width:0.8;" width="8" x="316.4" y="79.6875"/><rect fill="#FFFFFF" filter="url(#f10go79snyn6gu)" height="42.9625" style="stroke:#A80036;stroke-width:0.8;" width="8" x="316.4" y="166.4125"/><rect fill="#FFFFFF" filter="url(#f10go79snyn6gu)" height="24.2813" style="stroke:#A80036;stroke-width:0.8;" width="8" x="316.4" y="233.6563"/><rect fill="#FFFFFF" filter="url(#f10go79snyn6gu)" height="24.2813" style="stroke:#A80036;stroke-width:0.8;" width="8" x="316.4" y="282.2188"/><rect fill="#FFFFFF" filter="url(#f10go79snyn6gu)" height="63.2438" style="stroke:#000000;stroke-width:1.6;" width="346" x="8" y="109.5688"/><line style="stroke:#A80036;stroke-width:0.8;stroke-dasharray:5.0,5.0;" x1="51.2" x2="51.2" y1="71.6875" y2="320.9"/><line style="stroke:#A80036;stroke-width:0.8;stroke-dasharray:5.0,5.0;" x1="320.4" x2="320.4" y1="71.6875" y2="320.9"/><text fill="#000000" font-family="sans-serif" font-size="11.2" lengthAdjust="spacing" textLength="66.4" x="16" y="69.2266">Administrator</text><ellipse cx="51.6" cy="12" fill="#FEFECE" filter="url(#f10go79snyn6gu)" rx="6.4" ry="6.4" style="stroke:#A80036;stroke-width:1.6;"/><path d="M51.6,18.4 L51.6,40 M41.2,24.8 L62,24.8 M51.6,40 L41.2,52 M51.6,40 L62,52 " fill="none" filter="url(#f10go79snyn6gu)" style="stroke:#A80036;stroke-width:1.6;"/><text fill="#000000" font-family="sans-serif" font-size="11.2" lengthAdjust="spacing" textLength="66.4" x="16" y="331.7266">Administrator</text><ellipse cx="51.6" cy="342.1875" fill="#FEFECE" filter="url(#f10go79snyn6gu)" rx="6.4" ry="6.4" style="stroke:#A80036;stroke-width:1.6;"/><path d="M51.6,348.5875 L51.6,370.1875 M41.2,354.9875 L62,354.9875 M51.6,370.1875 L41.2,382.1875 M51.6,370.1875 L62,382.1875 " fill="none" filter="url(#f10go79snyn6gu)" style="stroke:#A80036;stroke-width:1.6;"/><rect fill="#FEFECE" filter="url(#f10go79snyn6gu)" height="25.2875" style="stroke:#A80036;stroke-width:1.2000000000000002;" width="48" x="294.8" y="42.4"/><text fill="#000000" font-family="sans-serif" font-size="11.2" lengthAdjust="spacing" textLength="36.8" x="300.4" y="59.6266">System</text><rect fill="#FEFECE" filter="url(#f10go79snyn6gu)" height="25.2875" style="stroke:#A80036;stroke-width:1.2000000000000002;" width="48" x="294.8" y="320.1"/><text fill="#000000" font-family="sans-serif" font-size="11.2" lengthAdjust="spacing" textLength="36.8" x="300.4" y="337.3266">System</text><rect fill="#FFFFFF" filter="url(#f10go79snyn6gu)" height="226.8125" style="stroke:#A80036;stroke-width:0.8;" width="8" x="47.6" y="79.6875"/><rect fill="#FFFFFF" filter="url(#f10go79snyn6gu)" height="62.4438" style="stroke:#A80036;stroke-width:0.8;" width="8" x="316.4" y="79.6875"/><rect fill="#FFFFFF" filter="url(#f10go79snyn6gu)" height="42.9625" style="stroke:#A80036;stroke-width:0.8;" width="8" x="316.4" y="166.4125"/><rect fill="#FFFFFF" filter="url(#f10go79snyn6gu)" height="24.2813" style="stroke:#A80036;stroke-width:0.8;" width="8" x="316.4" y="233.6563"/><rect fill="#FFFFFF" filter="url(#f10go79snyn6gu)" height="24.2813" style="stroke:#A80036;stroke-width:0.8;" width="8" x="316.4" y="282.2188"/><polygon fill="#A80036" points="306.8,94.3688,314.8,97.5688,306.8,100.7688,310,97.5688" style="stroke:#A80036;stroke-width:0.8;"/><line style="stroke:#A80036;stroke-width:0.8;" x1="55.6" x2="311.6" y1="97.5688" y2="97.5688"/><text fill="#000000" font-family="sans-serif" font-size="10.4" font-weight="bold" lengthAdjust="spacing" textLength="5.6" x="61.2" y="93.6836">1</text><text fill="#000000" font-family="sans-serif" font-size="10.4" lengthAdjust="spacing" textLength="232.8" x="70" y="93.6836">wants to register a new clinical analysis laboratory</text><path d="M8,109.5688 L66.4,109.5688 L66.4,115.9688 L58.4,123.9688 L8,123.9688 L8,109.5688 " fill="#EEEEEE" style="stroke:#000000;stroke-width:0.8;"/><rect fill="none" height="63.2438" style="stroke:#000000;stroke-width:1.6;" width="346" x="8" y="109.5688"/><text fill="#000000" font-family="sans-serif" font-size="10.4" font-weight="bold" lengthAdjust="spacing" textLength="22.4" x="20" y="121.1648">loop</text><polygon fill="#A80036" points="64.4,138.9313,56.4,142.1313,64.4,145.3313,61.2,142.1313" style="stroke:#A80036;stroke-width:0.8;"/><line style="stroke:#A80036;stroke-width:0.8;stroke-dasharray:2.0,2.0;" x1="59.6" x2="319.6" y1="142.1313" y2="142.1313"/><text fill="#000000" font-family="sans-serif" font-size="10.4" font-weight="bold" lengthAdjust="spacing" textLength="5.6" x="69.2" y="138.2461">2</text><text fill="#000000" font-family="sans-serif" font-size="10.4" lengthAdjust="spacing" textLength="107.2" x="78" y="138.2461">shows types of test list</text><polygon fill="#A80036" points="306.8,163.2125,314.8,166.4125,306.8,169.6125,310,166.4125" style="stroke:#A80036;stroke-width:0.8;"/><line style="stroke:#A80036;stroke-width:0.8;" x1="55.6" x2="311.6" y1="166.4125" y2="166.4125"/><text fill="#000000" font-family="sans-serif" font-size="10.4" font-weight="bold" lengthAdjust="spacing" textLength="5.6" x="61.2" y="162.5273">3</text><text fill="#000000" font-family="sans-serif" font-size="10.4" lengthAdjust="spacing" textLength="100" x="70" y="162.5273">selects types of tests</text><polygon fill="#A80036" points="64.4,206.175,56.4,209.375,64.4,212.575,61.2,209.375" style="stroke:#A80036;stroke-width:0.8;"/><line style="stroke:#A80036;stroke-width:0.8;stroke-dasharray:2.0,2.0;" x1="59.6" x2="319.6" y1="209.375" y2="209.375"/><text fill="#000000" font-family="sans-serif" font-size="10.4" font-weight="bold" lengthAdjust="spacing" textLength="5.6" x="69.2" y="198.9492">4</text><text fill="#000000" font-family="sans-serif" font-size="10.4" lengthAdjust="spacing" textLength="206.4" x="78" y="192.4086">requests data (laboratory ID, name, address,</text><text fill="#000000" font-family="sans-serif" font-size="10.4" lengthAdjust="spacing" textLength="128" x="81.2" y="205.4898">phone number, TIN number)</text><polygon fill="#A80036" points="306.8,230.4563,314.8,233.6563,306.8,236.8563,310,233.6563" style="stroke:#A80036;stroke-width:0.8;"/><line style="stroke:#A80036;stroke-width:0.8;" x1="55.6" x2="311.6" y1="233.6563" y2="233.6563"/><text fill="#000000" font-family="sans-serif" font-size="10.4" font-weight="bold" lengthAdjust="spacing" textLength="5.6" x="61.2" y="229.7711">5</text><text fill="#000000" font-family="sans-serif" font-size="10.4" lengthAdjust="spacing" textLength="97.6" x="70" y="229.7711">types requested data</text><polygon fill="#A80036" points="64.4,254.7375,56.4,257.9375,64.4,261.1375,61.2,257.9375" style="stroke:#A80036;stroke-width:0.8;"/><line style="stroke:#A80036;stroke-width:0.8;stroke-dasharray:2.0,2.0;" x1="59.6" x2="319.6" y1="257.9375" y2="257.9375"/><text fill="#000000" font-family="sans-serif" font-size="10.4" font-weight="bold" lengthAdjust="spacing" textLength="5.6" x="69.2" y="254.0523">6</text><text fill="#000000" font-family="sans-serif" font-size="10.4" lengthAdjust="spacing" textLength="188.8" x="78" y="254.0523">shows all data and requests confirmation</text><polygon fill="#A80036" points="306.8,279.0188,314.8,282.2188,306.8,285.4188,310,282.2188" style="stroke:#A80036;stroke-width:0.8;"/><line style="stroke:#A80036;stroke-width:0.8;" x1="55.6" x2="311.6" y1="282.2188" y2="282.2188"/><text fill="#000000" font-family="sans-serif" font-size="10.4" font-weight="bold" lengthAdjust="spacing" textLength="5.6" x="61.2" y="278.3336">7</text><text fill="#000000" font-family="sans-serif" font-size="10.4" lengthAdjust="spacing" textLength="80" x="70" y="278.3336">confirms the data</text><polygon fill="#A80036" points="60.4,303.3,52.4,306.5,60.4,309.7,57.2,306.5" style="stroke:#A80036;stroke-width:0.8;"/><line style="stroke:#A80036;stroke-width:0.8;stroke-dasharray:2.0,2.0;" x1="55.6" x2="319.6" y1="306.5" y2="306.5"/><text fill="#000000" font-family="sans-serif" font-size="10.4" font-weight="bold" lengthAdjust="spacing" textLength="5.6" x="65.2" y="302.6148">8</text><text fill="#000000" font-family="sans-serif" font-size="10.4" lengthAdjust="spacing" textLength="121.6" x="74" y="302.6148">informs operation success</text><!--MD5=[18e35cc0b470d1d8189ae37acc7defc5]
@startuml
autonumber
actor Administrator as A
participant "System" as S
activate A
activate S
A -> S: wants to register a new clinical analysis laboratory
loop
S - -> A: shows types of test list
deactivate S
A -> S: selects types of tests
activate S
end
S - -> A: requests data (laboratory ID, name, address,\n phone number, TIN number)
deactivate S
A -> S: types requested data
activate S
S - -> A: shows all data and requests confirmation
deactivate S
A -> S: confirms the data
activate S
S - -> A: informs operation success
deactivate S
deactivate A
@enduml

PlantUML version 1.2021.00(Sun Jan 10 10:25:05 GMT 2021)
(GPL source distribution)
Java Runtime: OpenJDK Runtime Environment
JVM: OpenJDK 64-Bit Server VM
Default Encoding: Cp1252
Language: pt
Country: PT
--></g></svg>