<?xml version="1.0" encoding="UTF-8" standalone="no"?><svg xmlns="http://www.w3.org/2000/svg" xmlns:xlink="http://www.w3.org/1999/xlink" contentScriptType="application/ecmascript" contentStyleType="text/css" height="815px" preserveAspectRatio="none" style="width:510px;height:815px;" version="1.1" viewBox="0 0 510 815" width="510px" zoomAndPan="magnify"><defs><filter height="300%" id="f1g60m1kcfrsmi" width="300%" x="-1" y="-1"><feGaussianBlur result="blurOut" stdDeviation="2.0"/><feColorMatrix in="blurOut" result="blurOut2" type="matrix" values="0 0 0 0 0 0 0 0 0 0 0 0 0 0 0 0 0 0 .4 0"/><feOffset dx="4.0" dy="4.0" in="blurOut2" result="blurOut3"/><feBlend in="SourceGraphic" in2="blurOut3" mode="normal"/></filter></defs><g><!--MD5=[02e4b9b7573f1156f41e60aa5b4e25a4]
class Company--><rect codeLine="2" fill="#FEFECE" filter="url(#f1g60m1kcfrsmi)" height="75.6719" id="Company" style="stroke:#A80036;stroke-width:1.5;" width="85" x="161" y="294"/><ellipse cx="176" cy="310" fill="#ADD1B2" rx="11" ry="11" style="stroke:#A80036;stroke-width:1.0;"/><path d="M178,306.5 Q178.2031,306 178.4375,305.75 Q178.6719,305.5 178.9375,305.5 Q179.4063,305.5 179.7031,305.7813 Q180,306.0625 180,306.7188 L180,308.2813 Q180,308.9375 179.7188,309.2188 Q179.4375,309.5 179,309.5 Q178.6094,309.5 178.3594,309.3281 Q178.1094,309.1563 178,308.7031 Q177.9531,308.3906 177.7813,308.2188 Q177.4688,307.8906 176.9063,307.7031 Q176.3438,307.5 175.7813,307.5 Q175.0781,307.5 174.4844,307.7813 Q173.9063,308.0625 173.4531,308.6875 Q173,309.3125 173,310.1719 L173,311.0938 Q173,312.125 173.8438,312.8125 Q174.6875,313.5 176.1875,313.5 Q177.0781,313.5 177.7031,313.2969 Q178.0625,313.1875 178.4688,312.8281 Q178.7344,312.625 178.875,312.5625 Q179.0156,312.5 179.1875,312.5 Q179.5156,312.5 179.75,312.7656 Q180,313.0156 180,313.375 Q180,313.7188 179.6563,314.125 Q179.1563,314.7188 178.3594,315.0469 Q177.3125,315.5 176.0313,315.5 Q174.5313,315.5 173.3281,314.9063 Q172.3594,314.4375 171.6719,313.4219 Q171,312.4063 171,311.2031 L171,310.1094 Q171,308.8594 171.5938,307.7656 Q172.2031,306.6719 173.25,306.0938 Q174.3125,305.5 175.5,305.5 Q176.2188,305.5 176.8438,305.75 Q177.4688,306 178,306.5 Z " fill="#000000"/><text fill="#000000" font-family="sans-serif" font-size="12" lengthAdjust="spacing" textLength="53" x="190" y="314.9102">Company</text><line style="stroke:#A80036;stroke-width:1.5;" x1="162" x2="245" y1="326" y2="326"/><rect fill="none" height="6" style="stroke:#C82930;stroke-width:1.0;" width="6" x="169" y="334"/><text fill="#000000" font-family="sans-serif" font-size="11" lengthAdjust="spacing" textLength="55" x="181" y="341.4189">designation</text><line style="stroke:#A80036;stroke-width:1.5;" x1="162" x2="245" y1="347.8359" y2="347.8359"/><ellipse cx="172" cy="358.8359" fill="#84BE84" rx="3" ry="3" style="stroke:#038048;stroke-width:1.0;"/><text fill="#000000" font-family="sans-serif" font-size="11" lengthAdjust="spacing" textLength="49" x="181" y="363.2549">getStore()</text><!--MD5=[def482e8b0344725162b79e692602bfb]
class CreateClinicalAnalysisLabUI--><rect codeLine="8" fill="#FEFECE" filter="url(#f1g60m1kcfrsmi)" height="48" id="CreateClinicalAnalysisLabUI" style="stroke:#A80036;stroke-width:1.5;" width="189" x="157" y="7"/><ellipse cx="172" cy="23" fill="#ADD1B2" rx="11" ry="11" style="stroke:#A80036;stroke-width:1.0;"/><path d="M174,19.5 Q174.2031,19 174.4375,18.75 Q174.6719,18.5 174.9375,18.5 Q175.4063,18.5 175.7031,18.7813 Q176,19.0625 176,19.7188 L176,21.2813 Q176,21.9375 175.7188,22.2188 Q175.4375,22.5 175,22.5 Q174.6094,22.5 174.3594,22.3281 Q174.1094,22.1563 174,21.7031 Q173.9531,21.3906 173.7813,21.2188 Q173.4688,20.8906 172.9063,20.7031 Q172.3438,20.5 171.7813,20.5 Q171.0781,20.5 170.4844,20.7813 Q169.9063,21.0625 169.4531,21.6875 Q169,22.3125 169,23.1719 L169,24.0938 Q169,25.125 169.8438,25.8125 Q170.6875,26.5 172.1875,26.5 Q173.0781,26.5 173.7031,26.2969 Q174.0625,26.1875 174.4688,25.8281 Q174.7344,25.625 174.875,25.5625 Q175.0156,25.5 175.1875,25.5 Q175.5156,25.5 175.75,25.7656 Q176,26.0156 176,26.375 Q176,26.7188 175.6563,27.125 Q175.1563,27.7188 174.3594,28.0469 Q173.3125,28.5 172.0313,28.5 Q170.5313,28.5 169.3281,27.9063 Q168.3594,27.4375 167.6719,26.4219 Q167,25.4063 167,24.2031 L167,23.1094 Q167,21.8594 167.5938,20.7656 Q168.2031,19.6719 169.25,19.0938 Q170.3125,18.5 171.5,18.5 Q172.2188,18.5 172.8438,18.75 Q173.4688,19 174,19.5 Z " fill="#000000"/><text fill="#000000" font-family="sans-serif" font-size="12" lengthAdjust="spacing" textLength="157" x="186" y="27.9102">CreateClinicalAnalysisLabUI</text><line style="stroke:#A80036;stroke-width:1.5;" x1="158" x2="345" y1="39" y2="39"/><line style="stroke:#A80036;stroke-width:1.5;" x1="158" x2="345" y1="47" y2="47"/><!--MD5=[c71b0d3bba606bf414de3222409dc860]
class CreateClinicalAnalysisLabController--><rect codeLine="11" fill="#FEFECE" filter="url(#f1g60m1kcfrsmi)" height="117.1797" id="CreateClinicalAnalysisLabController" style="stroke:#A80036;stroke-width:1.5;" width="489" x="7" y="116"/><ellipse cx="147.75" cy="132" fill="#ADD1B2" rx="11" ry="11" style="stroke:#A80036;stroke-width:1.0;"/><path d="M149.75,128.5 Q149.9531,128 150.1875,127.75 Q150.4219,127.5 150.6875,127.5 Q151.1563,127.5 151.4531,127.7813 Q151.75,128.0625 151.75,128.7188 L151.75,130.2813 Q151.75,130.9375 151.4688,131.2188 Q151.1875,131.5 150.75,131.5 Q150.3594,131.5 150.1094,131.3281 Q149.8594,131.1563 149.75,130.7031 Q149.7031,130.3906 149.5313,130.2188 Q149.2188,129.8906 148.6563,129.7031 Q148.0938,129.5 147.5313,129.5 Q146.8281,129.5 146.2344,129.7813 Q145.6563,130.0625 145.2031,130.6875 Q144.75,131.3125 144.75,132.1719 L144.75,133.0938 Q144.75,134.125 145.5938,134.8125 Q146.4375,135.5 147.9375,135.5 Q148.8281,135.5 149.4531,135.2969 Q149.8125,135.1875 150.2188,134.8281 Q150.4844,134.625 150.625,134.5625 Q150.7656,134.5 150.9375,134.5 Q151.2656,134.5 151.5,134.7656 Q151.75,135.0156 151.75,135.375 Q151.75,135.7188 151.4063,136.125 Q150.9063,136.7188 150.1094,137.0469 Q149.0625,137.5 147.7813,137.5 Q146.2813,137.5 145.0781,136.9063 Q144.1094,136.4375 143.4219,135.4219 Q142.75,134.4063 142.75,133.2031 L142.75,132.1094 Q142.75,130.8594 143.3438,129.7656 Q143.9531,128.6719 145,128.0938 Q146.0625,127.5 147.25,127.5 Q147.9688,127.5 148.5938,127.75 Q149.2188,128 149.75,128.5 Z " fill="#000000"/><text fill="#000000" font-family="sans-serif" font-size="12" lengthAdjust="spacing" textLength="199" x="168.25" y="136.9102">CreateClinicalAnalysisLabController</text><line style="stroke:#A80036;stroke-width:1.5;" x1="8" x2="495" y1="148" y2="148"/><line style="stroke:#A80036;stroke-width:1.5;" x1="8" x2="495" y1="156" y2="156"/><ellipse cx="18" cy="167" fill="#84BE84" rx="3" ry="3" style="stroke:#038048;stroke-width:1.0;"/><text fill="#000000" font-family="sans-serif" font-size="11" lengthAdjust="spacing" textLength="49" x="27" y="171.4189">getStore()</text><ellipse cx="18" cy="180.8359" fill="#84BE84" rx="3" ry="3" style="stroke:#038048;stroke-width:1.0;"/><text fill="#000000" font-family="sans-serif" font-size="11" lengthAdjust="spacing" textLength="463" x="27" y="185.2549">CreateClinicalAnalysisLab(int labID, string name, string address, int phoneNumber, int tinNumber)</text><ellipse cx="18" cy="194.6719" fill="#84BE84" rx="3" ry="3" style="stroke:#038048;stroke-width:1.0;"/><text fill="#000000" font-family="sans-serif" font-size="11" lengthAdjust="spacing" textLength="85" x="27" y="199.0908">getTestTypeList()</text><ellipse cx="18" cy="208.5078" fill="#84BE84" rx="3" ry="3" style="stroke:#038048;stroke-width:1.0;"/><text fill="#000000" font-family="sans-serif" font-size="11" lengthAdjust="spacing" textLength="45" x="27" y="212.9268">setData()</text><ellipse cx="18" cy="222.3438" fill="#84BE84" rx="3" ry="3" style="stroke:#038048;stroke-width:1.0;"/><text fill="#000000" font-family="sans-serif" font-size="11" lengthAdjust="spacing" textLength="125" x="27" y="226.7627">saveClinicalAnalysisLab()</text><!--MD5=[1934a092c0e7d4da7dc7075b6f4b6b03]
class ClinicalAnalysisLaboratory--><rect codeLine="19" fill="#FEFECE" filter="url(#f1g60m1kcfrsmi)" height="144.8516" id="ClinicalAnalysisLaboratory" style="stroke:#A80036;stroke-width:1.5;" width="177" x="74" y="657"/><ellipse cx="89" cy="673" fill="#ADD1B2" rx="11" ry="11" style="stroke:#A80036;stroke-width:1.0;"/><path d="M91,669.5 Q91.2031,669 91.4375,668.75 Q91.6719,668.5 91.9375,668.5 Q92.4063,668.5 92.7031,668.7813 Q93,669.0625 93,669.7188 L93,671.2813 Q93,671.9375 92.7188,672.2188 Q92.4375,672.5 92,672.5 Q91.6094,672.5 91.3594,672.3281 Q91.1094,672.1563 91,671.7031 Q90.9531,671.3906 90.7813,671.2188 Q90.4688,670.8906 89.9063,670.7031 Q89.3438,670.5 88.7813,670.5 Q88.0781,670.5 87.4844,670.7813 Q86.9063,671.0625 86.4531,671.6875 Q86,672.3125 86,673.1719 L86,674.0938 Q86,675.125 86.8438,675.8125 Q87.6875,676.5 89.1875,676.5 Q90.0781,676.5 90.7031,676.2969 Q91.0625,676.1875 91.4688,675.8281 Q91.7344,675.625 91.875,675.5625 Q92.0156,675.5 92.1875,675.5 Q92.5156,675.5 92.75,675.7656 Q93,676.0156 93,676.375 Q93,676.7188 92.6563,677.125 Q92.1563,677.7188 91.3594,678.0469 Q90.3125,678.5 89.0313,678.5 Q87.5313,678.5 86.3281,677.9063 Q85.3594,677.4375 84.6719,676.4219 Q84,675.4063 84,674.2031 L84,673.1094 Q84,671.8594 84.5938,670.7656 Q85.2031,669.6719 86.25,669.0938 Q87.3125,668.5 88.5,668.5 Q89.2188,668.5 89.8438,668.75 Q90.4688,669 91,669.5 Z " fill="#000000"/><text fill="#000000" font-family="sans-serif" font-size="12" lengthAdjust="spacing" textLength="145" x="103" y="677.9102">ClinicalAnalysisLaboratory</text><line style="stroke:#A80036;stroke-width:1.5;" x1="75" x2="250" y1="689" y2="689"/><rect fill="none" height="6" style="stroke:#C82930;stroke-width:1.0;" width="6" x="82" y="697"/><text fill="#000000" font-family="sans-serif" font-size="11" lengthAdjust="spacing" textLength="23" x="94" y="704.4189">labID</text><rect fill="none" height="6" style="stroke:#C82930;stroke-width:1.0;" width="6" x="82" y="710.8359"/><text fill="#000000" font-family="sans-serif" font-size="11" lengthAdjust="spacing" textLength="26" x="94" y="718.2549">name</text><rect fill="none" height="6" style="stroke:#C82930;stroke-width:1.0;" width="6" x="82" y="724.6719"/><text fill="#000000" font-family="sans-serif" font-size="11" lengthAdjust="spacing" textLength="40" x="94" y="732.0908">address</text><rect fill="none" height="6" style="stroke:#C82930;stroke-width:1.0;" width="6" x="82" y="738.5078"/><text fill="#000000" font-family="sans-serif" font-size="11" lengthAdjust="spacing" textLength="67" x="94" y="745.9268">phoneNumber</text><rect fill="none" height="6" style="stroke:#C82930;stroke-width:1.0;" width="6" x="82" y="752.3438"/><text fill="#000000" font-family="sans-serif" font-size="11" lengthAdjust="spacing" textLength="48" x="94" y="759.7627">tinNumber</text><line style="stroke:#A80036;stroke-width:1.5;" x1="75" x2="250" y1="766.1797" y2="766.1797"/><ellipse cx="85" cy="777.1797" fill="#84BE84" rx="3" ry="3" style="stroke:#038048;stroke-width:1.0;"/><text fill="#000000" font-family="sans-serif" font-size="11" lengthAdjust="spacing" textLength="68" x="94" y="781.5986">setTypeTest()</text><ellipse cx="85" cy="791.0156" fill="#84BE84" rx="3" ry="3" style="stroke:#038048;stroke-width:1.0;"/><text fill="#000000" font-family="sans-serif" font-size="11" lengthAdjust="spacing" textLength="45" x="94" y="795.4346">validate()</text><!--MD5=[438281daef332c5ccec4fb6cf3747e9a]
class ClinicalAnalysisLaboratoryStore--><rect codeLine="29" fill="#FEFECE" filter="url(#f1g60m1kcfrsmi)" height="131.0156" id="ClinicalAnalysisLaboratoryStore" style="stroke:#A80036;stroke-width:1.5;" width="489" x="7" y="448"/><ellipse cx="160.25" cy="464" fill="#ADD1B2" rx="11" ry="11" style="stroke:#A80036;stroke-width:1.0;"/><path d="M162.25,460.5 Q162.4531,460 162.6875,459.75 Q162.9219,459.5 163.1875,459.5 Q163.6563,459.5 163.9531,459.7813 Q164.25,460.0625 164.25,460.7188 L164.25,462.2813 Q164.25,462.9375 163.9688,463.2188 Q163.6875,463.5 163.25,463.5 Q162.8594,463.5 162.6094,463.3281 Q162.3594,463.1563 162.25,462.7031 Q162.2031,462.3906 162.0313,462.2188 Q161.7188,461.8906 161.1563,461.7031 Q160.5938,461.5 160.0313,461.5 Q159.3281,461.5 158.7344,461.7813 Q158.1563,462.0625 157.7031,462.6875 Q157.25,463.3125 157.25,464.1719 L157.25,465.0938 Q157.25,466.125 158.0938,466.8125 Q158.9375,467.5 160.4375,467.5 Q161.3281,467.5 161.9531,467.2969 Q162.3125,467.1875 162.7188,466.8281 Q162.9844,466.625 163.125,466.5625 Q163.2656,466.5 163.4375,466.5 Q163.7656,466.5 164,466.7656 Q164.25,467.0156 164.25,467.375 Q164.25,467.7188 163.9063,468.125 Q163.4063,468.7188 162.6094,469.0469 Q161.5625,469.5 160.2813,469.5 Q158.7813,469.5 157.5781,468.9063 Q156.6094,468.4375 155.9219,467.4219 Q155.25,466.4063 155.25,465.2031 L155.25,464.1094 Q155.25,462.8594 155.8438,461.7656 Q156.4531,460.6719 157.5,460.0938 Q158.5625,459.5 159.75,459.5 Q160.4688,459.5 161.0938,459.75 Q161.7188,460 162.25,460.5 Z " fill="#000000"/><text fill="#000000" font-family="sans-serif" font-size="12" lengthAdjust="spacing" textLength="174" x="180.75" y="468.9102">ClinicalAnalysisLaboratoryStore</text><line style="stroke:#A80036;stroke-width:1.5;" x1="8" x2="495" y1="480" y2="480"/><line style="stroke:#A80036;stroke-width:1.5;" x1="8" x2="495" y1="488" y2="488"/><ellipse cx="18" cy="499" fill="#84BE84" rx="3" ry="3" style="stroke:#038048;stroke-width:1.0;"/><text fill="#000000" font-family="sans-serif" font-size="11" lengthAdjust="spacing" textLength="463" x="27" y="503.4189">CreateClinicalAnalysisLab(int labID, string name, string address, int phoneNumber, int tinNumber)</text><ellipse cx="18" cy="512.8359" fill="#84BE84" rx="3" ry="3" style="stroke:#038048;stroke-width:1.0;"/><text fill="#000000" font-family="sans-serif" font-size="11" lengthAdjust="spacing" textLength="138" x="27" y="517.2549">validateClinicalAnalysisLab()</text><ellipse cx="18" cy="526.6719" fill="#84BE84" rx="3" ry="3" style="stroke:#038048;stroke-width:1.0;"/><text fill="#000000" font-family="sans-serif" font-size="11" lengthAdjust="spacing" textLength="85" x="27" y="531.0908">getTestTypeList()</text><ellipse cx="18" cy="540.5078" fill="#84BE84" rx="3" ry="3" style="stroke:#038048;stroke-width:1.0;"/><text fill="#000000" font-family="sans-serif" font-size="11" lengthAdjust="spacing" textLength="68" x="27" y="544.9268">setTypeTest()</text><ellipse cx="18" cy="554.3438" fill="#84BE84" rx="3" ry="3" style="stroke:#038048;stroke-width:1.0;"/><text fill="#000000" font-family="sans-serif" font-size="11" lengthAdjust="spacing" textLength="138" x="27" y="558.7627">validateClinicalAnalysisLab()</text><ellipse cx="18" cy="568.1797" fill="#84BE84" rx="3" ry="3" style="stroke:#038048;stroke-width:1.0;"/><text fill="#000000" font-family="sans-serif" font-size="11" lengthAdjust="spacing" textLength="125" x="27" y="572.5986">saveClinicalAnalysisLac()</text><!--MD5=[6ba72ddf03822b91e8d41ca71de58ed3]
class TestTypeStore--><rect codeLine="38" fill="#FEFECE" filter="url(#f1g60m1kcfrsmi)" height="61.8359" id="TestTypeStore" style="stroke:#A80036;stroke-width:1.5;" width="111" x="286" y="698.5"/><ellipse cx="301" cy="714.5" fill="#ADD1B2" rx="11" ry="11" style="stroke:#A80036;stroke-width:1.0;"/><path d="M303,711 Q303.2031,710.5 303.4375,710.25 Q303.6719,710 303.9375,710 Q304.4063,710 304.7031,710.2813 Q305,710.5625 305,711.2188 L305,712.7813 Q305,713.4375 304.7188,713.7188 Q304.4375,714 304,714 Q303.6094,714 303.3594,713.8281 Q303.1094,713.6563 303,713.2031 Q302.9531,712.8906 302.7813,712.7188 Q302.4688,712.3906 301.9063,712.2031 Q301.3438,712 300.7813,712 Q300.0781,712 299.4844,712.2813 Q298.9063,712.5625 298.4531,713.1875 Q298,713.8125 298,714.6719 L298,715.5938 Q298,716.625 298.8438,717.3125 Q299.6875,718 301.1875,718 Q302.0781,718 302.7031,717.7969 Q303.0625,717.6875 303.4688,717.3281 Q303.7344,717.125 303.875,717.0625 Q304.0156,717 304.1875,717 Q304.5156,717 304.75,717.2656 Q305,717.5156 305,717.875 Q305,718.2188 304.6563,718.625 Q304.1563,719.2188 303.3594,719.5469 Q302.3125,720 301.0313,720 Q299.5313,720 298.3281,719.4063 Q297.3594,718.9375 296.6719,717.9219 Q296,716.9063 296,715.7031 L296,714.6094 Q296,713.3594 296.5938,712.2656 Q297.2031,711.1719 298.25,710.5938 Q299.3125,710 300.5,710 Q301.2188,710 301.8438,710.25 Q302.4688,710.5 303,711 Z " fill="#000000"/><text fill="#000000" font-family="sans-serif" font-size="12" lengthAdjust="spacing" textLength="79" x="315" y="719.4102">TestTypeStore</text><line style="stroke:#A80036;stroke-width:1.5;" x1="287" x2="396" y1="730.5" y2="730.5"/><line style="stroke:#A80036;stroke-width:1.5;" x1="287" x2="396" y1="738.5" y2="738.5"/><ellipse cx="297" cy="749.5" fill="#84BE84" rx="3" ry="3" style="stroke:#038048;stroke-width:1.0;"/><text fill="#000000" font-family="sans-serif" font-size="11" lengthAdjust="spacing" textLength="85" x="306" y="753.9189">getTestTypeList()</text><!--MD5=[b367d5761613b2ad5daf445514867c76]
link CreateClinicalAnalysisLabUI to CreateClinicalAnalysisLabController--><path codeLine="42" d="M251.5,55.05 C251.5,70.28 251.5,91.04 251.5,110.92 " fill="none" id="CreateClinicalAnalysisLabUI-to-CreateClinicalAnalysisLabController" style="stroke:#A80036;stroke-width:1.0;stroke-dasharray:7.0,7.0;"/><polygon fill="#A80036" points="251.5,115.95,255.5,106.95,251.5,110.95,247.5,106.95,251.5,115.95" style="stroke:#A80036;stroke-width:1.0;"/><!--MD5=[538ad5c949872612f94e85033e7995c8]
link CreateClinicalAnalysisLabController to Company--><path codeLine="43" d="M233.63,233.4 C227.97,251.71 221.84,271.6 216.58,288.61 " fill="none" id="CreateClinicalAnalysisLabController-to-Company" style="stroke:#A80036;stroke-width:1.0;stroke-dasharray:7.0,7.0;"/><polygon fill="#A80036" points="214.98,293.8,221.4748,286.3961,216.4665,289.0261,213.8365,284.0177,214.98,293.8" style="stroke:#A80036;stroke-width:1.0;"/><!--MD5=[9a522ab679d781bc522a6d6b1d952bd2]
link CreateClinicalAnalysisLabController to ClinicalAnalysisLaboratoryStore--><path codeLine="44" d="M265.55,233.42 C275.61,282.62 286,355.06 277.5,418 C276.41,426.1 274.81,434.49 272.93,442.77 " fill="none" id="CreateClinicalAnalysisLabController-to-ClinicalAnalysisLaboratoryStore" style="stroke:#A80036;stroke-width:1.0;stroke-dasharray:7.0,7.0;"/><polygon fill="#A80036" points="271.73,447.91,277.6799,440.0615,272.872,443.0422,269.8914,438.2343,271.73,447.91" style="stroke:#A80036;stroke-width:1.0;"/><!--MD5=[f379172a0573607dd0ae1a4ea50b9294]
link Company to ClinicalAnalysisLaboratoryStore--><path codeLine="45" d="M213.45,370.19 C219.06,391.18 226.25,418.09 232.87,442.84 " fill="none" id="Company-to-ClinicalAnalysisLaboratoryStore" style="stroke:#A80036;stroke-width:1.0;"/><polygon fill="#A80036" points="234.19,447.76,235.7127,438.0296,232.8901,442.9319,227.9878,440.1094,234.19,447.76" style="stroke:#A80036;stroke-width:1.0;"/><text fill="#000000" font-family="sans-serif" font-size="13" lengthAdjust="spacing" textLength="43" x="227.5" y="414.4951">creates</text><!--MD5=[2dad08ae384f93453eb1ba4eb26732f1]
link ClinicalAnalysisLaboratoryStore to ClinicalAnalysisLaboratory--><path codeLine="46" d="M224.56,579.29 C215.01,602.24 204.18,628.28 194.27,652.1 " fill="none" id="ClinicalAnalysisLaboratoryStore-to-ClinicalAnalysisLaboratory" style="stroke:#A80036;stroke-width:1.0;"/><polygon fill="#A80036" points="192.3,656.84,199.4434,650.0598,194.216,652.2217,192.0541,646.9942,192.3,656.84" style="stroke:#A80036;stroke-width:1.0;"/><text fill="#000000" font-family="sans-serif" font-size="13" lengthAdjust="spacing" textLength="43" x="211.5" y="623.4951">creates</text><!--MD5=[e0c74da7971ad49ccb99dd30d5717ca3]
link ClinicalAnalysisLaboratoryStore to TestTypeStore--><path codeLine="47" d="M278.75,579.29 C294.56,616.89 313.86,662.77 326.84,693.65 " fill="none" id="ClinicalAnalysisLaboratoryStore-to-TestTypeStore" style="stroke:#A80036;stroke-width:1.0;"/><polygon fill="#A80036" points="328.87,698.47,329.064,688.6231,326.9297,693.8618,321.6909,691.7275,328.87,698.47" style="stroke:#A80036;stroke-width:1.0;"/><!--MD5=[41baf9039d6edf648b98fcb6d584a6f5]
@startuml

class Company
{
  - designation
  + getStore()
}

class CreateClinicalAnalysisLabUI {
}

class CreateClinicalAnalysisLabController {
    + getStore()
    + CreateClinicalAnalysisLab(int labID, string name, string address, int phoneNumber, int tinNumber)
    + getTestTypeList()
    + setData()
    + saveClinicalAnalysisLab()
}

class ClinicalAnalysisLaboratory{
    - labID
    - name
    - address
    - phoneNumber
    - tinNumber
    + setTypeTest()
    + validate()
}

class ClinicalAnalysisLaboratoryStore{
    + CreateClinicalAnalysisLab(int labID, string name, string address, int phoneNumber, int tinNumber)
    + validateClinicalAnalysisLab()
    + getTestTypeList()
    + setTypeTest()
    + validateClinicalAnalysisLab()
    + saveClinicalAnalysisLac()
}

class TestTypeStore{
    + getTestTypeList()
}

CreateClinicalAnalysisLabUI ..> CreateClinicalAnalysisLabController
CreateClinicalAnalysisLabController ..> Company
CreateClinicalAnalysisLabController ..> ClinicalAnalysisLaboratoryStore
Company - -> ClinicalAnalysisLaboratoryStore: creates
ClinicalAnalysisLaboratoryStore - -> ClinicalAnalysisLaboratory: creates
ClinicalAnalysisLaboratoryStore - -> TestTypeStore

@enduml

PlantUML version 1.2021.00(Sun Jan 10 10:25:05 GMT 2021)
(GPL source distribution)
Java Runtime: OpenJDK Runtime Environment
JVM: OpenJDK 64-Bit Server VM
Default Encoding: Cp1252
Language: pt
Country: PT
--></g></svg>