<?xml version="1.0" encoding="UTF-8" standalone="no"?>
<svg xmlns="http://www.w3.org/2000/svg"
     contentScriptType="application/ecmascript" contentStyleType="text/css" height="367.2px" preserveAspectRatio="none"
     style="width:207px;height:367px;" version="1.1" viewBox="0 0 207 367" width="207.2px" zoomAndPan="magnify">
    <defs>
        <filter height="300%" id="f11bm4ljcxqgtv" width="300%" x="-1" y="-1">
            <feGaussianBlur result="blurOut" stdDeviation="1.6"/>
            <feColorMatrix in="blurOut" result="blurOut2" type="matrix"
                           values="0 0 0 0 0 0 0 0 0 0 0 0 0 0 0 0 0 0 .4 0"/>
            <feOffset dx="3.2" dy="3.2" in="blurOut2" result="blurOut3"/>
            <feBlend in="SourceGraphic" in2="blurOut3" mode="normal"/>
        </filter>
    </defs>
    <g><!--MD5=[02e4b9b7573f1156f41e60aa5b4e25a4]
class Company-->
        <rect codeLine="1" fill="#FEFECE" filter="url(#f11bm4ljcxqgtv)" height="49.4688" id="Company"
              style="stroke:#A80036;stroke-width:1.2000000000000002;" width="68" x="5.6" y="5.6"/>
        <ellipse cx="17.6" cy="18.4" fill="#ADD1B2" rx="8.8" ry="8.8" style="stroke:#A80036;stroke-width:0.8;"/>
        <path d="M19.2,15.6 Q19.3625,15.2 19.55,15 Q19.7375,14.8 19.95,14.8 Q20.325,14.8 20.5625,15.025 Q20.8,15.25 20.8,15.775 L20.8,17.025 Q20.8,17.55 20.575,17.775 Q20.35,18 20,18 Q19.6875,18 19.4875,17.8625 Q19.2875,17.725 19.2,17.3625 Q19.1625,17.1125 19.025,16.975 Q18.775,16.7125 18.325,16.5625 Q17.875,16.4 17.425,16.4 Q16.8625,16.4 16.3875,16.625 Q15.925,16.85 15.5625,17.35 Q15.2,17.85 15.2,18.5375 L15.2,19.275 Q15.2,20.1 15.875,20.65 Q16.55,21.2 17.75,21.2 Q18.4625,21.2 18.9625,21.0375 Q19.25,20.95 19.575,20.6625 Q19.7875,20.5 19.9,20.45 Q20.0125,20.4 20.15,20.4 Q20.4125,20.4 20.6,20.6125 Q20.8,20.8125 20.8,21.1 Q20.8,21.375 20.525,21.7 Q20.125,22.175 19.4875,22.4375 Q18.65,22.8 17.625,22.8 Q16.425,22.8 15.4625,22.325 Q14.6875,21.95 14.1375,21.1375 Q13.6,20.325 13.6,19.3625 L13.6,18.4875 Q13.6,17.4875 14.075,16.6125 Q14.5625,15.7375 15.4,15.275 Q16.25,14.8 17.2,14.8 Q17.775,14.8 18.275,15 Q18.775,15.2 19.2,15.6 Z "
              fill="#000000"/>
        <text fill="#000000" font-family="sans-serif" font-size="9.6" lengthAdjust="spacing" textLength="42.4" x="28.8"
              y="22.3281">Company
        </text>
        <line style="stroke:#A80036;stroke-width:1.2000000000000002;" x1="6.4" x2="72.8" y1="31.2" y2="31.2"/>
        <text fill="#000000" font-family="sans-serif" font-size="8.8" lengthAdjust="spacing" textLength="21.6" x="10.4"
              y="43.5352">Name
        </text>
        <line style="stroke:#A80036;stroke-width:1.2000000000000002;" x1="6.4" x2="72.8" y1="48.6688" y2="48.6688"/><!--MD5=[1934a092c0e7d4da7dc7075b6f4b6b03]
class ClinicalAnalysisLaboratory-->
        <rect codeLine="5" fill="#FEFECE" filter="url(#f11bm4ljcxqgtv)" height="104.8125"
              id="ClinicalAnalysisLaboratory" style="stroke:#A80036;stroke-width:1.2000000000000002;" width="141.6"
              x="20.8" y="117.6"/>
        <ellipse cx="32.8" cy="130.4" fill="#ADD1B2" rx="8.8" ry="8.8" style="stroke:#A80036;stroke-width:0.8;"/>
        <path d="M34.4,127.6 Q34.5625,127.2 34.75,127 Q34.9375,126.8 35.15,126.8 Q35.525,126.8 35.7625,127.025 Q36,127.25 36,127.775 L36,129.025 Q36,129.55 35.775,129.775 Q35.55,130 35.2,130 Q34.8875,130 34.6875,129.8625 Q34.4875,129.725 34.4,129.3625 Q34.3625,129.1125 34.225,128.975 Q33.975,128.7125 33.525,128.5625 Q33.075,128.4 32.625,128.4 Q32.0625,128.4 31.5875,128.625 Q31.125,128.85 30.7625,129.35 Q30.4,129.85 30.4,130.5375 L30.4,131.275 Q30.4,132.1 31.075,132.65 Q31.75,133.2 32.95,133.2 Q33.6625,133.2 34.1625,133.0375 Q34.45,132.95 34.775,132.6625 Q34.9875,132.5 35.1,132.45 Q35.2125,132.4 35.35,132.4 Q35.6125,132.4 35.8,132.6125 Q36,132.8125 36,133.1 Q36,133.375 35.725,133.7 Q35.325,134.175 34.6875,134.4375 Q33.85,134.8 32.825,134.8 Q31.625,134.8 30.6625,134.325 Q29.8875,133.95 29.3375,133.1375 Q28.8,132.325 28.8,131.3625 L28.8,130.4875 Q28.8,129.4875 29.275,128.6125 Q29.7625,127.7375 30.6,127.275 Q31.45,126.8 32.4,126.8 Q32.975,126.8 33.475,127 Q33.975,127.2 34.4,127.6 Z "
              fill="#000000"/>
        <text fill="#000000" font-family="sans-serif" font-size="9.6" lengthAdjust="spacing" textLength="116" x="44"
              y="134.3281">ClinicalAnalysisLaboratory
        </text>
        <line style="stroke:#A80036;stroke-width:1.2000000000000002;" x1="21.6" x2="161.6" y1="143.2" y2="143.2"/>
        <text fill="#000000" font-family="sans-serif" font-size="8.8" lengthAdjust="spacing" textLength="54.4" x="25.6"
              y="155.5352">Laboratory ID;
        </text>
        <text fill="#000000" font-family="sans-serif" font-size="8.8" lengthAdjust="spacing" textLength="24" x="25.6"
              y="166.6039">Name;
        </text>
        <text fill="#000000" font-family="sans-serif" font-size="8.8" lengthAdjust="spacing" textLength="36" x="25.6"
              y="177.6727">Address;
        </text>
        <text fill="#000000" font-family="sans-serif" font-size="8.8" lengthAdjust="spacing" textLength="58.4" x="25.6"
              y="188.7414">Phone Number;
        </text>
        <text fill="#000000" font-family="sans-serif" font-size="8.8" lengthAdjust="spacing" textLength="45.6" x="25.6"
              y="199.8102">TIN number;
        </text>
        <text fill="#000000" font-family="sans-serif" font-size="8.8" lengthAdjust="spacing" textLength="56" x="25.6"
              y="210.8789">Type of Tests;
        </text>
        <line style="stroke:#A80036;stroke-width:1.2000000000000002;" x1="21.6" x2="161.6" y1="216.0125" y2="216.0125"/><!--MD5=[da547346deef918ea16944ba046651ef]
class Administrator-->
        <rect codeLine="14" fill="#FEFECE" filter="url(#f11bm4ljcxqgtv)" height="38.4" id="Administrator"
              style="stroke:#A80036;stroke-width:1.2000000000000002;" width="84" x="101.6" y="11.2"/>
        <ellipse cx="113.6" cy="24" fill="#ADD1B2" rx="8.8" ry="8.8" style="stroke:#A80036;stroke-width:0.8;"/>
        <path d="M115.2,21.2 Q115.3625,20.8 115.55,20.6 Q115.7375,20.4 115.95,20.4 Q116.325,20.4 116.5625,20.625 Q116.8,20.85 116.8,21.375 L116.8,22.625 Q116.8,23.15 116.575,23.375 Q116.35,23.6 116,23.6 Q115.6875,23.6 115.4875,23.4625 Q115.2875,23.325 115.2,22.9625 Q115.1625,22.7125 115.025,22.575 Q114.775,22.3125 114.325,22.1625 Q113.875,22 113.425,22 Q112.8625,22 112.3875,22.225 Q111.925,22.45 111.5625,22.95 Q111.2,23.45 111.2,24.1375 L111.2,24.875 Q111.2,25.7 111.875,26.25 Q112.55,26.8 113.75,26.8 Q114.4625,26.8 114.9625,26.6375 Q115.25,26.55 115.575,26.2625 Q115.7875,26.1 115.9,26.05 Q116.0125,26 116.15,26 Q116.4125,26 116.6,26.2125 Q116.8,26.4125 116.8,26.7 Q116.8,26.975 116.525,27.3 Q116.125,27.775 115.4875,28.0375 Q114.65,28.4 113.625,28.4 Q112.425,28.4 111.4625,27.925 Q110.6875,27.55 110.1375,26.7375 Q109.6,25.925 109.6,24.9625 L109.6,24.0875 Q109.6,23.0875 110.075,22.2125 Q110.5625,21.3375 111.4,20.875 Q112.25,20.4 113.2,20.4 Q113.775,20.4 114.275,20.6 Q114.775,20.8 115.2,21.2 Z "
              fill="#000000"/>
        <text fill="#000000" font-family="sans-serif" font-size="9.6" lengthAdjust="spacing" textLength="58.4" x="124.8"
              y="27.9281">Administrator
        </text>
        <line style="stroke:#A80036;stroke-width:1.2000000000000002;" x1="102.4" x2="184.8" y1="36.8" y2="36.8"/>
        <line style="stroke:#A80036;stroke-width:1.2000000000000002;" x1="102.4" x2="184.8" y1="43.2" y2="43.2"/><!--MD5=[fdca102e342db1d5733f5f3c41f4f0c8]
class TypeTest-->
        <rect codeLine="17" fill="#FEFECE" filter="url(#f11bm4ljcxqgtv)" height="71.6063" id="TypeTest"
              style="stroke:#A80036;stroke-width:1.2000000000000002;" width="95.2" x="44" y="284.8"/>
        <ellipse cx="69.32" cy="297.6" fill="#ADD1B2" rx="8.8" ry="8.8" style="stroke:#A80036;stroke-width:0.8;"/>
        <path d="M70.92,294.8 Q71.0825,294.4 71.27,294.2 Q71.4575,294 71.67,294 Q72.045,294 72.2825,294.225 Q72.52,294.45 72.52,294.975 L72.52,296.225 Q72.52,296.75 72.295,296.975 Q72.07,297.2 71.72,297.2 Q71.4075,297.2 71.2075,297.0625 Q71.0075,296.925 70.92,296.5625 Q70.8825,296.3125 70.745,296.175 Q70.495,295.9125 70.045,295.7625 Q69.595,295.6 69.145,295.6 Q68.5825,295.6 68.1075,295.825 Q67.645,296.05 67.2825,296.55 Q66.92,297.05 66.92,297.7375 L66.92,298.475 Q66.92,299.3 67.595,299.85 Q68.27,300.4 69.47,300.4 Q70.1825,300.4 70.6825,300.2375 Q70.97,300.15 71.295,299.8625 Q71.5075,299.7 71.62,299.65 Q71.7325,299.6 71.87,299.6 Q72.1325,299.6 72.32,299.8125 Q72.52,300.0125 72.52,300.3 Q72.52,300.575 72.245,300.9 Q71.845,301.375 71.2075,301.6375 Q70.37,302 69.345,302 Q68.145,302 67.1825,301.525 Q66.4075,301.15 65.8575,300.3375 Q65.32,299.525 65.32,298.5625 L65.32,297.6875 Q65.32,296.6875 65.795,295.8125 Q66.2825,294.9375 67.12,294.475 Q67.97,294 68.92,294 Q69.495,294 69.995,294.2 Q70.495,294.4 70.92,294.8 Z "
              fill="#000000"/>
        <text fill="#000000" font-family="sans-serif" font-size="9.6" lengthAdjust="spacing" textLength="40" x="83.48"
              y="301.5281">TypeTest
        </text>
        <line style="stroke:#A80036;stroke-width:1.2000000000000002;" x1="44.8" x2="138.4" y1="310.4" y2="310.4"/>
        <text fill="#000000" font-family="sans-serif" font-size="8.8" lengthAdjust="spacing" textLength="28.8" x="48.8"
              y="322.7352">Test ID;
        </text>
        <text fill="#000000" font-family="sans-serif" font-size="8.8" lengthAdjust="spacing" textLength="69.6" x="48.8"
              y="333.8039">Collecting Method;
        </text>
        <text fill="#000000" font-family="sans-serif" font-size="8.8" lengthAdjust="spacing" textLength="85.6" x="48.8"
              y="344.8727">Parameter Categories;
        </text>
        <line style="stroke:#A80036;stroke-width:1.2000000000000002;" x1="44.8" x2="138.4" y1="350.0063" y2="350.0063"/><!--MD5=[23b8a99c177c2cd6d714b2cbaa81b3c4]
link Administrator to ClinicalAnalysisLaboratory-->
        <path codeLine="23" d="M136.584,49.808 C130.072,67.104 120.064,93.672 111.136,117.36 " fill="none"
              id="Administrator-ClinicalAnalysisLaboratory" style="stroke:#A80036;stroke-width:0.8;"/>
        <polygon fill="#000000" points="127.7899,90.2838,132.541,84.3412,128.1406,82.6835,127.7899,90.2838"
                 style="stroke:#000000;stroke-width:0.8;"/>
        <text fill="#000000" font-family="sans-serif" font-size="10.4" lengthAdjust="spacing" textLength="64.8"
              x="136.4" y="90.7961">register a new
        </text>
        <text fill="#000000" font-family="sans-serif" font-size="10.4" lengthAdjust="spacing" textLength="5.6"
              x="128.5914" y="66.9291">1
        </text>
        <text fill="#000000" font-family="sans-serif" font-size="10.4" lengthAdjust="spacing" textLength="5.6"
              x="107.3665" y="108.9133">1
        </text><!--MD5=[aafc5d8a5829a6a8d6dc892cb1ff5d24]
link Company to ClinicalAnalysisLaboratory-->
        <path codeLine="24" d="M48.656,55.24 C55.12,72.384 64.048,96.08 72.096,117.432 " fill="none"
              id="Company-ClinicalAnalysisLaboratory" style="stroke:#A80036;stroke-width:0.8;"/>
        <polygon fill="#000000" points="68.2107,90.2836,67.8588,82.6833,63.4586,84.3417,68.2107,90.2836"
                 style="stroke:#000000;stroke-width:0.8;"/>
        <text fill="#000000" font-family="sans-serif" font-size="10.4" lengthAdjust="spacing" textLength="24" x="74"
              y="90.7961">owns
        </text>
        <text fill="#000000" font-family="sans-serif" font-size="10.4" lengthAdjust="spacing" textLength="5.6"
              x="44.2877" y="72.2271">1
        </text>
        <text fill="#000000" font-family="sans-serif" font-size="10.4" lengthAdjust="spacing" textLength="4" x="65.744"
              y="108.9932">*
        </text><!--MD5=[55bd4d525ab72a8b469004cd8122feba]
link ClinicalAnalysisLaboratory to TypeTest-->
        <path codeLine="25" d="M91.6,222.568 C91.6,243.104 91.6,266.192 91.6,284.736 " fill="none"
              id="ClinicalAnalysisLaboratory-TypeTest" style="stroke:#A80036;stroke-width:0.8;"/>
        <polygon fill="#000000" points="95.6,257.7406,97.9511,250.5046,93.2489,250.5046,95.6,257.7406"
                 style="stroke:#000000;stroke-width:0.8;"/>
        <text fill="#000000" font-family="sans-serif" font-size="10.4" lengthAdjust="spacing" textLength="40" x="102.8"
              y="257.9961">operates
        </text>
        <text fill="#000000" font-family="sans-serif" font-size="10.4" lengthAdjust="spacing" textLength="5.6"
              x="85.7113" y="239.459">1
        </text>
        <text fill="#000000" font-family="sans-serif" font-size="10.4" lengthAdjust="spacing" textLength="4" x="87.2813"
              y="276.0182">*
        </text><!--MD5=[5f43737c388379768aacf132c4e0616b]
@startuml
class Company{
Name
}

class ClinicalAnalysisLaboratory{
Laboratory ID;
Name;
Address;
Phone Number;
TIN number;
Type of Tests;
}

class Administrator{
}

class TypeTest{
Test ID;
Collecting Method;
Parameter Categories;
}

Administrator "1" - - "1" ClinicalAnalysisLaboratory : register a new >
Company "1" - - "*" ClinicalAnalysisLaboratory: owns >
ClinicalAnalysisLaboratory "1" - - "*" TypeTest : operates >

@enduml

PlantUML version 1.2021.00(Sun Jan 10 10:25:05 GMT 2021)
(GPL source distribution)
Java Runtime: OpenJDK Runtime Environment
JVM: OpenJDK 64-Bit Server VM
Default Encoding: Cp1252
Language: pt
Country: PT
-->
    </g>
</svg>