<?xml version="1.0" encoding="UTF-8" standalone="no"?><svg xmlns="http://www.w3.org/2000/svg" xmlns:xlink="http://www.w3.org/1999/xlink" contentScriptType="application/ecmascript" contentStyleType="text/css" height="454px" preserveAspectRatio="none" style="width:424px;height:454px;" version="1.1" viewBox="0 0 424 454" width="424px" zoomAndPan="magnify"><defs><filter height="300%" id="f1oyau1l5hxljp" width="300%" x="-1" y="-1"><feGaussianBlur result="blurOut" stdDeviation="2.0"/><feColorMatrix in="blurOut" result="blurOut2" type="matrix" values="0 0 0 0 0 0 0 0 0 0 0 0 0 0 0 0 0 0 .4 0"/><feOffset dx="4.0" dy="4.0" in="blurOut2" result="blurOut3"/><feBlend in="SourceGraphic" in2="blurOut3" mode="normal"/></filter></defs><g><rect fill="#FFFFFF" filter="url(#f1oyau1l5hxljp)" height="251.1641" style="stroke:#A80036;stroke-width:1.0;" width="10" x="44.5" y="99.6094"/><rect fill="#FFFFFF" filter="url(#f1oyau1l5hxljp)" height="46.7031" style="stroke:#A80036;stroke-width:1.0;" width="10" x="375.5" y="121.9609"/><rect fill="#FFFFFF" filter="url(#f1oyau1l5hxljp)" height="30.3516" style="stroke:#A80036;stroke-width:1.0;" width="10" x="375.5" y="199.0156"/><rect fill="#FFFFFF" filter="url(#f1oyau1l5hxljp)" height="30.3516" style="stroke:#A80036;stroke-width:1.0;" width="10" x="375.5" y="259.7188"/><rect fill="#FFFFFF" filter="url(#f1oyau1l5hxljp)" height="30.3516" style="stroke:#A80036;stroke-width:1.0;" width="10" x="375.5" y="320.4219"/><line style="stroke:#A80036;stroke-width:1.0;stroke-dasharray:5.0,5.0;" x1="49" x2="49" y1="89.6094" y2="368.7734"/><line style="stroke:#A80036;stroke-width:1.0;stroke-dasharray:5.0,5.0;" x1="380.5" x2="380.5" y1="89.6094" y2="368.7734"/><text fill="#000000" font-family="sans-serif" font-size="14" lengthAdjust="spacing" textLength="83" x="5" y="86.5332">Administrator</text><ellipse cx="49.5" cy="15" fill="#FEFECE" filter="url(#f1oyau1l5hxljp)" rx="8" ry="8" style="stroke:#A80036;stroke-width:2.0;"/><path d="M49.5,23 L49.5,50 M36.5,31 L62.5,31 M49.5,50 L36.5,65 M49.5,50 L62.5,65 " fill="none" filter="url(#f1oyau1l5hxljp)" style="stroke:#A80036;stroke-width:2.0;"/><text fill="#000000" font-family="sans-serif" font-size="14" lengthAdjust="spacing" textLength="83" x="5" y="382.3066">Administrator</text><ellipse cx="49.5" cy="395.3828" fill="#FEFECE" filter="url(#f1oyau1l5hxljp)" rx="8" ry="8" style="stroke:#A80036;stroke-width:2.0;"/><path d="M49.5,403.3828 L49.5,430.3828 M36.5,411.3828 L62.5,411.3828 M49.5,430.3828 L36.5,445.3828 M49.5,430.3828 L62.5,445.3828 " fill="none" filter="url(#f1oyau1l5hxljp)" style="stroke:#A80036;stroke-width:2.0;"/><rect fill="#FEFECE" filter="url(#f1oyau1l5hxljp)" height="31.6094" style="stroke:#A80036;stroke-width:1.5;" width="64" x="346.5" y="53"/><text fill="#000000" font-family="sans-serif" font-size="14" lengthAdjust="spacing" textLength="50" x="353.5" y="74.5332">:System</text><rect fill="#FEFECE" filter="url(#f1oyau1l5hxljp)" height="31.6094" style="stroke:#A80036;stroke-width:1.5;" width="64" x="346.5" y="367.7734"/><text fill="#000000" font-family="sans-serif" font-size="14" lengthAdjust="spacing" textLength="50" x="353.5" y="389.3066">:System</text><rect fill="#FFFFFF" filter="url(#f1oyau1l5hxljp)" height="251.1641" style="stroke:#A80036;stroke-width:1.0;" width="10" x="44.5" y="99.6094"/><rect fill="#FFFFFF" filter="url(#f1oyau1l5hxljp)" height="46.7031" style="stroke:#A80036;stroke-width:1.0;" width="10" x="375.5" y="121.9609"/><rect fill="#FFFFFF" filter="url(#f1oyau1l5hxljp)" height="30.3516" style="stroke:#A80036;stroke-width:1.0;" width="10" x="375.5" y="199.0156"/><rect fill="#FFFFFF" filter="url(#f1oyau1l5hxljp)" height="30.3516" style="stroke:#A80036;stroke-width:1.0;" width="10" x="375.5" y="259.7188"/><rect fill="#FFFFFF" filter="url(#f1oyau1l5hxljp)" height="30.3516" style="stroke:#A80036;stroke-width:1.0;" width="10" x="375.5" y="320.4219"/><polygon fill="#A80036" points="363.5,117.9609,373.5,121.9609,363.5,125.9609,367.5,121.9609" style="stroke:#A80036;stroke-width:1.0;"/><line style="stroke:#A80036;stroke-width:1.0;" x1="54.5" x2="369.5" y1="121.9609" y2="121.9609"/><text fill="#000000" font-family="sans-serif" font-size="13" font-weight="bold" lengthAdjust="spacing" textLength="7" x="61.5" y="117.1045">1</text><text fill="#000000" font-family="sans-serif" font-size="13" lengthAdjust="spacing" textLength="291" x="72.5" y="117.1045">wants to register a new clinical analysis laboratory</text><polygon fill="#A80036" points="65.5,164.6641,55.5,168.6641,65.5,172.6641,61.5,168.6641" style="stroke:#A80036;stroke-width:1.0;"/><line style="stroke:#A80036;stroke-width:1.0;stroke-dasharray:2.0,2.0;" x1="59.5" x2="379.5" y1="168.6641" y2="168.6641"/><text fill="#000000" font-family="sans-serif" font-size="13" font-weight="bold" lengthAdjust="spacing" textLength="7" x="71.5" y="155.6318">2</text><text fill="#000000" font-family="sans-serif" font-size="13" lengthAdjust="spacing" textLength="258" x="82.5" y="147.4561">requests data (laboratory ID, name, address,</text><text fill="#000000" font-family="sans-serif" font-size="13" lengthAdjust="spacing" textLength="160" x="86.5" y="163.8076">phone number, TIN number)</text><polygon fill="#A80036" points="363.5,195.0156,373.5,199.0156,363.5,203.0156,367.5,199.0156" style="stroke:#A80036;stroke-width:1.0;"/><line style="stroke:#A80036;stroke-width:1.0;" x1="54.5" x2="369.5" y1="199.0156" y2="199.0156"/><text fill="#000000" font-family="sans-serif" font-size="13" font-weight="bold" lengthAdjust="spacing" textLength="7" x="61.5" y="194.1592">3</text><text fill="#000000" font-family="sans-serif" font-size="13" lengthAdjust="spacing" textLength="122" x="72.5" y="194.1592">types requested data</text><polygon fill="#A80036" points="65.5,225.3672,55.5,229.3672,65.5,233.3672,61.5,229.3672" style="stroke:#A80036;stroke-width:1.0;"/><line style="stroke:#A80036;stroke-width:1.0;stroke-dasharray:2.0,2.0;" x1="59.5" x2="379.5" y1="229.3672" y2="229.3672"/><text fill="#000000" font-family="sans-serif" font-size="13" font-weight="bold" lengthAdjust="spacing" textLength="7" x="71.5" y="224.5107">4</text><text fill="#000000" font-family="sans-serif" font-size="13" lengthAdjust="spacing" textLength="281" x="82.5" y="224.5107">shows types of test list and asks to select types</text><polygon fill="#A80036" points="363.5,255.7188,373.5,259.7188,363.5,263.7188,367.5,259.7188" style="stroke:#A80036;stroke-width:1.0;"/><line style="stroke:#A80036;stroke-width:1.0;" x1="54.5" x2="369.5" y1="259.7188" y2="259.7188"/><text fill="#000000" font-family="sans-serif" font-size="13" font-weight="bold" lengthAdjust="spacing" textLength="7" x="61.5" y="254.8623">5</text><text fill="#000000" font-family="sans-serif" font-size="13" lengthAdjust="spacing" textLength="125" x="72.5" y="254.8623">selects types of tests</text><polygon fill="#A80036" points="65.5,286.0703,55.5,290.0703,65.5,294.0703,61.5,290.0703" style="stroke:#A80036;stroke-width:1.0;"/><line style="stroke:#A80036;stroke-width:1.0;stroke-dasharray:2.0,2.0;" x1="59.5" x2="379.5" y1="290.0703" y2="290.0703"/><text fill="#000000" font-family="sans-serif" font-size="13" font-weight="bold" lengthAdjust="spacing" textLength="7" x="71.5" y="285.2139">6</text><text fill="#000000" font-family="sans-serif" font-size="13" lengthAdjust="spacing" textLength="236" x="82.5" y="285.2139">shows all data and requests confirmation</text><polygon fill="#A80036" points="363.5,316.4219,373.5,320.4219,363.5,324.4219,367.5,320.4219" style="stroke:#A80036;stroke-width:1.0;"/><line style="stroke:#A80036;stroke-width:1.0;" x1="54.5" x2="369.5" y1="320.4219" y2="320.4219"/><text fill="#000000" font-family="sans-serif" font-size="13" font-weight="bold" lengthAdjust="spacing" textLength="7" x="61.5" y="315.5654">7</text><text fill="#000000" font-family="sans-serif" font-size="13" lengthAdjust="spacing" textLength="100" x="72.5" y="315.5654">confirms the data</text><polygon fill="#A80036" points="60.5,346.7734,50.5,350.7734,60.5,354.7734,56.5,350.7734" style="stroke:#A80036;stroke-width:1.0;"/><line style="stroke:#A80036;stroke-width:1.0;stroke-dasharray:2.0,2.0;" x1="54.5" x2="379.5" y1="350.7734" y2="350.7734"/><text fill="#000000" font-family="sans-serif" font-size="13" font-weight="bold" lengthAdjust="spacing" textLength="7" x="66.5" y="345.917">8</text><text fill="#000000" font-family="sans-serif" font-size="13" lengthAdjust="spacing" textLength="152" x="77.5" y="345.917">informs operation success</text><!--MD5=[1de5d6ca60ef0246603482b5ca02d2e0]
@startuml

autonumber
actor Administrator as A
participant ":System" as S
activate A
A -> S: wants to register a new clinical analysis laboratory
activate S
S - -> A: requests data (laboratory ID, name, address,\n phone number, TIN number)
deactivate S
A -> S: types requested data
activate S
S - -> A: shows types of test list and asks to select types
deactivate S
A -> S: selects types of tests
activate S
S - -> A: shows all data and requests confirmation
deactivate S
A -> S: confirms the data
activate S
S - -> A: informs operation success
deactivate S
deactivate A
@enduml

PlantUML version 1.2021.5(Sun Apr 25 12:20:28 BST 2021)
(GPL source distribution)
Java Runtime: OpenJDK Runtime Environment
JVM: Dynamic Code Evolution 64-Bit Server VM
Default Encoding: Cp1252
Language: pt
Country: PT
--></g></svg>