<?xml version="1.0" encoding="UTF-8" standalone="no"?><svg xmlns="http://www.w3.org/2000/svg" xmlns:xlink="http://www.w3.org/1999/xlink" contentScriptType="application/ecmascript" contentStyleType="text/css" height="400.5px" preserveAspectRatio="none" style="width:233px;height:400px;" version="1.1" viewBox="0 0 233 400" width="233.1px" zoomAndPan="magnify"><defs><filter height="300%" id="f1eyz5rn0x7wuc" width="300%" x="-1" y="-1"><feGaussianBlur result="blurOut" stdDeviation="1.8"/><feColorMatrix in="blurOut" result="blurOut2" type="matrix" values="0 0 0 0 0 0 0 0 0 0 0 0 0 0 0 0 0 0 .4 0"/><feOffset dx="3.6" dy="3.6" in="blurOut2" result="blurOut3"/><feBlend in="SourceGraphic" in2="blurOut3" mode="normal"/></filter></defs><g><!--MD5=[02e4b9b7573f1156f41e60aa5b4e25a4]
class Company--><rect codeLine="1" fill="#FEFECE" filter="url(#f1eyz5rn0x7wuc)" height="55.6523" id="Company" style="stroke:#A80036;stroke-width:1.35;" width="76.5" x="6.3" y="6.3"/><ellipse cx="19.8" cy="20.7" fill="#ADD1B2" rx="9.9" ry="9.9" style="stroke:#A80036;stroke-width:0.9;"/><path d="M21.6,17.55 Q21.7828,17.1 21.9938,16.875 Q22.2047,16.65 22.4438,16.65 Q22.8656,16.65 23.1328,16.9031 Q23.4,17.1563 23.4,17.7469 L23.4,19.1531 Q23.4,19.7438 23.1469,19.9969 Q22.8938,20.25 22.5,20.25 Q22.1484,20.25 21.9234,20.0953 Q21.6984,19.9406 21.6,19.5328 Q21.5578,19.2516 21.4031,19.0969 Q21.1219,18.8016 20.6156,18.6328 Q20.1094,18.45 19.6031,18.45 Q18.9703,18.45 18.4359,18.7031 Q17.9156,18.9563 17.5078,19.5188 Q17.1,20.0813 17.1,20.8547 L17.1,21.6844 Q17.1,22.6125 17.8594,23.2313 Q18.6188,23.85 19.9688,23.85 Q20.7703,23.85 21.3328,23.6672 Q21.6563,23.5688 22.0219,23.2453 Q22.2609,23.0625 22.3875,23.0063 Q22.5141,22.95 22.6688,22.95 Q22.9641,22.95 23.175,23.1891 Q23.4,23.4141 23.4,23.7375 Q23.4,24.0469 23.0906,24.4125 Q22.6406,24.9469 21.9234,25.2422 Q20.9813,25.65 19.8281,25.65 Q18.4781,25.65 17.3953,25.1156 Q16.5234,24.6938 15.9047,23.7797 Q15.3,22.8656 15.3,21.7828 L15.3,20.7984 Q15.3,19.6734 15.8344,18.6891 Q16.3828,17.7047 17.325,17.1844 Q18.2813,16.65 19.35,16.65 Q19.9969,16.65 20.5594,16.875 Q21.1219,17.1 21.6,17.55 Z " fill="#000000"/><text fill="#000000" font-family="sans-serif" font-size="10.8" lengthAdjust="spacing" textLength="47.7" x="32.4" y="25.1191">Company</text><line style="stroke:#A80036;stroke-width:1.35;" x1="7.2" x2="81.9" y1="35.1" y2="35.1"/><text fill="#000000" font-family="sans-serif" font-size="9.9" lengthAdjust="spacing" textLength="24.3" x="11.7" y="48.9771">Name</text><line style="stroke:#A80036;stroke-width:1.35;" x1="7.2" x2="81.9" y1="54.7523" y2="54.7523"/><!--MD5=[1934a092c0e7d4da7dc7075b6f4b6b03]
class ClinicalAnalysisLaboratory--><rect codeLine="5" fill="#FEFECE" filter="url(#f1eyz5rn0x7wuc)" height="117.9141" id="ClinicalAnalysisLaboratory" style="stroke:#A80036;stroke-width:1.35;" width="159.3" x="23.4" y="132.3"/><ellipse cx="36.9" cy="146.7" fill="#ADD1B2" rx="9.9" ry="9.9" style="stroke:#A80036;stroke-width:0.9;"/><path d="M38.7,143.55 Q38.8828,143.1 39.0938,142.875 Q39.3047,142.65 39.5438,142.65 Q39.9656,142.65 40.2328,142.9031 Q40.5,143.1563 40.5,143.7469 L40.5,145.1531 Q40.5,145.7438 40.2469,145.9969 Q39.9938,146.25 39.6,146.25 Q39.2484,146.25 39.0234,146.0953 Q38.7984,145.9406 38.7,145.5328 Q38.6578,145.2516 38.5031,145.0969 Q38.2219,144.8016 37.7156,144.6328 Q37.2094,144.45 36.7031,144.45 Q36.0703,144.45 35.5359,144.7031 Q35.0156,144.9563 34.6078,145.5188 Q34.2,146.0813 34.2,146.8547 L34.2,147.6844 Q34.2,148.6125 34.9594,149.2313 Q35.7188,149.85 37.0688,149.85 Q37.8703,149.85 38.4328,149.6672 Q38.7563,149.5688 39.1219,149.2453 Q39.3609,149.0625 39.4875,149.0063 Q39.6141,148.95 39.7688,148.95 Q40.0641,148.95 40.275,149.1891 Q40.5,149.4141 40.5,149.7375 Q40.5,150.0469 40.1906,150.4125 Q39.7406,150.9469 39.0234,151.2422 Q38.0813,151.65 36.9281,151.65 Q35.5781,151.65 34.4953,151.1156 Q33.6234,150.6938 33.0047,149.7797 Q32.4,148.8656 32.4,147.7828 L32.4,146.7984 Q32.4,145.6734 32.9344,144.6891 Q33.4828,143.7047 34.425,143.1844 Q35.3813,142.65 36.45,142.65 Q37.0969,142.65 37.6594,142.875 Q38.2219,143.1 38.7,143.55 Z " fill="#000000"/><text fill="#000000" font-family="sans-serif" font-size="10.8" lengthAdjust="spacing" textLength="130.5" x="49.5" y="151.1191">ClinicalAnalysisLaboratory</text><line style="stroke:#A80036;stroke-width:1.35;" x1="24.3" x2="181.8" y1="161.1" y2="161.1"/><text fill="#000000" font-family="sans-serif" font-size="9.9" lengthAdjust="spacing" textLength="61.2" x="28.8" y="174.9771">Laboratory ID;</text><text fill="#000000" font-family="sans-serif" font-size="9.9" lengthAdjust="spacing" textLength="27" x="28.8" y="187.4294">Name;</text><text fill="#000000" font-family="sans-serif" font-size="9.9" lengthAdjust="spacing" textLength="40.5" x="28.8" y="199.8817">Address;</text><text fill="#000000" font-family="sans-serif" font-size="9.9" lengthAdjust="spacing" textLength="65.7" x="28.8" y="212.3341">Phone Number;</text><text fill="#000000" font-family="sans-serif" font-size="9.9" lengthAdjust="spacing" textLength="51.3" x="28.8" y="224.7864">TIN number;</text><text fill="#000000" font-family="sans-serif" font-size="9.9" lengthAdjust="spacing" textLength="63" x="28.8" y="237.2388">Type of Tests;</text><line style="stroke:#A80036;stroke-width:1.35;" x1="24.3" x2="181.8" y1="243.0141" y2="243.0141"/><!--MD5=[da547346deef918ea16944ba046651ef]
class Administrator--><rect codeLine="14" fill="#FEFECE" filter="url(#f1eyz5rn0x7wuc)" height="43.2" id="Administrator" style="stroke:#A80036;stroke-width:1.35;" width="94.5" x="114.3" y="12.6"/><ellipse cx="127.8" cy="27" fill="#ADD1B2" rx="9.9" ry="9.9" style="stroke:#A80036;stroke-width:0.9;"/><path d="M129.6,23.85 Q129.7828,23.4 129.9938,23.175 Q130.2047,22.95 130.4438,22.95 Q130.8656,22.95 131.1328,23.2031 Q131.4,23.4563 131.4,24.0469 L131.4,25.4531 Q131.4,26.0438 131.1469,26.2969 Q130.8938,26.55 130.5,26.55 Q130.1484,26.55 129.9234,26.3953 Q129.6984,26.2406 129.6,25.8328 Q129.5578,25.5516 129.4031,25.3969 Q129.1219,25.1016 128.6156,24.9328 Q128.1094,24.75 127.6031,24.75 Q126.9703,24.75 126.4359,25.0031 Q125.9156,25.2563 125.5078,25.8188 Q125.1,26.3813 125.1,27.1547 L125.1,27.9844 Q125.1,28.9125 125.8594,29.5313 Q126.6188,30.15 127.9688,30.15 Q128.7703,30.15 129.3328,29.9672 Q129.6563,29.8688 130.0219,29.5453 Q130.2609,29.3625 130.3875,29.3063 Q130.5141,29.25 130.6688,29.25 Q130.9641,29.25 131.175,29.4891 Q131.4,29.7141 131.4,30.0375 Q131.4,30.3469 131.0906,30.7125 Q130.6406,31.2469 129.9234,31.5422 Q128.9813,31.95 127.8281,31.95 Q126.4781,31.95 125.3953,31.4156 Q124.5234,30.9938 123.9047,30.0797 Q123.3,29.1656 123.3,28.0828 L123.3,27.0984 Q123.3,25.9734 123.8344,24.9891 Q124.3828,24.0047 125.325,23.4844 Q126.2813,22.95 127.35,22.95 Q127.9969,22.95 128.5594,23.175 Q129.1219,23.4 129.6,23.85 Z " fill="#000000"/><text fill="#000000" font-family="sans-serif" font-size="10.8" lengthAdjust="spacing" textLength="65.7" x="140.4" y="31.4191">Administrator</text><line style="stroke:#A80036;stroke-width:1.35;" x1="115.2" x2="207.9" y1="41.4" y2="41.4"/><line style="stroke:#A80036;stroke-width:1.35;" x1="115.2" x2="207.9" y1="48.6" y2="48.6"/><!--MD5=[fdca102e342db1d5733f5f3c41f4f0c8]
class TypeTest--><rect codeLine="17" fill="#FEFECE" filter="url(#f1eyz5rn0x7wuc)" height="68.1047" id="TypeTest" style="stroke:#A80036;stroke-width:1.35;" width="89.1" x="58.5" y="320.4"/><ellipse cx="78.885" cy="334.8" fill="#ADD1B2" rx="9.9" ry="9.9" style="stroke:#A80036;stroke-width:0.9;"/><path d="M80.685,331.65 Q80.8678,331.2 81.0788,330.975 Q81.2897,330.75 81.5288,330.75 Q81.9506,330.75 82.2178,331.0031 Q82.485,331.2563 82.485,331.8469 L82.485,333.2531 Q82.485,333.8438 82.2319,334.0969 Q81.9788,334.35 81.585,334.35 Q81.2334,334.35 81.0084,334.1953 Q80.7834,334.0406 80.685,333.6328 Q80.6428,333.3516 80.4881,333.1969 Q80.2069,332.9016 79.7006,332.7328 Q79.1944,332.55 78.6881,332.55 Q78.0553,332.55 77.5209,332.8031 Q77.0006,333.0563 76.5928,333.6188 Q76.185,334.1813 76.185,334.9547 L76.185,335.7844 Q76.185,336.7125 76.9444,337.3313 Q77.7038,337.95 79.0538,337.95 Q79.8553,337.95 80.4178,337.7672 Q80.7413,337.6688 81.1069,337.3453 Q81.3459,337.1625 81.4725,337.1063 Q81.5991,337.05 81.7538,337.05 Q82.0491,337.05 82.26,337.2891 Q82.485,337.5141 82.485,337.8375 Q82.485,338.1469 82.1756,338.5125 Q81.7256,339.0469 81.0084,339.3422 Q80.0663,339.75 78.9131,339.75 Q77.5631,339.75 76.4803,339.2156 Q75.6084,338.7938 74.9897,337.8797 Q74.385,336.9656 74.385,335.8828 L74.385,334.8984 Q74.385,333.7734 74.9194,332.7891 Q75.4678,331.8047 76.41,331.2844 Q77.3663,330.75 78.435,330.75 Q79.0819,330.75 79.6444,330.975 Q80.2069,331.2 80.685,331.65 Z " fill="#000000"/><text fill="#000000" font-family="sans-serif" font-size="10.8" lengthAdjust="spacing" textLength="45" x="93.015" y="339.2191">TypeTest</text><line style="stroke:#A80036;stroke-width:1.35;" x1="59.4" x2="146.7" y1="349.2" y2="349.2"/><text fill="#000000" font-family="sans-serif" font-size="9.9" lengthAdjust="spacing" textLength="32.4" x="63.9" y="363.0771">Test ID;</text><text fill="#000000" font-family="sans-serif" font-size="9.9" lengthAdjust="spacing" textLength="78.3" x="63.9" y="375.5294">Collecting Method;</text><line style="stroke:#A80036;stroke-width:1.35;" x1="59.4" x2="146.7" y1="381.3047" y2="381.3047"/><!--MD5=[23b8a99c177c2cd6d714b2cbaa81b3c4]
link Administrator to ClinicalAnalysisLaboratory--><path codeLine="22" d="M153.657,56.034 C146.331,75.492 135.072,105.381 125.028,132.03 " fill="none" id="Administrator-ClinicalAnalysisLaboratory" style="stroke:#A80036;stroke-width:0.9;"/><polygon fill="#000000" points="143.7636,101.5693,149.1086,94.8838,144.1582,93.0189,143.7636,101.5693" style="stroke:#000000;stroke-width:0.9;"/><text fill="#000000" font-family="sans-serif" font-size="11.7" lengthAdjust="spacing" textLength="72.9" x="153.45" y="102.1456">register a new</text><text fill="#000000" font-family="sans-serif" font-size="11.7" lengthAdjust="spacing" textLength="6.3" x="144.6653" y="75.2952">1</text><text fill="#000000" font-family="sans-serif" font-size="11.7" lengthAdjust="spacing" textLength="6.3" x="120.7873" y="122.5275">1</text><!--MD5=[aafc5d8a5829a6a8d6dc892cb1ff5d24]
link Company to ClinicalAnalysisLaboratory--><path codeLine="23" d="M54.738,62.145 C62.01,81.432 72.054,108.09 81.108,132.111 " fill="none" id="Company-ClinicalAnalysisLaboratory" style="stroke:#A80036;stroke-width:0.9;"/><polygon fill="#000000" points="76.7371,101.5691,76.3411,93.0187,71.391,94.8844,76.7371,101.5691" style="stroke:#000000;stroke-width:0.9;"/><text fill="#000000" font-family="sans-serif" font-size="11.7" lengthAdjust="spacing" textLength="27" x="83.25" y="102.1456">owns</text><text fill="#000000" font-family="sans-serif" font-size="11.7" lengthAdjust="spacing" textLength="6.3" x="49.8236" y="81.2555">1</text><text fill="#000000" font-family="sans-serif" font-size="11.7" lengthAdjust="spacing" textLength="4.5" x="73.962" y="122.6173">*</text><!--MD5=[55bd4d525ab72a8b469004cd8122feba]
link ClinicalAnalysisLaboratory to TypeTest--><path codeLine="24" d="M103.05,250.245 C103.05,273.762 103.05,300.078 103.05,320.274 " fill="none" id="ClinicalAnalysisLaboratory-TypeTest" style="stroke:#A80036;stroke-width:0.9;"/><polygon fill="#000000" points="107.55,289.9582,110.195,281.8176,104.905,281.8176,107.55,289.9582" style="stroke:#000000;stroke-width:0.9;"/><text fill="#000000" font-family="sans-serif" font-size="11.7" lengthAdjust="spacing" textLength="45" x="115.65" y="290.2456">operates</text><text fill="#000000" font-family="sans-serif" font-size="11.7" lengthAdjust="spacing" textLength="6.3" x="96.4055" y="269.6472">1</text><text fill="#000000" font-family="sans-serif" font-size="11.7" lengthAdjust="spacing" textLength="4.5" x="98.1492" y="310.6773">*</text><!--MD5=[d99af9923974fdd2b97c6882b6fe62e0]
@startuml
class Company{
Name
}

class ClinicalAnalysisLaboratory{
Laboratory ID;
Name;
Address;
Phone Number;
TIN number;
Type of Tests;
}

class Administrator{
}

class TypeTest{
Test ID;
Collecting Method;
}

Administrator "1" - - "1" ClinicalAnalysisLaboratory : register a new >
Company "1" - - "*" ClinicalAnalysisLaboratory: owns >
ClinicalAnalysisLaboratory "1" - - "*" TypeTest : operates >

@enduml

PlantUML version 1.2021.00(Sun Jan 10 10:25:05 GMT 2021)
(GPL source distribution)
Java Runtime: OpenJDK Runtime Environment
JVM: OpenJDK 64-Bit Server VM
Default Encoding: Cp1252
Language: pt
Country: PT
--></g></svg>