<?xml version="1.0" encoding="UTF-8" standalone="no"?><svg xmlns="http://www.w3.org/2000/svg" xmlns:xlink="http://www.w3.org/1999/xlink" contentScriptType="application/ecmascript" contentStyleType="text/css" height="388.8px" preserveAspectRatio="none" style="width:362px;height:388px;" version="1.1" viewBox="0 0 362 388" width="362.4px" zoomAndPan="magnify"><defs><filter height="300%" id="fw70y65vvkdo5" width="300%" x="-1" y="-1"><feGaussianBlur result="blurOut" stdDeviation="1.6"/><feColorMatrix in="blurOut" result="blurOut2" type="matrix" values="0 0 0 0 0 0 0 0 0 0 0 0 0 0 0 0 0 0 .4 0"/><feOffset dx="3.2" dy="3.2" in="blurOut2" result="blurOut3"/><feBlend in="SourceGraphic" in2="blurOut3" mode="normal"/></filter></defs><g><rect fill="#FFFFFF" filter="url(#fw70y65vvkdo5)" height="226.8125" style="stroke:#A80036;stroke-width:0.8;" width="8" x="47.6" y="79.6875"/><rect fill="#FFFFFF" filter="url(#fw70y65vvkdo5)" height="37.3625" style="stroke:#A80036;stroke-width:0.8;" width="8" x="312.4" y="97.5688"/><rect fill="#FFFFFF" filter="url(#fw70y65vvkdo5)" height="44.5625" style="stroke:#A80036;stroke-width:0.8;" width="8" x="312.4" y="159.2125"/><rect fill="#FFFFFF" filter="url(#fw70y65vvkdo5)" height="29.8813" style="stroke:#A80036;stroke-width:0.8;" width="8" x="312.4" y="228.0563"/><rect fill="#FFFFFF" filter="url(#fw70y65vvkdo5)" height="24.2813" style="stroke:#A80036;stroke-width:0.8;" width="8" x="312.4" y="282.2188"/><rect fill="#FFFFFF" filter="url(#fw70y65vvkdo5)" height="63.2438" style="stroke:#000000;stroke-width:1.6;" width="343.6" x="8" y="171.2125"/><line style="stroke:#A80036;stroke-width:0.8;stroke-dasharray:5.0,5.0;" x1="51.2" x2="51.2" y1="71.6875" y2="320.9"/><line style="stroke:#A80036;stroke-width:0.8;stroke-dasharray:5.0,5.0;" x1="316.4" x2="316.4" y1="71.6875" y2="320.9"/><text fill="#000000" font-family="sans-serif" font-size="11.2" lengthAdjust="spacing" textLength="66.4" x="16" y="69.2266">Administrator</text><ellipse cx="51.6" cy="12" fill="#FEFECE" filter="url(#fw70y65vvkdo5)" rx="6.4" ry="6.4" style="stroke:#A80036;stroke-width:1.6;"/><path d="M51.6,18.4 L51.6,40 M41.2,24.8 L62,24.8 M51.6,40 L41.2,52 M51.6,40 L62,52 " fill="none" filter="url(#fw70y65vvkdo5)" style="stroke:#A80036;stroke-width:1.6;"/><text fill="#000000" font-family="sans-serif" font-size="11.2" lengthAdjust="spacing" textLength="66.4" x="16" y="331.7266">Administrator</text><ellipse cx="51.6" cy="342.1875" fill="#FEFECE" filter="url(#fw70y65vvkdo5)" rx="6.4" ry="6.4" style="stroke:#A80036;stroke-width:1.6;"/><path d="M51.6,348.5875 L51.6,370.1875 M41.2,354.9875 L62,354.9875 M51.6,370.1875 L41.2,382.1875 M51.6,370.1875 L62,382.1875 " fill="none" filter="url(#fw70y65vvkdo5)" style="stroke:#A80036;stroke-width:1.6;"/><rect fill="#FEFECE" filter="url(#fw70y65vvkdo5)" height="25.2875" style="stroke:#A80036;stroke-width:1.2000000000000002;" width="51.2" x="289.2" y="42.4"/><text fill="#000000" font-family="sans-serif" font-size="11.2" lengthAdjust="spacing" textLength="40" x="294.8" y="59.6266">:System</text><rect fill="#FEFECE" filter="url(#fw70y65vvkdo5)" height="25.2875" style="stroke:#A80036;stroke-width:1.2000000000000002;" width="51.2" x="289.2" y="320.1"/><text fill="#000000" font-family="sans-serif" font-size="11.2" lengthAdjust="spacing" textLength="40" x="294.8" y="337.3266">:System</text><rect fill="#FFFFFF" filter="url(#fw70y65vvkdo5)" height="226.8125" style="stroke:#A80036;stroke-width:0.8;" width="8" x="47.6" y="79.6875"/><rect fill="#FFFFFF" filter="url(#fw70y65vvkdo5)" height="37.3625" style="stroke:#A80036;stroke-width:0.8;" width="8" x="312.4" y="97.5688"/><rect fill="#FFFFFF" filter="url(#fw70y65vvkdo5)" height="44.5625" style="stroke:#A80036;stroke-width:0.8;" width="8" x="312.4" y="159.2125"/><rect fill="#FFFFFF" filter="url(#fw70y65vvkdo5)" height="29.8813" style="stroke:#A80036;stroke-width:0.8;" width="8" x="312.4" y="228.0563"/><rect fill="#FFFFFF" filter="url(#fw70y65vvkdo5)" height="24.2813" style="stroke:#A80036;stroke-width:0.8;" width="8" x="312.4" y="282.2188"/><polygon fill="#A80036" points="302.8,94.3688,310.8,97.5688,302.8,100.7688,306,97.5688" style="stroke:#A80036;stroke-width:0.8;"/><line style="stroke:#A80036;stroke-width:0.8;" x1="55.6" x2="307.6" y1="97.5688" y2="97.5688"/><text fill="#000000" font-family="sans-serif" font-size="10.4" font-weight="bold" lengthAdjust="spacing" textLength="5.6" x="61.2" y="93.6836">1</text><text fill="#000000" font-family="sans-serif" font-size="10.4" lengthAdjust="spacing" textLength="232.8" x="70" y="93.6836">wants to register a new clinical analysis laboratory</text><polygon fill="#A80036" points="64.4,131.7313,56.4,134.9313,64.4,138.1313,61.2,134.9313" style="stroke:#A80036;stroke-width:0.8;"/><line style="stroke:#A80036;stroke-width:0.8;stroke-dasharray:2.0,2.0;" x1="59.6" x2="315.6" y1="134.9313" y2="134.9313"/><text fill="#000000" font-family="sans-serif" font-size="10.4" font-weight="bold" lengthAdjust="spacing" textLength="5.6" x="69.2" y="124.5055">2</text><text fill="#000000" font-family="sans-serif" font-size="10.4" lengthAdjust="spacing" textLength="171.2" x="78" y="117.9648">requests data (labID, name, address,</text><text fill="#000000" font-family="sans-serif" font-size="10.4" lengthAdjust="spacing" textLength="120.8" x="81.2" y="131.0461">phoneNumber, tinNumber)</text><polygon fill="#A80036" points="302.8,156.0125,310.8,159.2125,302.8,162.4125,306,159.2125" style="stroke:#A80036;stroke-width:0.8;"/><line style="stroke:#A80036;stroke-width:0.8;" x1="55.6" x2="307.6" y1="159.2125" y2="159.2125"/><text fill="#000000" font-family="sans-serif" font-size="10.4" font-weight="bold" lengthAdjust="spacing" textLength="5.6" x="61.2" y="155.3273">3</text><text fill="#000000" font-family="sans-serif" font-size="10.4" lengthAdjust="spacing" textLength="97.6" x="70" y="155.3273">types requested data</text><path d="M8,171.2125 L66.4,171.2125 L66.4,177.6125 L58.4,185.6125 L8,185.6125 L8,171.2125 " fill="#EEEEEE" style="stroke:#000000;stroke-width:0.8;"/><rect fill="none" height="63.2438" style="stroke:#000000;stroke-width:1.6;" width="343.6" x="8" y="171.2125"/><text fill="#000000" font-family="sans-serif" font-size="10.4" font-weight="bold" lengthAdjust="spacing" textLength="22.4" x="20" y="182.8086">loop</text><polygon fill="#A80036" points="64.4,200.575,56.4,203.775,64.4,206.975,61.2,203.775" style="stroke:#A80036;stroke-width:0.8;"/><line style="stroke:#A80036;stroke-width:0.8;stroke-dasharray:2.0,2.0;" x1="59.6" x2="315.6" y1="203.775" y2="203.775"/><text fill="#000000" font-family="sans-serif" font-size="10.4" font-weight="bold" lengthAdjust="spacing" textLength="5.6" x="69.2" y="199.8898">4</text><text fill="#000000" font-family="sans-serif" font-size="10.4" lengthAdjust="spacing" textLength="107.2" x="78" y="199.8898">shows types of test list</text><polygon fill="#A80036" points="302.8,224.8563,310.8,228.0563,302.8,231.2563,306,228.0563" style="stroke:#A80036;stroke-width:0.8;"/><line style="stroke:#A80036;stroke-width:0.8;" x1="55.6" x2="307.6" y1="228.0563" y2="228.0563"/><text fill="#000000" font-family="sans-serif" font-size="10.4" font-weight="bold" lengthAdjust="spacing" textLength="5.6" x="61.2" y="224.1711">5</text><text fill="#000000" font-family="sans-serif" font-size="10.4" lengthAdjust="spacing" textLength="100" x="70" y="224.1711">selects types of tests</text><polygon fill="#A80036" points="64.4,254.7375,56.4,257.9375,64.4,261.1375,61.2,257.9375" style="stroke:#A80036;stroke-width:0.8;"/><line style="stroke:#A80036;stroke-width:0.8;stroke-dasharray:2.0,2.0;" x1="59.6" x2="315.6" y1="257.9375" y2="257.9375"/><text fill="#000000" font-family="sans-serif" font-size="10.4" font-weight="bold" lengthAdjust="spacing" textLength="5.6" x="69.2" y="254.0523">6</text><text fill="#000000" font-family="sans-serif" font-size="10.4" lengthAdjust="spacing" textLength="188.8" x="78" y="254.0523">shows all data and requests confirmation</text><polygon fill="#A80036" points="302.8,279.0188,310.8,282.2188,302.8,285.4188,306,282.2188" style="stroke:#A80036;stroke-width:0.8;"/><line style="stroke:#A80036;stroke-width:0.8;" x1="55.6" x2="307.6" y1="282.2188" y2="282.2188"/><text fill="#000000" font-family="sans-serif" font-size="10.4" font-weight="bold" lengthAdjust="spacing" textLength="5.6" x="61.2" y="278.3336">7</text><text fill="#000000" font-family="sans-serif" font-size="10.4" lengthAdjust="spacing" textLength="80" x="70" y="278.3336">confirms the data</text><polygon fill="#A80036" points="60.4,303.3,52.4,306.5,60.4,309.7,57.2,306.5" style="stroke:#A80036;stroke-width:0.8;"/><line style="stroke:#A80036;stroke-width:0.8;stroke-dasharray:2.0,2.0;" x1="55.6" x2="315.6" y1="306.5" y2="306.5"/><text fill="#000000" font-family="sans-serif" font-size="10.4" font-weight="bold" lengthAdjust="spacing" textLength="5.6" x="65.2" y="302.6148">8</text><text fill="#000000" font-family="sans-serif" font-size="10.4" lengthAdjust="spacing" textLength="121.6" x="74" y="302.6148">informs operation success</text><!--MD5=[d4e6ff6b1d312be9b4c3a4442a4143c3]
@startuml

autonumber
actor Administrator as A
participant ":System" as S
activate A
A -> S: wants to register a new clinical analysis laboratory
activate S
S - -> A: requests data (labID, name, address,\n phoneNumber, tinNumber)
deactivate S
A -> S: types requested data
activate S
loop
S - -> A: shows types of test list
deactivate S
A -> S: selects types of tests
activate S
end
S - -> A: shows all data and requests confirmation
deactivate S
A -> S: confirms the data
activate S
S - -> A: informs operation success
deactivate S
deactivate A
@enduml

PlantUML version 1.2021.00(Sun Jan 10 10:25:05 GMT 2021)
(GPL source distribution)
Java Runtime: OpenJDK Runtime Environment
JVM: OpenJDK 64-Bit Server VM
Default Encoding: Cp1252
Language: pt
Country: PT
--></g></svg>