<?xml version="1.0" encoding="UTF-8" standalone="no"?><svg xmlns="http://www.w3.org/2000/svg" xmlns:xlink="http://www.w3.org/1999/xlink" contentScriptType="application/ecmascript" contentStyleType="text/css" height="766px" preserveAspectRatio="none" style="width:350px;height:766px;" version="1.1" viewBox="0 0 350 766" width="350px" zoomAndPan="magnify"><defs><filter height="300%" id="ftvhwtumvpm30" width="300%" x="-1" y="-1"><feGaussianBlur result="blurOut" stdDeviation="2.0"/><feColorMatrix in="blurOut" result="blurOut2" type="matrix" values="0 0 0 0 0 0 0 0 0 0 0 0 0 0 0 0 0 0 .4 0"/><feOffset dx="4.0" dy="4.0" in="blurOut2" result="blurOut3"/><feBlend in="SourceGraphic" in2="blurOut3" mode="normal"/></filter></defs><g><!--MD5=[da547346deef918ea16944ba046651ef]
class Administrator--><rect codeLine="2" fill="#FEFECE" filter="url(#ftvhwtumvpm30)" height="48" id="Administrator" style="stroke:#A80036;stroke-width:1.5;" width="105" x="69" y="425"/><ellipse cx="84" cy="441" fill="#ADD1B2" rx="11" ry="11" style="stroke:#A80036;stroke-width:1.0;"/><path d="M86,437.5 Q86.2031,437 86.4375,436.75 Q86.6719,436.5 86.9375,436.5 Q87.4063,436.5 87.7031,436.7813 Q88,437.0625 88,437.7188 L88,439.2813 Q88,439.9375 87.7188,440.2188 Q87.4375,440.5 87,440.5 Q86.6094,440.5 86.3594,440.3281 Q86.1094,440.1563 86,439.7031 Q85.9531,439.3906 85.7813,439.2188 Q85.4688,438.8906 84.9063,438.7031 Q84.3438,438.5 83.7813,438.5 Q83.0781,438.5 82.4844,438.7813 Q81.9063,439.0625 81.4531,439.6875 Q81,440.3125 81,441.1719 L81,442.0938 Q81,443.125 81.8438,443.8125 Q82.6875,444.5 84.1875,444.5 Q85.0781,444.5 85.7031,444.2969 Q86.0625,444.1875 86.4688,443.8281 Q86.7344,443.625 86.875,443.5625 Q87.0156,443.5 87.1875,443.5 Q87.5156,443.5 87.75,443.7656 Q88,444.0156 88,444.375 Q88,444.7188 87.6563,445.125 Q87.1563,445.7188 86.3594,446.0469 Q85.3125,446.5 84.0313,446.5 Q82.5313,446.5 81.3281,445.9063 Q80.3594,445.4375 79.6719,444.4219 Q79,443.4063 79,442.2031 L79,441.1094 Q79,439.8594 79.5938,438.7656 Q80.2031,437.6719 81.25,437.0938 Q82.3125,436.5 83.5,436.5 Q84.2188,436.5 84.8438,436.75 Q85.4688,437 86,437.5 Z " fill="#000000"/><text fill="#000000" font-family="sans-serif" font-size="12" lengthAdjust="spacing" textLength="73" x="98" y="445.9102">Administrator</text><line style="stroke:#A80036;stroke-width:1.5;" x1="70" x2="173" y1="457" y2="457"/><line style="stroke:#A80036;stroke-width:1.5;" x1="70" x2="173" y1="465" y2="465"/><!--MD5=[7421f545a0d8420c5bec41e74b387d9c]
class Employee--><rect codeLine="4" fill="#FEFECE" filter="url(#ftvhwtumvpm30)" height="200.1953" id="Employee" style="stroke:#A80036;stroke-width:1.5;" width="229" x="7" y="147"/><ellipse cx="89.75" cy="163" fill="#ADD1B2" rx="11" ry="11" style="stroke:#A80036;stroke-width:1.0;"/><path d="M91.75,159.5 Q91.9531,159 92.1875,158.75 Q92.4219,158.5 92.6875,158.5 Q93.1563,158.5 93.4531,158.7813 Q93.75,159.0625 93.75,159.7188 L93.75,161.2813 Q93.75,161.9375 93.4688,162.2188 Q93.1875,162.5 92.75,162.5 Q92.3594,162.5 92.1094,162.3281 Q91.8594,162.1563 91.75,161.7031 Q91.7031,161.3906 91.5313,161.2188 Q91.2188,160.8906 90.6563,160.7031 Q90.0938,160.5 89.5313,160.5 Q88.8281,160.5 88.2344,160.7813 Q87.6563,161.0625 87.2031,161.6875 Q86.75,162.3125 86.75,163.1719 L86.75,164.0938 Q86.75,165.125 87.5938,165.8125 Q88.4375,166.5 89.9375,166.5 Q90.8281,166.5 91.4531,166.2969 Q91.8125,166.1875 92.2188,165.8281 Q92.4844,165.625 92.625,165.5625 Q92.7656,165.5 92.9375,165.5 Q93.2656,165.5 93.5,165.7656 Q93.75,166.0156 93.75,166.375 Q93.75,166.7188 93.4063,167.125 Q92.9063,167.7188 92.1094,168.0469 Q91.0625,168.5 89.7813,168.5 Q88.2813,168.5 87.0781,167.9063 Q86.1094,167.4375 85.4219,166.4219 Q84.75,165.4063 84.75,164.2031 L84.75,163.1094 Q84.75,161.8594 85.3438,160.7656 Q85.9531,159.6719 87,159.0938 Q88.0625,158.5 89.25,158.5 Q89.9688,158.5 90.5938,158.75 Q91.2188,159 91.75,159.5 Z " fill="#000000"/><text fill="#000000" font-family="sans-serif" font-size="12" lengthAdjust="spacing" textLength="55" x="110.25" y="167.9102">Employee</text><line style="stroke:#A80036;stroke-width:1.5;" x1="8" x2="235" y1="179" y2="179"/><text fill="#000000" font-family="sans-serif" font-size="11" lengthAdjust="spacing" textLength="61" x="13" y="194.4189">Employee ID;</text><text fill="#000000" font-family="sans-serif" font-size="11" lengthAdjust="spacing" textLength="88" x="13" y="208.2549">Organization Role;</text><text fill="#000000" font-family="sans-serif" font-size="11" lengthAdjust="spacing" textLength="30" x="13" y="222.0908">Name;</text><text fill="#000000" font-family="sans-serif" font-size="11" lengthAdjust="spacing" textLength="45" x="13" y="235.9268">Address;</text><text fill="#000000" font-family="sans-serif" font-size="11" lengthAdjust="spacing" textLength="73" x="13" y="249.7627">Phone Number;</text><text fill="#000000" font-family="sans-serif" font-size="11" lengthAdjust="spacing" textLength="31" x="13" y="263.5986">E-Mail;</text><text fill="#000000" font-family="sans-serif" font-size="11" lengthAdjust="spacing" textLength="217" x="13" y="277.4346">Standard Occupational Classification "soc";}</text><text fill="#000000" font-family="sans-serif" font-size="11" lengthAdjust="spacing" textLength="78" x="13" y="291.2705">class TypeTest{</text><text fill="#000000" font-family="sans-serif" font-size="11" lengthAdjust="spacing" textLength="36" x="13" y="305.1064">Test ID;</text><text fill="#000000" font-family="sans-serif" font-size="11" lengthAdjust="spacing" textLength="87" x="13" y="318.9424">Collecting Method;</text><text fill="#000000" font-family="sans-serif" font-size="11" lengthAdjust="spacing" textLength="104" x="13" y="332.7783">Parameter Categories</text><line style="stroke:#A80036;stroke-width:1.5;" x1="8" x2="235" y1="339.1953" y2="339.1953"/><!--MD5=[36afb6bbd95a8ac778c4537c55a683d5]
class ParameterCategory--><rect codeLine="18" fill="#FEFECE" filter="url(#ftvhwtumvpm30)" height="75.6719" id="ParameterCategory" style="stroke:#A80036;stroke-width:1.5;" width="139" x="126" y="677"/><ellipse cx="141" cy="693" fill="#ADD1B2" rx="11" ry="11" style="stroke:#A80036;stroke-width:1.0;"/><path d="M143,689.5 Q143.2031,689 143.4375,688.75 Q143.6719,688.5 143.9375,688.5 Q144.4063,688.5 144.7031,688.7813 Q145,689.0625 145,689.7188 L145,691.2813 Q145,691.9375 144.7188,692.2188 Q144.4375,692.5 144,692.5 Q143.6094,692.5 143.3594,692.3281 Q143.1094,692.1563 143,691.7031 Q142.9531,691.3906 142.7813,691.2188 Q142.4688,690.8906 141.9063,690.7031 Q141.3438,690.5 140.7813,690.5 Q140.0781,690.5 139.4844,690.7813 Q138.9063,691.0625 138.4531,691.6875 Q138,692.3125 138,693.1719 L138,694.0938 Q138,695.125 138.8438,695.8125 Q139.6875,696.5 141.1875,696.5 Q142.0781,696.5 142.7031,696.2969 Q143.0625,696.1875 143.4688,695.8281 Q143.7344,695.625 143.875,695.5625 Q144.0156,695.5 144.1875,695.5 Q144.5156,695.5 144.75,695.7656 Q145,696.0156 145,696.375 Q145,696.7188 144.6563,697.125 Q144.1563,697.7188 143.3594,698.0469 Q142.3125,698.5 141.0313,698.5 Q139.5313,698.5 138.3281,697.9063 Q137.3594,697.4375 136.6719,696.4219 Q136,695.4063 136,694.2031 L136,693.1094 Q136,691.8594 136.5938,690.7656 Q137.2031,689.6719 138.25,689.0938 Q139.3125,688.5 140.5,688.5 Q141.2188,688.5 141.8438,688.75 Q142.4688,689 143,689.5 Z " fill="#000000"/><text fill="#000000" font-family="sans-serif" font-size="12" lengthAdjust="spacing" textLength="107" x="155" y="697.9102">ParameterCategory</text><line style="stroke:#A80036;stroke-width:1.5;" x1="127" x2="264" y1="709" y2="709"/><text fill="#000000" font-family="sans-serif" font-size="11" lengthAdjust="spacing" textLength="59" x="132" y="724.4189">Designation;</text><text fill="#000000" font-family="sans-serif" font-size="11" lengthAdjust="spacing" textLength="28" x="132" y="738.2549">Code;</text><line style="stroke:#A80036;stroke-width:1.5;" x1="127" x2="264" y1="744.6719" y2="744.6719"/><!--MD5=[02e4b9b7573f1156f41e60aa5b4e25a4]
class Company--><rect codeLine="23" fill="#FEFECE" filter="url(#ftvhwtumvpm30)" height="61.8359" id="Company" style="stroke:#A80036;stroke-width:1.5;" width="85" x="163" y="7"/><ellipse cx="178" cy="23" fill="#ADD1B2" rx="11" ry="11" style="stroke:#A80036;stroke-width:1.0;"/><path d="M180,19.5 Q180.2031,19 180.4375,18.75 Q180.6719,18.5 180.9375,18.5 Q181.4063,18.5 181.7031,18.7813 Q182,19.0625 182,19.7188 L182,21.2813 Q182,21.9375 181.7188,22.2188 Q181.4375,22.5 181,22.5 Q180.6094,22.5 180.3594,22.3281 Q180.1094,22.1563 180,21.7031 Q179.9531,21.3906 179.7813,21.2188 Q179.4688,20.8906 178.9063,20.7031 Q178.3438,20.5 177.7813,20.5 Q177.0781,20.5 176.4844,20.7813 Q175.9063,21.0625 175.4531,21.6875 Q175,22.3125 175,23.1719 L175,24.0938 Q175,25.125 175.8438,25.8125 Q176.6875,26.5 178.1875,26.5 Q179.0781,26.5 179.7031,26.2969 Q180.0625,26.1875 180.4688,25.8281 Q180.7344,25.625 180.875,25.5625 Q181.0156,25.5 181.1875,25.5 Q181.5156,25.5 181.75,25.7656 Q182,26.0156 182,26.375 Q182,26.7188 181.6563,27.125 Q181.1563,27.7188 180.3594,28.0469 Q179.3125,28.5 178.0313,28.5 Q176.5313,28.5 175.3281,27.9063 Q174.3594,27.4375 173.6719,26.4219 Q173,25.4063 173,24.2031 L173,23.1094 Q173,21.8594 173.5938,20.7656 Q174.2031,19.6719 175.25,19.0938 Q176.3125,18.5 177.5,18.5 Q178.2188,18.5 178.8438,18.75 Q179.4688,19 180,19.5 Z " fill="#000000"/><text fill="#000000" font-family="sans-serif" font-size="12" lengthAdjust="spacing" textLength="53" x="192" y="27.9102">Company</text><line style="stroke:#A80036;stroke-width:1.5;" x1="164" x2="247" y1="39" y2="39"/><text fill="#000000" font-family="sans-serif" font-size="11" lengthAdjust="spacing" textLength="27" x="169" y="54.4189">Name</text><line style="stroke:#A80036;stroke-width:1.5;" x1="164" x2="247" y1="60.8359" y2="60.8359"/><!--MD5=[fdca102e342db1d5733f5f3c41f4f0c8]
class TypeTest--><rect fill="#FEFECE" filter="url(#ftvhwtumvpm30)" height="48" id="TypeTest" style="stroke:#A80036;stroke-width:1.5;" width="82" x="154.5" y="551"/><ellipse cx="169.5" cy="567" fill="#ADD1B2" rx="11" ry="11" style="stroke:#A80036;stroke-width:1.0;"/><path d="M171.5,563.5 Q171.7031,563 171.9375,562.75 Q172.1719,562.5 172.4375,562.5 Q172.9063,562.5 173.2031,562.7813 Q173.5,563.0625 173.5,563.7188 L173.5,565.2813 Q173.5,565.9375 173.2188,566.2188 Q172.9375,566.5 172.5,566.5 Q172.1094,566.5 171.8594,566.3281 Q171.6094,566.1563 171.5,565.7031 Q171.4531,565.3906 171.2813,565.2188 Q170.9688,564.8906 170.4063,564.7031 Q169.8438,564.5 169.2813,564.5 Q168.5781,564.5 167.9844,564.7813 Q167.4063,565.0625 166.9531,565.6875 Q166.5,566.3125 166.5,567.1719 L166.5,568.0938 Q166.5,569.125 167.3438,569.8125 Q168.1875,570.5 169.6875,570.5 Q170.5781,570.5 171.2031,570.2969 Q171.5625,570.1875 171.9688,569.8281 Q172.2344,569.625 172.375,569.5625 Q172.5156,569.5 172.6875,569.5 Q173.0156,569.5 173.25,569.7656 Q173.5,570.0156 173.5,570.375 Q173.5,570.7188 173.1563,571.125 Q172.6563,571.7188 171.8594,572.0469 Q170.8125,572.5 169.5313,572.5 Q168.0313,572.5 166.8281,571.9063 Q165.8594,571.4375 165.1719,570.4219 Q164.5,569.4063 164.5,568.2031 L164.5,567.1094 Q164.5,565.8594 165.0938,564.7656 Q165.7031,563.6719 166.75,563.0938 Q167.8125,562.5 169,562.5 Q169.7188,562.5 170.3438,562.75 Q170.9688,563 171.5,563.5 Z " fill="#000000"/><text fill="#000000" font-family="sans-serif" font-size="12" lengthAdjust="spacing" textLength="50" x="183.5" y="571.9102">TypeTest</text><line style="stroke:#A80036;stroke-width:1.5;" x1="155.5" x2="235.5" y1="583" y2="583"/><line style="stroke:#A80036;stroke-width:1.5;" x1="155.5" x2="235.5" y1="591" y2="591"/><!--MD5=[b8a4f1f13c2d56b2385b1bfafed8418f]
link Employee to Administrator--><path codeLine="26" d="M121.5,347.12 C121.5,376.2 121.5,405.37 121.5,424.81 " fill="none" id="Employee-Administrator" style="stroke:#A80036;stroke-width:1.0;"/><polygon fill="#000000" points="126.5,391.1758,129.4389,382.1307,123.5611,382.1307,126.5,391.1758" style="stroke:#000000;stroke-width:1.0;"/><text fill="#000000" font-family="sans-serif" font-size="13" lengthAdjust="spacing" textLength="50" x="135.5" y="391.4951">can be a</text><text fill="#000000" font-family="sans-serif" font-size="13" lengthAdjust="spacing" textLength="7" x="114.243" y="368.5609">1</text><text fill="#000000" font-family="sans-serif" font-size="13" lengthAdjust="spacing" textLength="7" x="113.6031" y="414.1015">1</text><!--MD5=[09366576ee87d48d594df10cacc83f45]
link Company to Employee--><path codeLine="27" d="M193.29,69.1 C184.91,89.73 173.29,118.38 161.83,146.62 " fill="none" id="Company-Employee" style="stroke:#A80036;stroke-width:1.0;"/><polygon fill="#000000" points="183.6198,112.8088,189.7443,105.5328,184.2979,103.3224,183.6198,112.8088" style="stroke:#000000;stroke-width:1.0;"/><text fill="#000000" font-family="sans-serif" font-size="13" lengthAdjust="spacing" textLength="49" x="194.5" y="113.4951">employs</text><text fill="#000000" font-family="sans-serif" font-size="13" lengthAdjust="spacing" textLength="7" x="183.1971" y="90.3437">1</text><text fill="#000000" font-family="sans-serif" font-size="13" lengthAdjust="spacing" textLength="5" x="159.6081" y="136.1617">*</text><!--MD5=[93b4f25fb503a8e0e9a46b1d30ff3f44]
link Company to ParameterCategory--><path codeLine="28" d="M233.04,69.09 C240.22,78.19 247.38,88.54 252.5,99 C282.14,159.5 289.5,178.63 289.5,246 C289.5,246 289.5,246 289.5,576 C289.5,615.13 263.36,651.37 238.65,676.88 " fill="none" id="Company-ParameterCategory" style="stroke:#A80036;stroke-width:1.0;"/><polygon fill="#000000" points="294.5461,454.1756,297.4015,445.1037,291.5239,445.158,294.5461,454.1756" style="stroke:#000000;stroke-width:1.0;"/><text fill="#000000" font-family="sans-serif" font-size="13" lengthAdjust="spacing" textLength="39" x="303.5" y="454.4951">adopts</text><text fill="#000000" font-family="sans-serif" font-size="13" lengthAdjust="spacing" textLength="7" x="230.7729" y="90.3317">1</text><text fill="#000000" font-family="sans-serif" font-size="13" lengthAdjust="spacing" textLength="5" x="240.8908" y="666.2205">*</text><!--MD5=[7144ffdeebbe38808f7fb2ce8ac24f7d]
link Administrator to ParameterCategory--><path codeLine="29" d="M105.35,473.03 C86.61,502.79 60.44,555.92 78.5,599 C91.5,629.99 117.37,656.85 141.49,676.8 " fill="none" id="Administrator-ParameterCategory" style="stroke:#A80036;stroke-width:1.0;"/><polygon fill="#000000" points="84.3732,580.099,85.6874,570.6796,79.8998,571.7061,84.3732,580.099" style="stroke:#000000;stroke-width:1.0;"/><text fill="#000000" font-family="sans-serif" font-size="13" lengthAdjust="spacing" textLength="43" x="92.5" y="580.4951">creates</text><text fill="#000000" font-family="sans-serif" font-size="13" lengthAdjust="spacing" textLength="7" x="93.5603" y="494.3753">1</text><text fill="#000000" font-family="sans-serif" font-size="13" lengthAdjust="spacing" textLength="5" x="126.4242" y="666.1263">*</text><!--MD5=[eda2dcc92ede9f39be22fad1b2202bd5]
link Administrator to TypeTest--><path codeLine="30" d="M135.25,473.03 C148.45,495.17 168.31,528.44 181.58,550.67 " fill="none" id="Administrator-TypeTest" style="stroke:#A80036;stroke-width:1.0;"/><polygon fill="#000000" points="170.0621,516.4694,167.9509,507.1962,162.9034,510.2081,170.0621,516.4694" style="stroke:#000000;stroke-width:1.0;"/><text fill="#000000" font-family="sans-serif" font-size="13" lengthAdjust="spacing" textLength="43" x="176.5" y="517.4951">creates</text><text fill="#000000" font-family="sans-serif" font-size="13" lengthAdjust="spacing" textLength="7" x="130.7484" y="494.3753">1</text><text fill="#000000" font-family="sans-serif" font-size="13" lengthAdjust="spacing" textLength="5" x="172.5776" y="540.3275">*</text><!--MD5=[fc4f40f3276b989768e26d9d7b339728]
link TypeTest to ParameterCategory--><path codeLine="31" d="M195.5,599.1 C195.5,620.28 195.5,652.01 195.5,676.77 " fill="none" id="TypeTest-ParameterCategory" style="stroke:#A80036;stroke-width:1.0;"/><polygon fill="#000000" points="200.5,643.1758,203.4389,634.1307,197.5611,634.1307,200.5,643.1758" style="stroke:#000000;stroke-width:1.0;"/><text fill="#000000" font-family="sans-serif" font-size="13" lengthAdjust="spacing" textLength="21" x="209.5" y="643.4951">has</text><text fill="#000000" font-family="sans-serif" font-size="13" lengthAdjust="spacing" textLength="7" x="187.6469" y="620.4623">1</text><text fill="#000000" font-family="sans-serif" font-size="13" lengthAdjust="spacing" textLength="5" x="190.0547" y="666.0909">*</text><!--MD5=[e0ce0e94633af4f5381375f0f0ec88b3]
@startuml

class Administrator{
}
class Employee {
Employee ID;
Organization Role;
Name;
Address;
Phone Number;
E-Mail;
Standard Occupational Classification "soc";}
class TypeTest{
Test ID;
Collecting Method;
Parameter Categories
}

class ParameterCategory{
Designation;
Code;

}
class Company{
Name
}
Employee "1" - - "1"Administrator: can be a >
Company "1" - - "*" Employee: employs >
Company "1" - - "*" ParameterCategory : adopts >
Administrator "1" - - "*" ParameterCategory : creates >
Administrator "1" - - "*" TypeTest: creates >
TypeTest "1" - - "*" ParameterCategory: has >



@enduml

PlantUML version 1.2021.00(Sun Jan 10 10:25:05 GMT 2021)
(GPL source distribution)
Java Runtime: OpenJDK Runtime Environment
JVM: OpenJDK 64-Bit Server VM
Default Encoding: Cp1252
Language: pt
Country: PT
--></g></svg>