<?xml version="1.0" encoding="UTF-8" standalone="no"?><svg xmlns="http://www.w3.org/2000/svg" xmlns:xlink="http://www.w3.org/1999/xlink" contentScriptType="application/ecmascript" contentStyleType="text/css" height="730px" preserveAspectRatio="none" style="width:609px;height:730px;" version="1.1" viewBox="0 0 609 730" width="609px" zoomAndPan="magnify"><defs><filter height="300%" id="fmvnmfuhaihfy" width="300%" x="-1" y="-1"><feGaussianBlur result="blurOut" stdDeviation="2.0"/><feColorMatrix in="blurOut" result="blurOut2" type="matrix" values="0 0 0 0 0 0 0 0 0 0 0 0 0 0 0 0 0 0 .4 0"/><feOffset dx="4.0" dy="4.0" in="blurOut2" result="blurOut3"/><feBlend in="SourceGraphic" in2="blurOut3" mode="normal"/></filter></defs><g><!--MD5=[bebdcc43ebcb1534ee764d1f430c03ae]
class CreateTestTypeUI--><rect codeLine="2" fill="#FEFECE" filter="url(#fmvnmfuhaihfy)" height="48" id="CreateTestTypeUI" style="stroke:#A80036;stroke-width:1.5;" width="131" x="300.5" y="7"/><ellipse cx="315.5" cy="23" fill="#ADD1B2" rx="11" ry="11" style="stroke:#A80036;stroke-width:1.0;"/><path d="M317.5,19.5 Q317.7031,19 317.9375,18.75 Q318.1719,18.5 318.4375,18.5 Q318.9063,18.5 319.2031,18.7813 Q319.5,19.0625 319.5,19.7188 L319.5,21.2813 Q319.5,21.9375 319.2188,22.2188 Q318.9375,22.5 318.5,22.5 Q318.1094,22.5 317.8594,22.3281 Q317.6094,22.1563 317.5,21.7031 Q317.4531,21.3906 317.2813,21.2188 Q316.9688,20.8906 316.4063,20.7031 Q315.8438,20.5 315.2813,20.5 Q314.5781,20.5 313.9844,20.7813 Q313.4063,21.0625 312.9531,21.6875 Q312.5,22.3125 312.5,23.1719 L312.5,24.0938 Q312.5,25.125 313.3438,25.8125 Q314.1875,26.5 315.6875,26.5 Q316.5781,26.5 317.2031,26.2969 Q317.5625,26.1875 317.9688,25.8281 Q318.2344,25.625 318.375,25.5625 Q318.5156,25.5 318.6875,25.5 Q319.0156,25.5 319.25,25.7656 Q319.5,26.0156 319.5,26.375 Q319.5,26.7188 319.1563,27.125 Q318.6563,27.7188 317.8594,28.0469 Q316.8125,28.5 315.5313,28.5 Q314.0313,28.5 312.8281,27.9063 Q311.8594,27.4375 311.1719,26.4219 Q310.5,25.4063 310.5,24.2031 L310.5,23.1094 Q310.5,21.8594 311.0938,20.7656 Q311.7031,19.6719 312.75,19.0938 Q313.8125,18.5 315,18.5 Q315.7188,18.5 316.3438,18.75 Q316.9688,19 317.5,19.5 Z " fill="#000000"/><text fill="#000000" font-family="sans-serif" font-size="12" lengthAdjust="spacing" textLength="99" x="329.5" y="27.9102">CreateTestTypeUI</text><line style="stroke:#A80036;stroke-width:1.5;" x1="301.5" x2="430.5" y1="39" y2="39"/><line style="stroke:#A80036;stroke-width:1.5;" x1="301.5" x2="430.5" y1="47" y2="47"/><!--MD5=[2c845ebea24388d268f5a9acbeca4fd9]
class CreateTestTypeController--><rect codeLine="5" fill="#FEFECE" filter="url(#fmvnmfuhaihfy)" height="103.3438" id="CreateTestTypeController" style="stroke:#A80036;stroke-width:1.5;" width="330" x="201" y="116"/><ellipse cx="291.25" cy="132" fill="#ADD1B2" rx="11" ry="11" style="stroke:#A80036;stroke-width:1.0;"/><path d="M293.25,128.5 Q293.4531,128 293.6875,127.75 Q293.9219,127.5 294.1875,127.5 Q294.6563,127.5 294.9531,127.7813 Q295.25,128.0625 295.25,128.7188 L295.25,130.2813 Q295.25,130.9375 294.9688,131.2188 Q294.6875,131.5 294.25,131.5 Q293.8594,131.5 293.6094,131.3281 Q293.3594,131.1563 293.25,130.7031 Q293.2031,130.3906 293.0313,130.2188 Q292.7188,129.8906 292.1563,129.7031 Q291.5938,129.5 291.0313,129.5 Q290.3281,129.5 289.7344,129.7813 Q289.1563,130.0625 288.7031,130.6875 Q288.25,131.3125 288.25,132.1719 L288.25,133.0938 Q288.25,134.125 289.0938,134.8125 Q289.9375,135.5 291.4375,135.5 Q292.3281,135.5 292.9531,135.2969 Q293.3125,135.1875 293.7188,134.8281 Q293.9844,134.625 294.125,134.5625 Q294.2656,134.5 294.4375,134.5 Q294.7656,134.5 295,134.7656 Q295.25,135.0156 295.25,135.375 Q295.25,135.7188 294.9063,136.125 Q294.4063,136.7188 293.6094,137.0469 Q292.5625,137.5 291.2813,137.5 Q289.7813,137.5 288.5781,136.9063 Q287.6094,136.4375 286.9219,135.4219 Q286.25,134.4063 286.25,133.2031 L286.25,132.1094 Q286.25,130.8594 286.8438,129.7656 Q287.4531,128.6719 288.5,128.0938 Q289.5625,127.5 290.75,127.5 Q291.4688,127.5 292.0938,127.75 Q292.7188,128 293.25,128.5 Z " fill="#000000"/><text fill="#000000" font-family="sans-serif" font-size="12" lengthAdjust="spacing" textLength="141" x="311.75" y="136.9102">CreateTestTypeController</text><line style="stroke:#A80036;stroke-width:1.5;" x1="202" x2="530" y1="148" y2="148"/><line style="stroke:#A80036;stroke-width:1.5;" x1="202" x2="530" y1="156" y2="156"/><ellipse cx="212" cy="167" fill="#84BE84" rx="3" ry="3" style="stroke:#038048;stroke-width:1.0;"/><text fill="#000000" font-family="sans-serif" font-size="11" lengthAdjust="spacing" textLength="304" x="221" y="171.4189">CreateTestType(testID, collectingMethod, description, catStore)</text><ellipse cx="212" cy="180.8359" fill="#84BE84" rx="3" ry="3" style="stroke:#038048;stroke-width:1.0;"/><text fill="#000000" font-family="sans-serif" font-size="11" lengthAdjust="spacing" textLength="142" x="221" y="185.2549">getParameterCategoryStore()</text><ellipse cx="212" cy="194.6719" fill="#84BE84" rx="3" ry="3" style="stroke:#038048;stroke-width:1.0;"/><text fill="#000000" font-family="sans-serif" font-size="11" lengthAdjust="spacing" textLength="77" x="221" y="199.0908">saveTestType()</text><ellipse cx="212" cy="208.5078" fill="#84BE84" rx="3" ry="3" style="stroke:#038048;stroke-width:1.0;"/><text fill="#000000" font-family="sans-serif" font-size="11" lengthAdjust="spacing" textLength="67" x="221" y="212.9268">add(catStore)</text><!--MD5=[02e4b9b7573f1156f41e60aa5b4e25a4]
class Company--><rect codeLine="12" fill="#FEFECE" filter="url(#fmvnmfuhaihfy)" height="89.5078" id="Company" style="stroke:#A80036;stroke-width:1.5;" width="184" x="274" y="280"/><ellipse cx="335.25" cy="296" fill="#ADD1B2" rx="11" ry="11" style="stroke:#A80036;stroke-width:1.0;"/><path d="M337.25,292.5 Q337.4531,292 337.6875,291.75 Q337.9219,291.5 338.1875,291.5 Q338.6563,291.5 338.9531,291.7813 Q339.25,292.0625 339.25,292.7188 L339.25,294.2813 Q339.25,294.9375 338.9688,295.2188 Q338.6875,295.5 338.25,295.5 Q337.8594,295.5 337.6094,295.3281 Q337.3594,295.1563 337.25,294.7031 Q337.2031,294.3906 337.0313,294.2188 Q336.7188,293.8906 336.1563,293.7031 Q335.5938,293.5 335.0313,293.5 Q334.3281,293.5 333.7344,293.7813 Q333.1563,294.0625 332.7031,294.6875 Q332.25,295.3125 332.25,296.1719 L332.25,297.0938 Q332.25,298.125 333.0938,298.8125 Q333.9375,299.5 335.4375,299.5 Q336.3281,299.5 336.9531,299.2969 Q337.3125,299.1875 337.7188,298.8281 Q337.9844,298.625 338.125,298.5625 Q338.2656,298.5 338.4375,298.5 Q338.7656,298.5 339,298.7656 Q339.25,299.0156 339.25,299.375 Q339.25,299.7188 338.9063,300.125 Q338.4063,300.7188 337.6094,301.0469 Q336.5625,301.5 335.2813,301.5 Q333.7813,301.5 332.5781,300.9063 Q331.6094,300.4375 330.9219,299.4219 Q330.25,298.4063 330.25,297.2031 L330.25,296.1094 Q330.25,294.8594 330.8438,293.7656 Q331.4531,292.6719 332.5,292.0938 Q333.5625,291.5 334.75,291.5 Q335.4688,291.5 336.0938,291.75 Q336.7188,292 337.25,292.5 Z " fill="#000000"/><text fill="#000000" font-family="sans-serif" font-size="12" lengthAdjust="spacing" textLength="53" x="355.75" y="300.9102">Company</text><line style="stroke:#A80036;stroke-width:1.5;" x1="275" x2="457" y1="312" y2="312"/><rect fill="none" height="6" style="stroke:#C82930;stroke-width:1.0;" width="6" x="282" y="320"/><text fill="#000000" font-family="sans-serif" font-size="11" lengthAdjust="spacing" textLength="55" x="294" y="327.4189">designation</text><line style="stroke:#A80036;stroke-width:1.5;" x1="275" x2="457" y1="333.8359" y2="333.8359"/><ellipse cx="285" cy="344.8359" fill="#84BE84" rx="3" ry="3" style="stroke:#038048;stroke-width:1.0;"/><text fill="#000000" font-family="sans-serif" font-size="11" lengthAdjust="spacing" textLength="158" x="294" y="349.2549">createParameterCategoryStore()</text><ellipse cx="285" cy="358.6719" fill="#84BE84" rx="3" ry="3" style="stroke:#038048;stroke-width:1.0;"/><text fill="#000000" font-family="sans-serif" font-size="11" lengthAdjust="spacing" textLength="110" x="294" y="363.0908">createTestTypeStore()</text><!--MD5=[6ba72ddf03822b91e8d41ca71de58ed3]
class TestTypeStore--><rect codeLine="18" fill="#FEFECE" filter="url(#fmvnmfuhaihfy)" height="89.5078" id="TestTypeStore" style="stroke:#A80036;stroke-width:1.5;" width="330" x="56" y="431"/><ellipse cx="177.25" cy="447" fill="#ADD1B2" rx="11" ry="11" style="stroke:#A80036;stroke-width:1.0;"/><path d="M179.25,443.5 Q179.4531,443 179.6875,442.75 Q179.9219,442.5 180.1875,442.5 Q180.6563,442.5 180.9531,442.7813 Q181.25,443.0625 181.25,443.7188 L181.25,445.2813 Q181.25,445.9375 180.9688,446.2188 Q180.6875,446.5 180.25,446.5 Q179.8594,446.5 179.6094,446.3281 Q179.3594,446.1563 179.25,445.7031 Q179.2031,445.3906 179.0313,445.2188 Q178.7188,444.8906 178.1563,444.7031 Q177.5938,444.5 177.0313,444.5 Q176.3281,444.5 175.7344,444.7813 Q175.1563,445.0625 174.7031,445.6875 Q174.25,446.3125 174.25,447.1719 L174.25,448.0938 Q174.25,449.125 175.0938,449.8125 Q175.9375,450.5 177.4375,450.5 Q178.3281,450.5 178.9531,450.2969 Q179.3125,450.1875 179.7188,449.8281 Q179.9844,449.625 180.125,449.5625 Q180.2656,449.5 180.4375,449.5 Q180.7656,449.5 181,449.7656 Q181.25,450.0156 181.25,450.375 Q181.25,450.7188 180.9063,451.125 Q180.4063,451.7188 179.6094,452.0469 Q178.5625,452.5 177.2813,452.5 Q175.7813,452.5 174.5781,451.9063 Q173.6094,451.4375 172.9219,450.4219 Q172.25,449.4063 172.25,448.2031 L172.25,447.1094 Q172.25,445.8594 172.8438,444.7656 Q173.4531,443.6719 174.5,443.0938 Q175.5625,442.5 176.75,442.5 Q177.4688,442.5 178.0938,442.75 Q178.7188,443 179.25,443.5 Z " fill="#000000"/><text fill="#000000" font-family="sans-serif" font-size="12" lengthAdjust="spacing" textLength="79" x="197.75" y="451.9102">TestTypeStore</text><line style="stroke:#A80036;stroke-width:1.5;" x1="57" x2="385" y1="463" y2="463"/><line style="stroke:#A80036;stroke-width:1.5;" x1="57" x2="385" y1="471" y2="471"/><ellipse cx="67" cy="482" fill="#84BE84" rx="3" ry="3" style="stroke:#038048;stroke-width:1.0;"/><text fill="#000000" font-family="sans-serif" font-size="11" lengthAdjust="spacing" textLength="304" x="76" y="486.4189">CreateTestType(testID, collectingMethod, description, catStore)</text><ellipse cx="67" cy="495.8359" fill="#84BE84" rx="3" ry="3" style="stroke:#038048;stroke-width:1.0;"/><text fill="#000000" font-family="sans-serif" font-size="11" lengthAdjust="spacing" textLength="95" x="76" y="500.2549">ValidateTestType(t)</text><ellipse cx="67" cy="509.6719" fill="#84BE84" rx="3" ry="3" style="stroke:#038048;stroke-width:1.0;"/><text fill="#000000" font-family="sans-serif" font-size="11" lengthAdjust="spacing" textLength="80" x="76" y="514.0908">saveTestType(t)</text><!--MD5=[aeb3272166074d8737a70b61b1e71682]
class TestType--><rect codeLine="24" fill="#FEFECE" filter="url(#fmvnmfuhaihfy)" height="117.1797" id="TestType" style="stroke:#A80036;stroke-width:1.5;" width="298" x="7" y="599"/><ellipse cx="126.75" cy="615" fill="#ADD1B2" rx="11" ry="11" style="stroke:#A80036;stroke-width:1.0;"/><path d="M128.75,611.5 Q128.9531,611 129.1875,610.75 Q129.4219,610.5 129.6875,610.5 Q130.1563,610.5 130.4531,610.7813 Q130.75,611.0625 130.75,611.7188 L130.75,613.2813 Q130.75,613.9375 130.4688,614.2188 Q130.1875,614.5 129.75,614.5 Q129.3594,614.5 129.1094,614.3281 Q128.8594,614.1563 128.75,613.7031 Q128.7031,613.3906 128.5313,613.2188 Q128.2188,612.8906 127.6563,612.7031 Q127.0938,612.5 126.5313,612.5 Q125.8281,612.5 125.2344,612.7813 Q124.6563,613.0625 124.2031,613.6875 Q123.75,614.3125 123.75,615.1719 L123.75,616.0938 Q123.75,617.125 124.5938,617.8125 Q125.4375,618.5 126.9375,618.5 Q127.8281,618.5 128.4531,618.2969 Q128.8125,618.1875 129.2188,617.8281 Q129.4844,617.625 129.625,617.5625 Q129.7656,617.5 129.9375,617.5 Q130.2656,617.5 130.5,617.7656 Q130.75,618.0156 130.75,618.375 Q130.75,618.7188 130.4063,619.125 Q129.9063,619.7188 129.1094,620.0469 Q128.0625,620.5 126.7813,620.5 Q125.2813,620.5 124.0781,619.9063 Q123.1094,619.4375 122.4219,618.4219 Q121.75,617.4063 121.75,616.2031 L121.75,615.1094 Q121.75,613.8594 122.3438,612.7656 Q122.9531,611.6719 124,611.0938 Q125.0625,610.5 126.25,610.5 Q126.9688,610.5 127.5938,610.75 Q128.2188,611 128.75,611.5 Z " fill="#000000"/><text fill="#000000" font-family="sans-serif" font-size="12" lengthAdjust="spacing" textLength="50" x="147.25" y="619.9102">TestType</text><line style="stroke:#A80036;stroke-width:1.5;" x1="8" x2="304" y1="631" y2="631"/><rect fill="none" height="6" style="stroke:#C82930;stroke-width:1.0;" width="6" x="15" y="639"/><text fill="#000000" font-family="sans-serif" font-size="11" lengthAdjust="spacing" textLength="64" x="27" y="646.4189">String testeID</text><rect fill="none" height="6" style="stroke:#C82930;stroke-width:1.0;" width="6" x="15" y="652.8359"/><text fill="#000000" font-family="sans-serif" font-size="11" lengthAdjust="spacing" textLength="111" x="27" y="660.2549">String collectingMethod</text><rect fill="none" height="6" style="stroke:#C82930;stroke-width:1.0;" width="6" x="15" y="666.6719"/><text fill="#000000" font-family="sans-serif" font-size="11" lengthAdjust="spacing" textLength="84" x="27" y="674.0908">String description</text><rect fill="none" height="6" style="stroke:#C82930;stroke-width:1.0;" width="6" x="15" y="680.5078"/><text fill="#000000" font-family="sans-serif" font-size="11" lengthAdjust="spacing" textLength="163" x="27" y="687.9268">ParameterCategoryStore catStore</text><line style="stroke:#A80036;stroke-width:1.5;" x1="8" x2="304" y1="694.3438" y2="694.3438"/><ellipse cx="18" cy="705.3438" fill="#84BE84" rx="3" ry="3" style="stroke:#038048;stroke-width:1.0;"/><text fill="#000000" font-family="sans-serif" font-size="11" lengthAdjust="spacing" textLength="272" x="27" y="709.7627">TestType(testID, collectingMethod, description, catStore)</text><!--MD5=[d802db621b5b215a6f0466f93cefcb42]
class ParameterCategoryStore--><rect codeLine="32" fill="#FEFECE" filter="url(#fmvnmfuhaihfy)" height="61.8359" id="ParameterCategoryStore" style="stroke:#A80036;stroke-width:1.5;" width="168" x="427" y="626.5"/><ellipse cx="442" cy="642.5" fill="#ADD1B2" rx="11" ry="11" style="stroke:#A80036;stroke-width:1.0;"/><path d="M444,639 Q444.2031,638.5 444.4375,638.25 Q444.6719,638 444.9375,638 Q445.4063,638 445.7031,638.2813 Q446,638.5625 446,639.2188 L446,640.7813 Q446,641.4375 445.7188,641.7188 Q445.4375,642 445,642 Q444.6094,642 444.3594,641.8281 Q444.1094,641.6563 444,641.2031 Q443.9531,640.8906 443.7813,640.7188 Q443.4688,640.3906 442.9063,640.2031 Q442.3438,640 441.7813,640 Q441.0781,640 440.4844,640.2813 Q439.9063,640.5625 439.4531,641.1875 Q439,641.8125 439,642.6719 L439,643.5938 Q439,644.625 439.8438,645.3125 Q440.6875,646 442.1875,646 Q443.0781,646 443.7031,645.7969 Q444.0625,645.6875 444.4688,645.3281 Q444.7344,645.125 444.875,645.0625 Q445.0156,645 445.1875,645 Q445.5156,645 445.75,645.2656 Q446,645.5156 446,645.875 Q446,646.2188 445.6563,646.625 Q445.1563,647.2188 444.3594,647.5469 Q443.3125,648 442.0313,648 Q440.5313,648 439.3281,647.4063 Q438.3594,646.9375 437.6719,645.9219 Q437,644.9063 437,643.7031 L437,642.6094 Q437,641.3594 437.5938,640.2656 Q438.2031,639.1719 439.25,638.5938 Q440.3125,638 441.5,638 Q442.2188,638 442.8438,638.25 Q443.4688,638.5 444,639 Z " fill="#000000"/><text fill="#000000" font-family="sans-serif" font-size="12" lengthAdjust="spacing" textLength="136" x="456" y="647.4102">ParameterCategoryStore</text><line style="stroke:#A80036;stroke-width:1.5;" x1="428" x2="594" y1="658.5" y2="658.5"/><line style="stroke:#A80036;stroke-width:1.5;" x1="428" x2="594" y1="666.5" y2="666.5"/><ellipse cx="438" cy="677.5" fill="#84BE84" rx="3" ry="3" style="stroke:#038048;stroke-width:1.0;"/><text fill="#000000" font-family="sans-serif" font-size="11" lengthAdjust="spacing" textLength="142" x="447" y="681.9189">getParameterCategoryStore()</text><!--MD5=[69134a8957932d955e1f822b15ec4b1c]
link CreateTestTypeUI to CreateTestTypeController--><path codeLine="36" d="M366,55.12 C366,70.36 366,91.02 366,110.4 " fill="none" id="CreateTestTypeUI-to-CreateTestTypeController" style="stroke:#A80036;stroke-width:1.0;stroke-dasharray:7.0,7.0;"/><polygon fill="#A80036" points="366,115.83,370,106.83,366,110.83,362,106.83,366,115.83" style="stroke:#A80036;stroke-width:1.0;"/><!--MD5=[812ef8251b528d1a64980212cceda9f5]
link CreateTestTypeController to Company--><path codeLine="37" d="M366,219.42 C366,237.08 366,256.84 366,274.39 " fill="none" id="CreateTestTypeController-to-Company" style="stroke:#A80036;stroke-width:1.0;stroke-dasharray:7.0,7.0;"/><polygon fill="#A80036" points="366,279.76,370.0257,270.7715,366.0143,274.76,362.0257,270.7486,366,279.76" style="stroke:#A80036;stroke-width:1.0;"/><!--MD5=[141c3afa12b2b3c0a39ffce56dbd5f19]
link Company to TestTypeStore--><path codeLine="38" d="M322.89,370.3 C305.44,388.24 285.25,408.98 267.47,427.25 " fill="none" id="Company-to-TestTypeStore" style="stroke:#A80036;stroke-width:1.0;stroke-dasharray:7.0,7.0;"/><polygon fill="#A80036" points="263.95,430.87,273.0915,427.2048,267.4352,427.2848,267.3552,421.6285,263.95,430.87" style="stroke:#A80036;stroke-width:1.0;"/><!--MD5=[d53d7490e5836ca5709858d7326f212b]
link Company to ParameterCategoryStore--><path codeLine="39" d="M385.4,370.23 C414.59,436.74 469.17,561.16 495.72,621.67 " fill="none" id="Company-to-ParameterCategoryStore" style="stroke:#A80036;stroke-width:1.0;stroke-dasharray:7.0,7.0;"/><polygon fill="#A80036" points="497.74,626.27,497.7973,616.4213,495.7359,621.6892,490.468,619.6279,497.74,626.27" style="stroke:#A80036;stroke-width:1.0;"/><!--MD5=[97f86ea091f10acfb6befc2251259947]
link CreateTestTypeController to TestTypeStore--><path codeLine="40" d="M303.16,219.24 C285.33,236.69 267.64,257.55 256,280 C232.33,325.69 224.37,384.57 221.84,425.62 " fill="none" id="CreateTestTypeController-to-TestTypeStore" style="stroke:#A80036;stroke-width:1.0;stroke-dasharray:7.0,7.0;"/><polygon fill="#A80036" points="221.55,430.79,226.0584,422.0336,221.8361,425.7982,218.0715,421.5759,221.55,430.79" style="stroke:#A80036;stroke-width:1.0;"/><!--MD5=[f4bf28669fe4ba1101395c8fda9b28f2]
link CreateTestTypeController to ParameterCategoryStore--><path codeLine="41" d="M430.59,219.23 C448.27,236.54 465.44,257.32 476,280 C529.73,395.43 522.14,552.06 515.3,621.21 " fill="none" id="CreateTestTypeController-to-ParameterCategoryStore" style="stroke:#A80036;stroke-width:1.0;stroke-dasharray:7.0,7.0;"/><polygon fill="#A80036" points="514.77,626.43,519.6506,617.8755,515.2703,621.4551,511.6907,617.0749,514.77,626.43" style="stroke:#A80036;stroke-width:1.0;"/><!--MD5=[3eebf0e5f359806b77b30e9524c37676]
link TestTypeStore to TestType--><path codeLine="42" d="M204.93,521.37 C197,543.27 187.3,570.06 178.63,594 " fill="none" id="TestTypeStore-to-TestType" style="stroke:#A80036;stroke-width:1.0;"/><polygon fill="#A80036" points="176.92,598.74,183.7427,591.6372,178.6207,594.0381,176.2197,588.9161,176.92,598.74" style="stroke:#A80036;stroke-width:1.0;"/><text fill="#000000" font-family="sans-serif" font-size="13" lengthAdjust="spacing" textLength="49" x="194" y="565.4951">contains</text><text fill="#000000" font-family="sans-serif" font-size="13" lengthAdjust="spacing" textLength="7" x="195.3003" y="542.0934">1</text><text fill="#000000" font-family="sans-serif" font-size="13" lengthAdjust="spacing" textLength="5" x="174.1649" y="588.1092">*</text><!--MD5=[4d378ee605b952282abc6e28dfadf68f]
link TestType to ParameterCategoryStore--><path codeLine="43" d="M305.01,657.5 C344.62,657.5 386.16,657.5 421.49,657.5 " fill="none" id="TestType-to-ParameterCategoryStore" style="stroke:#A80036;stroke-width:1.0;"/><polygon fill="#A80036" points="426.66,657.5,417.66,653.5,421.66,657.5,417.66,661.5,426.66,657.5" style="stroke:#A80036;stroke-width:1.0;"/><text fill="#000000" font-family="sans-serif" font-size="13" lengthAdjust="spacing" textLength="85" x="323.5" y="650.9951">categorized by</text><text fill="#000000" font-family="sans-serif" font-size="13" lengthAdjust="spacing" textLength="7" x="312.8738" y="654.587">1</text><text fill="#000000" font-family="sans-serif" font-size="13" lengthAdjust="spacing" textLength="7" x="412.1113" y="654.3298">1</text><!--MD5=[20de2b9183d073e00468a10aa068eec1]
@startuml

class CreateTestTypeUI{
}

class CreateTestTypeController{
    + CreateTestType(testID, collectingMethod, description, catStore)
    + getParameterCategoryStore()
    + saveTestType()
    + add(catStore)
}

class Company{
-designation
    + createParameterCategoryStore()
    + createTestTypeStore()
}

class TestTypeStore{
    + CreateTestType(testID, collectingMethod, description, catStore)
    + ValidateTestType(t)
    + saveTestType(t)
}

class TestType{
-String testeID
-String collectingMethod
-String description
-ParameterCategoryStore catStore
    + TestType(testID, collectingMethod, description, catStore)
}

class ParameterCategoryStore{
    + getParameterCategoryStore()
}

CreateTestTypeUI ..> CreateTestTypeController
CreateTestTypeController ..> Company
Company ..> TestTypeStore
Company ..> ParameterCategoryStore
CreateTestTypeController ..> TestTypeStore
CreateTestTypeController ..> ParameterCategoryStore
TestTypeStore "1" - -> "*" TestType: contains
TestType "1"-right-> "1" ParameterCategoryStore: categorized by
@enduml

PlantUML version 1.2021.00(Sun Jan 10 10:25:05 GMT 2021)
(GPL source distribution)
Java Runtime: OpenJDK Runtime Environment
JVM: OpenJDK 64-Bit Server VM
Default Encoding: Cp1252
Language: pt
Country: PT
--></g></svg>