<?xml version="1.0" encoding="UTF-8" standalone="no"?>
<svg xmlns="http://www.w3.org/2000/svg"
     contentScriptType="application/ecmascript" contentStyleType="text/css" height="841px" preserveAspectRatio="none"
     style="width:1438px;height:841px;" version="1.1" viewBox="0 0 1438 841" width="1438px" zoomAndPan="magnify">
    <defs>
        <filter height="300%" id="fjudo2gs9fxpj" width="300%" x="-1" y="-1">
            <feGaussianBlur result="blurOut" stdDeviation="2.0"/>
            <feColorMatrix in="blurOut" result="blurOut2" type="matrix"
                           values="0 0 0 0 0 0 0 0 0 0 0 0 0 0 0 0 0 0 .4 0"/>
            <feOffset dx="4.0" dy="4.0" in="blurOut2" result="blurOut3"/>
            <feBlend in="SourceGraphic" in2="blurOut3" mode="normal"/>
        </filter>
    </defs>
    <g><!--MD5=[99b31deea5d7419a569cd5090bf83263]
cluster System-->
        <rect fill="#FFFFFF" filter="url(#fjudo2gs9fxpj)" height="822" style="stroke:#000000;stroke-width:1.5;"
              width="1081" x="133" y="7"/>
        <text fill="#000000" font-family="sans-serif" font-size="14" font-weight="bold" lengthAdjust="spacing"
              textLength="50" x="648.5" y="23.5332">System
        </text>
        <ellipse cx="412.934" cy="82.9868" fill="#FEFECE" filter="url(#fjudo2gs9fxpj)" rx="110.434" ry="24.4868"
                 style="stroke:#A80036;stroke-width:1.5;"/>
        <text fill="#000000" font-family="sans-serif" font-size="14" lengthAdjust="spacing" textLength="184" x="320.934"
              y="86.7153">Checks the results of the test
        </text>
        <ellipse cx="413.1681" cy="255.2336" fill="#FEFECE" filter="url(#fjudo2gs9fxpj)" rx="99.1681" ry="22.2336"
                 style="stroke:#A80036;stroke-width:1.5;"/>
        <text fill="#000000" font-family="sans-serif" font-size="14" lengthAdjust="spacing" textLength="159"
              x="333.6681" y="258.9621">Register a new employee
        </text>
        <ellipse cx="413.2361" cy="367.2472" fill="#FEFECE" filter="url(#fjudo2gs9fxpj)" rx="264.2361" ry="55.2472"
                 style="stroke:#A80036;stroke-width:1.5;"/>
        <text fill="#000000" font-family="sans-serif" font-size="14" lengthAdjust="spacing" textLength="503"
              x="161.7361" y="370.9757">Register a new clinical analysis lab and choose the which kind of test it
            operates
        </text>
        <ellipse cx="413.1077" cy="495.1215" fill="#FEFECE" filter="url(#fjudo2gs9fxpj)" rx="178.6077" ry="38.1215"
                 style="stroke:#A80036;stroke-width:1.5;"/>
        <text fill="#000000" font-family="sans-serif" font-size="14" lengthAdjust="spacing" textLength="328"
              x="249.1077" y="498.8501">Specify a new type of test and its collecting methods
        </text>
        <ellipse cx="412.8995" cy="599.7799" fill="#FEFECE" filter="url(#fjudo2gs9fxpj)" rx="146.8995" ry="31.7799"
                 style="stroke:#A80036;stroke-width:1.5;"/>
        <text fill="#000000" font-family="sans-serif" font-size="14" lengthAdjust="spacing" textLength="262"
              x="281.8995" y="603.5084">specify a new parameter and categorize it
        </text>
        <ellipse cx="413.2387" cy="694.8477" fill="#FEFECE" filter="url(#fjudo2gs9fxpj)" rx="124.7387" ry="27.3477"
                 style="stroke:#A80036;stroke-width:1.5;"/>
        <text fill="#000000" font-family="sans-serif" font-size="14" lengthAdjust="spacing" textLength="215"
              x="305.7387" y="698.5763">Specify a new parameter category
        </text>
        <ellipse cx="955.5887" cy="83.0177" fill="#FEFECE" filter="url(#fjudo2gs9fxpj)" rx="68.0887" ry="16.0177"
                 style="stroke:#A80036;stroke-width:1.5;"/>
        <text fill="#000000" font-family="sans-serif" font-size="14" lengthAdjust="spacing" textLength="82" x="911.5887"
              y="87.5343">Writes report
        </text>
        <ellipse cx="955.597" cy="153.1194" fill="#FEFECE" filter="url(#fjudo2gs9fxpj)" rx="81.097" ry="18.6194"
                 style="stroke:#A80036;stroke-width:1.5;"/>
        <text fill="#000000" font-family="sans-serif" font-size="14" lengthAdjust="spacing" textLength="117"
              x="896.5843" y="156.9982">Checks the results
        </text>
        <ellipse cx="955.5873" cy="226.1175" fill="#FEFECE" filter="url(#fjudo2gs9fxpj)" rx="83.5873" ry="19.1175"
                 style="stroke:#A80036;stroke-width:1.5;"/>
        <text fill="#000000" font-family="sans-serif" font-size="14" lengthAdjust="spacing" textLength="123"
              x="894.0873" y="229.846">Records the results
        </text>
        <ellipse cx="955.4661" cy="299.7932" fill="#FEFECE" filter="url(#fjudo2gs9fxpj)" rx="86.9661" ry="19.7932"
                 style="stroke:#A80036;stroke-width:1.5;"/>
        <text fill="#000000" font-family="sans-serif" font-size="14" lengthAdjust="spacing" textLength="131"
              x="889.9661" y="303.5217">Validates the reports
        </text>
        <ellipse cx="955.6926" cy="375.0385" fill="#FEFECE" filter="url(#fjudo2gs9fxpj)" rx="85.6926" ry="19.5385"
                 style="stroke:#A80036;stroke-width:1.5;"/>
        <text fill="#000000" font-family="sans-serif" font-size="14" lengthAdjust="spacing" textLength="128"
              x="891.6926" y="378.767">Validates the results
        </text>
        <ellipse cx="955.5436" cy="476.1087" fill="#FEFECE" filter="url(#fjudo2gs9fxpj)" rx="218.5436" ry="46.1087"
                 style="stroke:#A80036;stroke-width:1.5;"/>
        <text fill="#000000" font-family="sans-serif" font-size="14" lengthAdjust="spacing" textLength="410"
              x="750.5436" y="479.8372">generate daily reports with the information demanded by the NHS
        </text>
        <ellipse cx="955.7412" cy="579.9482" fill="#FEFECE" filter="url(#fjudo2gs9fxpj)" rx="102.7412" ry="22.9482"
                 style="stroke:#A80036;stroke-width:1.5;"/>
        <text fill="#000000" font-family="sans-serif" font-size="14" lengthAdjust="spacing" textLength="167"
              x="872.2412" y="583.6768">Records the Samples/Test
        </text>
        <ellipse cx="955.5083" cy="666.0017" fill="#FEFECE" filter="url(#fjudo2gs9fxpj)" rx="128.0083" ry="28.0017"
                 style="stroke:#A80036;stroke-width:1.5;"/>
        <text fill="#000000" font-family="sans-serif" font-size="14" lengthAdjust="spacing" textLength="222"
              x="844.5083" y="669.7302">Registers the test in the application
        </text>
        <ellipse cx="955.5542" cy="758.9108" fill="#FEFECE" filter="url(#fjudo2gs9fxpj)" rx="135.0542" ry="29.4108"
                 style="stroke:#A80036;stroke-width:1.5;"/>
        <text fill="#000000" font-family="sans-serif" font-size="14" lengthAdjust="spacing" textLength="237"
              x="837.0542" y="762.6394">Registers the client on the application
        </text><!--MD5=[18f10585e1e8d8ec7ef118b7f3448afd]
entity ##41691--><!--MD5=[979c31051cf8d07bdf927ed864b836ec]
entity cl-->
        <ellipse cx="47.5" cy="51" fill="#FEFECE" filter="url(#fjudo2gs9fxpj)" rx="8" ry="8"
                 style="stroke:#A80036;stroke-width:1.5;"/>
        <path d="M47.5,59 L47.5,86 M34.5,67 L60.5,67 M47.5,86 L34.5,101 M47.5,86 L60.5,101 " fill="none"
              filter="url(#fjudo2gs9fxpj)" style="stroke:#A80036;stroke-width:1.5;"/>
        <text fill="#000000" font-family="sans-serif" font-size="14" lengthAdjust="spacing" textLength="36" x="29.5"
              y="121.0332">Client
        </text><!--MD5=[c379f63bf4dce4781374740e142de8a3]
entity recep-->
        <ellipse cx="1332.5" cy="700" fill="#FEFECE" filter="url(#fjudo2gs9fxpj)" rx="8" ry="8"
                 style="stroke:#A80036;stroke-width:1.5;"/>
        <path d="M1332.5,708 L1332.5,735 M1319.5,716 L1345.5,716 M1332.5,735 L1319.5,750 M1332.5,735 L1345.5,750 "
              fill="none" filter="url(#fjudo2gs9fxpj)" style="stroke:#A80036;stroke-width:1.5;"/>
        <text fill="#000000" font-family="sans-serif" font-size="14" lengthAdjust="spacing" textLength="78" x="1293.5"
              y="770.0332">Receptionist
        </text><!--MD5=[e7d38603a700bedb049d1f5e1789c8aa]
entity MLT-->
        <ellipse cx="1332.5" cy="559" fill="#FEFECE" filter="url(#fjudo2gs9fxpj)" rx="8" ry="8"
                 style="stroke:#A80036;stroke-width:1.5;"/>
        <path d="M1332.5,567 L1332.5,594 M1319.5,575 L1345.5,575 M1332.5,594 L1319.5,609 M1332.5,594 L1345.5,609 "
              fill="none" filter="url(#fjudo2gs9fxpj)" style="stroke:#A80036;stroke-width:1.5;"/>
        <text fill="#000000" font-family="sans-serif" font-size="14" lengthAdjust="spacing" textLength="149" x="1258"
              y="629.0332">Medical Lab Technician
        </text><!--MD5=[79a439086b036a57b90a01d7b2f8bbd1]
entity admin-->
        <ellipse cx="47.5" cy="463" fill="#FEFECE" filter="url(#fjudo2gs9fxpj)" rx="8" ry="8"
                 style="stroke:#A80036;stroke-width:1.5;"/>
        <path d="M47.5,471 L47.5,498 M34.5,479 L60.5,479 M47.5,498 L34.5,513 M47.5,498 L60.5,513 " fill="none"
              filter="url(#fjudo2gs9fxpj)" style="stroke:#A80036;stroke-width:1.5;"/>
        <text fill="#000000" font-family="sans-serif" font-size="14" lengthAdjust="spacing" textLength="83" x="6"
              y="533.0332">Administrator
        </text><!--MD5=[f0e91d5aa74c2411969e7ef072c6f268]
entity SD-->
        <ellipse cx="1332.5" cy="64" fill="#FEFECE" filter="url(#fjudo2gs9fxpj)" rx="8" ry="8"
                 style="stroke:#A80036;stroke-width:1.5;"/>
        <path d="M1332.5,72 L1332.5,99 M1319.5,80 L1345.5,80 M1332.5,99 L1319.5,114 M1332.5,99 L1345.5,114 " fill="none"
              filter="url(#fjudo2gs9fxpj)" style="stroke:#A80036;stroke-width:1.5;"/>
        <text fill="#000000" font-family="sans-serif" font-size="14" lengthAdjust="spacing" textLength="106" x="1279.5"
              y="134.0332">Specialist Doctor
        </text><!--MD5=[234b11d210a3d78b3bcac40f493e1b07]
entity CCT-->
        <ellipse cx="1332.5" cy="194" fill="#FEFECE" filter="url(#fjudo2gs9fxpj)" rx="8" ry="8"
                 style="stroke:#A80036;stroke-width:1.5;"/>
        <path d="M1332.5,202 L1332.5,229 M1319.5,210 L1345.5,210 M1332.5,229 L1319.5,244 M1332.5,229 L1345.5,244 "
              fill="none" filter="url(#fjudo2gs9fxpj)" style="stroke:#A80036;stroke-width:1.5;"/>
        <text fill="#000000" font-family="sans-serif" font-size="14" lengthAdjust="spacing" textLength="197" x="1234"
              y="264.0332">Clinical Chemistry Technologist
        </text><!--MD5=[b0100dfa164aec77c855c16afe11d7ec]
entity LC-->
        <ellipse cx="1332.5" cy="319" fill="#FEFECE" filter="url(#fjudo2gs9fxpj)" rx="8" ry="8"
                 style="stroke:#A80036;stroke-width:1.5;"/>
        <path d="M1332.5,327 L1332.5,354 M1319.5,335 L1345.5,335 M1332.5,354 L1319.5,369 M1332.5,354 L1345.5,369 "
              fill="none" filter="url(#fjudo2gs9fxpj)" style="stroke:#A80036;stroke-width:1.5;"/>
        <text fill="#000000" font-family="sans-serif" font-size="14" lengthAdjust="spacing" textLength="148" x="1258.5"
              y="389.0332">Laboratory Coordinator
        </text><!--MD5=[f642f82f59d8b4cbc8a6199c6cab9f3a]
entity com-->
        <ellipse cx="1332.5" cy="441" fill="#FEFECE" filter="url(#fjudo2gs9fxpj)" rx="8" ry="8"
                 style="stroke:#A80036;stroke-width:1.5;"/>
        <path d="M1332.5,449 L1332.5,476 M1319.5,457 L1345.5,457 M1332.5,476 L1319.5,491 M1332.5,476 L1345.5,491 "
              fill="none" filter="url(#fjudo2gs9fxpj)" style="stroke:#A80036;stroke-width:1.5;"/>
        <text fill="#000000" font-family="sans-serif" font-size="14" lengthAdjust="spacing" textLength="60" x="1302.5"
              y="511.0332">Company
        </text><!--MD5=[33db5329112521c846cf0b630a56623e]
link UC1 to UC5--><!--MD5=[799c6446af12298baee1baec2051ea64]
link cl to UC1-->
        <path d="M65.54,83 C107.23,83 217.13,83 302.08,83 " fill="none" id="cl-UC1"
              style="stroke:#A80036;stroke-width:1.0;"/><!--MD5=[344886c417e37e43416c4c9c8d9962d3]
link admin to UC7-->
        <path d="M64.35,453.35 C86.76,394.48 125,294 125,294 C125,294 243.5,277.9 328.22,266.39 " fill="none"
              id="admin-UC7" style="stroke:#A80036;stroke-width:1.0;"/><!--MD5=[e6d45900de7ae7de5659f3cd2b4514ee]
link admin to UC8-->
        <path d="M89.44,465.03 C107.63,451.72 125,439 125,439 C125,439 180.92,424.97 243.39,409.3 " fill="none"
              id="admin-UC8" style="stroke:#A80036;stroke-width:1.0;"/><!--MD5=[3bd9573024a75a9e260fddb01e5294e2]
link admin to UC9-->
        <path d="M89.14,495 C124.99,495 179.85,495 234.24,495 " fill="none" id="admin-UC9"
              style="stroke:#A80036;stroke-width:1.0;"/><!--MD5=[dfd2db1a8ab03a1b37a29f31d929c176]
link admin to UC10-->
        <path d="M89.44,524.43 C107.63,537.51 125,550 125,550 C125,550 217.71,566.15 297.75,580.1 " fill="none"
              id="admin-UC10" style="stroke:#A80036;stroke-width:1.0;"/><!--MD5=[82f64621edba5c3b20c09d5802f5d0cb]
link admin to UC11-->
        <path d="M77.07,536.62 C83.77,546.38 89,554 89,554 C89,554 125,649 125,649 C125,649 228.86,665.65 311.62,678.91 "
              fill="none" id="admin-UC11" style="stroke:#A80036;stroke-width:1.0;"/><!--MD5=[e91fd7208e483ee6b0a33481d28d12b2]
link UC12 to CCT-->
        <path d="M1039.26,226 C1096.63,226 1173.27,226 1233.67,226 " fill="none" id="UC12-CCT"
              style="stroke:#A80036;stroke-width:1.0;"/><!--MD5=[a07222d9d41a29a7bbe775711fb79d4f]
link UC13 to LC-->
        <path d="M1031.04,310.14 C1097.04,319.11 1192.81,332.14 1258.38,341.06 " fill="none" id="UC13-LC"
              style="stroke:#A80036;stroke-width:1.0;"/><!--MD5=[5a5e54cc1e861fed2955ee0b34135ec7]
link UC14 to LC-->
        <path d="M1038.33,369.76 C1103.95,365.56 1195.22,359.72 1258.41,355.68 " fill="none" id="UC14-LC"
              style="stroke:#A80036;stroke-width:1.0;"/><!--MD5=[737b9c3a5062386d388d50db8ae38c7f]
link UC15 to com-->
        <path d="M1174.1,474.26 C1225.15,473.85 1273.14,473.47 1302.4,473.23 " fill="none" id="UC15-com"
              style="stroke:#A80036;stroke-width:1.0;"/><!--MD5=[447eafe93f25031509a0165d437228ee]
link UC5 to SD-->
        <path d="M1023.11,85.31 C1096.35,87.85 1212.5,91.87 1279.39,94.19 " fill="none" id="UC5-SD"
              style="stroke:#A80036;stroke-width:1.0;"/><!--MD5=[b83d087aeb7f3e7367c1c60218761589]
link UC6 to SD-->
        <path d="M1025.22,143.42 C1103.88,132.46 1222,116 1222,116 C1222,116 1251.11,110.68 1279.32,105.53 " fill="none"
              id="UC6-SD" style="stroke:#A80036;stroke-width:1.0;"/><!--MD5=[8b53b6bca7ae700bd7dd2cc735ecbcdd]
link UC4 to MLT-->
        <path d="M1057.49,582.96 C1120.72,584.82 1200.77,587.17 1257.99,588.84 " fill="none" id="UC4-MLT"
              style="stroke:#A80036;stroke-width:1.0;"/><!--MD5=[5d23249270551521307ad190150b4110]
link UC2 to recep-->
        <path d="M1056.5,683.33 C1131.76,696.36 1222,712 1222,712 C1222,712 1261.63,719.24 1293.2,725 " fill="none"
              id="UC2-recep" style="stroke:#A80036;stroke-width:1.0;"/><!--MD5=[cd1cd0bcd694a2d30c1b7cc59552a3d0]
link UC3 to recep-->
        <path d="M1083.98,749.82 C1157.45,744.53 1244.66,738.25 1293.48,734.74 " fill="none" id="UC3-recep"
              style="stroke:#A80036;stroke-width:1.0;"/><!--MD5=[308393afd48ecaa1ffa9b2887c31bbec]
@startuml
skinparam linetype polyline
left to right direction
actor "Client" as cl
actor "Receptionist" as recep
actor "Medical Lab Technician" as MLT
actor "Administrator" as admin
actor "Specialist Doctor" as SD
actor "Clinical Chemistry Technologist" as CCT
actor "Laboratory Coordinator" as LC
actor "Company" as com
rectangle "System" {
  usecase "Checks the results of the test" as UC1
  usecase "Register a new employee" as UC7
  usecase "Register a new clinical analysis lab and choose the which kind of test it operates" as UC8
  usecase "Specify a new type of test and its collecting methods" as UC9
  usecase "specify a new parameter and categorize it" as UC10
  usecase "Specify a new parameter category" as UC11
  together {
  usecase "Writes report" as UC5
  usecase "Checks the results" as UC6
  usecase "Records the results" as UC12
  usecase "Validates the reports" as UC13
  usecase "Validates the results" as UC14
  usecase "generate daily reports with the information demanded by the NHS" as UC15
  usecase "Records the Samples/Test" as UC4
  usecase "Registers the test in the application" as UC2
  usecase "Registers the client on the application" as UC3
}

}

(UC1) -[hidden]- (UC5)

cl - - UC1
admin - - UC7
admin - - UC8
admin - - UC9
admin - - UC10
admin - - UC11
together {
UC12 - - CCT
UC13 - - LC
UC14 - - LC
UC15 - - com
UC5 - - SD
UC6 - - SD
UC4 - - MLT
UC2 - - recep
UC3 - - recep

}

@enduml

PlantUML version 1.2021.5(Sun Apr 25 12:20:28 BST 2021)
(GPL source distribution)
Java Runtime: OpenJDK Runtime Environment
JVM: Dynamic Code Evolution 64-Bit Server VM
Default Encoding: Cp1252
Language: pt
Country: PT
-->
    </g>
</svg>