<?xml version="1.0" encoding="UTF-8" standalone="no"?><svg xmlns="http://www.w3.org/2000/svg" xmlns:xlink="http://www.w3.org/1999/xlink" contentScriptType="application/ecmascript" contentStyleType="text/css" height="438px" preserveAspectRatio="none" style="width:453px;height:438px;" version="1.1" viewBox="0 0 453 438" width="453px" zoomAndPan="magnify"><defs><filter height="300%" id="f1kupu90uu9ips" width="300%" x="-1" y="-1"><feGaussianBlur result="blurOut" stdDeviation="2.0"/><feColorMatrix in="blurOut" result="blurOut2" type="matrix" values="0 0 0 0 0 0 0 0 0 0 0 0 0 0 0 0 0 0 .4 0"/><feOffset dx="4.0" dy="4.0" in="blurOut2" result="blurOut3"/><feBlend in="SourceGraphic" in2="blurOut3" mode="normal"/></filter></defs><g><rect fill="#FFFFFF" filter="url(#f1kupu90uu9ips)" height="243.8125" style="stroke:#A80036;stroke-width:1.0;" width="10" x="56" y="99.6094"/><rect fill="#FFFFFF" filter="url(#f1kupu90uu9ips)" height="30.3516" style="stroke:#A80036;stroke-width:1.0;" width="10" x="404" y="121.9609"/><rect fill="#FFFFFF" filter="url(#f1kupu90uu9ips)" height="30.3516" style="stroke:#A80036;stroke-width:1.0;" width="10" x="404" y="182.6641"/><rect fill="#FFFFFF" filter="url(#f1kupu90uu9ips)" height="30.3516" style="stroke:#A80036;stroke-width:1.0;" width="10" x="404" y="243.3672"/><rect fill="#FFFFFF" filter="url(#f1kupu90uu9ips)" height="30.3516" style="stroke:#A80036;stroke-width:1.0;" width="10" x="404" y="304.0703"/><line style="stroke:#A80036;stroke-width:1.0;stroke-dasharray:5.0,5.0;" x1="61" x2="61" y1="89.6094" y2="352.4219"/><line style="stroke:#A80036;stroke-width:1.0;stroke-dasharray:5.0,5.0;" x1="409" x2="409" y1="89.6094" y2="352.4219"/><text fill="#000000" font-family="sans-serif" font-size="14" lengthAdjust="spacing" textLength="106" x="5" y="86.5332">Specialist Doctor</text><ellipse cx="61" cy="15" fill="#FEFECE" filter="url(#f1kupu90uu9ips)" rx="8" ry="8" style="stroke:#A80036;stroke-width:2.0;"/><path d="M61,23 L61,50 M48,31 L74,31 M61,50 L48,65 M61,50 L74,65 " fill="none" filter="url(#f1kupu90uu9ips)" style="stroke:#A80036;stroke-width:2.0;"/><text fill="#000000" font-family="sans-serif" font-size="14" lengthAdjust="spacing" textLength="106" x="5" y="365.9551">Specialist Doctor</text><ellipse cx="61" cy="379.0313" fill="#FEFECE" filter="url(#f1kupu90uu9ips)" rx="8" ry="8" style="stroke:#A80036;stroke-width:2.0;"/><path d="M61,387.0313 L61,414.0313 M48,395.0313 L74,395.0313 M61,414.0313 L48,429.0313 M61,414.0313 L74,429.0313 " fill="none" filter="url(#f1kupu90uu9ips)" style="stroke:#A80036;stroke-width:2.0;"/><rect fill="#FEFECE" filter="url(#f1kupu90uu9ips)" height="31.6094" style="stroke:#A80036;stroke-width:1.5;" width="64" x="375" y="53"/><text fill="#000000" font-family="sans-serif" font-size="14" lengthAdjust="spacing" textLength="50" x="382" y="74.5332">:System</text><rect fill="#FEFECE" filter="url(#f1kupu90uu9ips)" height="31.6094" style="stroke:#A80036;stroke-width:1.5;" width="64" x="375" y="351.4219"/><text fill="#000000" font-family="sans-serif" font-size="14" lengthAdjust="spacing" textLength="50" x="382" y="372.9551">:System</text><rect fill="#FFFFFF" filter="url(#f1kupu90uu9ips)" height="243.8125" style="stroke:#A80036;stroke-width:1.0;" width="10" x="56" y="99.6094"/><rect fill="#FFFFFF" filter="url(#f1kupu90uu9ips)" height="30.3516" style="stroke:#A80036;stroke-width:1.0;" width="10" x="404" y="121.9609"/><rect fill="#FFFFFF" filter="url(#f1kupu90uu9ips)" height="30.3516" style="stroke:#A80036;stroke-width:1.0;" width="10" x="404" y="182.6641"/><rect fill="#FFFFFF" filter="url(#f1kupu90uu9ips)" height="30.3516" style="stroke:#A80036;stroke-width:1.0;" width="10" x="404" y="243.3672"/><rect fill="#FFFFFF" filter="url(#f1kupu90uu9ips)" height="30.3516" style="stroke:#A80036;stroke-width:1.0;" width="10" x="404" y="304.0703"/><polygon fill="#A80036" points="392,117.9609,402,121.9609,392,125.9609,396,121.9609" style="stroke:#A80036;stroke-width:1.0;"/><line style="stroke:#A80036;stroke-width:1.0;" x1="66" x2="398" y1="121.9609" y2="121.9609"/><text fill="#000000" font-family="sans-serif" font-size="13" font-weight="bold" lengthAdjust="spacing" textLength="7" x="73" y="117.1045">1</text><text fill="#000000" font-family="sans-serif" font-size="13" lengthAdjust="spacing" textLength="99" x="84" y="117.1045">asks for a Report</text><polygon fill="#A80036" points="77,148.3125,67,152.3125,77,156.3125,73,152.3125" style="stroke:#A80036;stroke-width:1.0;"/><line style="stroke:#A80036;stroke-width:1.0;stroke-dasharray:2.0,2.0;" x1="71" x2="408" y1="152.3125" y2="152.3125"/><text fill="#000000" font-family="sans-serif" font-size="13" font-weight="bold" lengthAdjust="spacing" textLength="7" x="83" y="147.4561">2</text><text fill="#000000" font-family="sans-serif" font-size="13" lengthAdjust="spacing" textLength="77" x="94" y="147.4561">show test list</text><polygon fill="#A80036" points="392,178.6641,402,182.6641,392,186.6641,396,182.6641" style="stroke:#A80036;stroke-width:1.0;"/><line style="stroke:#A80036;stroke-width:1.0;" x1="66" x2="398" y1="182.6641" y2="182.6641"/><text fill="#000000" font-family="sans-serif" font-size="13" font-weight="bold" lengthAdjust="spacing" textLength="7" x="73" y="177.8076">3</text><text fill="#000000" font-family="sans-serif" font-size="13" lengthAdjust="spacing" textLength="72" x="84" y="177.8076">select a test</text><polygon fill="#A80036" points="77,209.0156,67,213.0156,77,217.0156,73,213.0156" style="stroke:#A80036;stroke-width:1.0;"/><line style="stroke:#A80036;stroke-width:1.0;stroke-dasharray:2.0,2.0;" x1="71" x2="408" y1="213.0156" y2="213.0156"/><text fill="#000000" font-family="sans-serif" font-size="13" font-weight="bold" lengthAdjust="spacing" textLength="7" x="83" y="208.1592">4</text><text fill="#000000" font-family="sans-serif" font-size="13" lengthAdjust="spacing" textLength="303" x="94" y="208.1592">show test data and asks for the diagnosis of the test</text><polygon fill="#A80036" points="392,239.3672,402,243.3672,392,247.3672,396,243.3672" style="stroke:#A80036;stroke-width:1.0;"/><line style="stroke:#A80036;stroke-width:1.0;" x1="66" x2="398" y1="243.3672" y2="243.3672"/><text fill="#000000" font-family="sans-serif" font-size="13" font-weight="bold" lengthAdjust="spacing" textLength="7" x="73" y="238.5107">5</text><text fill="#000000" font-family="sans-serif" font-size="13" lengthAdjust="spacing" textLength="113" x="84" y="238.5107">type diagnosis data</text><polygon fill="#A80036" points="77,269.7188,67,273.7188,77,277.7188,73,273.7188" style="stroke:#A80036;stroke-width:1.0;"/><line style="stroke:#A80036;stroke-width:1.0;stroke-dasharray:2.0,2.0;" x1="71" x2="408" y1="273.7188" y2="273.7188"/><text fill="#000000" font-family="sans-serif" font-size="13" font-weight="bold" lengthAdjust="spacing" textLength="7" x="83" y="268.8623">6</text><text fill="#000000" font-family="sans-serif" font-size="13" lengthAdjust="spacing" textLength="221" x="94" y="268.8623">Shows data and requests confirmation</text><polygon fill="#A80036" points="392,300.0703,402,304.0703,392,308.0703,396,304.0703" style="stroke:#A80036;stroke-width:1.0;"/><line style="stroke:#A80036;stroke-width:1.0;" x1="66" x2="398" y1="304.0703" y2="304.0703"/><text fill="#000000" font-family="sans-serif" font-size="13" font-weight="bold" lengthAdjust="spacing" textLength="7" x="73" y="299.2139">7</text><text fill="#000000" font-family="sans-serif" font-size="13" lengthAdjust="spacing" textLength="78" x="84" y="299.2139">confirms data</text><polygon fill="#A80036" points="77,330.4219,67,334.4219,77,338.4219,73,334.4219" style="stroke:#A80036;stroke-width:1.0;"/><line style="stroke:#A80036;stroke-width:1.0;stroke-dasharray:2.0,2.0;" x1="71" x2="408" y1="334.4219" y2="334.4219"/><text fill="#000000" font-family="sans-serif" font-size="13" font-weight="bold" lengthAdjust="spacing" textLength="7" x="83" y="329.5654">8</text><text fill="#000000" font-family="sans-serif" font-size="13" lengthAdjust="spacing" textLength="147" x="94" y="329.5654">shows operation success</text><!--MD5=[ed0c71dc5d4864b317bc1ebe0a8c0591]
@startuml
'https://plantuml.com/sequence-diagram
 
autonumber

actor "Specialist Doctor" as SD

activate SD

SD -> ":System" : asks for a Report
activate ":System"

SD <- - ":System": show test list
deactivate ":System"

SD -> ":System": select a test
activate ":System"
SD <- - ":System": show test data and asks for the diagnosis of the test
deactivate ":System"

SD -> ":System": type diagnosis data
activate ":System"
SD <- - ":System": Shows data and requests confirmation
deactivate ":System"

SD -> ":System": confirms data
activate ":System"

SD <- - ":System": shows operation success
deactivate ":System"

@enduml

@startuml
 
autonumber

actor "Specialist Doctor" as SD

activate SD

SD -> ":System" : asks for a Report
activate ":System"

SD <- - ":System": show test list
deactivate ":System"

SD -> ":System": select a test
activate ":System"
SD <- - ":System": show test data and asks for the diagnosis of the test
deactivate ":System"

SD -> ":System": type diagnosis data
activate ":System"
SD <- - ":System": Shows data and requests confirmation
deactivate ":System"

SD -> ":System": confirms data
activate ":System"

SD <- - ":System": shows operation success
deactivate ":System"

@enduml

PlantUML version 1.2021.4(Sun Apr 04 09:49:39 BST 2021)
(GPL source distribution)
Java Runtime: OpenJDK Runtime Environment
JVM: OpenJDK 64-Bit Server VM
Default Encoding: Cp1252
Language: en
Country: US
--></g></svg>