<?xml version="1.0" encoding="UTF-8" standalone="no"?><svg xmlns="http://www.w3.org/2000/svg" xmlns:xlink="http://www.w3.org/1999/xlink" contentScriptType="application/ecmascript" contentStyleType="text/css" height="613px" preserveAspectRatio="none" style="width:604px;height:613px;" version="1.1" viewBox="0 0 604 613" width="604px" zoomAndPan="magnify"><defs><filter height="300%" id="f156ilyye40kn3" width="300%" x="-1" y="-1"><feGaussianBlur result="blurOut" stdDeviation="2.0"/><feColorMatrix in="blurOut" result="blurOut2" type="matrix" values="0 0 0 0 0 0 0 0 0 0 0 0 0 0 0 0 0 0 .4 0"/><feOffset dx="4.0" dy="4.0" in="blurOut2" result="blurOut3"/><feBlend in="SourceGraphic" in2="blurOut3" mode="normal"/></filter></defs><g><!--MD5=[61d919aa91cd8dde0d26e62e960d0348]
class CreateReportUI--><rect codeLine="2" fill="#FEFECE" filter="url(#f156ilyye40kn3)" height="48" id="CreateReportUI" style="stroke:#A80036;stroke-width:1.5;" width="118" x="137.5" y="7"/><ellipse cx="152.5" cy="23" fill="#ADD1B2" rx="11" ry="11" style="stroke:#A80036;stroke-width:1.0;"/><path d="M154.5,19.5 Q154.7031,19 154.9375,18.75 Q155.1719,18.5 155.4375,18.5 Q155.9063,18.5 156.2031,18.7813 Q156.5,19.0625 156.5,19.7188 L156.5,21.2813 Q156.5,21.9375 156.2188,22.2188 Q155.9375,22.5 155.5,22.5 Q155.1094,22.5 154.8594,22.3281 Q154.6094,22.1563 154.5,21.7031 Q154.4531,21.3906 154.2813,21.2188 Q153.9688,20.8906 153.4063,20.7031 Q152.8438,20.5 152.2813,20.5 Q151.5781,20.5 150.9844,20.7813 Q150.4063,21.0625 149.9531,21.6875 Q149.5,22.3125 149.5,23.1719 L149.5,24.0938 Q149.5,25.125 150.3438,25.8125 Q151.1875,26.5 152.6875,26.5 Q153.5781,26.5 154.2031,26.2969 Q154.5625,26.1875 154.9688,25.8281 Q155.2344,25.625 155.375,25.5625 Q155.5156,25.5 155.6875,25.5 Q156.0156,25.5 156.25,25.7656 Q156.5,26.0156 156.5,26.375 Q156.5,26.7188 156.1563,27.125 Q155.6563,27.7188 154.8594,28.0469 Q153.8125,28.5 152.5313,28.5 Q151.0313,28.5 149.8281,27.9063 Q148.8594,27.4375 148.1719,26.4219 Q147.5,25.4063 147.5,24.2031 L147.5,23.1094 Q147.5,21.8594 148.0938,20.7656 Q148.7031,19.6719 149.75,19.0938 Q150.8125,18.5 152,18.5 Q152.7188,18.5 153.3438,18.75 Q153.9688,19 154.5,19.5 Z " fill="#000000"/><text fill="#000000" font-family="sans-serif" font-size="12" lengthAdjust="spacing" textLength="86" x="166.5" y="27.9102">CreateReportUI</text><line style="stroke:#A80036;stroke-width:1.5;" x1="138.5" x2="254.5" y1="39" y2="39"/><line style="stroke:#A80036;stroke-width:1.5;" x1="138.5" x2="254.5" y1="47" y2="47"/><!--MD5=[435d59c09609fcea3345bfa2ae3de6e0]
class CreateReportController--><rect codeLine="6" fill="#FEFECE" filter="url(#f156ilyye40kn3)" height="103.3438" id="CreateReportController" style="stroke:#A80036;stroke-width:1.5;" width="160" x="116.5" y="115"/><ellipse cx="131.5" cy="131" fill="#ADD1B2" rx="11" ry="11" style="stroke:#A80036;stroke-width:1.0;"/><path d="M133.5,127.5 Q133.7031,127 133.9375,126.75 Q134.1719,126.5 134.4375,126.5 Q134.9063,126.5 135.2031,126.7813 Q135.5,127.0625 135.5,127.7188 L135.5,129.2813 Q135.5,129.9375 135.2188,130.2188 Q134.9375,130.5 134.5,130.5 Q134.1094,130.5 133.8594,130.3281 Q133.6094,130.1563 133.5,129.7031 Q133.4531,129.3906 133.2813,129.2188 Q132.9688,128.8906 132.4063,128.7031 Q131.8438,128.5 131.2813,128.5 Q130.5781,128.5 129.9844,128.7813 Q129.4063,129.0625 128.9531,129.6875 Q128.5,130.3125 128.5,131.1719 L128.5,132.0938 Q128.5,133.125 129.3438,133.8125 Q130.1875,134.5 131.6875,134.5 Q132.5781,134.5 133.2031,134.2969 Q133.5625,134.1875 133.9688,133.8281 Q134.2344,133.625 134.375,133.5625 Q134.5156,133.5 134.6875,133.5 Q135.0156,133.5 135.25,133.7656 Q135.5,134.0156 135.5,134.375 Q135.5,134.7188 135.1563,135.125 Q134.6563,135.7188 133.8594,136.0469 Q132.8125,136.5 131.5313,136.5 Q130.0313,136.5 128.8281,135.9063 Q127.8594,135.4375 127.1719,134.4219 Q126.5,133.4063 126.5,132.2031 L126.5,131.1094 Q126.5,129.8594 127.0938,128.7656 Q127.7031,127.6719 128.75,127.0938 Q129.8125,126.5 131,126.5 Q131.7188,126.5 132.3438,126.75 Q132.9688,127 133.5,127.5 Z " fill="#000000"/><text fill="#000000" font-family="sans-serif" font-size="12" lengthAdjust="spacing" textLength="128" x="145.5" y="135.9102">CreateReportController</text><line style="stroke:#A80036;stroke-width:1.5;" x1="117.5" x2="275.5" y1="147" y2="147"/><line style="stroke:#A80036;stroke-width:1.5;" x1="117.5" x2="275.5" y1="155" y2="155"/><ellipse cx="127.5" cy="166" fill="#84BE84" rx="3" ry="3" style="stroke:#038048;stroke-width:1.0;"/><text fill="#000000" font-family="sans-serif" font-size="11" lengthAdjust="spacing" textLength="88" x="136.5" y="170.4189">getTestList(testID)</text><ellipse cx="127.5" cy="179.8359" fill="#84BE84" rx="3" ry="3" style="stroke:#038048;stroke-width:1.0;"/><text fill="#000000" font-family="sans-serif" font-size="11" lengthAdjust="spacing" textLength="53" x="136.5" y="184.2549">getResult()</text><ellipse cx="127.5" cy="193.6719" fill="#84BE84" rx="3" ry="3" style="stroke:#038048;stroke-width:1.0;"/><text fill="#000000" font-family="sans-serif" font-size="11" lengthAdjust="spacing" textLength="71" x="136.5" y="198.0908">createReport()</text><ellipse cx="127.5" cy="207.5078" fill="#84BE84" rx="3" ry="3" style="stroke:#038048;stroke-width:1.0;"/><text fill="#000000" font-family="sans-serif" font-size="11" lengthAdjust="spacing" textLength="93" x="136.5" y="211.9268">saveReport(report)</text><!--MD5=[f97b8c00cb514ace9cb97c2a996fb712]
class TestListMapper--><rect codeLine="14" fill="#FEFECE" filter="url(#f156ilyye40kn3)" height="75.6719" id="TestListMapper" style="stroke:#A80036;stroke-width:1.5;" width="117" x="312" y="128.5"/><ellipse cx="327" cy="144.5" fill="#ADD1B2" rx="11" ry="11" style="stroke:#A80036;stroke-width:1.0;"/><path d="M329,141 Q329.2031,140.5 329.4375,140.25 Q329.6719,140 329.9375,140 Q330.4063,140 330.7031,140.2813 Q331,140.5625 331,141.2188 L331,142.7813 Q331,143.4375 330.7188,143.7188 Q330.4375,144 330,144 Q329.6094,144 329.3594,143.8281 Q329.1094,143.6563 329,143.2031 Q328.9531,142.8906 328.7813,142.7188 Q328.4688,142.3906 327.9063,142.2031 Q327.3438,142 326.7813,142 Q326.0781,142 325.4844,142.2813 Q324.9063,142.5625 324.4531,143.1875 Q324,143.8125 324,144.6719 L324,145.5938 Q324,146.625 324.8438,147.3125 Q325.6875,148 327.1875,148 Q328.0781,148 328.7031,147.7969 Q329.0625,147.6875 329.4688,147.3281 Q329.7344,147.125 329.875,147.0625 Q330.0156,147 330.1875,147 Q330.5156,147 330.75,147.2656 Q331,147.5156 331,147.875 Q331,148.2188 330.6563,148.625 Q330.1563,149.2188 329.3594,149.5469 Q328.3125,150 327.0313,150 Q325.5313,150 324.3281,149.4063 Q323.3594,148.9375 322.6719,147.9219 Q322,146.9063 322,145.7031 L322,144.6094 Q322,143.3594 322.5938,142.2656 Q323.2031,141.1719 324.25,140.5938 Q325.3125,140 326.5,140 Q327.2188,140 327.8438,140.25 Q328.4688,140.5 329,141 Z " fill="#000000"/><text fill="#000000" font-family="sans-serif" font-size="12" lengthAdjust="spacing" textLength="85" x="341" y="149.4102">TestListMapper</text><line style="stroke:#A80036;stroke-width:1.5;" x1="313" x2="428" y1="160.5" y2="160.5"/><line style="stroke:#A80036;stroke-width:1.5;" x1="313" x2="428" y1="168.5" y2="168.5"/><rect fill="#F24D5C" height="6" style="stroke:#C82930;stroke-width:1.0;" width="6" x="320" y="176.5"/><text fill="#000000" font-family="sans-serif" font-size="11" lengthAdjust="spacing" textLength="41" x="332" y="183.9189">toDTO(t)</text><ellipse cx="323" cy="193.3359" fill="#84BE84" rx="3" ry="3" style="stroke:#038048;stroke-width:1.0;"/><text fill="#000000" font-family="sans-serif" font-size="11" lengthAdjust="spacing" textLength="58" x="332" y="197.7549">toDTO(tList)</text><!--MD5=[9fb704ffefcaf68bf1a361787afa998b]
class TestDTO--><rect codeLine="19" fill="#FEFECE" filter="url(#f156ilyye40kn3)" height="75.6719" id="TestDTO" style="stroke:#A80036;stroke-width:1.5;" width="126" x="464.5" y="128.5"/><ellipse cx="499.75" cy="144.5" fill="#ADD1B2" rx="11" ry="11" style="stroke:#A80036;stroke-width:1.0;"/><path d="M501.75,141 Q501.9531,140.5 502.1875,140.25 Q502.4219,140 502.6875,140 Q503.1563,140 503.4531,140.2813 Q503.75,140.5625 503.75,141.2188 L503.75,142.7813 Q503.75,143.4375 503.4688,143.7188 Q503.1875,144 502.75,144 Q502.3594,144 502.1094,143.8281 Q501.8594,143.6563 501.75,143.2031 Q501.7031,142.8906 501.5313,142.7188 Q501.2188,142.3906 500.6563,142.2031 Q500.0938,142 499.5313,142 Q498.8281,142 498.2344,142.2813 Q497.6563,142.5625 497.2031,143.1875 Q496.75,143.8125 496.75,144.6719 L496.75,145.5938 Q496.75,146.625 497.5938,147.3125 Q498.4375,148 499.9375,148 Q500.8281,148 501.4531,147.7969 Q501.8125,147.6875 502.2188,147.3281 Q502.4844,147.125 502.625,147.0625 Q502.7656,147 502.9375,147 Q503.2656,147 503.5,147.2656 Q503.75,147.5156 503.75,147.875 Q503.75,148.2188 503.4063,148.625 Q502.9063,149.2188 502.1094,149.5469 Q501.0625,150 499.7813,150 Q498.2813,150 497.0781,149.4063 Q496.1094,148.9375 495.4219,147.9219 Q494.75,146.9063 494.75,145.7031 L494.75,144.6094 Q494.75,143.3594 495.3438,142.2656 Q495.9531,141.1719 497,140.5938 Q498.0625,140 499.25,140 Q499.9688,140 500.5938,140.25 Q501.2188,140.5 501.75,141 Z " fill="#000000"/><text fill="#000000" font-family="sans-serif" font-size="12" lengthAdjust="spacing" textLength="49" x="518.25" y="149.4102">TestDTO</text><line style="stroke:#A80036;stroke-width:1.5;" x1="465.5" x2="589.5" y1="160.5" y2="160.5"/><line style="stroke:#A80036;stroke-width:1.5;" x1="465.5" x2="589.5" y1="168.5" y2="168.5"/><ellipse cx="475.5" cy="179.5" fill="#84BE84" rx="3" ry="3" style="stroke:#038048;stroke-width:1.0;"/><text fill="#000000" font-family="sans-serif" font-size="11" lengthAdjust="spacing" textLength="100" x="484.5" y="183.9189">getTestNhsNumber()</text><ellipse cx="475.5" cy="193.3359" fill="#84BE84" rx="3" ry="3" style="stroke:#038048;stroke-width:1.0;"/><text fill="#000000" font-family="sans-serif" font-size="11" lengthAdjust="spacing" textLength="69" x="484.5" y="197.7549">getTestCode()</text><!--MD5=[df38be88ccee13e832d6fafd6288a4ca]
class Test--><rect codeLine="24" fill="#FEFECE" filter="url(#f156ilyye40kn3)" height="186.3594" id="Test" style="stroke:#A80036;stroke-width:1.5;" width="179" x="7" y="278"/><ellipse cx="80.25" cy="294" fill="#ADD1B2" rx="11" ry="11" style="stroke:#A80036;stroke-width:1.0;"/><path d="M82.25,290.5 Q82.4531,290 82.6875,289.75 Q82.9219,289.5 83.1875,289.5 Q83.6563,289.5 83.9531,289.7813 Q84.25,290.0625 84.25,290.7188 L84.25,292.2813 Q84.25,292.9375 83.9688,293.2188 Q83.6875,293.5 83.25,293.5 Q82.8594,293.5 82.6094,293.3281 Q82.3594,293.1563 82.25,292.7031 Q82.2031,292.3906 82.0313,292.2188 Q81.7188,291.8906 81.1563,291.7031 Q80.5938,291.5 80.0313,291.5 Q79.3281,291.5 78.7344,291.7813 Q78.1563,292.0625 77.7031,292.6875 Q77.25,293.3125 77.25,294.1719 L77.25,295.0938 Q77.25,296.125 78.0938,296.8125 Q78.9375,297.5 80.4375,297.5 Q81.3281,297.5 81.9531,297.2969 Q82.3125,297.1875 82.7188,296.8281 Q82.9844,296.625 83.125,296.5625 Q83.2656,296.5 83.4375,296.5 Q83.7656,296.5 84,296.7656 Q84.25,297.0156 84.25,297.375 Q84.25,297.7188 83.9063,298.125 Q83.4063,298.7188 82.6094,299.0469 Q81.5625,299.5 80.2813,299.5 Q78.7813,299.5 77.5781,298.9063 Q76.6094,298.4375 75.9219,297.4219 Q75.25,296.4063 75.25,295.2031 L75.25,294.1094 Q75.25,292.8594 75.8438,291.7656 Q76.4531,290.6719 77.5,290.0938 Q78.5625,289.5 79.75,289.5 Q80.4688,289.5 81.0938,289.75 Q81.7188,290 82.25,290.5 Z " fill="#000000"/><text fill="#000000" font-family="sans-serif" font-size="12" lengthAdjust="spacing" textLength="24" x="100.75" y="298.9102">Test</text><line style="stroke:#A80036;stroke-width:1.5;" x1="8" x2="185" y1="310" y2="310"/><rect fill="none" height="6" style="stroke:#C82930;stroke-width:1.0;" width="6" x="15" y="318"/><text fill="#000000" font-family="sans-serif" font-size="11" lengthAdjust="spacing" textLength="27" x="27" y="325.4189">state;</text><rect fill="none" height="6" style="stroke:#C82930;stroke-width:1.0;" width="6" x="15" y="331.8359"/><text fill="#000000" font-family="sans-serif" font-size="11" lengthAdjust="spacing" textLength="43" x="27" y="339.2549">testCode</text><rect fill="none" height="6" style="stroke:#C82930;stroke-width:1.0;" width="6" x="15" y="345.6719"/><text fill="#000000" font-family="sans-serif" font-size="11" lengthAdjust="spacing" textLength="74" x="27" y="353.0908">testNhsNumber</text><rect fill="none" height="6" style="stroke:#C82930;stroke-width:1.0;" width="6" x="15" y="359.5078"/><text fill="#000000" font-family="sans-serif" font-size="11" lengthAdjust="spacing" textLength="39" x="27" y="366.9268">clientTin</text><rect fill="none" height="6" style="stroke:#C82930;stroke-width:1.0;" width="6" x="15" y="373.3438"/><text fill="#000000" font-family="sans-serif" font-size="11" lengthAdjust="spacing" textLength="42" x="27" y="380.7627">testType</text><rect fill="none" height="6" style="stroke:#C82930;stroke-width:1.0;" width="6" x="15" y="387.1797"/><text fill="#000000" font-family="sans-serif" font-size="11" lengthAdjust="spacing" textLength="48" x="27" y="394.5986">testParam</text><rect fill="none" height="6" style="stroke:#C82930;stroke-width:1.0;" width="6" x="15" y="401.0156"/><text fill="#000000" font-family="sans-serif" font-size="11" lengthAdjust="spacing" textLength="59" x="27" y="408.4346">createdDate</text><rect fill="none" height="6" style="stroke:#C82930;stroke-width:1.0;" width="6" x="15" y="414.8516"/><text fill="#000000" font-family="sans-serif" font-size="11" lengthAdjust="spacing" textLength="94" x="27" y="422.2705">sampleCreatedDate</text><line style="stroke:#A80036;stroke-width:1.5;" x1="8" x2="185" y1="428.6875" y2="428.6875"/><ellipse cx="18" cy="439.6875" fill="#84BE84" rx="3" ry="3" style="stroke:#038048;stroke-width:1.0;"/><text fill="#000000" font-family="sans-serif" font-size="11" lengthAdjust="spacing" textLength="153" x="27" y="444.1064">createReport(TestID, diagnosis)</text><ellipse cx="18" cy="453.5234" fill="#84BE84" rx="3" ry="3" style="stroke:#038048;stroke-width:1.0;"/><text fill="#000000" font-family="sans-serif" font-size="11" lengthAdjust="spacing" textLength="93" x="27" y="457.9424">saveReport(report)</text><!--MD5=[0f6f7964b844a64b0496af0dda7914bd]
class TestStore--><rect codeLine="38" fill="#FEFECE" filter="url(#f156ilyye40kn3)" height="75.6719" id="TestStore" style="stroke:#A80036;stroke-width:1.5;" width="151" x="221" y="333"/><ellipse cx="265.75" cy="349" fill="#ADD1B2" rx="11" ry="11" style="stroke:#A80036;stroke-width:1.0;"/><path d="M267.75,345.5 Q267.9531,345 268.1875,344.75 Q268.4219,344.5 268.6875,344.5 Q269.1563,344.5 269.4531,344.7813 Q269.75,345.0625 269.75,345.7188 L269.75,347.2813 Q269.75,347.9375 269.4688,348.2188 Q269.1875,348.5 268.75,348.5 Q268.3594,348.5 268.1094,348.3281 Q267.8594,348.1563 267.75,347.7031 Q267.7031,347.3906 267.5313,347.2188 Q267.2188,346.8906 266.6563,346.7031 Q266.0938,346.5 265.5313,346.5 Q264.8281,346.5 264.2344,346.7813 Q263.6563,347.0625 263.2031,347.6875 Q262.75,348.3125 262.75,349.1719 L262.75,350.0938 Q262.75,351.125 263.5938,351.8125 Q264.4375,352.5 265.9375,352.5 Q266.8281,352.5 267.4531,352.2969 Q267.8125,352.1875 268.2188,351.8281 Q268.4844,351.625 268.625,351.5625 Q268.7656,351.5 268.9375,351.5 Q269.2656,351.5 269.5,351.7656 Q269.75,352.0156 269.75,352.375 Q269.75,352.7188 269.4063,353.125 Q268.9063,353.7188 268.1094,354.0469 Q267.0625,354.5 265.7813,354.5 Q264.2813,354.5 263.0781,353.9063 Q262.1094,353.4375 261.4219,352.4219 Q260.75,351.4063 260.75,350.2031 L260.75,349.1094 Q260.75,347.8594 261.3438,346.7656 Q261.9531,345.6719 263,345.0938 Q264.0625,344.5 265.25,344.5 Q265.9688,344.5 266.5938,344.75 Q267.2188,345 267.75,345.5 Z " fill="#000000"/><text fill="#000000" font-family="sans-serif" font-size="12" lengthAdjust="spacing" textLength="53" x="286.25" y="353.9102">TestStore</text><line style="stroke:#A80036;stroke-width:1.5;" x1="222" x2="371" y1="365" y2="365"/><rect fill="none" height="6" style="stroke:#C82930;stroke-width:1.0;" width="6" x="229" y="373"/><text fill="#000000" font-family="sans-serif" font-size="11" lengthAdjust="spacing" textLength="35" x="241" y="380.4189">testList</text><line style="stroke:#A80036;stroke-width:1.5;" x1="222" x2="371" y1="386.8359" y2="386.8359"/><ellipse cx="232" cy="397.8359" fill="#84BE84" rx="3" ry="3" style="stroke:#038048;stroke-width:1.0;"/><text fill="#000000" font-family="sans-serif" font-size="11" lengthAdjust="spacing" textLength="125" x="241" y="402.2549">getListOfTestsAnalysed()</text><!--MD5=[f00dbe8c0302c6aec2cb26b3c659c8fc]
class Report--><rect codeLine="43" fill="#FEFECE" filter="url(#f156ilyye40kn3)" height="75.6719" id="Report" style="stroke:#A80036;stroke-width:1.5;" width="72" x="60.5" y="524"/><ellipse cx="76.85" cy="540" fill="#ADD1B2" rx="11" ry="11" style="stroke:#A80036;stroke-width:1.0;"/><path d="M78.85,536.5 Q79.0531,536 79.2875,535.75 Q79.5219,535.5 79.7875,535.5 Q80.2563,535.5 80.5531,535.7813 Q80.85,536.0625 80.85,536.7188 L80.85,538.2813 Q80.85,538.9375 80.5688,539.2188 Q80.2875,539.5 79.85,539.5 Q79.4594,539.5 79.2094,539.3281 Q78.9594,539.1563 78.85,538.7031 Q78.8031,538.3906 78.6313,538.2188 Q78.3188,537.8906 77.7563,537.7031 Q77.1938,537.5 76.6313,537.5 Q75.9281,537.5 75.3344,537.7813 Q74.7563,538.0625 74.3031,538.6875 Q73.85,539.3125 73.85,540.1719 L73.85,541.0938 Q73.85,542.125 74.6938,542.8125 Q75.5375,543.5 77.0375,543.5 Q77.9281,543.5 78.5531,543.2969 Q78.9125,543.1875 79.3188,542.8281 Q79.5844,542.625 79.725,542.5625 Q79.8656,542.5 80.0375,542.5 Q80.3656,542.5 80.6,542.7656 Q80.85,543.0156 80.85,543.375 Q80.85,543.7188 80.5063,544.125 Q80.0063,544.7188 79.2094,545.0469 Q78.1625,545.5 76.8813,545.5 Q75.3813,545.5 74.1781,544.9063 Q73.2094,544.4375 72.5219,543.4219 Q71.85,542.4063 71.85,541.2031 L71.85,540.1094 Q71.85,538.8594 72.4438,537.7656 Q73.0531,536.6719 74.1,536.0938 Q75.1625,535.5 76.35,535.5 Q77.0688,535.5 77.6938,535.75 Q78.3188,536 78.85,536.5 Z " fill="#000000"/><text fill="#000000" font-family="sans-serif" font-size="12" lengthAdjust="spacing" textLength="37" x="91.15" y="544.9102">Report</text><line style="stroke:#A80036;stroke-width:1.5;" x1="61.5" x2="131.5" y1="556" y2="556"/><rect fill="none" height="6" style="stroke:#C82930;stroke-width:1.0;" width="6" x="68.5" y="564"/><text fill="#000000" font-family="sans-serif" font-size="11" lengthAdjust="spacing" textLength="30" x="80.5" y="571.4189">TestID</text><rect fill="none" height="6" style="stroke:#C82930;stroke-width:1.0;" width="6" x="68.5" y="577.8359"/><text fill="#000000" font-family="sans-serif" font-size="11" lengthAdjust="spacing" textLength="46" x="80.5" y="585.2549">diagnosis</text><line style="stroke:#A80036;stroke-width:1.5;" x1="61.5" x2="131.5" y1="591.6719" y2="591.6719"/><!--MD5=[1d70569218baf2d503ca66c6410bd51d]
link CreateReportUI to CreateReportController--><path codeLine="49" d="M196.5,55.25 C196.5,70.28 196.5,90.51 196.5,109.53 " fill="none" id="CreateReportUI-to-CreateReportController" style="stroke:#A80036;stroke-width:1.0;stroke-dasharray:7.0,7.0;"/><polygon fill="#A80036" points="196.5,114.86,200.5,105.86,196.5,109.86,192.5,105.86,196.5,114.86" style="stroke:#A80036;stroke-width:1.0;"/><!--MD5=[9dfac1a09f74e57ded70636b7f69c05a]
link CreateReportController to TestListMapper--><path codeLine="50" d="M276.7,166.5 C286.69,166.5 296.67,166.5 306.66,166.5 " fill="none" id="CreateReportController-to-TestListMapper" style="stroke:#A80036;stroke-width:1.0;stroke-dasharray:7.0,7.0;"/><polygon fill="#A80036" points="311.88,166.5,302.88,162.5,306.88,166.5,302.88,170.5,311.88,166.5" style="stroke:#A80036;stroke-width:1.0;"/><!--MD5=[7db061748e01cd9cfc8feeaf5010600e]
link TestListMapper to TestDTO--><path codeLine="51" d="M429.07,166.5 C439.11,166.5 449.15,166.5 459.19,166.5 " fill="none" id="TestListMapper-to-TestDTO" style="stroke:#A80036;stroke-width:1.0;stroke-dasharray:7.0,7.0;"/><polygon fill="#A80036" points="464.44,166.5,455.44,162.5,459.44,166.5,455.44,170.5,464.44,166.5" style="stroke:#A80036;stroke-width:1.0;"/><!--MD5=[58d91bfd330841dcaf8fffaf6602c008]
link CreateReportController to Test--><path codeLine="52" d="M171.52,218.08 C163.26,234.82 153.76,254.04 144.37,273.07 " fill="none" id="CreateReportController-to-Test" style="stroke:#A80036;stroke-width:1.0;stroke-dasharray:7.0,7.0;"/><polygon fill="#A80036" points="141.98,277.9,149.5585,271.6099,144.1989,273.4193,142.3894,268.0597,141.98,277.9" style="stroke:#A80036;stroke-width:1.0;"/><!--MD5=[90646ec4bd93ed3a1114e446f07491bf]
link CreateReportController to TestStore--><path codeLine="53" d="M221.48,218.08 C238.24,252.02 260.06,296.2 275.84,328.16 " fill="none" id="CreateReportController-to-TestStore" style="stroke:#A80036;stroke-width:1.0;stroke-dasharray:7.0,7.0;"/><polygon fill="#A80036" points="278.12,332.78,277.7231,322.9391,275.9068,328.2965,270.5495,326.4803,278.12,332.78" style="stroke:#A80036;stroke-width:1.0;"/><!--MD5=[72163acd41df4db10e2bb78c0e4b52d4]
link Test to Report--><path codeLine="54" d="M96.5,464.01 C96.5,483.07 96.5,502.27 96.5,518.49 " fill="none" id="Test-to-Report" style="stroke:#A80036;stroke-width:1.0;"/><polygon fill="#A80036" points="96.5,523.88,100.5,514.88,96.5,518.88,92.5,514.88,96.5,523.88" style="stroke:#A80036;stroke-width:1.0;"/><!--MD5=[d9864c46fbe4c48cafd73ac6c631f906]
@startuml

class CreateReportUI {

}

class CreateReportController{
+getTestList(testID)
+getResult()
+createReport()
+saveReport(report)

}

class TestListMapper{
-toDTO(t)
+toDTO(tList)
}

class TestDTO{
+getTestNhsNumber()
+getTestCode()
}

class Test{
-state;
-testCode
-testNhsNumber
-clientTin
-testType
-testParam
-createdDate
-sampleCreatedDate

+createReport(TestID, diagnosis)
+saveReport(report)
 }

class TestStore{
-testList
+getListOfTestsAnalysed()
}

class Report{
-TestID
-diagnosis

}

CreateReportUI ..> CreateReportController
CreateReportController .> TestListMapper
TestListMapper .> TestDTO
CreateReportController ..> Test
CreateReportController ..> TestStore
Test - -> Report

@enduml

PlantUML version 1.2021.4(Sun Apr 04 09:49:39 BST 2021)
(GPL source distribution)
Java Runtime: OpenJDK Runtime Environment
JVM: OpenJDK 64-Bit Server VM
Default Encoding: Cp1252
Language: en
Country: US
--></g></svg>