<?xml version="1.0" encoding="UTF-8" standalone="no"?><svg xmlns="http://www.w3.org/2000/svg" xmlns:xlink="http://www.w3.org/1999/xlink" contentScriptType="application/ecmascript" contentStyleType="text/css" height="205px" preserveAspectRatio="none" style="width:455px;height:205px;" version="1.1" viewBox="0 0 455 205" width="455px" zoomAndPan="magnify"><defs><filter height="300%" id="frlf71hp2hd6q" width="300%" x="-1" y="-1"><feGaussianBlur result="blurOut" stdDeviation="2.0"/><feColorMatrix in="blurOut" result="blurOut2" type="matrix" values="0 0 0 0 0 0 0 0 0 0 0 0 0 0 0 0 0 0 .4 0"/><feOffset dx="4.0" dy="4.0" in="blurOut2" result="blurOut3"/><feBlend in="SourceGraphic" in2="blurOut3" mode="normal"/></filter></defs><g><!--MD5=[7d96fd15f3014691d2fcaf89c5791e2a]
class SpecialistDoctor--><rect codeLine="6" fill="#FEFECE" filter="url(#frlf71hp2hd6q)" height="40" id="SpecialistDoctor" style="stroke:#A80036;stroke-width:1.5;" width="122" x="7" y="83"/><ellipse cx="22" cy="99" fill="#ADD1B2" rx="11" ry="11" style="stroke:#A80036;stroke-width:1.0;"/><path d="M24,95.5 Q24.2031,95 24.4375,94.75 Q24.6719,94.5 24.9375,94.5 Q25.4063,94.5 25.7031,94.7813 Q26,95.0625 26,95.7188 L26,97.2813 Q26,97.9375 25.7188,98.2188 Q25.4375,98.5 25,98.5 Q24.6094,98.5 24.3594,98.3281 Q24.1094,98.1563 24,97.7031 Q23.9531,97.3906 23.7813,97.2188 Q23.4688,96.8906 22.9063,96.7031 Q22.3438,96.5 21.7813,96.5 Q21.0781,96.5 20.4844,96.7813 Q19.9063,97.0625 19.4531,97.6875 Q19,98.3125 19,99.1719 L19,100.0938 Q19,101.125 19.8438,101.8125 Q20.6875,102.5 22.1875,102.5 Q23.0781,102.5 23.7031,102.2969 Q24.0625,102.1875 24.4688,101.8281 Q24.7344,101.625 24.875,101.5625 Q25.0156,101.5 25.1875,101.5 Q25.5156,101.5 25.75,101.7656 Q26,102.0156 26,102.375 Q26,102.7188 25.6563,103.125 Q25.1563,103.7188 24.3594,104.0469 Q23.3125,104.5 22.0313,104.5 Q20.5313,104.5 19.3281,103.9063 Q18.3594,103.4375 17.6719,102.4219 Q17,101.4063 17,100.2031 L17,99.1094 Q17,97.8594 17.5938,96.7656 Q18.2031,95.6719 19.25,95.0938 Q20.3125,94.5 21.5,94.5 Q22.2188,94.5 22.8438,94.75 Q23.4688,95 24,95.5 Z " fill="#000000"/><text fill="#000000" font-family="sans-serif" font-size="12" lengthAdjust="spacing" textLength="90" x="36" y="103.9102">SpecialistDoctor</text><line style="stroke:#A80036;stroke-width:1.5;" x1="8" x2="128" y1="115" y2="115"/><!--MD5=[f00dbe8c0302c6aec2cb26b3c659c8fc]
class Report--><rect codeLine="9" fill="#FEFECE" filter="url(#frlf71hp2hd6q)" height="81.5078" id="Report" style="stroke:#A80036;stroke-width:1.5;" width="73" x="250" y="7"/><ellipse cx="266.8" cy="23" fill="#ADD1B2" rx="11" ry="11" style="stroke:#A80036;stroke-width:1.0;"/><path d="M268.8,19.5 Q269.0031,19 269.2375,18.75 Q269.4719,18.5 269.7375,18.5 Q270.2063,18.5 270.5031,18.7813 Q270.8,19.0625 270.8,19.7188 L270.8,21.2813 Q270.8,21.9375 270.5188,22.2188 Q270.2375,22.5 269.8,22.5 Q269.4094,22.5 269.1594,22.3281 Q268.9094,22.1563 268.8,21.7031 Q268.7531,21.3906 268.5813,21.2188 Q268.2688,20.8906 267.7063,20.7031 Q267.1438,20.5 266.5813,20.5 Q265.8781,20.5 265.2844,20.7813 Q264.7063,21.0625 264.2531,21.6875 Q263.8,22.3125 263.8,23.1719 L263.8,24.0938 Q263.8,25.125 264.6438,25.8125 Q265.4875,26.5 266.9875,26.5 Q267.8781,26.5 268.5031,26.2969 Q268.8625,26.1875 269.2688,25.8281 Q269.5344,25.625 269.675,25.5625 Q269.8156,25.5 269.9875,25.5 Q270.3156,25.5 270.55,25.7656 Q270.8,26.0156 270.8,26.375 Q270.8,26.7188 270.4563,27.125 Q269.9563,27.7188 269.1594,28.0469 Q268.1125,28.5 266.8313,28.5 Q265.3313,28.5 264.1281,27.9063 Q263.1594,27.4375 262.4719,26.4219 Q261.8,25.4063 261.8,24.2031 L261.8,23.1094 Q261.8,21.8594 262.3938,20.7656 Q263.0031,19.6719 264.05,19.0938 Q265.1125,18.5 266.3,18.5 Q267.0188,18.5 267.6438,18.75 Q268.2688,19 268.8,19.5 Z " fill="#000000"/><text fill="#000000" font-family="sans-serif" font-size="12" lengthAdjust="spacing" textLength="37" x="281.2" y="27.9102">Report</text><line style="stroke:#A80036;stroke-width:1.5;" x1="251" x2="322" y1="39" y2="39"/><text fill="#000000" font-family="sans-serif" font-size="11" lengthAdjust="spacing" textLength="30" x="256" y="54.4189">TestID</text><text fill="#000000" font-family="sans-serif" font-size="11" lengthAdjust="spacing" textLength="26" x="256" y="68.2549">Client</text><text fill="#000000" font-family="sans-serif" font-size="11" lengthAdjust="spacing" textLength="61" x="256" y="82.0908">Doctor's text</text><!--MD5=[df38be88ccee13e832d6fafd6288a4ca]
class Test--><rect codeLine="15" fill="#FEFECE" filter="url(#frlf71hp2hd6q)" height="53.8359" id="Test" style="stroke:#A80036;stroke-width:1.5;" width="56" x="385" y="77"/><ellipse cx="400" cy="93" fill="#ADD1B2" rx="11" ry="11" style="stroke:#A80036;stroke-width:1.0;"/><path d="M402,89.5 Q402.2031,89 402.4375,88.75 Q402.6719,88.5 402.9375,88.5 Q403.4063,88.5 403.7031,88.7813 Q404,89.0625 404,89.7188 L404,91.2813 Q404,91.9375 403.7188,92.2188 Q403.4375,92.5 403,92.5 Q402.6094,92.5 402.3594,92.3281 Q402.1094,92.1563 402,91.7031 Q401.9531,91.3906 401.7813,91.2188 Q401.4688,90.8906 400.9063,90.7031 Q400.3438,90.5 399.7813,90.5 Q399.0781,90.5 398.4844,90.7813 Q397.9063,91.0625 397.4531,91.6875 Q397,92.3125 397,93.1719 L397,94.0938 Q397,95.125 397.8438,95.8125 Q398.6875,96.5 400.1875,96.5 Q401.0781,96.5 401.7031,96.2969 Q402.0625,96.1875 402.4688,95.8281 Q402.7344,95.625 402.875,95.5625 Q403.0156,95.5 403.1875,95.5 Q403.5156,95.5 403.75,95.7656 Q404,96.0156 404,96.375 Q404,96.7188 403.6563,97.125 Q403.1563,97.7188 402.3594,98.0469 Q401.3125,98.5 400.0313,98.5 Q398.5313,98.5 397.3281,97.9063 Q396.3594,97.4375 395.6719,96.4219 Q395,95.4063 395,94.2031 L395,93.1094 Q395,91.8594 395.5938,90.7656 Q396.2031,89.6719 397.25,89.0938 Q398.3125,88.5 399.5,88.5 Q400.2188,88.5 400.8438,88.75 Q401.4688,89 402,89.5 Z " fill="#000000"/><text fill="#000000" font-family="sans-serif" font-size="12" lengthAdjust="spacing" textLength="24" x="414" y="97.9102">Test</text><line style="stroke:#A80036;stroke-width:1.5;" x1="386" x2="440" y1="109" y2="109"/><text fill="#000000" font-family="sans-serif" font-size="11" lengthAdjust="spacing" textLength="30" x="391" y="124.4189">TestID</text><!--MD5=[f856f85595ce4f8bf435bc42f531c692]
class Results--><rect codeLine="19" fill="#FEFECE" filter="url(#frlf71hp2hd6q)" height="67.6719" id="Results" style="stroke:#A80036;stroke-width:1.5;" width="75" x="249" y="124"/><ellipse cx="264" cy="140" fill="#ADD1B2" rx="11" ry="11" style="stroke:#A80036;stroke-width:1.0;"/><path d="M266,136.5 Q266.2031,136 266.4375,135.75 Q266.6719,135.5 266.9375,135.5 Q267.4063,135.5 267.7031,135.7813 Q268,136.0625 268,136.7188 L268,138.2813 Q268,138.9375 267.7188,139.2188 Q267.4375,139.5 267,139.5 Q266.6094,139.5 266.3594,139.3281 Q266.1094,139.1563 266,138.7031 Q265.9531,138.3906 265.7813,138.2188 Q265.4688,137.8906 264.9063,137.7031 Q264.3438,137.5 263.7813,137.5 Q263.0781,137.5 262.4844,137.7813 Q261.9063,138.0625 261.4531,138.6875 Q261,139.3125 261,140.1719 L261,141.0938 Q261,142.125 261.8438,142.8125 Q262.6875,143.5 264.1875,143.5 Q265.0781,143.5 265.7031,143.2969 Q266.0625,143.1875 266.4688,142.8281 Q266.7344,142.625 266.875,142.5625 Q267.0156,142.5 267.1875,142.5 Q267.5156,142.5 267.75,142.7656 Q268,143.0156 268,143.375 Q268,143.7188 267.6563,144.125 Q267.1563,144.7188 266.3594,145.0469 Q265.3125,145.5 264.0313,145.5 Q262.5313,145.5 261.3281,144.9063 Q260.3594,144.4375 259.6719,143.4219 Q259,142.4063 259,141.2031 L259,140.1094 Q259,138.8594 259.5938,137.7656 Q260.2031,136.6719 261.25,136.0938 Q262.3125,135.5 263.5,135.5 Q264.2188,135.5 264.8438,135.75 Q265.4688,136 266,136.5 Z " fill="#000000"/><text fill="#000000" font-family="sans-serif" font-size="12" lengthAdjust="spacing" textLength="43" x="278" y="144.9102">Results</text><line style="stroke:#A80036;stroke-width:1.5;" x1="250" x2="323" y1="156" y2="156"/><text fill="#000000" font-family="sans-serif" font-size="11" lengthAdjust="spacing" textLength="30" x="255" y="171.4189">TestID</text><text fill="#000000" font-family="sans-serif" font-size="11" lengthAdjust="spacing" textLength="26" x="255" y="185.2549">Client</text><!--MD5=[30986eb9547a17a7d69613c4e4ec0900]
link SpecialistDoctor to Results--><path codeLine="24" d="M129.02,118.25 C167.44,128.01 216.04,140.36 248.81,148.68 " fill="none" id="SpecialistDoctor-Results" style="stroke:#A80036;stroke-width:1.0;"/><polygon fill="#000000" points="168.8461,120.4068,160.803,115.3314,159.3558,121.0283,168.8461,120.4068" style="stroke:#000000;stroke-width:1.0;"/><text fill="#000000" font-family="sans-serif" font-size="13" lengthAdjust="spacing" textLength="45" x="173" y="124.4951">analyse</text><!--MD5=[35c5d5b78cc27fdb07caaeeaa436e174]
link SpecialistDoctor to Report--><path codeLine="25" d="M129.02,87.75 C167.81,77.9 216.99,65.4 249.76,57.08 " fill="none" id="SpecialistDoctor-Report" style="stroke:#A80036;stroke-width:1.0;"/><polygon fill="#000000" points="177.8461,55.9448,168.3559,55.3232,169.803,61.0201,177.8461,55.9448" style="stroke:#000000;stroke-width:1.0;"/><text fill="#000000" font-family="sans-serif" font-size="13" lengthAdjust="spacing" textLength="27" x="182" y="62.4951">write</text><!--MD5=[6f4c18357b74a52c8cd2fef95f8fa484]
link Results to Test--><path codeLine="26" d="M324.18,142.09 C343.55,133.69 366.91,123.56 384.67,115.85 " fill="none" id="Results-Test" style="stroke:#A80036;stroke-width:1.0;"/><!--MD5=[63d25d625ab355317a074a623d33bba8]
link Report to Test--><path codeLine="27" d="M323.18,64.05 C342.72,72.84 366.57,83.56 384.63,91.69 " fill="none" id="Report-Test" style="stroke:#A80036;stroke-width:1.0;"/><!--MD5=[11d12fe62c28ffde4a721096dc43e3e9]
@startuml
hide methods
left to right direction
skinparam classAttributeIconSize 0


class SpecialistDoctor {

}
class Report{
TestID
Client
Doctor's text
}

class Test{
TestID
}

class Results{
TestID
Client
}

SpecialistDoctor - - Results: analyse >
SpecialistDoctor - - Report: write >
Results - - Test
Report - - Test





@enduml

PlantUML version 1.2021.4(Sun Apr 04 09:49:39 BST 2021)
(GPL source distribution)
Java Runtime: OpenJDK Runtime Environment
JVM: OpenJDK 64-Bit Server VM
Default Encoding: Cp1252
Language: en
Country: US
--></g></svg>