<?xml version="1.0" encoding="UTF-8" standalone="no"?><svg xmlns="http://www.w3.org/2000/svg" xmlns:xlink="http://www.w3.org/1999/xlink" contentScriptType="application/ecmascript" contentStyleType="text/css" height="462px" preserveAspectRatio="none" style="width:245px;height:462px;" version="1.1" viewBox="0 0 245 462" width="245px" zoomAndPan="magnify"><defs><filter height="300%" id="f7v7i3bxs0xw4" width="300%" x="-1" y="-1"><feGaussianBlur result="blurOut" stdDeviation="2.0"/><feColorMatrix in="blurOut" result="blurOut2" type="matrix" values="0 0 0 0 0 0 0 0 0 0 0 0 0 0 0 0 0 0 .4 0"/><feOffset dx="4.0" dy="4.0" in="blurOut2" result="blurOut3"/><feBlend in="SourceGraphic" in2="blurOut3" mode="normal"/></filter></defs><g><!--MD5=[05ffea613565d111e9c4a041147710d4]
class RecordSampleUI--><rect codeLine="2" fill="#FEFECE" filter="url(#f7v7i3bxs0xw4)" height="48" id="RecordSampleUI" style="stroke:#A80036;stroke-width:1.5;" width="127" x="51" y="7"/><ellipse cx="66" cy="23" fill="#ADD1B2" rx="11" ry="11" style="stroke:#A80036;stroke-width:1.0;"/><path d="M68,19.5 Q68.2031,19 68.4375,18.75 Q68.6719,18.5 68.9375,18.5 Q69.4063,18.5 69.7031,18.7813 Q70,19.0625 70,19.7188 L70,21.2813 Q70,21.9375 69.7188,22.2188 Q69.4375,22.5 69,22.5 Q68.6094,22.5 68.3594,22.3281 Q68.1094,22.1563 68,21.7031 Q67.9531,21.3906 67.7813,21.2188 Q67.4688,20.8906 66.9063,20.7031 Q66.3438,20.5 65.7813,20.5 Q65.0781,20.5 64.4844,20.7813 Q63.9063,21.0625 63.4531,21.6875 Q63,22.3125 63,23.1719 L63,24.0938 Q63,25.125 63.8438,25.8125 Q64.6875,26.5 66.1875,26.5 Q67.0781,26.5 67.7031,26.2969 Q68.0625,26.1875 68.4688,25.8281 Q68.7344,25.625 68.875,25.5625 Q69.0156,25.5 69.1875,25.5 Q69.5156,25.5 69.75,25.7656 Q70,26.0156 70,26.375 Q70,26.7188 69.6563,27.125 Q69.1563,27.7188 68.3594,28.0469 Q67.3125,28.5 66.0313,28.5 Q64.5313,28.5 63.3281,27.9063 Q62.3594,27.4375 61.6719,26.4219 Q61,25.4063 61,24.2031 L61,23.1094 Q61,21.8594 61.5938,20.7656 Q62.2031,19.6719 63.25,19.0938 Q64.3125,18.5 65.5,18.5 Q66.2188,18.5 66.8438,18.75 Q67.4688,19 68,19.5 Z " fill="#000000"/><text fill="#000000" font-family="sans-serif" font-size="12" lengthAdjust="spacing" textLength="95" x="80" y="27.9102">RecordSampleUI</text><line style="stroke:#A80036;stroke-width:1.5;" x1="52" x2="177" y1="39" y2="39"/><line style="stroke:#A80036;stroke-width:1.5;" x1="52" x2="177" y1="47" y2="47"/><!--MD5=[ecb4b8913618184ce1e3f8e48e5e993f]
class RecordSampleController--><rect codeLine="5" fill="#FEFECE" filter="url(#f7v7i3bxs0xw4)" height="75.6719" id="RecordSampleController" style="stroke:#A80036;stroke-width:1.5;" width="169" x="30" y="115"/><ellipse cx="45" cy="131" fill="#ADD1B2" rx="11" ry="11" style="stroke:#A80036;stroke-width:1.0;"/><path d="M47,127.5 Q47.2031,127 47.4375,126.75 Q47.6719,126.5 47.9375,126.5 Q48.4063,126.5 48.7031,126.7813 Q49,127.0625 49,127.7188 L49,129.2813 Q49,129.9375 48.7188,130.2188 Q48.4375,130.5 48,130.5 Q47.6094,130.5 47.3594,130.3281 Q47.1094,130.1563 47,129.7031 Q46.9531,129.3906 46.7813,129.2188 Q46.4688,128.8906 45.9063,128.7031 Q45.3438,128.5 44.7813,128.5 Q44.0781,128.5 43.4844,128.7813 Q42.9063,129.0625 42.4531,129.6875 Q42,130.3125 42,131.1719 L42,132.0938 Q42,133.125 42.8438,133.8125 Q43.6875,134.5 45.1875,134.5 Q46.0781,134.5 46.7031,134.2969 Q47.0625,134.1875 47.4688,133.8281 Q47.7344,133.625 47.875,133.5625 Q48.0156,133.5 48.1875,133.5 Q48.5156,133.5 48.75,133.7656 Q49,134.0156 49,134.375 Q49,134.7188 48.6563,135.125 Q48.1563,135.7188 47.3594,136.0469 Q46.3125,136.5 45.0313,136.5 Q43.5313,136.5 42.3281,135.9063 Q41.3594,135.4375 40.6719,134.4219 Q40,133.4063 40,132.2031 L40,131.1094 Q40,129.8594 40.5938,128.7656 Q41.2031,127.6719 42.25,127.0938 Q43.3125,126.5 44.5,126.5 Q45.2188,126.5 45.8438,126.75 Q46.4688,127 47,127.5 Z " fill="#000000"/><text fill="#000000" font-family="sans-serif" font-size="12" lengthAdjust="spacing" textLength="137" x="59" y="135.9102">RecordSampleController</text><line style="stroke:#A80036;stroke-width:1.5;" x1="31" x2="198" y1="147" y2="147"/><line style="stroke:#A80036;stroke-width:1.5;" x1="31" x2="198" y1="155" y2="155"/><text fill="#000000" font-family="sans-serif" font-size="11" lengthAdjust="spacing" textLength="64" x="36" y="170.4189">getTestList();</text><text fill="#000000" font-family="sans-serif" font-size="11" lengthAdjust="spacing" textLength="67" x="36" y="184.2549">saveSample()</text><!--MD5=[0f6f7964b844a64b0496af0dda7914bd]
class TestStore--><rect codeLine="10" fill="#FEFECE" filter="url(#f7v7i3bxs0xw4)" height="61.8359" id="TestStore" style="stroke:#A80036;stroke-width:1.5;" width="85" x="7" y="258"/><ellipse cx="22" cy="274" fill="#ADD1B2" rx="11" ry="11" style="stroke:#A80036;stroke-width:1.0;"/><path d="M24,270.5 Q24.2031,270 24.4375,269.75 Q24.6719,269.5 24.9375,269.5 Q25.4063,269.5 25.7031,269.7813 Q26,270.0625 26,270.7188 L26,272.2813 Q26,272.9375 25.7188,273.2188 Q25.4375,273.5 25,273.5 Q24.6094,273.5 24.3594,273.3281 Q24.1094,273.1563 24,272.7031 Q23.9531,272.3906 23.7813,272.2188 Q23.4688,271.8906 22.9063,271.7031 Q22.3438,271.5 21.7813,271.5 Q21.0781,271.5 20.4844,271.7813 Q19.9063,272.0625 19.4531,272.6875 Q19,273.3125 19,274.1719 L19,275.0938 Q19,276.125 19.8438,276.8125 Q20.6875,277.5 22.1875,277.5 Q23.0781,277.5 23.7031,277.2969 Q24.0625,277.1875 24.4688,276.8281 Q24.7344,276.625 24.875,276.5625 Q25.0156,276.5 25.1875,276.5 Q25.5156,276.5 25.75,276.7656 Q26,277.0156 26,277.375 Q26,277.7188 25.6563,278.125 Q25.1563,278.7188 24.3594,279.0469 Q23.3125,279.5 22.0313,279.5 Q20.5313,279.5 19.3281,278.9063 Q18.3594,278.4375 17.6719,277.4219 Q17,276.4063 17,275.2031 L17,274.1094 Q17,272.8594 17.5938,271.7656 Q18.2031,270.6719 19.25,270.0938 Q20.3125,269.5 21.5,269.5 Q22.2188,269.5 22.8438,269.75 Q23.4688,270 24,270.5 Z " fill="#000000"/><text fill="#000000" font-family="sans-serif" font-size="12" lengthAdjust="spacing" textLength="53" x="36" y="278.9102">TestStore</text><line style="stroke:#A80036;stroke-width:1.5;" x1="8" x2="91" y1="290" y2="290"/><line style="stroke:#A80036;stroke-width:1.5;" x1="8" x2="91" y1="298" y2="298"/><text fill="#000000" font-family="sans-serif" font-size="11" lengthAdjust="spacing" textLength="64" x="13" y="313.4189">getTestList();</text><!--MD5=[fcd6df96e169c9fc6403c4dc9bdb4d83]
class SampleStore--><rect codeLine="14" fill="#FEFECE" filter="url(#f7v7i3bxs0xw4)" height="75.6719" id="SampleStore" style="stroke:#A80036;stroke-width:1.5;" width="104" x="127.5" y="251"/><ellipse cx="142.5" cy="267" fill="#ADD1B2" rx="11" ry="11" style="stroke:#A80036;stroke-width:1.0;"/><path d="M144.5,263.5 Q144.7031,263 144.9375,262.75 Q145.1719,262.5 145.4375,262.5 Q145.9063,262.5 146.2031,262.7813 Q146.5,263.0625 146.5,263.7188 L146.5,265.2813 Q146.5,265.9375 146.2188,266.2188 Q145.9375,266.5 145.5,266.5 Q145.1094,266.5 144.8594,266.3281 Q144.6094,266.1563 144.5,265.7031 Q144.4531,265.3906 144.2813,265.2188 Q143.9688,264.8906 143.4063,264.7031 Q142.8438,264.5 142.2813,264.5 Q141.5781,264.5 140.9844,264.7813 Q140.4063,265.0625 139.9531,265.6875 Q139.5,266.3125 139.5,267.1719 L139.5,268.0938 Q139.5,269.125 140.3438,269.8125 Q141.1875,270.5 142.6875,270.5 Q143.5781,270.5 144.2031,270.2969 Q144.5625,270.1875 144.9688,269.8281 Q145.2344,269.625 145.375,269.5625 Q145.5156,269.5 145.6875,269.5 Q146.0156,269.5 146.25,269.7656 Q146.5,270.0156 146.5,270.375 Q146.5,270.7188 146.1563,271.125 Q145.6563,271.7188 144.8594,272.0469 Q143.8125,272.5 142.5313,272.5 Q141.0313,272.5 139.8281,271.9063 Q138.8594,271.4375 138.1719,270.4219 Q137.5,269.4063 137.5,268.2031 L137.5,267.1094 Q137.5,265.8594 138.0938,264.7656 Q138.7031,263.6719 139.75,263.0938 Q140.8125,262.5 142,262.5 Q142.7188,262.5 143.3438,262.75 Q143.9688,263 144.5,263.5 Z " fill="#000000"/><text fill="#000000" font-family="sans-serif" font-size="12" lengthAdjust="spacing" textLength="72" x="156.5" y="271.9102">SampleStore</text><line style="stroke:#A80036;stroke-width:1.5;" x1="128.5" x2="230.5" y1="283" y2="283"/><line style="stroke:#A80036;stroke-width:1.5;" x1="128.5" x2="230.5" y1="291" y2="291"/><text fill="#000000" font-family="sans-serif" font-size="11" lengthAdjust="spacing" textLength="70" x="133.5" y="306.4189">saveSample();</text><text fill="#000000" font-family="sans-serif" font-size="11" lengthAdjust="spacing" textLength="83" x="133.5" y="320.2549">validateSample();</text><!--MD5=[9681492165142af2a4a3a169d90ee8d4]
class Sample--><rect codeLine="19" fill="#FEFECE" filter="url(#f7v7i3bxs0xw4)" height="61.8359" id="Sample" style="stroke:#A80036;stroke-width:1.5;" width="82" x="138.5" y="387"/><ellipse cx="156.65" cy="403" fill="#ADD1B2" rx="11" ry="11" style="stroke:#A80036;stroke-width:1.0;"/><path d="M158.65,399.5 Q158.8531,399 159.0875,398.75 Q159.3219,398.5 159.5875,398.5 Q160.0563,398.5 160.3531,398.7813 Q160.65,399.0625 160.65,399.7188 L160.65,401.2813 Q160.65,401.9375 160.3688,402.2188 Q160.0875,402.5 159.65,402.5 Q159.2594,402.5 159.0094,402.3281 Q158.7594,402.1563 158.65,401.7031 Q158.6031,401.3906 158.4313,401.2188 Q158.1188,400.8906 157.5563,400.7031 Q156.9938,400.5 156.4313,400.5 Q155.7281,400.5 155.1344,400.7813 Q154.5563,401.0625 154.1031,401.6875 Q153.65,402.3125 153.65,403.1719 L153.65,404.0938 Q153.65,405.125 154.4938,405.8125 Q155.3375,406.5 156.8375,406.5 Q157.7281,406.5 158.3531,406.2969 Q158.7125,406.1875 159.1188,405.8281 Q159.3844,405.625 159.525,405.5625 Q159.6656,405.5 159.8375,405.5 Q160.1656,405.5 160.4,405.7656 Q160.65,406.0156 160.65,406.375 Q160.65,406.7188 160.3063,407.125 Q159.8063,407.7188 159.0094,408.0469 Q157.9625,408.5 156.6813,408.5 Q155.1813,408.5 153.9781,407.9063 Q153.0094,407.4375 152.3219,406.4219 Q151.65,405.4063 151.65,404.2031 L151.65,403.1094 Q151.65,401.8594 152.2438,400.7656 Q152.8531,399.6719 153.9,399.0938 Q154.9625,398.5 156.15,398.5 Q156.8688,398.5 157.4938,398.75 Q158.1188,399 158.65,399.5 Z " fill="#000000"/><text fill="#000000" font-family="sans-serif" font-size="12" lengthAdjust="spacing" textLength="43" x="171.35" y="407.9102">Sample</text><line style="stroke:#A80036;stroke-width:1.5;" x1="139.5" x2="219.5" y1="419" y2="419"/><line style="stroke:#A80036;stroke-width:1.5;" x1="139.5" x2="219.5" y1="427" y2="427"/><text fill="#000000" font-family="sans-serif" font-size="11" lengthAdjust="spacing" textLength="70" x="144.5" y="442.4189">saveSample();</text><!--MD5=[b07fc2b2aa91da2436cc249a96980d64]
link RecordSampleUI to RecordSampleController--><path codeLine="23" d="M114.5,55.14 C114.5,70.58 114.5,91.33 114.5,109.67 " fill="none" id="RecordSampleUI-to-RecordSampleController" style="stroke:#A80036;stroke-width:1.0;stroke-dasharray:7.0,7.0;"/><polygon fill="#A80036" points="114.5,114.77,118.5,105.77,114.5,109.77,110.5,105.77,114.5,114.77" style="stroke:#A80036;stroke-width:1.0;"/><!--MD5=[5bb931d09ab0aebfaada3d823529a93c]
link RecordSampleController to TestStore--><path codeLine="24" d="M96.39,191.33 C87.04,210.6 75.7,233.98 66.51,252.92 " fill="none" id="RecordSampleController-to-TestStore" style="stroke:#A80036;stroke-width:1.0;stroke-dasharray:7.0,7.0;"/><polygon fill="#A80036" points="64.23,257.64,71.7517,251.2821,66.4086,253.1396,64.5511,247.7964,64.23,257.64" style="stroke:#A80036;stroke-width:1.0;"/><!--MD5=[9510bf5b380887b573b83b1f9ca3e028]
link RecordSampleController to SampleStore--><path codeLine="25" d="M132.61,191.33 C140.85,208.31 150.63,228.49 159.13,246.01 " fill="none" id="RecordSampleController-to-SampleStore" style="stroke:#A80036;stroke-width:1.0;stroke-dasharray:7.0,7.0;"/><polygon fill="#A80036" points="161.49,250.87,161.1559,241.0268,159.3055,246.3725,153.9598,244.522,161.49,250.87" style="stroke:#A80036;stroke-width:1.0;"/><!--MD5=[24da80e03bf7ae3160485df7795f9e59]
link SampleStore to Sample--><path codeLine="26" d="M179.5,327.08 C179.5,344.33 179.5,364.74 179.5,381.76 " fill="none" id="SampleStore-to-Sample" style="stroke:#A80036;stroke-width:1.0;"/><polygon fill="#A80036" points="179.5,386.93,183.5,377.93,179.5,381.93,175.5,377.93,179.5,386.93" style="stroke:#A80036;stroke-width:1.0;"/><!--MD5=[39cc9816489d8adffe0cf0596eb04e9b]
@startuml

class RecordSampleUI{
}

class RecordSampleController{
getTestList();
saveSample()
}

class TestStore{
getTestList();
}

class SampleStore{
saveSample();
validateSample();
}

class Sample{
saveSample();
}

RecordSampleUI ..> RecordSampleController
RecordSampleController ..> TestStore
RecordSampleController ..> SampleStore
SampleStore - -> Sample

@enduml

PlantUML version 1.2021.00(Sun Jan 10 10:25:05 GMT 2021)
(GPL source distribution)
Java Runtime: OpenJDK Runtime Environment
JVM: OpenJDK 64-Bit Server VM
Default Encoding: Cp1252
Language: pt
Country: PT
--></g></svg>