<?xml version="1.0" encoding="UTF-8" standalone="no"?><svg xmlns="http://www.w3.org/2000/svg" xmlns:xlink="http://www.w3.org/1999/xlink" contentScriptType="application/ecmascript" contentStyleType="text/css" height="376px" preserveAspectRatio="none" style="width:345px;height:376px;" version="1.1" viewBox="0 0 345 376" width="345.6px" zoomAndPan="magnify"><defs><filter height="300%" id="f1rmbfb3joib50" width="300%" x="-1" y="-1"><feGaussianBlur result="blurOut" stdDeviation="1.6"/><feColorMatrix in="blurOut" result="blurOut2" type="matrix" values="0 0 0 0 0 0 0 0 0 0 0 0 0 0 0 0 0 0 .4 0"/><feOffset dx="3.2" dy="3.2" in="blurOut2" result="blurOut3"/><feBlend in="SourceGraphic" in2="blurOut3" mode="normal"/></filter></defs><g><rect fill="#FFFFFF" filter="url(#f1rmbfb3joib50)" height="213.7313" style="stroke:#A80036;stroke-width:0.8;" width="8" x="70.8" y="79.6875"/><rect fill="#FFFFFF" filter="url(#f1rmbfb3joib50)" height="24.2813" style="stroke:#A80036;stroke-width:0.8;" width="8" x="295.6" y="97.5688"/><rect fill="#FFFFFF" filter="url(#f1rmbfb3joib50)" height="44.5625" style="stroke:#A80036;stroke-width:0.8;" width="8" x="295.6" y="146.1313"/><rect fill="#FFFFFF" filter="url(#f1rmbfb3joib50)" height="29.8813" style="stroke:#A80036;stroke-width:0.8;" width="8" x="295.6" y="214.975"/><rect fill="#FFFFFF" filter="url(#f1rmbfb3joib50)" height="24.2813" style="stroke:#A80036;stroke-width:0.8;" width="8" x="295.6" y="269.1375"/><rect fill="#FFFFFF" filter="url(#f1rmbfb3joib50)" height="63.2438" style="stroke:#000000;stroke-width:1.6;" width="326.8" x="8" y="158.1313"/><line style="stroke:#A80036;stroke-width:0.8;stroke-dasharray:5.0,5.0;" x1="74.4" x2="74.4" y1="71.6875" y2="307.8188"/><line style="stroke:#A80036;stroke-width:0.8;stroke-dasharray:5.0,5.0;" x1="299.6" x2="299.6" y1="71.6875" y2="307.8188"/><text fill="#000000" font-family="sans-serif" font-size="11.2" lengthAdjust="spacing" textLength="112.8" x="16" y="69.2266">MedicalLabTechnician</text><ellipse cx="74.8" cy="12" fill="#FEFECE" filter="url(#f1rmbfb3joib50)" rx="6.4" ry="6.4" style="stroke:#A80036;stroke-width:1.6;"/><path d="M74.8,18.4 L74.8,40 M64.4,24.8 L85.2,24.8 M74.8,40 L64.4,52 M74.8,40 L85.2,52 " fill="none" filter="url(#f1rmbfb3joib50)" style="stroke:#A80036;stroke-width:1.6;"/><text fill="#000000" font-family="sans-serif" font-size="11.2" lengthAdjust="spacing" textLength="112.8" x="16" y="318.6453">MedicalLabTechnician</text><ellipse cx="74.8" cy="329.1063" fill="#FEFECE" filter="url(#f1rmbfb3joib50)" rx="6.4" ry="6.4" style="stroke:#A80036;stroke-width:1.6;"/><path d="M74.8,335.5063 L74.8,357.1063 M64.4,341.9063 L85.2,341.9063 M74.8,357.1063 L64.4,369.1063 M74.8,357.1063 L85.2,369.1063 " fill="none" filter="url(#f1rmbfb3joib50)" style="stroke:#A80036;stroke-width:1.6;"/><rect fill="#FEFECE" filter="url(#f1rmbfb3joib50)" height="25.2875" style="stroke:#A80036;stroke-width:1.2000000000000002;" width="51.2" x="272.4" y="42.4"/><text fill="#000000" font-family="sans-serif" font-size="11.2" lengthAdjust="spacing" textLength="40" x="278" y="59.6266">:System</text><rect fill="#FEFECE" filter="url(#f1rmbfb3joib50)" height="25.2875" style="stroke:#A80036;stroke-width:1.2000000000000002;" width="51.2" x="272.4" y="307.0188"/><text fill="#000000" font-family="sans-serif" font-size="11.2" lengthAdjust="spacing" textLength="40" x="278" y="324.2453">:System</text><rect fill="#FFFFFF" filter="url(#f1rmbfb3joib50)" height="213.7313" style="stroke:#A80036;stroke-width:0.8;" width="8" x="70.8" y="79.6875"/><rect fill="#FFFFFF" filter="url(#f1rmbfb3joib50)" height="24.2813" style="stroke:#A80036;stroke-width:0.8;" width="8" x="295.6" y="97.5688"/><rect fill="#FFFFFF" filter="url(#f1rmbfb3joib50)" height="44.5625" style="stroke:#A80036;stroke-width:0.8;" width="8" x="295.6" y="146.1313"/><rect fill="#FFFFFF" filter="url(#f1rmbfb3joib50)" height="29.8813" style="stroke:#A80036;stroke-width:0.8;" width="8" x="295.6" y="214.975"/><rect fill="#FFFFFF" filter="url(#f1rmbfb3joib50)" height="24.2813" style="stroke:#A80036;stroke-width:0.8;" width="8" x="295.6" y="269.1375"/><polygon fill="#A80036" points="286,94.3688,294,97.5688,286,100.7688,289.2,97.5688" style="stroke:#A80036;stroke-width:0.8;"/><line style="stroke:#A80036;stroke-width:0.8;" x1="78.8" x2="290.8" y1="97.5688" y2="97.5688"/><text fill="#000000" font-family="sans-serif" font-size="10.4" font-weight="bold" lengthAdjust="spacing" textLength="5.6" x="84.4" y="93.6836">1</text><text fill="#000000" font-family="sans-serif" font-size="10.4" lengthAdjust="spacing" textLength="131.2" x="93.2" y="93.6836">wants to record the samples</text><polygon fill="#A80036" points="87.6,118.65,79.6,121.85,87.6,125.05,84.4,121.85" style="stroke:#A80036;stroke-width:0.8;"/><line style="stroke:#A80036;stroke-width:0.8;stroke-dasharray:2.0,2.0;" x1="82.8" x2="298.8" y1="121.85" y2="121.85"/><text fill="#000000" font-family="sans-serif" font-size="10.4" font-weight="bold" lengthAdjust="spacing" textLength="5.6" x="92.4" y="117.9648">2</text><text fill="#000000" font-family="sans-serif" font-size="10.4" lengthAdjust="spacing" textLength="67.2" x="101.2" y="117.9648">shows test list</text><polygon fill="#A80036" points="286,142.9313,294,146.1313,286,149.3313,289.2,146.1313" style="stroke:#A80036;stroke-width:0.8;"/><line style="stroke:#A80036;stroke-width:0.8;" x1="78.8" x2="290.8" y1="146.1313" y2="146.1313"/><text fill="#000000" font-family="sans-serif" font-size="10.4" font-weight="bold" lengthAdjust="spacing" textLength="5.6" x="84.4" y="142.2461">3</text><text fill="#000000" font-family="sans-serif" font-size="10.4" lengthAdjust="spacing" textLength="54.4" x="93.2" y="142.2461">selects test</text><path d="M8,158.1313 L66.4,158.1313 L66.4,164.5313 L58.4,172.5313 L8,172.5313 L8,158.1313 " fill="#EEEEEE" style="stroke:#000000;stroke-width:0.8;"/><rect fill="none" height="63.2438" style="stroke:#000000;stroke-width:1.6;" width="326.8" x="8" y="158.1313"/><text fill="#000000" font-family="sans-serif" font-size="10.4" font-weight="bold" lengthAdjust="spacing" textLength="22.4" x="20" y="169.7273">loop</text><polygon fill="#A80036" points="87.6,187.4938,79.6,190.6938,87.6,193.8938,84.4,190.6938" style="stroke:#A80036;stroke-width:0.8;"/><line style="stroke:#A80036;stroke-width:0.8;stroke-dasharray:2.0,2.0;" x1="82.8" x2="298.8" y1="190.6938" y2="190.6938"/><text fill="#000000" font-family="sans-serif" font-size="10.4" font-weight="bold" lengthAdjust="spacing" textLength="5.6" x="92.4" y="186.8086">4</text><text fill="#000000" font-family="sans-serif" font-size="10.4" lengthAdjust="spacing" textLength="79.2" x="101.2" y="186.8086">asks for samples</text><polygon fill="#A80036" points="286,211.775,294,214.975,286,218.175,289.2,214.975" style="stroke:#A80036;stroke-width:0.8;"/><line style="stroke:#A80036;stroke-width:0.8;" x1="78.8" x2="290.8" y1="214.975" y2="214.975"/><text fill="#000000" font-family="sans-serif" font-size="10.4" font-weight="bold" lengthAdjust="spacing" textLength="5.6" x="84.4" y="211.0898">5</text><text fill="#000000" font-family="sans-serif" font-size="10.4" lengthAdjust="spacing" textLength="94.4" x="93.2" y="211.0898">records the samples</text><polygon fill="#A80036" points="87.6,241.6563,79.6,244.8563,87.6,248.0563,84.4,244.8563" style="stroke:#A80036;stroke-width:0.8;"/><line style="stroke:#A80036;stroke-width:0.8;stroke-dasharray:2.0,2.0;" x1="82.8" x2="298.8" y1="244.8563" y2="244.8563"/><text fill="#000000" font-family="sans-serif" font-size="10.4" font-weight="bold" lengthAdjust="spacing" textLength="5.6" x="92.4" y="240.9711">6</text><text fill="#000000" font-family="sans-serif" font-size="10.4" lengthAdjust="spacing" textLength="188.8" x="101.2" y="240.9711">shows all data and requests confirmation</text><polygon fill="#A80036" points="286,265.9375,294,269.1375,286,272.3375,289.2,269.1375" style="stroke:#A80036;stroke-width:0.8;"/><line style="stroke:#A80036;stroke-width:0.8;" x1="78.8" x2="290.8" y1="269.1375" y2="269.1375"/><text fill="#000000" font-family="sans-serif" font-size="10.4" font-weight="bold" lengthAdjust="spacing" textLength="5.6" x="84.4" y="265.2523">7</text><text fill="#000000" font-family="sans-serif" font-size="10.4" lengthAdjust="spacing" textLength="80" x="93.2" y="265.2523">confirms the data</text><polygon fill="#A80036" points="83.6,290.2188,75.6,293.4188,83.6,296.6188,80.4,293.4188" style="stroke:#A80036;stroke-width:0.8;"/><line style="stroke:#A80036;stroke-width:0.8;stroke-dasharray:2.0,2.0;" x1="78.8" x2="298.8" y1="293.4188" y2="293.4188"/><text fill="#000000" font-family="sans-serif" font-size="10.4" font-weight="bold" lengthAdjust="spacing" textLength="5.6" x="88.4" y="289.5336">8</text><text fill="#000000" font-family="sans-serif" font-size="10.4" lengthAdjust="spacing" textLength="121.6" x="97.2" y="289.5336">informs operation success</text><!--MD5=[bc6b87ecf71ac1cae58c82282480e6e2]
@startuml

autonumber
actor MedicalLabTechnician as MLT
participant ":System" as S
activate MLT
MLT -> S: wants to record the samples
activate S
S - -> MLT: shows test list
deactivate S
MLT -> S: selects test
activate S
loop
S - -> MLT: asks for samples
deactivate S
MLT -> S: records the samples
activate S
end
S - -> MLT: shows all data and requests confirmation
deactivate S
MLT -> S: confirms the data
activate S
S - -> MLT: informs operation success
deactivate S
deactivate MLT
@enduml

PlantUML version 1.2021.00(Sun Jan 10 10:25:05 GMT 2021)
(GPL source distribution)
Java Runtime: OpenJDK Runtime Environment
JVM: OpenJDK 64-Bit Server VM
Default Encoding: Cp1252
Language: pt
Country: PT
--></g></svg>