<?xml version="1.0" encoding="UTF-8" standalone="no"?><svg xmlns="http://www.w3.org/2000/svg" xmlns:xlink="http://www.w3.org/1999/xlink" contentScriptType="application/ecmascript" contentStyleType="text/css" height="1152px" preserveAspectRatio="none" style="width:1459px;height:1152px;" version="1.1" viewBox="0 0 1459 1152" width="1459px" zoomAndPan="magnify"><defs><filter height="300%" id="f32k45sra14me" width="300%" x="-1" y="-1"><feGaussianBlur result="blurOut" stdDeviation="2.0"/><feColorMatrix in="blurOut" result="blurOut2" type="matrix" values="0 0 0 0 0 0 0 0 0 0 0 0 0 0 0 0 0 0 .4 0"/><feOffset dx="4.0" dy="4.0" in="blurOut2" result="blurOut3"/><feBlend in="SourceGraphic" in2="blurOut3" mode="normal"/></filter></defs><g><rect fill="#FFFFFF" filter="url(#f32k45sra14me)" height="949.0078" style="stroke:#A80036;stroke-width:1.0;" width="10" x="59.5" y="99.6094"/><rect fill="#FFFFFF" filter="url(#f32k45sra14me)" height="138.7578" style="stroke:#A80036;stroke-width:1.0;" width="10" x="397.5" y="121.9609"/><rect fill="#FFFFFF" filter="url(#f32k45sra14me)" height="482.4375" style="stroke:#A80036;stroke-width:1.0;" width="10" x="397.5" y="291.0703"/><rect fill="#FFFFFF" filter="url(#f32k45sra14me)" height="244.7578" style="stroke:#A80036;stroke-width:1.0;" width="10" x="397.5" y="803.8594"/><rect fill="#FFFFFF" filter="url(#f32k45sra14me)" height="78.0547" style="stroke:#A80036;stroke-width:1.0;" width="10" x="573.5" y="152.3125"/><rect fill="#FFFFFF" filter="url(#f32k45sra14me)" height="60.3516" style="stroke:#A80036;stroke-width:1.0;" width="10" x="573.5" y="321.4219"/><rect fill="#FFFFFF" filter="url(#f32k45sra14me)" height="275.3281" style="stroke:#A80036;stroke-width:1.0;" width="10" x="573.5" y="467.8281"/><rect fill="#FFFFFF" filter="url(#f32k45sra14me)" height="170.0547" style="stroke:#A80036;stroke-width:1.0;" width="10" x="573.5" y="834.2109"/><rect fill="#FFFFFF" filter="url(#f32k45sra14me)" height="30" style="stroke:#A80036;stroke-width:1.0;" width="10" x="736.5" y="351.7734"/><rect fill="#FFFFFF" filter="url(#f32k45sra14me)" height="214.625" style="stroke:#A80036;stroke-width:1.0;" width="10" x="830.5" y="498.1797"/><rect fill="#FFFFFF" filter="url(#f32k45sra14me)" height="139.7031" style="stroke:#A80036;stroke-width:1.0;" width="10" x="830.5" y="864.5625"/><rect fill="#FFFFFF" filter="url(#f32k45sra14me)" height="28" style="stroke:#A80036;stroke-width:1.0;" width="10" x="835.5" y="902.9141"/><rect fill="#FFFFFF" filter="url(#f32k45sra14me)" height="28" style="stroke:#A80036;stroke-width:1.0;" width="10" x="835.5" y="976.2656"/><rect fill="#FFFFFF" filter="url(#f32k45sra14me)" height="143.9219" style="stroke:#A80036;stroke-width:1.0;" width="10" x="969.5" y="538.5313"/><rect fill="#FFFFFF" filter="url(#f32k45sra14me)" height="60.7031" style="stroke:#A80036;stroke-width:1.0;" width="10" x="1152.5" y="575.1406"/><rect fill="#FFFFFF" filter="url(#f32k45sra14me)" height="30.3516" style="stroke:#A80036;stroke-width:1.0;" width="10" x="1272" y="605.4922"/><rect fill="#FFFFFF" filter="url(#f32k45sra14me)" height="592.1406" style="stroke:#000000;stroke-width:2.0;" width="1435" x="10" y="427.125"/><line style="stroke:#A80036;stroke-width:1.0;stroke-dasharray:5.0,5.0;" x1="64" x2="64" y1="89.6094" y2="1066.6172"/><line style="stroke:#A80036;stroke-width:1.0;stroke-dasharray:5.0,5.0;" x1="402" x2="402" y1="89.6094" y2="1066.6172"/><line style="stroke:#A80036;stroke-width:1.0;stroke-dasharray:5.0,5.0;" x1="578" x2="578" y1="89.6094" y2="1066.6172"/><line style="stroke:#A80036;stroke-width:1.0;stroke-dasharray:5.0,5.0;" x1="741" x2="741" y1="89.6094" y2="1066.6172"/><line style="stroke:#A80036;stroke-width:1.0;stroke-dasharray:5.0,5.0;" x1="835" x2="835" y1="89.6094" y2="1066.6172"/><line style="stroke:#A80036;stroke-width:1.0;stroke-dasharray:5.0,5.0;" x1="974.5" x2="974.5" y1="539.4844" y2="1066.6172"/><line style="stroke:#A80036;stroke-width:1.0;stroke-dasharray:5.0,5.0;" x1="1157" x2="1157" y1="89.6094" y2="1066.6172"/><line style="stroke:#A80036;stroke-width:1.0;stroke-dasharray:5.0,5.0;" x1="1277" x2="1277" y1="89.6094" y2="1066.6172"/><line style="stroke:#A80036;stroke-width:1.0;stroke-dasharray:5.0,5.0;" x1="1397" x2="1397" y1="646.7969" y2="1066.6172"/><text fill="#000000" font-family="sans-serif" font-size="14" lengthAdjust="spacing" textLength="83" x="20" y="86.5332">MedLabTech</text><ellipse cx="64.5" cy="15" fill="#FEFECE" filter="url(#f32k45sra14me)" rx="8" ry="8" style="stroke:#A80036;stroke-width:2.0;"/><path d="M64.5,23 L64.5,50 M51.5,31 L77.5,31 M64.5,50 L51.5,65 M64.5,50 L77.5,65 " fill="none" filter="url(#f32k45sra14me)" style="stroke:#A80036;stroke-width:2.0;"/><text fill="#000000" font-family="sans-serif" font-size="14" lengthAdjust="spacing" textLength="83" x="20" y="1080.1504">MedLabTech</text><ellipse cx="64.5" cy="1093.2266" fill="#FEFECE" filter="url(#f32k45sra14me)" rx="8" ry="8" style="stroke:#A80036;stroke-width:2.0;"/><path d="M64.5,1101.2266 L64.5,1128.2266 M51.5,1109.2266 L77.5,1109.2266 M64.5,1128.2266 L51.5,1143.2266 M64.5,1128.2266 L77.5,1143.2266 " fill="none" filter="url(#f32k45sra14me)" style="stroke:#A80036;stroke-width:2.0;"/><rect fill="#FEFECE" filter="url(#f32k45sra14me)" height="31.6094" style="stroke:#A80036;stroke-width:1.5;" width="123" x="339" y="53"/><text fill="#000000" font-family="sans-serif" font-size="14" lengthAdjust="spacing" textLength="109" x="346" y="74.5332">:RecordSampleUI</text><rect fill="#FEFECE" filter="url(#f32k45sra14me)" height="31.6094" style="stroke:#A80036;stroke-width:1.5;" width="123" x="339" y="1065.6172"/><text fill="#000000" font-family="sans-serif" font-size="14" lengthAdjust="spacing" textLength="109" x="346" y="1087.1504">:RecordSampleUI</text><rect fill="#FEFECE" filter="url(#f32k45sra14me)" height="31.6094" style="stroke:#A80036;stroke-width:1.5;" width="173" x="490" y="53"/><text fill="#000000" font-family="sans-serif" font-size="14" lengthAdjust="spacing" textLength="159" x="497" y="74.5332">:RecordSampleController</text><rect fill="#FEFECE" filter="url(#f32k45sra14me)" height="31.6094" style="stroke:#A80036;stroke-width:1.5;" width="173" x="490" y="1065.6172"/><text fill="#000000" font-family="sans-serif" font-size="14" lengthAdjust="spacing" textLength="159" x="497" y="1087.1504">:RecordSampleController</text><rect fill="#FEFECE" filter="url(#f32k45sra14me)" height="31.6094" style="stroke:#A80036;stroke-width:1.5;" width="91" x="694" y="53"/><text fill="#000000" font-family="sans-serif" font-size="14" lengthAdjust="spacing" textLength="77" x="701" y="74.5332">ts:TestStore</text><rect fill="#FEFECE" filter="url(#f32k45sra14me)" height="31.6094" style="stroke:#A80036;stroke-width:1.5;" width="91" x="694" y="1065.6172"/><text fill="#000000" font-family="sans-serif" font-size="14" lengthAdjust="spacing" textLength="77" x="701" y="1087.1504">ts:TestStore</text><rect fill="#FEFECE" filter="url(#f32k45sra14me)" height="31.6094" style="stroke:#A80036;stroke-width:1.5;" width="69" x="799" y="53"/><text fill="#000000" font-family="sans-serif" font-size="14" lengthAdjust="spacing" textLength="55" x="806" y="74.5332">test:Test</text><rect fill="#FEFECE" filter="url(#f32k45sra14me)" height="31.6094" style="stroke:#A80036;stroke-width:1.5;" width="69" x="799" y="1065.6172"/><text fill="#000000" font-family="sans-serif" font-size="14" lengthAdjust="spacing" textLength="55" x="806" y="1087.1504">test:Test</text><rect fill="#FEFECE" filter="url(#f32k45sra14me)" height="31.6094" style="stroke:#A80036;stroke-width:1.5;" width="76" x="934.5" y="1065.6172"/><text fill="#000000" font-family="sans-serif" font-size="14" lengthAdjust="spacing" textLength="62" x="941.5" y="1087.1504">s: Sample</text><rect fill="#FEFECE" filter="url(#f32k45sra14me)" height="31.6094" style="stroke:#A80036;stroke-width:1.5;" width="121" x="1095" y="53"/><text fill="#000000" font-family="sans-serif" font-size="14" lengthAdjust="spacing" textLength="107" x="1102" y="74.5332">:BarcodeAdapter</text><rect fill="#FEFECE" filter="url(#f32k45sra14me)" height="31.6094" style="stroke:#A80036;stroke-width:1.5;" width="121" x="1095" y="1065.6172"/><text fill="#000000" font-family="sans-serif" font-size="14" lengthAdjust="spacing" textLength="107" x="1102" y="1087.1504">:BarcodeAdapter</text><rect fill="#FEFECE" filter="url(#f32k45sra14me)" height="31.6094" style="stroke:#A80036;stroke-width:1.5;" width="90" x="1230" y="53"/><text fill="#000000" font-family="sans-serif" font-size="14" lengthAdjust="spacing" textLength="76" x="1237" y="74.5332">:ExternalAPI</text><rect fill="#FEFECE" filter="url(#f32k45sra14me)" height="31.6094" style="stroke:#A80036;stroke-width:1.5;" width="90" x="1230" y="1065.6172"/><text fill="#000000" font-family="sans-serif" font-size="14" lengthAdjust="spacing" textLength="76" x="1237" y="1087.1504">:ExternalAPI</text><rect fill="#FEFECE" filter="url(#f32k45sra14me)" height="31.6094" style="stroke:#A80036;stroke-width:1.5;" width="71" x="1360" y="1065.6172"/><text fill="#000000" font-family="sans-serif" font-size="14" lengthAdjust="spacing" textLength="57" x="1367" y="1087.1504">:Barcode</text><rect fill="#FFFFFF" filter="url(#f32k45sra14me)" height="949.0078" style="stroke:#A80036;stroke-width:1.0;" width="10" x="59.5" y="99.6094"/><rect fill="#FFFFFF" filter="url(#f32k45sra14me)" height="138.7578" style="stroke:#A80036;stroke-width:1.0;" width="10" x="397.5" y="121.9609"/><rect fill="#FFFFFF" filter="url(#f32k45sra14me)" height="482.4375" style="stroke:#A80036;stroke-width:1.0;" width="10" x="397.5" y="291.0703"/><rect fill="#FFFFFF" filter="url(#f32k45sra14me)" height="244.7578" style="stroke:#A80036;stroke-width:1.0;" width="10" x="397.5" y="803.8594"/><rect fill="#FFFFFF" filter="url(#f32k45sra14me)" height="78.0547" style="stroke:#A80036;stroke-width:1.0;" width="10" x="573.5" y="152.3125"/><rect fill="#FFFFFF" filter="url(#f32k45sra14me)" height="60.3516" style="stroke:#A80036;stroke-width:1.0;" width="10" x="573.5" y="321.4219"/><rect fill="#FFFFFF" filter="url(#f32k45sra14me)" height="275.3281" style="stroke:#A80036;stroke-width:1.0;" width="10" x="573.5" y="467.8281"/><rect fill="#FFFFFF" filter="url(#f32k45sra14me)" height="170.0547" style="stroke:#A80036;stroke-width:1.0;" width="10" x="573.5" y="834.2109"/><rect fill="#FFFFFF" filter="url(#f32k45sra14me)" height="30" style="stroke:#A80036;stroke-width:1.0;" width="10" x="736.5" y="351.7734"/><rect fill="#FFFFFF" filter="url(#f32k45sra14me)" height="214.625" style="stroke:#A80036;stroke-width:1.0;" width="10" x="830.5" y="498.1797"/><rect fill="#FFFFFF" filter="url(#f32k45sra14me)" height="139.7031" style="stroke:#A80036;stroke-width:1.0;" width="10" x="830.5" y="864.5625"/><rect fill="#FFFFFF" filter="url(#f32k45sra14me)" height="28" style="stroke:#A80036;stroke-width:1.0;" width="10" x="835.5" y="902.9141"/><rect fill="#FFFFFF" filter="url(#f32k45sra14me)" height="28" style="stroke:#A80036;stroke-width:1.0;" width="10" x="835.5" y="976.2656"/><rect fill="#FFFFFF" filter="url(#f32k45sra14me)" height="143.9219" style="stroke:#A80036;stroke-width:1.0;" width="10" x="969.5" y="538.5313"/><rect fill="#FFFFFF" filter="url(#f32k45sra14me)" height="60.7031" style="stroke:#A80036;stroke-width:1.0;" width="10" x="1152.5" y="575.1406"/><rect fill="#FFFFFF" filter="url(#f32k45sra14me)" height="30.3516" style="stroke:#A80036;stroke-width:1.0;" width="10" x="1272" y="605.4922"/><polygon fill="#A80036" points="385.5,117.9609,395.5,121.9609,385.5,125.9609,389.5,121.9609" style="stroke:#A80036;stroke-width:1.0;"/><line style="stroke:#A80036;stroke-width:1.0;" x1="69.5" x2="391.5" y1="121.9609" y2="121.9609"/><text fill="#000000" font-family="sans-serif" font-size="13" font-weight="bold" lengthAdjust="spacing" textLength="7" x="76.5" y="117.1045">1</text><text fill="#000000" font-family="sans-serif" font-size="13" lengthAdjust="spacing" textLength="164" x="87.5" y="117.1045">wants to record the samples</text><polygon fill="#A80036" points="561.5,148.3125,571.5,152.3125,561.5,156.3125,565.5,152.3125" style="stroke:#A80036;stroke-width:1.0;"/><line style="stroke:#A80036;stroke-width:1.0;" x1="407.5" x2="567.5" y1="152.3125" y2="152.3125"/><text fill="#000000" font-family="sans-serif" font-size="13" font-weight="bold" lengthAdjust="spacing" textLength="7" x="414.5" y="147.4561">2</text><text fill="#000000" font-family="sans-serif" font-size="13" lengthAdjust="spacing" textLength="131" x="425.5" y="147.4561">SD_getTestList(testID)</text><rect fill="#FFFFFF" filter="url(#f32k45sra14me)" height="42.7031" style="stroke:#000000;stroke-width:2.0;" width="179" x="487" y="160.3125"/><polygon fill="#EEEEEE" points="487,160.3125,549,160.3125,549,168.3125,539,178.3125,487,178.3125,487,160.3125" style="stroke:#000000;stroke-width:2.0;"/><text fill="#000000" font-family="sans-serif" font-size="13" font-weight="bold" lengthAdjust="spacing" textLength="17" x="500" y="175.8076">ref</text><text fill="#000000" font-family="sans-serif" font-size="13" lengthAdjust="spacing" textLength="130" x="513.5" y="195.8076">SD_TestIDDTO(testID)</text><polygon fill="#A80036" points="418.5,226.3672,408.5,230.3672,418.5,234.3672,414.5,230.3672" style="stroke:#A80036;stroke-width:1.0;"/><line style="stroke:#A80036;stroke-width:1.0;stroke-dasharray:2.0,2.0;" x1="412.5" x2="577.5" y1="230.3672" y2="230.3672"/><text fill="#000000" font-family="sans-serif" font-size="13" font-weight="bold" lengthAdjust="spacing" textLength="7" x="424.5" y="225.5107">3</text><text fill="#000000" font-family="sans-serif" font-size="13" lengthAdjust="spacing" textLength="68" x="435.5" y="225.5107">tpStoreDTO</text><polygon fill="#A80036" points="80.5,256.7188,70.5,260.7188,80.5,264.7188,76.5,260.7188" style="stroke:#A80036;stroke-width:1.0;"/><line style="stroke:#A80036;stroke-width:1.0;stroke-dasharray:2.0,2.0;" x1="74.5" x2="401.5" y1="260.7188" y2="260.7188"/><text fill="#000000" font-family="sans-serif" font-size="13" font-weight="bold" lengthAdjust="spacing" textLength="7" x="86.5" y="255.8623">4</text><text fill="#000000" font-family="sans-serif" font-size="13" lengthAdjust="spacing" textLength="84" x="97.5" y="255.8623">shows test list</text><polygon fill="#A80036" points="385.5,287.0703,395.5,291.0703,385.5,295.0703,389.5,291.0703" style="stroke:#A80036;stroke-width:1.0;"/><line style="stroke:#A80036;stroke-width:1.0;" x1="69.5" x2="391.5" y1="291.0703" y2="291.0703"/><text fill="#000000" font-family="sans-serif" font-size="13" font-weight="bold" lengthAdjust="spacing" textLength="7" x="76.5" y="286.2139">5</text><text fill="#000000" font-family="sans-serif" font-size="13" lengthAdjust="spacing" textLength="151" x="87.5" y="286.2139">selects a test from the list</text><polygon fill="#A80036" points="561.5,317.4219,571.5,321.4219,561.5,325.4219,565.5,321.4219" style="stroke:#A80036;stroke-width:1.0;"/><line style="stroke:#A80036;stroke-width:1.0;" x1="407.5" x2="567.5" y1="321.4219" y2="321.4219"/><text fill="#000000" font-family="sans-serif" font-size="13" font-weight="bold" lengthAdjust="spacing" textLength="7" x="414.5" y="316.5654">6</text><text fill="#000000" font-family="sans-serif" font-size="13" lengthAdjust="spacing" textLength="102" x="425.5" y="316.5654">selectTest(testID)</text><polygon fill="#A80036" points="724.5,347.7734,734.5,351.7734,724.5,355.7734,728.5,351.7734" style="stroke:#A80036;stroke-width:1.0;"/><line style="stroke:#A80036;stroke-width:1.0;" x1="583.5" x2="730.5" y1="351.7734" y2="351.7734"/><text fill="#000000" font-family="sans-serif" font-size="13" font-weight="bold" lengthAdjust="spacing" textLength="7" x="590.5" y="346.917">7</text><text fill="#000000" font-family="sans-serif" font-size="13" lengthAdjust="spacing" textLength="123" x="601.5" y="346.917">test = getTest(testID)</text><polygon fill="#A80036" points="80.5,408.125,70.5,412.125,80.5,416.125,76.5,412.125" style="stroke:#A80036;stroke-width:1.0;"/><line style="stroke:#A80036;stroke-width:1.0;stroke-dasharray:2.0,2.0;" x1="74.5" x2="396.5" y1="412.125" y2="412.125"/><text fill="#000000" font-family="sans-serif" font-size="13" font-weight="bold" lengthAdjust="spacing" textLength="7" x="86.5" y="407.2686">8</text><text fill="#000000" font-family="sans-serif" font-size="13" lengthAdjust="spacing" textLength="144" x="97.5" y="407.2686">asks how many samples</text><path d="M10,427.125 L83,427.125 L83,435.125 L73,445.125 L10,445.125 L10,427.125 " fill="#EEEEEE" style="stroke:#000000;stroke-width:1.0;"/><rect fill="none" height="592.1406" style="stroke:#000000;stroke-width:2.0;" width="1435" x="10" y="427.125"/><text fill="#000000" font-family="sans-serif" font-size="13" font-weight="bold" lengthAdjust="spacing" textLength="28" x="25" y="441.6201">loop</text><text fill="#000000" font-family="sans-serif" font-size="11" font-weight="bold" lengthAdjust="spacing" textLength="97" x="98" y="440.5439">[for each sample]</text><polygon fill="#A80036" points="561.5,463.8281,571.5,467.8281,561.5,471.8281,565.5,467.8281" style="stroke:#A80036;stroke-width:1.0;"/><line style="stroke:#A80036;stroke-width:1.0;" x1="407.5" x2="567.5" y1="467.8281" y2="467.8281"/><text fill="#000000" font-family="sans-serif" font-size="13" font-weight="bold" lengthAdjust="spacing" textLength="7" x="414.5" y="462.9717">9</text><text fill="#000000" font-family="sans-serif" font-size="13" lengthAdjust="spacing" textLength="136" x="425.5" y="462.9717">createSampleBarcode()</text><polygon fill="#A80036" points="818.5,494.1797,828.5,498.1797,818.5,502.1797,822.5,498.1797" style="stroke:#A80036;stroke-width:1.0;"/><line style="stroke:#A80036;stroke-width:1.0;" x1="583.5" x2="824.5" y1="498.1797" y2="498.1797"/><text fill="#000000" font-family="sans-serif" font-size="13" font-weight="bold" lengthAdjust="spacing" textLength="14" x="590.5" y="493.3232">10</text><text fill="#000000" font-family="sans-serif" font-size="13" lengthAdjust="spacing" textLength="136" x="608.5" y="493.3232">createSampleBarcode()</text><polygon fill="#A80036" points="922.5,524.5313,932.5,528.5313,922.5,532.5313,926.5,528.5313" style="stroke:#A80036;stroke-width:1.0;"/><line style="stroke:#A80036;stroke-width:1.0;stroke-dasharray:2.0,2.0;" x1="840.5" x2="928.5" y1="528.5313" y2="528.5313"/><text fill="#000000" font-family="sans-serif" font-size="13" font-weight="bold" lengthAdjust="spacing" textLength="14" x="847.5" y="523.6748">11</text><text fill="#000000" font-family="sans-serif" font-size="13" lengthAdjust="spacing" textLength="52" x="865.5" y="523.6748">Sample()</text><rect fill="#FEFECE" filter="url(#f32k45sra14me)" height="31.6094" style="stroke:#A80036;stroke-width:1.5;" width="76" x="934.5" y="506.1797"/><text fill="#000000" font-family="sans-serif" font-size="14" lengthAdjust="spacing" textLength="62" x="941.5" y="527.7129">s: Sample</text><polygon fill="#A80036" points="1140.5,571.1406,1150.5,575.1406,1140.5,579.1406,1144.5,575.1406" style="stroke:#A80036;stroke-width:1.0;"/><line style="stroke:#A80036;stroke-width:1.0;" x1="979.5" x2="1146.5" y1="575.1406" y2="575.1406"/><text fill="#000000" font-family="sans-serif" font-size="13" font-weight="bold" lengthAdjust="spacing" textLength="14" x="986.5" y="570.2842">12</text><text fill="#000000" font-family="sans-serif" font-size="13" lengthAdjust="spacing" textLength="136" x="1004.5" y="570.2842">barcode = getBarcode()</text><polygon fill="#A80036" points="1260,601.4922,1270,605.4922,1260,609.4922,1264,605.4922" style="stroke:#A80036;stroke-width:1.0;"/><line style="stroke:#A80036;stroke-width:1.0;" x1="1162.5" x2="1266" y1="605.4922" y2="605.4922"/><text fill="#000000" font-family="sans-serif" font-size="13" font-weight="bold" lengthAdjust="spacing" textLength="14" x="1169.5" y="600.6357">13</text><text fill="#000000" font-family="sans-serif" font-size="13" lengthAdjust="spacing" textLength="58" x="1187.5" y="600.6357">generate()</text><polygon fill="#A80036" points="1348,631.8438,1358,635.8438,1348,639.8438,1352,635.8438" style="stroke:#A80036;stroke-width:1.0;"/><line style="stroke:#A80036;stroke-width:1.0;stroke-dasharray:2.0,2.0;" x1="1277" x2="1354" y1="635.8438" y2="635.8438"/><text fill="#000000" font-family="sans-serif" font-size="13" font-weight="bold" lengthAdjust="spacing" textLength="14" x="1284" y="630.9873">14</text><text fill="#000000" font-family="sans-serif" font-size="13" lengthAdjust="spacing" textLength="36" x="1302" y="630.9873">create</text><rect fill="#FEFECE" filter="url(#f32k45sra14me)" height="31.6094" style="stroke:#A80036;stroke-width:1.5;" width="71" x="1360" y="613.4922"/><text fill="#000000" font-family="sans-serif" font-size="14" lengthAdjust="spacing" textLength="57" x="1367" y="635.0254">:Barcode</text><polygon fill="#A80036" points="851.5,678.4531,841.5,682.4531,851.5,686.4531,847.5,682.4531" style="stroke:#A80036;stroke-width:1.0;"/><line style="stroke:#A80036;stroke-width:1.0;stroke-dasharray:2.0,2.0;" x1="845.5" x2="973.5" y1="682.4531" y2="682.4531"/><text fill="#000000" font-family="sans-serif" font-size="13" font-weight="bold" lengthAdjust="spacing" textLength="14" x="857.5" y="677.5967">15</text><text fill="#000000" font-family="sans-serif" font-size="13" lengthAdjust="spacing" textLength="46" x="875.5" y="677.5967">barcode</text><polygon fill="#A80036" points="594.5,708.8047,584.5,712.8047,594.5,716.8047,590.5,712.8047" style="stroke:#A80036;stroke-width:1.0;"/><line style="stroke:#A80036;stroke-width:1.0;stroke-dasharray:2.0,2.0;" x1="588.5" x2="834.5" y1="712.8047" y2="712.8047"/><text fill="#000000" font-family="sans-serif" font-size="13" font-weight="bold" lengthAdjust="spacing" textLength="14" x="600.5" y="707.9482">16</text><text fill="#000000" font-family="sans-serif" font-size="13" lengthAdjust="spacing" textLength="46" x="618.5" y="707.9482">barcode</text><polygon fill="#A80036" points="418.5,739.1563,408.5,743.1563,418.5,747.1563,414.5,743.1563" style="stroke:#A80036;stroke-width:1.0;"/><line style="stroke:#A80036;stroke-width:1.0;stroke-dasharray:2.0,2.0;" x1="412.5" x2="577.5" y1="743.1563" y2="743.1563"/><text fill="#000000" font-family="sans-serif" font-size="13" font-weight="bold" lengthAdjust="spacing" textLength="14" x="424.5" y="738.2998">17</text><text fill="#000000" font-family="sans-serif" font-size="13" lengthAdjust="spacing" textLength="46" x="442.5" y="738.2998">barcode</text><polygon fill="#A80036" points="80.5,769.5078,70.5,773.5078,80.5,777.5078,76.5,773.5078" style="stroke:#A80036;stroke-width:1.0;"/><line style="stroke:#A80036;stroke-width:1.0;stroke-dasharray:2.0,2.0;" x1="74.5" x2="401.5" y1="773.5078" y2="773.5078"/><text fill="#000000" font-family="sans-serif" font-size="13" font-weight="bold" lengthAdjust="spacing" textLength="14" x="86.5" y="768.6514">18</text><text fill="#000000" font-family="sans-serif" font-size="13" lengthAdjust="spacing" textLength="286" x="104.5" y="768.6514">shows sample barcode and requests confirmation</text><polygon fill="#A80036" points="385.5,799.8594,395.5,803.8594,385.5,807.8594,389.5,803.8594" style="stroke:#A80036;stroke-width:1.0;"/><line style="stroke:#A80036;stroke-width:1.0;" x1="69.5" x2="391.5" y1="803.8594" y2="803.8594"/><text fill="#000000" font-family="sans-serif" font-size="13" font-weight="bold" lengthAdjust="spacing" textLength="14" x="76.5" y="799.0029">19</text><text fill="#000000" font-family="sans-serif" font-size="13" lengthAdjust="spacing" textLength="99" x="94.5" y="799.0029">confirms barcode</text><polygon fill="#A80036" points="561.5,830.2109,571.5,834.2109,561.5,838.2109,565.5,834.2109" style="stroke:#A80036;stroke-width:1.0;"/><line style="stroke:#A80036;stroke-width:1.0;" x1="407.5" x2="567.5" y1="834.2109" y2="834.2109"/><text fill="#000000" font-family="sans-serif" font-size="13" font-weight="bold" lengthAdjust="spacing" textLength="14" x="414.5" y="829.3545">20</text><text fill="#000000" font-family="sans-serif" font-size="13" lengthAdjust="spacing" textLength="78" x="432.5" y="829.3545">saveSample()</text><polygon fill="#A80036" points="818.5,860.5625,828.5,864.5625,818.5,868.5625,822.5,864.5625" style="stroke:#A80036;stroke-width:1.0;"/><line style="stroke:#A80036;stroke-width:1.0;" x1="583.5" x2="824.5" y1="864.5625" y2="864.5625"/><text fill="#000000" font-family="sans-serif" font-size="13" font-weight="bold" lengthAdjust="spacing" textLength="14" x="590.5" y="859.7061">21</text><text fill="#000000" font-family="sans-serif" font-size="13" lengthAdjust="spacing" textLength="78" x="608.5" y="859.7061">saveSample()</text><line style="stroke:#A80036;stroke-width:1.0;" x1="845.5" x2="887.5" y1="894.9141" y2="894.9141"/><line style="stroke:#A80036;stroke-width:1.0;" x1="887.5" x2="887.5" y1="894.9141" y2="907.9141"/><line style="stroke:#A80036;stroke-width:1.0;" x1="846.5" x2="887.5" y1="907.9141" y2="907.9141"/><polygon fill="#A80036" points="856.5,903.9141,846.5,907.9141,856.5,911.9141,852.5,907.9141" style="stroke:#A80036;stroke-width:1.0;"/><text fill="#000000" font-family="sans-serif" font-size="13" font-weight="bold" lengthAdjust="spacing" textLength="14" x="852.5" y="890.0576">22</text><text fill="#000000" font-family="sans-serif" font-size="13" lengthAdjust="spacing" textLength="95" x="870.5" y="890.0576">validateSample()</text><line style="stroke:#A80036;stroke-width:1.0;" x1="845.5" x2="887.5" y1="968.2656" y2="968.2656"/><line style="stroke:#A80036;stroke-width:1.0;" x1="887.5" x2="887.5" y1="968.2656" y2="981.2656"/><line style="stroke:#A80036;stroke-width:1.0;" x1="846.5" x2="887.5" y1="981.2656" y2="981.2656"/><polygon fill="#A80036" points="856.5,977.2656,846.5,981.2656,856.5,985.2656,852.5,981.2656" style="stroke:#A80036;stroke-width:1.0;"/><text fill="#000000" font-family="sans-serif" font-size="13" font-weight="bold" lengthAdjust="spacing" textLength="14" x="852.5" y="963.4092">23</text><text fill="#000000" font-family="sans-serif" font-size="13" lengthAdjust="spacing" textLength="78" x="870.5" y="963.4092">saveSample()</text><polygon fill="#A80036" points="75.5,1044.6172,65.5,1048.6172,75.5,1052.6172,71.5,1048.6172" style="stroke:#A80036;stroke-width:1.0;"/><line style="stroke:#A80036;stroke-width:1.0;stroke-dasharray:2.0,2.0;" x1="69.5" x2="401.5" y1="1048.6172" y2="1048.6172"/><text fill="#000000" font-family="sans-serif" font-size="13" font-weight="bold" lengthAdjust="spacing" textLength="14" x="81.5" y="1043.7607">24</text><text fill="#000000" font-family="sans-serif" font-size="13" lengthAdjust="spacing" textLength="152" x="99.5" y="1043.7607">informs operation success</text><!--MD5=[7737d495f32702aafb0bf09b6653f787]
@startuml
autonumber
actor MedLabTech as MLT
participant ":RecordSampleUI" as UI
participant ":RecordSampleController" as CTRL
participant "ts:TestStore" as TT
participant "test:Test" as t
participant "s: Sample" as S
participant ":BarcodeAdapter" as Bc
participant ":ExternalAPI" as Ea
participant ":Barcode" as Bar

activate MLT
MLT -> UI: wants to record the samples
activate UI
UI -> CTRL : SD_getTestList(testID)
ref over CTRL: SD_TestIDDTO(testID)
activate CTRL
CTRL - -> UI: tpStoreDTO
deactivate CTRL

UI - -> MLT: shows test list
deactivate UI
MLT -> UI: selects a test from the list
activate UI
UI -> CTRL: selectTest(testID)
activate CTRL
CTRL -> TT:test = getTest(testID)
activate TT
deactivate
deactivate
UI - -> MLT: asks how many samples
loop for each sample
UI -> CTRL: createSampleBarcode()
activate CTRL
CTRL -> t: createSampleBarcode()
activate t
t - -> S**: Sample()
activate S
S -> Bc: barcode = getBarcode()
activate Bc
Bc -> Ea: generate()
activate Ea
Ea - -> Bar** :create
deactivate Ea
deactivate Bc
return barcode
return barcode
return barcode
deactivate S
deactivate t
deactivate CTRL

UI - -> MLT: shows sample barcode and requests confirmation
deactivate UI

deactivate UI
deactivate CTRL
deactivate CTRL
MLT -> UI: confirms barcode
activate UI
UI -> CTRL: saveSample()
activate CTRL
CTRL -> t: saveSample()
activate t
t -> t: validateSample()
activate t
deactivate
t -> t: saveSample()
activate t
deactivate
deactivate t
deactivate CTRL
end
UI - -> MLT: informs operation success
deactivate UI
deactivate MLT
@enduml

PlantUML version 1.2021.00(Sun Jan 10 10:25:05 GMT 2021)
(GPL source distribution)
Java Runtime: OpenJDK Runtime Environment
JVM: OpenJDK 64-Bit Server VM
Default Encoding: Cp1252
Language: pt
Country: PT
--></g></svg>