<?xml version="1.0" encoding="UTF-8" standalone="no"?>
<svg xmlns="http://www.w3.org/2000/svg"
     contentScriptType="application/ecmascript" contentStyleType="text/css" height="300.8px" preserveAspectRatio="none"
     style="width:223px;height:300px;" version="1.1" viewBox="0 0 223 300" width="223.2px" zoomAndPan="magnify">
    <defs>
        <filter height="300%" id="fkiqoaoihxtaq" width="300%" x="-1" y="-1">
            <feGaussianBlur result="blurOut" stdDeviation="1.6"/>
            <feColorMatrix in="blurOut" result="blurOut2" type="matrix"
                           values="0 0 0 0 0 0 0 0 0 0 0 0 0 0 0 0 0 0 .4 0"/>
            <feOffset dx="3.2" dy="3.2" in="blurOut2" result="blurOut3"/>
            <feBlend in="SourceGraphic" in2="blurOut3" mode="normal"/>
        </filter>
    </defs>
    <g><!--MD5=[01931d41e78f8996acd44f6f0fd8de28]
class MedicalLabTechnician-->
        <rect codeLine="2" fill="#FEFECE" filter="url(#fkiqoaoihxtaq)" height="38.4" id="MedicalLabTechnician"
              style="stroke:#A80036;stroke-width:1.2000000000000002;" width="124" x="30.8" y="5.6"/>
        <ellipse cx="42.8" cy="18.4" fill="#ADD1B2" rx="8.8" ry="8.8" style="stroke:#A80036;stroke-width:0.8;"/>
        <path d="M44.4,15.6 Q44.5625,15.2 44.75,15 Q44.9375,14.8 45.15,14.8 Q45.525,14.8 45.7625,15.025 Q46,15.25 46,15.775 L46,17.025 Q46,17.55 45.775,17.775 Q45.55,18 45.2,18 Q44.8875,18 44.6875,17.8625 Q44.4875,17.725 44.4,17.3625 Q44.3625,17.1125 44.225,16.975 Q43.975,16.7125 43.525,16.5625 Q43.075,16.4 42.625,16.4 Q42.0625,16.4 41.5875,16.625 Q41.125,16.85 40.7625,17.35 Q40.4,17.85 40.4,18.5375 L40.4,19.275 Q40.4,20.1 41.075,20.65 Q41.75,21.2 42.95,21.2 Q43.6625,21.2 44.1625,21.0375 Q44.45,20.95 44.775,20.6625 Q44.9875,20.5 45.1,20.45 Q45.2125,20.4 45.35,20.4 Q45.6125,20.4 45.8,20.6125 Q46,20.8125 46,21.1 Q46,21.375 45.725,21.7 Q45.325,22.175 44.6875,22.4375 Q43.85,22.8 42.825,22.8 Q41.625,22.8 40.6625,22.325 Q39.8875,21.95 39.3375,21.1375 Q38.8,20.325 38.8,19.3625 L38.8,18.4875 Q38.8,17.4875 39.275,16.6125 Q39.7625,15.7375 40.6,15.275 Q41.45,14.8 42.4,14.8 Q42.975,14.8 43.475,15 Q43.975,15.2 44.4,15.6 Z "
              fill="#000000"/>
        <text fill="#000000" font-family="sans-serif" font-size="9.6" lengthAdjust="spacing" textLength="98.4" x="54"
              y="22.3281">MedicalLabTechnician
        </text>
        <line style="stroke:#A80036;stroke-width:1.2000000000000002;" x1="31.6" x2="154" y1="31.2" y2="31.2"/>
        <line style="stroke:#A80036;stroke-width:1.2000000000000002;" x1="31.6" x2="154" y1="37.6" y2="37.6"/><!--MD5=[9681492165142af2a4a3a169d90ee8d4]
class Sample-->
        <rect codeLine="5" fill="#FEFECE" filter="url(#fkiqoaoihxtaq)" height="49.4688" id="Sample"
              style="stroke:#A80036;stroke-width:1.2000000000000002;" width="60" x="62.8" y="106.4"/>
        <ellipse cx="74.8" cy="119.2" fill="#ADD1B2" rx="8.8" ry="8.8" style="stroke:#A80036;stroke-width:0.8;"/>
        <path d="M76.4,116.4 Q76.5625,116 76.75,115.8 Q76.9375,115.6 77.15,115.6 Q77.525,115.6 77.7625,115.825 Q78,116.05 78,116.575 L78,117.825 Q78,118.35 77.775,118.575 Q77.55,118.8 77.2,118.8 Q76.8875,118.8 76.6875,118.6625 Q76.4875,118.525 76.4,118.1625 Q76.3625,117.9125 76.225,117.775 Q75.975,117.5125 75.525,117.3625 Q75.075,117.2 74.625,117.2 Q74.0625,117.2 73.5875,117.425 Q73.125,117.65 72.7625,118.15 Q72.4,118.65 72.4,119.3375 L72.4,120.075 Q72.4,120.9 73.075,121.45 Q73.75,122 74.95,122 Q75.6625,122 76.1625,121.8375 Q76.45,121.75 76.775,121.4625 Q76.9875,121.3 77.1,121.25 Q77.2125,121.2 77.35,121.2 Q77.6125,121.2 77.8,121.4125 Q78,121.6125 78,121.9 Q78,122.175 77.725,122.5 Q77.325,122.975 76.6875,123.2375 Q75.85,123.6 74.825,123.6 Q73.625,123.6 72.6625,123.125 Q71.8875,122.75 71.3375,121.9375 Q70.8,121.125 70.8,120.1625 L70.8,119.2875 Q70.8,118.2875 71.275,117.4125 Q71.7625,116.5375 72.6,116.075 Q73.45,115.6 74.4,115.6 Q74.975,115.6 75.475,115.8 Q75.975,116 76.4,116.4 Z "
              fill="#000000"/>
        <text fill="#000000" font-family="sans-serif" font-size="9.6" lengthAdjust="spacing" textLength="34.4" x="86"
              y="123.1281">Sample
        </text>
        <line style="stroke:#A80036;stroke-width:1.2000000000000002;" x1="63.6" x2="122" y1="132" y2="132"/>
        <text fill="#000000" font-family="sans-serif" font-size="8.8" lengthAdjust="spacing" textLength="28.8" x="67.6"
              y="144.3352">Test ID;
        </text>
        <line style="stroke:#A80036;stroke-width:1.2000000000000002;" x1="63.6" x2="122" y1="149.4688" y2="149.4688"/><!--MD5=[df38be88ccee13e832d6fafd6288a4ca]
class Test-->
        <rect codeLine="9" fill="#FEFECE" filter="url(#fkiqoaoihxtaq)" height="71.6063" id="Test"
              style="stroke:#A80036;stroke-width:1.2000000000000002;" width="60.8" x="5.6" y="218.4"/>
        <ellipse cx="24.8" cy="231.2" fill="#ADD1B2" rx="8.8" ry="8.8" style="stroke:#A80036;stroke-width:0.8;"/>
        <path d="M26.4,228.4 Q26.5625,228 26.75,227.8 Q26.9375,227.6 27.15,227.6 Q27.525,227.6 27.7625,227.825 Q28,228.05 28,228.575 L28,229.825 Q28,230.35 27.775,230.575 Q27.55,230.8 27.2,230.8 Q26.8875,230.8 26.6875,230.6625 Q26.4875,230.525 26.4,230.1625 Q26.3625,229.9125 26.225,229.775 Q25.975,229.5125 25.525,229.3625 Q25.075,229.2 24.625,229.2 Q24.0625,229.2 23.5875,229.425 Q23.125,229.65 22.7625,230.15 Q22.4,230.65 22.4,231.3375 L22.4,232.075 Q22.4,232.9 23.075,233.45 Q23.75,234 24.95,234 Q25.6625,234 26.1625,233.8375 Q26.45,233.75 26.775,233.4625 Q26.9875,233.3 27.1,233.25 Q27.2125,233.2 27.35,233.2 Q27.6125,233.2 27.8,233.4125 Q28,233.6125 28,233.9 Q28,234.175 27.725,234.5 Q27.325,234.975 26.6875,235.2375 Q25.85,235.6 24.825,235.6 Q23.625,235.6 22.6625,235.125 Q21.8875,234.75 21.3375,233.9375 Q20.8,233.125 20.8,232.1625 L20.8,231.2875 Q20.8,230.2875 21.275,229.4125 Q21.7625,228.5375 22.6,228.075 Q23.45,227.6 24.4,227.6 Q24.975,227.6 25.475,227.8 Q25.975,228 26.4,228.4 Z "
              fill="#000000"/>
        <text fill="#000000" font-family="sans-serif" font-size="9.6" lengthAdjust="spacing" textLength="19.2" x="37.6"
              y="235.1281">Test
        </text>
        <line style="stroke:#A80036;stroke-width:1.2000000000000002;" x1="6.4" x2="65.6" y1="244" y2="244"/>
        <text fill="#000000" font-family="sans-serif" font-size="8.8" lengthAdjust="spacing" textLength="23.2" x="10.4"
              y="256.3352">Client;
        </text>
        <text fill="#000000" font-family="sans-serif" font-size="8.8" lengthAdjust="spacing" textLength="28.8" x="10.4"
              y="267.4039">Test ID;
        </text>
        <text fill="#000000" font-family="sans-serif" font-size="8.8" lengthAdjust="spacing" textLength="51.2" x="10.4"
              y="278.4727">Type of Test;
        </text>
        <line style="stroke:#A80036;stroke-width:1.2000000000000002;" x1="6.4" x2="65.6" y1="283.6063" y2="283.6063"/><!--MD5=[2a962ae93217d0020b2ed3696d7c22bf]
class BarcodeExternalAPI-->
        <rect codeLine="15" fill="#FEFECE" filter="url(#fkiqoaoihxtaq)" height="49.4688" id="BarcodeExternalAPI"
              style="stroke:#A80036;stroke-width:1.2000000000000002;" width="112" x="94.4" y="229.6"/>
        <ellipse cx="106.4" cy="242.4" fill="#ADD1B2" rx="8.8" ry="8.8" style="stroke:#A80036;stroke-width:0.8;"/>
        <path d="M108,239.6 Q108.1625,239.2 108.35,239 Q108.5375,238.8 108.75,238.8 Q109.125,238.8 109.3625,239.025 Q109.6,239.25 109.6,239.775 L109.6,241.025 Q109.6,241.55 109.375,241.775 Q109.15,242 108.8,242 Q108.4875,242 108.2875,241.8625 Q108.0875,241.725 108,241.3625 Q107.9625,241.1125 107.825,240.975 Q107.575,240.7125 107.125,240.5625 Q106.675,240.4 106.225,240.4 Q105.6625,240.4 105.1875,240.625 Q104.725,240.85 104.3625,241.35 Q104,241.85 104,242.5375 L104,243.275 Q104,244.1 104.675,244.65 Q105.35,245.2 106.55,245.2 Q107.2625,245.2 107.7625,245.0375 Q108.05,244.95 108.375,244.6625 Q108.5875,244.5 108.7,244.45 Q108.8125,244.4 108.95,244.4 Q109.2125,244.4 109.4,244.6125 Q109.6,244.8125 109.6,245.1 Q109.6,245.375 109.325,245.7 Q108.925,246.175 108.2875,246.4375 Q107.45,246.8 106.425,246.8 Q105.225,246.8 104.2625,246.325 Q103.4875,245.95 102.9375,245.1375 Q102.4,244.325 102.4,243.3625 L102.4,242.4875 Q102.4,241.4875 102.875,240.6125 Q103.3625,239.7375 104.2,239.275 Q105.05,238.8 106,238.8 Q106.575,238.8 107.075,239 Q107.575,239.2 108,239.6 Z "
              fill="#000000"/>
        <text fill="#000000" font-family="sans-serif" font-size="9.6" lengthAdjust="spacing" textLength="86.4" x="117.6"
              y="246.3281">BarcodeExternalAPI
        </text>
        <line style="stroke:#A80036;stroke-width:1.2000000000000002;" x1="95.2" x2="205.6" y1="255.2" y2="255.2"/>
        <text fill="#000000" font-family="sans-serif" font-size="8.8" lengthAdjust="spacing" textLength="67.2" x="99.2"
              y="267.5352">Barcode Number;
        </text>
        <line style="stroke:#A80036;stroke-width:1.2000000000000002;" x1="95.2" x2="205.6" y1="272.6688" y2="272.6688"/><!--MD5=[0a29b4543c1af9e8341b856b8b8ec05c]
link MedicalLabTechnician to Sample-->
        <path codeLine="19" d="M92.8,44.096 C92.8,61.368 92.8,87.264 92.8,106.184 " fill="none"
              id="MedicalLabTechnician-Sample" style="stroke:#A80036;stroke-width:0.8;"/>
        <polygon fill="#000000" points="96.8,79.3406,99.1511,72.1046,94.4489,72.1046,96.8,79.3406"
                 style="stroke:#000000;stroke-width:0.8;"/>
        <text fill="#000000" font-family="sans-serif" font-size="10.4" lengthAdjust="spacing" textLength="93.6" x="104"
              y="79.5961">collects and records
        </text>
        <text fill="#000000" font-family="sans-serif" font-size="10.4" lengthAdjust="spacing" textLength="5.6"
              x="86.5175" y="61.1898">1
        </text>
        <text fill="#000000" font-family="sans-serif" font-size="10.4" lengthAdjust="spacing" textLength="4" x="88.3875"
              y="97.7431">*
        </text><!--MD5=[04051b31133b0fb73b3485da462ad7f3]
link Sample to BarcodeExternalAPI-->
        <path codeLine="20"
              d="M106.72,156.168 C110.896,163.712 115.376,172.128 119.2,180 C127.08,196.232 135,214.96 140.888,229.456 "
              fill="none" id="Sample-BarcodeExternalAPI" style="stroke:#A80036;stroke-width:0.8;"/>
        <polygon fill="#000000" points="131.2902,190.966,130.3635,183.4142,126.1017,185.4011,131.2902,190.966"
                 style="stroke:#000000;stroke-width:0.8;"/>
        <text fill="#000000" font-family="sans-serif" font-size="10.4" lengthAdjust="spacing" textLength="80" x="136.8"
              y="191.5961">is identified using
        </text>
        <text fill="#000000" font-family="sans-serif" font-size="10.4" lengthAdjust="spacing" textLength="5.6"
              x="103.2398" y="172.9829">1
        </text>
        <text fill="#000000" font-family="sans-serif" font-size="10.4" lengthAdjust="spacing" textLength="5.6"
              x="132.7487" y="221.0299">1
        </text><!--MD5=[1ae83efc6d1967ce5bc17dfe294d00c2]
link Sample to Test-->
        <path codeLine="21"
              d="M73.848,156.016 C68.6,163.416 63.248,171.792 59.2,180 C53.272,192.016 48.44,205.872 44.744,218.304 "
              fill="none" id="Sample-Test" style="stroke:#A80036;stroke-width:0.8;"/>
        <polygon fill="#000000" points="61.5067,190.9645,66.7,185.4041,62.4398,183.4135,61.5067,190.9645"
                 style="stroke:#000000;stroke-width:0.8;"/>
        <text fill="#000000" font-family="sans-serif" font-size="10.4" lengthAdjust="spacing" textLength="44.8" x="70.4"
              y="191.5961">is used in
        </text>
        <text fill="#000000" font-family="sans-serif" font-size="10.4" lengthAdjust="spacing" textLength="5.6"
              x="63.9656" y="172.9983">1
        </text>
        <text fill="#000000" font-family="sans-serif" font-size="10.4" lengthAdjust="spacing" textLength="5.6"
              x="40.0542" y="209.8446">1
        </text><!--MD5=[a009ba23678d026202e182a949c19267]
@startuml

class MedicalLabTechnician{
}

class Sample{
Test ID;
}

class Test{
Client;
Test ID;
Type of Test;
}

class BarcodeExternalAPI{
Barcode Number;
}

MedicalLabTechnician "1" - - "*" Sample: collects and records >
Sample "1" - - "1" BarcodeExternalAPI : is identified using >
Sample "1" - - "1" Test : is used in >

@enduml

PlantUML version 1.2021.00(Sun Jan 10 10:25:05 GMT 2021)
(GPL source distribution)
Java Runtime: OpenJDK Runtime Environment
JVM: OpenJDK 64-Bit Server VM
Default Encoding: Cp1252
Language: pt
Country: PT
-->
    </g>
</svg>