<?xml version="1.0" encoding="UTF-8" standalone="no"?><svg xmlns="http://www.w3.org/2000/svg" xmlns:xlink="http://www.w3.org/1999/xlink" contentScriptType="application/ecmascript" contentStyleType="text/css" height="369.6px" preserveAspectRatio="none" style="width:196px;height:369px;" version="1.1" viewBox="0 0 196 369" width="196px" zoomAndPan="magnify"><defs><filter height="300%" id="f1fxwn7jejj8n8" width="300%" x="-1" y="-1"><feGaussianBlur result="blurOut" stdDeviation="1.6"/><feColorMatrix in="blurOut" result="blurOut2" type="matrix" values="0 0 0 0 0 0 0 0 0 0 0 0 0 0 0 0 0 0 .4 0"/><feOffset dx="3.2" dy="3.2" in="blurOut2" result="blurOut3"/><feBlend in="SourceGraphic" in2="blurOut3" mode="normal"/></filter></defs><g><!--MD5=[2213a26148c964a10856012e4850e256]
class MedLabTechUI--><rect codeLine="2" fill="#FEFECE" filter="url(#f1fxwn7jejj8n8)" height="38.4" id="MedLabTechUI" style="stroke:#A80036;stroke-width:1.2000000000000002;" width="92" x="45.6" y="5.6"/><ellipse cx="57.6" cy="18.4" fill="#ADD1B2" rx="8.8" ry="8.8" style="stroke:#A80036;stroke-width:0.8;"/><path d="M59.2,15.6 Q59.3625,15.2 59.55,15 Q59.7375,14.8 59.95,14.8 Q60.325,14.8 60.5625,15.025 Q60.8,15.25 60.8,15.775 L60.8,17.025 Q60.8,17.55 60.575,17.775 Q60.35,18 60,18 Q59.6875,18 59.4875,17.8625 Q59.2875,17.725 59.2,17.3625 Q59.1625,17.1125 59.025,16.975 Q58.775,16.7125 58.325,16.5625 Q57.875,16.4 57.425,16.4 Q56.8625,16.4 56.3875,16.625 Q55.925,16.85 55.5625,17.35 Q55.2,17.85 55.2,18.5375 L55.2,19.275 Q55.2,20.1 55.875,20.65 Q56.55,21.2 57.75,21.2 Q58.4625,21.2 58.9625,21.0375 Q59.25,20.95 59.575,20.6625 Q59.7875,20.5 59.9,20.45 Q60.0125,20.4 60.15,20.4 Q60.4125,20.4 60.6,20.6125 Q60.8,20.8125 60.8,21.1 Q60.8,21.375 60.525,21.7 Q60.125,22.175 59.4875,22.4375 Q58.65,22.8 57.625,22.8 Q56.425,22.8 55.4625,22.325 Q54.6875,21.95 54.1375,21.1375 Q53.6,20.325 53.6,19.3625 L53.6,18.4875 Q53.6,17.4875 54.075,16.6125 Q54.5625,15.7375 55.4,15.275 Q56.25,14.8 57.2,14.8 Q57.775,14.8 58.275,15 Q58.775,15.2 59.2,15.6 Z " fill="#000000"/><text fill="#000000" font-family="sans-serif" font-size="9.6" lengthAdjust="spacing" textLength="66.4" x="68.8" y="22.3281">MedLabTechUI</text><line style="stroke:#A80036;stroke-width:1.2000000000000002;" x1="46.4" x2="136.8" y1="31.2" y2="31.2"/><line style="stroke:#A80036;stroke-width:1.2000000000000002;" x1="46.4" x2="136.8" y1="37.6" y2="37.6"/><!--MD5=[93e1eee8267fa709c623538f5f910104]
class MedLabTechController--><rect codeLine="5" fill="#FEFECE" filter="url(#f1fxwn7jejj8n8)" height="60.5375" id="MedLabTechController" style="stroke:#A80036;stroke-width:1.2000000000000002;" width="125.6" x="28.8" y="92"/><ellipse cx="40.8" cy="104.8" fill="#ADD1B2" rx="8.8" ry="8.8" style="stroke:#A80036;stroke-width:0.8;"/><path d="M42.4,102 Q42.5625,101.6 42.75,101.4 Q42.9375,101.2 43.15,101.2 Q43.525,101.2 43.7625,101.425 Q44,101.65 44,102.175 L44,103.425 Q44,103.95 43.775,104.175 Q43.55,104.4 43.2,104.4 Q42.8875,104.4 42.6875,104.2625 Q42.4875,104.125 42.4,103.7625 Q42.3625,103.5125 42.225,103.375 Q41.975,103.1125 41.525,102.9625 Q41.075,102.8 40.625,102.8 Q40.0625,102.8 39.5875,103.025 Q39.125,103.25 38.7625,103.75 Q38.4,104.25 38.4,104.9375 L38.4,105.675 Q38.4,106.5 39.075,107.05 Q39.75,107.6 40.95,107.6 Q41.6625,107.6 42.1625,107.4375 Q42.45,107.35 42.775,107.0625 Q42.9875,106.9 43.1,106.85 Q43.2125,106.8 43.35,106.8 Q43.6125,106.8 43.8,107.0125 Q44,107.2125 44,107.5 Q44,107.775 43.725,108.1 Q43.325,108.575 42.6875,108.8375 Q41.85,109.2 40.825,109.2 Q39.625,109.2 38.6625,108.725 Q37.8875,108.35 37.3375,107.5375 Q36.8,106.725 36.8,105.7625 L36.8,104.8875 Q36.8,103.8875 37.275,103.0125 Q37.7625,102.1375 38.6,101.675 Q39.45,101.2 40.4,101.2 Q40.975,101.2 41.475,101.4 Q41.975,101.6 42.4,102 Z " fill="#000000"/><text fill="#000000" font-family="sans-serif" font-size="9.6" lengthAdjust="spacing" textLength="100" x="52" y="108.7281">MedLabTechController</text><line style="stroke:#A80036;stroke-width:1.2000000000000002;" x1="29.6" x2="153.6" y1="117.6" y2="117.6"/><line style="stroke:#A80036;stroke-width:1.2000000000000002;" x1="29.6" x2="153.6" y1="124" y2="124"/><text fill="#000000" font-family="sans-serif" font-size="8.8" lengthAdjust="spacing" textLength="51.2" x="33.6" y="136.3352">getTestList();</text><text fill="#000000" font-family="sans-serif" font-size="8.8" lengthAdjust="spacing" textLength="53.6" x="33.6" y="147.4039">saveSample()</text><!--MD5=[0f6f7964b844a64b0496af0dda7914bd]
class TestStore--><rect codeLine="10" fill="#FEFECE" filter="url(#f1fxwn7jejj8n8)" height="49.4688" id="TestStore" style="stroke:#A80036;stroke-width:1.2000000000000002;" width="68" x="5.6" y="206.4"/><ellipse cx="17.6" cy="219.2" fill="#ADD1B2" rx="8.8" ry="8.8" style="stroke:#A80036;stroke-width:0.8;"/><path d="M19.2,216.4 Q19.3625,216 19.55,215.8 Q19.7375,215.6 19.95,215.6 Q20.325,215.6 20.5625,215.825 Q20.8,216.05 20.8,216.575 L20.8,217.825 Q20.8,218.35 20.575,218.575 Q20.35,218.8 20,218.8 Q19.6875,218.8 19.4875,218.6625 Q19.2875,218.525 19.2,218.1625 Q19.1625,217.9125 19.025,217.775 Q18.775,217.5125 18.325,217.3625 Q17.875,217.2 17.425,217.2 Q16.8625,217.2 16.3875,217.425 Q15.925,217.65 15.5625,218.15 Q15.2,218.65 15.2,219.3375 L15.2,220.075 Q15.2,220.9 15.875,221.45 Q16.55,222 17.75,222 Q18.4625,222 18.9625,221.8375 Q19.25,221.75 19.575,221.4625 Q19.7875,221.3 19.9,221.25 Q20.0125,221.2 20.15,221.2 Q20.4125,221.2 20.6,221.4125 Q20.8,221.6125 20.8,221.9 Q20.8,222.175 20.525,222.5 Q20.125,222.975 19.4875,223.2375 Q18.65,223.6 17.625,223.6 Q16.425,223.6 15.4625,223.125 Q14.6875,222.75 14.1375,221.9375 Q13.6,221.125 13.6,220.1625 L13.6,219.2875 Q13.6,218.2875 14.075,217.4125 Q14.5625,216.5375 15.4,216.075 Q16.25,215.6 17.2,215.6 Q17.775,215.6 18.275,215.8 Q18.775,216 19.2,216.4 Z " fill="#000000"/><text fill="#000000" font-family="sans-serif" font-size="9.6" lengthAdjust="spacing" textLength="42.4" x="28.8" y="223.1281">TestStore</text><line style="stroke:#A80036;stroke-width:1.2000000000000002;" x1="6.4" x2="72.8" y1="232" y2="232"/><line style="stroke:#A80036;stroke-width:1.2000000000000002;" x1="6.4" x2="72.8" y1="238.4" y2="238.4"/><text fill="#000000" font-family="sans-serif" font-size="8.8" lengthAdjust="spacing" textLength="51.2" x="10.4" y="250.7352">getTestList();</text><!--MD5=[fcd6df96e169c9fc6403c4dc9bdb4d83]
class SampleStore--><rect codeLine="14" fill="#FEFECE" filter="url(#f1fxwn7jejj8n8)" height="60.5375" id="SampleStore" style="stroke:#A80036;stroke-width:1.2000000000000002;" width="83.2" x="102" y="200.8"/><ellipse cx="114" cy="213.6" fill="#ADD1B2" rx="8.8" ry="8.8" style="stroke:#A80036;stroke-width:0.8;"/><path d="M115.6,210.8 Q115.7625,210.4 115.95,210.2 Q116.1375,210 116.35,210 Q116.725,210 116.9625,210.225 Q117.2,210.45 117.2,210.975 L117.2,212.225 Q117.2,212.75 116.975,212.975 Q116.75,213.2 116.4,213.2 Q116.0875,213.2 115.8875,213.0625 Q115.6875,212.925 115.6,212.5625 Q115.5625,212.3125 115.425,212.175 Q115.175,211.9125 114.725,211.7625 Q114.275,211.6 113.825,211.6 Q113.2625,211.6 112.7875,211.825 Q112.325,212.05 111.9625,212.55 Q111.6,213.05 111.6,213.7375 L111.6,214.475 Q111.6,215.3 112.275,215.85 Q112.95,216.4 114.15,216.4 Q114.8625,216.4 115.3625,216.2375 Q115.65,216.15 115.975,215.8625 Q116.1875,215.7 116.3,215.65 Q116.4125,215.6 116.55,215.6 Q116.8125,215.6 117,215.8125 Q117.2,216.0125 117.2,216.3 Q117.2,216.575 116.925,216.9 Q116.525,217.375 115.8875,217.6375 Q115.05,218 114.025,218 Q112.825,218 111.8625,217.525 Q111.0875,217.15 110.5375,216.3375 Q110,215.525 110,214.5625 L110,213.6875 Q110,212.6875 110.475,211.8125 Q110.9625,210.9375 111.8,210.475 Q112.65,210 113.6,210 Q114.175,210 114.675,210.2 Q115.175,210.4 115.6,210.8 Z " fill="#000000"/><text fill="#000000" font-family="sans-serif" font-size="9.6" lengthAdjust="spacing" textLength="57.6" x="125.2" y="217.5281">SampleStore</text><line style="stroke:#A80036;stroke-width:1.2000000000000002;" x1="102.8" x2="184.4" y1="226.4" y2="226.4"/><line style="stroke:#A80036;stroke-width:1.2000000000000002;" x1="102.8" x2="184.4" y1="232.8" y2="232.8"/><text fill="#000000" font-family="sans-serif" font-size="8.8" lengthAdjust="spacing" textLength="56" x="106.8" y="245.1352">saveSample();</text><text fill="#000000" font-family="sans-serif" font-size="8.8" lengthAdjust="spacing" textLength="66.4" x="106.8" y="256.2039">validateSample();</text><!--MD5=[9681492165142af2a4a3a169d90ee8d4]
class Sample--><rect codeLine="19" fill="#FEFECE" filter="url(#f1fxwn7jejj8n8)" height="49.4688" id="Sample" style="stroke:#A80036;stroke-width:1.2000000000000002;" width="65.6" x="110.8" y="309.6"/><ellipse cx="125.32" cy="322.4" fill="#ADD1B2" rx="8.8" ry="8.8" style="stroke:#A80036;stroke-width:0.8;"/><path d="M126.92,319.6 Q127.0825,319.2 127.27,319 Q127.4575,318.8 127.67,318.8 Q128.045,318.8 128.2825,319.025 Q128.52,319.25 128.52,319.775 L128.52,321.025 Q128.52,321.55 128.295,321.775 Q128.07,322 127.72,322 Q127.4075,322 127.2075,321.8625 Q127.0075,321.725 126.92,321.3625 Q126.8825,321.1125 126.745,320.975 Q126.495,320.7125 126.045,320.5625 Q125.595,320.4 125.145,320.4 Q124.5825,320.4 124.1075,320.625 Q123.645,320.85 123.2825,321.35 Q122.92,321.85 122.92,322.5375 L122.92,323.275 Q122.92,324.1 123.595,324.65 Q124.27,325.2 125.47,325.2 Q126.1825,325.2 126.6825,325.0375 Q126.97,324.95 127.295,324.6625 Q127.5075,324.5 127.62,324.45 Q127.7325,324.4 127.87,324.4 Q128.1325,324.4 128.32,324.6125 Q128.52,324.8125 128.52,325.1 Q128.52,325.375 128.245,325.7 Q127.845,326.175 127.2075,326.4375 Q126.37,326.8 125.345,326.8 Q124.145,326.8 123.1825,326.325 Q122.4075,325.95 121.8575,325.1375 Q121.32,324.325 121.32,323.3625 L121.32,322.4875 Q121.32,321.4875 121.795,320.6125 Q122.2825,319.7375 123.12,319.275 Q123.97,318.8 124.92,318.8 Q125.495,318.8 125.995,319 Q126.495,319.2 126.92,319.6 Z " fill="#000000"/><text fill="#000000" font-family="sans-serif" font-size="9.6" lengthAdjust="spacing" textLength="34.4" x="137.08" y="326.3281">Sample</text><line style="stroke:#A80036;stroke-width:1.2000000000000002;" x1="111.6" x2="175.6" y1="335.2" y2="335.2"/><line style="stroke:#A80036;stroke-width:1.2000000000000002;" x1="111.6" x2="175.6" y1="341.6" y2="341.6"/><text fill="#000000" font-family="sans-serif" font-size="8.8" lengthAdjust="spacing" textLength="56" x="115.6" y="353.9352">saveSample();</text><!--MD5=[a09588da01d46117819ba28e4f6017f7]
link MedLabTechUI to MedLabTechController--><path codeLine="23" d="M91.6,44.112 C91.6,56.464 91.6,73.064 91.6,87.736 " fill="none" id="MedLabTechUI-to-MedLabTechController" style="stroke:#A80036;stroke-width:0.8;stroke-dasharray:7.0,7.0;"/><polygon fill="#A80036" points="91.6,91.816,94.8,84.616,91.6,87.816,88.4,84.616,91.6,91.816" style="stroke:#A80036;stroke-width:0.8;"/><!--MD5=[7eb10bc108321e8224b0bbf3123161b6]
link MedLabTechController to TestStore--><path codeLine="24" d="M77.112,153.064 C69.632,168.48 60.56,187.184 53.208,202.336 " fill="none" id="MedLabTechController-to-TestStore" style="stroke:#A80036;stroke-width:0.8;stroke-dasharray:7.0,7.0;"/><polygon fill="#A80036" points="51.384,206.112,57.4014,201.0257,53.1268,202.5117,51.6408,198.2371,51.384,206.112" style="stroke:#A80036;stroke-width:0.8;"/><!--MD5=[67e1dae718b88f986bbc2a00f390b271]
link MedLabTechController to SampleStore--><path codeLine="25" d="M106.088,153.064 C112.68,166.648 120.504,182.792 127.304,196.808 " fill="none" id="MedLabTechController-to-SampleStore" style="stroke:#A80036;stroke-width:0.8;stroke-dasharray:7.0,7.0;"/><polygon fill="#A80036" points="129.192,200.696,128.9247,192.8214,127.4444,197.098,123.1679,195.6176,129.192,200.696" style="stroke:#A80036;stroke-width:0.8;"/><!--MD5=[24da80e03bf7ae3160485df7795f9e59]
link SampleStore to Sample--><path codeLine="26" d="M143.6,261.664 C143.6,275.464 143.6,291.792 143.6,305.408 " fill="none" id="SampleStore-to-Sample" style="stroke:#A80036;stroke-width:0.8;"/><polygon fill="#A80036" points="143.6,309.544,146.8,302.344,143.6,305.544,140.4,302.344,143.6,309.544" style="stroke:#A80036;stroke-width:0.8;"/><!--MD5=[6e27146122789e48a9d492476d1fc60f]
@startuml

class MedLabTechUI{
}

class MedLabTechController{
getTestList();
saveSample()
}

class TestStore{
getTestList();
}

class SampleStore{
saveSample();
validateSample();
}

class Sample{
saveSample();
}

MedLabTechUI ..> MedLabTechController
MedLabTechController ..> TestStore
MedLabTechController ..> SampleStore
SampleStore - -> Sample

@enduml

PlantUML version 1.2021.00(Sun Jan 10 10:25:05 GMT 2021)
(GPL source distribution)
Java Runtime: OpenJDK Runtime Environment
JVM: OpenJDK 64-Bit Server VM
Default Encoding: Cp1252
Language: pt
Country: PT
--></g></svg>