<?xml version="1.0" encoding="UTF-8" standalone="no"?><svg xmlns="http://www.w3.org/2000/svg" xmlns:xlink="http://www.w3.org/1999/xlink" contentScriptType="application/ecmascript" contentStyleType="text/css" height="640.8px" preserveAspectRatio="none" style="width:794px;height:640px;" version="1.1" viewBox="0 0 794 640" width="794.4px" zoomAndPan="magnify"><defs><filter height="300%" id="fnm8hfbn4sprh" width="300%" x="-1" y="-1"><feGaussianBlur result="blurOut" stdDeviation="1.6"/><feColorMatrix in="blurOut" result="blurOut2" type="matrix" values="0 0 0 0 0 0 0 0 0 0 0 0 0 0 0 0 0 0 .4 0"/><feOffset dx="3.2" dy="3.2" in="blurOut2" result="blurOut3"/><feBlend in="SourceGraphic" in2="blurOut3" mode="normal"/></filter></defs><g><rect fill="#FFFFFF" filter="url(#fnm8hfbn4sprh)" height="478.6625" style="stroke:#A80036;stroke-width:0.8;" width="8" x="55.6" y="79.6875"/><rect fill="#FFFFFF" filter="url(#fnm8hfbn4sprh)" height="117.125" style="stroke:#A80036;stroke-width:0.8;" width="8" x="286" y="97.5688"/><rect fill="#FFFFFF" filter="url(#fnm8hfbn4sprh)" height="141.6875" style="stroke:#A80036;stroke-width:0.8;" width="8" x="286" y="238.975"/><rect fill="#FFFFFF" filter="url(#fnm8hfbn4sprh)" height="142.2063" style="stroke:#A80036;stroke-width:0.8;" width="8" x="286" y="416.1438"/><rect fill="#FFFFFF" filter="url(#fnm8hfbn4sprh)" height="48.2813" style="stroke:#A80036;stroke-width:0.8;" width="8" x="407.6" y="121.85"/><rect fill="#FFFFFF" filter="url(#fnm8hfbn4sprh)" height="24.2813" style="stroke:#A80036;stroke-width:0.8;" width="8" x="407.6" y="307.8188"/><rect fill="#FFFFFF" filter="url(#fnm8hfbn4sprh)" height="117.925" style="stroke:#A80036;stroke-width:0.8;" width="8" x="407.6" y="440.425"/><rect fill="#FFFFFF" filter="url(#fnm8hfbn4sprh)" height="24" style="stroke:#A80036;stroke-width:0.8;" width="8" x="520.4" y="146.1313"/><rect fill="#FFFFFF" filter="url(#fnm8hfbn4sprh)" height="24.2813" style="stroke:#A80036;stroke-width:0.8;" width="8" x="622" y="332.1"/><rect fill="#FFFFFF" filter="url(#fnm8hfbn4sprh)" height="93.6438" style="stroke:#A80036;stroke-width:0.8;" width="8" x="622" y="464.7063"/><rect fill="#FFFFFF" filter="url(#fnm8hfbn4sprh)" height="210.5313" style="stroke:#000000;stroke-width:1.6;" width="775.6" x="8" y="182.1313"/><rect fill="#FFFFFF" filter="url(#fnm8hfbn4sprh)" height="136.0875" style="stroke:#000000;stroke-width:1.6;" width="759.6" x="16" y="250.975"/><line style="stroke:#A80036;stroke-width:0.8;stroke-dasharray:5.0,5.0;" x1="59.2" x2="59.2" y1="71.6875" y2="572.75"/><line style="stroke:#A80036;stroke-width:0.8;stroke-dasharray:5.0,5.0;" x1="289.6" x2="289.6" y1="71.6875" y2="572.75"/><line style="stroke:#A80036;stroke-width:0.8;stroke-dasharray:5.0,5.0;" x1="411.2" x2="411.2" y1="71.6875" y2="572.75"/><line style="stroke:#A80036;stroke-width:0.8;stroke-dasharray:5.0,5.0;" x1="524" x2="524" y1="71.6875" y2="572.75"/><line style="stroke:#A80036;stroke-width:0.8;stroke-dasharray:5.0,5.0;" x1="625.6" x2="625.6" y1="71.6875" y2="572.75"/><line style="stroke:#A80036;stroke-width:0.8;stroke-dasharray:5.0,5.0;" x1="735.6" x2="735.6" y1="71.6875" y2="572.75"/><text fill="#000000" font-family="sans-serif" font-size="11.2" lengthAdjust="spacing" textLength="66.4" x="24" y="69.2266">MedLabTech</text><ellipse cx="59.6" cy="12" fill="#FEFECE" filter="url(#fnm8hfbn4sprh)" rx="6.4" ry="6.4" style="stroke:#A80036;stroke-width:1.6;"/><path d="M59.6,18.4 L59.6,40 M49.2,24.8 L70,24.8 M59.6,40 L49.2,52 M59.6,40 L70,52 " fill="none" filter="url(#fnm8hfbn4sprh)" style="stroke:#A80036;stroke-width:1.6;"/><text fill="#000000" font-family="sans-serif" font-size="11.2" lengthAdjust="spacing" textLength="66.4" x="24" y="583.5766">MedLabTech</text><ellipse cx="59.6" cy="594.0375" fill="#FEFECE" filter="url(#fnm8hfbn4sprh)" rx="6.4" ry="6.4" style="stroke:#A80036;stroke-width:1.6;"/><path d="M59.6,600.4375 L59.6,622.0375 M49.2,606.8375 L70,606.8375 M59.6,622.0375 L49.2,634.0375 M59.6,622.0375 L70,634.0375 " fill="none" filter="url(#fnm8hfbn4sprh)" style="stroke:#A80036;stroke-width:1.6;"/><rect fill="#FEFECE" filter="url(#fnm8hfbn4sprh)" height="25.2875" style="stroke:#A80036;stroke-width:1.2000000000000002;" width="90.4" x="243.2" y="42.4"/><text fill="#000000" font-family="sans-serif" font-size="11.2" lengthAdjust="spacing" textLength="79.2" x="248.8" y="59.6266">:MedLabTechUI</text><rect fill="#FEFECE" filter="url(#fnm8hfbn4sprh)" height="25.2875" style="stroke:#A80036;stroke-width:1.2000000000000002;" width="90.4" x="243.2" y="571.95"/><text fill="#000000" font-family="sans-serif" font-size="11.2" lengthAdjust="spacing" textLength="79.2" x="248.8" y="589.1766">:MedLabTechUI</text><rect fill="#FEFECE" filter="url(#fnm8hfbn4sprh)" height="25.2875" style="stroke:#A80036;stroke-width:1.2000000000000002;" width="130.4" x="344.8" y="42.4"/><text fill="#000000" font-family="sans-serif" font-size="11.2" lengthAdjust="spacing" textLength="119.2" x="350.4" y="59.6266">:MedLabTechController</text><rect fill="#FEFECE" filter="url(#fnm8hfbn4sprh)" height="25.2875" style="stroke:#A80036;stroke-width:1.2000000000000002;" width="130.4" x="344.8" y="571.95"/><text fill="#000000" font-family="sans-serif" font-size="11.2" lengthAdjust="spacing" textLength="119.2" x="350.4" y="589.1766">:MedLabTechController</text><rect fill="#FEFECE" filter="url(#fnm8hfbn4sprh)" height="25.2875" style="stroke:#A80036;stroke-width:1.2000000000000002;" width="72.8" x="486.4" y="42.4"/><text fill="#000000" font-family="sans-serif" font-size="11.2" lengthAdjust="spacing" textLength="61.6" x="492" y="59.6266">ts:TestStore</text><rect fill="#FEFECE" filter="url(#fnm8hfbn4sprh)" height="25.2875" style="stroke:#A80036;stroke-width:1.2000000000000002;" width="72.8" x="486.4" y="571.95"/><text fill="#000000" font-family="sans-serif" font-size="11.2" lengthAdjust="spacing" textLength="61.6" x="492" y="589.1766">ts:TestStore</text><rect fill="#FEFECE" filter="url(#fnm8hfbn4sprh)" height="25.2875" style="stroke:#A80036;stroke-width:1.2000000000000002;" width="108" x="570.4" y="42.4"/><text fill="#000000" font-family="sans-serif" font-size="11.2" lengthAdjust="spacing" textLength="96.8" x="576" y="59.6266">store: SampleStore</text><rect fill="#FEFECE" filter="url(#fnm8hfbn4sprh)" height="25.2875" style="stroke:#A80036;stroke-width:1.2000000000000002;" width="108" x="570.4" y="571.95"/><text fill="#000000" font-family="sans-serif" font-size="11.2" lengthAdjust="spacing" textLength="96.8" x="576" y="589.1766">store: SampleStore</text><rect fill="#FEFECE" filter="url(#fnm8hfbn4sprh)" height="25.2875" style="stroke:#A80036;stroke-width:1.2000000000000002;" width="60.8" x="703.6" y="42.4"/><text fill="#000000" font-family="sans-serif" font-size="11.2" lengthAdjust="spacing" textLength="49.6" x="709.2" y="59.6266">s: Sample</text><rect fill="#FEFECE" filter="url(#fnm8hfbn4sprh)" height="25.2875" style="stroke:#A80036;stroke-width:1.2000000000000002;" width="60.8" x="703.6" y="571.95"/><text fill="#000000" font-family="sans-serif" font-size="11.2" lengthAdjust="spacing" textLength="49.6" x="709.2" y="589.1766">s: Sample</text><rect fill="#FFFFFF" filter="url(#fnm8hfbn4sprh)" height="478.6625" style="stroke:#A80036;stroke-width:0.8;" width="8" x="55.6" y="79.6875"/><rect fill="#FFFFFF" filter="url(#fnm8hfbn4sprh)" height="117.125" style="stroke:#A80036;stroke-width:0.8;" width="8" x="286" y="97.5688"/><rect fill="#FFFFFF" filter="url(#fnm8hfbn4sprh)" height="141.6875" style="stroke:#A80036;stroke-width:0.8;" width="8" x="286" y="238.975"/><rect fill="#FFFFFF" filter="url(#fnm8hfbn4sprh)" height="142.2063" style="stroke:#A80036;stroke-width:0.8;" width="8" x="286" y="416.1438"/><rect fill="#FFFFFF" filter="url(#fnm8hfbn4sprh)" height="48.2813" style="stroke:#A80036;stroke-width:0.8;" width="8" x="407.6" y="121.85"/><rect fill="#FFFFFF" filter="url(#fnm8hfbn4sprh)" height="24.2813" style="stroke:#A80036;stroke-width:0.8;" width="8" x="407.6" y="307.8188"/><rect fill="#FFFFFF" filter="url(#fnm8hfbn4sprh)" height="117.925" style="stroke:#A80036;stroke-width:0.8;" width="8" x="407.6" y="440.425"/><rect fill="#FFFFFF" filter="url(#fnm8hfbn4sprh)" height="24" style="stroke:#A80036;stroke-width:0.8;" width="8" x="520.4" y="146.1313"/><rect fill="#FFFFFF" filter="url(#fnm8hfbn4sprh)" height="24.2813" style="stroke:#A80036;stroke-width:0.8;" width="8" x="622" y="332.1"/><rect fill="#FFFFFF" filter="url(#fnm8hfbn4sprh)" height="93.6438" style="stroke:#A80036;stroke-width:0.8;" width="8" x="622" y="464.7063"/><polygon fill="#A80036" points="276.4,94.3688,284.4,97.5688,276.4,100.7688,279.6,97.5688" style="stroke:#A80036;stroke-width:0.8;"/><line style="stroke:#A80036;stroke-width:0.8;" x1="63.6" x2="281.2" y1="97.5688" y2="97.5688"/><text fill="#000000" font-family="sans-serif" font-size="10.4" font-weight="bold" lengthAdjust="spacing" textLength="5.6" x="69.2" y="93.6836">1</text><text fill="#000000" font-family="sans-serif" font-size="10.4" lengthAdjust="spacing" textLength="131.2" x="78" y="93.6836">wants to record the samples</text><polygon fill="#A80036" points="398,118.65,406,121.85,398,125.05,401.2,121.85" style="stroke:#A80036;stroke-width:0.8;"/><line style="stroke:#A80036;stroke-width:0.8;" x1="294" x2="402.8" y1="121.85" y2="121.85"/><text fill="#000000" font-family="sans-serif" font-size="10.4" font-weight="bold" lengthAdjust="spacing" textLength="5.6" x="299.6" y="117.9648">2</text><text fill="#000000" font-family="sans-serif" font-size="10.4" lengthAdjust="spacing" textLength="57.6" x="308.4" y="117.9648">getTestList()</text><polygon fill="#A80036" points="510.8,142.9313,518.8,146.1313,510.8,149.3313,514,146.1313" style="stroke:#A80036;stroke-width:0.8;"/><line style="stroke:#A80036;stroke-width:0.8;" x1="415.6" x2="515.6" y1="146.1313" y2="146.1313"/><text fill="#000000" font-family="sans-serif" font-size="10.4" font-weight="bold" lengthAdjust="spacing" textLength="5.6" x="421.2" y="142.2461">3</text><text fill="#000000" font-family="sans-serif" font-size="10.4" lengthAdjust="spacing" textLength="57.6" x="430" y="142.2461">getTestList()</text><path d="M8,182.1313 L66.4,182.1313 L66.4,188.5313 L58.4,196.5313 L8,196.5313 L8,182.1313 " fill="#EEEEEE" style="stroke:#000000;stroke-width:0.8;"/><rect fill="none" height="210.5313" style="stroke:#000000;stroke-width:1.6;" width="775.6" x="8" y="182.1313"/><text fill="#000000" font-family="sans-serif" font-size="10.4" font-weight="bold" lengthAdjust="spacing" textLength="22.4" x="20" y="193.7273">loop</text><polygon fill="#A80036" points="72.4,211.4938,64.4,214.6938,72.4,217.8938,69.2,214.6938" style="stroke:#A80036;stroke-width:0.8;"/><line style="stroke:#A80036;stroke-width:0.8;stroke-dasharray:2.0,2.0;" x1="67.6" x2="289.2" y1="214.6938" y2="214.6938"/><text fill="#000000" font-family="sans-serif" font-size="10.4" font-weight="bold" lengthAdjust="spacing" textLength="5.6" x="77.2" y="210.8086">4</text><text fill="#000000" font-family="sans-serif" font-size="10.4" lengthAdjust="spacing" textLength="67.2" x="86" y="210.8086">shows test list</text><polygon fill="#A80036" points="276.4,235.775,284.4,238.975,276.4,242.175,279.6,238.975" style="stroke:#A80036;stroke-width:0.8;"/><line style="stroke:#A80036;stroke-width:0.8;" x1="63.6" x2="281.2" y1="238.975" y2="238.975"/><text fill="#000000" font-family="sans-serif" font-size="10.4" font-weight="bold" lengthAdjust="spacing" textLength="5.6" x="69.2" y="235.0898">5</text><text fill="#000000" font-family="sans-serif" font-size="10.4" lengthAdjust="spacing" textLength="120.8" x="78" y="235.0898">selects a test from the list</text><path d="M16,250.975 L74.4,250.975 L74.4,257.375 L66.4,265.375 L16,265.375 L16,250.975 " fill="#EEEEEE" style="stroke:#000000;stroke-width:0.8;"/><rect fill="none" height="136.0875" style="stroke:#000000;stroke-width:1.6;" width="759.6" x="16" y="250.975"/><text fill="#000000" font-family="sans-serif" font-size="10.4" font-weight="bold" lengthAdjust="spacing" textLength="22.4" x="28" y="262.5711">loop</text><polygon fill="#A80036" points="72.4,280.3375,64.4,283.5375,72.4,286.7375,69.2,283.5375" style="stroke:#A80036;stroke-width:0.8;"/><line style="stroke:#A80036;stroke-width:0.8;stroke-dasharray:2.0,2.0;" x1="67.6" x2="285.2" y1="283.5375" y2="283.5375"/><text fill="#000000" font-family="sans-serif" font-size="10.4" font-weight="bold" lengthAdjust="spacing" textLength="5.6" x="77.2" y="279.6523">6</text><text fill="#000000" font-family="sans-serif" font-size="10.4" lengthAdjust="spacing" textLength="82.4" x="86" y="279.6523">asks for a sample</text><polygon fill="#A80036" points="398,304.6188,406,307.8188,398,311.0188,401.2,307.8188" style="stroke:#A80036;stroke-width:0.8;"/><line style="stroke:#A80036;stroke-width:0.8;" x1="294" x2="402.8" y1="307.8188" y2="307.8188"/><text fill="#000000" font-family="sans-serif" font-size="10.4" font-weight="bold" lengthAdjust="spacing" textLength="5.6" x="299.6" y="303.9336">7</text><text fill="#000000" font-family="sans-serif" font-size="10.4" lengthAdjust="spacing" textLength="62.4" x="308.4" y="303.9336">saveSample()</text><polygon fill="#A80036" points="612.4,328.9,620.4,332.1,612.4,335.3,615.6,332.1" style="stroke:#A80036;stroke-width:0.8;"/><line style="stroke:#A80036;stroke-width:0.8;" x1="411.6" x2="617.2" y1="332.1" y2="332.1"/><text fill="#000000" font-family="sans-serif" font-size="10.4" font-weight="bold" lengthAdjust="spacing" textLength="5.6" x="417.2" y="328.2148">8</text><text fill="#000000" font-family="sans-serif" font-size="10.4" lengthAdjust="spacing" textLength="62.4" x="426" y="328.2148">saveSample()</text><polygon fill="#A80036" points="726,353.1813,734,356.3813,726,359.5813,729.2,356.3813" style="stroke:#A80036;stroke-width:0.8;"/><line style="stroke:#A80036;stroke-width:0.8;" x1="626" x2="730.8" y1="356.3813" y2="356.3813"/><text fill="#000000" font-family="sans-serif" font-size="10.4" font-weight="bold" lengthAdjust="spacing" textLength="5.6" x="631.6" y="352.4961">9</text><text fill="#000000" font-family="sans-serif" font-size="10.4" lengthAdjust="spacing" textLength="62.4" x="640.4" y="352.4961">saveSample()</text><polygon fill="#A80036" points="72.4,377.4625,64.4,380.6625,72.4,383.8625,69.2,380.6625" style="stroke:#A80036;stroke-width:0.8;"/><line style="stroke:#A80036;stroke-width:0.8;stroke-dasharray:2.0,2.0;" x1="67.6" x2="289.2" y1="380.6625" y2="380.6625"/><text fill="#000000" font-family="sans-serif" font-size="10.4" font-weight="bold" lengthAdjust="spacing" textLength="11.2" x="77.2" y="376.7773">10</text><text fill="#000000" font-family="sans-serif" font-size="10.4" lengthAdjust="spacing" textLength="188.8" x="91.6" y="376.7773">shows all data and requests confirmation</text><polygon fill="#A80036" points="276.4,412.9438,284.4,416.1438,276.4,419.3438,279.6,416.1438" style="stroke:#A80036;stroke-width:0.8;"/><line style="stroke:#A80036;stroke-width:0.8;" x1="63.6" x2="281.2" y1="416.1438" y2="416.1438"/><text fill="#000000" font-family="sans-serif" font-size="10.4" font-weight="bold" lengthAdjust="spacing" textLength="11.2" x="69.2" y="412.2586">11</text><text fill="#000000" font-family="sans-serif" font-size="10.4" lengthAdjust="spacing" textLength="80" x="83.6" y="412.2586">confirms the data</text><polygon fill="#A80036" points="398,437.225,406,440.425,398,443.625,401.2,440.425" style="stroke:#A80036;stroke-width:0.8;"/><line style="stroke:#A80036;stroke-width:0.8;" x1="294" x2="402.8" y1="440.425" y2="440.425"/><text fill="#000000" font-family="sans-serif" font-size="10.4" font-weight="bold" lengthAdjust="spacing" textLength="11.2" x="299.6" y="436.5398">12</text><text fill="#000000" font-family="sans-serif" font-size="10.4" lengthAdjust="spacing" textLength="62.4" x="314" y="436.5398">saveSample()</text><polygon fill="#A80036" points="612.4,461.5063,620.4,464.7063,612.4,467.9063,615.6,464.7063" style="stroke:#A80036;stroke-width:0.8;"/><line style="stroke:#A80036;stroke-width:0.8;" x1="415.6" x2="617.2" y1="464.7063" y2="464.7063"/><text fill="#000000" font-family="sans-serif" font-size="10.4" font-weight="bold" lengthAdjust="spacing" textLength="11.2" x="421.2" y="460.8211">13</text><text fill="#000000" font-family="sans-serif" font-size="10.4" lengthAdjust="spacing" textLength="62.4" x="435.6" y="460.8211">saveSample()</text><line style="stroke:#A80036;stroke-width:0.8;" x1="630" x2="663.6" y1="488.9875" y2="488.9875"/><line style="stroke:#A80036;stroke-width:0.8;" x1="663.6" x2="663.6" y1="488.9875" y2="499.3875"/><line style="stroke:#A80036;stroke-width:0.8;" x1="630.8" x2="663.6" y1="499.3875" y2="499.3875"/><polygon fill="#A80036" points="638.8,496.1875,630.8,499.3875,638.8,502.5875,635.6,499.3875" style="stroke:#A80036;stroke-width:0.8;"/><text fill="#000000" font-family="sans-serif" font-size="10.4" font-weight="bold" lengthAdjust="spacing" textLength="11.2" x="635.6" y="485.1023">14</text><text fill="#000000" font-family="sans-serif" font-size="10.4" lengthAdjust="spacing" textLength="76" x="650" y="485.1023">validateSample()</text><line style="stroke:#A80036;stroke-width:0.8;" x1="630" x2="663.6" y1="523.6688" y2="523.6688"/><line style="stroke:#A80036;stroke-width:0.8;" x1="663.6" x2="663.6" y1="523.6688" y2="534.0688"/><line style="stroke:#A80036;stroke-width:0.8;" x1="630.8" x2="663.6" y1="534.0688" y2="534.0688"/><polygon fill="#A80036" points="638.8,530.8688,630.8,534.0688,638.8,537.2688,635.6,534.0688" style="stroke:#A80036;stroke-width:0.8;"/><text fill="#000000" font-family="sans-serif" font-size="10.4" font-weight="bold" lengthAdjust="spacing" textLength="11.2" x="635.6" y="519.7836">15</text><text fill="#000000" font-family="sans-serif" font-size="10.4" lengthAdjust="spacing" textLength="62.4" x="650" y="519.7836">saveSample()</text><polygon fill="#A80036" points="68.4,555.15,60.4,558.35,68.4,561.55,65.2,558.35" style="stroke:#A80036;stroke-width:0.8;"/><line style="stroke:#A80036;stroke-width:0.8;stroke-dasharray:2.0,2.0;" x1="63.6" x2="289.2" y1="558.35" y2="558.35"/><text fill="#000000" font-family="sans-serif" font-size="10.4" font-weight="bold" lengthAdjust="spacing" textLength="11.2" x="73.2" y="554.4648">16</text><text fill="#000000" font-family="sans-serif" font-size="10.4" lengthAdjust="spacing" textLength="121.6" x="87.6" y="554.4648">informs operation success</text><!--MD5=[db18d24e3e0db0300267de8dd86b1d3a]
@startuml
autonumber
actor MedLabTech as MLT
participant ":MedLabTechUI" as UI
participant ":MedLabTechController" as CTRL
participant "ts:TestStore" as TT
participant "store: SampleStore" as STO
participant "s: Sample" as S

activate MLT
MLT -> UI: wants to record the samples
activate UI
UI -> CTRL: getTestList()
activate CTRL
CTRL -> TT: getTestList()
activate TT
deactivate CTRL
deactivate TT
loop
UI - -> MLT: shows test list
deactivate UI
MLT -> UI: selects a test from the list
activate UI
loop
UI - -> MLT: asks for a sample
UI -> CTRL: saveSample()
activate CTRL
CTRL -> STO: saveSample()
deactivate CTRL
activate STO
STO -> S: saveSample()
deactivate STO
UI - -> MLT: shows all data and requests confirmation
deactivate UI
end
end
deactivate UI
deactivate STO
deactivate CTRL
deactivate CTRL
MLT -> UI: confirms the data
activate UI
UI -> CTRL: saveSample()
activate CTRL
CTRL -> STO: saveSample()
activate STO
STO -> STO: validateSample()
STO -> STO: saveSample()
UI - -> MLT: informs operation success
deactivate STO
deactivate CTRL
deactivate UI
deactivate MLT
@enduml

PlantUML version 1.2021.00(Sun Jan 10 10:25:05 GMT 2021)
(GPL source distribution)
Java Runtime: OpenJDK Runtime Environment
JVM: OpenJDK 64-Bit Server VM
Default Encoding: Cp1252
Language: pt
Country: PT
--></g></svg>