<?xml version="1.0" encoding="UTF-8" standalone="no"?>
<svg xmlns="http://www.w3.org/2000/svg"
     contentScriptType="application/ecmascript" contentStyleType="text/css" height="208px" preserveAspectRatio="none"
     style="width:869px;height:208px;" version="1.1" viewBox="0 0 869 208" width="869px" zoomAndPan="magnify">
    <defs>
        <filter height="300%" id="fy0m4upigb0pp" width="300%" x="-1" y="-1">
            <feGaussianBlur result="blurOut" stdDeviation="2.0"/>
            <feColorMatrix in="blurOut" result="blurOut2" type="matrix"
                           values="0 0 0 0 0 0 0 0 0 0 0 0 0 0 0 0 0 0 .4 0"/>
            <feOffset dx="4.0" dy="4.0" in="blurOut2" result="blurOut3"/>
            <feBlend in="SourceGraphic" in2="blurOut3" mode="normal"/>
        </filter>
    </defs>
    <g><!--MD5=[02e4b9b7573f1156f41e60aa5b4e25a4]
class Company-->
        <rect codeLine="5" fill="#FEFECE" filter="url(#fy0m4upigb0pp)" height="53.8359" id="Company"
              style="stroke:#A80036;stroke-width:1.5;" width="85" x="7" y="99.5"/>
        <ellipse cx="22" cy="115.5" fill="#ADD1B2" rx="11" ry="11" style="stroke:#A80036;stroke-width:1.0;"/>
        <path d="M24,112 Q24.2031,111.5 24.4375,111.25 Q24.6719,111 24.9375,111 Q25.4063,111 25.7031,111.2813 Q26,111.5625 26,112.2188 L26,113.7813 Q26,114.4375 25.7188,114.7188 Q25.4375,115 25,115 Q24.6094,115 24.3594,114.8281 Q24.1094,114.6563 24,114.2031 Q23.9531,113.8906 23.7813,113.7188 Q23.4688,113.3906 22.9063,113.2031 Q22.3438,113 21.7813,113 Q21.0781,113 20.4844,113.2813 Q19.9063,113.5625 19.4531,114.1875 Q19,114.8125 19,115.6719 L19,116.5938 Q19,117.625 19.8438,118.3125 Q20.6875,119 22.1875,119 Q23.0781,119 23.7031,118.7969 Q24.0625,118.6875 24.4688,118.3281 Q24.7344,118.125 24.875,118.0625 Q25.0156,118 25.1875,118 Q25.5156,118 25.75,118.2656 Q26,118.5156 26,118.875 Q26,119.2188 25.6563,119.625 Q25.1563,120.2188 24.3594,120.5469 Q23.3125,121 22.0313,121 Q20.5313,121 19.3281,120.4063 Q18.3594,119.9375 17.6719,118.9219 Q17,117.9063 17,116.7031 L17,115.6094 Q17,114.3594 17.5938,113.2656 Q18.2031,112.1719 19.25,111.5938 Q20.3125,111 21.5,111 Q22.2188,111 22.8438,111.25 Q23.4688,111.5 24,112 Z "
              fill="#000000"/>
        <text fill="#000000" font-family="sans-serif" font-size="12" lengthAdjust="spacing" textLength="53" x="36"
              y="120.4102">Company
        </text>
        <line style="stroke:#A80036;stroke-width:1.5;" x1="8" x2="91" y1="131.5" y2="131.5"/>
        <text fill="#000000" font-family="sans-serif" font-size="11" lengthAdjust="spacing" textLength="26" x="13"
              y="146.9189">name
        </text><!--MD5=[da547346deef918ea16944ba046651ef]
class Administrator-->
        <rect codeLine="9" fill="#FEFECE" filter="url(#fy0m4upigb0pp)" height="136.8516" id="Administrator"
              style="stroke:#A80036;stroke-width:1.5;" width="225" x="203" y="58"/>
        <ellipse cx="274.75" cy="74" fill="#ADD1B2" rx="11" ry="11" style="stroke:#A80036;stroke-width:1.0;"/>
        <path d="M276.75,70.5 Q276.9531,70 277.1875,69.75 Q277.4219,69.5 277.6875,69.5 Q278.1563,69.5 278.4531,69.7813 Q278.75,70.0625 278.75,70.7188 L278.75,72.2813 Q278.75,72.9375 278.4688,73.2188 Q278.1875,73.5 277.75,73.5 Q277.3594,73.5 277.1094,73.3281 Q276.8594,73.1563 276.75,72.7031 Q276.7031,72.3906 276.5313,72.2188 Q276.2188,71.8906 275.6563,71.7031 Q275.0938,71.5 274.5313,71.5 Q273.8281,71.5 273.2344,71.7813 Q272.6563,72.0625 272.2031,72.6875 Q271.75,73.3125 271.75,74.1719 L271.75,75.0938 Q271.75,76.125 272.5938,76.8125 Q273.4375,77.5 274.9375,77.5 Q275.8281,77.5 276.4531,77.2969 Q276.8125,77.1875 277.2188,76.8281 Q277.4844,76.625 277.625,76.5625 Q277.7656,76.5 277.9375,76.5 Q278.2656,76.5 278.5,76.7656 Q278.75,77.0156 278.75,77.375 Q278.75,77.7188 278.4063,78.125 Q277.9063,78.7188 277.1094,79.0469 Q276.0625,79.5 274.7813,79.5 Q273.2813,79.5 272.0781,78.9063 Q271.1094,78.4375 270.4219,77.4219 Q269.75,76.4063 269.75,75.2031 L269.75,74.1094 Q269.75,72.8594 270.3438,71.7656 Q270.9531,70.6719 272,70.0938 Q273.0625,69.5 274.25,69.5 Q274.9688,69.5 275.5938,69.75 Q276.2188,70 276.75,70.5 Z "
              fill="#000000"/>
        <text fill="#000000" font-family="sans-serif" font-size="12" lengthAdjust="spacing" textLength="73" x="295.25"
              y="78.9102">Administrator
        </text>
        <line style="stroke:#A80036;stroke-width:1.5;" x1="204" x2="427" y1="90" y2="90"/>
        <text fill="#000000" font-family="sans-serif" font-size="11" lengthAdjust="spacing" textLength="61" x="209"
              y="105.4189">Employee ID;
        </text>
        <text fill="#000000" font-family="sans-serif" font-size="11" lengthAdjust="spacing" textLength="88" x="209"
              y="119.2549">Organization Role;
        </text>
        <text fill="#000000" font-family="sans-serif" font-size="11" lengthAdjust="spacing" textLength="30" x="209"
              y="133.0908">Name;
        </text>
        <text fill="#000000" font-family="sans-serif" font-size="11" lengthAdjust="spacing" textLength="45" x="209"
              y="146.9268">Address;
        </text>
        <text fill="#000000" font-family="sans-serif" font-size="11" lengthAdjust="spacing" textLength="73" x="209"
              y="160.7627">Phone Number;
        </text>
        <text fill="#000000" font-family="sans-serif" font-size="11" lengthAdjust="spacing" textLength="31" x="209"
              y="174.5986">E-Mail;
        </text>
        <text fill="#000000" font-family="sans-serif" font-size="11" lengthAdjust="spacing" textLength="213" x="209"
              y="188.4346">Standard Occupational Classification "soc";
        </text><!--MD5=[1f6362a5c8f21d8d6a0fce68f3a92a4e]
class Parameter-->
        <rect codeLine="19" fill="#FEFECE" filter="url(#fy0m4upigb0pp)" height="95.3438" id="Parameter"
              style="stroke:#A80036;stroke-width:1.5;" width="90" x="563.5" y="7"/>
        <ellipse cx="578.5" cy="23" fill="#ADD1B2" rx="11" ry="11" style="stroke:#A80036;stroke-width:1.0;"/>
        <path d="M580.5,19.5 Q580.7031,19 580.9375,18.75 Q581.1719,18.5 581.4375,18.5 Q581.9063,18.5 582.2031,18.7813 Q582.5,19.0625 582.5,19.7188 L582.5,21.2813 Q582.5,21.9375 582.2188,22.2188 Q581.9375,22.5 581.5,22.5 Q581.1094,22.5 580.8594,22.3281 Q580.6094,22.1563 580.5,21.7031 Q580.4531,21.3906 580.2813,21.2188 Q579.9688,20.8906 579.4063,20.7031 Q578.8438,20.5 578.2813,20.5 Q577.5781,20.5 576.9844,20.7813 Q576.4063,21.0625 575.9531,21.6875 Q575.5,22.3125 575.5,23.1719 L575.5,24.0938 Q575.5,25.125 576.3438,25.8125 Q577.1875,26.5 578.6875,26.5 Q579.5781,26.5 580.2031,26.2969 Q580.5625,26.1875 580.9688,25.8281 Q581.2344,25.625 581.375,25.5625 Q581.5156,25.5 581.6875,25.5 Q582.0156,25.5 582.25,25.7656 Q582.5,26.0156 582.5,26.375 Q582.5,26.7188 582.1563,27.125 Q581.6563,27.7188 580.8594,28.0469 Q579.8125,28.5 578.5313,28.5 Q577.0313,28.5 575.8281,27.9063 Q574.8594,27.4375 574.1719,26.4219 Q573.5,25.4063 573.5,24.2031 L573.5,23.1094 Q573.5,21.8594 574.0938,20.7656 Q574.7031,19.6719 575.75,19.0938 Q576.8125,18.5 578,18.5 Q578.7188,18.5 579.3438,18.75 Q579.9688,19 580.5,19.5 Z "
              fill="#000000"/>
        <text fill="#000000" font-family="sans-serif" font-size="12" lengthAdjust="spacing" textLength="58" x="592.5"
              y="27.9102">Parameter
        </text>
        <line style="stroke:#A80036;stroke-width:1.5;" x1="564.5" x2="652.5" y1="39" y2="39"/>
        <text fill="#000000" font-family="sans-serif" font-size="11" lengthAdjust="spacing" textLength="26" x="569.5"
              y="54.4189">name
        </text>
        <text fill="#000000" font-family="sans-serif" font-size="11" lengthAdjust="spacing" textLength="24" x="569.5"
              y="68.2549">code
        </text>
        <text fill="#000000" font-family="sans-serif" font-size="11" lengthAdjust="spacing" textLength="53" x="569.5"
              y="82.0908">description
        </text>
        <text fill="#000000" font-family="sans-serif" font-size="11" lengthAdjust="spacing" textLength="67" x="569.5"
              y="95.9268">NHS identified
        </text><!--MD5=[a96594a83e2ecdc78cbf17c2ddf01934]
class Category-->
        <rect codeLine="26" fill="#FEFECE" filter="url(#fy0m4upigb0pp)" height="67.6719" id="Category"
              style="stroke:#A80036;stroke-width:1.5;" width="81" x="774" y="92.5"/>
        <ellipse cx="789" cy="108.5" fill="#ADD1B2" rx="11" ry="11" style="stroke:#A80036;stroke-width:1.0;"/>
        <path d="M791,105 Q791.2031,104.5 791.4375,104.25 Q791.6719,104 791.9375,104 Q792.4063,104 792.7031,104.2813 Q793,104.5625 793,105.2188 L793,106.7813 Q793,107.4375 792.7188,107.7188 Q792.4375,108 792,108 Q791.6094,108 791.3594,107.8281 Q791.1094,107.6563 791,107.2031 Q790.9531,106.8906 790.7813,106.7188 Q790.4688,106.3906 789.9063,106.2031 Q789.3438,106 788.7813,106 Q788.0781,106 787.4844,106.2813 Q786.9063,106.5625 786.4531,107.1875 Q786,107.8125 786,108.6719 L786,109.5938 Q786,110.625 786.8438,111.3125 Q787.6875,112 789.1875,112 Q790.0781,112 790.7031,111.7969 Q791.0625,111.6875 791.4688,111.3281 Q791.7344,111.125 791.875,111.0625 Q792.0156,111 792.1875,111 Q792.5156,111 792.75,111.2656 Q793,111.5156 793,111.875 Q793,112.2188 792.6563,112.625 Q792.1563,113.2188 791.3594,113.5469 Q790.3125,114 789.0313,114 Q787.5313,114 786.3281,113.4063 Q785.3594,112.9375 784.6719,111.9219 Q784,110.9063 784,109.7031 L784,108.6094 Q784,107.3594 784.5938,106.2656 Q785.2031,105.1719 786.25,104.5938 Q787.3125,104 788.5,104 Q789.2188,104 789.8438,104.25 Q790.4688,104.5 791,105 Z "
              fill="#000000"/>
        <text fill="#000000" font-family="sans-serif" font-size="12" lengthAdjust="spacing" textLength="49" x="803"
              y="113.4102">Category
        </text>
        <line style="stroke:#A80036;stroke-width:1.5;" x1="775" x2="854" y1="124.5" y2="124.5"/>
        <text fill="#000000" font-family="sans-serif" font-size="11" lengthAdjust="spacing" textLength="26" x="780"
              y="139.9189">name
        </text>
        <text fill="#000000" font-family="sans-serif" font-size="11" lengthAdjust="spacing" textLength="25" x="780"
              y="153.7549">Code
        </text><!--MD5=[eaea43e34e45c5b9d20b595fc78f1f20]
link Company to Administrator-->
        <path codeLine="33" d="M92.04,126.5 C121.88,126.5 163.6,126.5 202.86,126.5 " fill="none"
              id="Company-Administrator" style="stroke:#A80036;stroke-width:1.0;"/>
        <text fill="#000000" font-family="sans-serif" font-size="13" lengthAdjust="spacing" textLength="49" x="123"
              y="122.9951">employs
        </text>
        <text fill="#000000" font-family="sans-serif" font-size="13" lengthAdjust="spacing" textLength="7" x="99.9531"
              y="141.4144">1
        </text>
        <text fill="#000000" font-family="sans-serif" font-size="13" lengthAdjust="spacing" textLength="5" x="190.124"
              y="140.5494">*
        </text><!--MD5=[4816e9029af7918ac30a965ff8ded5aa]
link Administrator to Parameter-->
        <path codeLine="34" d="M428.18,98.87 C475.3,87.21 527.43,74.31 563.28,65.44 " fill="none"
              id="Administrator-Parameter" style="stroke:#A80036;stroke-width:1.0;"/>
        <polygon fill="#000000" points="467.8536,70.4748,458.3674,69.7945,459.7793,75.5003,467.8536,70.4748"
                 style="stroke:#000000;stroke-width:1.0;"/>
        <text fill="#000000" font-family="sans-serif" font-size="13" lengthAdjust="spacing" textLength="36" x="472"
              y="76.9951">create
        </text>
        <text fill="#000000" font-family="sans-serif" font-size="13" lengthAdjust="spacing" textLength="7" x="435.9858"
              y="111.063">1
        </text>
        <text fill="#000000" font-family="sans-serif" font-size="13" lengthAdjust="spacing" textLength="5" x="550.3764"
              y="82.0727">*
        </text><!--MD5=[852f3a1b1bcfc6074ebcba484562eac0]
link Parameter to Category-->
        <path codeLine="35" d="M653.51,70.03 C689.24,82.64 739.17,100.27 773.71,112.46 " fill="none"
              id="Parameter-Category" style="stroke:#A80036;stroke-width:1.0;"/>
        <polygon fill="#000000" points="717.7149,83.3401,710.1639,77.558,708.2073,83.1006,717.7149,83.3401"
                 style="stroke:#000000;stroke-width:1.0;"/>
        <text fill="#000000" font-family="sans-serif" font-size="13" lengthAdjust="spacing" textLength="21" x="722"
              y="86.9951">has
        </text>
        <text fill="#000000" font-family="sans-serif" font-size="13" lengthAdjust="spacing" textLength="7" x="661.5445"
              y="87.4229">1
        </text>
        <text fill="#000000" font-family="sans-serif" font-size="13" lengthAdjust="spacing" textLength="5" x="760.999"
              y="124.9398">*
        </text><!--MD5=[7d17329589c8a1a28e6f8826215bde21]
link Administrator to Category-->
        <path codeLine="36"
              d="M428.07,133.98 C499.54,137.76 594.24,140.89 678,137.5 C710.31,136.19 746.84,133.13 773.83,130.57 "
              fill="none" id="Administrator-Category" style="stroke:#A80036;stroke-width:1.0;"/>
        <polygon fill="#000000" points="548.9998,128.6265,539.9261,125.7769,539.9841,131.6545,548.9998,128.6265"
                 style="stroke:#000000;stroke-width:1.0;"/>
        <text fill="#000000" font-family="sans-serif" font-size="13" lengthAdjust="spacing" textLength="124" x="553"
              y="133.9951">choose for Parameter
        </text>
        <text fill="#000000" font-family="sans-serif" font-size="13" lengthAdjust="spacing" textLength="7" x="435.8685"
              y="148.532">1
        </text>
        <text fill="#000000" font-family="sans-serif" font-size="13" lengthAdjust="spacing" textLength="5" x="760.8705"
              y="146.3532">*
        </text><!--MD5=[fd28b086bcb364232fdce55521ebe3a3]
@startuml
hide methods
left to right direction
skinparam classAttributeIconSize 0

class Company{
name
}

class Administrator {
Employee ID;
Organization Role;
Name;
Address;
Phone Number;
E-Mail;
Standard Occupational Classification "soc";
}

class Parameter{
name
code
description
NHS identified
}

class Category{
name
Code
}



Company "1" - - "*" Administrator : employs
Administrator "1" - - "*" Parameter : create >
Parameter "1" - - "*" Category : has >
Administrator "1" - - "*" Category : choose for Parameter >




@enduml

PlantUML version 1.2021.4(Sun Apr 04 09:49:39 BST 2021)
(GPL source distribution)
Java Runtime: OpenJDK Runtime Environment
JVM: OpenJDK 64-Bit Server VM
Default Encoding: Cp1252
Language: en
Country: US
-->
    </g>
</svg>