<?xml version="1.0" encoding="UTF-8" standalone="no"?><svg xmlns="http://www.w3.org/2000/svg" xmlns:xlink="http://www.w3.org/1999/xlink" contentScriptType="application/ecmascript" contentStyleType="text/css" height="982px" preserveAspectRatio="none" style="width:1138px;height:982px;" version="1.1" viewBox="0 0 1138 982" width="1138px" zoomAndPan="magnify"><defs><filter height="300%" id="f1ulcxdbztlo8f" width="300%" x="-1" y="-1"><feGaussianBlur result="blurOut" stdDeviation="2.0"/><feColorMatrix in="blurOut" result="blurOut2" type="matrix" values="0 0 0 0 0 0 0 0 0 0 0 0 0 0 0 0 0 0 .4 0"/><feOffset dx="4.0" dy="4.0" in="blurOut2" result="blurOut3"/><feBlend in="SourceGraphic" in2="blurOut3" mode="normal"/></filter></defs><g><rect fill="#FFFFFF" filter="url(#f1ulcxdbztlo8f)" height="787.9922" style="stroke:#A80036;stroke-width:1.0;" width="10" x="44.5" y="99.6094"/><rect fill="#FFFFFF" filter="url(#f1ulcxdbztlo8f)" height="138.7578" style="stroke:#A80036;stroke-width:1.0;" width="10" x="405.5" y="121.9609"/><rect fill="#FFFFFF" filter="url(#f1ulcxdbztlo8f)" height="91.0547" style="stroke:#A80036;stroke-width:1.0;" width="10" x="405.5" y="291.0703"/><rect fill="#FFFFFF" filter="url(#f1ulcxdbztlo8f)" height="198.0156" style="stroke:#A80036;stroke-width:1.0;" width="10" x="405.5" y="412.4766"/><rect fill="#FFFFFF" filter="url(#f1ulcxdbztlo8f)" height="237.7578" style="stroke:#A80036;stroke-width:1.0;" width="10" x="405.5" y="640.8438"/><rect fill="#FFFFFF" filter="url(#f1ulcxdbztlo8f)" height="108.4063" style="stroke:#A80036;stroke-width:1.0;" width="10" x="576.5" y="152.3125"/><rect fill="#FFFFFF" filter="url(#f1ulcxdbztlo8f)" height="30.3516" style="stroke:#A80036;stroke-width:1.0;" width="10" x="576.5" y="321.4219"/><rect fill="#FFFFFF" filter="url(#f1ulcxdbztlo8f)" height="121.0547" style="stroke:#A80036;stroke-width:1.0;" width="10" x="576.5" y="442.8281"/><rect fill="#FFFFFF" filter="url(#f1ulcxdbztlo8f)" height="30.3516" style="stroke:#A80036;stroke-width:1.0;" width="10" x="576.5" y="671.1953"/><rect fill="#FFFFFF" filter="url(#f1ulcxdbztlo8f)" height="30" style="stroke:#A80036;stroke-width:1.0;" width="10" x="769.5" y="473.1797"/><rect fill="#FFFFFF" filter="url(#f1ulcxdbztlo8f)" height="30.3516" style="stroke:#A80036;stroke-width:1.0;" width="10" x="869.5" y="351.7734"/><rect fill="#FFFFFF" filter="url(#f1ulcxdbztlo8f)" height="76.9609" style="stroke:#A80036;stroke-width:1.0;" width="10" x="869.5" y="533.5313"/><rect fill="#FFFFFF" filter="url(#f1ulcxdbztlo8f)" height="177.0547" style="stroke:#A80036;stroke-width:1.0;" width="10" x="869.5" y="701.5469"/><rect fill="#FFFFFF" filter="url(#f1ulcxdbztlo8f)" height="28" style="stroke:#A80036;stroke-width:1.0;" width="10" x="874.5" y="739.8984"/><rect fill="#FFFFFF" filter="url(#f1ulcxdbztlo8f)" height="28" style="stroke:#A80036;stroke-width:1.0;" width="10" x="874.5" y="813.25"/><line style="stroke:#A80036;stroke-width:1.0;stroke-dasharray:5.0,5.0;" x1="49" x2="49" y1="89.6094" y2="896.6016"/><line style="stroke:#A80036;stroke-width:1.0;stroke-dasharray:5.0,5.0;" x1="410.5" x2="410.5" y1="89.6094" y2="896.6016"/><line style="stroke:#A80036;stroke-width:1.0;stroke-dasharray:5.0,5.0;" x1="581.5" x2="581.5" y1="89.6094" y2="896.6016"/><line style="stroke:#A80036;stroke-width:1.0;stroke-dasharray:5.0,5.0;" x1="774.5" x2="774.5" y1="89.6094" y2="896.6016"/><line style="stroke:#A80036;stroke-width:1.0;stroke-dasharray:5.0,5.0;" x1="874.5" x2="874.5" y1="89.6094" y2="896.6016"/><line style="stroke:#A80036;stroke-width:1.0;stroke-dasharray:5.0,5.0;" x1="1095.5" x2="1095.5" y1="574.8359" y2="896.6016"/><text fill="#000000" font-family="sans-serif" font-size="14" lengthAdjust="spacing" textLength="83" x="5" y="86.5332">Administrator</text><ellipse cx="49.5" cy="15" fill="#FEFECE" filter="url(#f1ulcxdbztlo8f)" rx="8" ry="8" style="stroke:#A80036;stroke-width:2.0;"/><path d="M49.5,23 L49.5,50 M36.5,31 L62.5,31 M49.5,50 L36.5,65 M49.5,50 L62.5,65 " fill="none" filter="url(#f1ulcxdbztlo8f)" style="stroke:#A80036;stroke-width:2.0;"/><text fill="#000000" font-family="sans-serif" font-size="14" lengthAdjust="spacing" textLength="83" x="5" y="910.1348">Administrator</text><ellipse cx="49.5" cy="923.2109" fill="#FEFECE" filter="url(#f1ulcxdbztlo8f)" rx="8" ry="8" style="stroke:#A80036;stroke-width:2.0;"/><path d="M49.5,931.2109 L49.5,958.2109 M36.5,939.2109 L62.5,939.2109 M49.5,958.2109 L36.5,973.2109 M49.5,958.2109 L62.5,973.2109 " fill="none" filter="url(#f1ulcxdbztlo8f)" style="stroke:#A80036;stroke-width:2.0;"/><rect fill="#FEFECE" filter="url(#f1ulcxdbztlo8f)" height="31.6094" style="stroke:#A80036;stroke-width:1.5;" width="116" x="350.5" y="53"/><text fill="#000000" font-family="sans-serif" font-size="14" lengthAdjust="spacing" textLength="102" x="357.5" y="74.5332">:CreateReportUI</text><rect fill="#FEFECE" filter="url(#f1ulcxdbztlo8f)" height="31.6094" style="stroke:#A80036;stroke-width:1.5;" width="116" x="350.5" y="895.6016"/><text fill="#000000" font-family="sans-serif" font-size="14" lengthAdjust="spacing" textLength="102" x="357.5" y="917.1348">:CreateReportUI</text><rect fill="#FEFECE" filter="url(#f1ulcxdbztlo8f)" height="31.6094" style="stroke:#A80036;stroke-width:1.5;" width="166" x="496.5" y="53"/><text fill="#000000" font-family="sans-serif" font-size="14" lengthAdjust="spacing" textLength="152" x="503.5" y="74.5332">:CreateReportController</text><rect fill="#FEFECE" filter="url(#f1ulcxdbztlo8f)" height="31.6094" style="stroke:#A80036;stroke-width:1.5;" width="166" x="496.5" y="895.6016"/><text fill="#000000" font-family="sans-serif" font-size="14" lengthAdjust="spacing" textLength="152" x="503.5" y="917.1348">:CreateReportController</text><rect fill="#FEFECE" filter="url(#f1ulcxdbztlo8f)" height="31.6094" style="stroke:#A80036;stroke-width:1.5;" width="126" x="709.5" y="53"/><text fill="#000000" font-family="sans-serif" font-size="14" lengthAdjust="spacing" textLength="112" x="716.5" y="74.5332">tStore: TestStore:</text><rect fill="#FEFECE" filter="url(#f1ulcxdbztlo8f)" height="31.6094" style="stroke:#A80036;stroke-width:1.5;" width="126" x="709.5" y="895.6016"/><text fill="#000000" font-family="sans-serif" font-size="14" lengthAdjust="spacing" textLength="112" x="716.5" y="917.1348">tStore: TestStore:</text><rect fill="#FEFECE" filter="url(#f1ulcxdbztlo8f)" height="31.6094" style="stroke:#A80036;stroke-width:1.5;" width="46" x="849.5" y="53"/><text fill="#000000" font-family="sans-serif" font-size="14" lengthAdjust="spacing" textLength="32" x="856.5" y="74.5332">:Test</text><rect fill="#FEFECE" filter="url(#f1ulcxdbztlo8f)" height="31.6094" style="stroke:#A80036;stroke-width:1.5;" width="46" x="849.5" y="895.6016"/><text fill="#000000" font-family="sans-serif" font-size="14" lengthAdjust="spacing" textLength="32" x="856.5" y="917.1348">:Test</text><rect fill="#FEFECE" filter="url(#f1ulcxdbztlo8f)" height="31.6094" style="stroke:#A80036;stroke-width:1.5;" width="61" x="1063.5" y="895.6016"/><text fill="#000000" font-family="sans-serif" font-size="14" lengthAdjust="spacing" textLength="47" x="1070.5" y="917.1348">:Report</text><rect fill="#FFFFFF" filter="url(#f1ulcxdbztlo8f)" height="787.9922" style="stroke:#A80036;stroke-width:1.0;" width="10" x="44.5" y="99.6094"/><rect fill="#FFFFFF" filter="url(#f1ulcxdbztlo8f)" height="138.7578" style="stroke:#A80036;stroke-width:1.0;" width="10" x="405.5" y="121.9609"/><rect fill="#FFFFFF" filter="url(#f1ulcxdbztlo8f)" height="91.0547" style="stroke:#A80036;stroke-width:1.0;" width="10" x="405.5" y="291.0703"/><rect fill="#FFFFFF" filter="url(#f1ulcxdbztlo8f)" height="198.0156" style="stroke:#A80036;stroke-width:1.0;" width="10" x="405.5" y="412.4766"/><rect fill="#FFFFFF" filter="url(#f1ulcxdbztlo8f)" height="237.7578" style="stroke:#A80036;stroke-width:1.0;" width="10" x="405.5" y="640.8438"/><rect fill="#FFFFFF" filter="url(#f1ulcxdbztlo8f)" height="108.4063" style="stroke:#A80036;stroke-width:1.0;" width="10" x="576.5" y="152.3125"/><rect fill="#FFFFFF" filter="url(#f1ulcxdbztlo8f)" height="30.3516" style="stroke:#A80036;stroke-width:1.0;" width="10" x="576.5" y="321.4219"/><rect fill="#FFFFFF" filter="url(#f1ulcxdbztlo8f)" height="121.0547" style="stroke:#A80036;stroke-width:1.0;" width="10" x="576.5" y="442.8281"/><rect fill="#FFFFFF" filter="url(#f1ulcxdbztlo8f)" height="30.3516" style="stroke:#A80036;stroke-width:1.0;" width="10" x="576.5" y="671.1953"/><rect fill="#FFFFFF" filter="url(#f1ulcxdbztlo8f)" height="30" style="stroke:#A80036;stroke-width:1.0;" width="10" x="769.5" y="473.1797"/><rect fill="#FFFFFF" filter="url(#f1ulcxdbztlo8f)" height="30.3516" style="stroke:#A80036;stroke-width:1.0;" width="10" x="869.5" y="351.7734"/><rect fill="#FFFFFF" filter="url(#f1ulcxdbztlo8f)" height="76.9609" style="stroke:#A80036;stroke-width:1.0;" width="10" x="869.5" y="533.5313"/><rect fill="#FFFFFF" filter="url(#f1ulcxdbztlo8f)" height="177.0547" style="stroke:#A80036;stroke-width:1.0;" width="10" x="869.5" y="701.5469"/><rect fill="#FFFFFF" filter="url(#f1ulcxdbztlo8f)" height="28" style="stroke:#A80036;stroke-width:1.0;" width="10" x="874.5" y="739.8984"/><rect fill="#FFFFFF" filter="url(#f1ulcxdbztlo8f)" height="28" style="stroke:#A80036;stroke-width:1.0;" width="10" x="874.5" y="813.25"/><polygon fill="#A80036" points="393.5,117.9609,403.5,121.9609,393.5,125.9609,397.5,121.9609" style="stroke:#A80036;stroke-width:1.0;"/><line style="stroke:#A80036;stroke-width:1.0;" x1="54.5" x2="399.5" y1="121.9609" y2="121.9609"/><text fill="#000000" font-family="sans-serif" font-size="13" font-weight="bold" lengthAdjust="spacing" textLength="7" x="61.5" y="117.1045">1</text><text fill="#000000" font-family="sans-serif" font-size="13" lengthAdjust="spacing" textLength="99" x="72.5" y="117.1045">asks for a Report</text><polygon fill="#A80036" points="564.5,148.3125,574.5,152.3125,564.5,156.3125,568.5,152.3125" style="stroke:#A80036;stroke-width:1.0;"/><line style="stroke:#A80036;stroke-width:1.0;" x1="415.5" x2="570.5" y1="152.3125" y2="152.3125"/><text fill="#000000" font-family="sans-serif" font-size="13" font-weight="bold" lengthAdjust="spacing" textLength="7" x="422.5" y="147.4561">2</text><text fill="#000000" font-family="sans-serif" font-size="13" lengthAdjust="spacing" textLength="131" x="433.5" y="147.4561">SD_getTestList(testID)</text><rect fill="#FFFFFF" filter="url(#f1ulcxdbztlo8f)" height="42.7031" style="stroke:#000000;stroke-width:2.0;" width="172" x="493.5" y="160.3125"/><polygon fill="#EEEEEE" points="493.5,160.3125,555.5,160.3125,555.5,168.3125,545.5,178.3125,493.5,178.3125,493.5,160.3125" style="stroke:#000000;stroke-width:2.0;"/><text fill="#000000" font-family="sans-serif" font-size="13" font-weight="bold" lengthAdjust="spacing" textLength="17" x="506.5" y="175.8076">ref</text><text fill="#000000" font-family="sans-serif" font-size="13" lengthAdjust="spacing" textLength="130" x="516.5" y="195.8076">SD_TestIDDTO(testID)</text><polygon fill="#A80036" points="426.5,226.3672,416.5,230.3672,426.5,234.3672,422.5,230.3672" style="stroke:#A80036;stroke-width:1.0;"/><line style="stroke:#A80036;stroke-width:1.0;stroke-dasharray:2.0,2.0;" x1="420.5" x2="575.5" y1="230.3672" y2="230.3672"/><text fill="#000000" font-family="sans-serif" font-size="13" font-weight="bold" lengthAdjust="spacing" textLength="7" x="432.5" y="225.5107">3</text><text fill="#000000" font-family="sans-serif" font-size="13" lengthAdjust="spacing" textLength="61" x="443.5" y="225.5107">tStoreDTO</text><polygon fill="#A80036" points="65.5,256.7188,55.5,260.7188,65.5,264.7188,61.5,260.7188" style="stroke:#A80036;stroke-width:1.0;"/><line style="stroke:#A80036;stroke-width:1.0;stroke-dasharray:2.0,2.0;" x1="59.5" x2="409.5" y1="260.7188" y2="260.7188"/><text fill="#000000" font-family="sans-serif" font-size="13" font-weight="bold" lengthAdjust="spacing" textLength="7" x="71.5" y="255.8623">4</text><text fill="#000000" font-family="sans-serif" font-size="13" lengthAdjust="spacing" textLength="106" x="82.5" y="255.8623">shows the test list</text><polygon fill="#A80036" points="393.5,287.0703,403.5,291.0703,393.5,295.0703,397.5,291.0703" style="stroke:#A80036;stroke-width:1.0;"/><line style="stroke:#A80036;stroke-width:1.0;" x1="54.5" x2="399.5" y1="291.0703" y2="291.0703"/><text fill="#000000" font-family="sans-serif" font-size="13" font-weight="bold" lengthAdjust="spacing" textLength="7" x="61.5" y="286.2139">5</text><text fill="#000000" font-family="sans-serif" font-size="13" lengthAdjust="spacing" textLength="72" x="72.5" y="286.2139">select a test</text><polygon fill="#A80036" points="564.5,317.4219,574.5,321.4219,564.5,325.4219,568.5,321.4219" style="stroke:#A80036;stroke-width:1.0;"/><line style="stroke:#A80036;stroke-width:1.0;" x1="415.5" x2="570.5" y1="321.4219" y2="321.4219"/><text fill="#000000" font-family="sans-serif" font-size="13" font-weight="bold" lengthAdjust="spacing" textLength="7" x="422.5" y="316.5654">6</text><text fill="#000000" font-family="sans-serif" font-size="13" lengthAdjust="spacing" textLength="63" x="433.5" y="316.5654">getResult()</text><polygon fill="#A80036" points="857.5,347.7734,867.5,351.7734,857.5,355.7734,861.5,351.7734" style="stroke:#A80036;stroke-width:1.0;"/><line style="stroke:#A80036;stroke-width:1.0;" x1="581.5" x2="863.5" y1="351.7734" y2="351.7734"/><text fill="#000000" font-family="sans-serif" font-size="13" font-weight="bold" lengthAdjust="spacing" textLength="7" x="588.5" y="346.917">7</text><text fill="#000000" font-family="sans-serif" font-size="13" lengthAdjust="spacing" textLength="63" x="599.5" y="346.917">getResult()</text><polygon fill="#A80036" points="65.5,378.125,55.5,382.125,65.5,386.125,61.5,382.125" style="stroke:#A80036;stroke-width:1.0;"/><line style="stroke:#A80036;stroke-width:1.0;stroke-dasharray:2.0,2.0;" x1="59.5" x2="409.5" y1="382.125" y2="382.125"/><text fill="#000000" font-family="sans-serif" font-size="13" font-weight="bold" lengthAdjust="spacing" textLength="7" x="71.5" y="377.2686">8</text><text fill="#000000" font-family="sans-serif" font-size="13" lengthAdjust="spacing" textLength="316" x="82.5" y="377.2686">shows Test data list and ask for a diagnosis of the test</text><polygon fill="#A80036" points="393.5,408.4766,403.5,412.4766,393.5,416.4766,397.5,412.4766" style="stroke:#A80036;stroke-width:1.0;"/><line style="stroke:#A80036;stroke-width:1.0;" x1="54.5" x2="399.5" y1="412.4766" y2="412.4766"/><text fill="#000000" font-family="sans-serif" font-size="13" font-weight="bold" lengthAdjust="spacing" textLength="7" x="61.5" y="407.6201">9</text><text fill="#000000" font-family="sans-serif" font-size="13" lengthAdjust="spacing" textLength="113" x="72.5" y="407.6201">type diagnosis data</text><polygon fill="#A80036" points="564.5,438.8281,574.5,442.8281,564.5,446.8281,568.5,442.8281" style="stroke:#A80036;stroke-width:1.0;"/><line style="stroke:#A80036;stroke-width:1.0;" x1="415.5" x2="570.5" y1="442.8281" y2="442.8281"/><text fill="#000000" font-family="sans-serif" font-size="13" font-weight="bold" lengthAdjust="spacing" textLength="14" x="422.5" y="437.9717">10</text><text fill="#000000" font-family="sans-serif" font-size="13" lengthAdjust="spacing" textLength="82" x="440.5" y="437.9717">createReport()</text><polygon fill="#A80036" points="757.5,469.1797,767.5,473.1797,757.5,477.1797,761.5,473.1797" style="stroke:#A80036;stroke-width:1.0;"/><line style="stroke:#A80036;stroke-width:1.0;" x1="586.5" x2="763.5" y1="473.1797" y2="473.1797"/><text fill="#000000" font-family="sans-serif" font-size="13" font-weight="bold" lengthAdjust="spacing" textLength="14" x="593.5" y="468.3232">11</text><text fill="#000000" font-family="sans-serif" font-size="13" lengthAdjust="spacing" textLength="146" x="611.5" y="468.3232">getListOfTestsAnalysed()</text><polygon fill="#A80036" points="857.5,529.5313,867.5,533.5313,857.5,537.5313,861.5,533.5313" style="stroke:#A80036;stroke-width:1.0;"/><line style="stroke:#A80036;stroke-width:1.0;" x1="586.5" x2="863.5" y1="533.5313" y2="533.5313"/><text fill="#000000" font-family="sans-serif" font-size="13" font-weight="bold" lengthAdjust="spacing" textLength="14" x="593.5" y="528.6748">12</text><text fill="#000000" font-family="sans-serif" font-size="13" lengthAdjust="spacing" textLength="231" x="611.5" y="528.6748">report = createReport(TestID, diagnosis)</text><polygon fill="#A80036" points="1051.5,559.8828,1061.5,563.8828,1051.5,567.8828,1055.5,563.8828" style="stroke:#A80036;stroke-width:1.0;"/><line style="stroke:#A80036;stroke-width:1.0;" x1="879.5" x2="1057.5" y1="563.8828" y2="563.8828"/><text fill="#000000" font-family="sans-serif" font-size="13" font-weight="bold" lengthAdjust="spacing" textLength="14" x="886.5" y="559.0264">13</text><text fill="#000000" font-family="sans-serif" font-size="13" lengthAdjust="spacing" textLength="142" x="904.5" y="559.0264">Report(TestID,diagnosis)</text><rect fill="#FEFECE" filter="url(#f1ulcxdbztlo8f)" height="31.6094" style="stroke:#A80036;stroke-width:1.5;" width="61" x="1063.5" y="541.5313"/><text fill="#000000" font-family="sans-serif" font-size="14" lengthAdjust="spacing" textLength="47" x="1070.5" y="563.0645">:Report</text><polygon fill="#A80036" points="65.5,606.4922,55.5,610.4922,65.5,614.4922,61.5,610.4922" style="stroke:#A80036;stroke-width:1.0;"/><line style="stroke:#A80036;stroke-width:1.0;stroke-dasharray:2.0,2.0;" x1="59.5" x2="409.5" y1="610.4922" y2="610.4922"/><text fill="#000000" font-family="sans-serif" font-size="13" font-weight="bold" lengthAdjust="spacing" textLength="14" x="71.5" y="605.6357">14</text><text fill="#000000" font-family="sans-serif" font-size="13" lengthAdjust="spacing" textLength="236" x="89.5" y="605.6357">shows all data and requests confirmation</text><polygon fill="#A80036" points="393.5,636.8438,403.5,640.8438,393.5,644.8438,397.5,640.8438" style="stroke:#A80036;stroke-width:1.0;"/><line style="stroke:#A80036;stroke-width:1.0;" x1="54.5" x2="399.5" y1="640.8438" y2="640.8438"/><text fill="#000000" font-family="sans-serif" font-size="13" font-weight="bold" lengthAdjust="spacing" textLength="14" x="61.5" y="635.9873">15</text><text fill="#000000" font-family="sans-serif" font-size="13" lengthAdjust="spacing" textLength="100" x="79.5" y="635.9873">confirms the data</text><polygon fill="#A80036" points="564.5,667.1953,574.5,671.1953,564.5,675.1953,568.5,671.1953" style="stroke:#A80036;stroke-width:1.0;"/><line style="stroke:#A80036;stroke-width:1.0;" x1="415.5" x2="570.5" y1="671.1953" y2="671.1953"/><text fill="#000000" font-family="sans-serif" font-size="13" font-weight="bold" lengthAdjust="spacing" textLength="14" x="422.5" y="666.3389">16</text><text fill="#000000" font-family="sans-serif" font-size="13" lengthAdjust="spacing" textLength="105" x="440.5" y="666.3389">saveReport(report)</text><polygon fill="#A80036" points="857.5,697.5469,867.5,701.5469,857.5,705.5469,861.5,701.5469" style="stroke:#A80036;stroke-width:1.0;"/><line style="stroke:#A80036;stroke-width:1.0;" x1="581.5" x2="863.5" y1="701.5469" y2="701.5469"/><text fill="#000000" font-family="sans-serif" font-size="13" font-weight="bold" lengthAdjust="spacing" textLength="14" x="588.5" y="696.6904">17</text><text fill="#000000" font-family="sans-serif" font-size="13" lengthAdjust="spacing" textLength="105" x="606.5" y="696.6904">saveReport(report)</text><line style="stroke:#A80036;stroke-width:1.0;" x1="884.5" x2="926.5" y1="731.8984" y2="731.8984"/><line style="stroke:#A80036;stroke-width:1.0;" x1="926.5" x2="926.5" y1="731.8984" y2="744.8984"/><line style="stroke:#A80036;stroke-width:1.0;" x1="885.5" x2="926.5" y1="744.8984" y2="744.8984"/><polygon fill="#A80036" points="895.5,740.8984,885.5,744.8984,895.5,748.8984,891.5,744.8984" style="stroke:#A80036;stroke-width:1.0;"/><text fill="#000000" font-family="sans-serif" font-size="13" font-weight="bold" lengthAdjust="spacing" textLength="14" x="891.5" y="727.042">18</text><text fill="#000000" font-family="sans-serif" font-size="13" lengthAdjust="spacing" textLength="122" x="909.5" y="727.042">validateReport(report)</text><line style="stroke:#A80036;stroke-width:1.0;" x1="884.5" x2="926.5" y1="805.25" y2="805.25"/><line style="stroke:#A80036;stroke-width:1.0;" x1="926.5" x2="926.5" y1="805.25" y2="818.25"/><line style="stroke:#A80036;stroke-width:1.0;" x1="885.5" x2="926.5" y1="818.25" y2="818.25"/><polygon fill="#A80036" points="895.5,814.25,885.5,818.25,895.5,822.25,891.5,818.25" style="stroke:#A80036;stroke-width:1.0;"/><text fill="#000000" font-family="sans-serif" font-size="13" font-weight="bold" lengthAdjust="spacing" textLength="14" x="891.5" y="800.3936">19</text><text fill="#000000" font-family="sans-serif" font-size="13" lengthAdjust="spacing" textLength="105" x="909.5" y="800.3936">saveReport(report)</text><polygon fill="#A80036" points="65.5,874.6016,55.5,878.6016,65.5,882.6016,61.5,878.6016" style="stroke:#A80036;stroke-width:1.0;"/><line style="stroke:#A80036;stroke-width:1.0;stroke-dasharray:2.0,2.0;" x1="59.5" x2="409.5" y1="878.6016" y2="878.6016"/><text fill="#000000" font-family="sans-serif" font-size="13" font-weight="bold" lengthAdjust="spacing" textLength="14" x="71.5" y="873.7451">20</text><text fill="#000000" font-family="sans-serif" font-size="13" lengthAdjust="spacing" textLength="152" x="89.5" y="873.7451">informs operation success</text><!--MD5=[3628ee596cfeb9ff0242b86c272ddc2b]
@startuml
autonumber

actor "Administrator" as Administrator

participant ":CreateReportUI" as UI
participant ":CreateReportController" as CTRL
participant "tStore: TestStore:" as TESTSTORE
participant ":Test" as TEST
participant ":Report" as REPORT


activate Administrator
Administrator -> UI: asks for a Report
activate UI

UI -> CTRL : SD_getTestList(testID)
ref over CTRL: SD_TestIDDTO(testID)
activate CTRL

CTRL - -> UI: tStoreDTO









UI - -> Administrator :shows the test list
deactivate UI
deactivate CTRL

Administrator -> UI : select a test
activate UI

UI -> CTRL : getResult()



activate CTRL

CTRL -> TEST : getResult()

deactivate CTRL


activate TEST


UI - -> Administrator : shows Test data list and ask for a diagnosis of the test
deactivate UI


deactivate TEST


Administrator -> UI : type diagnosis data
activate UI




UI-> CTRL : createReport()
activate CTRL




CTRL -> TESTSTORE : getListOfTestsAnalysed()
activate TESTSTORE
deactivate TESTSTORE


CTRL -> TEST : report = createReport(TestID, diagnosis)

activate TEST
TEST -> REPORT ** :  Report(TestID,diagnosis)





deactivate CTRL



UI - -> Administrator : shows all data and requests confirmation
deactivate UI
deactivate TEST

Administrator -> UI : confirms the data
activate UI

UI-> CTRL : saveReport(report)
activate CTRL

CTRL -> TEST : saveReport(report)
deactivate CTRL
activate TEST
TEST -> TEST : validateReport(report)
activate TEST
deactivate TEST
TEST -> TEST : saveReport(report)
activate TEST
deactivate TEST

UI - -> Administrator : informs operation success
deactivate UI

deactivate TEST







@enduml

PlantUML version 1.2021.4(Sun Apr 04 09:49:39 BST 2021)
(GPL source distribution)
Java Runtime: OpenJDK Runtime Environment
JVM: OpenJDK 64-Bit Server VM
Default Encoding: Cp1252
Language: en
Country: US
--></g></svg>