<?xml version="1.0" encoding="UTF-8" standalone="no"?><svg xmlns="http://www.w3.org/2000/svg" xmlns:xlink="http://www.w3.org/1999/xlink" contentScriptType="application/ecmascript" contentStyleType="text/css" height="726px" preserveAspectRatio="none" style="width:407px;height:726px;background:#FFFFFF;" version="1.1" viewBox="0 0 407 726" width="407px" zoomAndPan="magnify"><defs><filter height="300%" id="f1hr0pmjlulrjl" width="300%" x="-1" y="-1"><feGaussianBlur result="blurOut" stdDeviation="2.0"/><feColorMatrix in="blurOut" result="blurOut2" type="matrix" values="0 0 0 0 0 0 0 0 0 0 0 0 0 0 0 0 0 0 .4 0"/><feOffset dx="4.0" dy="4.0" in="blurOut2" result="blurOut3"/><feBlend in="SourceGraphic" in2="blurOut3" mode="normal"/></filter></defs><g><!--MD5=[df38be88ccee13e832d6fafd6288a4ca]
class Test--><rect codeLine="2" fill="#FEFECE" filter="url(#f1hr0pmjlulrjl)" height="89.5078" id="Test" style="stroke:#A80036;stroke-width:1.5;" width="97" x="137" y="301"/><ellipse cx="170.45" cy="317" fill="#ADD1B2" rx="11" ry="11" style="stroke:#A80036;stroke-width:1.0;"/><path d="M172.45,313.5 Q172.6531,313 172.8875,312.75 Q173.1219,312.5 173.3875,312.5 Q173.8563,312.5 174.1531,312.7813 Q174.45,313.0625 174.45,313.7188 L174.45,315.2813 Q174.45,315.9375 174.1688,316.2188 Q173.8875,316.5 173.45,316.5 Q173.0594,316.5 172.8094,316.3281 Q172.5594,316.1563 172.45,315.7031 Q172.4031,315.3906 172.2313,315.2188 Q171.9188,314.8906 171.3563,314.7031 Q170.7938,314.5 170.2313,314.5 Q169.5281,314.5 168.9344,314.7813 Q168.3563,315.0625 167.9031,315.6875 Q167.45,316.3125 167.45,317.1719 L167.45,318.0938 Q167.45,319.125 168.2938,319.8125 Q169.1375,320.5 170.6375,320.5 Q171.5281,320.5 172.1531,320.2969 Q172.5125,320.1875 172.9188,319.8281 Q173.1844,319.625 173.325,319.5625 Q173.4656,319.5 173.6375,319.5 Q173.9656,319.5 174.2,319.7656 Q174.45,320.0156 174.45,320.375 Q174.45,320.7188 174.1063,321.125 Q173.6063,321.7188 172.8094,322.0469 Q171.7625,322.5 170.4813,322.5 Q168.9813,322.5 167.7781,321.9063 Q166.8094,321.4375 166.1219,320.4219 Q165.45,319.4063 165.45,318.2031 L165.45,317.1094 Q165.45,315.8594 166.0438,314.7656 Q166.6531,313.6719 167.7,313.0938 Q168.7625,312.5 169.95,312.5 Q170.6688,312.5 171.2938,312.75 Q171.9188,313 172.45,313.5 Z " fill="#000000"/><text fill="#000000" font-family="sans-serif" font-size="12" lengthAdjust="spacing" textLength="24" x="188.55" y="321.9102">Test</text><line style="stroke:#A80036;stroke-width:1.5;" x1="138" x2="233" y1="333" y2="333"/><text fill="#000000" font-family="sans-serif" font-size="11" lengthAdjust="spacing" textLength="29" x="143" y="348.4189">Client;</text><text fill="#000000" font-family="sans-serif" font-size="11" lengthAdjust="spacing" textLength="36" x="143" y="362.2549">Test ID;</text><text fill="#000000" font-family="sans-serif" font-size="11" lengthAdjust="spacing" textLength="85" x="143" y="376.0908">Test NHS Number</text><line style="stroke:#A80036;stroke-width:1.5;" x1="138" x2="233" y1="382.5078" y2="382.5078"/><!--MD5=[fdca102e342db1d5733f5f3c41f4f0c8]
class TypeTest--><rect codeLine="7" fill="#FEFECE" filter="url(#f1hr0pmjlulrjl)" height="89.5078" id="TypeTest" style="stroke:#A80036;stroke-width:1.5;" width="119" x="7" y="133"/><ellipse cx="38.65" cy="149" fill="#ADD1B2" rx="11" ry="11" style="stroke:#A80036;stroke-width:1.0;"/><path d="M40.65,145.5 Q40.8531,145 41.0875,144.75 Q41.3219,144.5 41.5875,144.5 Q42.0563,144.5 42.3531,144.7813 Q42.65,145.0625 42.65,145.7188 L42.65,147.2813 Q42.65,147.9375 42.3688,148.2188 Q42.0875,148.5 41.65,148.5 Q41.2594,148.5 41.0094,148.3281 Q40.7594,148.1563 40.65,147.7031 Q40.6031,147.3906 40.4313,147.2188 Q40.1188,146.8906 39.5563,146.7031 Q38.9938,146.5 38.4313,146.5 Q37.7281,146.5 37.1344,146.7813 Q36.5563,147.0625 36.1031,147.6875 Q35.65,148.3125 35.65,149.1719 L35.65,150.0938 Q35.65,151.125 36.4938,151.8125 Q37.3375,152.5 38.8375,152.5 Q39.7281,152.5 40.3531,152.2969 Q40.7125,152.1875 41.1188,151.8281 Q41.3844,151.625 41.525,151.5625 Q41.6656,151.5 41.8375,151.5 Q42.1656,151.5 42.4,151.7656 Q42.65,152.0156 42.65,152.375 Q42.65,152.7188 42.3063,153.125 Q41.8063,153.7188 41.0094,154.0469 Q39.9625,154.5 38.6813,154.5 Q37.1813,154.5 35.9781,153.9063 Q35.0094,153.4375 34.3219,152.4219 Q33.65,151.4063 33.65,150.2031 L33.65,149.1094 Q33.65,147.8594 34.2438,146.7656 Q34.8531,145.6719 35.9,145.0938 Q36.9625,144.5 38.15,144.5 Q38.8688,144.5 39.4938,144.75 Q40.1188,145 40.65,145.5 Z " fill="#000000"/><text fill="#000000" font-family="sans-serif" font-size="12" lengthAdjust="spacing" textLength="50" x="56.35" y="153.9102">TypeTest</text><line style="stroke:#A80036;stroke-width:1.5;" x1="8" x2="125" y1="165" y2="165"/><text fill="#000000" font-family="sans-serif" font-size="11" lengthAdjust="spacing" textLength="36" x="13" y="180.4189">Test ID;</text><text fill="#000000" font-family="sans-serif" font-size="11" lengthAdjust="spacing" textLength="87" x="13" y="194.2549">Collecting Method;</text><text fill="#000000" font-family="sans-serif" font-size="11" lengthAdjust="spacing" textLength="107" x="13" y="208.0908">Parameter Categories;</text><line style="stroke:#A80036;stroke-width:1.5;" x1="8" x2="125" y1="214.5078" y2="214.5078"/><!--MD5=[1f6362a5c8f21d8d6a0fce68f3a92a4e]
class Parameter--><rect codeLine="13" fill="#FEFECE" filter="url(#f1hr0pmjlulrjl)" height="89.5078" id="Parameter" style="stroke:#A80036;stroke-width:1.5;" width="90" x="140.5" y="469"/><ellipse cx="155.5" cy="485" fill="#ADD1B2" rx="11" ry="11" style="stroke:#A80036;stroke-width:1.0;"/><path d="M157.5,481.5 Q157.7031,481 157.9375,480.75 Q158.1719,480.5 158.4375,480.5 Q158.9063,480.5 159.2031,480.7813 Q159.5,481.0625 159.5,481.7188 L159.5,483.2813 Q159.5,483.9375 159.2188,484.2188 Q158.9375,484.5 158.5,484.5 Q158.1094,484.5 157.8594,484.3281 Q157.6094,484.1563 157.5,483.7031 Q157.4531,483.3906 157.2813,483.2188 Q156.9688,482.8906 156.4063,482.7031 Q155.8438,482.5 155.2813,482.5 Q154.5781,482.5 153.9844,482.7813 Q153.4063,483.0625 152.9531,483.6875 Q152.5,484.3125 152.5,485.1719 L152.5,486.0938 Q152.5,487.125 153.3438,487.8125 Q154.1875,488.5 155.6875,488.5 Q156.5781,488.5 157.2031,488.2969 Q157.5625,488.1875 157.9688,487.8281 Q158.2344,487.625 158.375,487.5625 Q158.5156,487.5 158.6875,487.5 Q159.0156,487.5 159.25,487.7656 Q159.5,488.0156 159.5,488.375 Q159.5,488.7188 159.1563,489.125 Q158.6563,489.7188 157.8594,490.0469 Q156.8125,490.5 155.5313,490.5 Q154.0313,490.5 152.8281,489.9063 Q151.8594,489.4375 151.1719,488.4219 Q150.5,487.4063 150.5,486.2031 L150.5,485.1094 Q150.5,483.8594 151.0938,482.7656 Q151.7031,481.6719 152.75,481.0938 Q153.8125,480.5 155,480.5 Q155.7188,480.5 156.3438,480.75 Q156.9688,481 157.5,481.5 Z " fill="#000000"/><text fill="#000000" font-family="sans-serif" font-size="12" lengthAdjust="spacing" textLength="58" x="169.5" y="489.9102">Parameter</text><line style="stroke:#A80036;stroke-width:1.5;" x1="141.5" x2="229.5" y1="501" y2="501"/><text fill="#000000" font-family="sans-serif" font-size="11" lengthAdjust="spacing" textLength="29" x="146.5" y="516.4189">name;</text><text fill="#000000" font-family="sans-serif" font-size="11" lengthAdjust="spacing" textLength="27" x="146.5" y="530.2549">code;</text><text fill="#000000" font-family="sans-serif" font-size="11" lengthAdjust="spacing" textLength="56" x="146.5" y="544.0908">description;</text><line style="stroke:#A80036;stroke-width:1.5;" x1="141.5" x2="229.5" y1="550.5078" y2="550.5078"/><!--MD5=[36afb6bbd95a8ac778c4537c55a683d5]
class ParameterCategory--><rect codeLine="18" fill="#FEFECE" filter="url(#f1hr0pmjlulrjl)" height="75.6719" id="ParameterCategory" style="stroke:#A80036;stroke-width:1.5;" width="139" x="29" y="637"/><ellipse cx="44" cy="653" fill="#ADD1B2" rx="11" ry="11" style="stroke:#A80036;stroke-width:1.0;"/><path d="M46,649.5 Q46.2031,649 46.4375,648.75 Q46.6719,648.5 46.9375,648.5 Q47.4063,648.5 47.7031,648.7813 Q48,649.0625 48,649.7188 L48,651.2813 Q48,651.9375 47.7188,652.2188 Q47.4375,652.5 47,652.5 Q46.6094,652.5 46.3594,652.3281 Q46.1094,652.1563 46,651.7031 Q45.9531,651.3906 45.7813,651.2188 Q45.4688,650.8906 44.9063,650.7031 Q44.3438,650.5 43.7813,650.5 Q43.0781,650.5 42.4844,650.7813 Q41.9063,651.0625 41.4531,651.6875 Q41,652.3125 41,653.1719 L41,654.0938 Q41,655.125 41.8438,655.8125 Q42.6875,656.5 44.1875,656.5 Q45.0781,656.5 45.7031,656.2969 Q46.0625,656.1875 46.4688,655.8281 Q46.7344,655.625 46.875,655.5625 Q47.0156,655.5 47.1875,655.5 Q47.5156,655.5 47.75,655.7656 Q48,656.0156 48,656.375 Q48,656.7188 47.6563,657.125 Q47.1563,657.7188 46.3594,658.0469 Q45.3125,658.5 44.0313,658.5 Q42.5313,658.5 41.3281,657.9063 Q40.3594,657.4375 39.6719,656.4219 Q39,655.4063 39,654.2031 L39,653.1094 Q39,651.8594 39.5938,650.7656 Q40.2031,649.6719 41.25,649.0938 Q42.3125,648.5 43.5,648.5 Q44.2188,648.5 44.8438,648.75 Q45.4688,649 46,649.5 Z " fill="#000000"/><text fill="#000000" font-family="sans-serif" font-size="12" lengthAdjust="spacing" textLength="107" x="58" y="657.9102">ParameterCategory</text><line style="stroke:#A80036;stroke-width:1.5;" x1="30" x2="167" y1="669" y2="669"/><text fill="#000000" font-family="sans-serif" font-size="11" lengthAdjust="spacing" textLength="29" x="35" y="684.4189">name;</text><text fill="#000000" font-family="sans-serif" font-size="11" lengthAdjust="spacing" textLength="27" x="35" y="698.2549">code;</text><line style="stroke:#A80036;stroke-width:1.5;" x1="30" x2="167" y1="704.6719" y2="704.6719"/><!--MD5=[02e4b9b7573f1156f41e60aa5b4e25a4]
class Company--><rect fill="#FEFECE" filter="url(#f1hr0pmjlulrjl)" height="48" id="Company" style="stroke:#A80036;stroke-width:1.5;" width="85" x="154" y="7"/><ellipse cx="169" cy="23" fill="#ADD1B2" rx="11" ry="11" style="stroke:#A80036;stroke-width:1.0;"/><path d="M171,19.5 Q171.2031,19 171.4375,18.75 Q171.6719,18.5 171.9375,18.5 Q172.4063,18.5 172.7031,18.7813 Q173,19.0625 173,19.7188 L173,21.2813 Q173,21.9375 172.7188,22.2188 Q172.4375,22.5 172,22.5 Q171.6094,22.5 171.3594,22.3281 Q171.1094,22.1563 171,21.7031 Q170.9531,21.3906 170.7813,21.2188 Q170.4688,20.8906 169.9063,20.7031 Q169.3438,20.5 168.7813,20.5 Q168.0781,20.5 167.4844,20.7813 Q166.9063,21.0625 166.4531,21.6875 Q166,22.3125 166,23.1719 L166,24.0938 Q166,25.125 166.8438,25.8125 Q167.6875,26.5 169.1875,26.5 Q170.0781,26.5 170.7031,26.2969 Q171.0625,26.1875 171.4688,25.8281 Q171.7344,25.625 171.875,25.5625 Q172.0156,25.5 172.1875,25.5 Q172.5156,25.5 172.75,25.7656 Q173,26.0156 173,26.375 Q173,26.7188 172.6563,27.125 Q172.1563,27.7188 171.3594,28.0469 Q170.3125,28.5 169.0313,28.5 Q167.5313,28.5 166.3281,27.9063 Q165.3594,27.4375 164.6719,26.4219 Q164,25.4063 164,24.2031 L164,23.1094 Q164,21.8594 164.5938,20.7656 Q165.2031,19.6719 166.25,19.0938 Q167.3125,18.5 168.5,18.5 Q169.2188,18.5 169.8438,18.75 Q170.4688,19 171,19.5 Z " fill="#000000"/><text fill="#000000" font-family="sans-serif" font-size="12" lengthAdjust="spacing" textLength="53" x="183" y="27.9102">Company</text><line style="stroke:#A80036;stroke-width:1.5;" x1="155" x2="238" y1="39" y2="39"/><line style="stroke:#A80036;stroke-width:1.5;" x1="155" x2="238" y1="47" y2="47"/><!--MD5=[12d76240d3c3c66074d4ec2ea8bf469c]
link Company to Parameter--><path codeLine="23" d="M218.67,55.06 C235.45,74.21 257.14,103.07 266.5,133 C281.08,179.62 255.26,376.83 251.5,391 C244.21,418.47 229.62,446.53 216.01,468.81 " fill="none" id="Company-Parameter" style="stroke:#A80036;stroke-width:1.0;"/><polygon fill="#000000" points="272.4679,267.1757,275.4649,258.1497,269.5871,258.1119,272.4679,267.1757" style="stroke:#000000;stroke-width:1.0;"/><text fill="#000000" font-family="sans-serif" font-size="13" lengthAdjust="spacing" textLength="118" x="281.5" y="267.4951">capable of analysing</text><text fill="#000000" font-family="sans-serif" font-size="13" lengthAdjust="spacing" textLength="7" x="216.2208" y="76.4126">1</text><text fill="#000000" font-family="sans-serif" font-size="13" lengthAdjust="spacing" textLength="5" x="215.299" y="458.225">*</text><!--MD5=[7e4bc624457760b649895ff2ead938fa]
link Company to Test--><path codeLine="24" d="M195.69,55.02 C193.87,106.83 189.42,233.36 187.05,300.87 " fill="none" id="Company-Test" style="stroke:#A80036;stroke-width:1.0;"/><polygon fill="#000000" points="198.3244,183.1727,201.5792,174.2364,195.705,174.03,198.3244,183.1727" style="stroke:#000000;stroke-width:1.0;"/><text fill="#000000" font-family="sans-serif" font-size="13" lengthAdjust="spacing" textLength="50" x="207.5" y="183.4951">performs</text><text fill="#000000" font-family="sans-serif" font-size="13" lengthAdjust="spacing" textLength="7" x="187.6394" y="76.3628">1</text><text fill="#000000" font-family="sans-serif" font-size="13" lengthAdjust="spacing" textLength="5" x="181.9045" y="290.2942">*</text><!--MD5=[efeee5a875446d6321e222df39bacc7b]
link Company to TypeTest--><path codeLine="25" d="M153.79,48.41 C135.97,57.03 116.26,69.16 102.5,85 C90.69,98.6 82.51,116.52 76.97,132.93 " fill="none" id="Company-TypeTest" style="stroke:#A80036;stroke-width:1.0;"/><polygon fill="#000000" points="104.137,97.8758,112.3955,93.1591,108.0459,89.2057,104.137,97.8758" style="stroke:#000000;stroke-width:1.0;"/><text fill="#000000" font-family="sans-serif" font-size="13" lengthAdjust="spacing" textLength="53" x="116.5" y="99.4951">conducts</text><text fill="#000000" font-family="sans-serif" font-size="13" lengthAdjust="spacing" textLength="7" x="139.1365" y="47.4928">1</text><text fill="#000000" font-family="sans-serif" font-size="13" lengthAdjust="spacing" textLength="5" x="73.2402" y="122.0343">*</text><!--MD5=[6df8849671cb880f6936e94aa30db6f9]
link Parameter to ParameterCategory--><path codeLine="26" d="M161.27,559.29 C147.89,583.73 131.47,613.74 118.78,636.93 " fill="none" id="Parameter-ParameterCategory" style="stroke:#A80036;stroke-width:1.0;"/><polygon fill="#000000" points="148.0996,602.5619,155.0201,596.0382,149.8639,593.2164,148.0996,602.5619" style="stroke:#000000;stroke-width:1.0;"/><text fill="#000000" font-family="sans-serif" font-size="13" lengthAdjust="spacing" textLength="32" x="159.5" y="603.4951">has a</text><text fill="#000000" font-family="sans-serif" font-size="13" lengthAdjust="spacing" textLength="7" x="150.5438" y="580.0027">1</text><text fill="#000000" font-family="sans-serif" font-size="13" lengthAdjust="spacing" textLength="7" x="114.7689" y="626.2794">1</text><!--MD5=[c23963f6e403fc3ebec8dae22c30ade6]
link Test to Parameter--><path codeLine="27" d="M185.5,391.05 C185.5,415.06 185.5,444.7 185.5,468.75 " fill="none" id="Test-Parameter" style="stroke:#A80036;stroke-width:1.0;"/><polygon fill="#000000" points="190.5,435.1758,193.4389,426.1307,187.5611,426.1307,190.5,435.1758" style="stroke:#000000;stroke-width:1.0;"/><text fill="#000000" font-family="sans-serif" font-size="13" lengthAdjust="spacing" textLength="21" x="199.5" y="435.4951">has</text><text fill="#000000" font-family="sans-serif" font-size="13" lengthAdjust="spacing" textLength="7" x="178.0078" y="412.0646">1</text><text fill="#000000" font-family="sans-serif" font-size="13" lengthAdjust="spacing" textLength="5" x="180.1172" y="458.1558">*</text><!--MD5=[921a940d1f21805a20a9bd8096adcacd]
link TypeTest to Test--><path codeLine="28" d="M96.82,223.19 C107.38,238.41 119.37,255.52 130.5,271 C137.51,280.75 145.13,291.13 152.41,300.95 " fill="none" id="TypeTest-Test" style="stroke:#A80036;stroke-width:1.0;"/><polygon fill="#000000" points="132.5922,258.1083,135.4617,267.1756,140.2433,263.7573,132.5922,258.1083" style="stroke:#000000;stroke-width:1.0;"/><text fill="#000000" font-family="sans-serif" font-size="13" lengthAdjust="spacing" textLength="25" x="144.5" y="267.4951">as a</text><text fill="#000000" font-family="sans-serif" font-size="13" lengthAdjust="spacing" textLength="7" x="93.4239" y="243.8892">1</text><text fill="#000000" font-family="sans-serif" font-size="13" lengthAdjust="spacing" textLength="5" x="141.7378" y="290.0575">*</text><!--MD5=[fc4f40f3276b989768e26d9d7b339728]
link TypeTest to ParameterCategory--><path codeLine="29" d="M69.37,223.36 C75.6,319.83 90.3,547.18 96.09,636.77 " fill="none" id="TypeTest-ParameterCategory" style="stroke:#A80036;stroke-width:1.0;"/><polygon fill="#000000" points="88.8225,435.1654,91.1719,425.9496,85.3063,426.3287,88.8225,435.1654" style="stroke:#000000;stroke-width:1.0;"/><text fill="#000000" font-family="sans-serif" font-size="13" lengthAdjust="spacing" textLength="21" x="97.5" y="435.4951">has</text><text fill="#000000" font-family="sans-serif" font-size="13" lengthAdjust="spacing" textLength="7" x="62.2853" y="244.0821">1</text><text fill="#000000" font-family="sans-serif" font-size="13" lengthAdjust="spacing" textLength="5" x="90.2154" y="626.0909">*</text><!--MD5=[0aa6289ce01a925b2074a41a78d2a177]
@startuml

class Test{
Client;
Test ID;
Test NHS Number
}
class TypeTest{
Test ID;
Collecting Method;
Parameter Categories;
}

class Parameter{
name;
code;
description;
}
class ParameterCategory{
name;
code;
}

Company "1" - - "*" Parameter: capable of analysing >
Company "1" - - "*" Test: performs >
Company "1" - - "*" TypeTest: conducts >
Parameter "1" - - "1" ParameterCategory : has a >
Test "1" - - "*" Parameter : has >
TypeTest "1" - - "*" Test : as a <
TypeTest "1" - - "*" ParameterCategory : has >

@enduml

PlantUML version 1.2021.7(Sun May 23 13:40:07 BST 2021)
(GPL source distribution)
Java Runtime: OpenJDK Runtime Environment
JVM: Dynamic Code Evolution 64-Bit Server VM
Default Encoding: Cp1252
Language: pt
Country: PT
--></g></svg>