<?xml version="1.0" encoding="UTF-8" standalone="no"?><svg xmlns="http://www.w3.org/2000/svg" xmlns:xlink="http://www.w3.org/1999/xlink" contentScriptType="application/ecmascript" contentStyleType="text/css" height="624px" preserveAspectRatio="none" style="width:459px;height:624px;background:#FFFFFF;" version="1.1" viewBox="0 0 459 624" width="459px" zoomAndPan="magnify"><defs><filter height="300%" id="f16jnntk9rc6lp" width="300%" x="-1" y="-1"><feGaussianBlur result="blurOut" stdDeviation="2.0"/><feColorMatrix in="blurOut" result="blurOut2" type="matrix" values="0 0 0 0 0 0 0 0 0 0 0 0 0 0 0 0 0 0 .4 0"/><feOffset dx="4.0" dy="4.0" in="blurOut2" result="blurOut3"/><feBlend in="SourceGraphic" in2="blurOut3" mode="normal"/></filter></defs><g><rect fill="#FFFFFF" filter="url(#f16jnntk9rc6lp)" height="420.9219" style="stroke:#A80036;stroke-width:1.0;" width="10" x="67" y="99.6094"/><rect fill="#FFFFFF" filter="url(#f16jnntk9rc6lp)" height="30.3516" style="stroke:#A80036;stroke-width:1.0;" width="10" x="386" y="121.9609"/><rect fill="#FFFFFF" filter="url(#f16jnntk9rc6lp)" height="30.3516" style="stroke:#A80036;stroke-width:1.0;" width="10" x="386" y="182.6641"/><rect fill="#FFFFFF" filter="url(#f16jnntk9rc6lp)" height="55.7031" style="stroke:#A80036;stroke-width:1.0;" width="10" x="386" y="243.3672"/><rect fill="#FFFFFF" filter="url(#f16jnntk9rc6lp)" height="55.7031" style="stroke:#A80036;stroke-width:1.0;" width="10" x="386" y="329.4219"/><rect fill="#FFFFFF" filter="url(#f16jnntk9rc6lp)" height="44.3516" style="stroke:#A80036;stroke-width:1.0;" width="10" x="386" y="415.4766"/><rect fill="#FFFFFF" filter="url(#f16jnntk9rc6lp)" height="30.3516" style="stroke:#A80036;stroke-width:1.0;" width="10" x="386" y="490.1797"/><rect fill="#FFFFFF" filter="url(#f16jnntk9rc6lp)" height="172.1094" style="stroke:#000000;stroke-width:2.0;" width="435" x="10" y="258.3672"/><rect fill="#FFFFFF" filter="url(#f16jnntk9rc6lp)" height="79.0547" style="stroke:#000000;stroke-width:2.0;" width="415" x="20" y="344.4219"/><line style="stroke:#A80036;stroke-width:1.0;stroke-dasharray:5.0,5.0;" x1="72" x2="72" y1="89.6094" y2="538.5313"/><line style="stroke:#A80036;stroke-width:1.0;stroke-dasharray:5.0,5.0;" x1="391" x2="391" y1="89.6094" y2="538.5313"/><text fill="#000000" font-family="sans-serif" font-size="14" lengthAdjust="spacing" textLength="78" x="30" y="86.5332">Receptionist</text><ellipse cx="72" cy="15" fill="#FEFECE" filter="url(#f16jnntk9rc6lp)" rx="8" ry="8" style="stroke:#A80036;stroke-width:2.0;"/><path d="M72,23 L72,50 M59,31 L85,31 M72,50 L59,65 M72,50 L85,65 " fill="none" filter="url(#f16jnntk9rc6lp)" style="stroke:#A80036;stroke-width:2.0;"/><text fill="#000000" font-family="sans-serif" font-size="14" lengthAdjust="spacing" textLength="78" x="30" y="552.0645">Receptionist</text><ellipse cx="72" cy="565.1406" fill="#FEFECE" filter="url(#f16jnntk9rc6lp)" rx="8" ry="8" style="stroke:#A80036;stroke-width:2.0;"/><path d="M72,573.1406 L72,600.1406 M59,581.1406 L85,581.1406 M72,600.1406 L59,615.1406 M72,600.1406 L85,615.1406 " fill="none" filter="url(#f16jnntk9rc6lp)" style="stroke:#A80036;stroke-width:2.0;"/><rect fill="#FEFECE" filter="url(#f16jnntk9rc6lp)" height="31.6094" style="stroke:#A80036;stroke-width:1.5;" width="64" x="357" y="53"/><text fill="#000000" font-family="sans-serif" font-size="14" lengthAdjust="spacing" textLength="50" x="364" y="74.5332">:System</text><rect fill="#FEFECE" filter="url(#f16jnntk9rc6lp)" height="31.6094" style="stroke:#A80036;stroke-width:1.5;" width="64" x="357" y="537.5313"/><text fill="#000000" font-family="sans-serif" font-size="14" lengthAdjust="spacing" textLength="50" x="364" y="559.0645">:System</text><rect fill="#FFFFFF" filter="url(#f16jnntk9rc6lp)" height="420.9219" style="stroke:#A80036;stroke-width:1.0;" width="10" x="67" y="99.6094"/><rect fill="#FFFFFF" filter="url(#f16jnntk9rc6lp)" height="30.3516" style="stroke:#A80036;stroke-width:1.0;" width="10" x="386" y="121.9609"/><rect fill="#FFFFFF" filter="url(#f16jnntk9rc6lp)" height="30.3516" style="stroke:#A80036;stroke-width:1.0;" width="10" x="386" y="182.6641"/><rect fill="#FFFFFF" filter="url(#f16jnntk9rc6lp)" height="55.7031" style="stroke:#A80036;stroke-width:1.0;" width="10" x="386" y="243.3672"/><rect fill="#FFFFFF" filter="url(#f16jnntk9rc6lp)" height="55.7031" style="stroke:#A80036;stroke-width:1.0;" width="10" x="386" y="329.4219"/><rect fill="#FFFFFF" filter="url(#f16jnntk9rc6lp)" height="44.3516" style="stroke:#A80036;stroke-width:1.0;" width="10" x="386" y="415.4766"/><rect fill="#FFFFFF" filter="url(#f16jnntk9rc6lp)" height="30.3516" style="stroke:#A80036;stroke-width:1.0;" width="10" x="386" y="490.1797"/><polygon fill="#A80036" points="374,117.9609,384,121.9609,374,125.9609,378,121.9609" style="stroke:#A80036;stroke-width:1.0;"/><line style="stroke:#A80036;stroke-width:1.0;" x1="77" x2="380" y1="121.9609" y2="121.9609"/><text fill="#000000" font-family="sans-serif" font-size="13" font-weight="bold" lengthAdjust="spacing" textLength="7" x="84" y="117.1045">1</text><text fill="#000000" font-family="sans-serif" font-size="13" lengthAdjust="spacing" textLength="133" x="95" y="117.1045">wants to register a test</text><polygon fill="#A80036" points="88,148.3125,78,152.3125,88,156.3125,84,152.3125" style="stroke:#A80036;stroke-width:1.0;"/><line style="stroke:#A80036;stroke-width:1.0;stroke-dasharray:2.0,2.0;" x1="82" x2="390" y1="152.3125" y2="152.3125"/><text fill="#000000" font-family="sans-serif" font-size="13" font-weight="bold" lengthAdjust="spacing" textLength="7" x="94" y="147.4561">2</text><text fill="#000000" font-family="sans-serif" font-size="13" lengthAdjust="spacing" textLength="217" x="105" y="147.4561">requests data (ClientTin, NhsNumber)</text><polygon fill="#A80036" points="374,178.6641,384,182.6641,374,186.6641,378,182.6641" style="stroke:#A80036;stroke-width:1.0;"/><line style="stroke:#A80036;stroke-width:1.0;" x1="77" x2="380" y1="182.6641" y2="182.6641"/><text fill="#000000" font-family="sans-serif" font-size="13" font-weight="bold" lengthAdjust="spacing" textLength="7" x="84" y="177.8076">3</text><text fill="#000000" font-family="sans-serif" font-size="13" lengthAdjust="spacing" textLength="144" x="95" y="177.8076">types the requested data</text><polygon fill="#A80036" points="88,209.0156,78,213.0156,88,217.0156,84,213.0156" style="stroke:#A80036;stroke-width:1.0;"/><line style="stroke:#A80036;stroke-width:1.0;stroke-dasharray:2.0,2.0;" x1="82" x2="390" y1="213.0156" y2="213.0156"/><text fill="#000000" font-family="sans-serif" font-size="13" font-weight="bold" lengthAdjust="spacing" textLength="7" x="94" y="208.1592">4</text><text fill="#000000" font-family="sans-serif" font-size="13" lengthAdjust="spacing" textLength="253" x="105" y="208.1592">Show TestType list and asks to choose one</text><polygon fill="#A80036" points="374,239.3672,384,243.3672,374,247.3672,378,243.3672" style="stroke:#A80036;stroke-width:1.0;"/><line style="stroke:#A80036;stroke-width:1.0;" x1="77" x2="380" y1="243.3672" y2="243.3672"/><text fill="#000000" font-family="sans-serif" font-size="13" font-weight="bold" lengthAdjust="spacing" textLength="7" x="84" y="238.5107">5</text><text fill="#000000" font-family="sans-serif" font-size="13" lengthAdjust="spacing" textLength="126" x="95" y="238.5107">Choose one TestType</text><path d="M10,258.3672 L83,258.3672 L83,266.3672 L73,276.3672 L10,276.3672 L10,258.3672 " fill="#EEEEEE" style="stroke:#000000;stroke-width:1.0;"/><rect fill="none" height="172.1094" style="stroke:#000000;stroke-width:2.0;" width="435" x="10" y="258.3672"/><text fill="#000000" font-family="sans-serif" font-size="13" font-weight="bold" lengthAdjust="spacing" textLength="28" x="25" y="272.8623">loop</text><text fill="#000000" font-family="sans-serif" font-size="11" font-weight="bold" lengthAdjust="spacing" textLength="109" x="98" y="271.7861">["More categories"]</text><polygon fill="#A80036" points="88,295.0703,78,299.0703,88,303.0703,84,299.0703" style="stroke:#A80036;stroke-width:1.0;"/><line style="stroke:#A80036;stroke-width:1.0;stroke-dasharray:2.0,2.0;" x1="82" x2="390" y1="299.0703" y2="299.0703"/><text fill="#000000" font-family="sans-serif" font-size="13" font-weight="bold" lengthAdjust="spacing" textLength="7" x="94" y="294.2139">6</text><text fill="#000000" font-family="sans-serif" font-size="13" lengthAdjust="spacing" textLength="269" x="105" y="294.2139">shows the list of categories and asks to select</text><polygon fill="#A80036" points="374,325.4219,384,329.4219,374,333.4219,378,329.4219" style="stroke:#A80036;stroke-width:1.0;"/><line style="stroke:#A80036;stroke-width:1.0;" x1="77" x2="380" y1="329.4219" y2="329.4219"/><text fill="#000000" font-family="sans-serif" font-size="13" font-weight="bold" lengthAdjust="spacing" textLength="7" x="84" y="324.5654">7</text><text fill="#000000" font-family="sans-serif" font-size="13" lengthAdjust="spacing" textLength="96" x="95" y="324.5654">selects category</text><path d="M20,344.4219 L93,344.4219 L93,352.4219 L83,362.4219 L20,362.4219 L20,344.4219 " fill="#EEEEEE" style="stroke:#000000;stroke-width:1.0;"/><rect fill="none" height="79.0547" style="stroke:#000000;stroke-width:2.0;" width="415" x="20" y="344.4219"/><text fill="#000000" font-family="sans-serif" font-size="13" font-weight="bold" lengthAdjust="spacing" textLength="28" x="35" y="358.917">loop</text><text fill="#000000" font-family="sans-serif" font-size="11" font-weight="bold" lengthAdjust="spacing" textLength="115" x="108" y="357.8408">["More parameters"]</text><polygon fill="#A80036" points="88,381.125,78,385.125,88,389.125,84,385.125" style="stroke:#A80036;stroke-width:1.0;"/><line style="stroke:#A80036;stroke-width:1.0;stroke-dasharray:2.0,2.0;" x1="82" x2="390" y1="385.125" y2="385.125"/><text fill="#000000" font-family="sans-serif" font-size="13" font-weight="bold" lengthAdjust="spacing" textLength="7" x="94" y="380.2686">8</text><text fill="#000000" font-family="sans-serif" font-size="13" lengthAdjust="spacing" textLength="274" x="105" y="380.2686">shows the list of parameters and asks to select</text><polygon fill="#A80036" points="374,411.4766,384,415.4766,374,419.4766,378,415.4766" style="stroke:#A80036;stroke-width:1.0;"/><line style="stroke:#A80036;stroke-width:1.0;" x1="77" x2="380" y1="415.4766" y2="415.4766"/><text fill="#000000" font-family="sans-serif" font-size="13" font-weight="bold" lengthAdjust="spacing" textLength="7" x="84" y="410.6201">9</text><text fill="#000000" font-family="sans-serif" font-size="13" lengthAdjust="spacing" textLength="104" x="95" y="410.6201">selects parameter</text><polygon fill="#A80036" points="88,455.8281,78,459.8281,88,463.8281,84,459.8281" style="stroke:#A80036;stroke-width:1.0;"/><line style="stroke:#A80036;stroke-width:1.0;stroke-dasharray:2.0,2.0;" x1="82" x2="390" y1="459.8281" y2="459.8281"/><text fill="#000000" font-family="sans-serif" font-size="13" font-weight="bold" lengthAdjust="spacing" textLength="14" x="94" y="454.9717">10</text><text fill="#000000" font-family="sans-serif" font-size="13" lengthAdjust="spacing" textLength="213" x="112" y="454.9717">confirms all data and asks to confirm</text><polygon fill="#A80036" points="374,486.1797,384,490.1797,374,494.1797,378,490.1797" style="stroke:#A80036;stroke-width:1.0;"/><line style="stroke:#A80036;stroke-width:1.0;" x1="77" x2="380" y1="490.1797" y2="490.1797"/><text fill="#000000" font-family="sans-serif" font-size="13" font-weight="bold" lengthAdjust="spacing" textLength="14" x="84" y="485.3232">11</text><text fill="#000000" font-family="sans-serif" font-size="13" lengthAdjust="spacing" textLength="78" x="102" y="485.3232">confirms data</text><polygon fill="#A80036" points="83,516.5313,73,520.5313,83,524.5313,79,520.5313" style="stroke:#A80036;stroke-width:1.0;"/><line style="stroke:#A80036;stroke-width:1.0;stroke-dasharray:2.0,2.0;" x1="77" x2="390" y1="520.5313" y2="520.5313"/><text fill="#000000" font-family="sans-serif" font-size="13" font-weight="bold" lengthAdjust="spacing" textLength="14" x="89" y="515.6748">12</text><text fill="#000000" font-family="sans-serif" font-size="13" lengthAdjust="spacing" textLength="152" x="107" y="515.6748">informs operation success</text><!--MD5=[b578960815e5b61bfc6af219d10b0a71]
@startuml
autonumber

actor Receptionist as R
participant ":System" as S

activate R
R -> S: wants to register a test
activate S
S - -> R: requests data (ClientTin, NhsNumber)
deactivate S
R -> S: types the requested data
activate S
S - -> R: Show TestType list and asks to choose one
deactivate S
R -> S: Choose one TestType
activate S
loop "More categories"
S - -> R: shows the list of categories and asks to select
deactivate S
R -> S: selects category
activate S
loop "More parameters"
S - -> R: shows the list of parameters and asks to select
deactivate S
R -> S: selects parameter
activate S
end
end
S - -> R: confirms all data and asks to confirm
deactivate S
R -> S: confirms data
activate S
S - -> R: informs operation success
deactivate S
deactivate R
@enduml

PlantUML version 1.2021.7(Sun May 23 13:40:07 BST 2021)
(GPL source distribution)
Java Runtime: OpenJDK Runtime Environment
JVM: Dynamic Code Evolution 64-Bit Server VM
Default Encoding: Cp1252
Language: pt
Country: PT
--></g></svg>