<?xml version="1.0" encoding="UTF-8" standalone="no"?><svg xmlns="http://www.w3.org/2000/svg" xmlns:xlink="http://www.w3.org/1999/xlink" contentScriptType="application/ecmascript" contentStyleType="text/css" height="600px" preserveAspectRatio="none" style="width:192px;height:600px;" version="1.1" viewBox="0 0 192 600" width="192px" zoomAndPan="magnify"><defs><filter height="300%" id="f1dbld9hnhu5y0" width="300%" x="-1" y="-1"><feGaussianBlur result="blurOut" stdDeviation="2.0"/><feColorMatrix in="blurOut" result="blurOut2" type="matrix" values="0 0 0 0 0 0 0 0 0 0 0 0 0 0 0 0 0 0 .4 0"/><feOffset dx="4.0" dy="4.0" in="blurOut2" result="blurOut3"/><feBlend in="SourceGraphic" in2="blurOut3" mode="normal"/></filter></defs><g><!--MD5=[df38be88ccee13e832d6fafd6288a4ca]
class Test--><rect codeLine="2" fill="#FEFECE" filter="url(#f1dbld9hnhu5y0)" height="89.5078" id="Test" style="stroke:#A80036;stroke-width:1.5;" width="97" x="7" y="175"/><ellipse cx="40.45" cy="191" fill="#ADD1B2" rx="11" ry="11" style="stroke:#A80036;stroke-width:1.0;"/><path d="M42.45,187.5 Q42.6531,187 42.8875,186.75 Q43.1219,186.5 43.3875,186.5 Q43.8563,186.5 44.1531,186.7813 Q44.45,187.0625 44.45,187.7188 L44.45,189.2813 Q44.45,189.9375 44.1688,190.2188 Q43.8875,190.5 43.45,190.5 Q43.0594,190.5 42.8094,190.3281 Q42.5594,190.1563 42.45,189.7031 Q42.4031,189.3906 42.2313,189.2188 Q41.9188,188.8906 41.3563,188.7031 Q40.7938,188.5 40.2313,188.5 Q39.5281,188.5 38.9344,188.7813 Q38.3563,189.0625 37.9031,189.6875 Q37.45,190.3125 37.45,191.1719 L37.45,192.0938 Q37.45,193.125 38.2938,193.8125 Q39.1375,194.5 40.6375,194.5 Q41.5281,194.5 42.1531,194.2969 Q42.5125,194.1875 42.9188,193.8281 Q43.1844,193.625 43.325,193.5625 Q43.4656,193.5 43.6375,193.5 Q43.9656,193.5 44.2,193.7656 Q44.45,194.0156 44.45,194.375 Q44.45,194.7188 44.1063,195.125 Q43.6063,195.7188 42.8094,196.0469 Q41.7625,196.5 40.4813,196.5 Q38.9813,196.5 37.7781,195.9063 Q36.8094,195.4375 36.1219,194.4219 Q35.45,193.4063 35.45,192.2031 L35.45,191.1094 Q35.45,189.8594 36.0438,188.7656 Q36.6531,187.6719 37.7,187.0938 Q38.7625,186.5 39.95,186.5 Q40.6688,186.5 41.2938,186.75 Q41.9188,187 42.45,187.5 Z " fill="#000000"/><text fill="#000000" font-family="sans-serif" font-size="12" lengthAdjust="spacing" textLength="24" x="58.55" y="195.9102">Test</text><line style="stroke:#A80036;stroke-width:1.5;" x1="8" x2="103" y1="207" y2="207"/><text fill="#000000" font-family="sans-serif" font-size="11" lengthAdjust="spacing" textLength="29" x="13" y="222.4189">Client;</text><text fill="#000000" font-family="sans-serif" font-size="11" lengthAdjust="spacing" textLength="36" x="13" y="236.2549">Test ID;</text><text fill="#000000" font-family="sans-serif" font-size="11" lengthAdjust="spacing" textLength="85" x="13" y="250.0908">Test NHS Number</text><line style="stroke:#A80036;stroke-width:1.5;" x1="8" x2="103" y1="256.5078" y2="256.5078"/><!--MD5=[fdca102e342db1d5733f5f3c41f4f0c8]
class TypeTest--><rect codeLine="7" fill="#FEFECE" filter="url(#f1dbld9hnhu5y0)" height="89.5078" id="TypeTest" style="stroke:#A80036;stroke-width:1.5;" width="119" x="47" y="7"/><ellipse cx="78.65" cy="23" fill="#ADD1B2" rx="11" ry="11" style="stroke:#A80036;stroke-width:1.0;"/><path d="M80.65,19.5 Q80.8531,19 81.0875,18.75 Q81.3219,18.5 81.5875,18.5 Q82.0563,18.5 82.3531,18.7813 Q82.65,19.0625 82.65,19.7188 L82.65,21.2813 Q82.65,21.9375 82.3688,22.2188 Q82.0875,22.5 81.65,22.5 Q81.2594,22.5 81.0094,22.3281 Q80.7594,22.1563 80.65,21.7031 Q80.6031,21.3906 80.4313,21.2188 Q80.1188,20.8906 79.5563,20.7031 Q78.9938,20.5 78.4313,20.5 Q77.7281,20.5 77.1344,20.7813 Q76.5563,21.0625 76.1031,21.6875 Q75.65,22.3125 75.65,23.1719 L75.65,24.0938 Q75.65,25.125 76.4938,25.8125 Q77.3375,26.5 78.8375,26.5 Q79.7281,26.5 80.3531,26.2969 Q80.7125,26.1875 81.1188,25.8281 Q81.3844,25.625 81.525,25.5625 Q81.6656,25.5 81.8375,25.5 Q82.1656,25.5 82.4,25.7656 Q82.65,26.0156 82.65,26.375 Q82.65,26.7188 82.3063,27.125 Q81.8063,27.7188 81.0094,28.0469 Q79.9625,28.5 78.6813,28.5 Q77.1813,28.5 75.9781,27.9063 Q75.0094,27.4375 74.3219,26.4219 Q73.65,25.4063 73.65,24.2031 L73.65,23.1094 Q73.65,21.8594 74.2438,20.7656 Q74.8531,19.6719 75.9,19.0938 Q76.9625,18.5 78.15,18.5 Q78.8688,18.5 79.4938,18.75 Q80.1188,19 80.65,19.5 Z " fill="#000000"/><text fill="#000000" font-family="sans-serif" font-size="12" lengthAdjust="spacing" textLength="50" x="96.35" y="27.9102">TypeTest</text><line style="stroke:#A80036;stroke-width:1.5;" x1="48" x2="165" y1="39" y2="39"/><text fill="#000000" font-family="sans-serif" font-size="11" lengthAdjust="spacing" textLength="36" x="53" y="54.4189">Test ID;</text><text fill="#000000" font-family="sans-serif" font-size="11" lengthAdjust="spacing" textLength="87" x="53" y="68.2549">Collecting Method;</text><text fill="#000000" font-family="sans-serif" font-size="11" lengthAdjust="spacing" textLength="107" x="53" y="82.0908">Parameter Categories;</text><line style="stroke:#A80036;stroke-width:1.5;" x1="48" x2="165" y1="88.5078" y2="88.5078"/><!--MD5=[1f6362a5c8f21d8d6a0fce68f3a92a4e]
class Parameter--><rect codeLine="13" fill="#FEFECE" filter="url(#f1dbld9hnhu5y0)" height="89.5078" id="Parameter" style="stroke:#A80036;stroke-width:1.5;" width="90" x="13.5" y="343"/><ellipse cx="28.5" cy="359" fill="#ADD1B2" rx="11" ry="11" style="stroke:#A80036;stroke-width:1.0;"/><path d="M30.5,355.5 Q30.7031,355 30.9375,354.75 Q31.1719,354.5 31.4375,354.5 Q31.9063,354.5 32.2031,354.7813 Q32.5,355.0625 32.5,355.7188 L32.5,357.2813 Q32.5,357.9375 32.2188,358.2188 Q31.9375,358.5 31.5,358.5 Q31.1094,358.5 30.8594,358.3281 Q30.6094,358.1563 30.5,357.7031 Q30.4531,357.3906 30.2813,357.2188 Q29.9688,356.8906 29.4063,356.7031 Q28.8438,356.5 28.2813,356.5 Q27.5781,356.5 26.9844,356.7813 Q26.4063,357.0625 25.9531,357.6875 Q25.5,358.3125 25.5,359.1719 L25.5,360.0938 Q25.5,361.125 26.3438,361.8125 Q27.1875,362.5 28.6875,362.5 Q29.5781,362.5 30.2031,362.2969 Q30.5625,362.1875 30.9688,361.8281 Q31.2344,361.625 31.375,361.5625 Q31.5156,361.5 31.6875,361.5 Q32.0156,361.5 32.25,361.7656 Q32.5,362.0156 32.5,362.375 Q32.5,362.7188 32.1563,363.125 Q31.6563,363.7188 30.8594,364.0469 Q29.8125,364.5 28.5313,364.5 Q27.0313,364.5 25.8281,363.9063 Q24.8594,363.4375 24.1719,362.4219 Q23.5,361.4063 23.5,360.2031 L23.5,359.1094 Q23.5,357.8594 24.0938,356.7656 Q24.7031,355.6719 25.75,355.0938 Q26.8125,354.5 28,354.5 Q28.7188,354.5 29.3438,354.75 Q29.9688,355 30.5,355.5 Z " fill="#000000"/><text fill="#000000" font-family="sans-serif" font-size="12" lengthAdjust="spacing" textLength="58" x="42.5" y="363.9102">Parameter</text><line style="stroke:#A80036;stroke-width:1.5;" x1="14.5" x2="102.5" y1="375" y2="375"/><text fill="#000000" font-family="sans-serif" font-size="11" lengthAdjust="spacing" textLength="29" x="19.5" y="390.4189">name;</text><text fill="#000000" font-family="sans-serif" font-size="11" lengthAdjust="spacing" textLength="27" x="19.5" y="404.2549">code;</text><text fill="#000000" font-family="sans-serif" font-size="11" lengthAdjust="spacing" textLength="56" x="19.5" y="418.0908">description;</text><line style="stroke:#A80036;stroke-width:1.5;" x1="14.5" x2="102.5" y1="424.5078" y2="424.5078"/><!--MD5=[36afb6bbd95a8ac778c4537c55a683d5]
class ParameterCategory--><rect codeLine="18" fill="#FEFECE" filter="url(#f1dbld9hnhu5y0)" height="75.6719" id="ParameterCategory" style="stroke:#A80036;stroke-width:1.5;" width="139" x="39" y="511"/><ellipse cx="54" cy="527" fill="#ADD1B2" rx="11" ry="11" style="stroke:#A80036;stroke-width:1.0;"/><path d="M56,523.5 Q56.2031,523 56.4375,522.75 Q56.6719,522.5 56.9375,522.5 Q57.4063,522.5 57.7031,522.7813 Q58,523.0625 58,523.7188 L58,525.2813 Q58,525.9375 57.7188,526.2188 Q57.4375,526.5 57,526.5 Q56.6094,526.5 56.3594,526.3281 Q56.1094,526.1563 56,525.7031 Q55.9531,525.3906 55.7813,525.2188 Q55.4688,524.8906 54.9063,524.7031 Q54.3438,524.5 53.7813,524.5 Q53.0781,524.5 52.4844,524.7813 Q51.9063,525.0625 51.4531,525.6875 Q51,526.3125 51,527.1719 L51,528.0938 Q51,529.125 51.8438,529.8125 Q52.6875,530.5 54.1875,530.5 Q55.0781,530.5 55.7031,530.2969 Q56.0625,530.1875 56.4688,529.8281 Q56.7344,529.625 56.875,529.5625 Q57.0156,529.5 57.1875,529.5 Q57.5156,529.5 57.75,529.7656 Q58,530.0156 58,530.375 Q58,530.7188 57.6563,531.125 Q57.1563,531.7188 56.3594,532.0469 Q55.3125,532.5 54.0313,532.5 Q52.5313,532.5 51.3281,531.9063 Q50.3594,531.4375 49.6719,530.4219 Q49,529.4063 49,528.2031 L49,527.1094 Q49,525.8594 49.5938,524.7656 Q50.2031,523.6719 51.25,523.0938 Q52.3125,522.5 53.5,522.5 Q54.2188,522.5 54.8438,522.75 Q55.4688,523 56,523.5 Z " fill="#000000"/><text fill="#000000" font-family="sans-serif" font-size="12" lengthAdjust="spacing" textLength="107" x="68" y="531.9102">ParameterCategory</text><line style="stroke:#A80036;stroke-width:1.5;" x1="40" x2="177" y1="543" y2="543"/><text fill="#000000" font-family="sans-serif" font-size="11" lengthAdjust="spacing" textLength="29" x="45" y="558.4189">name;</text><text fill="#000000" font-family="sans-serif" font-size="11" lengthAdjust="spacing" textLength="27" x="45" y="572.2549">code;</text><line style="stroke:#A80036;stroke-width:1.5;" x1="40" x2="177" y1="578.6719" y2="578.6719"/><!--MD5=[6df8849671cb880f6936e94aa30db6f9]
link Parameter to ParameterCategory--><path codeLine="24" d="M70.32,433.17 C74.57,448.39 79.54,465.51 84.5,481 C87.63,490.77 91.25,501.24 94.71,510.94 " fill="none" id="Parameter-ParameterCategory" style="stroke:#A80036;stroke-width:1.0;"/><polygon fill="#000000" points="90.9962,476.9467,91.0938,467.4366,85.4853,469.1955,90.9962,476.9467" style="stroke:#000000;stroke-width:1.0;"/><text fill="#000000" font-family="sans-serif" font-size="13" lengthAdjust="spacing" textLength="32" x="98.5" y="477.4951">has a</text><text fill="#000000" font-family="sans-serif" font-size="13" lengthAdjust="spacing" textLength="7" x="64.438" y="453.8665">1</text><text fill="#000000" font-family="sans-serif" font-size="13" lengthAdjust="spacing" textLength="7" x="84.5222" y="500.0055">1</text><!--MD5=[c23963f6e403fc3ebec8dae22c30ade6]
link Test to Parameter--><path codeLine="25" d="M56.3,265.05 C56.73,289.06 57.27,318.7 57.7,342.75 " fill="none" id="Test-Parameter" style="stroke:#A80036;stroke-width:1.0;"/><polygon fill="#000000" points="62.5901,309.175,65.3656,300.0784,59.4887,300.1843,62.5901,309.175" style="stroke:#000000;stroke-width:1.0;"/><text fill="#000000" font-family="sans-serif" font-size="13" lengthAdjust="spacing" textLength="21" x="71.5" y="309.4951">has</text><text fill="#000000" font-family="sans-serif" font-size="13" lengthAdjust="spacing" textLength="7" x="48.9203" y="286.0646">1</text><text fill="#000000" font-family="sans-serif" font-size="13" lengthAdjust="spacing" textLength="5" x="52.1947" y="332.1558">*</text><!--MD5=[921a940d1f21805a20a9bd8096adcacd]
link TypeTest to Test--><path codeLine="26" d="M92.97,97.05 C85.59,121.06 76.48,150.7 69.1,174.75 " fill="none" id="TypeTest-Test" style="stroke:#A80036;stroke-width:1.0;"/><polygon fill="#000000" points="89.9683,131.3962,84.5028,139.1795,90.1215,140.9056,89.9683,131.3962" style="stroke:#000000;stroke-width:1.0;"/><text fill="#000000" font-family="sans-serif" font-size="13" lengthAdjust="spacing" textLength="25" x="97.5" y="141.4951">as a</text><text fill="#000000" font-family="sans-serif" font-size="13" lengthAdjust="spacing" textLength="7" x="83.5752" y="118.0646">1</text><text fill="#000000" font-family="sans-serif" font-size="13" lengthAdjust="spacing" textLength="5" x="65.7997" y="164.1558">*</text><!--MD5=[fc4f40f3276b989768e26d9d7b339728]
link TypeTest to ParameterCategory--><path codeLine="27" d="M123.88,97.03 C127.01,106.75 129.81,117.11 131.5,127 C156.6,274.22 134.61,313.66 135.5,463 C135.55,471 137.02,473.15 135.5,481 C133.57,490.97 130.15,501.34 126.39,510.86 " fill="none" id="TypeTest-ParameterCategory" style="stroke:#A80036;stroke-width:1.0;"/><polygon fill="#000000" points="146.5303,309.1757,149.4143,300.1129,143.5366,300.1486,146.5303,309.1757" style="stroke:#000000;stroke-width:1.0;"/><text fill="#000000" font-family="sans-serif" font-size="13" lengthAdjust="spacing" textLength="21" x="155.5" y="309.4951">has</text><text fill="#000000" font-family="sans-serif" font-size="13" lengthAdjust="spacing" textLength="7" x="118.8319" y="118.0418">1</text><text fill="#000000" font-family="sans-serif" font-size="13" lengthAdjust="spacing" textLength="5" x="124.1313" y="500.197">*</text><!--MD5=[85ef95222fab48a49065d52204925ac8]
@startuml

class Test{
Client;
Test ID;
Test NHS Number
}
class TypeTest{
Test ID;
Collecting Method;
Parameter Categories;
}

class Parameter{
name;
code;
description;
}
class ParameterCategory{
name;
code;
}


Parameter "1" - - "1" ParameterCategory : has a >
Test "1" - - "*" Parameter : has >
TypeTest "1" - - "*" Test : as a <
TypeTest "1" - - "*" ParameterCategory : has >

@enduml

PlantUML version 1.2021.5(Sun Apr 25 12:20:28 BST 2021)
(GPL source distribution)
Java Runtime: OpenJDK Runtime Environment
JVM: Dynamic Code Evolution 64-Bit Server VM
Default Encoding: Cp1252
Language: pt
Country: PT
--></g></svg>