<?xml version="1.0" encoding="UTF-8" standalone="no"?><svg xmlns="http://www.w3.org/2000/svg" xmlns:xlink="http://www.w3.org/1999/xlink" contentScriptType="application/ecmascript" contentStyleType="text/css" height="857px" preserveAspectRatio="none" style="width:1537px;height:857px;" version="1.1" viewBox="0 0 1537 857" width="1537px" zoomAndPan="magnify"><defs><filter height="300%" id="f1wd1iqj4e4nzs" width="300%" x="-1" y="-1"><feGaussianBlur result="blurOut" stdDeviation="2.0"/><feColorMatrix in="blurOut" result="blurOut2" type="matrix" values="0 0 0 0 0 0 0 0 0 0 0 0 0 0 0 0 0 0 .4 0"/><feOffset dx="4.0" dy="4.0" in="blurOut2" result="blurOut3"/><feBlend in="SourceGraphic" in2="blurOut3" mode="normal"/></filter></defs><g><!--MD5=[99b31deea5d7419a569cd5090bf83263]
cluster System--><rect fill="#FFFFFF" filter="url(#f1wd1iqj4e4nzs)" height="838" style="stroke:#000000;stroke-width:1.5;" width="1180" x="133" y="7"/><text fill="#000000" font-family="sans-serif" font-size="14" font-weight="bold" lengthAdjust="spacing" textLength="50" x="698" y="23.5332">System</text><ellipse cx="413.0948" cy="100.219" fill="#FEFECE" filter="url(#f1wd1iqj4e4nzs)" rx="114.0948" ry="25.219" style="stroke:#A80036;stroke-width:1.5;"/><text fill="#000000" font-family="sans-serif" font-size="14" lengthAdjust="spacing" textLength="192" x="317.0948" y="103.9475">Consults the results of the test</text><ellipse cx="413.1681" cy="271.2336" fill="#FEFECE" filter="url(#f1wd1iqj4e4nzs)" rx="99.1681" ry="22.2336" style="stroke:#A80036;stroke-width:1.5;"/><text fill="#000000" font-family="sans-serif" font-size="14" lengthAdjust="spacing" textLength="159" x="333.6681" y="274.9621">Register a new employee</text><ellipse cx="413.2361" cy="383.2472" fill="#FEFECE" filter="url(#f1wd1iqj4e4nzs)" rx="264.2361" ry="55.2472" style="stroke:#A80036;stroke-width:1.5;"/><text fill="#000000" font-family="sans-serif" font-size="14" lengthAdjust="spacing" textLength="503" x="161.7361" y="386.9757">Register a new clinical analysis lab and choose the which kind of test it operates</text><ellipse cx="413.1077" cy="511.1215" fill="#FEFECE" filter="url(#f1wd1iqj4e4nzs)" rx="178.6077" ry="38.1215" style="stroke:#A80036;stroke-width:1.5;"/><text fill="#000000" font-family="sans-serif" font-size="14" lengthAdjust="spacing" textLength="328" x="249.1077" y="514.8501">Specify a new type of test and its collecting methods</text><ellipse cx="412.8995" cy="615.7799" fill="#FEFECE" filter="url(#f1wd1iqj4e4nzs)" rx="146.8995" ry="31.7799" style="stroke:#A80036;stroke-width:1.5;"/><text fill="#000000" font-family="sans-serif" font-size="14" lengthAdjust="spacing" textLength="262" x="281.8995" y="619.5084">specify a new parameter and categorize it</text><ellipse cx="413.2387" cy="710.8477" fill="#FEFECE" filter="url(#f1wd1iqj4e4nzs)" rx="124.7387" ry="27.3477" style="stroke:#A80036;stroke-width:1.5;"/><text fill="#000000" font-family="sans-serif" font-size="14" lengthAdjust="spacing" textLength="215" x="305.7387" y="714.5763">Specify a new parameter category</text><ellipse cx="1005.101" cy="100.0202" fill="#FEFECE" filter="url(#f1wd1iqj4e4nzs)" rx="153.101" ry="33.0202" style="stroke:#A80036;stroke-width:1.5;"/><text fill="#000000" font-family="sans-serif" font-size="14" lengthAdjust="spacing" textLength="275" x="867.601" y="103.7487">Diagnosis and write a report for a given test</text><ellipse cx="1005.205" cy="195.941" fill="#FEFECE" filter="url(#f1wd1iqj4e4nzs)" rx="125.205" ry="27.441" style="stroke:#A80036;stroke-width:1.5;"/><text fill="#000000" font-family="sans-serif" font-size="14" lengthAdjust="spacing" textLength="216" x="897.205" y="199.6695">Records the results of a given test</text><ellipse cx="1005.1798" cy="315.036" fill="#FEFECE" filter="url(#f1wd1iqj4e4nzs)" rx="268.1798" ry="56.036" style="stroke:#A80036;stroke-width:1.5;"/><text fill="#000000" font-family="sans-serif" font-size="14" lengthAdjust="spacing" textLength="511" x="749.6798" y="318.7645">Validate the work done by the clinical chemistry technologist and specialist doctor</text><ellipse cx="1005.0122" cy="452.9024" fill="#FEFECE" filter="url(#f1wd1iqj4e4nzs)" rx="220.0122" ry="46.4024" style="stroke:#A80036;stroke-width:1.5;"/><text fill="#000000" font-family="sans-serif" font-size="14" lengthAdjust="spacing" textLength="413" x="798.5122" y="456.631">Generate daily reports with the information demanded by the NHS</text><ellipse cx="1005.0206" cy="577.1041" fill="#FEFECE" filter="url(#f1wd1iqj4e4nzs)" rx="198.5206" ry="42.1041" style="stroke:#A80036;stroke-width:1.5;"/><text fill="#000000" font-family="sans-serif" font-size="14" lengthAdjust="spacing" textLength="369" x="820.5206" y="580.8326">Records the Samples collected in the scope of a given test</text><ellipse cx="1005.0083" cy="682.0017" fill="#FEFECE" filter="url(#f1wd1iqj4e4nzs)" rx="128.0083" ry="28.0017" style="stroke:#A80036;stroke-width:1.5;"/><text fill="#000000" font-family="sans-serif" font-size="14" lengthAdjust="spacing" textLength="222" x="894.0083" y="685.7302">Registers the test in the application</text><ellipse cx="1005.0542" cy="774.9108" fill="#FEFECE" filter="url(#f1wd1iqj4e4nzs)" rx="135.0542" ry="29.4108" style="stroke:#A80036;stroke-width:1.5;"/><text fill="#000000" font-family="sans-serif" font-size="14" lengthAdjust="spacing" textLength="237" x="886.5542" y="778.6394">Registers the client on the application</text><!--MD5=[5a08b426cd7293e6c2d26ecc511c3fef]
entity ##740--><!--MD5=[979c31051cf8d07bdf927ed864b836ec]
entity cl--><ellipse cx="47.5" cy="68" fill="#FEFECE" filter="url(#f1wd1iqj4e4nzs)" rx="8" ry="8" style="stroke:#A80036;stroke-width:1.5;"/><path d="M47.5,76 L47.5,103 M34.5,84 L60.5,84 M47.5,103 L34.5,118 M47.5,103 L60.5,118 " fill="none" filter="url(#f1wd1iqj4e4nzs)" style="stroke:#A80036;stroke-width:1.5;"/><text fill="#000000" font-family="sans-serif" font-size="14" lengthAdjust="spacing" textLength="36" x="29.5" y="138.0332">Client</text><!--MD5=[c379f63bf4dce4781374740e142de8a3]
entity recep--><ellipse cx="1431.5" cy="703" fill="#FEFECE" filter="url(#f1wd1iqj4e4nzs)" rx="8" ry="8" style="stroke:#A80036;stroke-width:1.5;"/><path d="M1431.5,711 L1431.5,738 M1418.5,719 L1444.5,719 M1431.5,738 L1418.5,753 M1431.5,738 L1444.5,753 " fill="none" filter="url(#f1wd1iqj4e4nzs)" style="stroke:#A80036;stroke-width:1.5;"/><text fill="#000000" font-family="sans-serif" font-size="14" lengthAdjust="spacing" textLength="78" x="1392.5" y="773.0332">Receptionist</text><!--MD5=[e7d38603a700bedb049d1f5e1789c8aa]
entity MLT--><ellipse cx="1431.5" cy="545" fill="#FEFECE" filter="url(#f1wd1iqj4e4nzs)" rx="8" ry="8" style="stroke:#A80036;stroke-width:1.5;"/><path d="M1431.5,553 L1431.5,580 M1418.5,561 L1444.5,561 M1431.5,580 L1418.5,595 M1431.5,580 L1444.5,595 " fill="none" filter="url(#f1wd1iqj4e4nzs)" style="stroke:#A80036;stroke-width:1.5;"/><text fill="#000000" font-family="sans-serif" font-size="14" lengthAdjust="spacing" textLength="149" x="1357" y="615.0332">Medical Lab Technician</text><!--MD5=[79a439086b036a57b90a01d7b2f8bbd1]
entity admin--><ellipse cx="47.5" cy="479" fill="#FEFECE" filter="url(#f1wd1iqj4e4nzs)" rx="8" ry="8" style="stroke:#A80036;stroke-width:1.5;"/><path d="M47.5,487 L47.5,514 M34.5,495 L60.5,495 M47.5,514 L34.5,529 M47.5,514 L60.5,529 " fill="none" filter="url(#f1wd1iqj4e4nzs)" style="stroke:#A80036;stroke-width:1.5;"/><text fill="#000000" font-family="sans-serif" font-size="14" lengthAdjust="spacing" textLength="83" x="6" y="549.0332">Administrator</text><!--MD5=[f0e91d5aa74c2411969e7ef072c6f268]
entity SD--><ellipse cx="1431.5" cy="47" fill="#FEFECE" filter="url(#f1wd1iqj4e4nzs)" rx="8" ry="8" style="stroke:#A80036;stroke-width:1.5;"/><path d="M1431.5,55 L1431.5,82 M1418.5,63 L1444.5,63 M1431.5,82 L1418.5,97 M1431.5,82 L1444.5,97 " fill="none" filter="url(#f1wd1iqj4e4nzs)" style="stroke:#A80036;stroke-width:1.5;"/><text fill="#000000" font-family="sans-serif" font-size="14" lengthAdjust="spacing" textLength="106" x="1378.5" y="117.0332">Specialist Doctor</text><!--MD5=[234b11d210a3d78b3bcac40f493e1b07]
entity CCT--><ellipse cx="1431.5" cy="165" fill="#FEFECE" filter="url(#f1wd1iqj4e4nzs)" rx="8" ry="8" style="stroke:#A80036;stroke-width:1.5;"/><path d="M1431.5,173 L1431.5,200 M1418.5,181 L1444.5,181 M1431.5,200 L1418.5,215 M1431.5,200 L1444.5,215 " fill="none" filter="url(#f1wd1iqj4e4nzs)" style="stroke:#A80036;stroke-width:1.5;"/><text fill="#000000" font-family="sans-serif" font-size="14" lengthAdjust="spacing" textLength="197" x="1333" y="235.0332">Clinical Chemistry Technologist</text><!--MD5=[b0100dfa164aec77c855c16afe11d7ec]
entity LC--><ellipse cx="1431.5" cy="283" fill="#FEFECE" filter="url(#f1wd1iqj4e4nzs)" rx="8" ry="8" style="stroke:#A80036;stroke-width:1.5;"/><path d="M1431.5,291 L1431.5,318 M1418.5,299 L1444.5,299 M1431.5,318 L1418.5,333 M1431.5,318 L1444.5,333 " fill="none" filter="url(#f1wd1iqj4e4nzs)" style="stroke:#A80036;stroke-width:1.5;"/><text fill="#000000" font-family="sans-serif" font-size="14" lengthAdjust="spacing" textLength="148" x="1357.5" y="353.0332">Laboratory Coordinator</text><!--MD5=[f642f82f59d8b4cbc8a6199c6cab9f3a]
entity com--><ellipse cx="1431.5" cy="421" fill="#FEFECE" filter="url(#f1wd1iqj4e4nzs)" rx="8" ry="8" style="stroke:#A80036;stroke-width:1.5;"/><path d="M1431.5,429 L1431.5,456 M1418.5,437 L1444.5,437 M1431.5,456 L1418.5,471 M1431.5,456 L1444.5,471 " fill="none" filter="url(#f1wd1iqj4e4nzs)" style="stroke:#A80036;stroke-width:1.5;"/><text fill="#000000" font-family="sans-serif" font-size="14" lengthAdjust="spacing" textLength="31" x="1416" y="491.0332">Time</text><!--MD5=[275f38ec395950a5eeab6822318aa912]
link UC1 to UC14--><!--MD5=[799c6446af12298baee1baec2051ea64]
link cl to UC1--><path d="M65.54,100 C106.67,100 214.19,100 298.64,100 " fill="none" id="cl-UC1" style="stroke:#A80036;stroke-width:1.0;"/><!--MD5=[344886c417e37e43416c4c9c8d9962d3]
link admin to UC7--><path d="M64.35,469.35 C86.76,410.48 125,310 125,310 C125,310 243.5,293.9 328.22,282.39 " fill="none" id="admin-UC7" style="stroke:#A80036;stroke-width:1.0;"/><!--MD5=[e6d45900de7ae7de5659f3cd2b4514ee]
link admin to UC8--><path d="M89.44,481.03 C107.63,467.72 125,455 125,455 C125,455 180.92,440.97 243.39,425.3 " fill="none" id="admin-UC8" style="stroke:#A80036;stroke-width:1.0;"/><!--MD5=[3bd9573024a75a9e260fddb01e5294e2]
link admin to UC9--><path d="M89.14,511 C124.99,511 179.85,511 234.24,511 " fill="none" id="admin-UC9" style="stroke:#A80036;stroke-width:1.0;"/><!--MD5=[dfd2db1a8ab03a1b37a29f31d929c176]
link admin to UC10--><path d="M89.44,540.43 C107.63,553.51 125,566 125,566 C125,566 217.71,582.15 297.75,596.1 " fill="none" id="admin-UC10" style="stroke:#A80036;stroke-width:1.0;"/><!--MD5=[82f64621edba5c3b20c09d5802f5d0cb]
link admin to UC11--><path d="M77.07,552.62 C83.77,562.38 89,570 89,570 C89,570 125,665 125,665 C125,665 228.86,681.65 311.62,694.91 " fill="none" id="admin-UC11" style="stroke:#A80036;stroke-width:1.0;"/><!--MD5=[e91fd7208e483ee6b0a33481d28d12b2]
link UC12 to CCT--><path d="M1130.21,196.29 C1194.81,196.44 1272.63,196.63 1332.86,196.77 " fill="none" id="UC12-CCT" style="stroke:#A80036;stroke-width:1.0;"/><!--MD5=[f02433e35991574c744abdc59561e8ba]
link UC15 to LC--><path d="M1273.04,315 C1303.76,315 1332.84,315 1357.45,315 " fill="none" id="UC15-LC" style="stroke:#A80036;stroke-width:1.0;"/><!--MD5=[011fb99a04e7bbfce9519948bb47d8b1]
link UC13 to com--><path d="M1225.09,453 C1304.96,453 1383.55,453 1415.53,453 " fill="none" id="UC13-com" style="stroke:#A80036;stroke-width:1.0;"/><!--MD5=[a6e778c645148720a1d9d8382fdcb9f6]
link UC14 to SD--><path d="M1154.47,92.66 C1232.29,88.81 1322.73,84.33 1378.29,81.58 " fill="none" id="UC14-SD" style="stroke:#A80036;stroke-width:1.0;"/><!--MD5=[89bbabfa0cc7153d94f096bb5a0602a6]
link UC5 to MLT--><path d="M1203.65,577 C1258.27,577 1314.19,577 1356.84,577 " fill="none" id="UC5-MLT" style="stroke:#A80036;stroke-width:1.0;"/><!--MD5=[cdebba8f31a7aa658fda516a16aad0e1]
link UC4 to recep--><path d="M1116.42,695.79 C1207.32,707.14 1330.86,722.56 1392.4,730.24 " fill="none" id="UC4-recep" style="stroke:#A80036;stroke-width:1.0;"/><!--MD5=[cd1cd0bcd694a2d30c1b7cc59552a3d0]
link UC3 to recep--><path d="M1129.35,763.38 C1218.7,754.96 1333.71,744.12 1392.38,738.59 " fill="none" id="UC3-recep" style="stroke:#A80036;stroke-width:1.0;"/><!--MD5=[97aaf107ce5eca9bf18e54d963e9f627]
@startuml
skinparam linetype polyline
left to right direction
actor "Client" as cl
actor "Receptionist" as recep
actor "Medical Lab Technician" as MLT
actor "Administrator" as admin
actor "Specialist Doctor" as SD
actor "Clinical Chemistry Technologist" as CCT
actor "Laboratory Coordinator" as LC
actor "Time" as com
rectangle "System" {
  usecase "Consults the results of the test" as UC1
  usecase "Register a new employee" as UC7
  usecase "Register a new clinical analysis lab and choose the which kind of test it operates" as UC8
  usecase "Specify a new type of test and its collecting methods" as UC9
  usecase "specify a new parameter and categorize it" as UC10
  usecase "Specify a new parameter category" as UC11
  together {
  usecase "Diagnosis and write a report for a given test" as UC14
  usecase "Records the results of a given test" as UC12
  usecase "Validate the work done by the clinical chemistry technologist and specialist doctor" as UC15
  usecase "Generate daily reports with the information demanded by the NHS" as UC13
  usecase "Records the Samples collected in the scope of a given test" as UC5
  usecase "Registers the test in the application" as UC4
  usecase "Registers the client on the application" as UC3
}

}

(UC1) -[hidden]- (UC14)

cl - - UC1
admin - - UC7
admin - - UC8
admin - - UC9
admin - - UC10
admin - - UC11
together {
UC12 - - CCT
UC15 - - LC
UC13 - - com
UC14 - - SD
UC5 - - MLT
UC4 - - recep
UC3 - - recep

}

@enduml

PlantUML version 1.2021.5(Sun Apr 25 12:20:28 BST 2021)
(GPL source distribution)
Java Runtime: OpenJDK Runtime Environment
JVM: Dynamic Code Evolution 64-Bit Server VM
Default Encoding: Cp1252
Language: pt
Country: PT
--></g></svg>