<?xml version="1.0" encoding="UTF-8" standalone="no"?><svg xmlns="http://www.w3.org/2000/svg" xmlns:xlink="http://www.w3.org/1999/xlink" contentScriptType="application/ecmascript" contentStyleType="text/css" height="396.18px" preserveAspectRatio="none" style="width:670px;height:396px;" version="1.1" viewBox="0 0 670 396" width="670.84px" zoomAndPan="magnify"><defs><filter height="300%" id="fp8zvq77vf6q2" width="300%" x="-1" y="-1"><feGaussianBlur result="blurOut" stdDeviation="1.24"/><feColorMatrix in="blurOut" result="blurOut2" type="matrix" values="0 0 0 0 0 0 0 0 0 0 0 0 0 0 0 0 0 0 .4 0"/><feOffset dx="2.48" dy="2.48" in="blurOut2" result="blurOut3"/><feBlend in="SourceGraphic" in2="blurOut3" mode="normal"/></filter></defs><g><!--MD5=[71152100d89f377ebd8dc97f1c2b0d02]
class RegisterClientUI--><rect codeLine="2" fill="#FEFECE" filter="url(#fp8zvq77vf6q2)" height="29.76" id="RegisterClientUI" style="stroke:#A80036;stroke-width:0.9299999999999999;" width="76.26" x="315.58" y="4.34"/><ellipse cx="324.88" cy="14.26" fill="#ADD1B2" rx="6.82" ry="6.82" style="stroke:#A80036;stroke-width:0.62;"/><path d="M326.12,12.09 Q326.2459,11.78 326.3913,11.625 Q326.5366,11.47 326.7013,11.47 Q326.9919,11.47 327.1759,11.6444 Q327.36,11.8188 327.36,12.2256 L327.36,13.1944 Q327.36,13.6013 327.1856,13.7756 Q327.0113,13.95 326.74,13.95 Q326.4978,13.95 326.3428,13.8434 Q326.1878,13.7369 326.12,13.4559 Q326.0909,13.2622 325.9844,13.1556 Q325.7906,12.9522 325.4419,12.8359 Q325.0931,12.71 324.7444,12.71 Q324.3084,12.71 323.9403,12.8844 Q323.5819,13.0588 323.3009,13.4463 Q323.02,13.8338 323.02,14.3666 L323.02,14.9381 Q323.02,15.5775 323.5431,16.0038 Q324.0663,16.43 324.9963,16.43 Q325.5484,16.43 325.9359,16.3041 Q326.1588,16.2363 326.4106,16.0134 Q326.5753,15.8875 326.6625,15.8487 Q326.7497,15.81 326.8563,15.81 Q327.0597,15.81 327.205,15.9747 Q327.36,16.1297 327.36,16.3525 Q327.36,16.5656 327.1469,16.8175 Q326.8369,17.1856 326.3428,17.3891 Q325.6938,17.67 324.8994,17.67 Q323.9694,17.67 323.2234,17.3019 Q322.6228,17.0113 322.1966,16.3816 Q321.78,15.7519 321.78,15.0059 L321.78,14.3278 Q321.78,13.5528 322.1481,12.8747 Q322.5259,12.1966 323.175,11.8381 Q323.8338,11.47 324.57,11.47 Q325.0156,11.47 325.4031,11.625 Q325.7906,11.78 326.12,12.09 Z " fill="#000000"/><text fill="#000000" font-family="sans-serif" font-size="7.44" lengthAdjust="spacing" textLength="56.42" x="333.56" y="17.3043">RegisterClientUI</text><line style="stroke:#A80036;stroke-width:0.9299999999999999;" x1="316.2" x2="391.22" y1="24.18" y2="24.18"/><line style="stroke:#A80036;stroke-width:0.9299999999999999;" x1="316.2" x2="391.22" y1="29.14" y2="29.14"/><!--MD5=[1a7fda4a36185bcd740bdf14b2b3a45e]
class RegisterClientController--><rect codeLine="5" fill="#FEFECE" filter="url(#fp8zvq77vf6q2)" height="55.4948" id="RegisterClientController" style="stroke:#A80036;stroke-width:0.9299999999999999;" width="350.3" x="178.56" y="71.3"/><ellipse cx="309.845" cy="81.22" fill="#ADD1B2" rx="6.82" ry="6.82" style="stroke:#A80036;stroke-width:0.62;"/><path d="M311.085,79.05 Q311.2109,78.74 311.3563,78.585 Q311.5016,78.43 311.6663,78.43 Q311.9569,78.43 312.1409,78.6044 Q312.325,78.7788 312.325,79.1856 L312.325,80.1544 Q312.325,80.5613 312.1506,80.7356 Q311.9763,80.91 311.705,80.91 Q311.4628,80.91 311.3078,80.8034 Q311.1528,80.6969 311.085,80.4159 Q311.0559,80.2222 310.9494,80.1156 Q310.7556,79.9122 310.4069,79.7959 Q310.0581,79.67 309.7094,79.67 Q309.2734,79.67 308.9053,79.8444 Q308.5469,80.0188 308.2659,80.4063 Q307.985,80.7938 307.985,81.3266 L307.985,81.8981 Q307.985,82.5375 308.5081,82.9638 Q309.0313,83.39 309.9613,83.39 Q310.5134,83.39 310.9009,83.2641 Q311.1238,83.1963 311.3756,82.9734 Q311.5403,82.8475 311.6275,82.8088 Q311.7147,82.77 311.8213,82.77 Q312.0247,82.77 312.17,82.9347 Q312.325,83.0897 312.325,83.3125 Q312.325,83.5256 312.1119,83.7775 Q311.8019,84.1456 311.3078,84.3491 Q310.6588,84.63 309.8644,84.63 Q308.9344,84.63 308.1884,84.2619 Q307.5878,83.9713 307.1616,83.3416 Q306.745,82.7119 306.745,81.9659 L306.745,81.2878 Q306.745,80.5128 307.1131,79.8347 Q307.4909,79.1566 308.14,78.7981 Q308.7988,78.43 309.535,78.43 Q309.9806,78.43 310.3681,78.585 Q310.7556,78.74 311.085,79.05 Z " fill="#000000"/><text fill="#000000" font-family="sans-serif" font-size="7.44" lengthAdjust="spacing" textLength="82.46" x="322.555" y="84.2643">RegisterClientController</text><line style="stroke:#A80036;stroke-width:0.9299999999999999;" x1="179.18" x2="528.24" y1="91.14" y2="91.14"/><line style="stroke:#A80036;stroke-width:0.9299999999999999;" x1="179.18" x2="528.24" y1="96.1" y2="96.1"/><ellipse cx="185.38" cy="102.92" fill="#84BE84" rx="1.86" ry="1.86" style="stroke:#038048;stroke-width:0.62;"/><text fill="#000000" font-family="sans-serif" font-size="6.82" lengthAdjust="spacing" textLength="30.38" x="190.96" y="105.6597">getStore()</text><ellipse cx="185.38" cy="111.4983" fill="#84BE84" rx="1.86" ry="1.86" style="stroke:#038048;stroke-width:0.62;"/><text fill="#000000" font-family="sans-serif" font-size="6.82" lengthAdjust="spacing" textLength="334.18" x="190.96" y="114.238">createClient(int cc, int nhs, string birthDate, string sex, int tinNumber, int phoneNumber, string email, string name)</text><ellipse cx="185.38" cy="120.0766" fill="#84BE84" rx="1.86" ry="1.86" style="stroke:#038048;stroke-width:0.62;"/><text fill="#000000" font-family="sans-serif" font-size="6.82" lengthAdjust="spacing" textLength="35.96" x="190.96" y="122.8163">saveClient()</text><!--MD5=[8ae808d068a8995f06b9b3ec51357f0b]
class AuthFacade--><rect codeLine="11" fill="#FEFECE" filter="url(#fp8zvq77vf6q2)" height="38.3383" id="AuthFacade" style="stroke:#A80036;stroke-width:0.9299999999999999;" width="161.82" x="4.34" y="345.34"/><ellipse cx="62.465" cy="355.26" fill="#ADD1B2" rx="6.82" ry="6.82" style="stroke:#A80036;stroke-width:0.62;"/><path d="M63.705,353.09 Q63.8309,352.78 63.9763,352.625 Q64.1216,352.47 64.2863,352.47 Q64.5769,352.47 64.7609,352.6444 Q64.945,352.8188 64.945,353.2256 L64.945,354.1944 Q64.945,354.6013 64.7706,354.7756 Q64.5963,354.95 64.325,354.95 Q64.0828,354.95 63.9278,354.8434 Q63.7728,354.7369 63.705,354.4559 Q63.6759,354.2622 63.5694,354.1556 Q63.3756,353.9522 63.0269,353.8359 Q62.6781,353.71 62.3294,353.71 Q61.8934,353.71 61.5253,353.8844 Q61.1669,354.0588 60.8859,354.4463 Q60.605,354.8338 60.605,355.3666 L60.605,355.9381 Q60.605,356.5775 61.1281,357.0038 Q61.6513,357.43 62.5813,357.43 Q63.1334,357.43 63.5209,357.3041 Q63.7438,357.2363 63.9956,357.0134 Q64.1603,356.8875 64.2475,356.8488 Q64.3347,356.81 64.4413,356.81 Q64.6447,356.81 64.79,356.9747 Q64.945,357.1297 64.945,357.3525 Q64.945,357.5656 64.7319,357.8175 Q64.4219,358.1856 63.9278,358.3891 Q63.2788,358.67 62.4844,358.67 Q61.5544,358.67 60.8084,358.3019 Q60.2078,358.0113 59.7816,357.3816 Q59.365,356.7519 59.365,356.0059 L59.365,355.3278 Q59.365,354.5528 59.7331,353.8747 Q60.1109,353.1966 60.76,352.8381 Q61.4188,352.47 62.155,352.47 Q62.6006,352.47 62.9881,352.625 Q63.3756,352.78 63.705,353.09 Z " fill="#000000"/><text fill="#000000" font-family="sans-serif" font-size="7.44" lengthAdjust="spacing" textLength="40.3" x="75.175" y="358.3043">AuthFacade</text><line style="stroke:#A80036;stroke-width:0.9299999999999999;" x1="4.96" x2="165.54" y1="365.18" y2="365.18"/><line style="stroke:#A80036;stroke-width:0.9299999999999999;" x1="4.96" x2="165.54" y1="370.14" y2="370.14"/><ellipse cx="11.16" cy="376.96" fill="#84BE84" rx="1.86" ry="1.86" style="stroke:#038048;stroke-width:0.62;"/><text fill="#000000" font-family="sans-serif" font-size="6.82" lengthAdjust="spacing" textLength="145.7" x="16.74" y="379.6997">addUserWithRole(name, email, password, roleId)</text><!--MD5=[02e4b9b7573f1156f41e60aa5b4e25a4]
class Company--><rect codeLine="16" fill="#FEFECE" filter="url(#fp8zvq77vf6q2)" height="38.3383" id="Company" style="stroke:#A80036;stroke-width:0.9299999999999999;" width="52.7" x="297.6" y="164.3"/><ellipse cx="306.9" cy="174.22" fill="#ADD1B2" rx="6.82" ry="6.82" style="stroke:#A80036;stroke-width:0.62;"/><path d="M308.14,172.05 Q308.2659,171.74 308.4113,171.585 Q308.5566,171.43 308.7213,171.43 Q309.0119,171.43 309.1959,171.6044 Q309.38,171.7788 309.38,172.1856 L309.38,173.1544 Q309.38,173.5613 309.2056,173.7356 Q309.0313,173.91 308.76,173.91 Q308.5178,173.91 308.3628,173.8034 Q308.2078,173.6969 308.14,173.4159 Q308.1109,173.2222 308.0044,173.1156 Q307.8106,172.9122 307.4619,172.7959 Q307.1131,172.67 306.7644,172.67 Q306.3284,172.67 305.9603,172.8444 Q305.6019,173.0188 305.3209,173.4063 Q305.04,173.7938 305.04,174.3266 L305.04,174.8981 Q305.04,175.5375 305.5631,175.9638 Q306.0863,176.39 307.0163,176.39 Q307.5684,176.39 307.9559,176.2641 Q308.1788,176.1963 308.4306,175.9734 Q308.5953,175.8475 308.6825,175.8088 Q308.7697,175.77 308.8762,175.77 Q309.0797,175.77 309.225,175.9347 Q309.38,176.0897 309.38,176.3125 Q309.38,176.5256 309.1669,176.7775 Q308.8569,177.1456 308.3628,177.3491 Q307.7138,177.63 306.9194,177.63 Q305.9894,177.63 305.2434,177.2619 Q304.6428,176.9713 304.2166,176.3416 Q303.8,175.7119 303.8,174.9659 L303.8,174.2878 Q303.8,173.5128 304.1681,172.8347 Q304.5459,172.1566 305.195,171.7981 Q305.8538,171.43 306.59,171.43 Q307.0356,171.43 307.4231,171.585 Q307.8106,171.74 308.14,172.05 Z " fill="#000000"/><text fill="#000000" font-family="sans-serif" font-size="7.44" lengthAdjust="spacing" textLength="32.86" x="315.58" y="177.2643">Company</text><line style="stroke:#A80036;stroke-width:0.9299999999999999;" x1="298.22" x2="349.68" y1="184.14" y2="184.14"/><line style="stroke:#A80036;stroke-width:0.9299999999999999;" x1="298.22" x2="349.68" y1="189.1" y2="189.1"/><ellipse cx="304.42" cy="195.92" fill="#84BE84" rx="1.86" ry="1.86" style="stroke:#038048;stroke-width:0.62;"/><text fill="#000000" font-family="sans-serif" font-size="6.82" lengthAdjust="spacing" textLength="30.38" x="310" y="198.6597">getStore()</text><!--MD5=[ed6624c6556d5e7b1bd23032162d20b7]
class Client--><rect codeLine="20" fill="#FEFECE" filter="url(#fp8zvq77vf6q2)" height="46.9166" id="Client" style="stroke:#A80036;stroke-width:0.9299999999999999;" width="331.08" x="188.17" y="341"/><ellipse cx="341.155" cy="350.92" fill="#ADD1B2" rx="6.82" ry="6.82" style="stroke:#A80036;stroke-width:0.62;"/><path d="M342.395,348.75 Q342.5209,348.44 342.6663,348.285 Q342.8116,348.13 342.9763,348.13 Q343.2669,348.13 343.4509,348.3044 Q343.635,348.4788 343.635,348.8856 L343.635,349.8544 Q343.635,350.2613 343.4606,350.4356 Q343.2863,350.61 343.015,350.61 Q342.7728,350.61 342.6178,350.5034 Q342.4628,350.3969 342.395,350.1159 Q342.3659,349.9222 342.2594,349.8156 Q342.0656,349.6122 341.7169,349.4959 Q341.3681,349.37 341.0194,349.37 Q340.5834,349.37 340.2153,349.5444 Q339.8569,349.7188 339.5759,350.1063 Q339.295,350.4938 339.295,351.0266 L339.295,351.5981 Q339.295,352.2375 339.8181,352.6638 Q340.3413,353.09 341.2713,353.09 Q341.8234,353.09 342.2109,352.9641 Q342.4338,352.8963 342.6856,352.6734 Q342.8503,352.5475 342.9375,352.5088 Q343.0247,352.47 343.1313,352.47 Q343.3347,352.47 343.48,352.6347 Q343.635,352.7897 343.635,353.0125 Q343.635,353.2256 343.4219,353.4775 Q343.1119,353.8456 342.6178,354.0491 Q341.9688,354.33 341.1744,354.33 Q340.2444,354.33 339.4984,353.9619 Q338.8978,353.6713 338.4716,353.0416 Q338.055,352.4119 338.055,351.6659 L338.055,350.9878 Q338.055,350.2128 338.4231,349.5347 Q338.8009,348.8566 339.45,348.4981 Q340.1088,348.13 340.845,348.13 Q341.2906,348.13 341.6781,348.285 Q342.0656,348.44 342.395,348.75 Z " fill="#000000"/><text fill="#000000" font-family="sans-serif" font-size="7.44" lengthAdjust="spacing" textLength="19.84" x="353.865" y="353.9643">Client</text><line style="stroke:#A80036;stroke-width:0.9299999999999999;" x1="188.79" x2="518.63" y1="360.84" y2="360.84"/><line style="stroke:#A80036;stroke-width:0.9299999999999999;" x1="188.79" x2="518.63" y1="365.8" y2="365.8"/><ellipse cx="194.99" cy="372.62" fill="#84BE84" rx="1.86" ry="1.86" style="stroke:#038048;stroke-width:0.62;"/><text fill="#000000" font-family="sans-serif" font-size="6.82" lengthAdjust="spacing" textLength="314.96" x="200.57" y="375.3597">Client(int cc, int nhs, string birthDate, string sex, int tinNumber, int phoneNumber, string email, string name)</text><ellipse cx="194.99" cy="381.1983" fill="#84BE84" rx="1.86" ry="1.86" style="stroke:#038048;stroke-width:0.62;"/><text fill="#000000" font-family="sans-serif" font-size="6.82" lengthAdjust="spacing" textLength="45.26" x="200.57" y="383.938">getPassword()</text><!--MD5=[55cb992be19579b505cea3c5691093cb]
class ClientStore--><rect codeLine="25" fill="#FEFECE" filter="url(#fp8zvq77vf6q2)" height="64.0731" id="ClientStore" style="stroke:#A80036;stroke-width:0.9299999999999999;" width="350.3" x="178.56" y="239.94"/><ellipse cx="332.165" cy="249.86" fill="#ADD1B2" rx="6.82" ry="6.82" style="stroke:#A80036;stroke-width:0.62;"/><path d="M333.405,247.69 Q333.5309,247.38 333.6763,247.225 Q333.8216,247.07 333.9863,247.07 Q334.2769,247.07 334.4609,247.2444 Q334.645,247.4188 334.645,247.8256 L334.645,248.7944 Q334.645,249.2013 334.4706,249.3756 Q334.2963,249.55 334.025,249.55 Q333.7828,249.55 333.6278,249.4434 Q333.4728,249.3369 333.405,249.0559 Q333.3759,248.8622 333.2694,248.7556 Q333.0756,248.5522 332.7269,248.4359 Q332.3781,248.31 332.0294,248.31 Q331.5934,248.31 331.2253,248.4844 Q330.8669,248.6588 330.5859,249.0463 Q330.305,249.4338 330.305,249.9666 L330.305,250.5381 Q330.305,251.1775 330.8281,251.6038 Q331.3513,252.03 332.2813,252.03 Q332.8334,252.03 333.2209,251.9041 Q333.4438,251.8363 333.6956,251.6134 Q333.8603,251.4875 333.9475,251.4488 Q334.0347,251.41 334.1413,251.41 Q334.3447,251.41 334.49,251.5747 Q334.645,251.7297 334.645,251.9525 Q334.645,252.1656 334.4319,252.4175 Q334.1219,252.7856 333.6278,252.9891 Q332.9788,253.27 332.1844,253.27 Q331.2544,253.27 330.5084,252.9019 Q329.9078,252.6112 329.4816,251.9816 Q329.065,251.3519 329.065,250.6059 L329.065,249.9278 Q329.065,249.1528 329.4331,248.4747 Q329.8109,247.7966 330.46,247.4381 Q331.1188,247.07 331.855,247.07 Q332.3006,247.07 332.6881,247.225 Q333.0756,247.38 333.405,247.69 Z " fill="#000000"/><text fill="#000000" font-family="sans-serif" font-size="7.44" lengthAdjust="spacing" textLength="37.82" x="344.875" y="252.9043">ClientStore</text><line style="stroke:#A80036;stroke-width:0.9299999999999999;" x1="179.18" x2="528.24" y1="259.78" y2="259.78"/><line style="stroke:#A80036;stroke-width:0.9299999999999999;" x1="179.18" x2="528.24" y1="264.74" y2="264.74"/><ellipse cx="185.38" cy="271.56" fill="#84BE84" rx="1.86" ry="1.86" style="stroke:#038048;stroke-width:0.62;"/><text fill="#000000" font-family="sans-serif" font-size="6.82" lengthAdjust="spacing" textLength="334.18" x="190.96" y="274.2997">createClient(int cc, int nhs, string birthDate, string sex, int tinNumber, int phoneNumber, string email, string name)</text><ellipse cx="185.38" cy="280.1383" fill="#84BE84" rx="1.86" ry="1.86" style="stroke:#038048;stroke-width:0.62;"/><text fill="#000000" font-family="sans-serif" font-size="6.82" lengthAdjust="spacing" textLength="35.96" x="190.96" y="282.878">saveClient()</text><ellipse cx="185.38" cy="288.7166" fill="#84BE84" rx="1.86" ry="1.86" style="stroke:#038048;stroke-width:0.62;"/><text fill="#000000" font-family="sans-serif" font-size="6.82" lengthAdjust="spacing" textLength="44.02" x="190.96" y="291.4563">validateClient()</text><ellipse cx="185.38" cy="297.2948" fill="#84BE84" rx="1.86" ry="1.86" style="stroke:#038048;stroke-width:0.62;"/><text fill="#000000" font-family="sans-serif" font-size="6.82" lengthAdjust="spacing" textLength="166.78" x="190.96" y="300.0346">addUserWithRole(string name, string email, string roleId)</text><!--MD5=[78bec0fde86ad92ec1dc3fb343b83709]
class Email--><rect codeLine="32" fill="#FEFECE" filter="url(#fp8zvq77vf6q2)" height="38.3383" id="Email" style="stroke:#A80036;stroke-width:0.9299999999999999;" width="120.9" x="541.26" y="345.34"/><ellipse cx="589.155" cy="355.26" fill="#ADD1B2" rx="6.82" ry="6.82" style="stroke:#A80036;stroke-width:0.62;"/><path d="M590.395,353.09 Q590.5209,352.78 590.6663,352.625 Q590.8116,352.47 590.9763,352.47 Q591.2669,352.47 591.4509,352.6444 Q591.635,352.8188 591.635,353.2256 L591.635,354.1944 Q591.635,354.6013 591.4606,354.7756 Q591.2863,354.95 591.015,354.95 Q590.7728,354.95 590.6178,354.8434 Q590.4628,354.7369 590.395,354.4559 Q590.3659,354.2622 590.2594,354.1556 Q590.0656,353.9522 589.7169,353.8359 Q589.3681,353.71 589.0194,353.71 Q588.5834,353.71 588.2153,353.8844 Q587.8569,354.0588 587.5759,354.4463 Q587.295,354.8338 587.295,355.3666 L587.295,355.9381 Q587.295,356.5775 587.8181,357.0038 Q588.3413,357.43 589.2713,357.43 Q589.8234,357.43 590.2109,357.3041 Q590.4338,357.2363 590.6856,357.0134 Q590.8503,356.8875 590.9375,356.8488 Q591.0247,356.81 591.1313,356.81 Q591.3347,356.81 591.48,356.9747 Q591.635,357.1297 591.635,357.3525 Q591.635,357.5656 591.4219,357.8175 Q591.1119,358.1856 590.6178,358.3891 Q589.9688,358.67 589.1744,358.67 Q588.2444,358.67 587.4984,358.3019 Q586.8978,358.0113 586.4716,357.3816 Q586.055,356.7519 586.055,356.0059 L586.055,355.3278 Q586.055,354.5528 586.4231,353.8747 Q586.8009,353.1966 587.45,352.8381 Q588.1088,352.47 588.845,352.47 Q589.2906,352.47 589.6781,352.625 Q590.0656,352.78 590.395,353.09 Z " fill="#000000"/><text fill="#000000" font-family="sans-serif" font-size="7.44" lengthAdjust="spacing" textLength="19.84" x="601.865" y="358.3043">Email</text><line style="stroke:#A80036;stroke-width:0.9299999999999999;" x1="541.88" x2="661.54" y1="365.18" y2="365.18"/><line style="stroke:#A80036;stroke-width:0.9299999999999999;" x1="541.88" x2="661.54" y1="370.14" y2="370.14"/><ellipse cx="548.08" cy="376.96" fill="#84BE84" rx="1.86" ry="1.86" style="stroke:#038048;stroke-width:0.62;"/><text fill="#000000" font-family="sans-serif" font-size="6.82" lengthAdjust="spacing" textLength="104.78" x="553.66" y="379.6997">sendConfirmation(email,password)</text><!--MD5=[98d2d934d445daef8d5bcbeea20c1f70]
link RegisterClientUI to RegisterClientController--><path codeLine="36" d="M353.71,34.2798 C353.71,43.6976 353.71,56.3456 353.71,67.9272 " fill="none" id="RegisterClientUI-to-RegisterClientController" style="stroke:#A80036;stroke-width:0.62;stroke-dasharray:7.0,7.0;"/><polygon fill="#A80036" points="353.71,71.1636,356.19,65.5836,353.71,68.0636,351.23,65.5836,353.71,71.1636" style="stroke:#A80036;stroke-width:0.62;"/><!--MD5=[198be3749d42ca56b2a20022cdc44bdd]
link RegisterClientController to Company--><path codeLine="37" d="M343.883,127.255 C339.9522,138.2166 335.4944,150.6724 331.7868,161.014 " fill="none" id="RegisterClientController-to-Company" style="stroke:#A80036;stroke-width:0.62;stroke-dasharray:7.0,7.0;"/><polygon fill="#A80036" points="330.6646,164.1512,334.8786,159.732,331.7084,161.2322,330.2082,158.062,330.6646,164.1512" style="stroke:#A80036;stroke-width:0.62;"/><!--MD5=[d17ba2de69bcbdc84560ba08c091bb6c]
link RegisterClientController to ClientStore--><path codeLine="38" d="M357.5726,127.2116 C359.0048,138.6506 360.4494,152.0922 361.15,164.3 C362.1296,181.3562 362.0738,185.6776 361.15,202.74 C360.5548,213.7822 359.414,225.7854 358.2112,236.6106 " fill="none" id="RegisterClientController-to-ClientStore" style="stroke:#A80036;stroke-width:0.62;stroke-dasharray:7.0,7.0;"/><polygon fill="#A80036" points="357.833,239.9276,360.919,234.6585,358.1783,236.8469,355.9899,234.1061,357.833,239.9276" style="stroke:#A80036;stroke-width:0.62;"/><!--MD5=[a11230341c8e65219708844feaa40162]
link Company to ClientStore--><path codeLine="39" d="M330.336,202.8268 C333.7336,212.784 338.024,225.3452 341.9982,236.9764 " fill="none" id="Company-to-ClientStore" style="stroke:#A80036;stroke-width:0.62;"/><polygon fill="#A80036" points="343.0026,239.9152,343.5468,233.8332,342.001,236.9814,338.8528,235.4357,343.0026,239.9152" style="stroke:#A80036;stroke-width:0.62;"/><!--MD5=[1d934105a045dbf126514c6917bd5072]
link ClientStore to Client--><path codeLine="41" d="M353.71,303.9612 C353.71,314.9166 353.71,327.0872 353.71,337.5838 " fill="none" id="ClientStore-to-Client" style="stroke:#A80036;stroke-width:0.62;"/><polygon fill="#A80036" points="353.71,340.7892,356.19,335.2092,353.71,337.6892,351.23,335.2092,353.71,340.7892" style="stroke:#A80036;stroke-width:0.62;"/><!--MD5=[f8bd89e10615b5e5f22d4bd50c99347c]
link ClientStore to AuthFacade--><path codeLine="42" d="M261.6958,303.831 C222.3568,317.2354 177.63,332.4688 143.0526,344.2488 " fill="none" id="ClientStore-to-AuthFacade" style="stroke:#A80036;stroke-width:0.62;stroke-dasharray:7.0,7.0;"/><polygon fill="#A80036" points="139.9526,345.309,146.0346,345.8532,142.8864,344.3074,144.4321,341.1592,139.9526,345.309" style="stroke:#A80036;stroke-width:0.62;"/><!--MD5=[adb1b98cb59d758fc4093ae567ae607a]
link ClientStore to Email--><path codeLine="43" d="M438.712,303.831 C474.9758,317.2106 516.1996,332.4068 548.1172,344.1806 " fill="none" id="ClientStore-to-Email" style="stroke:#A80036;stroke-width:0.62;stroke-dasharray:7.0,7.0;"/><polygon fill="#A80036" points="551.18,345.309,546.799,341.0553,548.2705,344.239,545.0869,345.7105,551.18,345.309" style="stroke:#A80036;stroke-width:0.62;"/><!--MD5=[58fcf26ce321f8466655648021c67a89]
@startuml

class RegisterClientUI{
}

class RegisterClientController{
    + getStore()
    + createClient(int cc, int nhs, string birthDate, string sex, int tinNumber, int phoneNumber, string email, string name)
    + saveClient()
}

class AuthFacade{
    +addUserWithRole(name, email, password, roleId)
}


class Company{
    + getStore()
}

class Client{
    + Client(int cc, int nhs, string birthDate, string sex, int tinNumber, int phoneNumber, string email, string name)
    + getPassword()
}

class ClientStore{
    + createClient(int cc, int nhs, string birthDate, string sex, int tinNumber, int phoneNumber, string email, string name)
    + saveClient()
    + validateClient()
    + addUserWithRole(string name, string email, string roleId)
}

class Email{
+sendConfirmation(email,password)
}

RegisterClientUI ..> RegisterClientController
RegisterClientController ..> Company
RegisterClientController ..> ClientStore
Company - -> ClientStore

ClientStore - -> Client
ClientStore ..> AuthFacade
ClientStore ..> Email

@enduml

PlantUML version 1.2021.5(Sun Apr 25 12:20:28 BST 2021)
(GPL source distribution)
Java Runtime: OpenJDK Runtime Environment
JVM: Dynamic Code Evolution 64-Bit Server VM
Default Encoding: Cp1252
Language: pt
Country: PT
--></g></svg>