<?xml version="1.0" encoding="UTF-8" standalone="no"?><svg xmlns="http://www.w3.org/2000/svg" xmlns:xlink="http://www.w3.org/1999/xlink" contentScriptType="application/ecmascript" contentStyleType="text/css" height="575.1px" preserveAspectRatio="none" style="width:765px;height:575px;" version="1.1" viewBox="0 0 765 575" width="765.9px" zoomAndPan="magnify"><defs><filter height="300%" id="f14ptao49kcygr" width="300%" x="-1" y="-1"><feGaussianBlur result="blurOut" stdDeviation="1.8"/><feColorMatrix in="blurOut" result="blurOut2" type="matrix" values="0 0 0 0 0 0 0 0 0 0 0 0 0 0 0 0 0 0 .4 0"/><feOffset dx="3.6" dy="3.6" in="blurOut2" result="blurOut3"/><feBlend in="SourceGraphic" in2="blurOut3" mode="normal"/></filter></defs><g><!--MD5=[71152100d89f377ebd8dc97f1c2b0d02]
class RegisterClientUI--><rect codeLine="2" fill="#FEFECE" filter="url(#f14ptao49kcygr)" height="43.2" id="RegisterClientUI" style="stroke:#A80036;stroke-width:1.35;" width="110.7" x="262.8" y="6.3"/><ellipse cx="276.3" cy="20.7" fill="#ADD1B2" rx="9.9" ry="9.9" style="stroke:#A80036;stroke-width:0.9;"/><path d="M278.1,17.55 Q278.2828,17.1 278.4938,16.875 Q278.7047,16.65 278.9438,16.65 Q279.3656,16.65 279.6328,16.9031 Q279.9,17.1563 279.9,17.7469 L279.9,19.1531 Q279.9,19.7438 279.6469,19.9969 Q279.3938,20.25 279,20.25 Q278.6484,20.25 278.4234,20.0953 Q278.1984,19.9406 278.1,19.5328 Q278.0578,19.2516 277.9031,19.0969 Q277.6219,18.8016 277.1156,18.6328 Q276.6094,18.45 276.1031,18.45 Q275.4703,18.45 274.9359,18.7031 Q274.4156,18.9563 274.0078,19.5188 Q273.6,20.0813 273.6,20.8547 L273.6,21.6844 Q273.6,22.6125 274.3594,23.2313 Q275.1188,23.85 276.4688,23.85 Q277.2703,23.85 277.8328,23.6672 Q278.1563,23.5688 278.5219,23.2453 Q278.7609,23.0625 278.8875,23.0063 Q279.0141,22.95 279.1688,22.95 Q279.4641,22.95 279.675,23.1891 Q279.9,23.4141 279.9,23.7375 Q279.9,24.0469 279.5906,24.4125 Q279.1406,24.9469 278.4234,25.2422 Q277.4813,25.65 276.3281,25.65 Q274.9781,25.65 273.8953,25.1156 Q273.0234,24.6938 272.4047,23.7797 Q271.8,22.8656 271.8,21.7828 L271.8,20.7984 Q271.8,19.6734 272.3344,18.6891 Q272.8828,17.7047 273.825,17.1844 Q274.7813,16.65 275.85,16.65 Q276.4969,16.65 277.0594,16.875 Q277.6219,17.1 278.1,17.55 Z " fill="#000000"/><text fill="#000000" font-family="sans-serif" font-size="10.8" lengthAdjust="spacing" textLength="81.9" x="288.9" y="25.1191">RegisterClientUI</text><line style="stroke:#A80036;stroke-width:1.35;" x1="263.7" x2="372.6" y1="35.1" y2="35.1"/><line style="stroke:#A80036;stroke-width:1.35;" x1="263.7" x2="372.6" y1="42.3" y2="42.3"/><!--MD5=[1a7fda4a36185bcd740bdf14b2b3a45e]
class RegisterClientController--><rect codeLine="5" fill="#FEFECE" filter="url(#f14ptao49kcygr)" height="80.557" id="RegisterClientController" style="stroke:#A80036;stroke-width:1.35;" width="508.5" x="63.9" y="103.5"/><ellipse cx="254.475" cy="117.9" fill="#ADD1B2" rx="9.9" ry="9.9" style="stroke:#A80036;stroke-width:0.9;"/><path d="M256.275,114.75 Q256.4578,114.3 256.6688,114.075 Q256.8797,113.85 257.1188,113.85 Q257.5406,113.85 257.8078,114.1031 Q258.075,114.3563 258.075,114.9469 L258.075,116.3531 Q258.075,116.9438 257.8219,117.1969 Q257.5688,117.45 257.175,117.45 Q256.8234,117.45 256.5984,117.2953 Q256.3734,117.1406 256.275,116.7328 Q256.2328,116.4516 256.0781,116.2969 Q255.7969,116.0016 255.2906,115.8328 Q254.7844,115.65 254.2781,115.65 Q253.6453,115.65 253.1109,115.9031 Q252.5906,116.1563 252.1828,116.7188 Q251.775,117.2813 251.775,118.0547 L251.775,118.8844 Q251.775,119.8125 252.5344,120.4313 Q253.2938,121.05 254.6438,121.05 Q255.4453,121.05 256.0078,120.8672 Q256.3313,120.7688 256.6969,120.4453 Q256.9359,120.2625 257.0625,120.2063 Q257.1891,120.15 257.3438,120.15 Q257.6391,120.15 257.85,120.3891 Q258.075,120.6141 258.075,120.9375 Q258.075,121.2469 257.7656,121.6125 Q257.3156,122.1469 256.5984,122.4422 Q255.6563,122.85 254.5031,122.85 Q253.1531,122.85 252.0703,122.3156 Q251.1984,121.8938 250.5797,120.9797 Q249.975,120.0656 249.975,118.9828 L249.975,117.9984 Q249.975,116.8734 250.5094,115.8891 Q251.0578,114.9047 252,114.3844 Q252.9563,113.85 254.025,113.85 Q254.6719,113.85 255.2344,114.075 Q255.7969,114.3 256.275,114.75 Z " fill="#000000"/><text fill="#000000" font-family="sans-serif" font-size="10.8" lengthAdjust="spacing" textLength="119.7" x="272.925" y="122.3191">RegisterClientController</text><line style="stroke:#A80036;stroke-width:1.35;" x1="64.8" x2="571.5" y1="132.3" y2="132.3"/><line style="stroke:#A80036;stroke-width:1.35;" x1="64.8" x2="571.5" y1="139.5" y2="139.5"/><ellipse cx="73.8" cy="149.4" fill="#84BE84" rx="2.7" ry="2.7" style="stroke:#038048;stroke-width:0.9;"/><text fill="#000000" font-family="sans-serif" font-size="9.9" lengthAdjust="spacing" textLength="44.1" x="81.9" y="153.3771">getStore()</text><ellipse cx="73.8" cy="161.8523" fill="#84BE84" rx="2.7" ry="2.7" style="stroke:#038048;stroke-width:0.9;"/><text fill="#000000" font-family="sans-serif" font-size="9.9" lengthAdjust="spacing" textLength="485.1" x="81.9" y="165.8294">createClient(int cc, int nhs, string birthDate, string sex, int tinNumber, int phoneNumber, string email, string name)</text><ellipse cx="73.8" cy="174.3047" fill="#84BE84" rx="2.7" ry="2.7" style="stroke:#038048;stroke-width:0.9;"/><text fill="#000000" font-family="sans-serif" font-size="9.9" lengthAdjust="spacing" textLength="52.2" x="81.9" y="178.2817">saveClient()</text><!--MD5=[8ae808d068a8995f06b9b3ec51357f0b]
class AuthFacade--><rect codeLine="11" fill="#FEFECE" filter="url(#f14ptao49kcygr)" height="55.6523" id="AuthFacade" style="stroke:#A80036;stroke-width:1.35;" width="234.9" x="6.3" y="501.3"/><ellipse cx="90.675" cy="515.7" fill="#ADD1B2" rx="9.9" ry="9.9" style="stroke:#A80036;stroke-width:0.9;"/><path d="M92.475,512.55 Q92.6578,512.1 92.8688,511.875 Q93.0797,511.65 93.3188,511.65 Q93.7406,511.65 94.0078,511.9031 Q94.275,512.1563 94.275,512.7469 L94.275,514.1531 Q94.275,514.7438 94.0219,514.9969 Q93.7688,515.25 93.375,515.25 Q93.0234,515.25 92.7984,515.0953 Q92.5734,514.9406 92.475,514.5328 Q92.4328,514.2516 92.2781,514.0969 Q91.9969,513.8016 91.4906,513.6328 Q90.9844,513.45 90.4781,513.45 Q89.8453,513.45 89.3109,513.7031 Q88.7906,513.9563 88.3828,514.5188 Q87.975,515.0813 87.975,515.8547 L87.975,516.6844 Q87.975,517.6125 88.7344,518.2313 Q89.4938,518.85 90.8438,518.85 Q91.6453,518.85 92.2078,518.6672 Q92.5313,518.5688 92.8969,518.2453 Q93.1359,518.0625 93.2625,518.0063 Q93.3891,517.95 93.5438,517.95 Q93.8391,517.95 94.05,518.1891 Q94.275,518.4141 94.275,518.7375 Q94.275,519.0469 93.9656,519.4125 Q93.5156,519.9469 92.7984,520.2422 Q91.8563,520.65 90.7031,520.65 Q89.3531,520.65 88.2703,520.1156 Q87.3984,519.6938 86.7797,518.7797 Q86.175,517.8656 86.175,516.7828 L86.175,515.7984 Q86.175,514.6734 86.7094,513.6891 Q87.2578,512.7047 88.2,512.1844 Q89.1563,511.65 90.225,511.65 Q90.8719,511.65 91.4344,511.875 Q91.9969,512.1 92.475,512.55 Z " fill="#000000"/><text fill="#000000" font-family="sans-serif" font-size="10.8" lengthAdjust="spacing" textLength="58.5" x="109.125" y="520.1191">AuthFacade</text><line style="stroke:#A80036;stroke-width:1.35;" x1="7.2" x2="240.3" y1="530.1" y2="530.1"/><line style="stroke:#A80036;stroke-width:1.35;" x1="7.2" x2="240.3" y1="537.3" y2="537.3"/><ellipse cx="16.2" cy="547.2" fill="#84BE84" rx="2.7" ry="2.7" style="stroke:#038048;stroke-width:0.9;"/><text fill="#000000" font-family="sans-serif" font-size="9.9" lengthAdjust="spacing" textLength="211.5" x="24.3" y="551.1771">addUserWithRole(name, email, password, roleId)</text><!--MD5=[02e4b9b7573f1156f41e60aa5b4e25a4]
class Company--><rect codeLine="16" fill="#FEFECE" filter="url(#f14ptao49kcygr)" height="55.6523" id="Company" style="stroke:#A80036;stroke-width:1.35;" width="76.5" x="236.7" y="238.5"/><ellipse cx="250.2" cy="252.9" fill="#ADD1B2" rx="9.9" ry="9.9" style="stroke:#A80036;stroke-width:0.9;"/><path d="M252,249.75 Q252.1828,249.3 252.3938,249.075 Q252.6047,248.85 252.8438,248.85 Q253.2656,248.85 253.5328,249.1031 Q253.8,249.3563 253.8,249.9469 L253.8,251.3531 Q253.8,251.9438 253.5469,252.1969 Q253.2938,252.45 252.9,252.45 Q252.5484,252.45 252.3234,252.2953 Q252.0984,252.1406 252,251.7328 Q251.9578,251.4516 251.8031,251.2969 Q251.5219,251.0016 251.0156,250.8328 Q250.5094,250.65 250.0031,250.65 Q249.3703,250.65 248.8359,250.9031 Q248.3156,251.1563 247.9078,251.7188 Q247.5,252.2813 247.5,253.0547 L247.5,253.8844 Q247.5,254.8125 248.2594,255.4313 Q249.0188,256.05 250.3688,256.05 Q251.1703,256.05 251.7328,255.8672 Q252.0563,255.7688 252.4219,255.4453 Q252.6609,255.2625 252.7875,255.2063 Q252.9141,255.15 253.0688,255.15 Q253.3641,255.15 253.575,255.3891 Q253.8,255.6141 253.8,255.9375 Q253.8,256.2469 253.4906,256.6125 Q253.0406,257.1469 252.3234,257.4422 Q251.3813,257.85 250.2281,257.85 Q248.8781,257.85 247.7953,257.3156 Q246.9234,256.8938 246.3047,255.9797 Q245.7,255.0656 245.7,253.9828 L245.7,252.9984 Q245.7,251.8734 246.2344,250.8891 Q246.7828,249.9047 247.725,249.3844 Q248.6813,248.85 249.75,248.85 Q250.3969,248.85 250.9594,249.075 Q251.5219,249.3 252,249.75 Z " fill="#000000"/><text fill="#000000" font-family="sans-serif" font-size="10.8" lengthAdjust="spacing" textLength="47.7" x="262.8" y="257.3191">Company</text><line style="stroke:#A80036;stroke-width:1.35;" x1="237.6" x2="312.3" y1="267.3" y2="267.3"/><line style="stroke:#A80036;stroke-width:1.35;" x1="237.6" x2="312.3" y1="274.5" y2="274.5"/><ellipse cx="246.6" cy="284.4" fill="#84BE84" rx="2.7" ry="2.7" style="stroke:#038048;stroke-width:0.9;"/><text fill="#000000" font-family="sans-serif" font-size="9.9" lengthAdjust="spacing" textLength="44.1" x="254.7" y="288.3771">getStore()</text><!--MD5=[ed6624c6556d5e7b1bd23032162d20b7]
class Client--><rect codeLine="20" fill="#FEFECE" filter="url(#f14ptao49kcygr)" height="68.1047" id="Client" style="stroke:#A80036;stroke-width:1.35;" width="480.6" x="273.15" y="495"/><ellipse cx="495.225" cy="509.4" fill="#ADD1B2" rx="9.9" ry="9.9" style="stroke:#A80036;stroke-width:0.9;"/><path d="M497.025,506.25 Q497.2078,505.8 497.4188,505.575 Q497.6297,505.35 497.8688,505.35 Q498.2906,505.35 498.5578,505.6031 Q498.825,505.8563 498.825,506.4469 L498.825,507.8531 Q498.825,508.4438 498.5719,508.6969 Q498.3188,508.95 497.925,508.95 Q497.5734,508.95 497.3484,508.7953 Q497.1234,508.6406 497.025,508.2328 Q496.9828,507.9516 496.8281,507.7969 Q496.5469,507.5016 496.0406,507.3328 Q495.5344,507.15 495.0281,507.15 Q494.3953,507.15 493.8609,507.4031 Q493.3406,507.6563 492.9328,508.2188 Q492.525,508.7813 492.525,509.5547 L492.525,510.3844 Q492.525,511.3125 493.2844,511.9313 Q494.0438,512.55 495.3938,512.55 Q496.1953,512.55 496.7578,512.3672 Q497.0813,512.2688 497.4469,511.9453 Q497.6859,511.7625 497.8125,511.7063 Q497.9391,511.65 498.0938,511.65 Q498.3891,511.65 498.6,511.8891 Q498.825,512.1141 498.825,512.4375 Q498.825,512.7469 498.5156,513.1125 Q498.0656,513.6469 497.3484,513.9422 Q496.4063,514.35 495.2531,514.35 Q493.9031,514.35 492.8203,513.8156 Q491.9484,513.3938 491.3297,512.4797 Q490.725,511.5656 490.725,510.4828 L490.725,509.4984 Q490.725,508.3734 491.2594,507.3891 Q491.8078,506.4047 492.75,505.8844 Q493.7063,505.35 494.775,505.35 Q495.4219,505.35 495.9844,505.575 Q496.5469,505.8 497.025,506.25 Z " fill="#000000"/><text fill="#000000" font-family="sans-serif" font-size="10.8" lengthAdjust="spacing" textLength="28.8" x="513.675" y="513.8191">Client</text><line style="stroke:#A80036;stroke-width:1.35;" x1="274.05" x2="752.85" y1="523.8" y2="523.8"/><line style="stroke:#A80036;stroke-width:1.35;" x1="274.05" x2="752.85" y1="531" y2="531"/><ellipse cx="283.05" cy="540.9" fill="#84BE84" rx="2.7" ry="2.7" style="stroke:#038048;stroke-width:0.9;"/><text fill="#000000" font-family="sans-serif" font-size="9.9" lengthAdjust="spacing" textLength="457.2" x="291.15" y="544.8771">Client(int cc, int nhs, string birthDate, string sex, int tinNumber, int phoneNumber, string email, string name)</text><ellipse cx="283.05" cy="553.3523" fill="#84BE84" rx="2.7" ry="2.7" style="stroke:#038048;stroke-width:0.9;"/><text fill="#000000" font-family="sans-serif" font-size="9.9" lengthAdjust="spacing" textLength="65.7" x="291.15" y="557.3294">getPassword()</text><!--MD5=[55cb992be19579b505cea3c5691093cb]
class ClientStore--><rect codeLine="25" fill="#FEFECE" filter="url(#f14ptao49kcygr)" height="93.0094" id="ClientStore" style="stroke:#A80036;stroke-width:1.35;" width="508.5" x="63.9" y="348.3"/><ellipse cx="286.875" cy="362.7" fill="#ADD1B2" rx="9.9" ry="9.9" style="stroke:#A80036;stroke-width:0.9;"/><path d="M288.675,359.55 Q288.8578,359.1 289.0688,358.875 Q289.2797,358.65 289.5188,358.65 Q289.9406,358.65 290.2078,358.9031 Q290.475,359.1563 290.475,359.7469 L290.475,361.1531 Q290.475,361.7438 290.2219,361.9969 Q289.9688,362.25 289.575,362.25 Q289.2234,362.25 288.9984,362.0953 Q288.7734,361.9406 288.675,361.5328 Q288.6328,361.2516 288.4781,361.0969 Q288.1969,360.8016 287.6906,360.6328 Q287.1844,360.45 286.6781,360.45 Q286.0453,360.45 285.5109,360.7031 Q284.9906,360.9563 284.5828,361.5188 Q284.175,362.0813 284.175,362.8547 L284.175,363.6844 Q284.175,364.6125 284.9344,365.2313 Q285.6938,365.85 287.0438,365.85 Q287.8453,365.85 288.4078,365.6672 Q288.7313,365.5688 289.0969,365.2453 Q289.3359,365.0625 289.4625,365.0063 Q289.5891,364.95 289.7438,364.95 Q290.0391,364.95 290.25,365.1891 Q290.475,365.4141 290.475,365.7375 Q290.475,366.0469 290.1656,366.4125 Q289.7156,366.9469 288.9984,367.2422 Q288.0563,367.65 286.9031,367.65 Q285.5531,367.65 284.4703,367.1156 Q283.5984,366.6938 282.9797,365.7797 Q282.375,364.8656 282.375,363.7828 L282.375,362.7984 Q282.375,361.6734 282.9094,360.6891 Q283.4578,359.7047 284.4,359.1844 Q285.3563,358.65 286.425,358.65 Q287.0719,358.65 287.6344,358.875 Q288.1969,359.1 288.675,359.55 Z " fill="#000000"/><text fill="#000000" font-family="sans-serif" font-size="10.8" lengthAdjust="spacing" textLength="54.9" x="305.325" y="367.1191">ClientStore</text><line style="stroke:#A80036;stroke-width:1.35;" x1="64.8" x2="571.5" y1="377.1" y2="377.1"/><line style="stroke:#A80036;stroke-width:1.35;" x1="64.8" x2="571.5" y1="384.3" y2="384.3"/><ellipse cx="73.8" cy="394.2" fill="#84BE84" rx="2.7" ry="2.7" style="stroke:#038048;stroke-width:0.9;"/><text fill="#000000" font-family="sans-serif" font-size="9.9" lengthAdjust="spacing" textLength="485.1" x="81.9" y="398.1771">createClient(int cc, int nhs, string birthDate, string sex, int tinNumber, int phoneNumber, string email, string name)</text><ellipse cx="73.8" cy="406.6523" fill="#84BE84" rx="2.7" ry="2.7" style="stroke:#038048;stroke-width:0.9;"/><text fill="#000000" font-family="sans-serif" font-size="9.9" lengthAdjust="spacing" textLength="52.2" x="81.9" y="410.6294">saveClient()</text><ellipse cx="73.8" cy="419.1047" fill="#84BE84" rx="2.7" ry="2.7" style="stroke:#038048;stroke-width:0.9;"/><text fill="#000000" font-family="sans-serif" font-size="9.9" lengthAdjust="spacing" textLength="63.9" x="81.9" y="423.0817">validateClient()</text><ellipse cx="73.8" cy="431.557" fill="#84BE84" rx="2.7" ry="2.7" style="stroke:#038048;stroke-width:0.9;"/><text fill="#000000" font-family="sans-serif" font-size="9.9" lengthAdjust="spacing" textLength="242.1" x="81.9" y="435.5341">addUserWithRole(string name, string email, string roleId)</text><!--MD5=[98d2d934d445daef8d5bcbeea20c1f70]
link RegisterClientUI to RegisterClientController--><path codeLine="33" d="M318.15,49.761 C318.15,63.432 318.15,81.792 318.15,98.604 " fill="none" id="RegisterClientUI-to-RegisterClientController" style="stroke:#A80036;stroke-width:0.9;stroke-dasharray:7.0,7.0;"/><polygon fill="#A80036" points="318.15,103.302,321.75,95.202,318.15,98.802,314.55,95.202,318.15,103.302" style="stroke:#A80036;stroke-width:0.9;"/><!--MD5=[198be3749d42ca56b2a20022cdc44bdd]
link RegisterClientController to Company--><path codeLine="34" d="M303.885,184.725 C298.179,200.637 291.708,218.718 286.326,233.73 " fill="none" id="RegisterClientController-to-Company" style="stroke:#A80036;stroke-width:0.9;stroke-dasharray:7.0,7.0;"/><polygon fill="#A80036" points="284.697,238.284,290.8141,231.869,286.2121,234.0467,284.0344,229.4448,284.697,238.284" style="stroke:#A80036;stroke-width:0.9;"/><!--MD5=[d17ba2de69bcbdc84560ba08c091bb6c]
link RegisterClientController to ClientStore--><path codeLine="35" d="M323.757,184.662 C325.836,201.267 327.933,220.779 328.95,238.5 C330.372,263.259 330.291,269.532 328.95,294.3 C328.086,310.329 326.43,327.753 324.684,343.467 " fill="none" id="RegisterClientController-to-ClientStore" style="stroke:#A80036;stroke-width:0.9;stroke-dasharray:7.0,7.0;"/><polygon fill="#A80036" points="324.135,348.282,328.6147,340.6333,324.6362,343.81,321.4595,339.8315,324.135,348.282" style="stroke:#A80036;stroke-width:0.9;"/><!--MD5=[a11230341c8e65219708844feaa40162]
link Company to ClientStore--><path codeLine="36" d="M284.22,294.426 C289.152,308.88 295.38,327.114 301.149,343.998 " fill="none" id="Company-to-ClientStore" style="stroke:#A80036;stroke-width:0.9;"/><polygon fill="#A80036" points="302.607,348.264,303.397,339.4353,301.1531,344.0053,296.5831,341.7615,302.607,348.264" style="stroke:#A80036;stroke-width:0.9;"/><!--MD5=[1d934105a045dbf126514c6917bd5072]
link ClientStore to Client--><path codeLine="38" d="M385.092,441.045 C409.617,457.722 437.022,476.352 460.197,492.102 " fill="none" id="ClientStore-to-Client" style="stroke:#A80036;stroke-width:0.9;"/><polygon fill="#A80036" points="464.175,494.811,459.5098,487.2741,460.4567,492.2764,455.4544,493.2233,464.175,494.811" style="stroke:#A80036;stroke-width:0.9;"/><!--MD5=[f8bd89e10615b5e5f22d4bd50c99347c]
link ClientStore to AuthFacade--><path codeLine="39" d="M251.523,441.045 C223.668,460.071 192.078,481.644 167.283,498.573 " fill="none" id="ClientStore-to-AuthFacade" style="stroke:#A80036;stroke-width:0.9;stroke-dasharray:7.0,7.0;"/><polygon fill="#A80036" points="163.359,501.255,172.0759,499.6468,167.0713,498.7116,168.0064,493.7071,163.359,501.255" style="stroke:#A80036;stroke-width:0.9;"/><!--MD5=[317b07fb5ed443a347fe7a87cd890744]
@startuml

class RegisterClientUI{
}

class RegisterClientController{
    + getStore()
    + createClient(int cc, int nhs, string birthDate, string sex, int tinNumber, int phoneNumber, string email, string name)
    + saveClient()
}

class AuthFacade{
    +addUserWithRole(name, email, password, roleId)
}


class Company{
    + getStore()
}

class Client{
    + Client(int cc, int nhs, string birthDate, string sex, int tinNumber, int phoneNumber, string email, string name)
    + getPassword()
}

class ClientStore{
    + createClient(int cc, int nhs, string birthDate, string sex, int tinNumber, int phoneNumber, string email, string name)
    + saveClient()
    + validateClient()
    + addUserWithRole(string name, string email, string roleId)
}


RegisterClientUI ..> RegisterClientController
RegisterClientController ..> Company
RegisterClientController ..> ClientStore
Company - -> ClientStore

ClientStore - -> Client
ClientStore ..> AuthFacade
@enduml

PlantUML version 1.2021.5(Sun Apr 25 12:20:28 BST 2021)
(GPL source distribution)
Java Runtime: OpenJDK Runtime Environment
JVM: Dynamic Code Evolution 64-Bit Server VM
Default Encoding: Cp1252
Language: pt
Country: PT
--></g></svg>