<?xml version="1.0" encoding="UTF-8" standalone="no"?><svg xmlns="http://www.w3.org/2000/svg" xmlns:xlink="http://www.w3.org/1999/xlink" contentScriptType="application/ecmascript" contentStyleType="text/css" height="620px" preserveAspectRatio="none" style="width:468px;height:620px;" version="1.1" viewBox="0 0 468 620" width="468.8px" zoomAndPan="magnify"><defs><filter height="300%" id="fgk90uggrksc2" width="300%" x="-1" y="-1"><feGaussianBlur result="blurOut" stdDeviation="1.6000000000000003"/><feColorMatrix in="blurOut" result="blurOut2" type="matrix" values="0 0 0 0 0 0 0 0 0 0 0 0 0 0 0 0 0 0 .4 0"/><feOffset dx="3.2000000000000006" dy="3.2000000000000006" in="blurOut2" result="blurOut3"/><feBlend in="SourceGraphic" in2="blurOut3" mode="normal"/></filter></defs><g><!--MD5=[71152100d89f377ebd8dc97f1c2b0d02]
class RegisterClientUI--><rect codeLine="2" fill="#FEFECE" filter="url(#fgk90uggrksc2)" height="38.4" id="RegisterClientUI" style="stroke:#A80036;stroke-width:1.2000000000000002;" width="98.4" x="182.4" y="5.6"/><ellipse cx="194.4" cy="18.4" fill="#ADD1B2" rx="8.8" ry="8.8" style="stroke:#A80036;stroke-width:0.8000000000000002;"/><path d="M196,15.6 Q196.1625,15.2 196.35,15 Q196.5375,14.8 196.75,14.8 Q197.125,14.8 197.3625,15.025 Q197.6,15.25 197.6,15.775 L197.6,17.025 Q197.6,17.55 197.375,17.775 Q197.15,18 196.8,18 Q196.4875,18 196.2875,17.8625 Q196.0875,17.725 196,17.3625 Q195.9625,17.1125 195.825,16.975 Q195.575,16.7125 195.125,16.5625 Q194.675,16.4 194.225,16.4 Q193.6625,16.4 193.1875,16.625 Q192.725,16.85 192.3625,17.35 Q192,17.85 192,18.5375 L192,19.275 Q192,20.1 192.675,20.65 Q193.35,21.2 194.55,21.2 Q195.2625,21.2 195.7625,21.0375 Q196.05,20.95 196.375,20.6625 Q196.5875,20.5 196.7,20.45 Q196.8125,20.4 196.95,20.4 Q197.2125,20.4 197.4,20.6125 Q197.6,20.8125 197.6,21.1 Q197.6,21.375 197.325,21.7 Q196.925,22.175 196.2875,22.4375 Q195.45,22.8 194.425,22.8 Q193.225,22.8 192.2625,22.325 Q191.4875,21.95 190.9375,21.1375 Q190.4,20.325 190.4,19.3625 L190.4,18.4875 Q190.4,17.4875 190.875,16.6125 Q191.3625,15.7375 192.2,15.275 Q193.05,14.8 194,14.8 Q194.575,14.8 195.075,15 Q195.575,15.2 196,15.6 Z " fill="#000000"/><text fill="#000000" font-family="sans-serif" font-size="9.6" lengthAdjust="spacing" textLength="72.8" x="205.6" y="22.3281">RegisterClientUI</text><line style="stroke:#A80036;stroke-width:1.2000000000000002;" x1="183.2" x2="280" y1="31.2" y2="31.2"/><line style="stroke:#A80036;stroke-width:1.2000000000000002;" x1="183.2" x2="280" y1="37.6" y2="37.6"/><!--MD5=[1a7fda4a36185bcd740bdf14b2b3a45e]
class RegisterClientController--><rect codeLine="5" fill="#FEFECE" filter="url(#fgk90uggrksc2)" height="71.6063" id="RegisterClientController" style="stroke:#A80036;stroke-width:1.2000000000000002;" width="452" x="5.6" y="92"/><ellipse cx="175" cy="104.8" fill="#ADD1B2" rx="8.8" ry="8.8" style="stroke:#A80036;stroke-width:0.8000000000000002;"/><path d="M176.6,102 Q176.7625,101.6 176.95,101.4 Q177.1375,101.2 177.35,101.2 Q177.725,101.2 177.9625,101.425 Q178.2,101.65 178.2,102.175 L178.2,103.425 Q178.2,103.95 177.975,104.175 Q177.75,104.4 177.4,104.4 Q177.0875,104.4 176.8875,104.2625 Q176.6875,104.125 176.6,103.7625 Q176.5625,103.5125 176.425,103.375 Q176.175,103.1125 175.725,102.9625 Q175.275,102.8 174.825,102.8 Q174.2625,102.8 173.7875,103.025 Q173.325,103.25 172.9625,103.75 Q172.6,104.25 172.6,104.9375 L172.6,105.675 Q172.6,106.5 173.275,107.05 Q173.95,107.6 175.15,107.6 Q175.8625,107.6 176.3625,107.4375 Q176.65,107.35 176.975,107.0625 Q177.1875,106.9 177.3,106.85 Q177.4125,106.8 177.55,106.8 Q177.8125,106.8 178,107.0125 Q178.2,107.2125 178.2,107.5 Q178.2,107.775 177.925,108.1 Q177.525,108.575 176.8875,108.8375 Q176.05,109.2 175.025,109.2 Q173.825,109.2 172.8625,108.725 Q172.0875,108.35 171.5375,107.5375 Q171,106.725 171,105.7625 L171,104.8875 Q171,103.8875 171.475,103.0125 Q171.9625,102.1375 172.8,101.675 Q173.65,101.2 174.6,101.2 Q175.175,101.2 175.675,101.4 Q176.175,101.6 176.6,102 Z " fill="#000000"/><text fill="#000000" font-family="sans-serif" font-size="9.6" lengthAdjust="spacing" textLength="106.4" x="191.4" y="108.7281">RegisterClientController</text><line style="stroke:#A80036;stroke-width:1.2000000000000002;" x1="6.4" x2="456.8" y1="117.6" y2="117.6"/><line style="stroke:#A80036;stroke-width:1.2000000000000002;" x1="6.4" x2="456.8" y1="124" y2="124"/><ellipse cx="14.4" cy="132.8" fill="#84BE84" rx="2.4" ry="2.4" style="stroke:#038048;stroke-width:0.8000000000000002;"/><text fill="#000000" font-family="sans-serif" font-size="8.8" lengthAdjust="spacing" textLength="39.2" x="21.6" y="136.3352">getStore()</text><ellipse cx="14.4" cy="143.8688" fill="#84BE84" rx="2.4" ry="2.4" style="stroke:#038048;stroke-width:0.8000000000000002;"/><text fill="#000000" font-family="sans-serif" font-size="8.8" lengthAdjust="spacing" textLength="431.2" x="21.6" y="147.4039">createClient(int cc, int nhs, string birthDate, string sex, int tinNumber, int phoneNumber, string email, string name)</text><ellipse cx="14.4" cy="154.9375" fill="#84BE84" rx="2.4" ry="2.4" style="stroke:#038048;stroke-width:0.8000000000000002;"/><text fill="#000000" font-family="sans-serif" font-size="8.8" lengthAdjust="spacing" textLength="46.4" x="21.6" y="158.4727">saveClient()</text><!--MD5=[8ae808d068a8995f06b9b3ec51357f0b]
class AuthFacade--><rect codeLine="11" fill="#FEFECE" filter="url(#fgk90uggrksc2)" height="49.4688" id="AuthFacade" style="stroke:#A80036;stroke-width:1.2000000000000002;" width="208.8" x="33.6" y="560"/><ellipse cx="108.6" cy="572.8" fill="#ADD1B2" rx="8.8" ry="8.8" style="stroke:#A80036;stroke-width:0.8000000000000002;"/><path d="M110.2,570 Q110.3625,569.6 110.55,569.4 Q110.7375,569.2 110.95,569.2 Q111.325,569.2 111.5625,569.425 Q111.8,569.65 111.8,570.175 L111.8,571.425 Q111.8,571.95 111.575,572.175 Q111.35,572.4 111,572.4 Q110.6875,572.4 110.4875,572.2625 Q110.2875,572.125 110.2,571.7625 Q110.1625,571.5125 110.025,571.375 Q109.775,571.1125 109.325,570.9625 Q108.875,570.8 108.425,570.8 Q107.8625,570.8 107.3875,571.025 Q106.925,571.25 106.5625,571.75 Q106.2,572.25 106.2,572.9375 L106.2,573.675 Q106.2,574.5 106.875,575.05 Q107.55,575.6 108.75,575.6 Q109.4625,575.6 109.9625,575.4375 Q110.25,575.35 110.575,575.0625 Q110.7875,574.9 110.9,574.85 Q111.0125,574.8 111.15,574.8 Q111.4125,574.8 111.6,575.0125 Q111.8,575.2125 111.8,575.5 Q111.8,575.775 111.525,576.1 Q111.125,576.575 110.4875,576.8375 Q109.65,577.2 108.625,577.2 Q107.425,577.2 106.4625,576.725 Q105.6875,576.35 105.1375,575.5375 Q104.6,574.725 104.6,573.7625 L104.6,572.8875 Q104.6,571.8875 105.075,571.0125 Q105.5625,570.1375 106.4,569.675 Q107.25,569.2 108.2,569.2 Q108.775,569.2 109.275,569.4 Q109.775,569.6 110.2,570 Z " fill="#000000"/><text fill="#000000" font-family="sans-serif" font-size="9.6" lengthAdjust="spacing" textLength="52" x="125" y="576.7281">AuthFacade</text><line style="stroke:#A80036;stroke-width:1.2000000000000002;" x1="34.4" x2="241.6" y1="585.6" y2="585.6"/><line style="stroke:#A80036;stroke-width:1.2000000000000002;" x1="34.4" x2="241.6" y1="592" y2="592"/><ellipse cx="42.4" cy="600.8" fill="#84BE84" rx="2.4" ry="2.4" style="stroke:#038048;stroke-width:0.8000000000000002;"/><text fill="#000000" font-family="sans-serif" font-size="8.8" lengthAdjust="spacing" textLength="188" x="49.6" y="604.3352">addUserWithRole(name, email, password, roleId)</text><!--MD5=[02e4b9b7573f1156f41e60aa5b4e25a4]
class Company--><rect codeLine="16" fill="#FEFECE" filter="url(#fgk90uggrksc2)" height="49.4688" id="Company" style="stroke:#A80036;stroke-width:1.2000000000000002;" width="68" x="159.2" y="212"/><ellipse cx="171.2" cy="224.8" fill="#ADD1B2" rx="8.8" ry="8.8" style="stroke:#A80036;stroke-width:0.8000000000000002;"/><path d="M172.8,222 Q172.9625,221.6 173.15,221.4 Q173.3375,221.2 173.55,221.2 Q173.925,221.2 174.1625,221.425 Q174.4,221.65 174.4,222.175 L174.4,223.425 Q174.4,223.95 174.175,224.175 Q173.95,224.4 173.6,224.4 Q173.2875,224.4 173.0875,224.2625 Q172.8875,224.125 172.8,223.7625 Q172.7625,223.5125 172.625,223.375 Q172.375,223.1125 171.925,222.9625 Q171.475,222.8 171.025,222.8 Q170.4625,222.8 169.9875,223.025 Q169.525,223.25 169.1625,223.75 Q168.8,224.25 168.8,224.9375 L168.8,225.675 Q168.8,226.5 169.475,227.05 Q170.15,227.6 171.35,227.6 Q172.0625,227.6 172.5625,227.4375 Q172.85,227.35 173.175,227.0625 Q173.3875,226.9 173.5,226.85 Q173.6125,226.8 173.75,226.8 Q174.0125,226.8 174.2,227.0125 Q174.4,227.2125 174.4,227.5 Q174.4,227.775 174.125,228.1 Q173.725,228.575 173.0875,228.8375 Q172.25,229.2 171.225,229.2 Q170.025,229.2 169.0625,228.725 Q168.2875,228.35 167.7375,227.5375 Q167.2,226.725 167.2,225.7625 L167.2,224.8875 Q167.2,223.8875 167.675,223.0125 Q168.1625,222.1375 169,221.675 Q169.85,221.2 170.8,221.2 Q171.375,221.2 171.875,221.4 Q172.375,221.6 172.8,222 Z " fill="#000000"/><text fill="#000000" font-family="sans-serif" font-size="9.6" lengthAdjust="spacing" textLength="42.4" x="182.4" y="228.7281">Company</text><line style="stroke:#A80036;stroke-width:1.2000000000000002;" x1="160" x2="226.4" y1="237.6" y2="237.6"/><line style="stroke:#A80036;stroke-width:1.2000000000000002;" x1="160" x2="226.4" y1="244" y2="244"/><ellipse cx="168" cy="252.8" fill="#84BE84" rx="2.4" ry="2.4" style="stroke:#038048;stroke-width:0.8000000000000002;"/><text fill="#000000" font-family="sans-serif" font-size="8.8" lengthAdjust="spacing" textLength="39.2" x="175.2" y="256.3352">getStore()</text><!--MD5=[ed6624c6556d5e7b1bd23032162d20b7]
class Client--><rect codeLine="20" fill="#FEFECE" filter="url(#fgk90uggrksc2)" height="71.6063" id="Client" style="stroke:#A80036;stroke-width:1.2000000000000002;" width="427.2" x="18" y="440"/><ellipse cx="215.4" cy="452.8" fill="#ADD1B2" rx="8.8" ry="8.8" style="stroke:#A80036;stroke-width:0.8000000000000002;"/><path d="M217,450 Q217.1625,449.6 217.35,449.4 Q217.5375,449.2 217.75,449.2 Q218.125,449.2 218.3625,449.425 Q218.6,449.65 218.6,450.175 L218.6,451.425 Q218.6,451.95 218.375,452.175 Q218.15,452.4 217.8,452.4 Q217.4875,452.4 217.2875,452.2625 Q217.0875,452.125 217,451.7625 Q216.9625,451.5125 216.825,451.375 Q216.575,451.1125 216.125,450.9625 Q215.675,450.8 215.225,450.8 Q214.6625,450.8 214.1875,451.025 Q213.725,451.25 213.3625,451.75 Q213,452.25 213,452.9375 L213,453.675 Q213,454.5 213.675,455.05 Q214.35,455.6 215.55,455.6 Q216.2625,455.6 216.7625,455.4375 Q217.05,455.35 217.375,455.0625 Q217.5875,454.9 217.7,454.85 Q217.8125,454.8 217.95,454.8 Q218.2125,454.8 218.4,455.0125 Q218.6,455.2125 218.6,455.5 Q218.6,455.775 218.325,456.1 Q217.925,456.575 217.2875,456.8375 Q216.45,457.2 215.425,457.2 Q214.225,457.2 213.2625,456.725 Q212.4875,456.35 211.9375,455.5375 Q211.4,454.725 211.4,453.7625 L211.4,452.8875 Q211.4,451.8875 211.875,451.0125 Q212.3625,450.1375 213.2,449.675 Q214.05,449.2 215,449.2 Q215.575,449.2 216.075,449.4 Q216.575,449.6 217,450 Z " fill="#000000"/><text fill="#000000" font-family="sans-serif" font-size="9.6" lengthAdjust="spacing" textLength="25.6" x="231.8" y="456.7281">Client</text><line style="stroke:#A80036;stroke-width:1.2000000000000002;" x1="18.8" x2="444.4" y1="465.6" y2="465.6"/><line style="stroke:#A80036;stroke-width:1.2000000000000002;" x1="18.8" x2="444.4" y1="472" y2="472"/><ellipse cx="26.8" cy="480.8" fill="#84BE84" rx="2.4" ry="2.4" style="stroke:#038048;stroke-width:0.8000000000000002;"/><text fill="#000000" font-family="sans-serif" font-size="8.8" lengthAdjust="spacing" textLength="406.4" x="34" y="484.3352">Client(int cc, int nhs, string birthDate, string sex, int tinNumber, int phoneNumber, string email, string name)</text><ellipse cx="26.8" cy="491.8688" fill="#84BE84" rx="2.4" ry="2.4" style="stroke:#038048;stroke-width:0.8000000000000002;"/><text fill="#000000" font-family="sans-serif" font-size="8.8" lengthAdjust="spacing" textLength="108" x="34" y="495.4039">addUserWithRole(company)</text><rect fill="#F24D5C" height="4.8" style="stroke:#C82930;stroke-width:0.8000000000000002;" width="4.8" x="24.4" y="500.5375"/><text fill="#000000" font-family="sans-serif" font-size="8.8" lengthAdjust="spacing" textLength="58.4" x="34" y="506.4727">getPassword()</text><!--MD5=[55cb992be19579b505cea3c5691093cb]
class ClientStore--><rect codeLine="27" fill="#FEFECE" filter="url(#fgk90uggrksc2)" height="82.675" id="ClientStore" style="stroke:#A80036;stroke-width:1.2000000000000002;" width="452" x="5.6" y="309.6"/><ellipse cx="203.8" cy="322.4" fill="#ADD1B2" rx="8.8" ry="8.8" style="stroke:#A80036;stroke-width:0.8000000000000002;"/><path d="M205.4,319.6 Q205.5625,319.2 205.75,319 Q205.9375,318.8 206.15,318.8 Q206.525,318.8 206.7625,319.025 Q207,319.25 207,319.775 L207,321.025 Q207,321.55 206.775,321.775 Q206.55,322 206.2,322 Q205.8875,322 205.6875,321.8625 Q205.4875,321.725 205.4,321.3625 Q205.3625,321.1125 205.225,320.975 Q204.975,320.7125 204.525,320.5625 Q204.075,320.4 203.625,320.4 Q203.0625,320.4 202.5875,320.625 Q202.125,320.85 201.7625,321.35 Q201.4,321.85 201.4,322.5375 L201.4,323.275 Q201.4,324.1 202.075,324.65 Q202.75,325.2 203.95,325.2 Q204.6625,325.2 205.1625,325.0375 Q205.45,324.95 205.775,324.6625 Q205.9875,324.5 206.1,324.45 Q206.2125,324.4 206.35,324.4 Q206.6125,324.4 206.8,324.6125 Q207,324.8125 207,325.1 Q207,325.375 206.725,325.7 Q206.325,326.175 205.6875,326.4375 Q204.85,326.8 203.825,326.8 Q202.625,326.8 201.6625,326.325 Q200.8875,325.95 200.3375,325.1375 Q199.8,324.325 199.8,323.3625 L199.8,322.4875 Q199.8,321.4875 200.275,320.6125 Q200.7625,319.7375 201.6,319.275 Q202.45,318.8 203.4,318.8 Q203.975,318.8 204.475,319 Q204.975,319.2 205.4,319.6 Z " fill="#000000"/><text fill="#000000" font-family="sans-serif" font-size="9.6" lengthAdjust="spacing" textLength="48.8" x="220.2" y="326.3281">ClientStore</text><line style="stroke:#A80036;stroke-width:1.2000000000000002;" x1="6.4" x2="456.8" y1="335.2" y2="335.2"/><line style="stroke:#A80036;stroke-width:1.2000000000000002;" x1="6.4" x2="456.8" y1="341.6" y2="341.6"/><ellipse cx="14.4" cy="350.4" fill="#84BE84" rx="2.4" ry="2.4" style="stroke:#038048;stroke-width:0.8000000000000002;"/><text fill="#000000" font-family="sans-serif" font-size="8.8" lengthAdjust="spacing" textLength="431.2" x="21.6" y="353.9352">createClient(int cc, int nhs, string birthDate, string sex, int tinNumber, int phoneNumber, string email, string name)</text><ellipse cx="14.4" cy="361.4688" fill="#84BE84" rx="2.4" ry="2.4" style="stroke:#038048;stroke-width:0.8000000000000002;"/><text fill="#000000" font-family="sans-serif" font-size="8.8" lengthAdjust="spacing" textLength="46.4" x="21.6" y="365.0039">saveClient()</text><ellipse cx="14.4" cy="372.5375" fill="#84BE84" rx="2.4" ry="2.4" style="stroke:#038048;stroke-width:0.8000000000000002;"/><text fill="#000000" font-family="sans-serif" font-size="8.8" lengthAdjust="spacing" textLength="61.6" x="21.6" y="376.0727">validateClient(c)</text><ellipse cx="14.4" cy="383.6063" fill="#84BE84" rx="2.4" ry="2.4" style="stroke:#038048;stroke-width:0.8000000000000002;"/><text fill="#000000" font-family="sans-serif" font-size="8.8" lengthAdjust="spacing" textLength="74.4" x="21.6" y="387.1414">addUser(company)</text><!--MD5=[b90084bcacc18e454bff8c773e52026f]
class email--><rect codeLine="34" fill="#FEFECE" filter="url(#fgk90uggrksc2)" height="49.4688" id="email" style="stroke:#A80036;stroke-width:1.2000000000000002;" width="110.4" x="270.8" y="560"/><ellipse cx="310.2" cy="572.8" fill="#ADD1B2" rx="8.8" ry="8.8" style="stroke:#A80036;stroke-width:0.8000000000000002;"/><path d="M311.8,570 Q311.9625,569.6 312.15,569.4 Q312.3375,569.2 312.55,569.2 Q312.925,569.2 313.1625,569.425 Q313.4,569.65 313.4,570.175 L313.4,571.425 Q313.4,571.95 313.175,572.175 Q312.95,572.4 312.6,572.4 Q312.2875,572.4 312.0875,572.2625 Q311.8875,572.125 311.8,571.7625 Q311.7625,571.5125 311.625,571.375 Q311.375,571.1125 310.925,570.9625 Q310.475,570.8 310.025,570.8 Q309.4625,570.8 308.9875,571.025 Q308.525,571.25 308.1625,571.75 Q307.8,572.25 307.8,572.9375 L307.8,573.675 Q307.8,574.5 308.475,575.05 Q309.15,575.6 310.35,575.6 Q311.0625,575.6 311.5625,575.4375 Q311.85,575.35 312.175,575.0625 Q312.3875,574.9 312.5,574.85 Q312.6125,574.8 312.75,574.8 Q313.0125,574.8 313.2,575.0125 Q313.4,575.2125 313.4,575.5 Q313.4,575.775 313.125,576.1 Q312.725,576.575 312.0875,576.8375 Q311.25,577.2 310.225,577.2 Q309.025,577.2 308.0625,576.725 Q307.2875,576.35 306.7375,575.5375 Q306.2,574.725 306.2,573.7625 L306.2,572.8875 Q306.2,571.8875 306.675,571.0125 Q307.1625,570.1375 308,569.675 Q308.85,569.2 309.8,569.2 Q310.375,569.2 310.875,569.4 Q311.375,569.6 311.8,570 Z " fill="#000000"/><text fill="#000000" font-family="sans-serif" font-size="9.6" lengthAdjust="spacing" textLength="24.8" x="326.6" y="576.7281">email</text><line style="stroke:#A80036;stroke-width:1.2000000000000002;" x1="271.6" x2="380.4" y1="585.6" y2="585.6"/><line style="stroke:#A80036;stroke-width:1.2000000000000002;" x1="271.6" x2="380.4" y1="592" y2="592"/><ellipse cx="279.6" cy="600.8" fill="#84BE84" rx="2.4" ry="2.4" style="stroke:#038048;stroke-width:0.8000000000000002;"/><text fill="#000000" font-family="sans-serif" font-size="8.8" lengthAdjust="spacing" textLength="89.6" x="286.8" y="604.3352">email(password, email)</text><!--MD5=[3388e80e66703edb167e8878a849e399]
link Client to email--><path codeLine="38" d="M262.768,512.2 C275.552,526.712 290.112,543.248 302.04,556.792 " fill="none" id="Client-to-email" style="stroke:#A80036;stroke-width:0.8000000000000002;"/><polygon fill="#A80036" points="304.696,559.808,302.3489,552.2866,302.0563,556.8027,297.5403,556.5101,304.696,559.808" style="stroke:#A80036;stroke-width:0.8000000000000002;"/><!--MD5=[98d2d934d445daef8d5bcbeea20c1f70]
link RegisterClientUI to RegisterClientController--><path codeLine="39" d="M231.6,44.232 C231.6,56.384 231.6,72.704 231.6,87.648 " fill="none" id="RegisterClientUI-to-RegisterClientController" style="stroke:#A80036;stroke-width:0.8000000000000002;stroke-dasharray:7.0,7.0;"/><polygon fill="#A80036" points="231.6,91.824,234.8,84.624,231.6,87.824,228.4,84.624,231.6,91.824" style="stroke:#A80036;stroke-width:0.8000000000000002;"/><!--MD5=[198be3749d42ca56b2a20022cdc44bdd]
link RegisterClientController to Company--><path codeLine="40" d="M218.92,164.2 C213.848,178.344 208.096,194.416 203.312,207.76 " fill="none" id="RegisterClientController-to-Company" style="stroke:#A80036;stroke-width:0.8000000000000002;stroke-dasharray:7.0,7.0;"/><polygon fill="#A80036" points="201.864,211.808,207.3014,206.1058,203.2108,208.0415,201.2751,203.951,201.864,211.808" style="stroke:#A80036;stroke-width:0.8000000000000002;"/><!--MD5=[d17ba2de69bcbdc84560ba08c091bb6c]
link RegisterClientController to ClientStore--><path codeLine="41" d="M236.584,164.144 C238.432,178.904 240.296,196.248 241.2,212 C242.464,234.008 242.392,239.584 241.2,261.6 C240.432,275.848 238.96,291.336 237.408,305.304 " fill="none" id="RegisterClientController-to-ClientStore" style="stroke:#A80036;stroke-width:0.8000000000000002;stroke-dasharray:7.0,7.0;"/><polygon fill="#A80036" points="236.92,309.584,240.902,302.7852,237.3655,305.6089,234.5418,302.0724,236.92,309.584" style="stroke:#A80036;stroke-width:0.8000000000000002;"/><!--MD5=[a11230341c8e65219708844feaa40162]
link Company to ClientStore--><path codeLine="42" d="M201.44,261.712 C205.824,274.56 211.36,290.768 216.488,305.776 " fill="none" id="Company-to-ClientStore" style="stroke:#A80036;stroke-width:0.8000000000000002;"/><polygon fill="#A80036" points="217.784,309.568,218.4862,301.7203,216.4917,305.7825,212.4294,303.788,217.784,309.568" style="stroke:#A80036;stroke-width:0.8000000000000002;"/><!--MD5=[1d934105a045dbf126514c6917bd5072]
link ClientStore to Client--><path codeLine="44" d="M231.6,392.072 C231.6,406.048 231.6,421.672 231.6,435.576 " fill="none" id="ClientStore-to-Client" style="stroke:#A80036;stroke-width:0.8000000000000002;"/><polygon fill="#A80036" points="231.6,439.832,234.8,432.632,231.6,435.832,228.4,432.632,231.6,439.832" style="stroke:#A80036;stroke-width:0.8000000000000002;"/><!--MD5=[9250d73f0fb2df684fbc76a1ebd6cb56]
link Client to AuthFacade--><path codeLine="45" d="M200.696,512.2 C188.016,526.712 173.584,543.248 161.76,556.792 " fill="none" id="Client-to-AuthFacade" style="stroke:#A80036;stroke-width:0.8000000000000002;stroke-dasharray:7.0,7.0;"/><polygon fill="#A80036" points="159.12,559.808,166.2695,556.4967,161.754,556.7977,161.453,552.2822,159.12,559.808" style="stroke:#A80036;stroke-width:0.8000000000000002;"/><!--MD5=[5d82c44ce10e4f11d713738439985dc7]
@startuml

class RegisterClientUI{
}

class RegisterClientController{
    + getStore()
    + createClient(int cc, int nhs, string birthDate, string sex, int tinNumber, int phoneNumber, string email, string name)
    + saveClient()
}

class AuthFacade{
    + addUserWithRole(name, email, password, roleId)
}


class Company{
    + getStore()
}

class Client{
    + Client(int cc, int nhs, string birthDate, string sex, int tinNumber, int phoneNumber, string email, string name)
    + addUserWithRole(company)
    - getPassword()

}

class ClientStore{
    + createClient(int cc, int nhs, string birthDate, string sex, int tinNumber, int phoneNumber, string email, string name)
    + saveClient()
    + validateClient(c)
    + addUser(company)
}

class email{
+email(password, email)
}

Client - -> email
RegisterClientUI ..> RegisterClientController
RegisterClientController ..> Company
RegisterClientController ..> ClientStore
Company - -> ClientStore

ClientStore - -> Client
Client ..> AuthFacade
@enduml

PlantUML version 1.2021.5(Sun Apr 25 12:20:28 BST 2021)
(GPL source distribution)
Java Runtime: OpenJDK Runtime Environment
JVM: Dynamic Code Evolution 64-Bit Server VM
Default Encoding: Cp1252
Language: pt
Country: PT
--></g></svg>